<svg id="Camada_1" data-name="Camada 1" xmlns="http://www.w3.org/2000/svg" viewBox="0 0 1000 162.37" preserveAspectRatio="none"><defs><style>.cls-1{fill:#fff1d9;}</style></defs><path class="cls-1" d="M998.05,86a45,45,0,0,0-2.64,7.62c-.29,1.11-.61,2.32-.9,3.48-.87-1.9-2.24,4.17-4.27,13.83-1.48,6.91-3,13.85-4.43,20.76-.74,3.45-1.48,6.94-2.25,10.37l-1,4.69-.27,1.11-9.89.87c-21.29,1.9-41.71,4-62.84,6.57-7.57.92-14.83,1.9-22.08,2.88-3.65.5-7.26,1-10.93,1.45s-7.15.87-10.79,1.32c-1.13,0-2.34,0-3.53,0-26.59.13-53.32-.31-79.78.5-8.86.29-19.87-.31-27.81.69-5.25-.37-.68-2.85-16.25-.87-8.31-.82-16.35-1.14-23.58.13-3.72.26-6.57.92-12.38.29,3.17-.53,8.39-.1,12.14-.32,1.61-1.08-6.62-.76-11.63-.89-4-.11-10,.21-11.27-.5-1-.58,1.08-1.48-8.92-1.06-5.35.21-12.42.34-12.16,1.35s-1.32.92-12,.44l-.26,0s.05,0,.05,0c-8.07.3-18.23.51-24.09.06-18.49-1.37-37.33-1.08-41.57-1.32-14.91-.77-32.06-1.45-45.51.45-4.94-.53-14.91,1.24-18.29-.58-1.84-1-14.43-.58-21.05-.4-17.12.45,2.8.61,1.19.85-7.84,1.26-22.66.65-33.64,1.34-7.86.48-6.88-1-10.31-1.58a144.1,144.1,0,0,0,16.27-.32,323.06,323.06,0,0,0-34.5-.32c7.73.48.82,2.46-4.46,2.06a6.88,6.88,0,0,0,1.71-.26c0-.05-.34-.11-1.26-.16-.42,0-1.77.13-2.69.21-4.3-.9-8.34-1.87-19.18-.68h0c-26.46.26,9-1.09-2.82-1.24l-27,.15c-18.25.11-35.37.95-53.84.77-.61,0-1.11,0-1.51,0-1.16,0-1.34.08-.68.27-6.86.63-15.28.15-22.72.37l0,0c-25.25-1.43-49.81.1-74.48.32-6.38.05-18.86-.06-22.16,1.16-8.39-1.74-20.26-.4-30.63-.4l-.45-.66c.24,0,.37-.1.37-.16a6.59,6.59,0,0,0-2.06,0l-7.33.11c-1.87.39-8.81.66-5.07,1.16s8-.26,12.48-.21l.93.71c-17.63.24-25.25-1-31.77-2.37,1-.19,2.32-.37,2.32-.56s-.52-.21-2-.31a39.6,39.6,0,0,0-9.31.39h-.18c-1.72-.16-2.48-.42-3.78-.63a20.13,20.13,0,0,0-2.5-.24c-.56,0-1.16,0-1.9-.05H133.6l-.64,0h-.37l-2.42-.07a8,8,0,0,0-1.51,0c-.68.1-.76.29-.79.47.53.11,1.08.19,1.53.24s1.19.24,1.19.26c-5.91.16-13.67-.55-22.24-1.47-13.38-1.45-28-4-39.6-3.43-1.4.05-8.86-.58-11.42-1.53-4.12-1.48-10.69-1.82-17.49-2.09-6-.23-12.17-.5-20-.84,2.17-.45,2-.87.35-1.24-.43-.08-.93-.16-1.53-.24s-1-.13-1.67-.18a12.11,12.11,0,0,0-1.68,0c-.06-.16-.16-.34-.24-.52-.16-.37-.32-.72-.45-1l-.05-.16-.11-.37-.24-.79-.39-1.51c-.56-2-1-3.87-1.4-5.72A66.58,66.58,0,0,1,11,127.52c-.24-4.75-1.8-12.19-3.35-13.43,2.32,12.66-.32,2.66-1.22,1-.68-5.49,1,.24,1.14-1.22-1.32-6.59-2.93-12.9-4.33-19.2-.58-2.53-1.13-4.88-1.71-7.1C1.19,86.44.92,85.36.63,84.3L.24,82.88,0,82.25l.05-.72.24-1.66.48-3.32c.31-2.22.63-4.41,1-6.7.69-4.57,1.56-9.42,2.88-15.2-.19,2.08-1.09,7.73.16,3.46,1.39-4.73.89-5.39.76-6.39,2-10.58,3.83-18.78,5.65-25.22.92-3.19,1.82-6,2.71-8.34a2.67,2.67,0,0,1,.5-1,3.15,3.15,0,0,1,.43-.45,1.12,1.12,0,0,1,.81-.34,2.55,2.55,0,0,1,1,.63c0-.26,4.38-1,7.47-1.48,3.64-.55,7.62-1,12.32-1.34A7.51,7.51,0,0,0,39,13.86s-.15-.08-.42-.13c4.22-1.05,10-2.19,10.19-3.08L63.66,8.32h0l2.9-.18L65.32,8c-.24-.42,12.08-1.21,20-2.37,0,.13-.13.26-.74.42L96.35,4.79c-.69-.11-1.11-.29-1.8-.42,13.72-1.59,30.13-2.62,44.69-4-.21,0-.42.13-.63.18,14-.21,30.81-1.13,37,0C183.85,2.2,195.25,2,207,2.15c5.18.08,11-.16,15.44.26,26,2.51,56.35,2.41,88.11,1.69,24.14-.52,48.62-.5,73.32-.58,26.41-.08,53.1,1,79.78-.24a177.8,177.8,0,0,1,29.28.77c2.14.21,6.2.29,9.29.26,35.16-.18,70.17-.13,105,.48,24.19,1.74,49.59,0,74.37.24,4.43,0,9.47-.35,10.07.44.9,1.11,6,.93,11.48.4a187.44,187.44,0,0,1,19-.4c27.83.45,54.24-1.71,82.55-.47,2.71.13,7.7-.18,11.08-.37L845.32,2.7c5,1.09-16,.88-7,1.82a128.64,128.64,0,0,0,13.09.53c2.4,0,4.85,0,7.31-.1,1.24-.06,2.48-.11,3.69-.13l1.79-.08.9,0,.45,0c.08,0,.08,0,.13,0h0c1.45,0,4,.21,4.54.1,3.14-.47,4.91-.31,9.55.93,3.83,1,8.42,2,17.49,2,7.07,0,19.84,1.14,33.77,2-7.76,0-14.8-.45-17.54,0a88.64,88.64,0,0,0,10.71,1.22c17.88,1,39,2.77,56.09,4.32l3.08.24.71,2.93,1.53,6.49c1,4.3,2,8.6,3,12.9,2,8.6,4,17.15,5.86,25.7,3.19,14.48,3.53,4.11,5.32,17,0,.24.06.48.08.69a2,2,0,0,0,0,.42,4.8,4.8,0,0,1,0,.69,6,6,0,0,1-.39.73l-.21.32-.27.5C998.79,84.49,998.44,85.17,998.05,86Z"/></svg>