<svg xmlns="http://www.w3.org/2000/svg" xmlns:xlink="http://www.w3.org/1999/xlink" x="0px" y="0px"
	 viewBox="0 0 624.9 1000" style="enable-background:new 0 0 624.9 1000;" xml:space="preserve">
<style type="text/css">
	.st0{opacity:0.85;fill:#B6D2EB;enable-background:new    ;}
	.st1{fill:#15FFFF;}
</style>
<path class="st0" d="M21.6,992.2c-7.5,0-13.5-6-13.4-13.5V91.1c0-3.6,1.4-7,3.9-9.5L83,10.7c2.5-2.5,5.9-3.9,9.5-3.9h511.2l0,0
	c7.5,0,13.5,6.1,13.5,13.5v958.4l0,0c0,7.5-6.1,13.5-13.5,13.5H21.6L21.6,992.2z"/>
<path class="st1" d="M1.5,340.2v-0.1c0.6,48.4,0.7,97.1,0.5,146c0,4.3,0.1,9.9,0.3,12.9c1.1,13.6,1.4,27.1,0.8,40.7
	c-1.2,37-0.1,74.1-0.2,110.8c-0.1,34.2-0.1,68.3-0.6,101.8C1.5,796.4,1.5,838.5,4,874.7c0.5,6.1,0.2,14.2,0.3,21.4
	c0.2,16.3,0,32.1,1.6,43.6c0.6,4.3,0.7,12.3,0.6,21.6c0,4.6-0.1,9.6-0.2,14.7v1.9v1v1.1c0,1.5,0.3,2.9,0.8,4.3c1,2.8,2.7,5.2,5,7
	c-1-1.1-1.8-2.4-2.4-3.8c-0.5-1.1-0.6-2.1-0.4-2.3s0.7,0.2,1.8,1.3c1.8,1.8,4.1,3.2,6.6,3.9c0.5,0.1,0.9,0.1,1.4,0.2
	c-3.5,0.1-5.2-14.2-9.3,2.8c21,0.4,21.7,6.5,43.9,4.3c16.3-1.7,37.7-2.3,57.9-3.1c1.7,0.2,4.1,0.4,4,0.6l-1.8,0.3l4.1-0.1l0,0
	l20.9,0.8c0.4,0.9,8.5,1.5,14.5,2.1l3.1,0.3c13-0.3,22.2,0.3,31.6,0.9c9.8-2.7,27.1-4,60.5-3.3c1.3,0.3,2.1,1,8.9,0.6
	c6.2-0.3-1.7-0.6-4.6-0.9l0,0c23.9-0.1,36.2,1.8,59.4,1.9c8.9,0.1,18,0.3,27.3,0.2c1.9-0.4-6.3-0.9,1.3-1.4c2.6,0.5,17,1-0.9,1.4
	c2.1,1.2,12.7,1.2,19.2,0.4c10.5-1.2,19.3-1,32.7-0.3c12.7,0.6,21.2,0.4,14.9-1.1l27.8,1.2c9.4,0.5,18.5,0.8,24.4-0.3
	c3.7-0.6,14.1-0.5,16-0.3c15.9,1.7,36.5,0.7,55.2,0.6c12,0,22.8,0,31,0.9c0.1,0-1,0.1-1.7,0.1l-2.2,0.1c0,0.4,0.3,0.8,7.1,0.9
	c10.5,0.2,10-0.6,15-0.9h-0.2h0.3c4.3,0.5,8.6,0.6,12.9,0.4c5.5-0.3,1.7-0.6-0.4-0.9l0,0c2.3-0.3,4.7-0.7,7.3-1
	c1.3-0.1,2.7-0.3,4.2-0.4l1.4-0.2c0.6-0.1,1.1-0.2,1.6-0.3c1.1-0.2,2.2-0.6,3.2-1c2.3-0.9,4.4-2.3,6.1-4c3.1-3.1,5-7.2,5.4-11.5
	c0.1-1.8,0-2.8,0-4.2c0-2.7,0-5.5,0-8.6l0.7,1.3c0,3.1-0.2,6.2-0.3,9.1c0,0.4,0,0.7,0,1.2s-0.1,0.9-0.1,1.4
	c-0.1,0.9-0.3,1.8-0.5,2.7c-0.4,1.7-1.1,3.3-1.9,4.9c-0.8,1.5-1.1,2-0.8,1.8c0.7-0.7,1.3-1.5,1.8-2.3c0.9-1.3,1.5-2.8,2-4.4
	c0.4-1.3,0.6-2.6,0.8-4l0.1-10.3c0.1-2.8,0-3.5-0.2-2.5l0,0l-0.7-0.6c0-14.4,1.4-30.8-0.4-42.6c1.3-4.6,1.1-21.9,1.2-30.8
	c0.2-34.3,1.8-68.4,0.3-103.5l0,0c0.3-10.3-0.2-22,0.4-31.5c0.2,1.1,0.3,0.3,0.2-3.1l0,0c-0.2-25.6,0.7-49.4,0.8-74.8
	c0-12.5,0.1-24.9,0.1-37.5c-0.1-16.4-1.5,32.9-1.2-3.9l0,0c1.2-15.1,0.2-20.7-0.7-26.7c0.1-1.2,0.2-3.1,0.2-3.7
	c-0.1-3.5-0.3-1.1-0.4,0.6l0,0c-0.4-7.3,0.1-13.7,0.1-20.6l-1.3-0.5v-0.1c0.4-4.5,0.9-13.5,1.3,0.1c0.4,10.7,1.4,4.2,1.9,14.9
	c0.6-18.1,0.4-32.5-0.3-48c-0.5,7.3-0.4,15-0.3,22.6c-0.6-4.7-2.1-3.4-1.6-14.3c0.8-15.2,0.1-35.8,1.4-46.7
	c0.3-2.2,0.4,25.5,0.9,1.7c0.2-9.2,0.6-26.7-0.4-29.2c-1.9-4.7-0.1-18.6-0.6-25.4c1.9-18.7,1.2-42.5,0.4-63.2
	c-0.3-5.9-0.7,14-1.5,14.9v11l0.4,5.7c-0.1-1.8-0.3-3.6-0.4-5.4c-0.6,0.1-0.3,8.9-0.8,11.8c-0.4-10.1-0.8-20.1-0.4-32.4
	c0.3,3.5,0.3,14.3,1,8.9c0.1-23.8,1.6-46.4,0.2-72.1c-0.4-8.2-0.2-22.3,0.1-33.5l0.1,0.2l-0.1-0.5v0.2c-0.4-15.1-0.5-17.4,0.5-17
	s1.2-9.5,1.4-16.9c0.4-13.9-0.5-11-1.1-12.4c-0.7-1.8-0.4-10.1-0.5-15.7c-0.1-7,0.2-18.4-0.9-16.2c-0.2,5.3,0.2,12.5-0.3,16.9
	c-0.6-8.1,0-12,0.3-17.2c1.3-10,1-21.2,0.2-32.7c2-21.7-0.5-15.3-0.9-22.6c1-11,0.4-26.3,0.7-38.6c0.8-36.7,0.4-73.8,0.5-110.8V21
	c0-0.6,0-1.8-0.1-2.7c-0.1-1-0.2-1.9-0.5-2.9c-2-7.9-8.9-13.6-17-14.2c-0.5-0.1-1-0.1-1.4-0.1h-1h-2.1L596.3,1
	c-11-0.2-22-0.5-33.5-0.7C533.2,0,504.7-0.1,475,0.1c-26.1,0.3-52.8,0.2-79.2,0.1c-13.7,0-22.3,0-20,1.3l-5,0.1
	c-13.3,0.5-13,1.9-21,2.4c-18.1,1-4.1-1.6-24.7-1.6c-27.4,0-55.1-0.6-82.9-0.8c-23.7-0.2-53.2-0.5-78.1-1.4c-4.3-0.2-8.9-0.2-15,0.1
	c3.8,0.7,13.6,1,24.2,1.8c-19.4-0.6-37.2-0.7-47-1.5c-12.5-1-19-0.4-24.4,0.2c-2.5,0.3-5,0.5-7.5,0.5c-1,0-1.7-0.1-3.2-0.1
	c-1.4,0-2.8,0.1-4.2,0.3c-1.3,0.3-2.5,0.7-3.7,1.3c-1.7,0.8-3.2,1.9-4.6,3.2l-3.8,3.5l-3.7,3.6c-2.4,2.4-4.9,4.8-7.3,7.2
	c-4.8,4.7-9.2,9.3-12.6,13.3c-8.2,9.5,12.4-11.3,8.2-5.6L28.9,55.8c-3.5,3.1-8.6,7.8-11.2,10.6C14.4,70,11,73.5,7.6,77l-0.8,0.9
	c-0.3,0.3-0.6,0.6-0.9,1c-0.5,0.7-1,1.4-1.5,2.2c-0.9,1.5-1.6,3.2-2.1,4.9s-0.7,3.4-0.7,5.2v3.6c0,9.5-0.1,19-0.3,28.5
	c-0.3,18.9-0.7,37.8-0.5,57.1c0.1,8.8,0.1,18.4-0.4,26.4c-0.5,7.5-0.7,14.7,0.4,15.9c0.8,0.8,0.5,7.8,0.5,14
	C1.5,271.1-0.2,306.4,1.5,340.2z M621.7,276.7c-0.1,1.2-0.2,2.3-0.2,3.4c0,0.6-0.1,1.2-0.1,1.8l0.1-1.9
	C621.5,279,621.6,277.9,621.7,276.7z M621.4,390.4c0-5.7,0-10.4-0.1-15.2C621.6,380.3,621.7,385.3,621.4,390.4L621.4,390.4z
	 M39.7,51.2c-1.7,1.7-2.8,3.5-5,5L39.7,51.2z M53.2,37.3c-0.2,0.3-1,1-1.5,1.6l-0.8,0.6l1.5-1.7C52.7,37.6,53.4,37,53.2,37.3z
	 M73.7,14.8c1.8-1.6,6-6,5-4.4c-0.5,0.8-3.8,4.2-6,6.5c-3.3,3.5-4.1,3.8-4.3,3.5C69.9,18.3,71.7,16.4,73.7,14.8L73.7,14.8z
	 M117.7,3.6c-0.9,0.2-3.1,0.3-5.2,0.4c-2.6,0.1-4.8,0-5.3-0.4c1.9-0.1,4-0.3,6.9-0.4C117,3.1,118.9,3.3,117.7,3.6z M171.5,3.9
	l-3-0.2l-6-0.2l6.2,0.2L171.5,3.9z M203.7,1.8c-0.3,0-0.7,0.1-1.1,0.1c-1.8,0-3.8,0-5.4,0c-2.2-0.1-1.6-0.2,1.3-0.2
	C200.3,1.7,202,1.8,203.7,1.8z M307.9,3.5c-3.6,0.4-7.2,0.4-10.7,0H307.9z M320.3,4.9c-0.5,0.1-0.9,0.2-1.4,0.2c-0.7,0-1.8,0-2.7,0
	c0.6,0,1-0.1,1.8-0.2C318.2,4.8,319.5,4.9,320.3,4.9z M374.3,6.3h-0.2c2-0.6,0-0.9-9.5-0.8S346,6,335.7,5.8
	C346,5.5,356,5.2,366.5,5.1C380.9,4.9,381.1,5.5,374.3,6.3z M382.5,1.7l-5.3-0.2l3.9,0.1C381.6,1.6,382,1.7,382.5,1.7z M391.4,4.1
	c-0.4,0.1-1.3,0.1-1.9,0.1c-0.2-0.1-0.8-0.1-0.5-0.2s1.3-0.1,1.9-0.1C391.1,4,391.8,4,391.4,4.1z M432.5,5.3c-1.5,0.5-3,0.7-4.6,0.7
	c-1.5,0.2-2.9,0.1-4.3-0.3c-1.7-0.3-2.3-0.5,4.1-0.6C428.9,5.2,432.8,5.3,432.5,5.3z M579.1,6l-0.4,0.1L576.9,6H579.1z M610.7,6.5
	c-1.5-0.8-3.1-1.4-4.8-1.7c-0.5-0.1-0.9-0.2-1.4-0.2s-1-0.1-1.4-0.1l-2.9-0.1l2.2-0.2c0.7,0,1.3-0.1,2-0.1c0.6,0,1.2,0,1.8,0.1
	c0.4,0,0.9,0.1,1.3,0.2c1.9,0.5,3.7,1.3,5.3,2.5c1.2,0.8,2.2,1.8,3,3C617.1,12.4,614.5,8.4,610.7,6.5z M619.7,81.3
	c0,0.7-0.1,1.6-0.1,1.9s-0.1-0.2-0.1-0.4c0.1-0.7,0.1-1.3,0.1-2L619.7,81.3z M620.4,190.2c0.5,3.6,0.5,7.3,0,10.9V190.2z
	 M620.6,146.1c0.1-2,0.2-4.1,0.3-6.1c-0.1,1.7-0.2,3.4-0.2,5C620.7,145.4,620.7,145.8,620.6,146.1L620.6,146.1z M620.9,341.2
	l-0.2,1.6C620.8,342.3,620.8,341.7,620.9,341.2L620.9,341.2z M621.2,320.7v2.5l-0.1-2L621.2,320.7z M621.2,939.4
	c0-0.3,0.1-0.9,0.1-1.4c0,1.4,0.1,2.7,0.1,4.1c0,0.4-0.1,1-0.1,1.5C621.2,942.2,621.2,940.8,621.2,939.4z M621,960.1v6.9
	C621,964.7,620.6,962.3,621,960.1z M620.3,734.4l0.1-0.3v2.2L620.3,734.4z M620.1,368.4c0.5-2.1,0.8,3,1.2,6.2
	C620.9,372.4,620.3,375.4,620.1,368.4z M620,393.6c0,0.6,0,1.5-0.1,1.7c-0.1,0.4-0.2,0.8-0.3,1.2L620,393.6L620,393.6z M619.3,420.4
	c-0.3-7.4,0.2-12.1,0.3-17.9C620,409.8,619.5,414.4,619.3,420.4L619.3,420.4z M618.4,408.5c0-9.9,0-19.5,0-29
	c0.2,8.2-0.1,20.3,1.1,17.4c0,1.8,0,3.5,0,5.3L618.4,408.5z M617.4,133.5l0.3,0.1v10.9L617.4,133.5z M617.3,81.7
	c0-6.9-0.1-14.9,0.7-16.9c0.1,7.5-0.1,13.2-0.4,19.1C617.4,83.2,617.3,82.4,617.3,81.7L617.3,81.7z M616.8,16
	c-1.2-3.7-3.7-6.8-7.1-8.6c3.3,1.8,5.8,4.8,7.1,8.3c0.5,1.7,0.8,3.5,0.8,5.3s0.1,3.5,0.1,5.2c0.2,6.8,0.4,13.6,0.4,20.6
	c-0.2-6.8-0.5-13.5-0.6-20.3c0-1.7,0-3.4,0-5.2C617.6,19.5,617.3,17.7,616.8,16L616.8,16z M483.6,995.5c0.7,0,1.7-0.1,2.6-0.2
	l2.5,0.3c-1.2,0.1-2.4,0.1-3.6,0.1C484.6,995.7,484.1,995.7,483.6,995.5z M464.4,993.7l3.5-0.2c0.5-0.1,1.5,0,2.2,0L464.4,993.7z
	 M455,993.8c-0.5-0.1-0.3-0.2-0.5-0.2l8.8,0.1C460.5,993.9,457.8,994,455,993.8L455,993.8z M421.2,994.3l3.1,0.2l4.1,0.4l-4.4-0.4
	L421.2,994.3z M382.8,995.7c-2.9-0.4,1.3-0.3,3.2-0.3c1.4,0,2.7,0.2,4,0.2l-2.8,0.3C385.7,995.8,383.6,995.8,382.8,995.7
	L382.8,995.7z M412.1,993.6c-24.6,0.4-40.8,0.7-58.3-0.5C373.8,992.8,388.7,993.2,412.1,993.6L412.1,993.6z M362.4,995.6
	c-6.9-0.3-14.6-0.6-16.3-1.3h0.1C354.4,994.5,360.9,994.9,362.4,995.6L362.4,995.6z M277.9,993.3c-10,0.1-10,0.3-15.2-0.5
	c17.6-0.7,35.2-0.7,52.9,0c4.8,0.2,12,0.2,11,0.8c-1.4,0.8-9.4,0.4-15.3,0.5C298.2,994.2,289.5,993.3,277.9,993.3L277.9,993.3z
	 M194.6,994.3c15.7-1.5-18.2-0.9-12.1-2.1c18.9-0.8,35.9,1.5,56,0.3c0.9,0,1.7,0.1,2.6,0.3c-0.4,0.6,4.2,1.4-8.5,1.5
	C220,994.4,207.3,994.3,194.6,994.3L194.6,994.3z M178.3,994.8c-19.4-0.4-40.4,0-57.8-0.7c8.9-0.4,17.4-0.9,24.8-1.7
	C157.4,993,165.5,994.2,178.3,994.8L178.3,994.8z M13,979.1c0.1-1.3,0.1-2.5,0.2-4s0.2-2.9,0.2-4.4c0.1-2.9,0.2-6,0.2-9
	c0.2-36.1-0.2-72.3-0.2-108.3c0.2-72.5,0.3-145,0.4-217.5c0.3-150.2,0.6-300.4,0.9-450.5c0-31.1-0.1-62.1-0.2-93v-1.3
	c0-0.3,0.1-0.5,0.1-0.8c0-0.5,0.1-1,0.3-1.5c0.3-1,0.9-1.9,1.6-2.7l8.1-8.2l16.3-16.5l32.6-32.9l7.6-7.7l3.8-3.8l1.9-1.7l0.4-0.4
	l0.3-0.3c0.2-0.2,0.4-0.4,0.6-0.5c0.8-0.6,1.8-1,2.8-1.2c0.5-0.1,1-0.2,1.5-0.2H106h43.8l87.4,0.4c93,0.7,186.5,1,279.4,0.8h65.3
	h16.4c2.2-0.1,4.5-0.1,6.7,0.1c1.2,0.3,2.4,1,3.3,1.9c0.4,0.5,0.8,1,1.1,1.6c0.3,0.5,0.5,1.2,0.6,1.8c0.1,0.3,0.1,0.7,0.1,1v6.1
	v16.5c-0.1,43.5,0,87.1,0.5,130.6c0.4,36.4,0.2,73.9,0.4,110.9c0.5,107-0.5,214.3,0.5,321.4c0.2,27.8-0.3,58.2-0.3,87.4
	c-0.1,52.6-0.2,105.7,0,157.8c0.1,34.5-0.4,63.8-1.1,94.6c-0.3,4.2-0.6,11.2-0.2,13.3c0.6,3.2,0.3-6.4,0.5-9.8l0,0
	c1.1,2.6,0.6,13.5,0.6,20.1v9.6c0,0.1,0,0.1,0,0.2v0.4c0,0.3-0.1,0.5-0.1,0.8c-0.7,3.4-3.7,5.8-7.2,5.8h-6.2h-12.3l-49.3-0.1
	l-98.5-0.2c-36.7,0-73.7,0.5-109.5-0.5c-34.4-1-70.8,0.1-105.3-0.7c-3.3,0-8.7-0.1-10.7,0.1c-12.7,1-26.2,0.7-39.5,0.2
	c-38.5-1.5-59.4,0.8-83.6,2.3c-7.8,0.5-20.2,1.2,3.1,1.5c8.8,0.1,2.8,0.5-0.3,0.7c-1,0.1-1.8,0.1-2.5,0.2c-3.5-0.2-7-0.5-10.6-1
	l0.7-0.1h-0.9l0.1,0.1c-10.1,1.1-20.2,1.1-30.3,0.1h0.2h-0.8l0.5,0.1c-13.7-0.3-21.3,0.3-26.5,1.3v-0.1c-0.5-0.5-2.5-0.9-4.6-2.5
	c-1.1-0.9-2.1-2.1-2.8-3.4C13.2,982.5,12.9,980.8,13,979.1z M7.1,226.9c0.3,9.9,0.1,19.9,0,29.9C7.1,246.9,7.1,236.9,7.1,226.9
	L7.1,226.9z M7.1,189.7c-0.1-1.1-0.2-2.4-0.2-3.6c0.1-0.4,0.2-1.3,0.2-1.2c0,1.1,0.1,2.4,0.2,3.7C7.2,188.9,7.2,189.3,7.1,189.7
	L7.1,189.7z M4.3,234.9c0.8,9.8,0.4,21.6,0.4,32.7c0,5.2-0.1,6.6-0.4,5c-0.5-2.3-0.6-4.7-0.4-7.1C4.6,256.1,4.3,245.3,4.3,234.9z
	 M5.5,441c0-0.4,0.1-0.9,0.1-1.3l0.2,3c0,0.4-0.1,1.3-0.1,1.2C5.7,443,5.6,442,5.5,441z M4.9,400.8c-0.9,0.9-1.2-5.1-1-15.5
	C3.8,395.3,5.1,390.2,4.9,400.8L4.9,400.8z M4.1,463.6C4,463.3,4,463,4,462.6c0-1.2,0-2.5,0-3.7c0.1,0.9,0.2,1.7,0.2,2.7
	C4.2,462,4.1,462.9,4.1,463.6L4.1,463.6z M4.1,430c-0.1-1.9-0.3-4.4-0.2-5.6c0-1.7,0.1-3.3,0.4-5c0.2-0.9,0.3,1.3,0.2,5.5
	C4.4,426.2,4.2,428.1,4.1,430L4.1,430z M3.7,294.9c0.5-1.4,1.2-8.4,1.3,2.4c0,2.5-0.1,5.3-0.1,8L3.7,294.9z M3.4,245.3
	c-1-12.8-1-25.7,0.1-38.4c-0.1,5.8-0.6,11-0.3,17.2s0.7,2.3,1.1-0.4v10.9C3.8,236.1,3.6,240.5,3.4,245.3L3.4,245.3z M2.4,274.6
	c0,0.2,0,0.3-0.1,0.4v-4.4c0.1,0.6,0.1,1.1,0.1,1.8S2.4,273.9,2.4,274.6L2.4,274.6z M2.8,128.2c0.1,9.9-0.6,27.4,1.2,22.3
	c0.1-0.4,0.4,6.9,0.6,10.7C2.8,170.3,4,191.8,3.5,206C2.9,180.7,1.2,157.1,2.8,128.2z"/>
</svg>
