<svg id="Camada_1" data-name="Camada 1" xmlns="http://www.w3.org/2000/svg" viewBox="0 0 800 800"><defs><style>.cls-1{fill:#545454;}</style></defs><path class="cls-1" d="M719.9,660.23c1.05-2.22,2.16-4.5,3.21-6.78-.62-6-1.3-12-1.91-18-.19-2.1-.37-4.13-.56-6.23-2.83-26.5-4.37-53.18-8.81-79.44-6.78-40-2.47-81.22-20.28-120.35-47-103.54-91.08-208.37-136.26-312.76-13-30-18.42-70-43.38-86.22-25.82-16.76-63.17,3.27-95.52,7-6.1.67-12.08,2.21-18.18,2.77-29.28,2.65-51.15,16.7-70,39.26-61,73.21-123.38,145.31-184.82,218.22-9.8,11.58-19,23.73-22.13,39.62C99.68,446,82.37,555.09,75.83,665.84c-1,16.08,4.63,23.29,16.21,32.29,40.24,31.31,88.19,39.57,135.71,52.14C373.93,788.85,517,786.63,657.6,727.59c2.28-.86,4.5-1.73,6.78-2.59,14.6-4.5,22.49-18.12,34.82-25.82.8-2.4,1.66-4.81,2.46-7.21,5.85-4.56,11.65-9.18,17.5-13.74,1.73-3.82,3.39-7.71,5.12-11.59C722.8,664.55,721.38,662.39,719.9,660.23ZM449,756.8c-7.46,2.9-12.7-7.39-12.39-16.58-4.19-2-8.44-4-12.63-6-18.43,29.65-46,25.15-73.89,19.85-51.77-9.92-105-12.7-155.43-29.77-28.9-2.22-27.18-25.76-31.43-45.11,2.84-17.62,5.86-35.19,8.44-52.81.8-5.67,3-13.19-5.23-15-8.39-1.85-9.86,6.59-11.22,11.65-5.73,21.32-10.54,42.95-15.65,64.46-5.92,1.54-11.84,3.14-17.69,4.68-21.57-6.16-31.68-32.17-24.47-62.86,8.38-63.78,16.7-127.57,25.45-191.29,1-7.27-.92-17.44,11.22-18.49,1.11-16.2-4.13-32.84,10.11-47.57,8.69-9.06,15.28-8.82,25.08-2.22-.92-17.44-20.83-23.05-17.93-39.44-3.45-14.24,2-25.33,11.46-35.75,24.4-27,48.38-54.42,72.47-81.72,24.35-29.08,48.69-58.17,74.39-89,5,13.62-4.75,20.53-4.5,29.52l-34.57,68.41c-23.18,29.4-19.35,70-41.79,99.65-.61,2.22-1.23,4.38-1.85,6.6H227c.06,1.84.18,3.69.24,5.54.13,3.21.13,6.35,0,9.49a29.4,29.4,0,0,1-.31,4.13,25.6,25.6,0,0,1-.37,3.14c-.12.74-.24,1.42-.43,2.16a28.94,28.94,0,0,1-.8,3.21,37.94,37.94,0,0,1-4.13,9.36c-9.36,19.29-32.48,4.87-44.37,18.12,12.2,7.77,11.59,21.88,16.39,33.28.93,44.37-25.51,86-16.14,133.18,14.42-6.16,10.35-17.13,13.37-25.08-1.17-5.06-3.2-10.23,2.9-13.69,7.08-29.89,3.76-62.42,22.55-89.42q30,14.34,60,28.54c14.36,4.25,28.72,8.44,43,12.69,17.57,8.81,35.5,16.39,55.16,19.35,23.54,23.17,57.31,18.61,85.29,30.82,21.94,9.67,30.2,20.46,24.47,42.7,12.26,11.41,7.7,24.22,3,37a23.92,23.92,0,0,0,1.11,3.64c-5.3,12.69-3.95,25.88-3.21,39.07-4.19,31-8.87,61.87-12.45,92.94C470.62,743.24,460.39,752.36,449,756.8ZM633.32,647.47c-10.67-20.27-13.07-44.74-31.07-61.31-7.58,28.1,13.19,47.32,21.94,70.37,1.91,11.65,11.41,21.45,8.57,34.33-6.35,3.33-12.14,7.09-12.14,15.41-35,26-75,34.82-117.77,34.2-21.14-1.36-24.1-15.59-9.18-43.88q.18-30.51.37-61c5-10.11,3.94-20.71,2.71-31.31.55-10.1,1.17-20.21,1.72-30.32C497.3,558,494.16,542,507,528.1c3.33-3.63,4.87-14.3,2.28-17-20.89-21.69-5.61-48.93-12.45-72.47-1.91-.12-3.82-.19-5.73-.25-2.47,61.88-12.7,68.72-69.58,46.72a37.06,37.06,0,0,1-5.18-3.09l-12.2-1.29c-5.61-2-10.41-5-11.64-11.46l-2.78-.13-2.71.19-.06.25c-24.78,1.41-44.62-15.29-68.1-18.49Q273.9,434.33,229,417.67c-3.27-5.55-6.54-11.1-9.86-16.64q3.88-15,7.76-29.95l5.86-.93c20.21-53.49,36.11-108.71,67.6-157.58,10.79-16.7,20.46-35.87,17.5-57.75,6.23-10.6,14.55-20.52,18.25-31.92,7.27-22.49,22.24-29.39,43.81-27.05,12,14,22.07,30,46.35,43.2-14.67-25.27-27-41.42-45.05-52.82-16.64-30.81,10.35-22.8,23.79-26.8,14.66-2.41,29.33-4.87,43.94-7.28,14.23,4.87,31.12-20.09,43.57,4q-5,20.7-10.05,41.47c-10,24.65-5.91,57-41.78,68.1,18.12,14.85,26.44,32.17,32.23,50.91C474,226.37,475,236.17,476,246c19.6,16.52,13.74,43.88,26.93,63q9.52,46.22,19.11,92.44c3.39,10-4.44,19.59,6.28,31.86,16.46,18.86,9.56,43.38-6.84,65,18.86-2.65,27.37,9.73,37.6,19l5.91-6.1c6.23-35.87-18.73-63.66-25.2-96.51-7.09-35.81-19.85-70.5-30.2-105.69-6.16-34.58-14.05-68.66-28.1-100.95,3.88-23.11-3.64-47,5.3-69.7,4-4.13,13.55-8,.49-12.88,1.85-8.56,3.7-17.13,5.48-25.7,8.45-11.21,6-25.57,10.79-37.84,16.27,15,16.08,37.6,25.51,55.78-.67,5.36,1.61,9.36,5.86,12.45a9.92,9.92,0,0,0,.68,5.85c4.49,15.1,5.11,31.61,16.94,43.88l-.24,1.48c7.33.18,13.68-3.21,17.38,9.55,6.16,21.51,17.62,41.54,26.8,62.18q17.85,36.61,35.62,73.28c4.07,8.32,6.91,16.76,1.48,25.63,9.74,11.47,19.85,22.68,20.28,39,6.9,12.21,13.31,24.71,20.71,36.61,6.71,10.66,6.77,20.83,0,31.18-2.72,4.07-5.49,10.11-9.31,11.16-8.2,2.15-7.52-7.46-11.34-11.47-10.35-10.72-4.74-39.93-19.6-35.49-16.7,5-2.15,28.1-.86,43,1.66,18.43-7.33,28.17-22.86,35.07,24.15,14.3,37.59,33,37.22,60.76-.19,12.08,3.2,24.16,5,36.24.19,13.31.86,26.62.37,39.93C652.73,653.14,645.27,655.55,633.32,647.47Zm67.54,24.78c-4.07.49-8.14.92-12.2,1.42-4.38,5.48-8.75,10.9-13.07,16.39a24,24,0,0,1-.18,3,12.93,12.93,0,0,1-.37,2.28.8.8,0,0,1-.06.37c-.13.43-.25.8-.37,1.17a4.66,4.66,0,0,1-.31.74,7.22,7.22,0,0,1-.62,1.17,7.55,7.55,0,0,1-1.54,1.66,3.46,3.46,0,0,1-1.29.8c-.13.07-.19.13-.31.19s-.49.18-.74.25a3.74,3.74,0,0,1-.86.24.59.59,0,0,0-.31.07,10.75,10.75,0,0,1-2,.18,17.47,17.47,0,0,1-3.76-.43h-.67a9.64,9.64,0,0,1-1.91-.37,8.8,8.8,0,0,1-1.79-.62,15,15,0,0,1-2.16-1.17,11.07,11.07,0,0,1-1.91-1.48,15.27,15.27,0,0,1-3.14-3.88c-.19-.37-.31-.68-.49-1a3.56,3.56,0,0,1-.37-1.17c-.07-.25-.13-.49-.19-.74-.25-1.35.06-2.53,1.11-3,23.23-11.4,7.64-32.72,14.3-47.88q-1.49-24.23-3-48.44c0-25.58-.92-51.21.43-76.67A48.64,48.64,0,0,1,680.77,480c14.91,59.41,9.67,120.61,20.4,180C701,664.11,701,668.18,700.86,672.25Z"/></svg>