<svg id="Camada_1" data-name="Camada 1" xmlns="http://www.w3.org/2000/svg" viewBox="0 0 1000 689.43"><path d="M.74,346.31a6.53,6.53,0,0,0,2,5.19c1.91,1.86,1.12-1.25,1.55-1.84,1.54,3.16.88,6.83,1,10.26.08,2,.26,4,.46,5.94q0,11.55,0,23.1a43.66,43.66,0,0,0,1.5,11.51v0l0,.06a34.06,34.06,0,0,0,2.78,7,8,8,0,0,0,2.57,4.05c.58.76,1.19,1.49,1.83,2.2-.09,0-.2,0-.19.06a.65.65,0,0,0,.17.34s.17,0,.26-.05l-.1-.2a29.32,29.32,0,0,0,2.6,2.51c0,.16.05.44.41.94s1.14,1.5,1.76,1.13a.39.39,0,0,0,.2-.27,32,32,0,0,0,4.49,2.6c-1.8-.06-1.39.82-.27,1.82h-.07a4.6,4.6,0,0,1,2.22.84,17.37,17.37,0,0,0,3.43,1.32c1.13.16,2,0,2.22-.87a.77.77,0,0,0-.11-.59,44.67,44.67,0,0,0,8,1.06.86.86,0,0,0,1,.14l.14-.08.66,0,3.06,0A2.38,2.38,0,0,0,43,427c0,1.68-.13,3.11,3.26,3.49,8.1.9,16.11,2.24,24.23,3.09a95.51,95.51,0,0,0,15.93.67c5.52-.35,11-1.18,16.58-1.05,8.47.2,16.95.57,25.41.45l8.72-.14c1.35,0,3.1-.13,4.81-.26a47.44,47.44,0,0,0,5.11-.69,41.81,41.81,0,0,0,19.25-8.69c6.33-5,11.78-12.54,12-20.09l-.11.11.11-.12c1.47-1.27,3.83.2,4.38-4.66.31-3.2-.1-6,.57-9.85.58-3.45.36-7.5.55-11.37a39.93,39.93,0,0,0-1.86-14.56c-1-2.92-2-5-.86-8.25a8.75,8.75,0,0,0,.19-4.18A59.2,59.2,0,0,1,180,337.69c.14-3.73,1.3-7.11-.28-11.12-.75-1.89.49-5.44.83-8.24l0,0v-.06h0c-1-3.86-.19-7.79-.19-11.68.06-3.68.11-7.38.16-11.06a39.27,39.27,0,0,0-2-12.3,52.71,52.71,0,0,0-4.52-9.89,23.22,23.22,0,0,0-7.59-7.77c.72-.09,1.37-.15,2-.2-.91-3.05-3.69-2.16-5.38-3.36a44.34,44.34,0,0,0-12.58-5.54,35.59,35.59,0,0,0-6.68-1.12c-1.12,0-2.24-.07-3.36-.06s-2,.12-3,.22c-2.53.26-5.67.63-8.3-.5l-.83.4c-1.45,1.32-3.21.18-4.76.2-7.17.08-14.06,1.63-21.18,1.8-3.44.09-6.89,1.15-10.31,0-.58-.51-.59-2.32-2.22-.53-.74.82-1.34.91-2.67.61-6-1.33-12.16-1.17-18.27-.62-3.16.3-6.5-1.29-9.47.42h0c-5.32.66-10.71.2-16,.09-12.31-.79-26,4.2-34.22,14.56-3.33,4.11-4,9.11-6,13.41a24.78,24.78,0,0,0-1.29,3.32c-.3,1.15-.56,2.31-.79,3.48a34.88,34.88,0,0,0-.36,3.53l-.1,1.77,0,1.61c0,4.27.09,8.56-.21,12.8-.25,3.5.8,6.93,0,10.17a15.4,15.4,0,0,0,.27,8.16C.56,335.57,1.47,340.88.74,346.31Zm178.31,21c.07-1.57.41-1.37,1-1.53,1-.28,1.1.51,1.1,1.64l0,12.47c0,4.24.15,8.06-.18,12.95l-.88-.23c-.17-4.76-.75-8.56-.94-12.79A121.29,121.29,0,0,1,179.05,367.27Zm-.61-9-.09.3-.06-.39ZM5.09,343.77C4.93,343,5,341.61,4,342.24c-.67.41-.78,1.31-.63,2.27-1.07-3.62-.48-7,.67-10.36.63,1.79.62,4,1.81,5.42l0,0h0l0,0a1.87,1.87,0,0,0,0,2.37c0,1.27,0,2.55,0,3.83A7.57,7.57,0,0,1,5.09,343.77Zm13.64-75.6c.11-.2.18-.48.35-.56a8.8,8.8,0,0,1,1.18-.43c-.14.16-.29.33-.49.58l-.07,0A7,7,0,0,0,18.73,268.17ZM46.51,428.05a.81.81,0,0,1-.37-.11,4.52,4.52,0,0,1,.28-.53l.69.25A4.74,4.74,0,0,1,46.51,428.05Zm37.78,4-.38-.08.77.06Zm65.59-9c.61-.16,1.2-.36,1.79-.55-.42.28-1.1.54-1.58.85A.63.63,0,0,1,149.88,423Zm-88-165.29a.55.55,0,0,1-.2.17l-.2,0Zm-.6.26c-1.25.63-1.47-.08-1.8-.65Zm-36.74,4.78c.07.06.21.11.21.18s-.13.17-.21.25l-.36-.27Zm-4.14,2.06c-.54,1.46-1.65,1.42-2.81,1.85C18.16,265.15,19.36,265.11,20.43,264.85Zm-6.95,4.61.56.16a.71.71,0,0,1-.45,1c-.2.08-.61,0-.59-.08A6.4,6.4,0,0,1,13.48,269.46ZM5.88,325v1.26l-1.82-.82c-.36,1.16-.31,2.22.59,2.68s1-.12,1.22-.82c0,1.86,0,3.73,0,5.6C5.35,331.81,5,332.35,4,334c-1.1-2.87-3.08-5.73,0-8.66-.4-3-.91-6,.24-9C3.48,319.74,5.34,322.11,5.88,325ZM3.8,293.71l.13.24-.15.22Zm-1.15,8.07c0,.13.1.3.06.38s-.17.14-.26.21L2.37,302ZM2.38,305c2.36,2.34.84,5.08,1.15,8C1.57,310.46,2.46,307.88,2.38,305Z"/><path d="M181.06,610.14a8.75,8.75,0,0,0,.19-4.18A59.31,59.31,0,0,1,180,592.75c.14-3.73,1.3-7.11-.28-11.12-.75-1.89.49-5.44.83-8.24l0,0v-.06h0c-1-3.86-.19-7.79-.19-11.69.06-3.67.11-7.37.16-11.05a39.22,39.22,0,0,0-2-12.3,52.43,52.43,0,0,0-4.52-9.89,23.22,23.22,0,0,0-7.59-7.77c.72-.09,1.37-.15,2-.21-.91-3-3.69-2.15-5.38-3.36a44.6,44.6,0,0,0-12.58-5.53,35.59,35.59,0,0,0-6.68-1.12q-1.68-.07-3.36-.06c-1.1,0-2,.12-3,.21-2.53.27-5.67.64-8.3-.49l-.83.39c-1.45,1.32-3.21.19-4.76.21-7.17.08-14.06,1.62-21.18,1.8-3.44.09-6.89,1.15-10.31,0-.58-.51-.59-2.32-2.22-.53-.74.82-1.34.91-2.67.61-6-1.33-12.16-1.18-18.27-.62-3.16.29-6.5-1.29-9.47.42h0c-5.32.66-10.71.2-16,.09-12.31-.78-26,4.21-34.22,14.57-3.33,4.11-4,9.11-6,13.4a24.91,24.91,0,0,0-1.29,3.33c-.3,1.14-.56,2.3-.79,3.48a34.59,34.59,0,0,0-.36,3.53l-.1,1.77,0,1.6c0,4.28.09,8.56-.21,12.8-.25,3.51.8,6.94,0,10.18a15.41,15.41,0,0,0,.27,8.16c-.14,5.36.77,10.67,0,16.1a6.53,6.53,0,0,0,2,5.19c1.91,1.86,1.12-1.26,1.55-1.84,1.54,3.16.88,6.83,1,10.26.08,2,.26,4,.46,5.94q0,11.55,0,23.1a43.53,43.53,0,0,0,1.5,11.5v0l0,.06a33.75,33.75,0,0,0,2.78,7,8,8,0,0,0,2.57,4c.58.77,1.19,1.5,1.83,2.21-.09,0-.2,0-.19.06a.65.65,0,0,0,.17.34s.17,0,.26-.06l-.1-.19a32.46,32.46,0,0,0,2.6,2.51c0,.16.05.44.41.94s1.14,1.5,1.76,1.13a.43.43,0,0,0,.2-.27,33,33,0,0,0,4.49,2.6c-1.8-.06-1.39.82-.27,1.82h-.07a4.6,4.6,0,0,1,2.22.84,16.74,16.74,0,0,0,3.43,1.31c1.13.16,2,0,2.22-.87a.75.75,0,0,0-.11-.58,44.67,44.67,0,0,0,8,1.06.87.87,0,0,0,1,.14l.14-.08.66,0,3.06,0A2.4,2.4,0,0,0,43,682.06c0,1.68-.13,3.11,3.26,3.49,8.1.9,16.11,2.24,24.23,3.09a95.51,95.51,0,0,0,15.93.67c5.52-.36,11-1.19,16.58-1,8.47.2,16.95.57,25.41.45l8.72-.15c1.35,0,3.1-.12,4.81-.26a47.4,47.4,0,0,0,5.11-.68,41.81,41.81,0,0,0,19.25-8.69c6.33-5,11.78-12.54,12-20.1l-.11.12.11-.12c1.47-1.28,3.83.2,4.38-4.66.31-3.2-.1-6,.57-9.85.58-3.45.36-7.51.55-11.38a39.91,39.91,0,0,0-1.86-14.55C180.9,615.47,179.89,613.36,181.06,610.14ZM61.91,512.81a.55.55,0,0,1-.2.17l-.2,0Zm-.6.25c-1.25.64-1.47-.07-1.8-.64Zm-41.61,9.8a6.9,6.9,0,0,0-1,.36c.11-.19.18-.48.35-.55a8.8,8.8,0,0,1,1.18-.43l-.49.57Zm4.87-5c.07.06.21.1.21.18s-.13.17-.21.25l-.36-.27Zm-4.14,2.06c-.54,1.46-1.65,1.41-2.81,1.85C18.16,520.21,19.36,520.17,20.43,519.91Zm-6.95,4.6.56.17a.7.7,0,0,1-.45,1c-.2.09-.61,0-.59-.07A6.9,6.9,0,0,1,13.48,524.51ZM3.8,548.76l.13.25-.15.22Zm-1.15,8.07c0,.14.1.31.06.39s-.17.14-.26.21L2.37,557Zm-.27,3.22c2.36,2.34.84,5.08,1.15,8C1.57,565.52,2.46,562.93,2.38,560.05ZM4,580.42c-.4-3-.91-6,.24-9-.77,3.42,1.09,5.79,1.63,8.65v1.27l-1.82-.82c-.36,1.16-.31,2.22.59,2.68s1-.12,1.22-.83c0,1.87,0,3.74,0,5.6-.51-1.07-.89-.52-1.82,1.16C2.94,586.21,1,583.35,4,580.42Zm1.08,18.4C4.93,598,5,596.67,4,597.3c-.67.41-.78,1.31-.63,2.27-1.07-3.62-.48-7,.67-10.37.63,1.79.62,4,1.81,5.43l0,0h0l0,0a1.86,1.86,0,0,0,0,2.36c0,1.28,0,2.56,0,3.84A7.65,7.65,0,0,1,5.09,598.82ZM46.51,683.1a.82.82,0,0,1-.37-.1,3.84,3.84,0,0,1,.28-.53l.69.25A4.67,4.67,0,0,1,46.51,683.1Zm37.78,4-.38-.07.77,0Zm65.59-9c.61-.17,1.2-.37,1.79-.55-.42.28-1.1.53-1.58.85A.63.63,0,0,1,149.88,678.1Zm28.47-64.49-.06-.39.15.09ZM181,647.86l-.88-.23c-.17-4.77-.75-8.56-.94-12.79a121.46,121.46,0,0,1-.11-12.52c.07-1.56.41-1.36,1-1.53,1-.27,1.1.51,1.1,1.65l0,12.47C181.13,639.15,181.31,643,181,647.86Z"/><path d="M.7,75.16c-.14,5.35.77,10.67,0,16.1a6.52,6.52,0,0,0,2,5.18c1.91,1.87,1.12-1.25,1.55-1.84,1.54,3.17.88,6.84,1,10.26.08,2,.26,4,.46,5.94q0,11.55,0,23.1a43.61,43.61,0,0,0,1.5,11.51v0l0,.06a34.06,34.06,0,0,0,2.78,7,8,8,0,0,0,2.57,4c.58.77,1.19,1.5,1.83,2.2-.09,0-.2,0-.19.06a.65.65,0,0,0,.17.34s.17,0,.26,0l-.1-.2a29.32,29.32,0,0,0,2.6,2.51c0,.16.05.44.41.94s1.14,1.51,1.76,1.13a.4.4,0,0,0,.2-.26,32,32,0,0,0,4.49,2.59c-1.8-.05-1.39.82-.27,1.83h-.07a4.41,4.41,0,0,1,2.22.84,17.34,17.34,0,0,0,3.43,1.31c1.13.16,2,0,2.22-.87a.78.78,0,0,0-.11-.59,43.78,43.78,0,0,0,8,1.06.86.86,0,0,0,1,.14l.14-.08.66,0,3.06,0A2.39,2.39,0,0,0,43,172c0,1.68-.13,3.1,3.26,3.48,8.1.9,16.11,2.24,24.23,3.09a95.51,95.51,0,0,0,15.93.67c5.52-.35,11-1.18,16.58-1.05,8.47.21,16.95.57,25.41.46l8.72-.15c1.35,0,3.1-.13,4.81-.26a47.44,47.44,0,0,0,5.11-.69,41.7,41.7,0,0,0,19.25-8.69c6.33-5,11.78-12.53,12-20.09l-.11.11.11-.12c1.47-1.27,3.83.21,4.38-4.66.31-3.2-.1-6,.57-9.84.58-3.46.36-7.51.55-11.38a40,40,0,0,0-1.86-14.56c-1-2.92-2-5-.86-8.24a8.8,8.8,0,0,0,.19-4.19A59.2,59.2,0,0,1,180,82.63c.14-3.73,1.3-7.11-.28-11.11-.75-1.9.49-5.45.83-8.25l0,0v-.06h0c-1-3.85-.19-7.79-.19-11.68q.09-5.52.16-11.06a39.27,39.27,0,0,0-2-12.3,53,53,0,0,0-4.52-9.89,23.31,23.31,0,0,0-7.59-7.77c.72-.09,1.37-.15,2-.2-.91-3-3.69-2.16-5.38-3.36a44.62,44.62,0,0,0-12.58-5.54A37.29,37.29,0,0,0,143.89.34c-1.12,0-2.24-.06-3.36-.05s-2,.11-3,.21c-2.53.26-5.67.63-8.3-.5l-.83.4c-1.45,1.32-3.21.19-4.76.2-7.17.08-14.06,1.63-21.18,1.81-3.44.08-6.89,1.15-10.31,0-.58-.51-.59-2.33-2.22-.54-.74.82-1.34.91-2.67.62-6-1.33-12.16-1.18-18.27-.63-3.16.3-6.5-1.28-9.47.43h0c-5.32.66-10.71.2-16,.09-12.31-.79-26,4.21-34.22,14.57-3.33,4.1-4,9.1-6,13.4a24.91,24.91,0,0,0-1.29,3.33c-.3,1.14-.56,2.3-.79,3.47a34.88,34.88,0,0,0-.36,3.53l-.1,1.78,0,1.6c0,4.28.09,8.56-.21,12.8-.25,3.5.8,6.93,0,10.18A15.41,15.41,0,0,0,.7,75.16Zm178.35,37.05c.07-1.56.41-1.36,1-1.53,1-.27,1.1.51,1.1,1.64l0,12.47c0,4.24.15,8.06-.18,13l-.88-.24c-.17-4.76-.75-8.56-.94-12.79A121.26,121.26,0,0,1,179.05,112.21Zm-.61-9-.09.3-.06-.38ZM5.09,88.71C4.93,87.92,5,86.55,4,87.18a2.14,2.14,0,0,0-.63,2.27c-1.07-3.62-.48-7,.67-10.36.63,1.79.62,4,1.81,5.43l0,0h0l0,0a1.86,1.86,0,0,0,0,2.36c0,1.28,0,2.56,0,3.83A7.57,7.57,0,0,1,5.09,88.71Zm13.64-75.6c.11-.19.18-.48.35-.56a10.44,10.44,0,0,1,1.18-.43l-.49.58-.07,0A8.59,8.59,0,0,0,18.73,13.11ZM46.51,173a.71.71,0,0,1-.37-.11,3.74,3.74,0,0,1,.28-.52l.69.25A4.67,4.67,0,0,1,46.51,173Zm37.78,4-.38-.08.77.06ZM149.88,168c.61-.16,1.2-.36,1.79-.55-.41.28-1.1.54-1.58.86A.65.65,0,0,1,149.88,168ZM61.91,2.7c-.06,0-.11.13-.2.16a.65.65,0,0,1-.2,0Zm-.6.25c-1.25.64-1.47-.07-1.8-.65ZM24.57,7.74c.07,0,.21.1.21.17s-.13.17-.21.26l-.36-.28ZM20.43,9.8c-.54,1.45-1.65,1.41-2.81,1.84C18.16,10.1,19.36,10.05,20.43,9.8Zm-6.95,4.6.56.16a.71.71,0,0,1-.45,1c-.2.09-.61,0-.59-.07A6.48,6.48,0,0,1,13.48,14.4ZM5.88,69.92v1.26l-1.82-.81c-.36,1.15-.31,2.21.59,2.68s1-.12,1.22-.83c0,1.86,0,3.73,0,5.6C5.35,76.75,5,77.3,4,79,2.94,76.1,1,73.24,4,70.31c-.4-3-.91-6,.24-9C3.48,64.68,5.34,67.05,5.88,69.92ZM3.8,38.65l.13.24-.15.22ZM2.65,46.72c0,.13.1.3.06.39s-.17.14-.26.2l-.08-.41Zm-.27,3.21c2.36,2.34.84,5.08,1.15,8C1.57,55.4,2.46,52.82,2.38,49.93Z"/><path d="M272.31,148.43a27.32,27.32,0,0,0,4.7,9.26c2,2.53,4.1,3.89,4.69,3.21.16-.17.11-.44-.06-.79,5.11,4.94,12,8.06,20.38,9a5.14,5.14,0,0,0,2.89.32l.44-.07c.61,0,1.2.09,1.82.09l8.63,0c-2.83.46-4.07,1.26-4,2.44.07,1.68-.32,3.1,9.25,3.48,22.85.9,45.42,2.24,68.31,3.1,14.8.55,30.11,1,44.88.67,15.55-.36,30.93-1.19,46.73-1,23.86.2,47.74.57,71.58.46,32.72-.17,65.53-.43,98.08-1.21,18.37-.44,37.62,0,55-2.12l-.34-.07.37.07c4.12,1.07,2.23,3.52,13.43,3,7.4-.34,13.94-1.07,23.46-.53,9.06.52,21,.37,31.74.55a307.64,307.64,0,0,0,41-1.83c8.22-1,14.15-2,23.24-.83a70.62,70.62,0,0,0,11.79.2c12.24-.82,24.77-1.37,37.25-1.2,10.52.15,20,1.33,31.35-.25,5.35-.75,15.35.51,23.24.85l-.12,0h.15c2.72-.26,5.45-.4,8.19-.47l4.12,0c1.36,0,2.72,0,4.3-.06a45.77,45.77,0,0,0,18.14-4,36.73,36.73,0,0,0,14-11.52,40.79,40.79,0,0,0,7.1-16.5c.29-1.45.43-2.9.64-4.35s.17-2.9.26-4.34c.06-2.73,0-5.22,0-7.83q-.06-7.75-.25-15.45c-.46-17.54.34-35.2-.81-52.49l1.51,3.31c1.61-6.08-.64-9.72-.64-14.81V40.48l-.09-2.33a48.84,48.84,0,0,0-1.37-9.37,38,38,0,0,0-9.42-17.11,37.92,37.92,0,0,0-17-9.84C964.62.07,957.85.25,952.61.5c-7.15.26-16,.64-23.39-.5l-2.34.4c-4.08,1.32-9,.18-13.41.19-20.21.07-39.66,1.58-59.78,1.73-9.72.08-19.46,1.13-29.11-.06-1.65-.51-1.64-2.32-6.26-.53-2.12.81-3.79.9-7.57.61-16.94-1.33-34.41-1.17-51.7-.56-8.94.32-18.45-1.21-26.81.54h0c-15,.75-30.32.4-45.45.46-32.66.13-65.45.27-97.95-.33-12.79-.23-24.89,1.2-37.08.31C528,1,503.53,2.08,479.59,1.46c-9.88-.25-19.57.79-28.72,0a120,120,0,0,0-23,.24c-15.11-.15-30.12.72-45.44,0a41.48,41.48,0,0,0-14.67,2c-5.29,1.9,3.52,1.13,5.18,1.57-9,1.51-19.31.82-29,.93-6.12,0-12.18.22-18.23.4-9.26-.06-15.51-.13-18.15-.21-19-.6-36,12.23-35.91,36q0,9.21,0,18.42c0,1.76,0,3.4,0,4.94q0,9.51,0,19a81.68,81.68,0,0,0,0,13.46c0,2.78,0,5.55,0,8.33-.06-.13-.13-.27-.15-.19a4,4,0,0,0-.1,1c0,.15.14.25.22.38l0-.29c0,3.31,0,6.61,0,9.92a8.37,8.37,0,0,0-.42,2.55c-.17,2-.55,5,.11,5.82.13.16.24.17.32.09,0,2.68,0,5.36,0,8a47.09,47.09,0,0,0,.51,6.53c-1.28-4.53-1.63-2.28-1.55,1.75l-.07-.14C271.26,144.07,271.61,146.16,272.31,148.43ZM321.66,173a5.07,5.07,0,0,1-1-.11,5,5,0,0,1,.78-.52l2,.25C322.8,172.74,322.29,172.89,321.66,173Zm106.52,4-1.05-.07,2.16,0Zm185.62-7.41H617c-1,0-2,.1-2.91.2A1.4,1.4,0,0,1,613.8,169.62Zm190.06,6.07H733.53l.4-.89c23.22-1,46.5-1.59,70.22-1.2,4.4.07,3.84.41,4.32,1C809.26,175.55,807.05,175.69,803.86,175.69ZM829.57,173l-.85-.1,1.09,0ZM739.11,2.72a2.38,2.38,0,0,1-.55.17l-.57,0ZM737.43,3c-3.51.66-4.17,0-5.12-.62ZM634.82,4.93c.12.08.4.17.33.24a3.54,3.54,0,0,1-.8.16l-.57-.39ZM622.5,4.81c-3.3.89-5.81.3-8.91-.06C617.16,3.85,619.68,4.41,622.5,4.81Zm-7.22,1.55c1.17,0,2.27.19,3.39.29l-2.08.21h-.19l-2.83-.27A11.22,11.22,0,0,1,615.28,6.36ZM600.67,4l.72.52a3.52,3.52,0,0,1-2.64.35c-.54-.09-1.07-.46-.93-.48C598.66,4.26,599.7,4.16,600.67,4Zm-70.3.65-.63.13-.62-.13ZM507.57,3.4l.5.28a7.6,7.6,0,0,1-1.1.06,1.44,1.44,0,0,1-.57-.26ZM499,3.4c-6.64,2.37-14.34.84-22.51,1.15C483.57,2.59,490.85,3.48,499,3.4ZM441.47,5c8.51-.4,17-.9,25.51.26-9.48-.77-16.13,1-24.07,1.57H439l2.29-1.79c-3.26-.36-6.25-.31-7.57.59-1.06.72.18,1,2,1.2l-15.33,0c2.85-.5,1.26-.89-3.4-1.8C425.14,3.93,433.24,2,441.47,5Zm-47.64-.1c-1.15-.67-3.68-.79-6.39-.63A128.27,128.27,0,0,1,416.68,5c-5.06.62-11.37.61-15.34,1.79h0a13.25,13.25,0,0,0-6.66,0l-11,0A49.85,49.85,0,0,1,389.51,6C391.74,5.86,395.6,6,393.83,4.91Z"/><path d="M277,412.75c2,2.53,4.1,3.89,4.69,3.21.16-.17.11-.44-.06-.79,5.11,4.94,12,8.06,20.38,9a5.05,5.05,0,0,0,2.89.33l.44-.07c.61,0,1.2.09,1.82.09l8.63,0c-2.83.45-4.07,1.26-4,2.43.07,1.68-.32,3.11,9.25,3.49,22.85.9,45.42,2.24,68.31,3.09,14.8.55,30.11,1,44.88.68,15.55-.36,30.93-1.19,46.73-1.05,23.86.2,47.74.57,71.58.45,32.72-.16,65.53-.42,98.08-1.2,18.37-.44,37.62,0,55-2.13l-.34-.06.37.07c4.12,1.07,2.23,3.51,13.43,3,7.4-.34,13.94-1.07,23.46-.53,9.06.52,21,.36,31.74.55a307.64,307.64,0,0,0,41-1.83c8.22-1,14.15-2,23.24-.84a68.54,68.54,0,0,0,11.79.2c12.24-.81,24.77-1.37,37.25-1.19,10.52.15,20,1.32,31.35-.25,5.35-.75,15.35.5,23.24.85l-.12,0h.16v0c2.72-.26,5.45-.39,8.19-.46l4.12,0c1.36,0,2.72,0,4.3-.06a45.94,45.94,0,0,0,18.14-4,36.82,36.82,0,0,0,14-11.52,40.91,40.91,0,0,0,7.1-16.5c.29-1.45.43-2.91.64-4.36s.17-2.89.26-4.33c.06-2.73,0-5.22,0-7.83q-.06-7.75-.25-15.45c-.46-17.55.34-35.2-.81-52.5l1.51,3.32c1.61-6.09-.64-9.72-.64-14.81v-6.24l-.09-2.34a48.85,48.85,0,0,0-1.37-9.36,36.45,36.45,0,0,0-26.47-26.95c-6.24-1.76-13-1.58-18.25-1.33-7.15.26-16,.64-23.39-.5l-2.34.39c-4.08,1.32-9,.19-13.41.2-20.21.06-39.66,1.58-59.78,1.73-9.72.07-19.46,1.13-29.11-.06-1.65-.51-1.64-2.33-6.26-.54-2.12.82-3.79.91-7.57.61-16.94-1.33-34.41-1.16-51.7-.55-8.94.32-18.45-1.22-26.81.53h0c-15,.75-30.32.4-45.45.46-32.66.13-65.45.27-97.95-.33-12.79-.24-24.89,1.2-37.08.31-23.79-1.74-48.21-.67-72.15-1.29-9.88-.25-19.57.79-28.72,0a120.79,120.79,0,0,0-23,.25c-15.11-.15-30.12.72-45.44,0a41.69,41.69,0,0,0-14.67,2c-5.29,1.9,3.52,1.12,5.18,1.57-9,1.5-19.31.82-29,.93-6.12,0-12.18.22-18.23.4-9.26-.06-15.51-.13-18.15-.21-19-.6-36,12.22-35.91,36q0,9.21,0,18.42c0,1.76,0,3.4,0,4.94q0,9.51,0,19a81.8,81.8,0,0,0,0,13.47c0,2.77,0,5.55,0,8.33-.06-.13-.13-.27-.15-.19a3.86,3.86,0,0,0-.1,1c0,.15.14.25.22.37l0-.28q0,4.95,0,9.92a8.29,8.29,0,0,0-.42,2.55c-.17,1.94-.55,5,.11,5.81.13.17.24.18.32.1,0,2.68,0,5.36,0,8a47.07,47.07,0,0,0,.51,6.52c-1.28-4.53-1.63-2.27-1.55,1.76l-.07-.15c.75,2,1.1,4.12,1.8,6.4A27.41,27.41,0,0,0,277,412.75Zm44.65,15.3a5.89,5.89,0,0,1-1-.11,5.85,5.85,0,0,1,.78-.53l2,.26C322.8,427.8,322.29,427.94,321.66,428.05Zm106.52,4-1.05-.07,2.16.05Zm185.62-7.41H617c-1,.05-2,.1-2.91.2A1.92,1.92,0,0,1,613.8,424.68Zm190.06,6.07H733.53l.4-.89c23.22-1,46.5-1.58,70.22-1.19,4.4.07,3.84.41,4.32,1C809.26,430.6,807.05,430.75,803.86,430.75Zm25.71-2.68-.85-.09,1.09-.06ZM739.11,257.78a2.38,2.38,0,0,1-.55.17l-.57,0Zm-1.68.26c-3.51.65-4.17-.05-5.12-.62ZM634.82,260c.12.08.4.17.33.24a3.54,3.54,0,0,1-.8.16l-.57-.39Zm-12.32-.13c-3.3.9-5.81.31-8.91-.06C617.16,258.9,619.68,259.47,622.5,259.86Zm-7.22,1.56c1.17.05,2.27.19,3.39.29l-2.08.21h-.19l-2.83-.27A10.09,10.09,0,0,1,615.28,261.42Zm-14.61-2.32.72.52a3.53,3.53,0,0,1-2.64.34c-.54-.08-1.07-.45-.93-.48C598.66,259.32,599.7,259.22,600.67,259.1Zm-70.3.65-.63.13-.62-.14Zm-22.8-1.29.5.28a7.6,7.6,0,0,1-1.1.06,1.44,1.44,0,0,1-.57-.26Zm-8.57,0c-6.64,2.37-14.34.84-22.51,1.14C483.57,257.65,490.85,258.54,499,258.46Zm-57.53,1.61c8.51-.4,17-.9,25.51.26-9.48-.77-16.13,1-24.07,1.57H439l2.29-1.79c-3.26-.36-6.25-.31-7.57.59-1.06.72.18,1,2,1.19H420.41c2.85-.5,1.26-.89-3.4-1.81C425.14,259,433.24,257,441.47,260.07Zm-47.64-.1c-1.15-.67-3.68-.79-6.39-.64a128.26,128.26,0,0,1,29.24.72c-5.06.62-11.37.6-15.34,1.78l-.06,0h0l.06,0a13.35,13.35,0,0,0-6.66,0l-11,0a49.85,49.85,0,0,1,5.85-.74C391.74,260.91,395.6,261,393.83,260Z"/><path d="M998.78,556.83V550.6l-.09-2.34a48.74,48.74,0,0,0-1.37-9.36,36.48,36.48,0,0,0-26.47-27c-6.24-1.76-13-1.57-18.25-1.33-7.15.27-16,.64-23.39-.5l-2.34.4c-4.08,1.32-9,.18-13.41.2-20.21.06-39.66,1.58-59.78,1.73-9.72.07-19.46,1.12-29.11-.06-1.65-.51-1.64-2.33-6.26-.54-2.12.82-3.79.91-7.57.61-16.94-1.33-34.41-1.17-51.7-.55-8.94.31-18.45-1.22-26.81.53h0c-15,.75-30.32.41-45.45.47-32.66.13-65.45.27-97.95-.33-12.79-.24-24.89,1.2-37.08.31-23.79-1.74-48.21-.68-72.15-1.29-9.88-.26-19.57.78-28.72,0a120,120,0,0,0-23,.25c-15.11-.15-30.12.72-45.44,0a41.71,41.71,0,0,0-14.67,2c-5.29,1.9,3.52,1.13,5.18,1.57-9,1.51-19.31.82-29,.94-6.12,0-12.18.22-18.23.4-9.26-.06-15.51-.13-18.15-.22-19-.59-36,12.23-35.91,36q0,9.21,0,18.41c0,1.76,0,3.41,0,5q0,9.51,0,19a81.68,81.68,0,0,0,0,13.46c0,2.78,0,5.56,0,8.33-.06-.12-.13-.26-.15-.18a3.86,3.86,0,0,0-.1,1c0,.14.14.25.22.37l0-.29q0,5,0,9.93a8.21,8.21,0,0,0-.42,2.55c-.17,1.94-.55,5,.11,5.81.13.16.24.18.32.1,0,2.68,0,5.36,0,8a47.07,47.07,0,0,0,.51,6.52c-1.28-4.53-1.63-2.27-1.55,1.75l-.07-.14c.75,2,1.1,4.12,1.8,6.4a27.5,27.5,0,0,0,4.7,9.26c2,2.53,4.1,3.88,4.69,3.21.16-.17.11-.45-.06-.8,5.11,4.95,12,8.06,20.38,9a5,5,0,0,0,2.89.32c.15,0,.29,0,.44-.06.61,0,1.2.08,1.82.09.93,0,3.9,0,8.63,0-2.83.46-4.07,1.26-4,2.44.07,1.68-.32,3.11,9.25,3.49,22.85.9,45.42,2.24,68.31,3.09,14.8.55,30.11,1,44.88.67,15.55-.35,30.93-1.18,46.73-1,23.86.21,47.74.58,71.58.46,32.72-.16,65.53-.43,98.08-1.2,18.37-.44,37.62,0,55-2.13l-.34-.06.37.06c4.12,1.08,2.23,3.52,13.43,3,7.4-.33,13.94-1.06,23.46-.52,9.06.51,21,.36,31.74.54a307.64,307.64,0,0,0,41-1.83c8.22-1,14.15-2,23.24-.83a69.56,69.56,0,0,0,11.79.2c12.24-.82,24.77-1.37,37.25-1.19,10.52.15,20,1.32,31.35-.25,5.35-.75,15.35.5,23.24.85l-.12,0h.15c2.72-.26,5.45-.4,8.19-.46l4.12,0c1.36,0,2.72,0,4.3-.06a45.76,45.76,0,0,0,18.14-4,36.82,36.82,0,0,0,14-11.52,40.89,40.89,0,0,0,7.1-16.51c.29-1.44.43-2.9.64-4.35s.17-2.89.26-4.34c.06-2.72,0-5.21,0-7.83q-.06-7.74-.25-15.44c-.46-17.55.34-35.2-.81-52.5l1.51,3.32C1001,565.56,998.78,561.92,998.78,556.83Zm-259.67-44a3,3,0,0,1-.55.17l-.57,0Zm-1.68.26c-3.51.65-4.17-.05-5.12-.62ZM634.82,515c.12.09.4.18.33.25a4.4,4.4,0,0,1-.8.15l-.57-.38Zm-12.32-.12c-3.3.9-5.81.31-8.91-.06C617.16,514,619.68,514.53,622.5,514.92Zm-7.22,1.56c1.17,0,2.27.18,3.39.29l-2.08.21h-.2l-2.82-.28A10,10,0,0,1,615.28,516.48Zm-14.61-2.32.72.52a3.58,3.58,0,0,1-2.64.34c-.54-.08-1.07-.45-.93-.48C598.66,514.38,599.7,514.28,600.67,514.16Zm-70.3.64-.63.14-.62-.14Zm-22.8-1.29.5.28a7.79,7.79,0,0,1-1.1.07,1.44,1.44,0,0,1-.57-.26Zm-8.57,0c-6.64,2.36-14.34.83-22.51,1.14C483.57,512.71,490.85,513.6,499,513.52Zm-57.53,1.6c8.51-.4,17-.89,25.51.27-9.47-.77-16.13,1-24.06,1.57H439l2.29-1.78c-3.26-.37-6.25-.31-7.57.58-1.06.73.18,1,2,1.2l-15.33,0c2.85-.49,1.26-.88-3.4-1.8C425.14,514,433.24,512.07,441.47,515.12ZM393.83,515c-1.15-.68-3.68-.79-6.39-.64a127.69,127.69,0,0,1,29.24.72c-5.06.62-11.37.6-15.34,1.78l-.06,0h0l.06,0a13.24,13.24,0,0,0-6.66,0l-11,0a51.89,51.89,0,0,1,5.85-.75C391.74,516,395.6,516.06,393.83,515ZM321.66,683.1a6.06,6.06,0,0,1-1-.1,5,5,0,0,1,.78-.53l2,.25C322.8,682.85,322.29,683,321.66,683.1Zm106.52,4-1.05-.08,2.16.06Zm185.62-7.42H617c-1,.06-2,.11-2.91.21A1.38,1.38,0,0,1,613.8,679.73Zm190.06,6.08H733.53l.4-.89c23.22-1,46.5-1.59,70.22-1.2,4.4.08,3.84.42,4.32,1C809.26,685.66,807.05,685.81,803.86,685.81Zm25.71-2.68-.85-.09,1.09-.06Z"/></svg>