<?xml version="1.0" encoding="utf-8"?>
<!-- Generator: Adobe Illustrator 25.2.1, SVG Export Plug-In . SVG Version: 6.00 Build 0)  -->
<svg version="1.1" id="Camada_1" xmlns="http://www.w3.org/2000/svg" xmlns:xlink="http://www.w3.org/1999/xlink" x="0px" y="0px"
	 viewBox="0 0 800 800" style="enable-background:new 0 0 800 800;" xml:space="preserve">
<path d="M566.1,456.8c6.9-0.5,13.3-3.3,18.4-8c5-4.6,8.4-10.6,9.7-17.3c0.6-3.2,0.6-6.5,0-9.7c-0.6-3-1.8-5.9-3.5-8.4
	c-0.1-0.1-0.3-0.5-0.6-1s-0.6-1.1-1-1.7c-0.8-1.3-1.7-2.6-2.6-3.8c1.4,1.2,2.7,2.5,3.8,4c0.7,1,1.4,2,2,3.1s1.1,2.2,1.6,3.4
	c0.4,1,0.7,2.1,1,3.1c0.2,0.9,0.4,1.8,0.6,2.3c0.3,1.2,0.5,1.5,0.7,0.2c0.1-0.7,0.1-1.5,0-2.2c-0.1-1-0.3-2-0.5-2.9
	c-0.7-2.5-1.7-4.8-3.1-7c-3-4.4-6.7-8.2-11-11.3c-1.3-1-2.6-1.9-4-2.7c-1.4-0.8-2.9-1.6-4.2-2.2c-2.6-1.3-5.3-2.5-8-3.7
	c-5.4-2.3-10.8-4.4-16.1-6.5l-3.5-1.4l-1.4-0.6c-0.4-0.1,0-0.2,0.1-0.4l0.6-0.5l1.2-1l0.6-0.5l0.7-0.6c2.3-2,4.6-4.1,6.9-6.2
	c12.8-11.8,24.1-25.3,33.3-40c9.4-15,16.2-31.5,20.2-48.8c0.2-1.2,0.5-2.3,0.8-3.6c0.2-1.2,0.5-2.5,0.7-3.8c0.6-2.5,0.9-5.2,1.5-7.8
	c0.9-5.2,1.8-10.4,2.7-14.9c0.2-1.1,0.4-2.3,0.5-3.5s0.2-2.5,0.3-3.9c0.2-2.7,0.2-5.4,0.3-8c0.3-12.3-1.2-25.5-3.6-38
	c-1.1-6.3-2.5-12.4-3.8-18.3c-1.4-5.9-2.7-11.5-3.8-16.8c-0.4-1.4-0.9-2.8-1.5-4.1c-3.4-7.2-7.3-15.6-12-23.7
	c-4.5-7.9-9.7-15.2-15.7-22c-4.6-5.1-11.3-12.3-18.1-18.8s-13.6-12.4-17.2-15.9c-4.6-4.4-9.6-8.4-14.9-11.8
	c-5.9-3.8-12.1-7.1-18.5-10c-9.8-4.5-20-8.4-30.3-11.5l-3.9-1.2c-1.3-0.4-2.6-0.8-4-1.1c-2.7-0.7-5.4-1.3-8.1-1.9
	c-5.4-1-10.7-1.8-15.8-2.6l-3.8-0.6l-1.9-0.3l-1.5-0.3h-9.5h-15.8H408c-0.3,0-0.6,0-0.9,0l-1.5,0.3l-3.8,0.6l-7.8,1.2
	c-5.2,0.8-10.6,1.7-16,3c-1.6,0.4-3.3,0.8-4.8,1.3l-4.6,1.4c-1.5,0.5-3.1,0.9-4.6,1.5s-3.1,1-4.6,1.5c-6.1,2.2-12.1,4.5-18.1,7.2
	c-11.9,5.2-23.3,11.7-34,19.2c-2.7,1.8-5.3,3.8-7.8,5.8s-5,4.2-7.4,6.3c-2.5,2.1-4.9,4.3-7.1,6.6c-2.2,2.3-4.4,4.7-6.6,7.1
	s-4.1,4.9-6.1,7.4c-1,1.3-1.9,2.5-2.9,3.8l-1.4,1.9l-1.3,2c-3.6,5.2-6.8,10.5-9.7,16.1c-0.9,1.8-1.9,3.4-2.8,5s-1.8,3-2.6,4.2
	c-4,6.2-7.2,12.7-9.8,19.6c-2.7,7.5-5,15.1-6.7,22.9c-1.7,7.3-2.8,15.3-4,22.1c-1,5.5-1.6,11.2-2.1,16.9c-0.2,2.9-0.4,5.7-0.4,8.6
	c0,1.4-0.2,2.8-0.1,4.3s0.1,2.8,0.1,4.3c0.3,10.8,1.6,21.6,4,32.1c3.3,14.4,8.4,28.4,15.1,41.6c6.7,13.1,14.9,25.4,24.5,36.5
	c4.3,5.1,9.4,10.4,14.5,15.5c2.6,2.6,5.2,5.1,7.8,7.7l2,1.9l0.9,0.9l0.5,0.5c0.7,0.8,1.3,1.4,1.8,2c-0.5-0.3-1.1-0.7-1.6-1.1
	l-0.8-0.6l-0.4-0.3l-0.7-0.6c-2.2-1.8-4.3-3.4-5.8-3.9c1.5,1.2,3,2.6,4.6,4l1.6,1.5c0.2,0.2,0.5,0.5,0.7,0.6
	c0.4,0.4,0.9,0.7,1.4,0.9c0.5,0.3,1.1,0.4,1.7,0.3l0.8,0.7c0.1,0.1,0.4,0.2,0.4,0.3l-0.4,0.2l-1.7,0.8l-1.8,0.9l-1,0.5l-0.5,0.2
	l-0.3,0.1l-0.5,0.2c-4.8,2.2-9.6,4.5-14.5,6.8c-2.4,1.2-4.9,2.4-7.3,3.7s-5,2.6-7.6,3.8c-2.6,1.3-5.3,2.5-8.1,3.7
	c-1.4,0.6-2.8,1.3-4.2,2s-2.9,1.3-4.4,2c-3.2,1.1-6.3,2.2-9.4,3.5c-1.6,0.7-3.1,1.4-4.6,2.2c-1.5,0.8-3.1,1.7-4.7,2.6
	c-3.2,1.9-6.6,3.8-10,6.4s-7.1,5.5-11.1,8.8c0.2-0.8-0.8-0.5-2.4,0.6c-0.4,0.3-0.9,0.6-1.4,0.9l-1.5,1.2c-1.1,0.9-2.3,1.9-3.6,3.1
	c-4.4,3.8-8.7,8.3-13.4,11.7c-3.1,2.2-6,4.4-8.7,6.7c-1.4,1.1-2.7,2.3-3.9,3.5s-2.5,2.4-3.7,3.6c-2.4,2.4-4.9,4.7-7.2,7.3
	c-2.3,2.6-4.6,5.2-7,7.8l-3.2,3.5c-1.1,1.2-2.1,2.3-3.1,3.5c-2,2.4-3.9,4.6-5.7,6.9s-3.7,4.4-5.2,6.6s-2.9,4.4-4.1,6.5
	c-0.6,1-4.4,5.5-6.6,8.4l0.2-0.3c-0.1,0.1-0.2,0.2-0.4,0.4l0.2-0.1c-1.6,2.7-3,5.3-4.8,8.1c-1.6,2.4-3.2,4.7-4.6,7s-2.8,4.5-4.1,6.5
	c-2.2,3.5-4.7,6.8-7.4,10c-1.9,4.5-3.9,9.3-6.3,14.3c-1.3,2.5-2.4,5.2-3.7,8s-2.7,5.8-4.3,8.8L92,579c-0.8,1.4-2.3,7.8-2.1,4.6
	c0.1-0.9,0.3-1.7,0.5-2.6c0.3-1.2,0.7-2.4,1.2-3.5c1-2.6,2.3-5.6,3.7-8.8l2.1-4.9l1.1-2.5l1.2-2.4c1.5-3.2,2.9-6.2,4-8.9
	c-1.8,3-3.4,5.9-4.9,8.7c-0.4,0.7-0.8,1.4-1.1,2.1s-0.7,1.4-1,2.1l-1.9,4.1c-1.2,2.7-2.3,5.4-3.5,8c-0.6,1.3-1.1,2.6-1.6,3.9
	l-1.4,3.9c-0.9,2.6-1.8,5.1-2.7,7.7c-0.5,1.3-0.9,2.6-1.4,3.8c-0.5,1.3-1,2.6-1.3,3.9c-1.6,5.3-3.5,10.7-5.6,16.4
	c-0.4-2.3,4.5-14.2,4.6-17.5c-2.4,6-4.3,11.1-6,16.1c-1.6,5-2.9,10.1-3.8,15.3c-1.3,6.8-2.6,13.6-4.1,21c-0.4,1.9-0.8,3.7-1.3,5.6
	l-0.8,3.2c0,0.3,0,0.7,0,1v0.9c0,0.5,0,1,0,1.5c0,4.2,0,8.5-0.1,13.2c0,1.4-0.1,2.9-0.1,4.3v0.7c0,0.2-0.1,0.5,0.1,0.6l0.7,1.1
	l0.2,0.2l0.1,0.8c0.2,1.3,0.4,2.6,0.6,3.9c0.2,1.3,0.5,2.6,0.8,3.9c1.2,5.2,3,10.2,5.2,15c4.5,9.7,10.8,18.5,18.5,25.8
	c-1-0.8-2-1.6-3-2.4c1.1,1.3,2.1,2.6,2.7,3.1c3,2.9,4.8,4,4.4,3.3c-0.7-0.8-1.4-1.5-2.1-2.2c7.3,6.5,15.6,11.8,24.6,15.7
	c9.9,4.2,20.4,6.7,31.1,7.4l4,0.2h4c2.7,0,5.2-0.1,7.8-0.1L181,756c20.9-0.3,41.8-0.6,62.6-0.8c2.7,0.4,5.4,0.4,8.1,0
	c5.8,0,11.1-0.2,17.4,0.2c8.7,0.6,21.2,0.7,28.2,0c20.5-2,44-1.3,67.3-1.3c27.4,0.1,55.4,1,82.1-0.4c-4.3-0.7-3.8-0.9-1.6-1.1
	c0.4,0,0.9-0.1,1.5-0.1c2.8,0,5.6,0.1,8.3-0.1c0.6,0.3-2.1,0.6-4.6,0.6c-3,0.1-5.9,0.1-3.2,0.7c2.2,0.1,4.6,0.3,7.1,0.2
	c2.6-0.1,5.2-0.5,7.7-1.2c5.2-1.5,9.9-4.5,13.5-8.6l0.7-0.7c0.2-0.3,0.4-0.5,0.6-0.8l1.2-1.6c0.7-1.1,1.4-2.2,1.9-3.4s1-2.3,1.4-3.5
	l0.5-1.7c0.2-0.6,0.3-1.1,0.4-1.7c0.8-3.9,0.6-7.9-0.5-11.7c-0.1-0.4-0.2-0.8-0.3-1.1l-0.4-1.1c-0.3-0.7-0.6-1.4-0.8-2.1l-1-2
	c-0.4-0.7-0.8-1.3-1.1-1.9c-1.5-2.5-3.4-4.7-5.7-6.7c-4.4-3.6-9.7-6-15.3-6.9c-2.7-0.5-5.5-0.7-8.3-0.7l-8.2-0.2
	c-5.5-0.1-11-0.1-16.6,0c-33.2,0.9-69.4,0.2-104.3,0.2c19.1-1.2,41-0.1,62.3-1.8c-43.6-0.7-83.8-0.9-124.1,0
	c-3.5-0.6-6.2-0.6-11.7,0c-8.4,0.8-16.8,0.9-25.2,0.3c-9.3-0.8-8.1-0.8-10.6-0.8c-14.2,0.3-28.4,0.7-42.6,0.9c-3.5,0-7.1,0-10.6,0
	c-3.4,0.1-6.8-0.2-10.1-0.9c-3.2-0.7-6.2-2-8.9-3.8c-2.6-1.8-4.8-4.1-6.5-6.8c-2-3.3-3.4-6.9-4-10.8c-0.6-3.4-0.5-5.9-1.1-5.5
	s-1-0.1-1.1-1.2c-0.1-1.7,0-3.4,0.3-5c0.6-4.2,2-9.8,3-14.4c2.8-11.8,6.5-23.3,11.1-34.4c1.8-4.5,3.2-8,4.2-10.7
	c2.1-4.6,4.2-9.1,6.5-13.6c0.5-1,1-1.9,1.5-2.9c-0.5,1-0.8,2-1.1,3.1c0.1,0.4,1.2-1.2,2.4-3.7c1.3-2.8,2.3-5,1.5-4.4
	c-0.2,0.2-0.4,0.5-0.5,0.7c6.2-11.3,13-22.1,20.3-32.4c0.4-0.3,0.8-0.9,1.4-1.6c1-1.3,2.5-3.1,4-5.1c3-4.2,6.9-9,9.8-12.4
	c2.7-3.1,6.2-7.1,8.4-9.9c0.3-0.3,0.5-0.6,0.7-0.9c5.4-5.8,11.1-11.5,17-16.9c0.8-0.2,5.8-4.8,7.1-5.4c-2,1.7-4.6,3.9-6.7,5.8
	s-3.6,3.5-3.4,3.9s1.8-1,4-2.9s5-4.3,7.3-6.5l0.7-0.5l-0.6,0.4l-0.5-0.9l-0.2,0.1l0.2-0.1c1.6-1.6,3.7-3.7,2.7-3.2
	c4.2-3.5,8.5-6.8,12.8-10.1l1.5-1c0-0.1,0.1-0.1,0.2-0.2c3.9-2.8,7.8-5.6,11.8-8.2c-0.4,0.3-0.8,0.5-1.1,0.8c1.1-0.7,2.1-1.4,3.1-2
	c1.4-0.9,2.8-1.7,4.2-2.5s2.7-1.6,4.1-2.3l4.2-2.1c2.9-1.4,5.8-3,9-4.5c1.6-0.8,3.3-1.6,5-2.5l2.7-1.4l2.8-1.4
	c-5.4,1.8-10.7,4.1-16,6.8c4.2-2.4,8.5-4.7,12.8-6.9c62.6-31.8,128-41.1,195.7-27.7c-11.3-2.1-22.7-3.6-34.1-4.3
	c-16.3-1.1-32.6-1-48.8,0.3c-18.4,1.5-35.8,3.6-53.7,8.9c-2.1,0.6-4.7,1.4-6.6,2s-3,1.2-2.2,1.3c1.2,0.1,2.8,0.7,8.2-1
	c14.9-4.6,30.5-6.7,45.6-9.2c6.4-1,13-1.4,19.5-1.4c6.6-0.1,13.2,0.2,19.9,0.3l10,0.5c3.3,0.1,6.6,0.4,9.9,0.7l4.9,0.4l2.5,0.2
	l2.4,0.3l9.7,1.1c3.2,0.4,6.3,1,9.5,1.4l4.7,0.7c1.6,0.2,3.1,0.6,4.6,0.9l6.6,1.4l3.3,0.7l3.3,0.8c4.3,1.1,8.7,2.5,13,3.8
	c8.6,2.8,17,6,25.2,8.7c4.5,1.5,6.1,2.9,7,3.8c-4.8-1.7-10.1-3.6-14-4.9c-3.9-1.2-6.4-1.7-5.6-0.8c1.6,1.7,14.9,7.3,23.4,9.7l4,1.2
	l2.2,0.6c0.8,0.2,1.5,0.3,2.3,0.5C559.6,456.9,562.8,457,566.1,456.8z M539.6,288.4c-0.6-1.3-0.2-2.5,0.5-4.1
	C541.2,284.6,540.2,286.5,539.6,288.4z M542.1,284.4c0-1.7,0.9-3.6,1.3-5.3C543.4,280.9,542.9,282.7,542.1,284.4z M457.1,111.6
	c-0.4-0.1-0.7-0.2-1-0.3c0,0,0-0.1,0-0.2c0.3,0.1,0.7,0.2,1,0.3C457.1,111.5,457.1,111.5,457.1,111.6z M370.2,112.4
	c2.1-0.9,4.2-1.7,6.3-2.5c0.6-0.1,1.3-0.2,1.9-0.4c0.5,1-0.7,2-3.1,2.5c-1.5,0.3-3,0.7-4.4,1.2l-4.8,2
	C368.3,113.8,369.6,112.9,370.2,112.4z M378.5,109.5l0.1-0.3c0.7-0.2,1.4-0.5,2.1-0.7C379.9,108.8,379.2,109.2,378.5,109.5z
	 M463.7,108.9l-0.6-0.1l-0.4-0.2C463,108.6,463.3,108.8,463.7,108.9z M364.6,354c0.1-0.8,3.4,1.4,2.5-0.1
	c-4.3-2.9-10.1-6.9-13.5-7.9c-1.6-0.5-3.1-1.2-4.5-2s-2.6-1.7-3.8-2.8c-2.5-2-4.6-4.2-7.3-6c-7.9-5.5-14.7-13.5-20.7-21.5
	c1.1,0.9,2.1,1.9,3,3c1,1.1,2,2.2,3,3.3c0.5,0.5,1,1.1,1.5,1.7s1.1,1,1.7,1.5c1.2,1,2.4,1.9,3.8,2.7c-7.7-8.8-14.7-18.1-21.2-27.9
	c0.1-1.2-0.3-1.8-1.6-2.9c-1.8-1.7-3-3.8-3.5-6.2c-0.4-2.7-0.1-2.5-0.5-3.1c-1-1.7-1.9-3.6-2.8-5.4s-1.7-3.6-2.4-5.5
	c-0.4-0.9-0.7-1.9-1-2.9c-0.3-0.9-0.5-1.9-0.7-2.9s-0.4-2-0.5-3s-0.2-2-0.2-3c0-1.3-0.2-2.5-0.5-3.7c-0.3-1.1-0.7-1.8-1.2-1.6
	c-1,0.5-1.6-0.2-2-1.4c-0.4-1.4-0.8-2.7-1.1-4.1c-0.4-1.7-0.8-3.4-0.9-5.1c-0.1-1.7-0.2-3.5-0.4-5.2c-0.1-1.5-0.3-2.6-0.5-3.5
	c0-1.4-0.1-2.8-0.1-4.2l0,0c0-0.3,0-0.6,0-0.9c0.1,0.4,0.3,0.8,0.5,0.9c0.2,0.1,0.5-0.5,0.4-1.3c0-0.8-0.3-1.6-0.7-1.4
	c-0.1,0-0.1,0.1-0.1,0.2c0.1-3.7,0.3-7.3,0.7-11c0.9-0.8,0.7-4.7,1.2-6.9c0.3-1.2,0.5-2.5,0.5-3.7c0-0.1,0-0.2,0-0.3
	c0.4-2.3,0.9-4.5,1.5-6.7c0.4-0.1,0.7-2.1,1.2-2.3c-0.4,1.5-1.4,3.8-0.5,4c0.6,0.2,1.3-2.2,1.6-3.9l0.2-0.2l-0.2,0.2l-0.9-0.3
	c-0.1-0.7-0.1-1.5-0.4-1.3c6.8-24.3,20.3-45.9,38.5-62.5c-4.7,4.8-8.9,10.1-13.3,15.4c-0.8,1-1.7,2-2.6,3s-1.7,2-2.5,3
	c-1.7,2-3.2,4.2-4.5,6.5c-0.6,1.1-1.6,2.7-0.8,2.7c1,0.2,2-0.4,2.4-1.3c2.1-3.9,5.4-7.1,7.5-11c0.9-1.6,2.1-3.1,3.6-4.3
	s2.9-2.5,4.2-3.9c1.4-1.3,2.6-2.8,3.9-4.1s2.5-2.8,3.8-4.2c1.2-1.4,2.5-2.7,3.7-4c0.9-0.9,1.8-1.8,2.8-2.7l3-2.5c1-0.8,2-1.6,3-2.4
	s1.9-1.7,2.9-2.5c0.6-0.7,1.6-0.8,2.4-0.4c0.4-0.9,0.9-1.8,1.5-2.6c0.3-0.4,0.6-0.7,0.9-1c2.4-1.4,4.8-2.8,7.3-4.1
	c0,0.1-0.1,0.1-0.1,0.2l-0.4,0.5c1.3,0.4,0.1,1.4-1.6,2.2c-1.4,0.7-2.7,1.6-3.9,2.5c-1.2,0.9-2.3,1.8-3.5,2.7L352,124
	c-1.2,0.8-2.3,1.7-3.3,2.8c-0.8,0.9-1.1,1.7-0.5,1.9s1.7-0.1,2.9-0.8c1.3-0.6,2.4-1.5,3.4-2.6c1.1-1.2,2.3-2.2,3.7-3.1
	c0.7-0.5,1.4-0.9,2.2-1.3c0.8-0.4,1.5-0.8,2.3-1.1l2.3-1.2c0.7-0.4,1.5-0.8,2.2-1.2c1.4-0.7,2.8-1.6,4-2.7c0.7-0.2,1.4-0.2,2.1-0.2
	c-0.9,1.2-5,2.9-3.5,3.5c0.7,0.3,1.7-0.1,2.8-0.6s2.4-1.2,3.5-1.6c6-2.3,11.8-4.7,18.5-5.6c9.1-1.3,18.8-2.3,28.2-3.6
	c2.6-0.3,5.9-0.5,8.2,0.8c1.1,0.6,2.7,0.5,4.1,0.8c1.6,0.3,3.3,0.6,5,0.7c1.7,0.2,3.5,0.4,5.2,0.7c0.8,0.1,1.7,0.3,2.5,0.5
	s1.6,0.5,2.4,0.8c1.5,0.5,2.9,1.3,4.1,2.3c0.4,0.2,0.7,0.3,1.1,0.3c1.2,0,2.3,0.1,3.5,0.3c1.2,0.2,2.4,0.5,3.6,0.8l3.7,0.8
	c1.2,0.3,2.4,0.5,3.6,0.6c2.4,0.3,4.7,0.9,6.9,2c2,0.9,3.8,2.2,5.2,3.8c1,1.5,2.2,2.8,3.7,3.9c1.4,1.1,2.9,2.2,4.6,3.2l1.8,1.2
	c0.6,0.4,1.2,0.8,1.8,1.2c1.2,0.8,2.4,1.7,3.5,2.5c2.3,1.8,4.5,3.7,6.7,5.5c2.2,1.9,4.3,3.9,6.3,5.9c1,1,2,2.1,3,3.1l1.5,1.6
	l1.4,1.6c4.6,5.2,8.7,10.8,12.5,16.7c3.8,5.8,7.3,11.7,11,17.4c0.5,0.8,0.8,1.8,0.8,2.8s0.1,2,0.2,3c0.2,1,0.4,2,0.7,3s0.7,2,1.1,3
	s0.8,2.1,1.1,3s0.8,1.9,1.1,2.9c0.3,0.9,0.6,1.9,0.7,2.9c0.5,3,0.9,6.1,1.5,9.1c0.2,1.5,0.5,3,0.7,4.4c0.1,0.7,0.3,1.4,0.4,2.1
	c0.1,0.7,0.2,1.4,0.3,2.1c1.3,8,1.7,16.1,1.3,24.1c-0.1,1.9-0.2,3.9-0.4,5.9s-0.7,4-1.5,5.9c-0.2-1.2,0.4-3.3-0.7-4.2
	c0.2,2.1-1.4,4.9,0.4,4.9c-0.2,1.5-0.4,3.1-0.4,4.6c0,0.8,0,1.5,0,2.3s-0.1,1.5-0.2,2.3c-0.1,1.6-0.4,3.1-0.9,4.7
	c-0.6,1.7-1.4,3.2-2.5,4.6c-1.7,1.1-3.1,2.7-4,4.5c-0.5,1-0.9,2-1.2,3c-0.4,1.3-0.6,2.6-0.8,3.9c-0.9-0.8-1.4,0.5-1.9,2.3
	c-0.4,1.6-0.3,3.6-1.6,4.7c-1.5,1.4-2.7,3-3.5,4.8c-0.9,1.7-1.6,3.4-2.7,5.1c-1,1.5-2,2.9-2.9,4.2c-0.9,1.3-1.6,2.6-2,4.1
	c-0.6,0.8-1.3,1.5-2.1,2.2v-0.1l-0.1,0.1h0.1c-0.4,0.8-0.9,1.6-1.4,2.3c-1.9,2.7-4.2,4.5-6.3,5c-0.6,1.4-1.4,2.7-2.3,3.9
	c-1.1,1.4-2.4,2.6-3.8,3.6l-0.9,0.3c-0.5,0.2-1.2,2.1-1.2,0.8c0-1.1,1.2-2.4,2.5-3.8s2.5-2.9,3.5-4.5c-1.5,1-2.8,2.2-4,3.5
	c-1.1,1.1-2.1,2.3-3.1,3.6c-0.9,1.2-1.9,2.4-3,3.5c-1.1,1.2-2.4,2.2-3.7,3.1c-0.2-1.2,3-3,3.1-4.2c-2.7,1.5-5,3.5-7,5.8
	c-1.4,1.5-2.9,2.9-4.5,4.1c-1.9,1.4-3.9,2.6-6.1,3.6c-1.3,0.6-2.6,1.1-3.9,1.7l-2,0.9l-2,0.8l-4,1.7l-4.1,1.5
	c0.3-0.2,0.6-0.4,0.8-0.7l-1.1,0.1c-1,0.4-1.5,0.7-1.2,0.9c0.3,0.1,0.6,0.1,0.8,0c-1.2,0.5-2.5,0.9-3.8,1.2
	c-1.3,0.4-2.4,0.8-3.8,1.1c-1.4,0.3-2.8,0.6-4.2,1l-2.1,0.5l-2.1,0.5l-4.3,1l-4.3,0.8c-0.7,0.1-1.4,0.3-2.2,0.4l-2.2,0.3l-4.4,0.7
	l-4.4,0.4l-2.2,0.2l-2.2,0.1c-0.7-0.4-1.6-0.3-2.3,0.1c-0.8,0-1.6,0.1-2.4,0.1s-1.7-0.1-2.5-0.3c-1.4-0.3-2.7-0.5-4.1-0.6
	c-1.3-0.1-2.6-0.1-3.8,0.2c-0.7,0.2-1.5,0.4-2.3,0.5s-1.5,0.1-2.3,0.1c-1.6,0-3.2-0.1-4.8-0.3c-1.6-0.2-3.2-0.6-4.8-0.9
	c-1.6-0.3-3.2-0.8-4.8-1.2c-7.6-1.9-14.8-5.4-22.2-7.3c1,1.4,0.4,1.4-0.5,1.1C366,354.6,365.3,354.3,364.6,354z M376.6,358.7
	l-1.7-0.7l-1.6-0.7c1,0.4,2.1,0.8,3.2,1.1L376.6,358.7z M568.3,396.5c1.4,0.5,2.7,1,4,1.7c1.8,0.9,3.5,1.9,5.1,3.1
	c4.4,3.2,8.2,7.2,11.2,11.7c1.7,2.6,2.8,5.4,3.4,8.4c0.6,3.3,0.5,6.6-0.2,9.9c0.4-2.6,0.4-5.2,0.1-7.7c-0.3-1.9-0.8-3.7-1.6-5.4
	c-0.5-1.1-1.1-2.2-1.8-3.2c0,0,0-0.1-0.1-0.1c-0.2-0.3-0.3-0.6-0.5-0.9c-3.9-5.8-9.2-10.5-15.5-13.7c-1.1-0.5-2.1-1.1-3.2-1.6
	c-1.3-0.7-2.8-1.5-4.3-2.2C564.9,395.7,566.1,395.7,568.3,396.5z M564.2,396.2c-2-0.9-4.1-1.8-6.2-2.7c2.1,0.8,4.3,1.7,6.6,2.7
	C564.5,396.2,564.4,396.2,564.2,396.2z M598.1,158.8l1.5,3.9c0.1,0.2-0.1,0.2-0.1,0.3l-1.4-3.7C598,159,598.1,158.9,598.1,158.8z
	 M239.9,413.4l8.8-5c-2.4,1.6-4.8,3.1-7.4,4.8l-2,1.3l-2.2,1.4c-1.5,0.9-3.1,1.9-5,3C234.6,416.9,237.2,415,239.9,413.4z
	 M222.5,422.9c1.9-1.4,4.3-2.9,7.1-4.6c0.4,0.4-1,1.6-3.4,3.2c-1.1,0.8-2.5,1.6-3.9,2.6s-2.8,2-4.2,3.1
	C219.4,425.5,220.8,424.1,222.5,422.9z M68.2,681.7L68.2,681.7h0.3h0.1H68.2z M411.4,753.4l-0.9-0.2l12.4,0.1L411.4,753.4z
	 M551.6,453c-2.5-0.8-4.9-1.7-7.5-2.6c0.1-0.2,0.2-0.3,0.3-0.5c2.8,0.5,5.7,1.1,9.2,1.9c1.2,0.3,2.5,0.5,3.7,0.7
	c6.2,1.4,12.2,0.9,17.5-1.4c-0.4,0.2-0.7,0.5-1.1,0.7c-0.5,0.3,0.2,0.2,0.3,0.3c3.2-1.4,6.2-3.4,8.7-5.9l1.2-1.7l0,0
	c0.1-0.1,0.1-0.1,0.2-0.2c0,0,0,0,0.1-0.1c-0.1,0.1-0.1,0.2-0.2,0.2l-1.2,1.7c1.5-0.9,1.5-0.3,0.3,1.1c-1.9,2.1-4.2,3.7-6.8,4.9
	c-5.2,2.4-11,3.3-16.7,2.6C556.8,454.4,554.2,453.8,551.6,453z"/>
<path d="M733.3,730.9c-0.1-1.7-0.3-3.3-0.7-5c-0.9,1.4-1.1,0.7-1.2-0.3v-1.8c0.8-0.4,0.2,3.2,1.2,1.9c1-4.5,1.5-10.6,0.5-13.6
	c-1.8-5.8,0.2-11-0.4-16.6c-0.9-8.3-0.2-17.3-0.2-26c1.2,4.7,0.1,10.2,1.8,15.5c0.8-10.3,0.8-20.6,0-30.9c0.6-0.9,0.6-1.5,0-2.9
	c-0.8-2-0.9-4.2-0.3-6.3c0.8-2.3,0.9-2,0.8-2.7c-0.3-3.5-0.7-7.1-0.9-10.6c-0.1-1.8-0.1-3.5,0.1-5.3c0.1-0.9,0.2-1.8,0.3-2.7
	s0.3-1.7,0.5-2.7c0.5-2.1,0.1-5.6-1-5.1c-2.1,0.8-2.1-2.7-3.4-4.9c-0.7-1.4-1.6-2.7-2.5-3.9s-2.1-2.3-3.3-3.2
	c-0.4-0.2-0.7-0.4-1-0.6c-0.3-0.2-0.6-0.3-0.9-0.4c-0.2-0.1-0.4-0.1-0.6-0.2c-1.1-0.6-2.2-1.1-3.5-1.6v-0.8c0.1,0.4,0.3,0.7,0.5,0.8
	s0.4-0.4,0.4-1.1s-0.4-1.4-0.8-1.2l-0.1,0.1c0-3.1,0-6.2,0-9.4c0.8-0.8,0.1-4.1,0.2-6.1c0.1-1.1-0.1-2.2-0.3-3.2
	c0-0.1-0.1-0.2-0.1-0.3c-0.1-2-0.3-4-0.5-5.9c0.4-0.2,0-1.9,0.4-2.3c0.2,1.3-0.1,3.5,0.8,3.5c0.6,0,0.6-2.2,0.2-3.8v-0.2l-0.1,0.2
	l-1,0.1c-0.3-0.5-0.6-1.1-0.8-1c-0.2-1.4-0.5-2.9-0.8-4.3V566l0,0c-0.2-1-0.5-2.1-0.8-3.1c0,0.1,0.1,0.2,0.1,0.3
	c-0.3-0.8-0.5-1.6-0.6-2.4c-0.2-0.8-0.2-1.6-0.3-2.4c-0.1-0.9-0.2-1.7-0.4-2.6c-0.2-1-0.6-1.9-1-2.8c-0.1,1.5,0,2.8,0.3,4.2
	c-1-2.5-2.1-5-3.4-7.4c0.5,0.8,1,1.5,1.7,2c0.1,0.1,0.4-0.4,0.3-0.7c-0.4-1.1-0.9-2.1-1.6-3c-0.8-0.9-1.7-1.7-2.7-2.4
	c0.5,0.9,1,1.7,1.4,2.5c-5.2-9-12.6-16.9-21.6-23c-2-1.3-4-2.5-6.1-3.6c1.3,0.6,2.5,1.2,3.7,1.8c3.7,1.9,7.1,4.2,10.1,6.9
	c3.5,3.2,5.8,7,8.9,10.4c0.7,0.8,1.7,2.1,2,1.4c0.6-0.7,0.5-1.8-0.2-2.5c-2.7-3-4.8-6.6-8.2-8.8c-0.7-0.5-1.4-1-2-1.5
	s-1.2-1.2-1.8-1.9c-2.3-2.6-5.1-4.8-8.1-6.4c-3-1.5-6.1-2.8-9.3-3.7c-4.4-1.3-8.9-3-13.3-3.1c-0.8,0-1.6-0.6-1.8-1.4
	c1.3,0.2,2.5,0.3,3.8,0.3c1.1,0,1.8-0.2,1.7-0.9c-0.2-1.2-4-2.4-6.3-2c-0.7,0.1-1.5,0.2-2.2,0.2c-0.8,0-1.5,0-2.3,0l-4.7-0.3
	c-1.6-0.1-3.1-0.1-4.7,0.1c-1.5,0.1-2.9,0.5-4.3,1.1c-0.6-0.1-1.3-0.2-1.9-0.4c0.9-0.5,1.9-0.9,2.9-1.1c1.1-0.3,1.9-0.5,1.3-1.1
	c-0.8-0.5-1.9-0.7-2.8-0.4c-1.2,0.2-2.5,0.5-3.7,0.7l-2.3,0.4l-2.2,0.5c-1.5,0.3-2.9,0.9-4.4,1.3l-2.2,0.7l-1.1,0.3l-1.1,0.4
	c-1.5,0.5-3,1.1-4.5,1.5c-8.4,2.8-16.8,8.2-22.2,15.6c-0.8,1.1-1.6,2.1-2.6,3.1c-0.9,1-1.9,1.9-3.1,2.5c-0.6,0.3-1.1,0.7-1.5,1.2
	s-0.7,1-1.3,1.7s-1,1.2-1.5,1.9s-1,1.4-1.3,2.1l-2.4,4.5c-1.3,3-3,5.7-5.2,8c-0.2,0.3-0.3,0.7-0.4,1.1c-0.2,2.2-0.6,4.6-1.1,7
	c-0.2,1.2-0.4,2.4-0.4,3.6c-0.1,1.2,0,2.3,0.1,3.5c0.3,2.2,0.3,4.5,0,6.8c0,2.1-0.5,4.1-1.4,5.9c-1.8,3-1.9,6.1-1.9,9.7v4
	c0,0.2,0,0.5,0,0.7l-0.4,0.2h-0.1h-0.1l-0.2,0.1c-0.5,0.3-1.1,0.6-1.6,1c-2.2,1.5-4.1,3.3-5.6,5.4c-1.5,2.1-2.7,4.4-3.4,6.9
	c-0.7,2.2-1.1,4.6-1.3,6.9c-0.1,1-0.1,1.9-0.1,2.8v0.7v1.8v4.7c0,3.1,0,6.3,0.1,9.4c0.1,6.2,0.7,12.4,1.8,18.5
	c0.2,0.9,0.1,1.8-0.3,2.6c-1.6,3.2-1.1,7.2-0.8,11.1c0.3,1.8,0.4,3.6,0.4,5.5c-0.4,5.4-0.4,10.7,0.2,16.1c0.8,7.1,1,14.4,1.5,21.5
	c0.3,3.3,0.8,7.1-0.1,10.6c-0.4-1-0.2-2.9-1.5-3.6c0.5,1.8-0.5,4.5,1.2,4.2c0.1,2.8,1,5.3,1.6,8c0.3,1.4,0.5,2.9,0.7,4.3
	c0.1,0.8,0.1,1.5,0.1,2.3s-0.1,1.7-0.1,2.7c-0.2,0.5-0.3,1-0.4,1.6c-0.1,0.5-0.1,1.1-0.1,1.6c0,1.1,0.3,2.2,0.8,3.2
	c1.3,2.5,3.5,4.4,6.1,5.4c-0.5,0.4-0.4,0.8,0,1.2c0.3,0.2,0.6,0.5,1,0.6c0.5,0.2,0.9,0.3,1.4,0.5c0.4,0.1,0.9,0.2,1.4,0.3
	c0.5,0,0.9,0.1,1.4,0.1c0.9,0,1.8,0.3,2.6,0.7c3.9,2.5,7.8,1.3,11.2,1.1c3.2-0.1,6.1,0.2,8.5-1.1c0.9,0,1.8,0.1,2.7,0.2h-0.1
	l0.1,0.1v-0.1c0.8-0.2,1.5-0.4,2.3-0.5c2.8-0.3,5.4-0.1,7,1.2c2.7-1.2,5.6-1.6,8.5-1.3l0.8,0.4c0.4,0.1,2-0.9,1.3,0.1
	c-1.3,1.7-6.1,1-8.9,2.2c6.9,1.1,11.2-2,17.3-1.7c-0.5,1.1-3.7,0.6-4.5,1.6c2.7,0.5,5.5,0.3,8.1-0.6c3.7-1.1,7.6-1.6,11.5-1.3
	c5,0.4,10.1,0.4,15.2,0.5c-0.3,0.1-0.6,0.2-0.9,0.3l1,0.3c1,0,1.5-0.1,1.3-0.4c-0.2-0.2-0.5-0.3-0.7-0.3c2.3,0,4.7,0.1,7,0.2
	c10.2,0.4,20.7-0.3,31.1-0.5c0.6,0.4,1.4,0.4,2,0c1.4-0.1,2.9,0,4.3,0.2c1.2,0.3,2.4,0.4,3.7,0.4c1.2,0,2.5-0.2,3.6-0.7
	c2.7-1.3,5.5-2.2,8.2-3.5c2.9-1.3,5.4-3.4,7.3-6c1.1-1.6,1.9-3.2,2.6-5c0.3-0.9,0.6-1.8,0.8-2.7s0.4-1.8,0.5-2.7
	C733.4,734.5,733.4,732.7,733.3,730.9z M635.6,515.1c-0.5,0.1-1,0.2-1.5,0.3c0.5-0.2,1-0.4,1.5-0.5V515.1z M690.8,647.9
	c0.3,2.7,3.6,4.8,1.1,7.9c-2.4,1.6-2.7,3-1,5.4c-1.2-0.1-1,0.6-0.7,1.2s1.4,1.4,0.8,2.1c-1.4,1.8-0.2,3.2,0,4.9
	c0.1,1.5-0.2,2.9,1.1,4c0.2,0.1-0.1,0.8-0.2,1.3l-0.1,0.1h0.1c0.2,0.3,0.4,0.7,0.5,1.1c0.4,1.2,0,2.6-1.2,3.3c1.1,1,1.6,2.5,1.3,4
	l-0.4,0.4c-0.1,0.2,0.9,1-0.1,0.6c-1.7-0.6-1-2.9-2.2-4.2c-1.1,3.3,2,5.3,1.7,8.2c-1.1-0.2-0.6-1.7-1.6-2.1
	c-0.5,1.3-0.2,2.7,0.6,3.8c1.1,1.6,1.5,3.5,1.3,5.5c-0.3,2.4-0.5,4.8-0.5,7.2c-0.1-0.2-0.2-0.3-0.4-0.4l-0.3,0.5
	c0,0.5,0.1,0.7,0.4,0.6c0.1-0.1,0.2-0.2,0.3-0.3c0,1.1-0.1,2.2-0.2,3.3c-0.1,0.8-0.1,1.7-0.1,2.5c0,0.5,0,0.9,0,1.4
	c0,0.9,0.2,2,0.3,3.1c-0.7,0.1-1.6,0.2-2.5,0.3c-0.4-0.4-0.5-0.4-0.6,0c-0.4,0-0.8,0.2-1.3-0.2c-0.1-0.1-0.2-0.1-0.3-0.2l-0.4-0.1
	c-0.3-0.1-0.6-0.1-0.9-0.1c-0.6,0-1.1,0.1-1.6,0.5c-2.4,2.1-5.2,1.4-7.9,1.4c-3.2,0-6.5-0.8-9.7,0.5c0.6,0.8,0.4,1.1,0,1.2h-1
	c-0.1-0.8,1.5-0.2,0.9-1.1c-2.1-1-5-1.4-6.5-0.5c-2.8,1.8-5.2-0.1-7.8,0.4c-3.9,0.8-8.2,0.2-12.3,0.2c2.2-1.2,4.8-0.1,7.3-1.8
	c-4.8-0.8-9.8-0.8-14.6,0c-0.4-0.6-0.7-0.6-1.4,0c-0.8,0.8-2,1-3,0.3c-1.1-0.8-1-0.9-1.3-0.8c-3.3,0.6-6.7,1.8-10,0
	c-1-0.5-2.4-0.5-2.3,0.6c0.2,2.2-1.3,1.8-2.5,2.2c-1.4,0.3-2.8,0.4-4.3,0.3c-0.6,0-1,0.1-1.4,0.3h-1.3h-0.5V716
	c0.1,0.2,0.3,0.3,0.5,0.4c0.3,0,0.4-0.2,0.4-0.5s-0.4-0.7-0.8-0.5h-0.1V711c0.8-0.4,0.1-2,0.3-2.9c0.1-0.5,0-1.1-0.2-1.5
	c0,0,0-0.1-0.1-0.1v-2.8c0.4-0.1,0.2-0.9,0.6-1c0,0.6-0.5,1.6,0.4,1.7c0.6,0,0.8-1,0.7-1.7l0.1-0.1l-0.1,0.1h-1
	c-0.2-0.3-0.5-0.6-0.7-0.5v-2v-0.1l0,0v-1.6c0,0.1,0,0.1,0.1,0.2c-0.3-1.7,1.4-2.8,1.4-4.9c-0.7,0.5-1.2,1.2-1.4,2v-4.2
	c0,0.5,0.1,1,0.6,1.5c0.1,0.1,0.5-0.1,0.6-0.2c0.3-1.1,0-2-1.1-3.2c0,0.7-0.1,1.3-0.1,1.8V672c0.4,2.7,0.9,5.3,0.8,8
	c-0.1,2.2-1,4.2-0.6,6.4c0.1,0.5,0.1,1.3,0.8,1.1c0.5-0.2,1.5-0.3,1.3-1c-0.3-1.9,0.6-3.7-0.2-5.5c-0.3-0.8-0.3-1.6,0.1-2.3
	c1.2-3.1,0.4-6.4-0.4-9.3c-0.5-2.1-0.2-4.4-1.1-6.4c-0.2-0.5,0.3-0.7,0.8-0.9c-0.6-0.4-1.1-0.8-1.5-1.4v-2.1
	c0.1,0.1,0.1,0.1,0.2,0.2c0.1,0.1,0.3,0,0.4,0l-0.3-1.2l-0.3-0.2l0,0l0.3,0.2c1-0.4,1.3,0.2,1.2,1c-0.1,1.3,0.5,2.5,0.7,3.8h-0.5
	c0.2,1.1,0.8,2.4,1.8,2.2c1-0.3,1.4-2,0.7-3c-1.8-2.5,0.2-5.8-1.6-8.2c-0.1-0.1,0.3-0.5,0.5-0.8c0.9,0.6,0.7,2.4,1.8,2
	s0.4-1.8,0.4-2.8c0-1.4-0.1-2.7-0.2-4.1c0-0.7,0-1.4,0-2.1v-0.5v-0.3v-0.1c0-0.1,0.1-0.2,0.1-0.3c0.4-0.4,0.5-1,0.5-1.5
	c0.4-0.1,0.6-0.4,1.2-1.1c0.2-0.2,0.4-0.3,0.7-0.3c0.6,0,1.2,0.3,1.7,0.8s1.2,0.3,1.8,0.4c2.8,0.6,6-1.4,8.5,1.3
	c0.1,0.1,0.4,0.1,0.5,0c1.8-1.3,4.2-0.9,6.1-2.3c1.6-1.2,4.6-1.3,5.7,0.2c1.1,1.4,2.8,2.1,4.6,1.8c5-0.1,9.9,0.1,14.9,0
	c5.9-0.1,12,0.5,17.7-1.8c0.4-0.2,0.9,0,1.2,0.3c1.5,1.6,3.4,1.1,5.2,0.8c0.8-0.3,1.7-0.4,2.6-0.4c1.3,0.2,2.6,0.3,3.9,0.3h0.5
	c0.1,0,0.1,0,0.2,0l0.3-0.1c0.2-0.1,0.4-0.2,0.7-0.3c0.7-0.3,1.5-0.6,2.2-0.7c0.2,0.6,0.5,1.3,0.8,2.3c0.1,0.2,0.1,0.4,0.2,0.6
	c0,0.1,0.1,0.2,0.1,0.3c0.1,0.1,0.1,0.4,0.1,0.6c0.1,0.9-0.1,1.8-0.5,2.5c-0.4-0.5-0.2-1.4-1.5-1.7
	C690.1,646.8,689.1,648,690.8,647.9z M669.2,716l1.4-0.1l0.1,0.2L669.2,716z M692,656c0.4,0.7,1,1.3,0.7,2.3l0,0
	C692,657.6,692.2,656.7,692,656z M692.1,660.1c-1.1-0.4-1.3-0.9-1.2-1.7C692,658.4,691.8,659.3,692.1,660.1z M604.6,650.2
	c0.1-0.2,0.1-0.3,0.1-0.5c1.1-0.1,1.8,0.5,1.3,1.5c-0.6,1.2-0.5,2.4-0.6,4c-0.4-1-0.6-1.6-0.8-1.9V650.2z M604.6,649.7v-0.5
	C604.6,649.4,604.7,649.6,604.6,649.7L604.6,649.7z M625.2,641.5L625.2,641.5c-0.2,0-0.3,0-0.5,0c0,0,0-0.1,0-0.2c0.2,0,0.3,0,0.5,0
	C625.2,641.3,625.2,641.4,625.2,641.5z M618.8,599.9c0.5-0.8,1-0.2,1.4-1.2c-0.1-0.4-0.4-0.8-0.8-1c0.1-0.6,0-0.9-0.5-0.9
	c-0.9,0-0.9-0.8-0.7-1.5s0.5-1.5,0.2-2.1c-0.2-0.5-0.4-1-0.4-1.6c-0.1-0.6-0.1-1.2-0.1-1.8c0-1.2,0.2-2.4,0.2-3.7
	c1.2,1.3,0.1,2.8,1.8,4.3c0.7-2.8,0.8-5.6,0.1-8.4c0.6-0.2,0.8-0.3,0.1-0.8s-0.8-1.3-0.2-1.7c0.9-0.5,0.9-0.4,0.9-0.6
	c-0.2-1-0.4-1.9-0.4-2.9c0-0.5,0.2-0.9,0.4-1.3c0.3-0.5,0.7-0.8,1.2-1.1c0.7-0.3,0.9-1-0.2-1.3c-2.1-0.5-1.4-1.3-1.5-2
	c-0.2-0.9,0.4-1.6,0.8-2.4c0.2-0.3,0.2-0.6,0.1-0.9c0.2-0.3,0.3-0.6,0.5-0.9l0,0c0-0.1,0.1-0.1,0.1-0.2c0.1,0.2,0.2,0.3,0.3,0.4
	c0.2,0.2,0.4,0.1,0.5-0.1c0-0.3-0.2-0.6-0.5-0.7H622c0.5-0.8,1-1.5,1.5-2.2c0.7,0.3,0.8-0.8,1.2-1.2c0.3-0.2,0.4-0.5,0.4-0.8l0,0
	c0.4-0.4,0.8-0.9,1.2-1.3c0.2,0.1,0.5-0.2,0.8,0c-0.2,0.3-1,0.3-0.4,1c0.3,0.3,0.7,0.3,1,0c0.1-0.1,0.1-0.1,0.2-0.2l-0.7-0.7
	c-0.1-0.3-0.1-0.6-0.3-0.7c0.3-0.3,0.6-0.6,0.9-0.9l0,0l0,0c0.2-0.2,0.5-0.4,0.7-0.6c0,0,0,0,0,0.1c0.6-0.8,2.2,0,3.1-0.6
	c-0.7-0.4-1.3-0.6-1.7-0.5c0.7-0.5,1.3-1,2-1.4c-0.3,0.2-0.4,0.6-0.4,1c0,0.1,0.3,0.4,0.4,0.4c0.7-0.1,0.9-0.6,1-1.9
	c-0.3,0.2-0.7,0.3-0.9,0.4c0.7-0.5,1.4-0.9,2.2-1.3c-0.2,0.2-0.5,0.4-0.1,0.9c0.3,0.4,0.8,1.2,1.1,0.9c0.8-0.8,2.1-0.4,2.7-1.4
	c0.3-0.4,0.8-0.6,1.2-0.4c0.9,0.3,1.8,0.2,2.7-0.3c0.8-0.4,1.5-0.9,2.2-1.5c0.5-0.3,1.1-0.6,1.7-0.7c0.6-0.1,1.2-0.4,1.7-0.8
	c0.3-0.3,0.5,0.5,0.6,1h-0.1c-0.8,0.2-1.3,1.1-1.1,1.9c0.2,1.1,1.1,1.3,1.6,0.5c0.5-0.7,1.3-1,2.2-0.8c0.8,0.2,1.7,0,2.2-0.7
	c0,0,0.2,0.4,0.4,0.6c-0.4,0.8-1.3,0.6-1.2,1.7s0.8,0.5,1.3,0.6c0.3,0,0.7,0.1,1,0.1s0.7,0.1,1,0.1c0.7,0.1,1.4,0.3,1.9,0.7
	c1.6,1.4,3.7,2,5.8,1.9c0.7,0,1.4,0.1,1.3,1.3c-0.1,0.6,0.3,0.6,0.5,0.9c0.4,0.6,1.2,0.8,1.8,1.2s1,1,0.5,2.4c0,0.1,0.1,0.1,0.2,0.1
	c1.5-0.3,2,0.9,3.8,0.7c0.6-0.1,1.3,0.2,1.7,0.7c0.2,0.2,0.3,0.5,0.3,0.8s-0.1,0.7-0.3,1c-1.1,1.5-0.8,2.2-0.5,2.9
	c1.1,2,1.9,4.1,2.3,6.3c0.1,0.7,0.2,1.2,0.2,2s0.1,1.6,0.2,2.5c0.2,1.8,0.9,3.5,2,4.9c0.2,0.3,0.1,0.5-0.3,0.7c-1.6,0.9-1.1,2-0.7,3
	c0.2,0.5,0.6,1,0.4,1.5c-0.1,0.2-0.1,0.4-0.2,0.6c0,0.1,0,0.2-0.1,0.2c0,0.1,0,0.1,0,0.1c0,0.1,0,0.2,0,0.3c0.1,0.3,0.3,0.6,0.5,0.8
	c0.4,0.5,0.6,1.1,0.8,1.7l0.2,0.5c0.1,0.1,0,0.1,0,0.1l-0.1,0.1c-0.1,0.1-0.3,0.2-0.5,0.4c-0.1,0.2-0.3,0.3-0.6,0.4
	c-0.2,0.1-0.6,0-1-0.5c0-0.4,0.4-0.2-0.2-1.5c0,0.5-0.6-0.5,0,1.2c-0.3,0.1-0.4,1-1.1,1.6s-1.5,0.8-2.4-0.4c-0.9-2.4-1.8-2.7-3.2-1
	c0.1-1.2-0.4-1-0.7-0.7s-0.8,1.4-1.2,0.8c-1-1.3-2-0.1-2.9,0s-1.7-0.2-2.4,1.1c-0.1,0.2-0.5-0.1-0.7-0.2l0,0
	c-0.2,0.2-0.4,0.4-0.7,0.5c-0.8,0.3-1.5,0.1-2-1.2c-0.7,1-1.4,1.7-2.4,1.3l0,0c0.5-0.1,0.9-0.1,1.1-1.1c-0.6-0.4-1.1-0.6-1.3,0.7
	l0,0c-0.1,0-0.5,0.8-0.3-0.1c0.4-1.7,1.7-1,2.5-2.2c-1.9-1.1-3.1,2-4.8,1.7c0.1-1.1,1-0.6,1.2-1.6c-0.9-0.6-1.5-0.1-2.3,0.6
	c-1,0.9-1.9,1.7-3.2,1.3c-1.4-0.3-2.8-0.5-4.3-0.5c0.1-0.1,0.2-0.2,0.3-0.4l-0.3-0.3c-0.3,0-0.4,0.1-0.4,0.4c0,0.1,0.1,0.2,0.2,0.3
	c-0.7,0-1.3-0.1-2-0.2c-2.9-0.4-5.8,0.3-8.7,0.5c-0.2-0.4-0.4-0.4-0.6,0c-0.4,0-0.8,0.2-1.2-0.2c-0.1-0.1-0.1-0.1-0.2-0.2
	c-0.6-0.4-1.4-0.4-1.8,0.2c-1.4,2.1-3.1,1.4-4.7,1.4c-0.9,0-1.5-0.2-2.2-0.2c-1,0-1.9,0.3-2.7,0.8c-0.3,0.9-0.5,1.1-0.9,1.2h-0.1
	V599.9z M669.7,562.9c0,0-0.1,0.1-0.1,0.2l0,0c0-0.1-0.1-0.1-0.1-0.2l0.1-0.2C669.6,562.8,669.6,562.9,669.7,562.9z M655.5,550.8
	c-0.2,1.1-0.5,1.8-1.1,1.1s-1.3-0.7-2.2-0.8c0.6-0.3,0.9-0.5,1.2-0.7c0.6,0.1,1.3,0.2,1.9,0.3C655.4,550.7,655.5,550.8,655.5,550.8z
	 M648.4,551.9c0.1-0.6,0.4-1.2,0.8-1.7c0.4,0,0.8,0,1.2,0c0,0,0,0.1-0.1,0.1c0,0.1,0,0.3,0,0.4c0.2-0.1,0.5-0.2,0.7-0.3
	c0.2,1-0.2,1.3-0.6,1.2c-0.8-0.1-1.4,0.5-2.1,0.8L648.4,551.9L648.4,551.9z M655.6,550.7c0.1,0,0.2,0,0.2,0
	C655.8,550.8,655.7,550.8,655.6,550.7L655.6,550.7z M635.9,553.4c1.9-0.9,3.9-1.6,5.9-2.1c-0.2,0.1-0.4,0.2-0.6,0.3
	c-0.5,0.3-0.9,0.6-1.5,0.8s-1,0.5-1.5,0.7c-0.6,0.2-1.3,0.2-1.9,0.3C636.1,553.4,636,553.4,635.9,553.4z M672.1,597.2
	c-0.4,0.4-0.8,1-1.4,0.7h-0.1C671.1,597.2,671.6,597.3,672.1,597.2z M670.6,596c0,1.1-0.5,0.9-1,1.2h-0.1
	C669.8,596.2,670.1,596,670.6,596z M622.2,599.3v0.2l-0.8-0.1L622.2,599.3z M627.2,637L627.2,637L627.2,637L627.2,637z M653.9,512.2
	c1.4,0.1,2.8,0.2,4.1,0.1c1.3,0,2.6,0,4,0.1l-0.1,0.5c-1.1,0.5-2.2,0.9-3.3,1.2c-1.5-0.2-3.1-0.4-4.6-0.5c0.1,0,0.3-0.1,0.4-0.1
	c0.2-0.1,0-0.3,0-0.4l-2.6,0.1l0,0C650.9,512.3,652.2,512.1,653.9,512.2z M638.7,513c0.7,0,1.3,0,2,0c0.6,0,1.3,0,2-0.1
	c1.4-0.1,2.9-0.2,4.6-0.2c-1.4,0.4-2.5,0.6-3.2,0.8c-0.3,0.1-0.6,0.2-0.9,0.4c-2.1,0.2-4.1,0.5-6.1,0.9c-0.4,0-0.9,0-1.3,0.1
	C635.3,513.9,636.5,512.8,638.7,513z M583.7,563.4L583.7,563.4L583.7,563.4L583.7,563.4z M580.8,557.8c0.1-0.3,0.3-0.7,0.4-0.9
	c0-0.1,0.1,0,0.2,0c-0.1,0.3-0.3,0.6-0.4,0.9C581,557.8,580.9,557.8,580.8,557.8L580.8,557.8z M566.4,740.9l0.6,1.1
	c0.2,0.3,0.5,0.7,0.7,1c0.5,0.8,1,1.7,1.3,2.7v-0.1C567.7,744.6,567,742.5,566.4,740.9z M567.8,747.1c0.9-0.7,1.9,1.3,3.5,2.6
	c-0.7,0-1.3-0.2-1.9-0.6C568.8,748.5,568.3,747.8,567.8,747.1z M731.6,735c0.1-0.8,0.1-1.7,0.2-2.5c0,0.8,0,1.5,0,2.3L731.6,735z"/>
<path d="M662.8,695L662.8,695c0,0.3-0.1,0.5,0.8,1c0.5-0.2,0.8-0.5-0.3-1.1l0,0c-0.1-0.2-0.4-0.4,0.2-0.1c1.5,0.8,0.6,1.5,1.4,2.5
	c0.8-0.4,0.6-1.2,0.2-1.9s-0.9-1.4-0.6-1.9c1.1,0.4,0.4,0.8,1.3,1.2c0.7-0.5,0.4-1.1-0.2-1.7c-0.8-0.8-1.5-1.5-1-2.3
	c0.4-0.7,0.5-1.5,0.6-2.3c0.1,0,0.2,0.1,0.3,0.2l0.4-0.1c0-0.2-0.1-0.2-0.4-0.2c-0.1,0-0.2,0-0.3,0.1c0-0.4,0.1-0.7,0.2-1.1
	c0.5-1.6-0.2-3.2-0.4-4.8c0.4-0.1,0.4-0.2,0-0.3c0-0.2-0.4-0.3,0.2-0.7s0.7-0.8,0-1.1c-2.1-0.8-1.5-1.7-1.5-2.5c0-1,0.8-2.1-0.6-3.1
	c-0.8,0.2-1,0.2-1.2,0.1c0-0.1,0-0.2,0-0.3c0.7-0.1,0.2,0.5,1.1,0.2c1-0.6,1.3-1.9,0.3-2.2s-1-0.8-1-1.2s0.3-1-0.1-1.4
	c-0.6-0.5-1-1.1-1.2-1.7c-0.1-0.4-0.3-0.7-0.4-1c-0.1-0.3-0.3-0.6-0.6-0.9c0.5-0.1,1,0.2,1.3,0.6c0.4,0.5,1,0.7,1.7,0.7
	c-0.2-2.1-1.6-3.8-3.6-4.5c0.3-0.6,0.3-0.8-0.4-0.4s-1.2,0.3-1.1-0.4c0-0.9,0.1-1,0-1c-0.8-0.1-1.5,0-2.2-0.2s-1.1-0.5-1.5-1.6
	c-0.2-0.7-0.8-0.8-1,0.3c-0.5,2.1-0.8,1.5-1.3,1.9s-0.9,0.1-1.4,0.1c-0.2,0-0.3,0.1-0.4,0.3c-0.2,0-0.4,0-0.6,0h-0.1
	c0.1-0.2,0.1-0.3,0.1-0.5c0-0.3-0.1-0.4-0.2-0.4c-0.2,0.2-0.2,0.5-0.2,0.8v0.1c-0.5,0-1,0.1-1.4,0.1c-0.2-0.7-0.6,0-0.9-0.1
	c-0.2,0-0.4,0.1-0.4,0.3l0,0c-0.3,0.1-0.6,0.2-0.9,0.3c-0.2-0.3-0.3-0.1-0.5-0.5c0.2-0.1,0.7,0.2,0.4-0.6c-0.2-0.6-0.6-0.6-0.8-0.4
	l-0.1-0.1l0.1,0.1l0.3,0.9c0,0.3,0,0.5,0.1,0.7c-0.2,0.1-0.4,0.2-0.6,0.2l0,0h-0.1v0.1c-0.2,0.1-0.3,0.1-0.5,0.2v-0.1
	c-0.3,0.5-1.5-0.8-2.1-0.3c0.6,0.5,1,0.8,1.3,0.9c-0.8,0.5-1.6,1.1-2.3,1.8c0-0.2,0.1-0.4-0.3-0.7c-0.4-0.3-1.1-1.1-1.2-0.7
	s-0.5,0.5-0.8,0.7c-0.4,0.2-0.6,0.6-0.5,1s-0.1,0.6-0.6,0.7c-0.7,0.1-1.3,0.6-1.4,1.3c-0.1,0.7,0,1.3,0.2,1.9
	c0.3,0.9-0.3,1.6,0.5,2.4c0.2,0.2-0.3,0.2-0.7,0.1c0.4,0.2,0.8,0.4,1.2,0.6c0,0.2,0,0.4,0,0.6c0,0-0.1,0-0.1-0.1c-0.1,0-0.3,0-0.4,0
	l0.2,0.4l0,0c-1,0.1-1.3-0.1-1.2-0.4c0.2-0.4-0.5-0.9-0.5-1.4l0.5,0.1h0.1c-0.1-0.4-0.6-1-1.5-1.1c-1.1-0.1-1.5,0.5-0.9,1.1
	c0.6,0.4,0.8,1.1,0.6,1.8c-0.1,0.5-0.1,1,0.8,1.4c0.1,0-0.4,0.2-0.6,0.3c-0.9-0.2-0.7-0.9-1.8-0.7s-0.4,0.7-0.4,1c0,1,0.5,1.8,0,2.8
	c-0.8,1.2-0.5,2.9,0.7,3.8c0.4,0.3,0.6,0.8-0.4,1.1c-0.5,0.1-0.3,0.4-0.4,0.5c-0.6,0.9,1.3,2-1.4,2.8c-0.1,0-0.1,0.2,0,0.2
	c1.3,0.6,0.9,1.5,2.3,2.1c1.2,0.5,1.4,1.5,0,2.1c-1.7,0.8-1.8,1.5-1.5,2.3c0.5,2.3,1.4,4.6,2.7,6.6c0.7,1.3,1.7,2.4,2.8,3.3
	c1.2,1,2.8,1.4,4.3,1.1c0.3-0.1,0.3,0.2,0.3,0.5c-0.1,1.7,0.9,1.7,1.9,1.7c0.5,0,1-0.3,1.3,0c0.5,0.4,1.1,0.6,1.7,0.7
	c0.6,0,1.2,0,1.8-0.2c1.6-0.6,3-0.8,4.3-1.6c0.6-0.3,1.1-1.1,2-0.3c-0.1,0.4-0.5,0.3-0.3,1.6c0.2-0.6,1.1,0.2,0.5-1.4
	c0.5-0.3,0.7-1.3,0.9-2s0.5-1,1.6-0.3c1.7,1.9,2.6,1.7,2.4-0.3c0.6,1,0.8,0.7,0.8,0.2s-0.4-1.4,0.1-1.2c1.4,0.6,1.2-0.8,1.4-1.4
	s0.9-0.9,0.1-2c-0.1-0.1,0.3-0.2,0.5-0.3h-0.1c-0.1-0.2-0.2-0.4-0.2-0.6c0-0.6,0.4-0.9,1.7-0.6C662.8,696.1,662.2,695.5,662.8,695z
	 M632.6,687.1h-0.2l0,0V687L632.6,687.1L632.6,687.1z M638.8,666.9c0.3-0.3,0.6-0.4,1-0.6c0.1,0,0.2-0.1,0.2-0.1
	c-0.7,0.8-1.3,1.8-1.8,2.8C638.2,668.3,638.3,667.6,638.8,666.9z M635.5,676c0.5-0.4,0.5-0.8,0.6-1.3c0.4,0.3,0.6,0.6,0.9,0.7
	c0,0.3,0,0.6,0,1c-0.1,0.1-0.1,0.1-0.2,0.2C635.7,676.5,634.9,676.4,635.5,676z M636.9,676.5c0,0.1,0,0.2,0,0.3
	C636.8,676.7,636.8,676.6,636.9,676.5L636.9,676.5z M637,687.8L637,687.8L637,687.8L637,687.8z M656.6,703.1c0-0.5-0.1-1.1,0.4-1
	C657.2,702.8,656.8,702.8,656.6,703.1z M658.1,703.6c-0.6-1-0.2-1-0.1-1.4h0.1C658.5,703.2,658.4,703.4,658.1,703.6z M662.1,676
	l0.1-0.5l0.1,0.5H662.1z"/>
</svg>
