<svg xmlns="http://www.w3.org/2000/svg" viewBox="0 0 1000 85.95"><path d="M999.31,41.6c-.26-1.35-.47-2.68-.82-4s-1.1-2.47-.51-3.88h0c.38.3.34,1,1.44,1.11-.56-.62.14-1.79-1.3-1.38a9.43,9.43,0,0,0-2-2.53,2.72,2.72,0,0,1-.62-3.1,3.17,3.17,0,0,0,1-2.39c-.13-.69-.77-1.27-1.83-1.82,1-.33.68-.73.07-1.13s-1.5-.44-1.4-1.1c.27-1.77-1.18-2.28-2-3.26s-1.26-1.9-2.62-1.93c-.17,0-.28-.58-.46-.86h0v-.07l0,.06a3.78,3.78,0,0,1-.91-.33,2.1,2.1,0,0,1-1-2.58,3.33,3.33,0,0,1-3.05-1.23c.47.34.92.78,1.65.25-.31-.78-.73-1.34-1.66-.67,0-.21-1,.06-.26-.39,1.27-.78,2.24.82,3.72.81a3.87,3.87,0,0,0-2.8-1.92c-1.1-.26-2.25-.33-3-1.11.71-.68,1.39.4,2.13-.09a3,3,0,0,0-2.75-1.4,5.93,5.93,0,0,1-4.21-1.25,19.29,19.29,0,0,0-4.93-2.63,1.67,1.67,0,0,0,.43-.17c-.1-.16-.19-.33-.23-.4-.34-.16-.57-.08-.59.16a.45.45,0,0,0,.17.32c-.81-.3-1.59-.69-2.41-1A18.89,18.89,0,0,0,962.91.53a45.85,45.85,0,0,0-5.74-.09h0c-.24-.33-.49-.35-.73,0a2.91,2.91,0,0,1-1.59-.11,2.28,2.28,0,0,0-2.57.17,4.8,4.8,0,0,1-2.73,1.69c-1,.19-2,.32-3,.58A33.67,33.67,0,0,0,943,3.6a5.94,5.94,0,0,0-3.09,2c.59.39.64.62.5.83l-.75.33c-.24-.49,1-.56.23-1.11a7.74,7.74,0,0,0-2.74.39,3.09,3.09,0,0,0-1.72,1.5,4,4,0,0,1-2.14,2.12,6.59,6.59,0,0,0-2.43,1.56c-1.7,2.46-4.32,4.24-6.14,6.73.15-2,2.23-2.77,2.44-5.23a20.44,20.44,0,0,0-5.9,6.86,18.66,18.66,0,0,0-8.86,1.17c-3.9,1.42-7.86,2.26-11.58-.56a5,5,0,0,0-3.14-.17c-10.12,2.24-20.78-.75-30.84,1.9-10.49,2.76-21.32,1.46-32.07,1.56-19.25.17-38.5.82-57.75,1.1-1.94,0-5.14,1.44-5.89-1.57h0c1-.53,3.8.26,2.86-1.43-.63-1.13-2.66-.15-3.88.56a103.48,103.48,0,0,1-27.72,3.12c-15.25-.47-30.79-.3-46.21-.13-8.54.1-17.45,1.44-25.61.73-31.38-2.71-62.78.06-94.11-1.32-10.83-.48-21.83,0-32.49-1.18-25.48-2.89-51-.71-76.54-1.23-27.21-.55-54.57.31-81.81,2.25a511.5,511.5,0,0,1-51.15,1.19c-18.09-.54-36.18-2.06-54.39-1.7q-66,1.29-131.92,2.45c-21.24.4-42.47,1.13-63.71,1q-1.77,0-3.54-.06a2.6,2.6,0,0,0,.58-1.81c-.13-.69-.77-1.27-1.82-1.82,1-.33.67-.73.06-1.13s-1.5-.44-1.4-1.1c.27-1.77-1.18-2.28-2-3.26s-1.25-1.9-2.62-1.93c-.16,0-.28-.58-.46-.86h0v-.07l0,.06A3.78,3.78,0,0,1,72.3,15a2.1,2.1,0,0,1-1-2.58,3.33,3.33,0,0,1-3-1.23c.47.34.92.78,1.65.25-.31-.78-.73-1.34-1.65-.67,0-.21-1,.06-.27-.39,1.27-.78,2.25.82,3.72.81a3.87,3.87,0,0,0-2.79-1.92c-1.11-.26-2.26-.33-3-1.11.71-.68,1.39.4,2.13-.09a3,3,0,0,0-2.75-1.4A5.93,5.93,0,0,1,61,5.44a19.23,19.23,0,0,0-4.92-2.63,1.76,1.76,0,0,0,.42-.17c-.1-.16-.19-.33-.23-.4-.34-.16-.56-.08-.59.16a.45.45,0,0,0,.17.32c-.81-.3-1.59-.69-2.41-1A18.89,18.89,0,0,0,47.9.53,45.72,45.72,0,0,0,42.17.44h0c-.25-.33-.5-.35-.74,0A2.91,2.91,0,0,1,39.84.31a2.28,2.28,0,0,0-2.57.17,4.78,4.78,0,0,1-2.72,1.69c-1,.19-2,.32-3,.58A33.67,33.67,0,0,0,28,3.6a5.94,5.94,0,0,0-3.09,2c.59.39.64.62.5.83l-.75.33c-.24-.49.95-.56.23-1.11A7.81,7.81,0,0,0,22.11,6a3.09,3.09,0,0,0-1.72,1.5,4,4,0,0,1-2.13,2.12,6.54,6.54,0,0,0-2.44,1.56c-1.7,2.46-4.32,4.24-6.14,6.73.15-2,2.23-2.77,2.44-5.23-3.12,2.45-5.65,5.37-6.76,9-.62,0-.81.19-.56.9a1.7,1.7,0,0,1-.72,2.18c-1,.48-1,.35-1.08.57-.3,1.29-.33,2.66-.67,3.89A7,7,0,0,1,.55,32.7c-.67.64-.84,1.77.12,1.85,1.86.17,1.34,1.27,1.54,2.13a4.88,4.88,0,0,1,0,1.57c0,.52-.09,1-.1,1.57a1.72,1.72,0,0,0,.2.9c0,.46,0,.92,0,1.38,0,.09,0,.17,0,.26a.85.85,0,0,0-.43-.26c-.23,0-.37.15-.29.39a.58.58,0,0,0,.68.39l.05,0c0,1.1.08,2.19.19,3.27-.47.36.13,1.39.1,2A1.55,1.55,0,0,0,3,49.23l0,0c.13.7.27,1.4.44,2.1-.23.17,0,.65-.3.84-.13-.44.09-1.25-.67-1.1-.52.1-.47.88-.22,1.4h0l0,.09.07-.08.83-.2v0c.22.13.46.29.64.22.13.47.26.94.41,1.41V54h0c.11.35.23.68.34,1a.21.21,0,0,0,0-.06,2.51,2.51,0,0,1,.09,1.76,2.84,2.84,0,0,0,.14,2A4.32,4.32,0,0,0,5.24,57c.34.84.71,1.66,1.11,2.47A1.21,1.21,0,0,0,5.59,59c-.08,0-.38.25-.37.36.11.84.65,1.37,1.84,1.67a7.09,7.09,0,0,1-.39-1A39.24,39.24,0,0,0,14.73,70.7l-1.19-.78A15.51,15.51,0,0,1,10.45,67c-.91-1.36-1.23-3-2.27-4.16-.26-.28-.54-.77-1-.36s-1,.84-.61,1.22c.93,1.06,1.17,2.63,2.5,3.37a2.27,2.27,0,0,1,1,1.43,6.45,6.45,0,0,0,2.08,3,19.85,19.85,0,0,0,3.12,1.75,22,22,0,0,1,2.13,1.2,5.44,5.44,0,0,0,2.21.9c.46,0,.27.66.13,1.08a3.72,3.72,0,0,0-1.37-.33,1,1,0,0,0-1,.59c-.4.89.62,1.86,1.65,1.74,1.27-.16,2.14.55,3.15,1a4.22,4.22,0,0,0,3.15.74c.08,0,.28.42.43.66-.68.58-1.94-.28-2,.8a.85.85,0,0,0,.68.9c.41.12.93.15,1.31.29a32.55,32.55,0,0,0,3.16.93,15.16,15.16,0,0,1,3.23,1A18.17,18.17,0,0,0,36.91,86a13.15,13.15,0,0,0,4.93-.72,2.39,2.39,0,0,1,2.82.23c.44.42,1,.23,1.45.28a13.48,13.48,0,0,0,3.5-.65,4.2,4.2,0,0,1,3.58.46c.07,0,.31,0,.39-.14,1.17-1.34,3.11-1.81,4.09-3.47.79-1.39,2.74-2.52,4.18-1.81a3.7,3.7,0,0,0,4-.54c.88-.53,1.64-1.23,2.48-1.83a27.67,27.67,0,0,0,2.41-1.91l2.29-2c.72-.74,1.4-1.51,2.08-2.28a32,32,0,0,0,2.32-2.87l1.11-1.49c.32-.52.62-1.06.91-1.6a14,14,0,0,0,1.92-7,.79.79,0,0,1,.58-.82,2.76,2.76,0,0,0,1.22-.94c9.4,4.34,19.93,3.87,30.87,2.12,9.83-1.58,19.79-1.52,29.83-1.73,10.75-.22,21.61,3,32.46-.64,5.33-1.79,7.86-.53,11.92,2.21a7.15,7.15,0,0,0,3.78.75,268.64,268.64,0,0,1,42.75,1.39l0,0c9.85,5.07,20.18.12,30.26.73,1.81.11,3.86-1,4.11,1.26.36,3.29,2.45,2.72,4.66,1.22s5.16-1.53,7.72-1.21c11.33,1.37,22.07-5,33.59-1.33,1.11.35,3.14-.53,4.51-1.13,4.08-1.78,8-3.71,12-5.57,2,3.14-6.52,2.53-2.84,5.28,3.05,2.28,7.48,1.71,11.35.36.71-.25,1.65-.58,1.9-1.05,1.25-2.27,2-2.35,3.91-.15,1.59,1.8,3.49,3.32,7.16.53,2.86-2.17,8.08-2.57,13.75-4.19-3.14,2.36-6,3.09-7.1,5.11a5,5,0,0,0,4.38.32c7.29-2.47,15.93-3.56,22.89-4.07,8.15-.61,16.25-2.19,24.27-2.36,6-.13,1.94-7.52,7.22-4.61,2.34,1.28,2.26,5.41,6.16,6.9.46.17,1,.27,1.46.4C425.48,61,428,61.08,432,60.93a177.38,177.38,0,0,1,23.18.24,115.81,115.81,0,0,0,25.72-.4c6.71-.83,12.91-3.21,19.61-3.44,10.82-.38,21.7,1,32.46-1.47,3.61-.81,8.09,1,11.32-2,2.13,1.1.27,8.34,6.61,2.58,3.39,2.4,6.66,3.26,9.6-.4,1.51-.73,2.67-2.66,5-.88-1.29,1.55-3.41.38-4.94,1-.65,3.16,2.69,2.23,4.74,2.61,1.64.3,4.06-.61,4.59,1.46.42,1.66-.44,4.28,3.62,3.09,2.17-.64,5-1,4.95-4-.09-2.65.55-2.66,5-1.29l-.07,0,.14.18a1.39,1.39,0,0,1-.06-.19c3.28-.88,7.41-1.47,9.8-.2,7.53,4,14.14-.33,21.12-.49,1.59-2.12-1.59-1.88-2.6-2.87,3.59-1.22,6.53,0,9.48,1.12-.8,1-3.38,0-3.41,1.83l1.59,1.18c-.56-.37-1.12-.74-1.67-1.12h-3.22c-.25,2.21-6.1,3.57-4.37,4.21,6.06,2.23,13,4.29,18.52-1.25,2,1.47,6.06-3.66,7.44,1.65.75,2.88,5.87,1.7,8.56,1.18,7-1.35-1.14-1.76-.48-2.51,3.18-3.63,9.21-1.86,13.68-3.87,3.2-1.45,2.81,2.94,4.2,4.63-2.21-.23-4.47-.65-6.63.88,4.54,1.87,8.77,2.63,14,.93-3.14-1.34-1.21-4.36-4.36-5.54-4-1.22-1.34-2.47-.05-3.72h0c.05,1.21.1,2.41.16,3.62,2,.06,3.89-1.51,6-.36h0c-.49.37-1.21.77-.19,1.21.17.07.72-.37,1.09-.57,1.75,2.62,3.4,5.44,7.81,2h0c10.77-.82-3.67,3.11,1.14,3.57,3.69.08,7.34-.29,11-.43,7.43-.29,14.4-2.77,21.91-2.24h0c1,.25,1.24,0,.89-.73,2.79-1.82,6.21-.42,9.24-1h0c10.27,4.22,20.26-.26,30.31-.91,2.59-.17,7.68.21,9-3.33C767,60,771.86,56.07,776.07,56c.07.64.13,1.28.19,1.92h0c-.33.62-.13.79.68.48l3-.34c.76-1.13,3.59-1.87,2.06-3.33s-3.26.73-5.08.63c-.12-.71-.25-1.41-.37-2.12,7.17-.7,10.27,2.9,12.93,7h0c-.63.83-1.73,1.78-.12,2.52s2.86-.14,3.78-1.17l.08,0-.06,0c1.46.88,1.32,3.24,4.39,2.62,2-.39,2.08-1.52,2.08-2.71a5.16,5.16,0,0,1-.63-.24,1.74,1.74,0,0,1-.49-.42c2.39-2.19,5.55-2.41,9.06-2.28,5.48.2,11.51,3.17,16.18-1.82.56-.6,3.61-1,4.69,1,1.72,3.09,4.4,2.14,7.16.88,2.44-1.12,4.94-2.16,8.14-3.55-1.85,4.25.64,4.94,4.37,3.08,3.92-1.95,6.5-2.65,9.58,1,1.91,2.28,5,2.41,5.63-1.25-5.24-1.23-1-2.54-.27-4,2.24,1.4-.19,2.71.39,3.94,2.73.35,5.37-.37,8-.45,6.79-.2,10.4-5.88,17.4-5.36h0c-.85.8-3.16,1.67-1.36,2.62,2,1,2.22-.77,2.61-1.83,9.78-2.08,14.86,1.73,17.71,9.34,2.75-1.68,5.45-3.47,9.28-2.46h0c1,.26,1.29,0,.91-.74.46-.48,1-.95,1.47-1.42a2.22,2.22,0,0,0,.25,1.24,4.48,4.48,0,0,0,.55-1.78c.34.84.71,1.66,1.11,2.47a1.21,1.21,0,0,0-.76-.46c-.08,0-.39.25-.37.36.11.84.65,1.37,1.84,1.67a6,6,0,0,1-.39-1,39,39,0,0,0,8.06,10.66l-1.2-.78A15.74,15.74,0,0,1,925.46,67c-.91-1.36-1.23-3-2.27-4.16-.26-.28-.54-.77-1-.36s-1,.84-.61,1.22c.93,1.06,1.17,2.63,2.5,3.37a2.22,2.22,0,0,1,1,1.43,6.54,6.54,0,0,0,2.09,3,19.85,19.85,0,0,0,3.12,1.75,22,22,0,0,1,2.13,1.2,5.44,5.44,0,0,0,2.21.9c.46,0,.27.66.13,1.08a3.72,3.72,0,0,0-1.37-.33,1,1,0,0,0-1,.59c-.4.89.62,1.86,1.65,1.74,1.27-.16,2.13.55,3.15,1a4.22,4.22,0,0,0,3.15.74c.08,0,.27.42.43.66-.69.58-1.94-.28-2,.8a.85.85,0,0,0,.68.9c.41.12.93.15,1.31.29a32.55,32.55,0,0,0,3.16.93,15.16,15.16,0,0,1,3.23,1A18.17,18.17,0,0,0,951.92,86a13.18,13.18,0,0,0,4.93-.72,2.39,2.39,0,0,1,2.82.23c.44.42,1,.23,1.45.28a13.48,13.48,0,0,0,3.5-.65,4.17,4.17,0,0,1,3.57.46c.07,0,.32,0,.4-.14,1.17-1.34,3.11-1.81,4.09-3.47.79-1.39,2.74-2.52,4.18-1.81a3.7,3.7,0,0,0,4-.54c.88-.53,1.64-1.23,2.48-1.83a27.67,27.67,0,0,0,2.41-1.91l2.29-2c.72-.74,1.4-1.51,2.08-2.28a33.82,33.82,0,0,0,2.32-2.87l1.1-1.49c.33-.52.63-1.06.92-1.6a14,14,0,0,0,1.92-7,.79.79,0,0,1,.58-.82c1.68-.69,1.93-2.28,2-3.83a5.84,5.84,0,0,1,.19-2.12,8.77,8.77,0,0,0,.8-3.08,9.81,9.81,0,0,0,0-3C999.59,44.3,999.52,42.94,999.31,41.6ZM79.64,27.24a1.21,1.21,0,0,1-.4-.86,1.45,1.45,0,0,1,.87.88Zm1-1.63c-.89.4-1-.31-1.53-.76C80.09,24.71,80.43,25.05,80.64,25.61ZM27.94,4.89l.13.15-1,.3ZM22.31,77.73c-.82-.62-1.83-.56-2.74-.93l.25-.37a5.87,5.87,0,0,1,1.65-.66c.46.28.92.55,1.39.8l-.17.06c-.07,0-.1.21-.15.32l.91.19.24-.14h0l-.24.14C23.34,78,22.8,78,22.31,77.73Zm4.85,2.13A3.71,3.71,0,0,0,26,79l-1.4-.78a7.26,7.26,0,0,0,1.6-.07c.7.3,1.42.58,2.14.83.09.08.19.14.28.21C28.36,80.11,27.73,80.49,27.16,79.86Zm1.48-.66.05-.08a5.52,5.52,0,0,0,.53.18A1.65,1.65,0,0,1,28.64,79.2Zm24.44,4.31s0-.11-.07-.17a2.2,2.2,0,0,1,.37,0s0,.1.08.16ZM198.83,54.08c-.1,0-.18-.29-.27-.45.19-.08.47-.26.58-.21a3.77,3.77,0,0,1,.79.53A8.44,8.44,0,0,1,198.83,54.08Zm6.38-4.51a6.83,6.83,0,0,1-.87-.56s.22-.26.35-.4l.9.55C205.46,49.3,205.33,49.43,205.21,49.57Zm6.3,3.58a2.45,2.45,0,0,1-1.46,1.27c-.35.1-1.08-.53-1.64-.84l1.48-1.11C211.11,52.13,211.78,52.4,211.51,53.15ZM217,51.42c3.1-.55,1.61,3.12,4.55,2.77C218.45,54.6,216.69,53.85,217,51.42Zm50.94-6.51-8.76.16C262.06,44.73,265,44,267.9,44.91ZM248,54.78l-3-3.48a10.6,10.6,0,0,1,2.34-.28C250.43,51.39,248.37,53.22,248,54.78Zm5.84,4c0-.11,0-.28.12-.29a1.54,1.54,0,0,1,.64,0,2,2,0,0,1,.52.23Zm2.78-4.74c-1.13.78-1.75-.36-2.08-1.07-.46-1-.07-1.27,1.48-1.19,3.24.16,6.71-1,9.57,1C262.5,53,259.33,52.17,256.58,54.08Zm5.92,1.35c1.39-.59,2.69-1.25,3.14-2.51l3.2-.05c-.77,1-1.93,2.17-.1,3.14s3.34-.47,5-.73C270.1,58,266.38,59.09,262.5,55.43Zm16.63-10.8a10.61,10.61,0,0,1,1.08.71s-.23.29-.35.44a9.86,9.86,0,0,1-1.06-.72S279,44.78,279.13,44.63ZM274,55.23c4.18-1.52,10.47,2.11,13.13-3.07,1.1.55,3.25,1.27,3.15,1.62-1.5,5.25,3.63,3.15,6.52,3.5C288.34,62,281.43,57,274,55.23Zm46.7-7.16c.76-1.22,1.38,0,2.06.07Zm7.48,1.31-.67-.27.3-.47c.22.08.54.13.64.26S328.28,49.22,328.18,49.38Zm9.17,3.55a1.43,1.43,0,0,1-2.26-.67c0-.95.21-1.81,1.62-1.64.94.11,2.31.52,2.58,1.06C339.83,52.74,338.05,52.54,337.35,52.93Zm12.16-.44a7.26,7.26,0,0,1-2-1.25c.17-1.06.79-1.28,1.56-.93a3.51,3.51,0,0,1,1.54,1.19C350.94,52.11,350.38,52.74,349.51,52.49Zm16-1.43-1.81.62,1.76-.67.88-.45Zm8.74,5.71c-.86,0-1-.27-.37-.45a5.25,5.25,0,0,1,1.59,0c.11,0,.22.17.33.27A10.17,10.17,0,0,1,374.23,56.77Zm28.91-5.2c1-1.43,2.06-1.11,3.13-.09Zm6.11-3.79a3.83,3.83,0,0,1-.54-.73,2.8,2.8,0,0,1,.79.07c.2.09.28.31.41.48A3,3,0,0,1,409.25,47.78Zm14.2-.66a79.12,79.12,0,0,1-9-1.91c3-.64,5.68.46,8.47,1s3.36-.61,2.78-2.4l.06,0C427.72,45.94,427.65,47.57,423.45,47.12ZM427.71,57c-.37.08-.76.13-1.15.18l1.56-.5C428,56.83,427.88,57,427.71,57Zm2.89-6.57c-.19-.08-.48-.12-.55-.23s.09-.31.15-.46c.19.09.45.14.54.27S430.65,50.33,430.6,50.47Zm10.77-3.35c-1.89-.31-1.69-.95-1.2-1.8.3-.5.29-1.37,1.26-.9a3.07,3.07,0,0,1,1.36,1.89C442.85,46.51,441.73,46.92,441.37,47.12Zm43.7-2.61.52-.17.12.29Zm11.23,4.64a4.58,4.58,0,0,1-2.47,1.17c-.35.08-1-.57-1.93-1.16a14.16,14.16,0,0,1,2.88-1.22C495.82,47.78,497,48.17,496.3,49.15Zm-1.67-4.94c4.37-2.49,8.26-.7,12.22.65C502.75,45.15,498.92,41.89,494.63,44.21Zm22.88,5c-.1.12-.35.16-.54.23-.06-.14-.11-.29-.17-.44l.59-.19C517.44,48.93,517.58,49.11,517.51,49.19Zm-5.4-4.55c.62-2.47,2.95-2.07,5-2.08.2,0,.4.45.64.74A10.23,10.23,0,0,1,512.11,44.64Zm20.14-.93,0-.76,3.24.7Zm3.36,8.67c-.47.18-1,.31-1.46.46l1.79-.84C535.83,52.13,535.77,52.32,535.61,52.38Zm13.24-1,3.19-.06C551,52.12,550,53.22,548.85,51.34Zm26.37,3.23-1,.45.93-.49.57-.34Zm11.85-.74.16-.33.57.19Zm6-.85h0l.47-.49Zm8-2.63c2,.87,1.15,2.44,1.81,3.56C601.92,52.87,600.44,52,601.06,50.35Zm2,3.7,4.46.3C605.6,55.36,604.3,54.75,603,54.05Zm5.89-3.94c0,.11-.33.17-.5.26l.84-1.23A7,7,0,0,1,608.92,50.11Zm.45-1.16c.84-3.5-2.7-2.54-5.08-3.12l8.48-.16-1.84,3.27A6.26,6.26,0,0,1,609.37,49ZM611,49c1.69-.29,3.07-1.61,5.24-.74C614.51,48.71,613.16,50.22,611,49Zm97.12,2.59.09-.27.56.2Zm60.91,2.57a11.07,11.07,0,0,1-1.2-.3c.16-.13.33-.33.41-.31a11,11,0,0,1,1.23.39C769.36,54,769.19,54.16,769.07,54.14Zm5.29-.84c.64-1.28,1.34-.29,2-.07Zm46.38-1.23a5.36,5.36,0,0,1-1.07-.19c.28-.3.51-.56.74-.82a6.1,6.1,0,0,1,.76.66S820.89,52.07,820.74,52.07Zm4.38-6.49c.22,0,.5-.16.65-.09a8.92,8.92,0,0,1,1,.55Zm4.44.82c-1,.73-1.67.13-2.43-.24l2.57-.26C829.66,46.07,829.69,46.3,829.56,46.4Zm9.09,2-1.29,1.19,1.21-1.26.9-.67Zm12.06,3.5c-.22.25-.83.32-1.29.49l-.81-.8a3.51,3.51,0,0,1,1.16-.46C850.31,51.15,851.55,51,850.71,51.92Zm-8.58-6c6.84-1.1,11.22-2.27,17.07-1.46C854.07,48.07,849.32,47,842.13,45.9Zm14.56,5.84c.43-2.07,2.35-3.1,4.75-3.77h0C860.94,50,858.71,50.79,856.69,51.74Zm24.75-6.37c-3.41-.1-6,2.65-9.78,2.26-1.72-.17-4.08.9-4.49-1.3-.29-1.6,1.83-1.74,3.23-2.24a21.29,21.29,0,0,1,15.49.08C884.35,45.87,884.37,45.46,881.44,45.37Zm112.81-19c.74.24.84.92,1.17,1.43C994.92,27.43,994.28,27.18,994.25,26.38Zm1.4-.77c-.89.4-1-.31-1.53-.76C995.1,24.71,995.44,25.05,995.65,25.61ZM943,4.89l.13.15-1,.3ZM905.83,48.16c-3.71,0-7.45.19-11.13-.09s-2.37-2.69-2.5-4.38c0-.3.49-.63.76-.95,5.9,3.35,10.86-3.27,16.4-1C911.16,45.35,901.22,43.8,905.83,48.16Zm4.79,1.2c2.63-1.2,4.6-3.19,6.78-4.93,0,.57.07,1.13.13,1.69-.47.36.13,1.39.09,2a1.81,1.81,0,0,0,.08.56A39.84,39.84,0,0,0,910.62,49.36Zm26.7,28.37c-.82-.62-1.83-.56-2.74-.93l.25-.37a5.87,5.87,0,0,1,1.65-.66c.46.28.92.55,1.39.8l-.17.06c-.07,0-.1.21-.15.32l.91.19.24-.14h0l-.24.14C938.35,78,937.81,78,937.32,77.73Zm4.84,2.13A3.56,3.56,0,0,0,941,79l-1.4-.78a7.11,7.11,0,0,0,1.59-.07c.71.3,1.43.58,2.15.83a2.92,2.92,0,0,0,.28.21C943.37,80.11,942.74,80.49,942.16,79.86Zm1.49-.66.05-.08a4.72,4.72,0,0,0,.53.18A1.65,1.65,0,0,1,943.65,79.2Zm24.44,4.31s-.05-.11-.07-.17a2.2,2.2,0,0,1,.37,0s.05.1.07.16Z"/></svg>