<?xml version="1.0" encoding="utf-8"?>
<!-- Generator: Adobe Illustrator 25.2.1, SVG Export Plug-In . SVG Version: 6.00 Build 0)  -->
<svg version="1.1" id="Logos" xmlns="http://www.w3.org/2000/svg" xmlns:xlink="http://www.w3.org/1999/xlink" x="0px" y="0px"
	 viewBox="0 0 927.9 1000" style="enable-background:new 0 0 927.9 1000;" xml:space="preserve">
<path d="M548.3,385c0,0-11.3,16.5-3.8,16.5c1.1-0.1,2.1-0.3,3.1-0.7c6.5-2.3,12.3-6.3,16.9-11.5C559.6,388.3,555.8,385,548.3,385z
	 M556.5,275.2c-14.7,0,11.5,50.4,14,50.4c0.1,0,0.2-0.1,0.2-0.4c0-4.5,0.7-15.5,1.6-28.4C569.3,284.7,564.2,275.2,556.5,275.2z
	 M556.5,275.2c-14.7,0,11.5,50.4,14,50.4c0.1,0,0.2-0.1,0.2-0.4c0-4.5,0.7-15.5,1.6-28.4C569.3,284.7,564.2,275.2,556.5,275.2z
	 M548.3,385c0,0-11.3,16.5-3.8,16.5c1.1-0.1,2.1-0.3,3.1-0.7c6.5-2.3,12.3-6.3,16.9-11.5C559.6,388.3,555.8,385,548.3,385z
	 M548.3,385c0,0-11.3,16.5-3.8,16.5c1.1-0.1,2.1-0.3,3.1-0.7c6.5-2.3,12.3-6.3,16.9-11.5C559.6,388.3,555.8,385,548.3,385z
	 M556.5,275.2c-14.7,0,11.5,50.4,14,50.4c0.1,0,0.2-0.1,0.2-0.4c0-4.5,0.7-15.5,1.6-28.4C569.3,284.7,564.2,275.2,556.5,275.2z
	 M556.5,275.2c-14.7,0,11.5,50.4,14,50.4c0.1,0,0.2-0.1,0.2-0.4c0-4.5,0.7-15.5,1.6-28.4C569.3,284.7,564.2,275.2,556.5,275.2z
	 M548.3,385c0,0-11.3,16.5-3.8,16.5c1.1-0.1,2.1-0.3,3.1-0.7c6.5-2.3,12.3-6.3,16.9-11.5C559.6,388.3,555.8,385,548.3,385z
	 M556.5,275.2c-14.7,0,11.5,50.4,14,50.4c0.1,0,0.2-0.1,0.2-0.4c0-4.5,0.7-15.5,1.6-28.4C569.3,284.7,564.2,275.2,556.5,275.2z
	 M548.3,385c0,0-11.3,16.5-3.8,16.5c1.1-0.1,2.1-0.3,3.1-0.7c6.5-2.3,12.3-6.3,16.9-11.5C559.6,388.3,555.8,385,548.3,385z
	 M927.9,63.6c0-5.7-2.7-9.1-16.1-9.1c-21.5,0-25.5,48.9-79.2,48.9c-15,0-41.6-2.8-118.8-3.2c0.6,1.4,1.3,3.1,2.1,5.4
	c1.1,2.6,1.9,5.4,2.4,8.1c5,6.4,15.2,19.7,21.3,28.5l0.7,1l0.5,1.1c0.3,0.5,0.5,1,0.8,1.6l0.2,0.3l0.1,0.3c1.6,3.2,3.5,6.6,5.6,10.4
	v0.1v0.1c1.8,3.6,3.2,7.3,4.3,11.1c0.7,2,1.6,5.2,2.2,6.3c28.5,0.8,40.6,4.1,69.1,16.3c9.4,0,60.4,28.5,68.5,35.1
	c5.1,4.8,11.8,7.6,18.8,7.7c8.1,0,14.8-4.4,16.1-11c0-3.3,1.4-5.5,1.4-8.8c0-20.9-12.1-76.7-12.1-91.4
	C915.8,108.8,927.9,77.1,927.9,63.6z M548.3,385c0,0-11.3,16.5-3.8,16.5c1.1-0.1,2.1-0.3,3.1-0.7c6.5-2.3,12.3-6.3,16.9-11.5
	C559.6,388.3,555.8,385,548.3,385z M556.5,275.2c-14.7,0,11.5,50.4,14,50.4c0.1,0,0.2-0.1,0.2-0.4c0-4.5,0.7-15.5,1.6-28.4
	C569.3,284.7,564.2,275.2,556.5,275.2z M556.5,275.2c-14.7,0,11.5,50.4,14,50.4c0.1,0,0.2-0.1,0.2-0.4c0-4.5,0.7-15.5,1.6-28.4
	C569.3,284.7,564.2,275.2,556.5,275.2z M548.3,385c0,0-11.3,16.5-3.8,16.5c1.1-0.1,2.1-0.3,3.1-0.7c6.5-2.3,12.3-6.3,16.9-11.5
	C559.6,388.3,555.8,385,548.3,385z M355.9,643.6L355.9,643.6c0,1.5,14.5,6.3,23.6,9.6C372.6,649.7,362.3,644.8,355.9,643.6z
	 M379.4,653.2c3.9,1.9,6.6,3.3,6.9,3.3C387.1,656.1,383.9,654.8,379.4,653.2z M388.9,736.8c-0.3,0-1.4,1.4-3.1,3.7
	C388,739,389,738.2,388.9,736.8C388.9,736.8,388.9,736.8,388.9,736.8z M382,743.3c0.4,0.2,0.8,0.5,1.3,0.8l2.6-3.6
	C384.9,741.3,383.6,742.1,382,743.3L382,743.3z M388.9,736.8c-0.3,0-1.4,1.4-3.1,3.7C388,739,389,738.2,388.9,736.8
	C388.9,736.8,388.9,736.8,388.9,736.8z M379.4,653.2c3.9,1.9,6.6,3.3,6.9,3.3C387.1,656.1,383.9,654.8,379.4,653.2L379.4,653.2z
	 M355.8,643.6L355.8,643.6c0,1.5,14.5,6.3,23.6,9.6C372.6,649.7,362.3,644.8,355.8,643.6L355.8,643.6z M355.8,643.6L355.8,643.6
	c0,1.5,14.5,6.3,23.6,9.6C372.6,649.7,362.3,644.8,355.8,643.6L355.8,643.6z M379.4,653.2c3.9,1.9,6.6,3.3,6.9,3.3
	C387.1,656.1,383.9,654.8,379.4,653.2L379.4,653.2z M388.9,736.8c-0.3,0-1.4,1.4-3.1,3.7C388,739,389,738.2,388.9,736.8
	C388.9,736.8,388.9,736.8,388.9,736.8z M440.2,924.5c0-6.6,1.1-13.2,2.2-20.9c2.2-11,4.4-23.1,4.4-33c-0.1-2-0.4-4-0.9-5.9H441
	c-19.8-0.6-29.7-5.4-37.7-9.4c-6.3-3.1-10.5-5.2-20.6-5.2c-5.6-0.1-11.1-0.6-16.6-1.6c-2.9-0.5-5.7-1-8.3-1.6l-3.5-0.8
	c-1.9,12.1-5.4,28.6-5.4,31c0,4.3,3.3,8.6,7.7,11.1c-2.6,15.6-10.7,18.2-14.3,21.9c-4.4,3.3-4.4,6.6-4.4,9.9l-7.3,7.5
	c0,4.4-11.8,12.8-23.5,20.7c-7.8,5.3-47.2,20.3-47.2,32.3s14.3,19.5,24.1,19.5c34,0,130.7-15.2,147.2-15.2c8.8,0,12.1-11,12.1-24.2
	c0-4.4,0-9.9-1.1-14.3C441.3,938.8,440.2,931.1,440.2,924.5z M382.1,743.3c0.4,0.2,0.8,0.5,1.3,0.8l2.6-3.6
	C384.9,741.3,383.6,742.1,382.1,743.3z M355.8,643.6L355.8,643.6c0,1.5,14.5,6.3,23.6,9.6C372.6,649.7,362.3,644.8,355.8,643.6
	L355.8,643.6z M382.1,743.3c0.4,0.2,0.8,0.5,1.3,0.8l2.6-3.6C384.9,741.3,383.6,742.1,382.1,743.3z M379.4,653.2
	c3.9,1.9,6.6,3.3,6.9,3.3C387.1,656.1,383.9,654.8,379.4,653.2L379.4,653.2z M388.9,736.8c-0.3,0-1.4,1.4-3.1,3.7
	C388,739,389,738.2,388.9,736.8C388.9,736.8,388.9,736.8,388.9,736.8z M388.9,736.8c-0.3,0-1.4,1.4-3.1,3.7
	C388,739,389,738.2,388.9,736.8C388.9,736.8,388.9,736.8,388.9,736.8z M379.4,653.2c3.9,1.9,6.6,3.3,6.9,3.3
	C387.1,656.1,383.9,654.8,379.4,653.2L379.4,653.2z M355.8,643.6L355.8,643.6c0,1.5,14.5,6.3,23.6,9.6
	C372.6,649.7,362.3,644.8,355.8,643.6L355.8,643.6z M355.8,643.6L355.8,643.6c0,1.5,14.5,6.3,23.6,9.6
	C372.6,649.7,362.3,644.8,355.8,643.6L355.8,643.6z M379.4,653.2c3.9,1.9,6.6,3.3,6.9,3.3C387.1,656.1,383.9,654.8,379.4,653.2
	L379.4,653.2z M388.9,736.8c-0.3,0-1.4,1.4-3.1,3.7C388,739,389,738.2,388.9,736.8C388.9,736.8,388.9,736.8,388.9,736.8z M382,743.3
	c0.4,0.2,0.8,0.5,1.3,0.8l2.6-3.6C384.9,741.3,383.6,742.1,382,743.3L382,743.3z M388.9,736.8c-0.3,0-1.4,1.4-3.1,3.7
	C388,739,389,738.2,388.9,736.8C388.9,736.8,388.9,736.8,388.9,736.8z M379.4,653.2c3.9,1.9,6.6,3.3,6.9,3.3
	C387.1,656.1,383.9,654.8,379.4,653.2L379.4,653.2z M355.8,643.6L355.8,643.6c0,1.5,14.5,6.3,23.6,9.6
	C372.6,649.7,362.3,644.8,355.8,643.6L355.8,643.6z"/>
<path d="M445.7,466.5c0,15.4-13.2,27.4-13.2,35.1c-0.1,1.2,0.3,2.4,1.1,3.3c4.4,4.4,12.1,14.3,12.1,22c0,9.9-7.6,40.1-7.6,58.8
	c0,16.5,3.2,46.7,3.2,63.1c0,13.2,3.3,24.2,3.3,32.9c0,3.3,0,5.5-1.1,7.7c-2.2,3.3-2.2,7.7-2.2,13.2c0,7.7,1.1,17.5,2.2,30.7
	c0,4.4,1.1,8.8,1.1,13.2c0,11.8-2.1,22.5-2.2,33.2c-21.7-5.6-38-17.1-44-24.1l-0.1-0.1l-0.1-0.1c-4.3-4.6-9.3-8.5-14.9-11.5l2.6-3.6
	c2.2-1.6,3.1-2.3,3.1-3.6l0,0c-0.3,0-1.4,1.4-3.1,3.7c-1,0.7-2.3,1.6-3.9,2.8c-2.1-1.2-4.4-2.3-6.8-3.5c-2.4-1.2-4.9-2.3-7.5-3.5
	c-1.3-0.5-2.6-1.1-3.9-1.6c0-0.7,0-1.4,0-2.1c-0.6-10.2-2.8-15.5-13.8-29c0.7-2.1,1.1-4.2,1.2-6.4c0-6.6-2.2-22-2.2-28.5
	c0-8.8,0-25.3,4.4-25.3c0.8,0,1.7,0.1,2.5,0.3l0,0c0,1.5,14.5,6.3,23.6,9.6c3.9,1.9,6.6,3.3,6.9,3.3c0.7-0.4-2.4-1.7-6.9-3.3
	c-6.8-3.5-17.2-8.4-23.6-9.6c0-15.3,7.7-14.2,5.3-37.6c-8.8-12.1-11-27.5-11-52.7l2.2-20.9v-50.5c0-23.1,11-14.3,11-30.8
	c0-8.8-12.1-23-12.1-30.7c0-15.4,9.9-4.4,9.9-22c0-12.1-6.6-28.6-6.6-44c0-7.7,1.1-8.8,1.1-17.6c0-23.1-1.1-55.1-1.1-62.8
	c0-13.2,13.2-42.8,13.2-51.6c0-16.4-11-40.4-33.8-46c-2.8-0.7-5.6-1.1-8.4-1.2c-0.6,0-1.2,0-1.8,0h-76.5c-3.6,0-7.6,0-11.8,0
	c-2.3,0-4.8,0-7.3,0.1c-16,0.2-34.6,0.7-51.5,1.6l-7.2,0.4c-4.2,0.3-8.2,0.5-11.9,0.9c-5.3,0.4-10.1,0.9-14.3,1.4
	c-32.3,4.4-50.6,18.7-60.4,23.1C49.1,215.9,45,239,14,239c-11.3,0-14-8.8-14-19.8c0-15.4,7-35.1,9.8-41.7
	c7.1-13.2,8.4-60.8,8.4-68.8c0-12.5-10.3-28.3-11.8-37.3c0-5.7,2.8-15.8,15.5-15.8C37.4,55.6,71.7,99,97,99c7.1,0,42.2,4.4,64.6,4.4
	c14.8,0,31.6-0.3,46.3-0.5l10.8-0.2c4.3-0.1,8.1-0.2,11.5-0.2c4.3-0.1,7.8-0.1,10.1-0.1c1.4,0,15.5,1.7,31,3.4l9.4,1l6.6,0.7
	c3.2,0.3,6.4,0.6,9.3,0.8c5.9,0.5,10.9,0.8,14.2,0.8c13.4,0,25.3-1.4,41.1-2c3.6-0.1,7.4-0.2,11.4-0.2h0.1c3.9,0,7.8,0,11.9,0.1
	c11.5,0.2,22.9,1.3,34.2,3.2c14.3,2.2,31.9,13.2,31.9,17.6c0,3.3,3.3,25.8,3.3,33.4c0,4.4-1.1,9.9-4.4,13.2
	c-4.4,4.4-5.5,6.6-5.5,8.8c-0.1,1.9,0.3,3.8,1.1,5.5c1.1,3.3,3.3,6.6,4.4,12.1c1.7,6.1,2.4,12.4,2.2,18.7c0,9.9-2.2,17.6-4.4,25.3
	c-0.9,2.1-1.3,4.3-1.1,6.6c0,12.1,5.5,63.9,5.5,77.1v4.4c-0.8,4-1.2,8-1.1,12.1c0,7.7,1.1,15.4,1.1,30.7c0,14.3-1.1,23.1-1.1,30.7
	c0,5.5,0,9.9,2.2,16.5c2.2,7.7,2.2,14.3,2.2,20.9L445.7,466.5z"/>
<path d="M661.1,979.4c0,9.9-12.1,20.7-27.5,20.7c-28.5,0-117.1-19.5-133.6-19.5c-9.9-1.1-12.1-11-14.3-24.2
	c0-15.4,1.1-54.9,1.1-72.5c0-6-0.1-12.3-0.4-18.9c-0.1-2.3-0.2-4.8-0.3-7.2c-0.1-2.5-0.3-4.8-0.4-7.2c-0.5-8.8-1.3-18.1-2.2-28.2
	c0-4.4-1.1-9.9-1.1-13.2c0-4.2,0.3-8.5,0.7-12.7c0.3-2.5,0.7-4.9,1-7.4c0.3-2.5,0.7-4.9,1-7.5c0.4-4,0.6-8,0.7-12
	c0-13.2-2.2-28.5-2.2-39.5c-0.1-4.1,0.6-8.3,2.2-12.1c4.4-6.6,1.1-11,7.7-17.5c1.4-1.1,2.2-2.7,2.2-4.4c0-6.6-8.8-16.5-8.8-16.5
	c-1.5-5.7-2.2-11.6-2.2-17.5c0-8.8-7.6-16.5-1-25.3c9.9-14.3,2.8-36.3,2.8-48.3c0-14.3-4-56-4-67c0-28.5,4.4-38.4,4.4-62.6
	c0-13.2,2.2-19.8,2.2-25.3s-1.1-9.9-6.6-18.7c-3.3-5.5-4.4-9.9-4.4-14.3c0-13.2,9.9-25.3,13.2-31.9c0-1.1,1.1-2.2,1.1-3.3
	c0-7.7-7.7-16.5-7.7-27.5c0-3.3,1.1-5.5,2.2-8.8c1.1-4.4,2.2-42,2.2-46.4c0-13.2-6.6-27.5-8.8-40.6v-4.4c-0.8-5.1-1.2-10.2-1.1-15.4
	c0-6.6,1.1-11,5.5-13.2c2.2-1.1,3.3-3.3,3.3-6.6c0-7.7-5.5-20.9-5.5-26.4c1.3-4.6,2.1-9.4,2.2-14.3c0-3.3,0-22.5-1.1-30.2
	c0-12.1,16.5-17.5,26.4-17.5c17.6,0,35.1-9.9,49.4-9.9c5.4,0,22.4-0.7,43.4-1.6c6.3,7.6,10.3,11.3,16.6,11.7
	c4.2,3.6,7.9,7.7,10.9,12.4c-3,6.3,0.1,13.8,5.3,26.2c1.4,3.4,2.9,7,4.1,9.9c-9-1.9-16.4-3.2-20.9-3.2c-2.2,1.1-3.3,1.1-3.3,2.2
	s2.2,3.3,2.2,4.4c0,5.5-22,9.9-37.3,9.9c-14.3,0,0.3,26.4-3,42.8c-1.3,8-2.1,16.1-2.2,24.2c0,11.7-1.6,34.6-2.9,53.5
	c-3-12.2-8-21.7-15.8-21.7c-14.7,0,11.5,50.4,14,50.4c0.1,0,0.2-0.1,0.2-0.4c0-4.5,0.7-15.5,1.6-28.4c2.9,11.7,4,26,4,36.8
	c0,16.1,2,40-11.7,55.7c-5-1-8.8-4.4-16.3-4.4c0,0-11.3,16.5-3.8,16.5c1.1-0.1,2.1-0.3,3.1-0.7c6.5-2.3,12.3-6.3,16.9-11.5
	c0.9,0.2,1.9,0.3,2.9,0.3c4.4,0,4.4,2.2,4.4,11c0,16.5-4.4,40.6-4.4,60.4c0,13.2,9.9,19.8,9.9,45c0,17.5-23.1,13.2-23.1,20.9
	c0,3.3,23.1,14.3,23.1,22c0,11-6.6,25.3-6.6,33c0,2.2,3.3,18.7,3.3,28.5c0,2.2-1.1,4.4-1.1,5.5c0,13.2-14.3,25.3-14.3,42.8
	c0,13.2,16.5,8.8,16.5,51.6c0,16.1,0.5,37,0.8,57.5c0,2.7,0.1,5.4,0.1,8c0,2.6,0.1,5.4,0.1,8c0,3.4,0,6.7,0,10
	c0,17.6-4.9,25.5-5.4,44.7c0,1.2-0.1,2.4-0.1,3.7c0,1.7,0,3-0.1,4.1c0,2.7-0.4,5.3-0.9,7.9c-0.4,3.7-0.5,7.4-0.4,11.1
	c0,8.8,8.6,24.2,8.6,34.1c0,33.6,22,20.6,29.7,34.9C614.1,945,661.1,964.3,661.1,979.4z"/>
<path d="M748.1,734.2c-1.9-5.2-0.9-43.2-1.7-49.2c-4.5-33.4-6.9-3.1-3.5-41.5l1.1-11.6c0.2-8.4,3.1-15.5,2.2-22.3
	c-2-14-10.6-21.6-20.6-21.6c-0.5,0-1,0-1.4,0c-0.8,0.1-1.7,0.2-2.5,0.3c-17.2,3.4-21.2,27.6-27.7,50.9c0,0,2,9.4-6.4,20.3
	c-2.5,9-5.7,20.2-10.1,32.2c0,0,0,0,0,0.1s-0.1,0.3-0.2,0.4c0.1,0.6,0.1,3.7-3,7.8c-13.7,33.3-36.3,60.5-81.3,76
	c-0.8,0.3-1.7,0.6-2.5,0.9c0.1,5.7,0.1,11.3,0.1,16.7c-0.1,8.4-1.1,16.7-3,24.9c-0.6,3-1.2,5.8-1.6,9c5.9-1.1,10.4-4.4,19.5-5
	l1.6-0.1h0.5c2.4,0,5.5,1.3,8.7,1.3h0.8c0.4,0,0.8-0.1,1.3-0.2c0.6-1.3,1.6-2.3,2.8-3c0.9-0.1,1.8-0.2,2.5-0.2s1.5-0.1,2.1-0.1
	c1.8,0,3.4,0.2,5.3,0.4c6.6-1.6,13.1-3.6,19.5-5.9c8.1-2.5,14.4-5,20.1-5.3c0.5,0,1-0.1,1.6-0.1c1,0,2,0.1,3,0.2
	c3.2-0.9,6.3-2,9.4-3.3c2.7-0.9,5.4-1.4,8.2-1.6C761.9,803.3,750.1,740.6,748.1,734.2z"/>
<path d="M469.3,823.7l-0.1-0.7v-0.7c-0.1-1.9-0.2-3.9-0.5-5.8c-0.3-2.4-0.5-4.9-0.6-7.4c0-4.3,0.2-8.1,0.5-11.7l0,0
	c-0.3,0-0.6,0-0.9,0c-2.8,0-5.5-0.1-8.2-0.3c-0.5,0-1.1-0.1-1.6-0.2c-2.1-0.1-4.1-0.4-6.1-0.7c-0.4-0.1-0.8-0.1-1.2-0.2
	c-2.5-0.4-4.9-0.8-7.2-1.4c-25.9-5.6-47-19.2-56-29.8c-3.7-3.7-8-6.9-12.6-9.3c-1.4-0.8-2.8-1.6-4.3-2.3c-0.5-0.3-1-0.5-1.5-0.8
	c-2.4-1.2-4.7-2.3-7-3.3c-0.8-0.3-1.6-0.7-2.3-1c-1.7-0.7-3.3-1.4-4.8-1.9c-0.7-0.3-1.4-0.5-2.1-0.8c-4.5-1.7-7.5-2.7-7.5-2.7
	c0.1-1.6,0.7-3,1.7-4.2c1.3-1.8,2.7-3.7,2.5-5.4c0-1.2-0.2-2.4-0.3-3.6c-0.3-2-1-3.9-2-5.7c-2.1-3.6-4.5-7-7.2-10.2
	c-1.7-2.1-3.6-4.5-6-7.2c-0.5-0.7-1.2-1.4-1.8-2.1c-10.4-11.7-20.1-26.5-22-56.5c-1.2-18.8-8-26.7-17-26.7c-0.4,0-0.8,0-1.2,0h-0.1
	c-3.3,0,16.3-14.4,5.9-14.4h-1c-0.2,0-0.4,0-0.7,0c-2.4,0-3.4-1.3-3.6-6c-1.2-18.6-2.2-22.1-2.5-27.2c-0.1-1-4.5-12.5-12.8-12.5
	h-0.7c-0.1,0-0.1,0-0.2,0c-4.4,0,2.8-11.4-2.3-11.4h-0.3c-0.4,0-0.8,0-1.1,0c-2.9,0-3.8-0.9-3.9-1.8c-0.3-5.2-7.7-1.3-0.4-9.1
	c1.9-1.2,1.8-3.2,1.6-5.3c-0.4-6.9-5.4-16.3-5-16.3c0,0,0.1,0,0.2,0.1c0.9,0,0.6-37.5,0.8-48.8c0.5-7.3,1.2-12.5,0.8-18.8
	c-0.5-5.6-1.8-11.1-3.9-16.3c-1.1-2,3.8-8.3,3.6-10.4c-0.6-10.3,6.9-38.6,6-53.1c-1-16.5,9.8-46.3,10.8-61.9
	c0-16.6,6.8-31.5,6.4-37.8c-0.8-12.1,16.3-31.7,5.9-31.7h-0.7c-0.5,0-1.1,0.1-1.7,0.1c-1.9,0-4.1-0.4-4.3-2.7
	c-0.1-2.8-0.1-3.2,1-3.2c0.5,0,1.3,0.1,2.3,0.1c2.6,0,5.3-0.6,7.7-1.6c6.5-1.8,8.2-24.2,12.3-42h-61.4c-5.4,19.2-7.9,31-13.1,44.3
	c-6.7,17.1-15.9,26-16.3,52.9c-0.4,24.9-4.3,40.7-10.1,41.1c-2.9,0.2-5.5,21.1-4.5,37.6c0.5,7.2,1.9,44.1,4.1,48
	c0.4,6.3-0.4,8.3-0.2,11.4c0.2,3.1,1.3,5,3.1,5h0.4c3.6,0-16.4,8.4-4.9,55.9c-6.1,19.6-1.3,37.8-0.2,56.4
	c0.9,14.4,1.6,24.7,3.8,29.7l4.6,11.1c7.1,20.2,2.7,43.3,15.6,63.1s5.9,17.2,16.9,37.1c7.7,14,6.6,10.9,10.7,15.8
	c10.5,12.7,19,24.6,23.5,34.6c4.5,10,14,6.3,30.7,23.8c6.2,6.4,14.8,12.8,23.1,18.4c2.2,1.4,4.3,2.8,6.3,4.1
	c2.3,1.5,4.4,2.8,6.5,4.1c1.1,0.7,2.1,1.3,3,1.9c4,2.5,7.1,4.4,8.5,5.4c0.8,0.7,1,1.1,0.5,1.1c-0.1,0-0.2,0-0.4,0
	c-1.9,0.2-4.3,1.3-7.4,2.1c-1.6,0.4-3.1,0.7-4.8,0.8h-0.1c-1,0.1-2.1,0.2-3.2,0.2c-1.4,0-2.7-0.1-4.1-0.4c-1.2-0.2-2.3-0.6-3.4-1.1
	c-1.3-0.4-2.5-0.8-3.9-1.3c-13.3-4.5-34-12.5-54.5-29.8c-22.6-19.1-26.4-33.4-40.6-43.8c-14.2-10.4-15.9-19.5-25-41.7
	s-9.8-32.5-18.8-50.5c-9-18-7.9-32.5-12.6-62.3c0,0-8.1-21.3-8.4-25.3c-2-32-8.2-30.6-4.8-77.4c1.1-14.3,3.1-74.4,3.8-95.2
	c0.7-20.7,4.4-22.1,6.7-49.2c2.3-25,17-55.1,22-83.4c4.4-24.2,25.9-22.5,24.8-40.1l-0.3-4.4c-20.3,0.3-45,1-64.3,2.3
	c-11.9,13.1-21.7,38-21.1,47.5c0,1.1-5.2,12.7-5,15.8c0,1.7-2.4,4.2-3.2,5.5c-1.3,2.1-2.8,4.1-4.4,6c-2,2.3-2.1,4.9-2.7,7.9
	c-1.3,6.5-2.6,13-3.9,19.5c-2.5,12.8-4.9,25.6-7.1,38.5c-1.1,6.6-3.2,14-2.7,20.8c0.9,15.5,4.8,60.4,5,63.4
	c0.3,4.2-15.3,5.3-12.6,48.6c2.4,39.2,6.9,64.7,7.3,71c0.3,4.1,7.3,14,6.4,14.1c-1.8,0.1,3.1,11.8,3.1,13.1c0,0.1,0,0.1,0,0.1
	c-0.9,0,8.4,55.5,19.7,66c5,2.7,8.4,9.6,8.8,14.7c0.4,7.2,2.5,10.4,3,17.6c1.2,19.6,23.8,53.3,34.2,66c12.5,14.6,41.4,25,42,35.4
	c0.6,8.8,4.8,9.8,7.8,9.8c0.6,0,1.1,0,1.6-0.1c0.5-0.1,0.7-0.1,1-0.1c2.7,0,5.7,0.9,6,5.4c0.3,3.1,9.2,4.9,9.3,7
	c0.9,13.2,56.3,38.8,68.1,38.8c0.2,0,0.3,0,0.5-0.1h0.7c3.3,0,8.3,1.4,14.5,3.1c2.4,0.7,4.9,1.4,7.6,2.2c1.8,0.5,3.8,1,5.7,1.6
	c0.6,0.2,1.2,0.3,1.8,0.5c1.9,0.5,3.8,0.9,5.7,1.3c2.4,0.6,5,1.1,7.5,1.5c4.8,0.8,9.7,1.3,14.6,1.4c27.3,0.2,26.1,13.8,58.3,14.6
	h3.5c2.1,0,4.2,0,6.5,0c1,0,2,0,3.1,0c1.4,0,2.7,0,4.2,0c1.2,0,2.3,0,3.5,0c3,0,6,0,9.2,0l0,0C470.8,842.3,470.2,833.4,469.3,823.7z
	 M389.7,816.7c-0.6,0-1.2,0.1-1.7,0.1c-6.3,0-8.2-2.9-8.5-7.6c-0.2-3.1,2.5-7.5,6.3-7.7h0.9c5.7,0,20.6,2.9,21,7.7
	C407.9,813.3,395.4,816.3,389.7,816.7z"/>
<path d="M778.9,232.8c-6.4-15.8-20.9-27.7-32.7-44.2c-1.6-2.2-3.1-4.4-4.5-6.8c-0.1-0.2-0.2-0.3-0.3-0.4c-1.1-2.3-2-4.8-2.7-7.2
	c-1-3.5-2.2-6.9-3.7-10.2c-2.2-3.8-4.2-7.5-6-11.1c-0.4-0.8-0.9-1.6-1.3-2.4c-8-11.6-23.7-31.5-23.7-31.5c1.3-2.4-4.4-14.9-4.5-14.9
	l-3.2-3.9c-1.7-2-3.9-4.6-6.3-7.2s-4.6-5-6.7-7.1c-0.9-0.9-1.8-1.7-2.6-2.4c-11.7-10.3-16.7-17-28.8-26.7
	c-10.2-8.1-15.4-10.3-26.5-17.1s-21-14.6-32.7-19.7c-13.6-5.9-27.8-10.3-42.3-13.3c-17.7-3.7-35.7-5.9-53.8-6.4
	c-3.9-0.1-7.9-0.2-11.9-0.2c-3.1,0-6.3,0-9.4,0.1c-4.9,0.2-9.8,0.4-14.9,0.7c-24.1,1.4-48,5.2-71.3,11.3
	c-40.2,11.1-64.4,29.4-81.4,36.8c-10.3,5.9-28.8,6.2-33.8,19c-0.8,2.5-3.6,5.4-7.5,8.6c-3.1,2.5-7.1,5.3-11.4,8.3
	c-2,1.3-3.9,2.7-6,4.1c1.6,0.2,3.6,0.4,6,0.7c8.2,0.9,20,2.2,30.8,3.3c1-0.8,2.1-1.6,3.2-2.3c2.1-1.6,4.3-3.1,6.5-4.5
	c1.5-1,3-2,4.6-3.1c13.1-9,27.7-20.3,32.7-24.4c3.3-2.4,7.3-3.8,11.5-3.9c0.5,0,1.1,0,1.7,0c5.1,0,9.2,1.7,10.3,4.4
	c0.8,1.6,1.2,3.3,1.3,5.1c0.2,3.1-1.7,4.3-8.3,7.8c-8.8,4.4-17.7,3.6-26.3,10.5c-0.8,0.6-1.5,1.2-2.1,1.9c-1.9,1.9-4.2,4.1-6.8,6.6
	c-1.3,1.3-2.6,2.5-4,3.8h0.4c7.2,0,14.1-0.5,21.6-1c8.9-0.6,18.9-1.3,31.1-1.3c2.3,0,4.7,0,7.1,0c1.5-1.3,2.7-2.4,3.9-3.5
	c2.7-2.8,4.7-5.4,7.3-8.2c4.1-4.4,9.8-9.2,22.9-15.8c46.3-21.9,52.1-22.3,54.1-22.4h1c4.4,0,10.9,1.6,19.4,2.8
	c5.9,0.9,11.9,1.4,17.9,1.4h0.6c2.3,0,4.7-0.1,7.1-0.2c3.9-0.3,8.6-1.7,13.5-2c0.7,0,1.3,0,1.9,0c10.7,0,21.8,2.9,32,5.8
	c12.2,3.5,25,8.5,35.6,15.5c6.8,4.5,15.1,14.4,21.7,22.5c2.2,2.6,4.1,5,5.8,7c2.6,3.1,4.5,5,5.4,5c0.2,0,0.4-0.2,0.4-0.4
	c0.1-0.3,0.4-0.5,0.7-0.5c0.9,0,2.7,1,4.9,2.6c8.9,6.6,24.4,24,17.1,31c-1.1,1.1,7.3,18.8,10.7,28.3c0.6,1.7,1.3,3.6,2.1,5.5
	c1,2.6,1.8,5.2,2.5,8c0.6,2.4,0.9,5,0.7,7.5c-0.2,1.9-0.7,3.7-1.5,5.3c-5.6,11-3,10.7-9.6,23.7c-0.9,1.7-2.2,4.8-3.7,8.6
	c-0.9,2.3-1.9,5-3,7.8c-0.9,2.4-1.9,5-3,7.7c-4.4,11.9-9.6,23.5-15.5,34.8c-2.1,3.9-3.4,8.2-3.9,12.6c-0.4,6.5,1.8,12.5,7.8,17.5
	c0.9,0.7,1.9,1.3,3,1.8c1.1,0.4,2.3,0.7,3.5,0.7c7.5,0,16.4-8.2,29.6-12.7c29.2-10,53.4-9.9,60-13.8c2.5-1.3,5.3-1.8,8.1-1.7
	c10,0,22.9,4.5,22.9,4.5c1.7-0.3,3.4-0.6,4.9-1c3.3-0.7,6.4-1.7,9.5-3c2.6-1.1,5.1-2.6,7.3-4.3C786.3,262.1,785.3,248.6,778.9,232.8
	z M377.8,54.4c-1.9,1.3-4.2,2.1-6.5,2.3c-2.6,0-4.4-1.7-5.8-4.4c-1.4-2.7-0.8-7.8,2.6-9.8c3-1.8,12.1-4.9,18-4.9
	c2.4,0,4.3,0.5,4.9,1.8C393,42.9,382.9,51.3,377.8,54.4z"/>
</svg>
