<svg id="Camada_1" data-name="Camada 1" xmlns="http://www.w3.org/2000/svg" viewBox="0 0 1000 332.6"><path d="M118.49,221.76c-1.25,0-3,0-3-1.53,0-1.11,2-3.47,2.39-4.58a5,5,0,0,0,.56-2.49v-.56a1.31,1.31,0,0,1,.55-1.25c.56-.55,1.91-.92,1.91-4.11a23.37,23.37,0,0,1,3.23.64c-.7,0-1.53,1-2.36,1a2,2,0,0,1-1.94-1.66c0-.42.83-4.16.83-5.27,0-.84-.7-3.89-.7-5.55a6.07,6.07,0,0,1,2.09-4.3c2.08-2.22,2.83-2.2,2.83-2.61s-3.17,4.64-3.87,4.64.9-4.67-.07-4.67c-.56,0-1.39-.83-1.39-2.08,0-1.67.55-1.94.55-2.91s-.27-2.78-.27-3.61c0-1.11,0-3.19.55-3.19,1.11,0,4,1.66,4.16,1.66s-3.85-1.35-3.85-1.63c0-1.94,1-1.79.66-4.75-1.11-1.53-1.39-3.47-1.39-6.66l.28-2.64v-6.38c0-2.91,1.39-1.8,1.39-3.88,0-1.11-1.53-2.92-1.53-3.89,0-1.94,1.25-.55,1.25-2.77,0-1.53-.83-3.61-.83-5.55,0-1,.14-1.11.14-2.22,0-2.92-.14-2.64-.14-3.61,0-1.66,1.66-5.41,1.66-6.52,0-2.36-1.8-6-5.54-6h-4.16a81.19,81.19,0,0,0-10.27.56c-3.19.55-5,2.36-6,2.91-3.33,1.67-3.74,4.58-6.8,4.58-1.11,0-1.38-1.11-1.38-2.5a19.76,19.76,0,0,1,1-5.27,18.35,18.35,0,0,0,.83-5.61c0-1.53-1-3.47-1.16-4.58,0-.69.28-1.94,1.52-1.94,1.53,0,4.91,2.22,7.41,2.22.69,0,4.16.55,6.38.55,2.91,0,6.66-.13,7.77-.13a7.61,7.61,0,0,0,3.19.83c2.08,0,3.89-.28,6.66-.28a30.64,30.64,0,0,1,5.83.42c1.8.27,4,1.66,4,2.22,0,.41.42,3.25.42,4.22a2.39,2.39,0,0,1-.56,1.66c-.55.56-.69.84-.69,1.11a1.52,1.52,0,0,0,.14.7,9,9,0,0,1,.55,1.52,7.69,7.69,0,0,1,.28,2.36,11.16,11.16,0,0,1-.55,3.19,1.78,1.78,0,0,0-.14.84c0,1.52.69,3.74.69,5.41v.55a6.2,6.2,0,0,0-.14,1.53c0,1,.14,1.94.14,3.88s-.14,2.92-.14,3.89a5.7,5.7,0,0,0,.28,2.08,8.91,8.91,0,0,1,.28,2.64v2.91c0,1.94-1.67,3.47-1.67,4.44a.48.48,0,0,0,.14.41,5,5,0,0,1,1.53,2.78c0,1.25-1,5.07-1,7.43,0,2.08.4,5.89.4,8,0,1.67.42,3,.42,4.16a2,2,0,0,1-.14,1,3,3,0,0,0-.28,1.67c0,1,.14,2.22.28,3.88,0,.56.14,1.11.14,1.67,0,1.52-.28,2.91-.28,4.3,0,.42.14,1,.14,1.39v5.82a19.5,19.5,0,0,0,.28,3.2c0,.27.14.55.14,1a22.72,22.72,0,0,1-.56,4.16,18.71,18.71,0,0,0-.28,2.64,20.62,20.62,0,0,0,.28,2.77,7.81,7.81,0,0,1,.14,1.8c0,1.67-.42,3.06-1.53,3.06C128.1,220.79,122.79,221.76,118.49,221.76Zm17-4.58c0-1.94.13-6.94.13-9.16s-.13-4.72-.41-7.77c0-.55-.14-1.25-.14-1.66,0-2,.42-3.06.42-5,0-1.66-.28-3.6-.28-5a3.69,3.69,0,0,1,.28-1.53c.55-.83.13-1.39,1-2.22a.72.72,0,0,0,.28-.55c0-.84-1.12-2.08-1.12-2.08a9.28,9.28,0,0,1-.27-2.22c0-1.11-1-2.09-.12-3.2,1.24-1.8.34-4.57.34-6.1,0-1.8-.5-7.08-.5-8.46,0-3.61.55-4.86.55-7.91,0-1.67.28-2.5.28-3.19a4,4,0,0,0-.83-2.36,3.34,3.34,0,0,1-.55-1.81c0-1.66,1.24-3.19,1.66-4,0-.14.14-.28.14-.42,0-1-1-2.08-1-3.46a3.4,3.4,0,0,1,.27-1.11,5.88,5.88,0,0,0,.28-1.53c0-1.66-.83-3.47-1.11-5.13v-.56a10.45,10.45,0,0,1-.14-1.94c0-.83.14-1.39.7-1.67a.83.83,0,0,0,.41-.83c0-1-.69-2.63-.69-3.33a6.93,6.93,0,0,0,.28-1.8c0-.42,0-2.84-.14-3.81,0-1.52,2.08-2.22,3.33-2.22,2.22,0,4.44-1.25,6.24-1.25s8.05-.55,12.21-.55c9.44,0,12.49.41,14.15.41,5.55,0,6-2.91,8.19-2.91,1.39,0,1.66.42,1.66,1.11,0,1.67-1.24,5.55-1.24,7.22s1.24,5.88,1.24,8.52c0,.42-.13.69-.13,1.11a1.66,1.66,0,0,1-1.67,1.39,2.63,2.63,0,0,1-1.94-1c-.83-.84-6.11-4.44-7.08-4.44-3.47-1.81-4.58-2.09-8.88-2.09-1,0-1.66.14-2.22.14-3.47,0-4.85-1.94-6.8-1.94-.27.14-.41.14-.41.28s.28.41.28.55c0,.7-2.78,1.25-4.72,1.25s0,3.33-.37,5.41a20.66,20.66,0,0,0-.28,3.06c0,2.49-.56,4.62-.56,6,0,.69-3.74-2-1.8-2s2.5.28,2.5,3,.41,7-3.61,8.49c-1.67.55.08-2,.08-2,1.11,0,1.58.59,2.42.59.55,0,.55.27.55,1.38,0,2.09-.55,5.14-.55,7.64,0,1.66,1.25,2.49,1.25,5.68,0,2.22-2.92,1.67-2.92,2.64,0,.42,2.92,1.8,2.92,2.78,0,1.38-.84,3.19-.84,4.16,0,.28.42,2.36.42,3.6a6.06,6.06,0,0,1-.14.7c0,1.66-1.8,3.19-1.8,5.41,0,1.66,2.08,1.11,2.08,6.52,0,2.91.14,7.08.14,10.54,0,2.36-.7,3.33-.7,6.11,0,1.8-1.52.69-1.52,2.91,0,1.11,2.08,3.06,2.08,4.3a11.87,11.87,0,0,0,1.11,5.42c.83,1.38,3.91,3.74,3.91,4.71,0,1.25-1.52,1.67-3.47,1.67-3.6,0-8.95-1.53-11-1.53C136,220.09,135.73,218.84,135.46,217.18Z"/><path d="M169,165.52c0-.56.11-1.24.11-2.14,0-4.63.91-4.86.91-5.87a22.13,22.13,0,0,0-.57-2.94c0-2-.22-2.71-.22-4.18,0-.56.11-1.35.11-2,0-5.31-2.6-7.45-2.6-8.69s1.24-1.36,2.26-1.36c1.81,0,3.27.57,4.85.57,1,0,2.15.68,3.28.68s3.39-.68,4.85-.79c2-.12,4.74-.34,9.6-.34,2.93,0,3.84-.23,5.3-.23.91,0,3.39,1.4,11.53-.95,2.9-.84,2.93-.79,2.93.45a20.55,20.55,0,0,1-1,4.79c-.57,1.24-.82,7.28-1.49,7.28-1.7-.11-4.27-5.13-6.86-5.13-2.83,0-4.18-.91-5.31-.91-3.84,0-4.4-.56-5.53-.56-5,0-6.89,1.8-6.89,2.48s1.47.9,1.47,1.92c0,3.27-.34,3.73-.34,3.84-.11.68,0,2-.45,2.71s.16,3.73.16,4.29-2.65-1.47-1.4-1.47c.11,0,.11.23.33.23.68,0,1.36.79,1.36,2.14a16.52,16.52,0,0,1-.23,2.71c0,.57.12,1.24.12,1.81s-.12,1.8-.12,3l2.94-1a10,10,0,0,1,2.37-.23c.11,0,2.37,1.13,2.37,1,.45-.9,1.24-1.36,2.94-1.58a31.75,31.75,0,0,1,8.12-.79c.91,0,1.25.56,1.25,1,0,.12-.12.34-.12.46-.22.56-1.8,3-2,3.61s-.56,2-.9,2.48a2.9,2.9,0,0,1-2.6,1.36c-1.13,0-1.24-.79-2.82-.79s-2.26-.57-3.73-.57c-.9,0-1.46-.22-2.48-.22a23.54,23.54,0,0,0-5.08.45c0,1.13-.11,2-.11,3.39a6.11,6.11,0,0,1-.23,2.25c-.34,0,.12,1.12.12,1.46,0,1.24.56,1,.56,2.49a14.33,14.33,0,0,0-.34,2.15c0,.56.23.79.23,1.13s-.12.56-.46.56c1,1.44-.31,1.44.25,1.44.79,0-.68,2.29.11,2.29.56,0,.21.68.21.9,0,.68.2,1.44.2,2.23,0,.33-.43,2.29.14,2.29.79,0-3.05-1-1.7-1,1.13,0,1.7.45,1.7,1,0,1.13-.57,2.93-.57,4.74a8.69,8.69,0,0,0,.68,2.6c.68,1.8,2.82,2,5,2a30.26,30.26,0,0,1,6.32.56c.9,0,.68-.56,2.37-.56,2.71,0,4.74-2,6.55-2,1.24,0,3.39-3.17,4.86-3.85a1.27,1.27,0,0,1,.57-.11c.56,0,.78,1.7.78,2.15,0,.68-1.24,2.82-1.7,5.31-.11.45-.45,2.37-.45,2.7,0,.57.25,1.92.25,2.26a1.48,1.48,0,0,1-.11.68.62.62,0,0,1-.46.23c-.9,0-2-1.81-6.34-1.81-1,0-1.8-1-1.92-1-.34,0-.45,1-1.58,1H193c-1.92,0-3.27.11-5.87.11-3.84,0-3.61-.68-5.3-.68-1.24,0-3.28-.67-4.63-.79-.79.12-4.4,1.36-6.78,1.36h-1.91A1.52,1.52,0,0,1,167,208c0-1.24,1.58-4.18,1.58-6.21a4.39,4.39,0,0,1,1.17-3.31c.57,0-.42-.84.26-.84.23,0-.57-.88-.57-.88,0-1.13.27.85.27-3.44a15.25,15.25,0,0,1,.22-1.92,22.7,22.7,0,0,0-.67-3.84v-2.82c0-.56.22-2.26.22-3.38,0-1.36.11-4.86.11-7-2.25.56-2.37,1-3,1-.91,0-1.58-.34-1.58-1,0-1.7,3.83-4.07,5.53-5C169.26,168.46,169,166.31,169,165.52Z"/><path d="M222.52,210.19a1.51,1.51,0,0,1-1.47-1.57c0-1.25,3.39-4.83,3.39-6.86a5.17,5.17,0,0,1,1.07-2.91c-.38-1.91.06-1.27.06-5.55a14.62,14.62,0,0,1,.23-1.92,22,22,0,0,0-.68-3.83v-2.82c0-.56.22-2.25.22-3.38,0-1.35-.22-2.14-.22-4.29s.11-4.17.22-5.77c.08-1.18.31-1.35.28-2-.07-1.35-.73-2.93-.73-3.72,0-.56.12-1.24.12-2.14,0-4.62.9-4.85.9-5.86a22.25,22.25,0,0,0-.57-2.93c0-2-.22-2.71-.22-4.17,0-.57.11-1.36.11-2,0-5.3-4.18-7.94-4.18-9.18s.24-2.07,1.25-2c9.08.74,8.49,2.16,9.62,2.58,1,.34,5.71-1.57,6.84-1.57a2.6,2.6,0,0,1,1,.23,23.36,23.36,0,0,1,6.08-1.24c3.72,0,13.31.45,12.74.45,5.19,0,12.36,1.05,14.73,5.56.3-.3.61.52,1.85,2a.72.72,0,0,1,.67.68,4.63,4.63,0,0,0,.76,1.85,7.36,7.36,0,0,1,1.61,5c0,2.37-1.35,2.37-1.35,3.05,0,.45.79.9.79,1.58,0,.45.46.65-.22,1.33-.34.22-.73.43-.26,1.45a1.34,1.34,0,0,1,0,1.16c-2,3.72-2.71,5.75-5.41,7.78-.68.45-2.37.45-2.94.79a21.21,21.21,0,0,0-1.35,1.81c-.45.33-1.46.22-1.92.45a23.37,23.37,0,0,1-8,1.58.49.49,0,0,0-.34.11s10.26,3.83,10.26,6.31a8.68,8.68,0,0,0,1.24,1.47c.34,0,1.69,2.59,1.69,3.27,0,1.46.48-.21.48,1.48l.28.38c.45-.34-.19,1.74.82,1.63a2.51,2.51,0,0,1,.68,1.13c.9.9,1.13,3.27,1.13,3.38,0,.68.63,1,.63,2,0,.56.72.67.72.89.56,1.24-.12,2.6,1.58,4.17,1.24,1,.33,2.48,2.93,3.73,1,.56,2.48,2.48,5.52,2.48.57,0,2.29-.48,2.29.65s-.75,1.4-2.39,2.08a13.06,13.06,0,0,1-3.84.76c-1.47,0-3.27-.11-5-.23-6.09-.22-8.23-1.24-11.17-3.83-.33-.22-.33-.56-.33-.9s.11-.45.11-1c0-.34-.92-.25-1-.47s-1.34-1.11-1.45-1.45a31.63,31.63,0,0,0-1.92-4c0-.45-1.13-2.37-1.13-3.38,0-.34-2.25-2.71-2.25-4.17,0-.34-.26-1.43-.26-1.54,0-1.13-1-1.17-1.32-2.18s-2-2.82-2-4.06a4.45,4.45,0,0,1,.23-1.24c.34-.45-.69,1-.69.75,0-.79-1.46-1.65-2.13-2.89-1.81-2.93-3.61-3.39-6.43-3.39-1.13,0-3.72,0-3.72,1.13a28.31,28.31,0,0,1-.34,5.36c0,.34-1.35.84-.56.84.11,0,.34-.11.45-.11s.23.11.23.34-.23,2.37-.23,2.7a7.5,7.5,0,0,0,.45,1.47c0,.56-.45,1.47-.45,2a5.2,5.2,0,0,1,.23,2c0,.9.51,1.5-.5,2.07-.12.11-.14.76.27,2a19.77,19.77,0,0,1,.79,2.48c.45,6.76,3.49,8.09,3.49,10.57,0,.79-1.23.9-2.7.9-1.69,0-7.78-1.1-9-1.1S226.58,210.19,222.52,210.19Zm21.32-39.1a16.22,16.22,0,0,0,3.15-.23c.23,0,1.24.12,2,.12,1.13,0,1.92-.68,2.93-.91,5.19,0,8.23-3.94,10.15-8.68.56-1.24.23-2.25.79-3.49.34-.79-.22-.32.35-1.93a13,13,0,0,1,.1-3.26,9.29,9.29,0,0,0-2.82-6.76c-3.38-3.39-5.19-3.72-11-3.72-2.93,0-8.45.22-8.45,2.59,0,3.61-.91,3.61-.91,5.07,0,.45.57.79.57,1.36,0,.33-1.47,4.05-.11,4.05.45,0,.45.79.45,1.13,0,1.69-.61,2-.39,2.66a7.38,7.38,0,0,1,.27,3v1.69c0,2.48-.11,4.17-.11,6.31,0,.12.34.46.45.57A5.53,5.53,0,0,0,243.84,171.09Z"/><path d="M423,207.05c-.9-.57-4.12-1.92-4.46-3.05-.79-2.94-1.58-2.26-2.59-4.41-.57-1.13-.68-2.14-1.25-2.14-1.13,0,.32-.84-.69-.84-.23,0,.19-1.47-.76-1.11s-.13-.76-.13-1.33-.22-1.58-.79-1.58c-1,0-1.9.15-.89-.35s-.76-1-.76-1.18c0-.68-.15-1.18-.15-2a4.91,4.91,0,0,0-.77-2,1.14,1.14,0,0,1-.63.23,7.2,7.2,0,0,0-1.89.66,19.8,19.8,0,0,1-2.36.79c-.78.2-1.49.58-2.28.74s-1.59.42-2.4.55a33.66,33.66,0,0,1-5.31.23h-1.09a.09.09,0,0,1,0,.05,7.59,7.59,0,0,0,1.36,2.48c0,1.47,1.35,4.29,1.35,4.63s.1-.07.93,1.4c.22.11,1,.1.47.68s.07,1.76.07,2.77.45,2.38.45,3.39c-.22,1.47-1.85,1.92-2.08,2.6,0,.68.34,1.24.91,1.24,2.25,0,10-1.13,11.56-1.13a3.77,3.77,0,0,0,2,.34c1,0,2.15-.11,2.94-.11h.57c1.24.11,5.47.9,6.49.9.68,0,3.05,0,3.05-1A2,2,0,0,0,423,207.05Z"/><path d="M397.55,187.93a11.41,11.41,0,0,0,2.41-.16c.82-.18,1.66-.35,2.46-.58s1.44-.55,2.2-.72c1.42-.32,2.73-1.22,4.19-1.41.23-.13.55-.34,1.1-.71s2.71-2.6,2.82-3.84a.87.87,0,0,0-.9-.79c-1.24,0-2.82,1.36-4.63,1.36a.51.51,0,0,1-.32-.1c-1.66.11-3.31.43-5,.57a38.78,38.78,0,0,1-5.17.13,18.78,18.78,0,0,1-5.16-.87c-.45-.15-.89-.32-1.34-.49l.14.3c-.34,0-2.94-1.12-3.28-1.12-.67,0-1-1-3.72-1.92a10.67,10.67,0,0,0-1.81-.23c-.45,0-.79.11-1,.11s0-.11-.11-.22a22.5,22.5,0,0,0-6.66-3.05c.68-1.92.79-1,.79-2.71s.79-1.47.79-3.16,1.69-3.39,2.71-7.8a9.64,9.64,0,0,1,1.35-3.61,7.75,7.75,0,0,1,1.59,2.6,22.43,22.43,0,0,0,1.8,3.27,2.19,2.19,0,0,1,.34.91c0,.34-.45.45-.45.67a1.81,1.81,0,0,0,.45,1,1.23,1.23,0,0,0,1,.45c1,0,.65,1,1.21,1a18.05,18.05,0,0,1,.37,2.73c.34,1.81,2.37,4.4,2.37,5.64a8.25,8.25,0,0,0,.8,2.25,11.78,11.78,0,0,1,1.19.38c.74.32,1.5.59,2.27.84a17.19,17.19,0,0,0,4.77.73,39.41,39.41,0,0,0,5-.16c1.53-.14,3.05-.42,4.58-.54-.3-.78-1-2.5-2-5.08a19.88,19.88,0,0,0-1.92-4.06c-.45-.79-.79-1-1.24-1l-.79-3.24c-.23,0-1.47,2.56-1.47,2.23,0-1.36.68-1.47.68-2.71,0-.46.11-1,.11-1.7a3.42,3.42,0,0,0-.57-2,29.64,29.64,0,0,1-2.14-4.18,1.37,1.37,0,0,0-1.47-1l-.21-1.57c-.23,0-.81,1.45-.92,1.34s.9-1.69.9-1.92v-.34a14.31,14.31,0,0,0-1.8-3,22.92,22.92,0,0,0-1.13-2.37c-1.24-2.6-1.69-2-1.81-2.58,0-.91.23-.69.23-1.71,0-.11-.91-.9-1-1.13-1.24-2.6-1.24-2.82-2.6-4.52a5.19,5.19,0,0,0-2.93-2.14c-1.92,0-4.07,3.27-4.63,6-1.36,2.94-3.61,9-3.61,9-.46,1.24-.68,3.5-1.47,5.08a1.49,1.49,0,0,0-.23.68c0,.9-.44,1.71-.44,2.5,0,.11,1.12.21,1.12.32-.57.79-2.49.9-2.71,1.58-.68,1.81-1.69,4.52-1.69,6.32,0,.68-1,1.13-1.25,1.7a9,9,0,0,0-1,3.5c-1.92,0-3.73.22-4.86.22-3.95,0-6.89,2.83-6.89,3.73,0,.68-.55,1.29-.55,1.51-.23,1.13-.58.3-1.59,1.43A8.63,8.63,0,0,0,353,183c0,.79.34,1.12.79,1.12.23,0,1.36-.9,2.37-1.46,1.25-.91,4.63-1.47,5.88-1.47,2.37,0,2.48.34,2.48,1-.34,1.35-1.81,3.38-2.15,4.62,0,.79-.79,2.38-2.14,6a18.58,18.58,0,0,0-.57,3.27c-.79,1.58-1.46,1.47-1.58,2a45.32,45.32,0,0,1-2.82,6.32l-1.57,1.75c-2.45-.32-3.73-1.91-4.64-2.41-2.59-1.25-1.69-2.71-2.93-3.73-1.69-1.57-1-2.93-1.58-4.17,0-.22-.72-.33-.72-.89,0-1-.63-1.36-.63-2,0-.11-.23-2.48-1.13-3.38a2.35,2.35,0,0,0-.68-1.13c-1,.11-.37-2-.82-1.63l-.27-.38c0-1.69-.49,0-.49-1.48,0-.68-1.35-3.27-1.69-3.27a8.68,8.68,0,0,1-1.24-1.47c0-2.48-10.26-6.31-10.26-6.31a.53.53,0,0,1,.34-.11,23.48,23.48,0,0,0,8-1.58c.45-.23,1.46-.12,1.91-.45a19.44,19.44,0,0,1,1.36-1.81c.56-.34,2.25-.34,2.93-.79,2.7-2,3.38-4.06,5.41-7.78a1.34,1.34,0,0,0,0-1.16c-.46-1-.08-1.23.26-1.45.68-.68.22-.88.22-1.33,0-.68-.79-1.13-.79-1.58,0-.68,1.35-.68,1.35-3.05a7.31,7.31,0,0,0-1.61-5,4.59,4.59,0,0,1-.75-1.85.73.73,0,0,0-.68-.68c-1.24-1.47-1.55-2.29-1.85-2-2.36-4.51-9.54-5.56-14.72-5.56.56,0-9-.45-12.74-.45a23.36,23.36,0,0,0-6.09,1.24,2.56,2.56,0,0,0-1-.23c-1.12,0-5.89,1.91-6.84,1.57-1.12-.42-.54-1.84-9.62-2.58-1-.09-1.24.86-1.24,2s4.18,3.88,4.18,9.18c0,.67-.12,1.46-.12,2,0,1.46.23,2.14.23,4.17a22.61,22.61,0,0,1,.56,2.93c0,1-.9,1.24-.9,5.86,0,.9-.11,1.58-.11,2.14,0,.79.21,2.59,1.58,3,.63.21-1,1.51-1.14,2.69-.11,1.6-.1,3.52-.22,5.77s.23,2.94.23,4.29c0,1.13-.23,2.82-.23,3.38v2.82a22,22,0,0,1,.68,3.83,14.62,14.62,0,0,0-.23,1.92c0,4.28-.46,4.39.42,5,.19.12-1.54,1.58-1.54,3.5s-3.39,5.61-3.39,6.86a1.51,1.51,0,0,0,1.46,1.57c4.06,0,9.25-1.67,10.38-1.67s7.33,1.1,9,1.1c1.47,0,2.71-.11,2.71-.9,0-2.48-3.05-3.81-3.5-10.57a19.77,19.77,0,0,0-.79-2.48c-.4-1.23-.38-1.88-.27-2,1-.57.5-1.17.5-2.07a5.2,5.2,0,0,0-.23-2c0-.56.45-1.47.45-2a7.5,7.5,0,0,1-.45-1.47c0-.33.23-2.59.23-2.7s-.12-.34-.23-.34-.34.11-.45.11c-.79,0,.57-.5.57-.84a29.14,29.14,0,0,0,.33-5.36c0-1.13,2.6-1.13,3.72-1.13,2.82,0,4.63.46,6.43,3.39.68,1.24,2.13,2.1,2.13,2.89,0,.16.49-.47.68-.73a4.91,4.91,0,0,0-.22,1.22c0,1.24,1.81,3,2,4.06s1.33,1,1.33,2.18c0,.11.25,1.2.25,1.54,0,1.46,2.26,3.83,2.26,4.17,0,1,1.12,2.93,1.12,3.38a31.63,31.63,0,0,1,1.92,4c.11.34,1.22,1.11,1.45,1.45s1,.13,1,.47c0,.56-.11.56-.11,1s0,.68.34.9c2.93,2.59,5.07,3.61,11.16,3.83,1.69.12,3.49.23,5,.23a12.19,12.19,0,0,0,2.23-.3,46,46,0,0,1,4.66-.49c1.24,0,5.34.56,6.58.56.45,0,.9-.34.9-.56,0-1.58-1.38-2.38-1.38-3.5,0-.68.33-2.49.33-2.83,0-1.24-.5-1.62-.5-2.07,0-1.13.62-.75.73-1.31.57-1.7,0-1.92.9-4.41.45-1.35,1.47-2.82,1.47-3,0-.45-.74-.32,0-1.44s.66-.93,1-1.49c.9-2.15.9-3.62,2.14-6.21,3.73,1,5.54,2.71,7.79,2.71,2.6,0,3.73,1.13,5.76,1.13.12,0,.57-.23.57-.57,0-.56.77.34,1.11.34,1.24,0,1.15.56,3.29.9.5.17,2.37.57,3.48.82,1,0,2.09,0,3.13,0S396.65,187.94,397.55,187.93Zm-76.23-17.86c-1,.23-1.81.91-2.94.91-.79,0-1.8-.12-2-.12a16.12,16.12,0,0,1-3.15.23,5.55,5.55,0,0,1-2.6-.45c-.11-.11-.45-.45-.45-.57,0-2.14.12-3.83.12-6.31v-1.69a7.39,7.39,0,0,0-.28-3c-.22-.64.39-1,.39-2.66,0-.34,0-1.13-.45-1.13-1.35,0,.11-3.72.11-4.05,0-.57-.56-.91-.56-1.36,0-1.46.9-1.46.9-5.07,0-2.37,5.52-2.59,8.46-2.59,5.86,0,7.66.33,11,3.72a9.25,9.25,0,0,1,2.82,6.76c0,.23,0,2.63,2,2.59a5.16,5.16,0,0,0-2.49,2.6c-.56,1.24-.22,2.25-.79,3.49C329.55,166.13,326.5,170.07,321.32,170.07Z"/><path d="M604.2,158.38c0,.34-.9.69-.11.69a7.09,7.09,0,0,0,1-.22c1.13,0,2,3.69,2,6.62,0,2.14.56,1.69.56,3.5a13.29,13.29,0,0,1-.11,1.91c-.11,1.47-1.46.68-1.46,1.69a6.58,6.58,0,0,0,.9.79l-.45,1.13c.45,0,.9,1.24.9,1.58,0,1.13-.83.44-.83,1.57a9.85,9.85,0,0,0-.23,1.47c0,.22.11.45.23.45.79,0-1.31.46-.86.68a2.15,2.15,0,0,1,1.35,2.14c0,.79-.34,1.81-.34,2.48-.22,1.7-1.3,1.64-1.3,2.43,0,.45-.5,1-.5,1.18,0,1.69-.68,2.71-.9,4.06-.45,2.48-3.5,3.95-3.72,5.75-.12.68-4.06,3.72-4.18,4.06-.78,1.69-5.52,5-10.82,6.65-.67.23-2.37.23-2.48.34a14.74,14.74,0,0,1-7.1,1.47c-14.21,0-12.18-2.37-14.66-2.37-.34,0-.68.22-1,.22-2,0-7-2.36-7-3.72.11-.45.33-.67.33-.79s-.22-.22-1.24-.22h-1.57c-1.36,0-4.18-4.29-5.53-5.87s-1.46-2.25-1.46-2.81v-.68c0-.9.29-2.23-.6-2.1-2.5.36,2.85-1.51,2.85-1.51a11.51,11.51,0,0,1-2.93.45c-2.59,0-3.72-5.3-3.72-6.65,0-.79.45-1.13.45-1.46,0-.68-.9-1.92-.9-2.48a10.31,10.31,0,0,0,.22-1.13c0-1.13-.22-3.05-.22-4.85,0-3.72.22-8,1.46-9.47,1.47-1.8,1.33-.18,1.33-1.3,0-.57-.34-.79-1-.79-.91,0,2.95-1.63,2.16-1.63a11.69,11.69,0,0,0-1.69.11c-.45,0-.56-.45-.56-1s.11-1.13.11-1.47a2.26,2.26,0,0,1,.79-1.92c1.47-3.15,7.44-12.29,9.25-12.29,2.59,0,2.48-1.91,3.72-2,.56-.12,1.69-.91,1.69-1.58,0-.12.22-.34.22-.45.57-1.36,1.81.11,4.4-2.15,1.58-1.46,5.75-1.57,8.23-1.57l2.48-.46h3.5c1.57,0,3,.12,3,2.15-.11.79-2,1.35-3,1.35-1.24,0-3.39.9-4.29.9-1.69,0-5.18,3.61-7.33,4.62l-.56.23c-2.26.9-.7.32-.7,1.22,0,.68-.88,1.71-.88,2.16a23.31,23.31,0,0,0-2.59,3.61c-.34.68-1.1,1-1.21,1.51.56.57.08,1.87.08,2-.68,3.27-2.37,11.05-2.59,14.32-.23,2.26-1.6,2.71-.92,2.63,3-.34-2.46,2.11-1.56,2.11,1.12,0,1.46-.57,2.25-.57.23,0,.79,1,.79,1.25,0,4.51,1.13,4.73,1.13,6.65a11.69,11.69,0,0,1-.11,1.69c0,2,.9,3.38.9,5.64,0,.78.43.6.43,2.07,0,.56,1.71.52,1.71,3.34,0,.11-.23.11-.23.45a1.14,1.14,0,0,0,.12.56c1.35,3.72,2.25,1.92,3.38,5,.79,1.92,3.16,1.36,5.52,2.15,2,.67,1.72,1.71,2.39,1.71.23,0,1.22.77,1.79.54a59.06,59.06,0,0,1,7.89-2.14c3.94-.9,5.86-4.06,6.65-4.51,2.14-1.13,1.43,1.11,1.43-.69-.11-.34-.56-.34-1-.34L589,196.7c-.68,0-1-.11-1-.45,0-1.35,2.94-6.2,2.94-7.44,0-.45,1.35-2.93,1.35-5.19,0-.33-.11-.79-.11-1.8,0-2.82.33-4.62.33-9.7,0-3.15-1.24-6.31-1.24-9.35,0-.91.79-.91.79-2s-2.14-2.26-3.38-5.64c-.79-2.71-3.49-2.93-3.49-4.51,0-.45-.89-.29-.89-.74,0-.67.34-.83-.67-.83-.34,0-.47-.35-.92-.35-1.36,0-2-.79-3.84-.79a11.93,11.93,0,0,0-7,2.15,4.55,4.55,0,0,1-2.59,1c-.45,0-1.92-1.13-1.92-2,0-1.58,3.72-3.49,4.62-3.49s2.71-1.81,3.84-1.81c1.35,0,5.18-2.14,9.58-2.14a12.33,12.33,0,0,1,8,2.93V145c0,.11.35,1,.92,1,.33,0,1.33.29,2,.29,2.93,0,3.15,1.69,4.85,3.61a16.13,16.13,0,0,1,2.81,5c.79,2,1.36.11,1.36,3.16C605.33,159.05,604.65,158.38,604.2,158.38Z"/><path d="M680.27,171.1c1.36,0,1.81.11,1.81,1.13s-3.27,2.94-3.27,5.08c0,.9-.33,3.38-.33,4.17,0,1.47-.56,2.07-.56,2.86.23,0,.56,2.1.56,3.23,0,.34-.23,1.13-.23,1.47s.11.78.11,1c0,3.16-.11,3-.11,6.2,0,1.35-.88,2.3-.88,2.86s.2,2.1.2,2.78V207c-.22,1.13-.56,2.82-1,2.82a3.79,3.79,0,0,1-2.37-1c-1.13-1-2.14-2.6-4.28-4a5.09,5.09,0,0,0-1.47-.45c-.79,0-1.58,1.13-2.48,1.13-1.35.33-.45,1.24-3.16,2.81-3,1.81-5.41,2.15-11.38,2.15-3,0-9.14,0-10-1-.56-.67-.5-.81-1.4-.81-1.69,0-6.15-.65-6.15-1.33s-3.61-2.59-4.74-2.93c-1.69-1.35-3.72-4.4-5-5.53-1.13-.79-3.94-4.51-4.06-6.76,0-.79.12-1.24.12-1.8,0-1.7-2.71-5.64-2.71-7,0-.68.85-1.13.85-1.81s-.51-.67-.51-1.24c0-1-.74-1.89.62-2.35.79-.45-.53,0-.53-1.15,0-.34-.23-.34-.34-.34-.67,0,2.84-.78,1.38-.78-.91,0-1.92-.68-1.92-3.27,0-2.14.9-3.95.9-5.53,0-3.26.79-3.49,1.24-6.42.45-3.16,4.17-5.19,4.17-8.35,0-1.8,6.09-8,10.15-10.14,2.14-1.24,6-3.16,10-3.16,1.13,0,1.82.16,2.16.16s.89-.5,1.68-1.17c1.35-1,9.24-1.24,10.82-1.24,5.86,0,10.35,3.24,14,5.86,5.94,4.28,7.11,4.91,8.62,6,.69.51.05,1.59-5.31,3.85-1,.44-3.2,5-5.56,5-1.13,0-.91-5.41-2.6-8.45-.22-.34-.38-2.21-1-2.81-.24-.23-.89-1-1.23-1-1.47,0-1.92-2.59-6.2-2.93-.68,0-2.37-.34-2.82-.34-5.86,0-5.75,1.81-6.32,1.81h-1.57c-2.15,0-2.37,2.25-4.85,2.93-1.81.56-1.13,1.24-2.48,1.24.11,0-.08.89-.08,1.57s-2,.46-1.39.46.9.34.9.9c0,1.13-3.72,4.4-3.72,7.89,0,1.35-1.61,2.83-2.11,3.43-.91,1.1-.11,1.16-.11,1.38,0,1,0,.94,0,2.63a2.22,2.22,0,0,1-.79,1.58c-.45,0-.34-.45-1.24-.45s1.67.6,1.67,1.73.7-.38.7,3.79c0,1.7-.34,2.48-.34,4.18,0,1.12.68,3.72.68,5.41,0,0,0,3.83-1.58,3.83,0,.68,1.19-.5,1.19-.05,0,1.12,1.85,1.63,2.08,5.8,0,.68-.12,1.24-.12,1.58,0,0,4.18,3.83,4.85,6.09-.22.34,1,.73,1,1.29,0,.23-2.74.62-1,.62.79,0,1.13-.22,1.58-.22,1.92,0,2.37,2.25,4.4,2.71,1.58.45,3,1.12,4.51,1.69.34.22,1.91-.57,2.82-.57,1.91,0,4.28-.34,5.52-1.91s3.16-2.26,3.95-4.06c1.12-1,1.38-.55,1.38-1.45,0-.57,1.32-1,1.21-1-.34,0-.68.11-.9.11-.45,0-.68-1-.68-1s.11-4.17.11-5.52a22.69,22.69,0,0,1-.33-2.48,4.16,4.16,0,0,1,.22-1.24,10.24,10.24,0,0,0,.26-3c0-.67-.22-.9-.33-.9-.34,0,.3-1.18-.27-1.18-.22,0-.34-.34-.34-.45,0-.91.34-1.58.34-2.49s-.67-1.69-.67-2.48c0-1.91-3.51-2.54-3.51-3.66,0-.57.23-1,2.15-1,.9,0,6,1,8.91,1S679.15,171.1,680.27,171.1Z"/><path d="M749,207.41c0,.79.11,2,.11,3.16,0,1.35-.11,2.59-1,2.59-1.35,0-3.05-1.24-4.62-2.7a48.93,48.93,0,0,1-4.4-4.29c-1.69-1.8-5.53-4.85-5.53-6.42,0-.79-.78-1.68-1.23-1.68-1,0-.46-.35-1.7-.35-.34,0-1-1-1-1.13a29.57,29.57,0,0,0-2.48-4.62c-1.81,0-5.75-4.85-7-6.88a2.49,2.49,0,0,1-1.69-2c0-.45.95-1.64.16-1.75l-1.18-.73c-1,0-1.92-.45-2-.9,0,0-1.31-1-1.31-1.44,0-1.46-1.17-1-1.28-1.16a17,17,0,0,1-1.24-1.57c-1.35-1.36-3.27-2.82-3.27-3.61,0-.57,0-1.07,0-1.41s-.23-.56-.57-.56c-.67,0-.18-.17-1.08-.17a1,1,0,0,1-.9-.46c-3.39-3.6-5.19-6.31-6.09-7.1a7.49,7.49,0,0,1,0,2.93c0,.68-.56-.1-.56.68a2.88,2.88,0,0,1-.12.9c.45.11.9.23.9,3.61,0,.9-.41,1.28-.41,1.73a10,10,0,0,1,.3,2.67c.11,5.41-.75,4.47-.75,6.27,0,1.13.75,0,.75.72.11,3.94-.46,2.94-.46,4.07.22,1.13.8,1.9.8,2.69,0,1.24.56,3.95.34,6-.12,1.24.11,3.27.11,5,0,1.46-.57,1-.57,2.06,0,1.24,1,.87,1.13,1.77.12.11-.11,1-.11,1.13.56,1.69,2.44,3,2.44,4,0,.56,0,1-1.36,1a49.72,49.72,0,0,0-6.83-1.09c-1.13,0-3.47.79-4.82.79-.57,0-1.13,0-1.13-.79s2.68-4.5,2.68-6.08c.34-1.24,1.17-2.33,1.17-2.67a9.17,9.17,0,0,1-.49-3.42c0-3.5.79-3.95.79-6.09,0-1.47-.45-4.17-.45-5.07,0-1.24.45-2.71.45-3.84,0-3.49-.12-3.49-.12-4.84,0-1,.12-3.27.12-5.08,0-5.3.56-5.86.56-10.6,0-.67-.56-1.24-.56-2.25,0-3.38.56-1.35.56-4a2.36,2.36,0,0,1,.87-1.86c0-1.24,0-1.52-.64-2.2a4.68,4.68,0,0,1-.34-2.36c0-2.48.34-6.43.34-8.91,0-1.58.33-3.72,1.57-3.72s4.74,1.92,6.21,4.06c.67,1-.32.51.36,1.41a.85.85,0,0,0,.56.22c.45,0,1.89,2.09,2.34,2.09a.87.87,0,0,1,.57.22c3.38,3.84,4.06,4.85,4.06,5.08a3,3,0,0,1,.67,1.58,2.19,2.19,0,0,1-1.69,1.57c-1.69,0,0-2,0-1.7s.9.91,2,.91a2.39,2.39,0,0,0,1.24-.23c1,0-.37,1.93.87,1.93.34,0,.34,2.25.34,2.93,0,.22.23.34.57.34s.9-.12,1.24-.12c1.35,0,4.73,4.29,5.41,5.08.79,1,4.06,3.27,4.62,5.3.45,2.59,1.92,1.46,5.19,5.86,2.59,3.38,3.15,3,3.61,4.51a19.18,19.18,0,0,1,1.35,1.8c0,1.13-.73.07-.73.29,0,.45.45.68,1.24.68.34,0-.17,2.53.28,2.41.22,0,.56-.9.79-.9,1.35,0,3,1.24,5.75,5.19a1.33,1.33,0,0,0,.56-1.24c0-.79-.34-1.69-.34-2.37s.11-1.24.11-1.8c0-1.81-.22-2.82-.22-4.17,0-1.13-.23-2,.22-2.6.34-.34.19-1.2.19-1.77,0-1.12-.3-2.17-.3-5,0-1,.5-1.9.5-2.81a10.18,10.18,0,0,0-.61-2.27c0-1.91.34-5.41.34-6s.59-.63.59-1.53-.59-.28-.59-1.74c0-1-.23-1.24-.23-3.61a27.62,27.62,0,0,1-.34-3.49c-.22-3.72-3.52-5.4-3.52-6.53a.8.8,0,0,1,.9-.79c.11,0,.34.12.45.12a33,33,0,0,0,4.54.77c.68,0,6.74-.75,7.41-.75.34,0,1,0,1,.79s-2.23,2.33-2.68,4.36a19.55,19.55,0,0,0-.79,4.06c0,.56-.94,1.89-.94,2.34,0,.79,1,.81,1,1.6,0,3.16-.33,7-.45,7.89s-.6,2.76-.6,3a18.89,18.89,0,0,1,.6,5v7.78a15.4,15.4,0,0,1-.53,2.66c0,1.12.31,1.28.31,2.75s-.34,5-.34,5.75c0,1.58.11,1.58.11,3a13,13,0,0,0-.12,3.15c.38,2.29-1.79,1.7-1.34,1.7a1.47,1.47,0,0,1,1.46,1.35c0,.23.23,4.63.23,7.78a9.67,9.67,0,0,1-.23,3.16C749,206.62,749,207,749,207.41Z"/><path d="M763.3,210.39h-1.92a1.52,1.52,0,0,1-1.47-1.58c0-1.24,3-5,3-7a5.39,5.39,0,0,1,1.4-3.67c.57,0-.27-.5-.27-4.78a14.37,14.37,0,0,1,.23-1.92,22,22,0,0,0-.68-3.83v-2.82c0-.57.22-2.26.22-3.38,0-1.36-.22-2.15-.22-4.29s-.11-4.73.9-6,.11,0,.11-1.09c0-.22-.34-.34-.57-.34s1.36-1.05.91-1.05c-1.35,0-1.58-2.26-1.58-3,0-.56.12-1.24.12-2.14,0-4.62.9-4.85.9-5.86a22.25,22.25,0,0,0-.57-2.93c0-2-.22-2.71-.22-4.18,0-.56.11-1.35.11-2,0-5.3-4-8.15-4-9.39s1.24-1.35,2.25-1.35c1.8,0,4.65,1.16,6.23,1.16.34,0,3.44.95,4,.95.11,0,.22-.12.33-.23a18.47,18.47,0,0,1,8.62-1.88c.68,0,2.37,0,2.37,1.57,0,.23-1.46,3-2.81,3-.68,0-.64,2.39-1.32,2.39-1.46,0,.58.25.58,1.26,0,.79-.58,0-.58,1.44,0,.12.23.68.57.68l-2.47.48c1.57,0,2.59.11,2.59.9,0,.45-.45,1.35-.45,2a13.86,13.86,0,0,0,.67,3.27,6,6,0,0,0-.8,2.58c0,.22.11.33.45.33s-1.11,1.83-.66,1.83c.68,0,.68,2.14.68,2.47a11.92,11.92,0,0,1-.34,2.26c0,.56.56,2.14.56,2.59,0,1.58-.64,2.47-.64,3.25,0,1.58.53,1.15.53,3.52,0,2.81-.68,3.38-.68,4.17,0,1.35.68,2.25.68,3,0-.34-.45,2.59-1.69,2.59-.11,0,1.58.78,1.47.78-.9,0-.91,1.59-.34,1.59a.76.76,0,0,1,.78.79c0,2-1.69,2.71-.91,2.71s-.66.56-.33.56c1.13,0,1.24,1.81,1.24,4.85-.22,2.48-1.35,2.37-1.35,3.38,0,.79,1.24,2,1.35,3.16,0,2.7,3,5,3.26,5.65a3.91,3.91,0,0,1,.45,1.69c0,1.24-1.92,1.35-3.61,1.35a42.53,42.53,0,0,1-8.2-1.25C770.5,208.66,765.44,210.39,763.3,210.39Z"/><path d="M911.81,207.07c-.9-.56-4.12-1.92-4.46-3-.79-2.93-1.58-2.26-2.6-4.4-.56-1.13-.68-2.15-1.24-2.15-1.13,0,.32-.83-.7-.83-.22,0,.2-1.48-.76-1.11s-.12-.77-.12-1.33-.23-1.58-.79-1.58c-1,0-1.91.14-.89-.36s-.77-.95-.77-1.18c0-.68-.15-1.17-.15-2a4.77,4.77,0,0,0-.77-2,1.1,1.1,0,0,1-.62.22,7.42,7.42,0,0,0-1.9.67,19.6,19.6,0,0,1-2.35.78c-.78.21-1.5.58-2.29.75s-1.59.42-2.4.55a34.79,34.79,0,0,1-5.31.22h-1.08s0,0,0,.05a7.26,7.26,0,0,0,1.36,2.48c0,1.47,1.35,4.29,1.35,4.63s.1-.07.92,1.41c.23.11,1,.1.47.67s.08,1.76.08,2.78.45,2.37.45,3.39c-.23,1.46-1.86,1.91-2.08,2.59,0,.68.34,1.24.9,1.24,2.26,0,10-1.12,11.57-1.12a3.85,3.85,0,0,0,2,.33c1,0,2.15-.11,2.94-.11h.56c1.24.11,5.48.9,6.49.9.68,0,3.05,0,3.05-1A2.06,2.06,0,0,0,911.81,207.07Z"/><path d="M886.4,188a13,13,0,0,0,2.42-.16c.81-.18,1.66-.35,2.46-.59s1.43-.54,2.19-.71c1.43-.33,2.74-1.23,4.2-1.41.22-.13.55-.35,1.1-.72s2.71-2.59,2.82-3.83a.87.87,0,0,0-.9-.8c-1.25,0-2.83,1.36-4.63,1.36a.54.54,0,0,1-.33-.1c-1.66.11-3.31.43-5,.58a40.73,40.73,0,0,1-5.18.12,18.77,18.77,0,0,1-5.15-.86c-.45-.16-.9-.32-1.34-.5l.13.31c-.34,0-2.93-1.13-3.27-1.13-.68,0-1-1-3.73-1.92a11.64,11.64,0,0,0-1.81-.23c-.45,0-.79.12-1,.12s0-.12-.11-.23a22.37,22.37,0,0,0-6.67-3c.68-1.92.79-1,.79-2.71s.79-1.47.79-3.16,1.7-3.39,2.71-7.79a9.65,9.65,0,0,1,1.36-3.61,7.53,7.53,0,0,1,1.58,2.59,21.66,21.66,0,0,0,1.81,3.28,2.32,2.32,0,0,1,.34.9c0,.34-.46.45-.46.68a1.86,1.86,0,0,0,.46,1,1.21,1.21,0,0,0,1,.46c1,0,.65,1,1.22,1a16.93,16.93,0,0,1,.36,2.73c.34,1.81,2.37,4.41,2.37,5.65a8.72,8.72,0,0,0,.8,2.24,12,12,0,0,1,1.2.38c.74.32,1.5.59,2.27.84a17.08,17.08,0,0,0,4.77.74,41.2,41.2,0,0,0,5-.16c1.53-.15,3.06-.43,4.59-.54-.31-.78-1.05-2.51-2-5.08a19.25,19.25,0,0,0-1.92-4.07c-.45-.79-.79-1-1.24-1l-.79-3.25c-.22,0-1.47,2.57-1.47,2.23,0-1.36.68-1.47.68-2.71,0-.45.11-1,.11-1.69a3.51,3.51,0,0,0-.56-2,29.14,29.14,0,0,1-2.15-4.17,1.36,1.36,0,0,0-1.46-1l-.22-1.57c-.22,0-.8,1.46-.91,1.34s.9-1.69.9-1.92v-.2h0v-.13a14.32,14.32,0,0,0-1.81-3A20.28,20.28,0,0,0,881.6,148c-1.24-2.59-1.69-2-1.8-2.58,0-.9.22-.69.22-1.71,0-.11-.9-.9-1-1.13-1.25-2.59-1.25-2.82-2.6-4.51a5.18,5.18,0,0,0-2.94-2.15c-1.92,0-4.06,3.28-4.63,6-1.35,2.93-3.61,9-3.61,9-.45,1.24-.68,3.5-1.47,5.08a1.64,1.64,0,0,0-.22.68c0,.9-.44,1.71-.44,2.5,0,.11,1.11.21,1.11.32-.56.79-2.48.91-2.71,1.58-.67,1.81-1.69,4.52-1.69,6.33,0,.67-1,1.13-1.24,1.69a9,9,0,0,0-1,3.5c-1.92,0-3.72.23-4.85.23-4,0-6.89,2.82-6.89,3.72,0,.68-.56,1.29-.56,1.52-.22,1.13-.57.29-1.59,1.42a8.6,8.6,0,0,0-1.8,3.5c0,.79.34,1.13.79,1.13.22,0,1.35-.91,2.37-1.47,1.24-.9,4.63-1.47,5.87-1.47,2.37,0,2.48.34,2.48,1-.33,1.35-1.8,3.39-2.14,4.63,0,.79-.79,2.37-2.15,6a17.89,17.89,0,0,0-.56,3.28c-.79,1.58-1.47,1.47-1.58,2a46.32,46.32,0,0,1-2.83,6.32l-3.42,3.84a1.67,1.67,0,0,0-.23.68.51.51,0,0,0,.46.56c.9,0,3.65-.56,5.45-.56,1.25,0,5.34.56,6.59.56.45,0,.9-.33.9-.56,0-1.58-1.39-2.37-1.39-3.5,0-.68.34-2.48.34-2.82,0-1.25-.51-1.62-.51-2.08,0-1.12.62-.75.74-1.31.56-1.69,0-1.92.9-4.4.45-1.36,1.47-2.83,1.47-3,0-.45-.75-.32,0-1.44s.65-.93,1-1.5c.91-2.14.91-3.61,2.15-6.21,3.73,1,5.53,2.71,7.79,2.71,2.6,0,3.73,1.13,5.76,1.13.11,0,.56-.23.56-.57,0-.56.77.34,1.11.34,1.24,0,1.15.57,3.3.91.49.16,2.36.57,3.47.82h3.13C884.6,188,885.5,188,886.4,188Z"/><path d="M812.56,209.35l-4.46.5a.71.71,0,0,1-.79-.79,4.16,4.16,0,0,1,.45-1.46c1-1.69,3.22-3.89,3.22-5.92,0-.57.45-2,.45-3.05,0-1.35,1.35-1.35,1.35-2.37-.11-.11-1.47-1-1.47-1.91,0-2.15,1.89-2.37,1-2.37-.34,0-.45-.11-.68-.11-.56,0,.82-2,.37-2-.68,0-1-1.69-1-2.25,0-.23.56-7.33.56-9.36,0-.34.6-.67.6-1.69a14,14,0,0,1-1.16-6.21c0-1.24.22-1.69.56-1.69s.36-.17.92-.17c.34,0-.58-.5-.58-.62,0-.78.56-.11.56-.9-.67-1.81-1.24-2.48-1.24-5.19,0-3.83.89-3.61.89-5.07a9,9,0,0,1-.66-2.6,15.29,15.29,0,0,1,.22-3.27c0-.11.68-.34.68-.45,0-.56-.9-.79-.9-2.37,0-3.27-.91-3.83-5.53-3.83-1.69,0-4.28.22-5,.11-1-.11-1-1.13-1.81-1.13s-.56,2.15-1.58,2.48c-1.91.79-5.07,3.84-6.2,3.84s-1.35-.9-1.35-1.81a31.84,31.84,0,0,1,1.24-4.39c0-2-1-4.5-1-5.4a1.13,1.13,0,0,1,1.12-1.13c1.36,0,5.29,2.47,7.1,2.47a18.23,18.23,0,0,1,4.4-.57c.33,0,.45,0,.45.11s-.23.57-.23.68a5.83,5.83,0,0,1,1-.29,35.61,35.61,0,0,1,7.33-.72,79.94,79.94,0,0,1,8.57.79c.9,0,4.4-.34,6-.46,1,0,2.82.12,4.39.12,1.81,0,4.74-.34,8.91-.34,1.24.11,2.71.22,4.4.22,2,0,3.05-2.38,4.85-2.38,1,0,1,.56,1,1s-1,4.31-1,5.66c0,.23,1.24,4.51,1.24,4.74a1.44,1.44,0,0,1-1.35,1.35c-1.47,0-2-1.8-6.43-3.83-.79-.34-5.64-.68-6.09-1.13a1.35,1.35,0,0,0-1.71,0c-.22,0-.21-1.24-.43-1-1.69,1.69-4,1.24-5.08,1.69a29.2,29.2,0,0,0-1.24,4.4c0,.34.11.45.11.79s-.45,1.36-.9,1.36c-.22,0-.45-.23-.79-.23s.95.8.95,1.25c0,1.24,1-1.36,1,4.28a11,11,0,0,1-.23,2.25c-.56,1.81-.95,1.42-.95,2.78,0,.11-.18,1.3.16,1.3,1.46,0-.68,1.53,0,1.53s.46,1.3.46,1.64c0,1-.72.91-.72,1.92.33.57,1-.48,1,3.91,0,3.39-.19,6.37-1.35,8,.74.6,1,1.81,1,5.3a33.29,33.29,0,0,1-.34,4.18c0,.67.56,1.35.56,1.8,0,.9-.34,1.8-.34,4.17,0,4.74-.46,2.94-.55,4.4,0,.57-.25.16-.11,1.13.13.81,1.11,0,1.11.9,0,3.95,4.09,5.25,4.09,6.6s-1.13,1.35-2.37,1.35l-3.41-.28c-2-.11-4.85-1.31-6.31-1.31C818.42,208.26,815.26,209.35,812.56,209.35Z"/><path d="M471.24,176.91c0,.28,0,.56-.28.7-1.12,1,0,.53,0,1.23,0,.14.14.27.7.27.84,0-.4,1.57.3,1.57,1.25,0,1.81,1.67,1.81,1.81,0,.7.13,1.18.13,3.69,0,.7.14.84.56.84,1.81,0-1.38,1.89-.83,1.89,1.4,0,2.38,1.12,2.38,3.77a11,11,0,0,0,2.65,7.82c2.23,2.79,2.23,3.07,2.23,4.05,0,.42-.7.84-.7,1.26,0,0,4.47,1.67,5.87,3.35,1.67,2.09,6.56,5.16,12.28,5.16a16.19,16.19,0,0,0,2.38-.14c2.09,0,1.5.91,4.29.91,1.68,0,5.06-1.47,7.29-1.89,9.22-1.81,14-9.07,15.92-12.28a2.36,2.36,0,0,0,1.11-1.68c1.12-1.81,2-3.63,3.63-3.63,1.12,0,1.68.7,1.68,2a9.42,9.42,0,0,1-.28,1.81l-.28,1c-1,3.49-.17,3.57-.17,6.5,0,.56-.27,4.22-.13,4.77.14.7.34,5.76.34,6.32,0,1.68-.14,2.65-3.07,2.65-3.21,0-4.27-1.89-8.18-1.33a41,41,0,0,1-6.38.63c-1.67-.14-1.77-.41-2.89-.41-.56.14-1,1-1.44,1.11-1.67.7-5.72,1.12-8.65,1.12-4.19,0-8-.42-10.47-.56-4.61-.42-4.33-2.23-8.24-2.51-3.49-.28-7-2.1-8.23-2.1-1.54,0-9.5-4-9.5-5.86,0-.28-1.27-.6-1.27-1,0-.7-.54-.79-1-.79s-1.26,0-1.26-1.4-4.05-3.07-5.72-5.16c-1.4-1.82-4.33-6.57-4.33-9.22,0-1-.27-1.42-.27-2.4a2.61,2.61,0,0,0-1.12-2.06c-1.54-1.54-2.38-9.22-2.24-9.08s-.6-1.81-.32-1.81c.13,0-.79-1.4-.79-2,0-.84-.42-4.33-.42-9.63,0-5.86,2.23-5.86,2.23-6.42a43.45,43.45,0,0,1-.42-4.61c0-1.12,2.65-10.47,2.93-11.45-.14.42,1.39-1.41,1.39-1.55a16.38,16.38,0,0,1,.85-2.08c0-1.53,2.37-6,4.6-7,3.21-1,.8,1.24.8-1.27,0-.14,2.55-2.78,2.55-2.92,0-1.12,1.26-1.54,2-2.93,2.09-3.77,9.77-6.15,10.47-7.82s3.49-1.54,5-2.24c2.52-.83,6.15-3.07,12-4.18a57.1,57.1,0,0,1,10.33-.84c11.17,0,19,3.35,21.64,5.58,4.32,3.77,15.31,6.35,10.41,11.06,0,0-2.32.61-2.8,1.56-.37.75-2.65,2.32-5,5.35-1.51,1.92-1.88,3.95-3.41,3.95s-2.37-1.12-2.37-2.79c0-2.93-.84-8-.84-9.08,0-1.67-.28-1.49-.28-2.88,0-1-1.26-1.86-2-2.28-2.09-1.54-4.88-4-7.53-4-.7,0-1.4.14-2,.14-3.21,0-5.44-1-6.56-1-.28,0-1.12,0-8,2.52-4.18,1.67-3.35,2.51-6,3.9-2.37,1.4-3.21,2.52-4.74,2.52-.7,0,.54,1.77-.71,1.77-1,0-2.22-.43-2.22,0,0,0,1.25.28,1.67.42,2.38.84.28,1.45.28,2.56a3.69,3.69,0,0,1-1.26,2.24c-1.81,1.53-2.09,7.81-3.49,8.09s-1.61-.31-1.61.53c0,.42.55.42.83.42,1.68,0-1,2.54-1,4.22,0,.84-1.12,2.79-1.26,5s-2.09,6-2.09,8.24c0,2-1.07,1.71-1.07,3.1,0,.28-.75,1.09-.61,1.37a7.64,7.64,0,0,1,.42,2.23,17,17,0,0,1-.28,2.51c-.14,1.54-.42,6.71-.56,6.57A11.18,11.18,0,0,1,471.24,176.91Zm-13.54-.14a28.6,28.6,0,0,0,1,3.49c.42,4.05.14,6,1.25,8.51s1.12,3.91,2.24,7,1.25,4.33,3.21,5.87,2.37,3.49,5.44,6.28a24.61,24.61,0,0,0,8.1,4.75,3.35,3.35,0,0,0,1.53.27,17.8,17.8,0,0,0,1.82-.27c.56,0-4.33-2.66-6.56-5.17s-3.63-2.09-4.19-3.49a23,23,0,0,0-3.07-4.89,6.32,6.32,0,0,1-1.4-2.23c-1.39-2.79-.42-2.37-2.09-5.16s-.84-5.87-1.68-8.66l-.55-1.53a14.33,14.33,0,0,1-.28-4.05c0-2.52-.53-5,.52-7.6-1.27-6.65,1.85-7.48,1.15-7.48-.28,0-.42-.28-.42-.7s.14-.7.14-1.53a6.29,6.29,0,0,1-.42-2.52c0-2.23.56-5,1-5,.84,0,1.54-2.1,1.82-5.45.28-3.62,1.67-4.74,2.79-7s1.53-4.18,3.21-8.23c1.53-3.63,2.23-4.47,3.63-5.73l.42-.41c1.67-1.68,4.6-3.91,6-5s2.79-.84,4.19-1.4c1-.41,1.25-.55,1.25-1a1.52,1.52,0,0,0-.14-.7c-.14-.42-.83-.7-1.67-.7a3,3,0,0,0-1.68.42c-.83.56-3.49,2.23-5.58,3.35a14.82,14.82,0,0,0-5.31,4.19c-1.11,1.67-1.81,2-3.21,3.35a7.39,7.39,0,0,0-2.09,5.3v1.12c0,2.37-3.07,1.95-3.91,5.17-1,3.76-3.35,7.67-3.91,11-.56,3.63-1.11,3.77-1.39,6.56s-.84,6.88-1.12,8.8C456.79,172.57,457.7,172.44,457.7,176.77ZM484.5,215c0,.7.28,1.12,1.4,1.12.84,0,2.65-.28,2.65-.84s-2.37-1.26-3.07-1.26A1.05,1.05,0,0,0,484.5,215ZM489,116.91c.3.63.73.89,1.74.41.75-.37,2.27-1.4,2-1.91s-2.68-.1-3.31.2A1,1,0,0,0,489,116.91Z"/></svg>