<?xml version="1.0" encoding="utf-8"?>
<!-- Generator: Adobe Illustrator 25.4.1, SVG Export Plug-In . SVG Version: 6.00 Build 0)  -->
<svg version="1.1" id="Camada_1" xmlns="http://www.w3.org/2000/svg" xmlns:xlink="http://www.w3.org/1999/xlink" x="0px" y="0px"
	 viewBox="0 0 1920 500" style="enable-background:new 0 0 1920 500;" xml:space="preserve">
<style type="text/css">
	.st0{fill:#4F0606;}
	.st1{fill:#FFFFFF;}
	.st2{clip-path:url(#SVGID_00000148637818954908733250000008823234843676704445_);fill:#FFFFFF;}
	.st3{clip-path:url(#SVGID_00000165913402336313411740000017120202961353264008_);fill:#FFFFFF;}
	.st4{clip-path:url(#SVGID_00000117636626884027660800000003221970682062337683_);fill:#FFFFFF;}
	.st5{clip-path:url(#SVGID_00000162311944061969319290000016560039242673154455_);fill:#FFFFFF;}
	.st6{clip-path:url(#SVGID_00000083056643661498379040000003642055505033365133_);fill:#FFFFFF;}
	.st7{clip-path:url(#SVGID_00000095333245394229355760000011281219825145389472_);fill:#FFFFFF;}
	.st8{clip-path:url(#SVGID_00000093178438660629572080000009040079584142118283_);fill:#FFFFFF;}
	.st9{clip-path:url(#SVGID_00000153673408086968110110000007614837562054168228_);fill:#FFFFFF;}
	.st10{clip-path:url(#SVGID_00000023965959231222327810000002585614623842053823_);fill:#FFFFFF;}
	.st11{clip-path:url(#SVGID_00000116916059642428451270000012616959820592555178_);fill:#FFFFFF;}
	.st12{clip-path:url(#SVGID_00000045613809081491038170000015524700391021610407_);fill:#FFFFFF;}
	.st13{clip-path:url(#SVGID_00000003803519849107469260000015793316486950723759_);fill:#FFFFFF;}
	.st14{clip-path:url(#SVGID_00000115479649569519024830000004759672980687127223_);fill:#FFFFFF;}
	.st15{clip-path:url(#SVGID_00000088120305703396482060000010537766068283887027_);fill:#FFFFFF;}
	.st16{fill:url(#SVGID_00000170272540172597657330000008318063688647790264_);}
	.st17{fill:url(#SVGID_00000003790642938018495410000003236976696781752220_);}
	.st18{fill:url(#SVGID_00000114038988336907055640000000244853220676683429_);}
	.st19{fill:url(#SVGID_00000055681470956519691790000014247082950415525265_);}
	.st20{fill:url(#SVGID_00000165216481672503403910000003781518684522410901_);}
	.st21{fill:url(#SVGID_00000114793102889154199730000009821878323917020055_);}
	.st22{fill:url(#SVGID_00000005243565907537002960000002790764249899639739_);}
	.st23{fill:url(#SVGID_00000168826352491387000610000008425234032811755162_);}
	.st24{fill:url(#SVGID_00000170240389476588753580000012090887453950274990_);}
	.st25{fill:url(#SVGID_00000160178480216300624210000017070000410012199841_);}
	.st26{fill:url(#SVGID_00000165235668191776270850000002017040953457902466_);}
	.st27{fill:url(#SVGID_00000097478785392509949810000002102162717717758639_);}
	.st28{fill:url(#SVGID_00000058554599724595846670000009887446363377861813_);}
	.st29{fill:url(#SVGID_00000085222576428414147790000017660790332555973767_);}
</style>
<g>
	<g>
		<path class="st1" d="M1194.69,231.7c0,0.72-1.91,1.47-0.24,1.47c0.72,0,1.91-0.48,2.15-0.48c2.39,0,4.3,7.82,4.3,14.03
			c0,4.53,1.19,3.58,1.19,7.4c0,0.96,0,2.39-0.24,4.06c-0.24,3.1-3.1,1.43-3.1,3.58c0,0,1.67,1.67,1.91,1.67l-0.95,2.39
			c0.96,0,1.91,2.63,1.91,3.34c0,2.39-1.76,0.94-1.76,3.33c0,0.24-0.48,1.91-0.48,3.1c0,0.48,0.24,0.96,0.48,0.96
			c1.67,0-2.77,0.97-1.82,1.45c2.15,0.95,2.86,2.63,2.86,4.53c0,1.67-0.72,3.82-0.72,5.25c-0.48,3.58-2.75,3.46-2.75,5.13
			c0,0.96-1.07,2.03-1.07,2.5c0,3.58-1.43,5.73-1.91,8.59c-0.95,5.25-7.4,8.35-7.88,12.17c-0.24,1.43-8.59,7.88-8.83,8.59
			c-1.67,3.58-11.69,10.5-22.91,14.08c-1.43,0.48-5.01,0.48-5.25,0.72c-3.1,1.43-6.92,3.1-15.04,3.1c-30.08,0-25.78-5.01-31.03-5.01
			c-0.72,0-1.43,0.48-2.15,0.48c-4.3,0-14.8-5.01-14.8-7.88c0.24-0.96,0.72-1.43,0.72-1.67c0-0.24-0.48-0.48-2.63-0.48h-3.34
			c-2.86,0-8.83-9.07-11.69-12.41c-2.87-3.34-3.1-4.77-3.1-5.97v-1.43c0-1.91,0.62-4.71-1.27-4.44c-5.28,0.76,6.05-3.2,6.05-3.2
			c-0.48,0-2.63,0.96-6.21,0.96c-5.49,0-7.88-11.22-7.88-14.08c0-1.67,0.96-2.39,0.96-3.1c0-1.43-1.91-4.06-1.91-5.25
			c0-0.48,0.48-1.43,0.48-2.39c0-2.39-0.48-6.44-0.48-10.26c0-7.88,0.48-16.95,3.1-20.05c3.1-3.82,2.81-0.37,2.81-2.76
			c0-1.19-0.72-1.67-2.15-1.67c-1.91,0,6.26-3.45,4.59-3.45c-2.63,0-3.1,0.24-3.58,0.24c-0.95,0-1.19-0.95-1.19-2.15
			c0-1.19,0.24-2.39,0.24-3.1c0-1.43,0.24-2.86,1.67-4.06c3.1-6.68,15.75-26.02,19.57-26.02c5.49,0,5.25-4.06,7.88-4.3
			c1.19-0.24,3.58-1.91,3.58-3.34c0-0.24,0.48-0.72,0.48-0.96c1.19-2.86,3.82,0.24,9.31-4.53c3.34-3.1,12.17-3.34,17.42-3.34
			l5.25-0.96c0.95,0,1.19,0,1.19,0h6.21c3.34,0,6.44,0.24,6.44,4.54c-0.24,1.67-4.3,2.86-6.44,2.86c-2.62,0-7.16,1.91-9.07,1.91
			c-3.58,0-10.98,7.64-15.52,9.79l-1.19,0.48c-4.77,1.91-1.49,0.68-1.49,2.59c0,1.43-1.85,3.61-1.85,4.57
			c0,0.24-3.58,3.82-5.49,7.64c-0.72,1.43-2.32,2.01-2.56,3.2c1.19,1.19,0.17,3.96,0.17,4.19c-1.43,6.92-5.01,23.39-5.49,30.31
			c-0.48,4.77-3.37,5.72-1.95,5.56c6.28-0.72-5.21,4.46-3.3,4.46c2.39,0,3.1-1.19,4.77-1.19c0.48,0,1.67,2.15,1.67,2.63
			c0,9.55,2.39,10.03,2.39,14.08c0,2.63-0.24,3.1-0.24,3.58c0,4.3,1.91,7.16,1.91,11.93c0,1.67,0.91,1.29,0.91,4.39
			c0,1.19,3.63,1.1,3.63,7.07c0,0.24-0.48,0.24-0.48,0.96c0,0.24,0,0.72,0.24,1.19c2.87,7.88,4.77,4.06,7.16,10.5
			c1.67,4.06,6.68,2.86,11.7,4.54c4.3,1.43,3.62,3.63,5.05,3.63c0.48,0,2.58,1.62,3.78,1.14c4.77-1.67,8.12-2.63,16.71-4.54
			c8.36-1.91,12.41-8.59,14.08-9.55c4.53-2.39,3.02,2.36,3.02-1.46c-0.24-0.72-1.19-0.72-2.15-0.72l3.42-3.55
			c-1.43,0-2.15-0.24-2.15-0.96c0-2.86,6.21-13.13,6.21-15.75c0-0.96,2.87-6.21,2.87-10.98c0-0.72-0.24-1.67-0.24-3.82
			c0-5.97,0.72-9.79,0.72-20.53c0-6.68-2.63-13.37-2.63-19.81c0-1.91,1.67-1.91,1.67-4.3c0-2.15-4.53-4.77-7.16-11.93
			c-1.67-5.73-7.4-6.21-7.4-9.55c0-0.96-1.87-0.61-1.87-1.56c0-1.43,0.72-1.76-1.43-1.76c-0.72,0-0.99-0.74-1.95-0.74
			c-2.87,0-4.3-1.67-8.12-1.67c-5.49,0-10.98,1.67-14.8,4.54c-2.39,1.67-4.06,2.15-5.49,2.15c-0.96,0-4.06-2.39-4.06-4.3
			c0-3.34,7.88-7.4,9.79-7.4c2.15,0,5.73-3.82,8.12-3.82c2.86,0,10.98-4.54,20.29-4.54c10.02,0,16.95,5.97,16.95,6.21v0.96
			c0,0.24,0.76,2.01,1.95,2.01c0.72,0,2.83,0.62,4.26,0.62c6.21,0,6.68,3.58,10.26,7.64c2.63,3.1,4.3,6.21,5.97,10.5
			s2.86,0.24,2.86,6.68C1197.07,233.11,1195.64,231.7,1194.69,231.7z"/>
		<path class="st1" d="M154.71,367.9c-2.69,0-6.57,0-6.57-3.29c0-2.39,4.27-7.47,5.16-9.86c1.2-2.39,1.2-4.18,1.2-5.38v-1.2
			c0-0.9,0-1.79,1.19-2.69c1.2-1.19,4.1-1.97,4.1-8.84c0-0.3,7.25,1.38,6.95,1.38c-1.49,0-3.29,2.09-5.08,2.09
			c-2.09,0-4.18-1.79-4.18-3.58c0-0.9,1.79-8.96,1.79-11.35c0-1.79-1.49-8.37-1.49-11.95c0-3.58,1.79-6.57,4.48-9.26
			c4.48-4.78,6.1-4.72,6.1-5.61c0-0.6-6.82,10-8.32,10c-1.79,0,1.92-10.06-0.17-10.06c-1.19,0-2.98-1.79-2.98-4.48
			c0-3.58,1.19-4.18,1.19-6.27c0-1.79-0.6-5.98-0.6-7.77c0-2.39,0-6.87,1.2-6.87c2.39,0,8.66,3.58,8.96,3.58
			c0.6-0.3-8.3-2.91-8.3-3.51c0-4.18,2.1-3.85,1.43-10.23c-2.39-3.29-2.99-7.47-2.99-14.34l0.6-5.67v-13.74
			c0-6.27,2.99-3.88,2.99-8.37c0-2.39-3.29-6.27-3.29-8.36c0-4.18,2.69-1.19,2.69-5.97c0-3.29-1.79-7.77-1.79-11.95
			c0-2.09,0.3-2.39,0.3-4.78c0-6.27-0.3-5.67-0.3-7.77c0-3.58,3.58-11.65,3.58-14.04c0-5.08-3.88-12.85-11.94-12.85h-8.96
			c-5.97,0-16.73,0.3-22.11,1.2c-6.87,1.19-10.75,5.08-12.84,6.27c-7.17,3.58-8.07,9.86-14.64,9.86c-2.39,0-2.99-2.39-2.99-5.38
			c0-4.18,1.49-9.56,2.09-11.35c1.49-3.58,1.79-9.99,1.79-12.08c0-3.29-2.2-7.47-2.5-9.86c0-1.49,0.6-4.18,3.29-4.18
			c3.29,0,10.57,4.78,15.94,4.78c1.49,0,8.96,1.2,13.74,1.2c6.27,0,14.34-0.3,16.73-0.3c0.6,0,2.69,1.79,6.87,1.79
			c4.48,0,8.36-0.6,14.34-0.6c3.59,0,7.47,0,12.55,0.9c3.88,0.6,8.66,3.58,8.66,4.78c0,0.9,0.9,7,0.9,9.09c0,1.19-0.3,2.69-1.2,3.58
			c-1.19,1.19-1.49,1.79-1.49,2.39c0,0.3,0,0.9,0.3,1.49c0.3,0.9,0.89,1.79,1.19,3.29c0.6,2.09,0.6,3.58,0.6,5.08
			c0,2.69-0.6,4.78-1.2,6.87c-0.3,0.6-0.3,1.19-0.3,1.79c0,3.29,1.49,8.07,1.49,11.65v1.2c-0.3,1.19-0.3,2.39-0.3,3.29
			c0,2.09,0.3,4.18,0.3,8.36c0,3.88-0.3,6.27-0.3,8.37c0,1.49,0,2.69,0.6,4.48c0.6,2.09,0.6,3.88,0.6,5.68v6.27
			c0,4.18-3.59,7.47-3.59,9.56c0,0.3,0,0.6,0.3,0.9c1.2,1.2,3.29,3.88,3.29,5.98c0,2.69-2.07,10.91-2.07,15.99
			c0,4.48,0.87,12.69,0.87,17.17c0,3.58,0.9,6.57,0.9,8.96c0,0.9,0,1.49-0.3,2.09c-0.6,0.9-0.6,2.09-0.6,3.58
			c0,2.09,0.3,4.78,0.6,8.36c0,1.2,0.3,2.39,0.3,3.58c0,3.29-0.6,6.27-0.6,9.26c0,0.9,0.3,2.09,0.3,2.99v12.55
			c0,2.69,0.3,5.08,0.6,6.87c0,0.6,0.3,1.19,0.3,2.09c0,2.69-0.6,5.97-1.19,8.96c-0.3,2.09-0.6,3.88-0.6,5.68
			c0,1.79,0.3,3.88,0.6,5.97c0.3,1.19,0.3,2.69,0.3,3.88c0,3.58-0.9,6.57-3.29,6.57C175.42,365.81,163.97,367.9,154.71,367.9z
			 M191.25,358.04c0-4.18,0.3-14.94,0.3-19.72c0-4.78-0.3-10.16-0.9-16.73c0-1.2-0.3-2.69-0.3-3.58c0-4.18,0.9-6.57,0.9-10.75
			c0-3.58-0.6-7.77-0.6-10.75c0-1.49,0.3-2.69,0.6-3.29c1.19-1.79,0.3-2.99,2.09-4.78c0.3-0.3,0.6-0.6,0.6-1.2
			c0-1.79-2.39-4.48-2.39-4.48s-0.6-2.09-0.6-4.78c0-2.39-2.06-4.48-0.26-6.87c2.69-3.88,0.75-9.85,0.75-13.13
			c0-3.88-1.08-15.24-1.08-18.23c0-7.77,1.2-10.46,1.2-17.03c0-3.58,0.6-5.38,0.6-6.87s-0.3-2.69-1.79-5.08
			c-0.89-1.49-1.19-2.69-1.19-3.88c0-3.58,2.69-6.87,3.58-8.66c0-0.3,0.3-0.6,0.3-0.9c0-2.09-2.09-4.48-2.09-7.47
			c0-0.9,0.3-1.49,0.6-2.39c0.3-1.19,0.6-2.09,0.6-3.29c0-3.58-1.79-7.47-2.39-11.05v-1.2c-0.3-1.79-0.3-2.99-0.3-4.18
			c0-1.79,0.3-2.99,1.49-3.58c0.6-0.3,0.9-0.9,0.9-1.79c0-2.09-1.49-5.67-1.49-7.17c0.3-1.2,0.6-2.39,0.6-3.88c0-0.9,0-6.11-0.3-8.2
			c0-3.29,4.48-4.78,7.17-4.78c4.78,0,9.56-2.69,13.44-2.69c3.58,0,17.32-1.19,26.29-1.19c20.31,0,26.89,0.9,30.47,0.9
			c11.95,0,12.85-6.27,17.63-6.27c2.99,0,3.58,0.9,3.58,2.39c0,3.58-2.69,11.95-2.69,15.53c0,3.88,2.69,12.68,2.69,18.35
			c0,0.9-0.3,1.49-0.3,2.39c-0.3,1.79-1.79,2.99-3.58,2.99c-1.2,0-2.99-0.6-4.18-2.09c-1.79-1.79-13.14-9.56-15.23-9.56
			c-7.47-3.88-9.86-4.48-19.12-4.48c-2.09,0-3.58,0.3-4.78,0.3c-7.47,0-10.45-4.18-14.64-4.18c-0.6,0.3-0.9,0.3-0.9,0.6
			c0,0.3,0.6,0.9,0.6,1.2c0,1.49-5.97,2.69-10.16,2.69c-3.88,0,0.09,7.17-0.8,11.65c-0.6,3.88-0.6,6.27-0.6,6.57
			c0,5.38-1.21,9.96-1.21,12.95c0,1.49-8.05-4.28-3.87-4.28c4.18,0,5.38,0.6,5.38,6.57c0,5.68,0.89,14.99-7.77,18.28
			c-3.58,1.2,0.19-4.3,0.19-4.3c2.39,0,3.4,1.26,5.19,1.26c1.2,0,1.2,0.6,1.2,2.99c0,4.48-1.2,11.05-1.2,16.43
			c0,3.58,2.69,5.38,2.69,12.25c0,4.78-6.27,3.58-6.27,5.68c0,0.9,6.27,3.88,6.27,5.97c0,2.99-1.79,6.87-1.79,8.96
			c0,0.6,0.9,5.08,0.9,7.77c0,0.6-0.3,1.2-0.3,1.49c0,3.58-3.88,6.87-3.88,11.65c0,3.58,4.48,2.39,4.48,14.04
			c0,6.27,0.3,15.24,0.3,22.7c0,5.08-1.49,7.17-1.49,13.14c0,3.88-3.29,1.49-3.29,6.27c0,2.39,4.48,6.57,4.48,9.26
			c0,2.99,0.3,7.77,2.39,11.65c1.79,2.99,8.43,8.07,8.43,10.16c0,2.69-3.29,3.58-7.47,3.58c-7.77,0-19.28-3.29-23.76-3.29
			C192.44,364.32,191.84,361.63,191.25,358.04z"/>
		<path class="st1" d="M268.13,246.87c0-1.2,0.24-2.63,0.24-4.54c0-9.8,1.91-10.28,1.91-12.43c0-2.63-1.2-5.02-1.2-6.21
			c0-4.3-0.48-5.74-0.48-8.84c0-1.2,0.24-2.87,0.24-4.3c0-11.23-5.5-15.77-5.5-18.4c0-2.39,2.63-2.87,4.78-2.87
			c3.83,0,6.93,1.2,10.28,1.2c2.15,0,4.54,1.43,6.93,1.43c2.63,0,7.17-1.43,10.28-1.67c4.3-0.24,10.04-0.72,20.32-0.72
			c6.21,0,8.13-0.48,11.23-0.48c1.91,0,7.18,2.96,24.4-2.02c6.15-1.78,6.2-1.68,6.2,0.95c0,1.2-0.96,7.28-2.16,10.15
			c-1.2,2.63-1.73,15.42-3.16,15.42c-3.59-0.24-9.03-10.88-14.53-10.88c-5.98,0-8.84-1.91-11.23-1.91c-8.13,0-9.32-1.2-11.71-1.2
			c-10.52,0-14.58,3.82-14.58,5.26c0,1.43,3.11,1.91,3.11,4.06c0,6.93-0.72,7.89-0.72,8.13c-0.24,1.43,0,4.3-0.95,5.74
			c-0.96,1.67,0.34,7.89,0.34,9.09c0,1.43-5.6-3.11-2.97-3.11c0.24,0,0.24,0.48,0.72,0.48c1.43,0,2.87,1.67,2.87,4.54
			c0,2.39-0.24,4.06-0.48,5.74c0,1.2,0.24,2.63,0.24,3.82c0,0.96-0.24,3.82-0.24,6.45l6.21-2.15c2.15-0.48,3.82-0.48,5.02-0.48
			c0.24,0,5.02,2.39,5.02,2.15c0.96-1.91,2.63-2.87,6.21-3.35c3.59-0.48,5.26-1.67,17.21-1.67c1.91,0,2.63,1.2,2.63,2.15
			c0,0.24-0.24,0.72-0.24,0.96c-0.48,1.2-3.83,6.45-4.3,7.65c-0.72,1.43-1.19,4.3-1.91,5.26c-0.72,1.2-2.39,2.87-5.5,2.87
			c-2.39,0-2.63-1.67-5.97-1.67c-3.35,0-4.78-1.2-7.89-1.2c-1.91,0-3.11-0.48-5.26-0.48c-3.11,0-8.37,0.24-10.76,0.96
			c0,2.39-0.24,4.3-0.24,7.17c0,2.63-0.24,4.78-0.48,4.78c-0.72,0,0.25,2.36,0.25,3.08c0,2.63,1.18,2.18,1.18,5.29
			c0,0.96-0.72,2.15-0.72,4.54c0,1.2,0.48,1.67,0.48,2.39c0,0.48-0.24,1.2-0.96,1.2c2.2,3.04-0.67,3.04,0.53,3.04
			c1.67,0-1.45,4.85,0.22,4.85c1.2,0,0.44,1.43,0.44,1.91c0,1.43,0.44,3.04,0.44,4.71c0,0.72-0.91,4.85,0.28,4.85
			c1.67,0-6.45-2.15-3.59-2.15c2.39,0,3.59,0.96,3.59,2.15c0,2.39-1.2,6.21-1.2,10.04c0,1.67,0.96,4.3,1.43,5.5
			c1.43,3.82,5.98,4.3,10.52,4.3c9.32,0,12.43,1.2,13.39,1.2c1.91,0,1.43-1.2,5.02-1.2c5.74,0,10.04-4.3,13.86-4.3
			c2.63,0,7.19-6.7,10.3-8.13c0.48-0.24,0.96-0.24,1.2-0.24c1.19,0,1.65,3.59,1.65,4.55c0,1.43-2.63,5.98-3.59,11.23
			c-0.24,0.96-0.96,5.02-0.96,5.74c0,1.2,0.52,4.06,0.52,4.78c0,0.48,0,0.96-0.24,1.43c-0.24,0.24-0.48,0.48-0.95,0.48
			c-1.91,0-4.35-3.83-13.43-3.83c-2.15,0-3.82-2.15-4.06-2.15c-0.72,0-0.96,2.15-3.35,2.15H318.8c-4.06,0-6.93,0.24-12.43,0.24
			c-8.13,0-7.65-1.43-11.23-1.43c-2.63,0-6.93-1.43-9.8-1.67c-1.67,0.24-9.32,2.87-14.34,2.87h-4.06c-1.43,0-3.11-1.2-3.11-3.35
			c0-2.63,3.35-8.84,3.35-13.15c0-4.06,2.01-7.01,2.48-7.01c1.19,0-0.88-1.76,0.55-1.76c0.48,0-1.21-1.87-1.21-1.87
			c0-2.39,0.57,1.81,0.57-7.28c0-2.63,0.48-2.87,0.48-4.06c0-3.59-1.43-7.17-1.43-8.13v-5.98c0-1.2,0.48-4.78,0.48-7.17
			c0-2.87,0.24-10.28,0.24-14.82c-4.78,1.2-5.02,2.15-6.45,2.15c-1.91,0-3.35-0.72-3.35-2.15c0-3.59,8.13-8.6,11.71-10.52
			C268.61,253.08,268.13,248.54,268.13,246.87z"/>
		<path class="st1" d="M373.13,341.45c-1.43,0-3.1-1.19-3.1-3.34c0-2.63,7.18-10.23,7.18-14.52c0-4.06,2.36-5.69,2.27-6.16
			c-0.82-4.04,0.12-2.67,0.12-11.74c0-2.63,0.48-2.86,0.48-4.06c0-3.58-1.43-7.16-1.43-8.12v-5.97c0-1.19,0.48-4.77,0.48-7.16
			c0-2.86-0.48-4.54-0.48-9.07c0.24-4.77,0.23-8.84,0.47-12.23c0.18-2.5,0.66-2.86,0.59-4.26c-0.15-2.86-1.53-6.19-1.53-7.86
			c0-1.19,0.24-2.63,0.24-4.54c0-9.79,1.91-10.26,1.91-12.41c0-2.63-1.19-5.01-1.19-6.21c0-4.3-0.48-5.73-0.48-8.83
			c0-1.19,0.24-2.86,0.24-4.3c0-11.22-8.85-16.79-8.85-19.42c0-2.39,0.5-4.39,2.64-4.21c19.23,1.57,17.98,4.59,20.36,5.46
			c2.02,0.74,12.1-3.31,14.49-3.31c0.48,0,1.91,0.24,2.15,0.48c0-0.24,8.59-2.63,12.89-2.63c7.88,0,28.17,0.96,26.97,0.96
			c10.98,0,26.17,2.23,31.18,11.78c0.63-0.63,1.28,1.1,3.91,4.21c0.72,0,1.43,0.72,1.43,1.43c0,0.72,0.76,2.77,1.6,3.93
			c1.98,2.75,3.42,5.14,3.42,10.63c0,5.01-2.86,5.01-2.86,6.44c0,0.96,1.67,1.91,1.67,3.34c0,0.95,0.97,1.38-0.46,2.81
			c-0.72,0.48-1.54,0.91-0.55,3.08c0.69,1.52,0.06,1.98,0.06,2.46c-4.3,7.88-5.73,12.17-11.46,16.47c-1.43,0.96-5.01,0.96-6.21,1.67
			c-0.72,0.48-2.39,3.34-2.87,3.82c-0.96,0.72-3.1,0.48-4.06,0.96c-3.82,1.67-11.22,3.34-16.95,3.34c-0.48,0-0.72,0.24-0.72,0.24
			s21.72,8.12,21.72,13.37c0,0.24,2.63,3.34,2.63,3.1c0.72,0,3.58,5.49,3.58,6.92c0,3.1,1.02-0.45,1.02,3.13l0.59,0.81
			c0.96-0.72-0.41,3.7,1.74,3.46c0.24,0,1.19,1.43,1.43,2.39c1.91,1.91,2.39,6.92,2.39,7.16c0,1.43,1.34,2.16,1.34,4.31
			c0,1.19,1.52,1.42,1.52,1.89c1.19,2.63-0.24,5.49,3.34,8.83c2.63,2.15,0.72,5.25,6.21,7.88c2.15,1.19,5.25,5.25,11.7,5.25
			c1.19,0,4.85-1.01,4.85,1.38c0,2.63-1.59,2.97-5.06,4.4c-2.22,0.91-6.23,1.61-8.14,1.61c-3.1,0-6.92-0.24-10.5-0.48
			c-12.89-0.48-17.42-2.63-23.63-8.11c-0.72-0.48-0.72-1.19-0.72-1.91c0-0.95,0.24-0.95,0.24-2.15c0-0.72-1.95-0.51-2.19-0.99
			c-0.48-0.72-2.83-2.35-3.07-3.07c-1.91-4.06-3.34-7.64-4.06-8.35c0-0.96-2.39-5.01-2.39-7.16c0-0.72-4.78-5.73-4.78-8.83
			c0-0.72-0.54-3.02-0.54-3.26c0-2.39-2.09-2.47-2.8-4.62c-0.48-2.15-4.3-5.97-4.3-8.59c0-0.48,0.24-2.15,0.48-2.63
			c0.72-0.96-1.45,2.07-1.45,1.6c0-1.67-3.08-3.51-4.52-6.13c-3.82-6.21-7.64-7.16-13.61-7.16c-2.39,0-7.88,0-7.88,2.39
			c0,10.03-0.72,9.44-0.72,11.35c0,0.72-2.87,1.78-1.2,1.78c0.24,0,0.72-0.24,0.96-0.24c0.24,0,0.48,0.24,0.48,0.72
			c0,0.24-0.48,5.01-0.48,5.73c0,0.96,0.96,2.86,0.96,3.1c0,1.19-0.96,3.1-0.96,4.3c0.48,1.19,0.48,2.39,0.48,4.3
			c0,1.91,1.09,3.18-1.06,4.38c-0.24,0.24-0.28,1.63,0.58,4.22c0.38,1.13,1.67,4.54,1.67,5.25c0.95,14.32,7.4,17.13,7.4,22.38
			c0,1.67-2.62,1.91-5.73,1.91c-3.58,0-16.47-2.33-19.1-2.33C392.72,337.9,381.73,341.45,373.13,341.45z M418.27,258.66
			c1.67,0,4.3,0,6.68-0.48c0.48,0,2.63,0.24,4.3,0.24c2.39,0,4.06-1.43,6.21-1.91c10.98,0,17.42-8.35,21.48-18.38
			c1.19-2.63,0.48-4.77,1.67-7.4c0.72-1.67-0.46-0.67,0.75-4.09c-0.44-3.52,0.2-6.42,0.2-6.89c0-2.86-0.48-8.83-5.97-14.32
			c-7.16-7.16-10.98-7.88-23.39-7.88c-6.21,0-17.9,0.48-17.9,5.49c0,7.64-1.91,7.64-1.91,10.74c0,0.95,1.19,1.67,1.19,2.86
			c0,0.72-3.1,8.59-0.24,8.59c0.96,0,0.96,1.67,0.96,2.39c0,3.58-1.29,4.26-0.82,5.62c0.9,2.62,0.59,3.93,0.59,6.31v3.58
			c0,5.25-0.24,8.83-0.24,13.37c0,0.24,0.72,0.96,0.95,1.19C414.68,258.66,416.59,258.66,418.27,258.66z"/>
		<path class="st1" d="M521.63,341.45c-1.43,0-3.1-1.19-3.1-3.34c0-2.63,7.18-10.23,7.18-14.52c0-4.06,3.68-7.14,3.28-7.4
			c-1.87-1.21-0.89-1.44-0.89-10.51c0-2.63,0.48-2.86,0.48-4.06c0-3.58-1.43-7.16-1.43-8.12v-5.97c0-1.19,0.48-4.77,0.48-7.16
			c0-2.86-0.48-4.54-0.48-9.07c0.24-4.77,0.23-8.84,0.47-12.23c0.18-2.5,3.74-5.25,2.42-5.68c-2.91-0.96-3.36-4.77-3.36-6.44
			c0-1.19,0.24-2.63,0.24-4.54c0-9.79,1.91-10.26,1.91-12.41c0-2.63-1.19-5.01-1.19-6.21c0-4.3-0.48-5.73-0.48-8.83
			c0-1.19,0.24-2.86,0.24-4.3c0-11.22-8.85-16.79-8.85-19.42c0-2.39,0.5-4.39,2.64-4.21c19.23,1.57,17.98,4.59,20.36,5.46
			c2.02,0.74,12.1-3.31,14.49-3.31c0.48,0,1.91,0.24,2.15,0.48c0-0.24,8.59-2.63,12.89-2.63c7.88,0,28.17,0.96,26.97,0.96
			c10.98,0,26.17,2.23,31.18,11.78c0.63-0.63,1.28,1.1,3.91,4.21c0.72,0,1.43,0.72,1.43,1.43c0,0.72,0.76,2.77,1.6,3.93
			c1.98,2.75,3.42,5.14,3.42,10.63c0,5.01-2.86,5.01-2.86,6.44c0,0.96,1.67,1.91,1.67,3.34c0,0.95,0.97,1.38-0.46,2.81
			c-0.72,0.48-1.54,0.91-0.55,3.08c0.69,1.52,0.06,1.98,0.06,2.46c-4.3,7.88-5.73,12.17-11.46,16.47c-1.43,0.96-5.01,0.96-6.21,1.67
			c-0.72,0.48-2.39,3.34-2.87,3.82c-0.96,0.72-3.1,0.48-4.06,0.96c-3.82,1.67-11.22,3.34-16.95,3.34c-0.48,0-0.72,0.24-0.72,0.24
			s21.72,8.12,21.72,13.37c0,0.24,2.63,3.34,2.63,3.1c0.72,0,3.58,5.49,3.58,6.92c0,3.1,1.02-0.45,1.02,3.13l0.59,0.81
			c0.96-0.72-0.41,3.7,1.74,3.46c0.24,0,1.19,1.43,1.43,2.39c1.91,1.91,2.39,6.92,2.39,7.16c0,1.43,1.34,2.16,1.34,4.31
			c0,1.19,1.52,1.42,1.52,1.89c1.19,2.63-0.24,5.49,3.34,8.83c2.63,2.15,0.72,5.25,6.21,7.88c2.15,1.19,5.25,5.25,11.7,5.25
			c1.19,0,4.85-1.01,4.85,1.38c0,2.63-1.59,2.97-5.06,4.4c-2.22,0.91-6.23,1.61-8.14,1.61c-3.1,0-6.92-0.24-10.5-0.48
			c-12.89-0.48-17.42-2.63-23.63-8.11c-0.72-0.48-0.72-1.19-0.72-1.91c0-0.95,0.24-0.95,0.24-2.15c0-0.72-1.95-0.51-2.18-0.99
			c-0.48-0.72-2.83-2.35-3.07-3.07c-1.91-4.06-3.34-7.64-4.06-8.35c0-0.96-2.39-5.01-2.39-7.16c0-0.72-4.78-5.73-4.78-8.83
			c0-0.72-0.54-3.02-0.54-3.26c0-2.39-2.09-2.47-2.8-4.62c-0.48-2.15-4.3-5.97-4.3-8.59c0-0.48,0.24-2.15,0.48-2.63
			c0.72-0.96-1.45,2.07-1.45,1.6c0-1.67-3.08-3.51-4.52-6.13c-3.82-6.21-7.64-7.16-13.61-7.16c-2.39,0-7.88,0-7.88,2.39
			c0,10.03-0.72,9.44-0.72,11.35c0,0.72-2.87,1.78-1.2,1.78c0.24,0,0.72-0.24,0.96-0.24c0.24,0,0.48,0.24,0.48,0.72
			c0,0.24-0.48,5.01-0.48,5.73c0,0.96,0.96,2.86,0.96,3.1c0,1.19-0.96,3.1-0.96,4.3c0.48,1.19,0.48,2.39,0.48,4.3
			c0,1.91,1.09,3.18-1.06,4.38c-0.24,0.24-0.28,1.63,0.58,4.22c0.38,1.13,1.67,4.54,1.67,5.25c0.95,14.32,7.4,17.13,7.4,22.38
			c0,1.67-2.62,1.91-5.73,1.91c-3.58,0-16.47-2.33-19.1-2.33C541.22,337.9,530.22,341.45,521.63,341.45z M566.76,258.66
			c1.67,0,4.3,0,6.68-0.48c0.48,0,2.63,0.24,4.3,0.24c2.39,0,4.06-1.43,6.21-1.91c10.98,0,17.42-8.35,21.48-18.38
			c1.19-2.63,0.48-4.77,1.67-7.4c0.72-1.67,2.02-3.76,5.27-5.5c-4.35,0.08-4.32-5.01-4.32-5.48c0-2.86-0.48-8.83-5.97-14.32
			c-7.16-7.16-10.98-7.88-23.39-7.88c-6.21,0-17.9,0.48-17.9,5.49c0,7.64-1.91,7.64-1.91,10.74c0,0.95,1.19,1.67,1.19,2.86
			c0,0.72-3.1,8.59-0.24,8.59c0.96,0,0.96,1.67,0.96,2.39c0,3.58-1.29,4.26-0.82,5.62c0.9,2.62,0.59,3.93,0.59,6.31v3.58
			c0,5.25-0.24,8.83-0.24,13.37c0,0.24,0.72,0.96,0.95,1.19C563.18,258.66,565.09,258.66,566.76,258.66z"/>
		<path class="st1" d="M910.94,274.43c0,0.6,0,1.2-0.6,1.5c-2.41,2.1-0.04,1.14-0.04,2.65c0,0.3,0.3,0.6,1.5,0.6
			c1.81,0-0.86,3.37,0.64,3.37c2.7,0,3.91,3.61,3.91,3.91c0,1.5,0.27,2.54,0.27,7.95c0,1.5,0.3,1.8,1.2,1.8
			c3.91,0-2.97,4.07-1.77,4.07c3.01,0,5.11,2.4,5.11,8.12c0,8.72,2.7,13.22,5.71,16.83c4.81,6.01,4.81,6.61,4.81,8.72
			c0,0.9-1.5,1.8-1.5,2.71c0,0,9.62,3.61,12.63,7.21c3.61,4.51,14.13,11.12,26.45,11.12c1.5,0,2.7,0,5.11-0.3
			c4.51,0,3.24,1.95,9.25,1.95c3.61,0,10.89-3.16,15.7-4.06c19.84-3.91,30.06-19.54,34.26-26.45c2.41-1.8,2.41-3.61,2.41-3.61
			c2.41-3.91,4.21-7.82,7.81-7.82c2.41,0,3.61,1.5,3.61,4.21c0,1.2-0.3,2.4-0.6,3.91l-0.6,2.1c-2.1,7.51-0.36,7.69-0.36,14
			c0,1.2-0.59,9.07-0.29,10.27c0.3,1.5,0.74,12.4,0.74,13.6c0,3.61-0.3,5.71-6.61,5.71c-6.91,0-9.2-4.08-17.61-2.87
			c-2.4,0.6-10.13,1.37-13.73,1.37c-3.61-0.3-3.82-0.9-6.22-0.9c-1.21,0.3-2.19,2.1-3.1,2.4c-3.61,1.5-12.32,2.4-18.63,2.4
			c-9.02,0-17.13-0.9-22.54-1.2c-9.92-0.9-9.32-4.81-17.74-5.41c-7.51-0.6-15.03-4.51-17.73-4.51c-3.3,0-20.44-8.72-20.44-12.62
			c0-0.6-2.74-1.3-2.74-2.2c0-1.5-1.16-1.71-2.07-1.71c-0.9,0-2.7,0-2.7-3.01s-8.72-6.61-12.32-11.12
			c-3.01-3.91-9.32-14.13-9.32-19.84c0-2.1-0.59-3.06-0.59-5.17c0-1.5-0.91-3.55-2.41-4.45c-3.3-3.31-5.11-19.84-4.81-19.54
			c0.3,0.3-1.31-3.9-0.71-3.9c0.3,0-1.7-3.02-1.7-4.22c0-1.8-0.9-9.32-0.9-20.74c0-12.62,4.81-12.62,4.81-13.83
			c0-0.9-0.9-5.41-0.9-9.92c0-2.4,5.71-22.54,6.31-24.65c-0.3,0.9,2.99-3.04,2.99-3.34c0-0.9,1.82-4.17,1.82-4.48
			c0-3.31,5.11-12.92,9.92-15.03c6.91-2.1,1.72,2.68,1.72-2.73c0-0.3,5.49-5.99,5.49-6.29c0-2.4,2.71-3.31,4.21-6.31
			c4.51-8.12,21.04-13.23,22.54-16.83c1.8-3.61,7.51-3.31,10.82-4.81c5.41-1.8,13.23-6.61,25.85-9.02c7.21-1.2,13.22-1.8,22.24-1.8
			c24.04,0,40.88,7.21,46.59,12.02c9.32,8.12,32.98,13.67,22.41,23.8c0,0-4.98,1.32-6.01,3.38c-0.81,1.61-5.72,4.99-10.86,11.51
			c-3.25,4.13-4.04,8.51-7.34,8.51c-3.61,0-5.11-2.41-5.11-6.01c0-6.31-1.8-17.13-1.8-19.54c0-3.61-0.6-3.21-0.6-6.22
			c0-2.1-2.71-4-4.21-4.9c-4.51-3.31-10.52-8.72-16.23-8.72c-1.5,0-3.01,0.3-4.21,0.3c-6.91,0-11.72-2.1-14.13-2.1
			c-0.6,0-2.4,0-17.13,5.41c-9.02,3.61-7.21,5.41-12.92,8.42c-5.11,3.01-6.91,5.41-10.22,5.41c-1.5,0,1.18,3.82-1.52,3.82
			c-2.1,0-4.78-0.92-4.78-0.02c0,0,2.71,0.6,3.61,0.9c5.11,1.8,0.59,3.11,0.59,5.52c0,0.9-0.9,3.31-2.7,4.81
			c-3.91,3.31-4.51,16.83-7.52,17.43c-3.31,0.9-3.48-0.67-3.48,1.13c0,0.9,1.2,0.9,1.8,0.9c3.61,0-2.23,5.48-2.23,9.09
			c0,1.8-2.4,6.01-2.7,10.82c-0.6,4.51-4.51,12.93-4.51,17.73c0,4.21-2.3,3.68-2.3,6.68c0,0.6-1.61,2.33-1.31,2.93
			c0.6,1.8,0.9,3.61,0.9,4.81c0,1.8-0.3,3.31-0.6,5.41c-0.3,3.31-0.9,14.43-1.21,14.13C909.44,269.32,910.94,272.33,910.94,274.43z
			 M881.79,274.13c0,1.2,2.1,7.51,2.1,7.51c0.9,8.72,0.3,12.93,2.71,18.34c2.4,5.41,2.4,8.42,4.81,15.03
			c2.41,6.61,2.71,9.32,6.92,12.63c4.21,3.31,5.11,7.51,11.72,13.53c6.61,6.01,13.53,8.72,17.43,10.22c1.2,0.6,2.4,0.6,3.31,0.6
			c1.8,0,3.01-0.6,3.91-0.6c1.2,0-9.32-5.71-14.13-11.12c-4.81-5.41-7.81-4.51-9.02-7.52c-1.2-3.01-3.61-6.61-6.61-10.52
			c-1.21-1.5-0.9-0.6-3.01-4.81c-3-6.01-0.9-5.11-4.51-11.12c-3.61-6.01-1.81-12.62-3.61-18.64l-1.2-3.31
			c-0.6-1.5-0.6-4.51-0.6-8.72c0-5.41-1.13-10.79,1.12-16.35c-2.73-14.32,3.99-16.11,2.49-16.11c-0.6,0-0.9-0.6-0.9-1.5
			c0-0.9,0.3-1.5,0.3-3.31c-0.6-1.2-0.9-3.31-0.9-5.41c0-4.81,1.2-10.82,2.1-10.82c1.8,0,3.3-4.51,3.91-11.72
			c0.6-7.81,3.61-10.22,6.01-15.03c2.41-4.81,3.31-9.02,6.92-17.73c3.3-7.82,4.81-9.62,7.81-12.32l0.9-0.9
			c3.61-3.61,9.92-8.42,12.93-10.82c3.01-2.4,6.01-1.8,9.02-3.01c2.1-0.9,2.7-1.2,2.7-2.1c0-0.3,0-0.9-0.3-1.5
			c-0.3-0.9-1.8-1.5-3.61-1.5c-1.5,0-2.7,0.3-3.61,0.9c-1.8,1.2-7.52,4.81-12.02,7.21c-4.51,2.41-9.02,5.41-11.42,9.02
			c-2.4,3.61-3.91,4.21-6.91,7.21c-2.71,2.71-4.51,6.61-4.51,11.42v2.4c0,5.11-6.61,4.21-8.42,11.12
			c-2.1,8.12-7.21,16.53-8.41,23.74c-1.2,7.82-2.41,8.12-3.01,14.13c-0.6,6.01-1.81,14.8-2.41,18.94
			C879.84,265.1,881.79,264.81,881.79,274.13z M939.5,356.49c0,1.5,0.6,2.4,3.01,2.4c1.8,0,5.71-0.6,5.71-1.8
			c0-1.5-5.11-2.7-6.61-2.7C940.4,354.38,939.5,355.58,939.5,356.49z M949.06,145.26c0.65,1.35,1.58,1.91,3.75,0.87
			c1.63-0.78,4.89-3.01,4.37-4.1c-0.65-1.35-5.77-0.23-7.13,0.42C948.96,142.97,948.67,144.44,949.06,145.26z"/>
		<path class="st1" d="M1354.46,258.63c2.87,0,3.82,0.24,3.82,2.39c0,2.15-6.91,6.22-6.91,10.76c0,1.91-0.72,7.16-0.72,8.83
			c0,3.1-1.17,4.39-1.17,6.06c0.48,0,1.17,4.45,1.17,6.83c0,0.72-0.48,2.39-0.48,3.1c0,0.72,0.24,1.67,0.24,2.15
			c0,6.68-0.24,6.44-0.24,13.13c0,2.86-1.87,4.86-1.87,6.05c0,1.19,0.44,4.45,0.44,5.88v10.74c-0.48,2.39-1.19,5.97-2.15,5.97
			c-1.91,0-3.58-0.95-5.01-2.15c-2.39-2.15-4.54-5.49-9.07-8.36c-1.43-0.48-2.15-0.95-3.1-0.95c-1.67,0-3.34,2.39-5.25,2.39
			c-2.86,0.72-0.95,2.63-6.68,5.97c-6.44,3.82-11.46,4.54-24.11,4.54c-6.44,0-19.33,0-21.24-2.15c-1.19-1.43-1.05-1.71-2.96-1.71
			c-3.58,0-13.03-1.39-13.03-2.82c0-1.67-7.64-5.49-10.02-6.21c-3.58-2.86-7.88-9.31-10.5-11.7c-2.39-1.67-8.36-9.55-8.59-14.32
			c0-1.67,0.24-2.63,0.24-3.82c0-3.58-5.73-11.93-5.73-14.8c0-1.43,1.81-2.39,1.81-3.82c0-1.19-1.09-1.43-1.09-2.63
			c0-2.15-1.55-4.01,1.31-4.97c1.67-0.95-1.12-0.05-1.12-2.44c0-0.72-0.48-0.72-0.72-0.72c-1.43,0,6.01-1.66,2.91-1.66
			c-1.91,0-4.06-1.43-4.06-6.92c0-4.53,1.91-8.35,1.91-11.7c0-6.92,1.67-7.4,2.63-13.61c0.96-6.68,8.83-10.98,8.83-17.66
			c0-3.82,12.89-16.95,21.48-21.48c4.53-2.63,12.65-6.68,21.24-6.68c2.39,0,3.84,0.33,4.55,0.33c0.96,0,1.89-1.05,3.56-2.48
			c2.87-2.15,19.57-2.63,22.92-2.63c12.41,0,21.91,6.87,29.6,12.41c12.56,9.05,15.05,10.4,18.24,12.75
			c1.46,1.07,0.11,3.38-11.23,8.15c-2.2,0.93-6.77,10.61-11.79,10.61c-2.39,0-1.91-11.46-5.49-17.9c-0.48-0.72-0.82-4.67-2.16-5.94
			c-0.52-0.49-1.89-2.17-2.61-2.17c-3.1,0-4.06-5.49-13.13-6.21c-1.43,0-5.01-0.72-5.97-0.72c-12.41,0-12.17,3.82-13.37,3.82h-3.34
			c-4.53,0-5.01,4.77-10.26,6.21c-3.82,1.19-2.39,2.63-5.25,2.63c0.24,0-0.18,1.89-0.18,3.32c0,1.19-4.12,0.97-2.93,0.97
			c1.43,0,1.91,0.72,1.91,1.91c0,2.39-7.88,9.31-7.88,16.71c0,2.86-3.41,5.99-4.48,7.27c-1.93,2.31-0.22,2.44-0.22,2.92
			c0,2.15-0.07,1.99-0.07,5.57c0,1.67-1.43,3.34-1.67,3.34c-0.96,0-0.72-0.96-2.63-0.96c-1.67,0,3.55,1.27,3.55,3.66
			c0,2.63,1.47-0.79,1.47,8.04c0,3.58-0.72,5.25-0.72,8.83c0,2.39,1.43,7.88,1.43,11.46c0,0,0,8.12-3.34,8.12
			c0,1.43,2.54-1.07,2.54-0.12c0,2.39,3.91,3.46,4.39,12.29c0,1.43-0.24,2.63-0.24,3.34c0,0,8.83,8.12,10.26,12.89
			c-0.48,0.72,2.21,1.55,2.21,2.74c0,0.48-5.79,1.32-2.21,1.32c1.67,0,2.39-0.48,3.34-0.48c4.06,0,5.01,4.77,9.31,5.73
			c3.34,0.95,6.44,2.39,9.55,3.58c0.72,0.48,4.06-1.19,5.97-1.19c4.06,0,9.07-0.72,11.7-4.06c2.86-3.58,6.68-4.77,8.35-8.59
			c2.39-2.15,2.92-1.16,2.92-3.07c0-1.19,2.8-2.18,2.56-2.18c-0.72,0-1.43,0.24-1.91,0.24c-0.96,0-1.43-2.15-1.43-2.15
			c0.24,0,0.24-8.83,0.24-11.7c0-0.72-0.72-3.1-0.72-5.25c0-0.95,0.24-1.91,0.48-2.63c0.48-2.15,0.56-2.75,0.56-6.33
			c0-1.43-0.48-1.91-0.72-1.91c-0.72,0,0.64-2.51-0.56-2.51c-0.48,0-0.72-0.72-0.72-0.95c0-1.91,0.72-3.34,0.72-5.25
			c0-1.91-1.43-3.58-1.43-5.25c0-4.06-7.41-5.38-7.41-7.76c0-1.19,0.48-2.15,4.53-2.15c1.91,0,12.67,2.04,18.87,2.04
			C1342.3,260.8,1352.08,258.63,1354.46,258.63z"/>
		<path class="st1" d="M1492.58,335.51c0,1.67,0.24,4.3,0.24,6.68c0,2.86-0.24,5.49-2.15,5.49c-2.86,0-6.44-2.63-9.78-5.73
			c-3.34-3.1-4.77-4.06-9.31-9.07c-3.58-3.82-11.69-10.26-11.69-13.61c0-1.67-1.66-3.55-2.61-3.55c-2.15,0-0.97-0.75-3.6-0.75
			c-0.72,0-2.15-2.15-2.15-2.39c0-0.96-5.01-9.79-5.25-9.79c-3.82,0-12.17-10.26-14.8-14.56c-0.96,0-3.58-2.15-3.58-4.3
			c0-0.96,2.02-3.47,0.35-3.71l-2.5-1.54c-2.15,0-4.06-0.96-4.3-1.91c0,0-2.78-2.09-2.78-3.04c0-3.1-2.47-2.21-2.71-2.45
			c-1.67-1.67-1.91-2.63-2.62-3.34c-2.87-2.86-6.92-5.97-6.92-7.64c0-1.19-0.09-2.27-0.09-2.98c0-0.96-0.48-1.19-1.19-1.19
			c-1.43,0-0.39-0.36-2.3-0.36c-0.72,0-1.43-0.24-1.91-0.96c-7.16-7.64-10.98-13.37-12.89-15.04c0,0,0.72,3.34,0,6.21
			c0,1.43-1.18-0.23-1.18,1.44c0,1.19-0.25,1.9-0.25,1.9c0.96,0.24,1.91,0.48,1.91,7.64c0,1.91-0.88,2.72-0.88,3.67
			c0,1.19,0.65,0.86,0.65,5.64c0.24,11.46-1.6,9.47-1.6,13.29c0,2.39,1.6,0.08,1.6,1.51c0.24,8.35-0.98,6.24-0.98,8.62
			c0.48,2.39,1.69,4.03,1.69,5.7c0,2.63,1.19,8.36,0.72,12.65c-0.24,2.63,0.24,6.92,0.24,10.5c0,3.1-1.22,2.21-1.22,4.36
			c0,2.63,2.17,1.85,2.41,3.76c0.24,0.24-0.24,2.15-0.24,2.39c1.19,3.58,5.15,6.35,5.15,8.49c0,1.19,0,2.15-2.87,2.15
			c-1.43-0.24-10.4-2.29-14.46-2.29c-2.39,0-7.35,1.66-10.21,1.66c-1.19,0-2.39,0-2.39-1.67s5.68-9.54,5.68-12.88
			c0.72-2.63,2.47-4.93,2.47-5.65c-0.24-1.43-1.04-1.99-1.04-7.24c0-7.4,1.67-8.35,1.67-12.89c0-3.1-0.95-8.83-0.95-10.74
			c0-2.63,0.95-5.73,0.95-8.12c0-7.4-0.24-7.4-0.24-10.26c0-2.15,0.24-6.92,0.24-10.74c0-11.22,1.19-12.41,1.19-22.44
			c0-1.43-1.19-2.63-1.19-4.77c0-7.16,1.19-2.86,1.19-8.35c0-2.63,1.84-3.95,1.84-3.95c0-2.63,0.07-3.21-1.36-4.64
			c-0.48-0.48-0.72-2.39-0.72-5.01c0-5.25,0.72-13.61,0.72-18.86c0-3.34,0.72-7.88,3.34-7.88c2.39,0,10.03,4.06,13.13,8.59
			c1.43,2.15-0.67,1.08,0.76,2.99c0.24,0.24,0.72,0.48,1.19,0.48c0.96,0,4.01,4.41,4.97,4.41c0.48,0,0.96,0.24,1.19,0.48
			c7.16,8.12,8.59,10.26,8.59,10.74c0.48,0.72,1.43,1.91,1.43,3.34c0,1.19-2.15,3.34-3.58,3.34c-3.58,0,0.05-4.32,0.05-3.6
			c0,0.95,1.91,1.91,4.3,1.91c0.96,0,1.67,0,2.63-0.48c2.15,0-0.77,4.08,1.86,4.08c0.72,0,0.72,4.77,0.72,6.21
			c0,0.48,0.48,0.72,1.19,0.72c0.96,0,1.91-0.24,2.63-0.24c2.87,0,10.03,9.07,11.46,10.74c1.67,2.15,8.59,6.92,9.79,11.22
			c0.96,5.49,4.06,3.1,10.98,12.41c5.49,7.16,6.68,6.44,7.64,9.55c0.24,0.48,2.86,3.34,2.86,3.82c0,2.39-1.53,0.14-1.53,0.61
			c0,0.95,0.96,1.43,2.63,1.43c0.72,0-0.38,5.36,0.58,5.12c0.48,0,1.19-1.91,1.67-1.91c2.86,0,6.44,2.63,12.17,10.98
			c0.95-0.48,1.19-1.67,1.19-2.63c0-1.67-0.72-3.58-0.72-5.01c0-1.19,0.24-2.63,0.24-3.82c0-3.82-0.48-5.97-0.48-8.83
			c0-2.39-0.48-4.3,0.48-5.49c0.72-0.72,0.38-2.55,0.38-3.75c0-2.39-0.62-4.61-0.62-10.58c0-2.15,1.06-4.03,1.06-5.94
			c0-1.91-1.3-4.33-1.3-4.8c0-4.06,0.72-11.46,0.72-12.65c0.24-1.43,1.25-1.33,1.25-3.24c0-2.15-1.25-0.58-1.25-3.68
			c0-2.15-0.48-2.63-0.48-7.64c0-1.91-0.48-0.48-0.72-7.4c-0.48-7.88-7.47-11.42-7.47-13.81c0-0.96,0.72-1.67,1.91-1.67
			c0.24,0,0.72,0.24,0.96,0.24c2.86,0.72,8.18,1.64,9.61,1.64c1.43,0,14.26-1.58,15.69-1.58c0.72,0,2.15,0,2.15,1.67
			s-4.71,4.92-5.66,9.22c-0.72,3.58-1.67,5.49-1.67,8.59c0,1.19-2,4-2,4.96c0,1.67,2.23,1.73,2.23,3.4c0,6.68-0.72,14.8-0.95,16.71
			c-0.48,2.15-1.28,5.84-1.28,6.31c0,0.96,1.28,3.23,1.28,10.63v16.47c0,2.63-1.13,4.67-1.13,5.63c0,2.39,0.65,2.73,0.65,5.83
			c0,3.34-0.72,10.5-0.72,12.17c0,3.34,0.24,3.34,0.24,6.44c-0.24,1.43-0.55,4.87-0.25,6.67c0.8,4.84-3.81,3.6-2.85,3.6
			c1.91,0,3.1,1.67,3.1,2.86c0,0.48,0.48,9.79,0.48,16.47c0,3.34,0,5.97-0.48,6.68C1492.58,333.84,1492.58,334.55,1492.58,335.51z"
			/>
		<path class="st1" d="M1522,341.82h-4.06c-1.43,0-3.1-1.19-3.1-3.34c0-2.63,6.41-10.59,6.41-14.89c0-4.06,2.49-7.77,2.96-7.77
			c1.19,0-0.58-1.06-0.58-10.13c0-2.63,0.48-2.86,0.48-4.06c0-3.58-1.43-7.16-1.43-8.12v-5.97c0-1.19,0.48-4.77,0.48-7.16
			c0-2.86-0.48-4.54-0.48-9.07c0.24-4.77-0.24-10.03,1.91-12.65c2.15-2.39,0.23,0.09,0.23-2.29c0-0.48-0.72-0.72-1.19-0.72
			c-0.72,0,2.88-2.24,1.92-2.24c-2.87,0-3.34-4.77-3.34-6.44c0-1.19,0.24-2.63,0.24-4.54c0-9.79,1.91-10.26,1.91-12.41
			c0-2.63-1.19-5.01-1.19-6.21c0-4.3-0.48-5.73-0.48-8.83c0-1.19,0.24-2.86,0.24-4.3c0-11.22-8.52-17.26-8.52-19.89
			c0-2.39,2.63-2.86,4.77-2.86c3.82,0,9.84,2.45,13.19,2.45c0.72,0,7.29,2.01,8.48,2.01c0.24,0,0.48-0.24,0.72-0.48
			c2.62-1.43,8.93-3.99,18.24-3.99c1.43,0,5.01,0,5.01,3.34c0,0.48-3.08,6.43-5.94,6.43c-1.43,0-1.36,5.06-2.79,5.06
			c-3.1,0,1.21,0.53,1.21,2.67c0,1.67-1.21-0.05-1.21,3.05c0,0.24,0.48,1.43,1.19,1.43l-5.23,1.01c3.34,0,5.49,0.24,5.49,1.91
			c0,0.96-0.96,2.86-0.96,4.3c0,3.34,1.43,6.21,1.43,6.92c0,0.72-1.71,2.12-1.71,5.46c0,0.48,0.24,0.72,0.96,0.72
			c0.95,0-2.34,3.86-1.39,3.86c1.43,0,1.42,4.52,1.42,5.24c0,3.1-0.72,3.58-0.72,4.77s1.19,4.54,1.19,5.49
			c0,3.34-1.36,5.22-1.36,6.89c0,3.34,1.12,2.42,1.12,7.43c0,5.97-1.43,7.16-1.43,8.83c0,2.86,1.43,4.77,1.43,6.44
			c0-0.72-0.96,5.49-3.58,5.49c-0.24,0,3.36,1.63,3.12,1.63c-1.91,0-1.93,3.38-0.73,3.38c0.95,0,1.67,0.72,1.67,1.67
			c0,4.3-3.6,5.74-1.93,5.74s-1.41,1.19-0.7,1.19c2.39,0,2.62,3.82,2.62,10.26c-0.48,5.25-2.86,5.01-2.86,7.16
			c0,1.67,2.63,4.3,2.86,6.68c0,5.73,6.41,10.53,6.88,11.96c0.72,1.43,0.96,2.63,0.96,3.58c0,2.63-4.06,2.86-7.64,2.86
			c-6.92,0-14.74-2.18-17.37-2.66C1537.26,338.15,1526.54,341.82,1522,341.82z"/>
		<path class="st1" d="M1829.01,334.78c-1.91-1.2-8.73-4.06-9.44-6.45c-1.67-6.21-3.35-4.78-5.5-9.32
			c-1.19-2.39-1.43-4.54-2.63-4.54c-2.39,0,0.68-1.77-1.47-1.77c-0.48,0,0.41-3.13-1.62-2.35c-1.79,0.68-0.26-1.62-0.26-2.81
			c0-1.2-0.48-3.35-1.67-3.35c-2.15,0-4.03,0.31-1.89-0.75c2.38-1.17-1.62-2.02-1.62-2.5c0-1.43-0.32-2.49-0.32-4.16
			c0-1.63-0.99-2.82-1.62-4.23c-0.35,0.26-0.79,0.44-1.33,0.48c-1.24,0.08-2.85,0.94-4.01,1.4c-1.67,0.66-3.25,1.21-4.99,1.67
			c-1.65,0.44-3.16,1.23-4.83,1.58c-1.7,0.36-3.37,0.89-5.08,1.17c-3.65,0.59-7.55,0.45-11.24,0.48c-0.77,0.01-1.53,0-2.29,0
			c0.01,0.03,0.01,0.06,0.02,0.09c0.96,3.11,2.87,5.26,2.87,5.26c0,3.11,2.87,9.08,2.87,9.8c0,0.96,0.21-0.15,1.96,2.97
			c0.48,0.24,2.04,0.21,0.99,1.43c-0.94,1.09,0.16,3.72,0.16,5.88c0,2.39,0.96,5.02,0.96,7.17c-0.48,3.11-3.93,4.06-4.41,5.5
			c0,1.43,0.72,2.63,1.91,2.63c4.78,0,21.14-2.39,24.49-2.39c0.48,0.48,2.15,0.72,4.3,0.72c2.15,0,4.54-0.24,6.22-0.24h1.19
			c2.63,0.24,11.6,1.91,13.75,1.91c1.43,0,6.45,0,6.45-2.15C1830.92,336.7,1829.96,335.5,1829.01,334.78z"/>
		<path class="st1" d="M1769.49,294.46c1.91-0.01,3.83-0.12,5.74-0.14c1.71-0.02,3.44,0.04,5.11-0.33c1.72-0.38,3.51-0.74,5.2-1.24
			c1.58-0.46,3.04-1.15,4.65-1.52c3.02-0.68,5.8-2.59,8.88-2.98c0.47-0.27,1.16-0.73,2.33-1.51c1.19-0.96,5.74-5.5,5.98-8.13
			c0-0.96-0.95-1.67-1.91-1.67c-2.63,0-5.98,2.87-9.8,2.87c-0.3,0-0.52-0.08-0.69-0.2c-3.51,0.23-7,0.91-10.51,1.21
			c-3.63,0.31-7.31,0.44-10.95,0.27c-3.68-0.17-7.42-0.65-10.91-1.84c-0.96-0.33-1.9-0.68-2.83-1.04c0.1,0.22,0.19,0.44,0.28,0.64
			c-0.72,0-6.21-2.39-6.93-2.39c-1.43,0-2.15-2.15-7.89-4.06c-1.44-0.24-2.63-0.48-3.83-0.48c-0.96,0-1.67,0.24-2.15,0.24
			c-0.24,0,0-0.24-0.24-0.48c-8.13-5.02-13.63-6.45-14.1-6.45c1.43-4.06,1.67-2.15,1.67-5.74c0-3.59,1.67-3.11,1.67-6.69
			c0-3.59,3.58-7.17,5.74-16.49c0.95-4.54,2.63-7.65,2.87-7.65c0,0,2.15,2.15,3.35,5.5c1.67,3.83,1.91,3.59,3.82,6.93
			c0.48,0.96,0.72,1.43,0.72,1.91c0,0.72-0.96,0.96-0.96,1.44c0,0.48,0.24,1.2,0.96,2.15c0.48,0.72,1.43,0.96,2.15,0.96
			c2.15,0,1.38,2.1,2.58,2.1c0,1.2,1.01,4.11,0.77,5.78c0.72,3.83,5.02,9.32,5.02,11.95c0,0.79,0.75,2.66,1.69,4.76
			c0.85,0.25,1.71,0.46,2.52,0.8c1.57,0.67,3.18,1.24,4.81,1.77c3.27,1.06,6.68,1.46,10.1,1.56c3.5,0.11,7.04-0.02,10.53-0.35
			c3.24-0.3,6.47-0.9,9.71-1.14c-0.65-1.65-2.23-5.3-4.23-10.75c-1.43-4.06-3.58-8.13-4.06-8.61c-0.95-1.67-1.67-2.15-2.63-2.15
			l-1.67-6.87c-0.48,0-3.11,5.43-3.11,4.72c0-2.87,1.43-3.11,1.43-5.74c0-0.96,0.24-2.15,0.24-3.59s-0.24-2.87-1.2-4.3
			c-1.91-2.87-3.35-6.22-4.54-8.85c-0.72-1.91-1.91-2.15-3.11-2.15l-0.45-3.32c-0.48,0-1.7,3.08-1.94,2.84
			c-0.24-0.48,1.91-3.59,1.91-4.06v-0.43c0,0.01,0-0.01,0-0.03v-0.26c-0.72-2.15-2.39-4.3-3.82-6.45c-1.2-2.63-0.72-1.91-2.39-5.02
			c-2.63-5.5-3.58-4.28-3.82-5.47c0-1.91,0.48-1.46,0.48-3.61c0-0.24-1.91-1.91-2.15-2.39c-2.63-5.5-2.63-5.98-5.5-9.56
			c-2.15-2.87-5.02-4.54-6.22-4.54c-4.06,0-8.61,6.93-9.8,12.67c-2.87,6.21-7.65,19.12-7.65,19.12c-0.96,2.63-1.43,7.41-3.11,10.76
			c-0.24,0.48-0.48,0.96-0.48,1.44c0,1.91-0.93,3.62-0.93,5.3c0,0.24,2.36,0.44,2.36,0.68c-1.2,1.67-5.26,1.91-5.74,3.35
			c-1.43,3.82-3.59,9.56-3.59,13.39c0,1.44-2.15,2.39-2.63,3.59c-0.95,1.67-2.15,5.26-2.15,7.41c-4.06,0-7.89,0.48-10.28,0.48
			c-8.37,0-14.58,5.98-14.58,7.89c0,1.43-1.17,2.73-1.17,3.21c-0.48,2.39-1.22,0.62-3.37,3.01c-1.67,1.91-3.83,5.98-3.83,7.41
			c0,1.67,0.72,2.39,1.67,2.39c0.48,0,2.87-1.91,5.02-3.11c2.63-1.91,9.8-3.11,12.43-3.11c5.02,0,5.26,0.72,5.26,2.15
			c-0.72,2.87-3.82,7.17-4.54,9.8c0,1.67-1.67,5.02-4.54,12.67c-0.72,1.2-0.95,5.98-1.19,6.93c-1.67,3.35-3.11,3.11-3.35,4.3
			c-1.19,4.3-5.5,12.43-5.98,13.39l-7.25,8.13c-0.24,0.48-0.48,0.96-0.48,1.43c0,0.72,0.48,1.2,0.96,1.2c1.91,0,7.73-1.2,11.56-1.2
			c2.63,0,11.3,1.2,13.93,1.2c0.95,0,1.91-0.72,1.91-1.2c0-3.35-2.94-5.02-2.94-7.41c0-1.43,0.72-5.26,0.72-5.98
			c0-2.63-1.08-3.43-1.08-4.39c0-2.39,1.31-1.59,1.55-2.78c1.2-3.59,0-4.06,1.91-9.32c0.95-2.87,3.11-5.98,3.11-6.45
			c0-0.96-1.58-0.68,0.04-3.05c1.48-2.16,1.39-1.97,2.11-3.17c1.91-4.54,1.91-7.65,4.54-13.15c7.89,2.15,11.72,5.74,16.5,5.74
			c5.5,0,7.89,2.39,12.19,2.39c0.24,0,1.19-0.48,1.19-1.2c0-1.2,1.63,0.71,2.35,0.71c2.63,0,2.43,1.2,6.98,1.92
			c1.05,0.35,5.01,1.2,7.36,1.74C1765.07,294.45,1767.28,294.47,1769.49,294.46z"/>
		<path class="st1" d="M1618.88,339.6l-9.44,1.08c-1.19,0-1.67-0.72-1.67-1.67c0-0.96,0.48-1.91,0.96-3.1
			c2.15-3.58,6.81-8.24,6.81-12.54c0-1.19,0.96-4.3,0.96-6.45c0-2.87,2.86-2.87,2.86-5.01c-0.24-0.24-3.1-2.15-3.1-4.06
			c0-4.54,3.99-5.01,2.08-5.01c-0.72,0-0.95-0.24-1.43-0.24c-1.19,0,1.74-4.3,0.78-4.3c-1.43,0-2.15-3.58-2.15-4.78
			c0-0.48,1.19-15.52,1.19-19.82c0-0.72,1.27-1.42,1.27-3.57c0-1.19-2.47-3.35-2.47-13.14c0-2.63,0.48-3.58,1.19-3.58
			c0.95,0,0.76-0.37,1.96-0.37c0.72,0-1.23-1.06-1.23-1.3c0-1.67,1.19-0.24,1.19-1.92c-1.43-3.82-2.63-5.25-2.63-10.98
			c0-8.12,1.88-7.64,1.88-10.74c0-0.48-1.4-2.87-1.4-5.49c0-3.1,0-4.3,0.48-6.92c0-0.24,1.43-0.72,1.43-0.96
			c0-1.19-1.91-1.67-1.91-5.01c0-6.92-1.91-8.12-11.7-8.12c-3.58,0-9.07,0.48-10.5,0.24c-2.15-0.24-2.15-2.39-3.82-2.39
			c-1.43,0-1.19,4.54-3.34,5.25c-4.06,1.67-10.74,8.12-13.13,8.12c-2.63,0-2.87-1.91-2.87-3.82c0-1.67,2.63-9.31,2.63-9.31
			c0-4.3-2.12-9.51-2.12-11.42c0-1.43,1.19-2.39,2.39-2.39c2.86,0,11.2,5.22,15.02,5.22c0,0,4.3-1.19,9.31-1.19
			c0.72,0,0.96,0,0.96,0.24c0,0.48-0.48,1.19-0.48,1.43c0,0,1.67-0.61,2.15-0.61c3.82-0.72,8.12-1.54,15.52-1.54
			c0.48,0,14.09,0.72,18.15,1.67c1.91,0,9.31-0.72,12.66-0.96c2.15,0,5.97,0.24,9.31,0.24c3.82,0,10.03-0.72,18.86-0.72
			c2.62,0.24,5.73,0.48,9.31,0.48c4.3,0,6.45-5.05,10.27-5.05c2.15,0,2.15,1.19,2.15,2.15c0,1.19-2.15,9.11-2.15,11.97
			c0,0.48,2.63,9.55,2.63,10.03c0,1.91-1.91,2.87-2.86,2.87c-3.11,0-4.3-3.82-13.61-8.12c-1.67-0.72-11.94-1.43-12.89-2.39
			c-2.22-1.39-3.61,0.01-3.61,0.01c-0.48,0-0.45-2.64-0.92-2.16c-3.58,3.58-8.36,2.63-10.75,3.58c-0.48,0.24-2.62,8.83-2.62,9.31
			c0,0.72,0.24,0.96,0.24,1.67s-0.95,2.87-1.91,2.87c-0.48,0-0.96-0.48-1.67-0.48c-0.48,0,2,1.69,2,2.64c0,2.63,2.06-2.88,2.06,9.06
			c0,1.91-0.24,3.58-0.48,4.78c-1.19,3.82-2.02,3.01-2.02,5.88c0,0.24-0.39,2.75,0.33,2.75c3.1,0-1.43,3.24,0,3.24
			c1.19,0,0.97,2.76,0.97,3.48c0,2.15-1.53,1.93-1.53,4.07c0.72,1.19,2.24-1.03,2.24,8.28c0,7.16-0.42,13.47-2.86,16.94
			c1.55,1.27,2.15,3.83,2.15,11.24c0,5.49-0.72,7.4-0.72,8.83c0,1.43,1.19,2.87,1.19,3.82c0,1.91-0.72,3.82-0.72,8.83
			c0,10.03-0.98,6.21-1.17,9.31c-0.07,1.19-0.54,0.34-0.23,2.39c0.26,1.72,2.35,0,2.35,1.91c0,8.36,8.65,11.11,8.65,13.97
			c0,2.63-2.39,2.86-5.01,2.86l-7.22-0.6c-4.3-0.24-10.27-2.77-13.37-2.77C1631.29,337.3,1624.61,339.6,1618.88,339.6z"/>
		<g>
			<path class="st1" d="M799.13,334.78c-1.91-1.2-8.73-4.06-9.44-6.45c-1.67-6.21-3.35-4.78-5.5-9.32
				c-1.19-2.39-1.43-4.54-2.63-4.54c-2.39,0,0.68-1.77-1.47-1.77c-0.48,0,0.41-3.13-1.62-2.35c-1.79,0.68-0.26-1.62-0.26-2.81
				c0-1.2-0.48-3.35-1.67-3.35c-2.15,0-4.03,0.31-1.89-0.75c2.38-1.17-1.62-2.02-1.62-2.5c0-1.43-0.32-2.49-0.32-4.16
				c0-1.63-0.99-2.82-1.62-4.23c-0.35,0.26-0.79,0.44-1.33,0.48c-1.24,0.08-2.85,0.94-4.01,1.4c-1.67,0.66-3.25,1.21-4.99,1.67
				c-1.65,0.44-3.16,1.23-4.83,1.58c-1.7,0.36-3.37,0.89-5.08,1.17c-3.65,0.59-7.55,0.45-11.24,0.48c-0.77,0.01-1.53,0-2.29,0
				c0.01,0.03,0.02,0.06,0.02,0.09c0.96,3.11,2.87,5.26,2.87,5.26c0,3.11,2.87,9.08,2.87,9.8c0,0.96,0.21-0.15,1.96,2.97
				c0.48,0.24,2.04,0.21,0.99,1.43c-0.94,1.09,0.16,3.72,0.16,5.88c0,2.39,0.96,5.02,0.96,7.17c-0.48,3.11-3.93,4.06-4.41,5.5
				c0,1.43,0.72,2.63,1.91,2.63c4.78,0,21.14-2.39,24.49-2.39c0.48,0.48,2.15,0.72,4.3,0.72c2.15,0,4.54-0.24,6.22-0.24h1.19
				c2.63,0.24,11.6,1.91,13.75,1.91c1.43,0,6.45,0,6.45-2.15C801.04,336.7,800.08,335.5,799.13,334.78z"/>
			<path class="st1" d="M739.6,294.46c1.91-0.01,3.83-0.12,5.74-0.14c1.71-0.02,3.44,0.04,5.11-0.33c1.72-0.38,3.51-0.74,5.2-1.24
				c1.58-0.46,3.04-1.15,4.65-1.52c3.02-0.68,5.8-2.59,8.88-2.98c0.47-0.27,1.16-0.73,2.33-1.51c1.19-0.96,5.74-5.5,5.98-8.13
				c0-0.96-0.95-1.67-1.91-1.67c-2.63,0-5.98,2.87-9.8,2.87c-0.3,0-0.52-0.08-0.69-0.2c-3.51,0.23-7,0.91-10.51,1.21
				c-3.63,0.31-7.31,0.44-10.95,0.27c-3.68-0.17-7.42-0.65-10.91-1.84c-0.96-0.33-1.9-0.68-2.83-1.04c0.1,0.22,0.19,0.44,0.28,0.64
				c-0.72,0-6.21-2.39-6.93-2.39c-1.43,0-2.15-2.15-7.89-4.06c-1.44-0.24-2.63-0.48-3.83-0.48c-0.96,0-1.67,0.24-2.15,0.24
				c-0.24,0,0-0.24-0.24-0.48c-8.13-5.02-13.63-6.45-14.1-6.45c1.43-4.06,1.67-2.15,1.67-5.74c0-3.59,1.67-3.11,1.67-6.69
				c0-3.59,3.58-7.17,5.74-16.49c0.95-4.54,2.63-7.65,2.87-7.65c0,0,2.15,2.15,3.35,5.5c1.67,3.83,1.91,3.59,3.82,6.93
				c0.48,0.96,0.72,1.43,0.72,1.91c0,0.72-0.96,0.96-0.96,1.44c0,0.48,0.24,1.2,0.96,2.15c0.48,0.72,1.43,0.96,2.15,0.96
				c2.15,0,1.38,2.1,2.58,2.1c0,1.2,1.01,4.11,0.77,5.78c0.72,3.83,5.02,9.32,5.02,11.95c0,0.79,0.75,2.66,1.69,4.76
				c0.85,0.25,1.71,0.46,2.52,0.8c1.57,0.67,3.18,1.24,4.81,1.77c3.27,1.06,6.68,1.46,10.1,1.56c3.5,0.11,7.04-0.02,10.53-0.35
				c3.24-0.3,6.47-0.9,9.71-1.14c-0.65-1.65-2.23-5.3-4.23-10.75c-1.43-4.06-3.58-8.13-4.06-8.61c-0.95-1.67-1.67-2.15-2.63-2.15
				l-1.67-6.87c-0.48,0-3.11,5.43-3.11,4.72c0-2.87,1.43-3.11,1.43-5.74c0-0.96,0.24-2.15,0.24-3.59s-0.24-2.87-1.2-4.3
				c-1.91-2.87-3.35-6.22-4.54-8.85c-0.72-1.91-1.91-2.15-3.11-2.15l-0.45-3.32c-0.48,0-1.7,3.08-1.94,2.84
				c-0.24-0.48,1.91-3.59,1.91-4.06v-0.43c0,0.01,0-0.01,0-0.03v-0.26c-0.72-2.15-2.39-4.3-3.82-6.45c-1.2-2.63-0.72-1.91-2.39-5.02
				c-2.63-5.5-3.58-4.28-3.82-5.47c0-1.91,0.48-1.46,0.48-3.61c0-0.24-1.91-1.91-2.15-2.39c-2.63-5.5-2.63-5.98-5.5-9.56
				c-2.15-2.87-5.02-4.54-6.22-4.54c-4.06,0-8.61,6.93-9.8,12.67c-2.87,6.21-7.65,19.12-7.65,19.12c-0.96,2.63-1.43,7.41-3.11,10.76
				c-0.24,0.48-0.48,0.96-0.48,1.44c0,1.91-0.93,3.62-0.93,5.3c0,0.24,2.36,0.44,2.36,0.68c-1.2,1.67-5.26,1.91-5.74,3.35
				c-1.43,3.82-3.59,9.56-3.59,13.39c0,1.44-2.15,2.39-2.63,3.59c-0.95,1.67-2.15,5.26-2.15,7.41c-4.06,0-7.89,0.48-10.28,0.48
				c-8.37,0-14.58,5.98-14.58,7.89c0,1.43-1.17,2.73-1.17,3.21c-0.48,2.39-1.22,0.62-3.37,3.01c-1.67,1.91-3.83,5.98-3.83,7.41
				c0,1.67,0.72,2.39,1.67,2.39c0.48,0,2.87-1.91,5.02-3.11c2.63-1.91,9.8-3.11,12.43-3.11c5.02,0,5.26,0.72,5.26,2.15
				c-0.72,2.87-3.82,7.17-4.54,9.8c0,1.67-1.67,5.02-4.54,12.67c-0.72,1.2-0.95,5.98-1.19,6.93c-1.67,3.35-3.11,3.11-3.35,4.3
				c-1.19,4.3-5.5,12.43-5.98,13.39l-7.25,8.13c-0.24,0.48-0.48,0.96-0.48,1.43c0,0.72,0.48,1.2,0.96,1.2c1.91,0,7.73-1.2,11.56-1.2
				c2.63,0,11.3,1.2,13.93,1.2c0.95,0,1.91-0.72,1.91-1.2c0-3.35-2.94-5.02-2.94-7.41c0-1.43,0.72-5.26,0.72-5.98
				c0-2.63-1.08-3.43-1.08-4.39c0-2.39,1.31-1.59,1.55-2.78c1.2-3.59,0-4.06,1.91-9.32c0.95-2.87,3.11-5.98,3.11-6.45
				c0-0.96-1.58-0.68,0.04-3.05c1.48-2.16,1.39-1.97,2.11-3.17c1.91-4.54,1.91-7.65,4.54-13.15c7.89,2.15,11.72,5.74,16.5,5.74
				c5.5,0,7.89,2.39,12.19,2.39c0.24,0,1.19-0.48,1.19-1.2c0-1.2,1.63,0.71,2.35,0.71c2.63,0,2.43,1.2,6.98,1.92
				c1.05,0.35,5.01,1.2,7.36,1.74C735.19,294.45,737.4,294.47,739.6,294.46z"/>
		</g>
	</g>
</g>
</svg>
