<?xml version="1.0" encoding="utf-8"?>
<!-- Generator: Adobe Illustrator 25.2.1, SVG Export Plug-In . SVG Version: 6.00 Build 0)  -->
<svg version="1.1" id="Logos" xmlns="http://www.w3.org/2000/svg" xmlns:xlink="http://www.w3.org/1999/xlink" x="0px" y="0px"
	 viewBox="0 0 1000 1000" style="enable-background:new 0 0 1000 1000;" xml:space="preserve">
<style type="text/css">
	.st0{fill:#E7FF00;}
</style>
<g>
	<path class="st0" d="M567.5,408c0,0-9,13.2-3,13.2c0.9,0,1.7-0.2,2.5-0.5c5.2-1.9,9.9-5,13.5-9.2C576.5,410.7,573.4,408,567.5,408z
		 M574,320.2c-11.7,0,9.2,40.3,11.2,40.3c0.1,0,0.1-0.1,0.1-0.3c0-3.6,0.6-12.4,1.3-22.7C584.2,327.8,580.2,320.2,574,320.2z
		 M574,320.2c-11.7,0,9.2,40.3,11.2,40.3c0.1,0,0.1-0.1,0.1-0.3c0-3.6,0.6-12.4,1.3-22.7C584.2,327.8,580.2,320.2,574,320.2z
		 M567.5,408c0,0-9,13.2-3,13.2c0.9,0,1.7-0.2,2.5-0.5c5.2-1.9,9.9-5,13.5-9.2C576.5,410.7,573.4,408,567.5,408z M567.5,408
		c0,0-9,13.2-3,13.2c0.9,0,1.7-0.2,2.5-0.5c5.2-1.9,9.9-5,13.5-9.2C576.5,410.7,573.4,408,567.5,408z M574,320.2
		c-11.7,0,9.2,40.3,11.2,40.3c0.1,0,0.1-0.1,0.1-0.3c0-3.6,0.6-12.4,1.3-22.7C584.2,327.8,580.2,320.2,574,320.2z M574,320.2
		c-11.7,0,9.2,40.3,11.2,40.3c0.1,0,0.1-0.1,0.1-0.3c0-3.6,0.6-12.4,1.3-22.7C584.2,327.8,580.2,320.2,574,320.2z M567.5,408
		c0,0-9,13.2-3,13.2c0.9,0,1.7-0.2,2.5-0.5c5.2-1.9,9.9-5,13.5-9.2C576.5,410.7,573.4,408,567.5,408z M574,320.2
		c-11.7,0,9.2,40.3,11.2,40.3c0.1,0,0.1-0.1,0.1-0.3c0-3.6,0.6-12.4,1.3-22.7C584.2,327.8,580.2,320.2,574,320.2z M567.5,408
		c0,0-9,13.2-3,13.2c0.9,0,1.7-0.2,2.5-0.5c5.2-1.9,9.9-5,13.5-9.2C576.5,410.7,573.4,408,567.5,408z M871.1,150.9
		c0-4.5-2.2-7.2-12.9-7.2c-17.2,0-20.4,39.1-63.4,39.1c-12,0-33.3-2.3-95-2.6c0.5,1.1,1,2.5,1.7,4.3c0.8,2.1,1.5,4.3,1.9,6.5
		c4,5.1,12.2,15.8,17.1,22.8l0.5,0.8l0.4,0.9c0.2,0.4,0.4,0.8,0.7,1.3l0.1,0.2l0.1,0.2c1.3,2.6,2.8,5.3,4.5,8.3v0.1v0.1
		c1.4,2.8,2.6,5.8,3.4,8.9c0.5,1.6,1.3,4.1,1.8,5.1c22.8,0.6,32.5,3.3,55.3,13c7.5,0,48.3,22.8,54.8,28.1c4,3.9,9.4,6.1,15,6.2
		c6.5,0,11.8-3.5,12.9-8.8c0-2.6,1.1-4.4,1.1-7c0-16.7-9.7-61.4-9.7-73.1C861.5,187.1,871.1,161.8,871.1,150.9z M567.5,408
		c0,0-9,13.2-3,13.2c0.9,0,1.7-0.2,2.5-0.5c5.2-1.9,9.9-5,13.5-9.2C576.5,410.7,573.4,408,567.5,408z M574,320.2
		c-11.7,0,9.2,40.3,11.2,40.3c0.1,0,0.1-0.1,0.1-0.3c0-3.6,0.6-12.4,1.3-22.7C584.2,327.8,580.2,320.2,574,320.2z M574,320.2
		c-11.7,0,9.2,40.3,11.2,40.3c0.1,0,0.1-0.1,0.1-0.3c0-3.6,0.6-12.4,1.3-22.7C584.2,327.8,580.2,320.2,574,320.2z M567.5,408
		c0,0-9,13.2-3,13.2c0.9,0,1.7-0.2,2.5-0.5c5.2-1.9,9.9-5,13.5-9.2C576.5,410.7,573.4,408,567.5,408z M413.5,614.9L413.5,614.9
		c0,1.2,11.6,5,18.9,7.7C426.9,619.8,418.6,615.8,413.5,614.9z M432.4,622.5c3.1,1.5,5.3,2.7,5.5,2.7
		C438.5,624.9,436,623.9,432.4,622.5z M440,689.5c-0.2,0-1.1,1.1-2.5,2.9C439.3,691.2,440,690.5,440,689.5
		C440,689.5,440,689.5,440,689.5z M434.5,694.6c0.3,0.2,0.7,0.4,1,0.6l2.1-2.8C436.8,693,435.7,693.7,434.5,694.6L434.5,694.6z
		 M440,689.5c-0.2,0-1.1,1.1-2.5,2.9C439.3,691.2,440,690.5,440,689.5C440,689.5,440,689.5,440,689.5z M432.4,622.6
		c3.1,1.5,5.3,2.7,5.5,2.7C438.5,624.9,436,623.9,432.4,622.6L432.4,622.6z M413.5,614.9L413.5,614.9c0,1.2,11.6,5,18.9,7.7
		C426.9,619.8,418.6,615.8,413.5,614.9L413.5,614.9z M413.5,614.9L413.5,614.9c0,1.2,11.6,5,18.9,7.7
		C426.9,619.8,418.6,615.8,413.5,614.9L413.5,614.9z M432.4,622.6c3.1,1.5,5.3,2.7,5.5,2.7C438.5,624.9,436,623.9,432.4,622.6
		L432.4,622.6z M440,689.5c-0.2,0-1.1,1.1-2.5,2.9C439.3,691.2,440,690.5,440,689.5C440,689.5,440,689.5,440,689.5z M481,839.6
		c0-5.3,0.9-10.6,1.8-16.7c1.8-8.8,3.5-18.5,3.5-26.4c-0.1-1.6-0.3-3.2-0.7-4.7h-3.9c-15.8-0.4-23.8-4.3-30.1-7.5
		c-5.1-2.5-8.4-4.1-16.4-4.2c-4.5-0.1-8.9-0.5-13.3-1.2c-2.3-0.4-4.5-0.8-6.6-1.3l-2.8-0.6c-1.5,9.7-4.3,22.9-4.3,24.8
		c0,3.5,2.6,6.9,6.2,8.9c-2,12.5-8.5,14.6-11.5,17.5c-3.5,2.6-3.5,5.3-3.5,7.9l-5.8,6c0,3.5-9.5,10.2-18.8,16.6
		c-6.2,4.2-37.7,16.3-37.7,25.8s11.4,15.6,19.3,15.6c27.2,0,104.6-12.1,117.7-12.1c7,0,9.7-8.8,9.7-19.3c0-3.5,0-7.9-0.9-11.4
		C481.9,851,481,844.8,481,839.6z M434.5,694.6c0.3,0.2,0.7,0.4,1,0.6l2.1-2.8C436.8,693,435.7,693.7,434.5,694.6z M413.5,614.9
		L413.5,614.9c0,1.2,11.6,5,18.9,7.7C426.9,619.8,418.6,615.8,413.5,614.9L413.5,614.9z M434.5,694.6c0.3,0.2,0.7,0.4,1,0.6l2.1-2.8
		C436.8,693,435.7,693.7,434.5,694.6z M432.4,622.6c3.1,1.5,5.3,2.7,5.5,2.7C438.5,624.9,436,623.9,432.4,622.6L432.4,622.6z
		 M440,689.5c-0.2,0-1.1,1.1-2.5,2.9C439.3,691.2,440,690.5,440,689.5C440,689.5,440,689.5,440,689.5z M440,689.5
		c-0.2,0-1.1,1.1-2.5,2.9C439.3,691.2,440,690.5,440,689.5C440,689.5,440,689.5,440,689.5z M432.4,622.6c3.1,1.5,5.3,2.7,5.5,2.7
		C438.5,624.9,436,623.9,432.4,622.6L432.4,622.6z M413.5,614.9L413.5,614.9c0,1.2,11.6,5,18.9,7.7
		C426.9,619.8,418.6,615.8,413.5,614.9L413.5,614.9z M413.5,614.9L413.5,614.9c0,1.2,11.6,5,18.9,7.7
		C426.9,619.8,418.6,615.8,413.5,614.9L413.5,614.9z M432.4,622.6c3.1,1.5,5.3,2.7,5.5,2.7C438.5,624.9,436,623.9,432.4,622.6
		L432.4,622.6z M440,689.5c-0.2,0-1.1,1.1-2.5,2.9C439.3,691.2,440,690.5,440,689.5C440,689.5,440,689.5,440,689.5z M434.5,694.6
		c0.3,0.2,0.7,0.4,1,0.6l2.1-2.8C436.8,693,435.7,693.7,434.5,694.6L434.5,694.6z M440,689.5c-0.2,0-1.1,1.1-2.5,2.9
		C439.3,691.2,440,690.5,440,689.5C440,689.5,440,689.5,440,689.5z M432.4,622.6c3.1,1.5,5.3,2.7,5.5,2.7
		C438.5,624.9,436,623.9,432.4,622.6L432.4,622.6z M413.5,614.9L413.5,614.9c0,1.2,11.6,5,18.9,7.7
		C426.9,619.8,418.6,615.8,413.5,614.9L413.5,614.9z"/>
	<path class="st0" d="M485.4,473.2c0,12.3-10.5,21.9-10.5,28.1c-0.1,1,0.2,1.9,0.9,2.6c3.5,3.5,9.7,11.4,9.7,17.6
		c0,7.9-6.1,32.1-6.1,47c0,13.2,2.6,37.3,2.6,50.5c0,10.5,2.6,19.3,2.6,26.3c0,2.6,0,4.4-0.9,6.2c-1.8,2.6-1.8,6.1-1.8,10.5
		c0,6.1,0.9,14,1.8,24.6c0,3.5,0.9,7,0.9,10.5c0,9.4-1.7,18-1.7,26.6c-17.3-4.5-30.4-13.7-35.2-19.3l-0.1-0.1l-0.1-0.1
		c-3.4-3.7-7.5-6.8-11.9-9.2l2.1-2.8c1.7-1.2,2.5-1.8,2.5-2.9l0,0c-0.2,0-1.1,1.1-2.5,2.9c-0.8,0.6-1.8,1.3-3.1,2.2
		c-1.7-1-3.5-1.9-5.4-2.8s-3.9-1.9-6-2.8c-1-0.4-2.1-0.9-3.1-1.3c0-0.6,0-1.1,0-1.7c-0.5-8.2-2.2-12.4-11.1-23.2
		c0.6-1.7,0.9-3.4,0.9-5.2c0-5.3-1.8-17.6-1.8-22.8c0-7,0-20.2,3.5-20.2c0.7,0,1.3,0.1,2,0.2l0,0c0,1.2,11.6,5,18.9,7.7
		c3.1,1.5,5.3,2.7,5.5,2.7c0.6-0.3-1.9-1.3-5.5-2.7c-5.5-2.8-13.7-6.7-18.9-7.7c0-12.3,6.2-11.3,4.2-30.1c-7-9.7-8.8-22-8.8-42.2
		l1.8-16.7v-40.4c0-18.5,8.8-11.4,8.8-24.6c0-7-9.7-18.4-9.7-24.6c0-12.3,7.9-3.5,7.9-17.6c0-9.7-5.3-22.9-5.3-35.2
		c0-6.1,0.9-7,0.9-14c0-18.5-0.9-44.1-0.9-50.2c0-10.5,10.5-34.3,10.5-41.3c0-13.1-8.8-32.3-27-36.8c-2.2-0.6-4.5-0.9-6.7-0.9
		c-0.5,0-0.9,0-1.4,0h-61.2c-2.9,0-6,0-9.5,0c-1.9,0-3.8,0-5.8,0.1c-12.8,0.2-27.7,0.6-41.2,1.3l-5.8,0.3c-3.3,0.2-6.5,0.4-9.5,0.7
		c-4.2,0.3-8.1,0.7-11.4,1.1c-25.9,3.5-40.5,14.9-48.3,18.4c-27,10.5-30.3,29-55.1,29c-9,0-11.2-7.1-11.2-15.8
		c0-12.3,5.6-28.1,7.9-33.4c5.6-10.5,6.7-48.6,6.7-55c0-10-8.3-22.6-9.4-29.9c0-4.5,2.3-12.6,12.4-12.6c12.4,0,39.8,34.7,60,34.7
		c5.6,0,33.7,3.5,51.7,3.5c11.8,0,25.3-0.2,37-0.4l8.7-0.2c3.4-0.1,6.5-0.1,9.2-0.1c3.4-0.1,6.2-0.1,8.1-0.1
		c1.1,0,12.4,1.4,24.8,2.7l7.5,0.8l5.2,0.5c2.6,0.3,5.1,0.5,7.4,0.7c4.7,0.4,8.7,0.6,11.3,0.6c10.7,0,20.3-1.1,32.9-1.6
		c2.9-0.1,5.9-0.2,9.1-0.2h0.1c3.1,0,6.2,0,9.5,0.1c9.2,0.1,18.3,1,27.3,2.6c11.4,1.8,25.5,10.5,25.5,14.1c0,2.6,2.6,20.6,2.6,26.8
		c0,3.5-0.9,7.9-3.5,10.5c-3.5,3.5-4.4,5.3-4.4,7c-0.1,1.5,0.2,3,0.9,4.4c0.9,2.6,2.6,5.3,3.5,9.7c1.4,4.9,1.9,9.9,1.8,14.9
		c0,7.9-1.8,14.1-3.5,20.2c-0.7,1.7-1,3.5-0.9,5.3c0,9.7,4.4,51.1,4.4,61.7v3.5c-0.7,3.2-1,6.4-0.9,9.7c0,6.1,0.9,12.3,0.9,24.6
		c0,11.4-0.9,18.5-0.9,24.6c0,4.4,0,7.9,1.8,13.2c1.8,6.2,1.8,11.4,1.8,16.7L485.4,473.2z"/>
	<path class="st0" d="M657.7,883.5c0,7.9-9.7,16.5-22,16.5c-22.8,0-93.7-15.6-106.8-15.6c-7.9-0.9-9.6-8.8-11.4-19.3
		c0-12.3,0.9-43.9,0.9-58c0-4.8-0.1-9.8-0.3-15.1c-0.1-1.9-0.2-3.8-0.3-5.8s-0.2-3.8-0.3-5.8c-0.4-7-1-14.5-1.8-22.5
		c0-3.5-0.9-7.9-0.9-10.5c0-3.4,0.2-6.8,0.6-10.2c0.3-2,0.5-3.9,0.8-5.9s0.5-3.9,0.8-6c0.3-3.2,0.5-6.4,0.5-9.6
		c0-10.5-1.8-22.8-1.8-31.6c-0.1-3.3,0.5-6.6,1.8-9.7c3.5-5.3,0.9-8.8,6.1-14c1.1-0.8,1.7-2.1,1.8-3.5c0-5.3-7-13.2-7-13.2
		c-1.2-4.6-1.8-9.3-1.8-14c0-7-6-13.2-0.8-20.2c7.9-11.4,2.2-29,2.2-38.6c0-11.4-3.2-44.8-3.2-53.6c0-22.8,3.5-30.7,3.5-50.1
		c0-10.5,1.8-15.8,1.8-20.2s-0.9-7.9-5.3-14.9c-2.6-4.4-3.5-7.9-3.5-11.4c0-10.5,7.9-20.2,10.5-25.5c0-0.9,0.9-1.8,0.9-2.6
		c0-6.2-6.2-13.2-6.2-22c0-2.6,0.9-4.4,1.8-7c0.9-3.5,1.8-33.6,1.8-37.1c0-10.5-5.3-22-7-32.5v-3.5c-0.7-4.1-1-8.2-0.9-12.3
		c0-5.3,0.9-8.8,4.4-10.5c1.8-0.9,2.7-2.6,2.7-5.3c0-6.2-4.4-16.7-4.4-21.1c1.1-3.7,1.7-7.5,1.8-11.4c0-2.6,0-18-0.9-24.1
		c0-9.6,13.2-14,21.1-14c14,0,28.1-7.9,39.5-7.9c4.3,0,17.9-0.6,34.7-1.3c5.1,6.1,8.2,9.1,13.3,9.4c3.4,2.9,6.3,6.2,8.7,9.9
		c-2.4,5.1,0.1,11,4.2,20.9c1.2,2.7,2.3,5.6,3.2,7.9c-7.2-1.5-13.1-2.6-16.7-2.6c-1.8,0.9-2.6,0.9-2.6,1.8s1.8,2.6,1.8,3.5
		c0,4.4-17.6,7.9-29.8,7.9c-11.4,0,0.3,21.1-2.4,34.3c-1.1,6.4-1.7,12.9-1.8,19.4c0,9.4-1.3,27.7-2.3,42.8
		c-2.4-9.8-6.4-17.3-12.6-17.3c-11.7,0,9.2,40.3,11.2,40.3c0.1,0,0.1-0.1,0.1-0.3c0-3.6,0.6-12.4,1.3-22.7
		c2.3,9.4,3.2,20.8,3.2,29.4c0,12.9,1.6,32-9.3,44.6c-4-0.8-7-3.5-13-3.5c0,0-9,13.2-3,13.2c0.9,0,1.7-0.2,2.5-0.5
		c5.2-1.9,9.9-5,13.5-9.2c0.8,0.2,1.5,0.2,2.3,0.2c3.5,0,3.5,1.8,3.5,8.8c0,13.2-3.5,32.5-3.5,48.3c0,10.5,7.9,15.8,7.9,36
		c0,14-18.5,10.5-18.5,16.7c0,2.6,18.5,11.4,18.5,17.6c0,8.8-5.3,20.2-5.3,26.4c0,1.8,2.7,14.9,2.7,22.8c0,1.8-0.9,3.5-0.9,4.4
		c0,10.5-11.4,20.2-11.4,34.3c0,10.6,13.2,7.1,13.2,41.3c0,12.9,0.4,29.6,0.7,46c0,2.1,0.1,4.3,0.1,6.4s0.1,4.3,0.1,6.4
		c0,2.7,0,5.4,0,8c0,14.1-3.9,20.4-4.3,35.7c0,1-0.1,1.9-0.1,2.9c0,1.3,0,2.4-0.1,3.3c0,2.1-0.3,4.3-0.8,6.3
		c-0.3,2.9-0.4,5.9-0.3,8.8c0,7,6.9,19.3,6.9,27.2c0,26.9,17.6,16.5,23.8,27.9C620.1,856,657.7,871.4,657.7,883.5z"/>
	<path class="st0" d="M727.3,687.4c-1.5-4.2-0.7-34.5-1.4-39.3c-3.6-26.7-5.5-2.5-2.8-33.2l0.9-9.3c0.2-6.7,2.5-12.4,1.7-17.8
		c-1.6-11.2-8.5-17.2-16.5-17.2c-0.4,0-0.8,0-1.2,0c-0.7,0.1-1.3,0.2-2,0.3c-13.7,2.7-17,22.1-22.1,40.7c0,0,1.6,7.5-5.1,16.2
		c-2,7.2-4.5,16.2-8.1,25.8c0,0,0,0,0,0.1s-0.1,0.2-0.1,0.3c0,0.5,0.1,2.9-2.4,6.2c-10.9,26.6-29,48.4-65,60.8
		c-0.7,0.2-1.3,0.5-2,0.7c0.1,4.5,0.1,9,0.1,13.3c-0.1,6.7-0.9,13.4-2.4,19.9c-0.5,2.4-0.9,4.7-1.3,7.2c4.7-0.9,8.3-3.5,15.6-4
		l1.3-0.1h0.4c1.9,0,4.4,1.1,6.9,1.1h0.6c0.3,0,0.7-0.1,1-0.1c0.5-1,1.3-1.9,2.2-2.4c0.8-0.1,1.4-0.2,2-0.2s1.2-0.1,1.7-0.1
		c1.4,0,2.7,0.2,4.2,0.3c5.3-1.3,10.5-2.9,15.6-4.7c6.5-2,11.5-4,16.1-4.3c0.4,0,0.8-0.1,1.3-0.1c0.8,0,1.6,0.1,2.4,0.2
		c2.6-0.7,5.1-1.6,7.5-2.7c2.1-0.7,4.3-1.1,6.6-1.3C738.3,742.6,728.9,692.5,727.3,687.4z"/>
	<path class="st0" d="M504.2,758.9l-0.1-0.5v-0.5c-0.1-1.6-0.2-3.1-0.4-4.7c-0.3-2-0.4-3.9-0.5-5.9c0-3.5,0.2-6.5,0.4-9.3l0,0
		c-0.2,0-0.5,0-0.8,0c-2.2,0-4.4-0.1-6.5-0.3c-0.4,0-0.9-0.1-1.3-0.1c-1.6-0.1-3.2-0.3-4.8-0.5c-0.3,0-0.6-0.1-0.9-0.1
		c-2-0.3-3.9-0.7-5.8-1.1c-20.8-4.5-37.6-15.3-44.8-23.8c-3-3-6.4-5.5-10.1-7.4c-1.1-0.6-2.3-1.2-3.4-1.8c-0.4-0.2-0.8-0.4-1.2-0.6
		c-1.9-1-3.8-1.8-5.6-2.6c-0.6-0.3-1.3-0.5-1.9-0.8c-1.4-0.6-2.6-1.1-3.9-1.5c-0.6-0.2-1.1-0.4-1.7-0.6c-3.6-1.3-6-2.1-6-2.1
		c0.1-1.2,0.6-2.4,1.4-3.4c1-1.5,2.1-2.9,2-4.3c0-1-0.1-1.9-0.3-2.9c-0.2-1.6-0.8-3.1-1.6-4.5c-1.7-2.9-3.6-5.6-5.8-8.2
		c-1.3-1.7-2.9-3.6-4.8-5.8c-0.4-0.5-0.9-1.1-1.4-1.7c-8.4-9.3-16.1-21.2-17.6-45.2c-1-15-6.4-21.4-13.6-21.4c-0.3,0-0.7,0-1,0h-0.1
		c-2.6,0,13-11.5,4.8-11.5h-0.8c-0.2,0-0.3,0-0.5,0c-1.9,0-2.7-1-2.9-4.8c-0.9-14.8-1.8-17.6-2-21.8c-0.1-0.8-3.6-10-10.2-10h-0.5
		c0,0-0.1,0-0.1,0c-3.5,0,2.3-9.1-1.9-9.1h-0.3c-0.3,0-0.6,0-0.9,0c-2.3,0-3-0.7-3.1-1.4c-0.2-4.1-6.2-1.1-0.3-7.3
		c1.5-0.9,1.4-2.6,1.3-4.2c-0.3-5.5-4.3-13-4-13c0,0,0.1,0,0.1,0.1c0.8,0,0.4-30,0.7-39c0.4-5.9,0.9-10,0.6-15
		c-0.4-4.5-1.4-8.8-3.1-13c-0.9-1.6,3-6.7,2.9-8.3c-0.5-8.2,5.5-30.9,4.8-42.5c-0.8-13.2,7.8-37,8.6-49.5c0-13.3,5.4-25.2,5.1-30.2
		c-0.6-9.7,13-25.4,4.7-25.4h-0.5c-0.4,0-0.9,0.1-1.4,0.1c-1.5,0-3.3-0.3-3.4-2.2c-0.1-2.2-0.1-2.6,0.8-2.6c0.4,0,1,0.1,1.8,0.1
		c2.1,0,4.2-0.5,6.2-1.3c5.2-1.5,6.5-19.4,9.9-33.6h-49.1c-4.4,15.3-6.3,24.8-10.5,35.5c-5.4,13.6-12.7,20.8-13,42.4
		c-0.4,19.9-3.4,32.6-8.1,32.9c-2.3,0.2-4.4,16.9-3.6,30.1c0.4,5.8,1.5,35.2,3.2,38.4c0.3,5-0.3,6.7-0.2,9.1s1,4,2.5,4h0.3
		c2.9,0-13.1,6.7-3.9,44.7c-4.8,15.7-1.1,30.2-0.1,45.1c0.8,11.5,1.2,19.8,3.1,23.8l3.6,8.9c5.7,16.2,2.1,34.6,12.4,50.5
		s4.8,13.8,13.5,29.7c6.2,11.2,5.2,8.8,8.6,12.7c8.4,10.2,15.2,19.7,18.8,27.7s11.2,5,24.6,19c4.9,5.1,11.8,10.2,18.5,14.7
		c1.7,1.2,3.4,2.2,5.1,3.3c1.8,1.2,3.5,2.2,5.2,3.2c0.9,0.5,1.7,1,2.4,1.5c3.2,2,5.7,3.5,6.8,4.3c0.7,0.6,0.8,0.9,0.4,0.9
		c-0.1,0-0.2,0-0.3,0c-1.5,0.2-3.5,1.1-5.9,1.7c-1.2,0.3-2.5,0.6-3.8,0.6H409c-0.8,0.1-1.7,0.1-2.5,0.1c-1.1,0-2.2-0.1-3.3-0.3
		c-0.9-0.2-1.8-0.5-2.7-0.9c-1-0.3-2-0.7-3.1-1.1c-10.6-3.6-27.2-10-43.6-23.8c-18.1-15.3-21.1-26.7-32.5-35s-12.7-15.6-20-33.4
		s-7.8-26-15-40.4s-6.3-26-10.1-49.8c0,0-6.5-17-6.7-20.2c-1.6-25.6-6.6-24.5-3.8-61.9c0.8-11.5,2.5-59.5,3-76.1s3.5-17.7,5.4-39.3
		c1.8-20,13.6-44,17.6-66.7c3.5-19.3,20.7-18,19.8-32.1l-0.2-3.5c-16.3,0.2-36,0.8-51.4,1.9c-9.5,10.4-17.4,30.4-16.9,38
		c0,0.8-4.1,10.1-4,12.6c0,1.3-1.9,3.4-2.6,4.4c-1.1,1.7-2.3,3.3-3.5,4.8c-1.6,1.8-1.7,3.9-2.2,6.3c-1,5.2-2.1,10.4-3.1,15.6
		c-2,10.2-3.9,20.5-5.7,30.8c-0.9,5.3-2.5,11.2-2.2,16.6c0.8,12.4,3.9,48.3,4,50.8c0.2,3.3-12.2,4.2-10.1,38.9
		c1.9,31.4,5.5,51.8,5.8,56.8c0.2,3.3,5.9,11.2,5.1,11.3c-1.4,0.1,2.5,9.4,2.5,10.5c0,0.1,0,0.1,0,0.1c-0.7,0,6.7,44.4,15.8,52.8
		c4,2.2,6.7,7.7,7,11.8c0.3,5.8,2,8.3,2.4,14.1c0.9,15.7,19,42.6,27.4,52.8c10,11.7,33.1,20,33.6,28.3c0.4,7,3.8,7.8,6.2,7.8
		c0.5,0,0.9,0,1.2-0.1s0.5-0.1,0.8-0.1c2.2,0,4.6,0.7,4.8,4.3c0.2,2.5,7.4,3.9,7.4,5.6c0.7,10.6,45,31,54.4,31c0.1,0,0.3,0,0.4,0
		h0.5c2.6,0,6.6,1.1,11.6,2.5c1.9,0.5,3.9,1.1,6.1,1.7c1.5,0.4,3,0.8,4.6,1.2c0.5,0.1,1,0.3,1.4,0.4c1.5,0.4,3,0.8,4.5,1.1
		c2,0.5,4,0.9,6,1.2c3.9,0.7,7.8,1,11.7,1.1c21.8,0.1,20.9,11,46.6,11.7h2.8c1.6,0,3.4,0,5.2,0c0.8,0,1.6,0,2.5,0c1.1,0,2.2,0,3.3,0
		c0.9,0,1.9,0,2.8,0c2.4,0,4.8,0,7.4,0l0,0C505.5,773.8,505,766.7,504.2,758.9z M440.6,753.3c-0.5,0-1,0.1-1.4,0.1
		c-5.1,0-6.6-2.3-6.8-6.1c-0.1-2.5,2-6,5.1-6.2h0.8c4.6,0,16.5,2.3,16.8,6.2C455.2,750.6,445.2,753,440.6,753.3z"/>
	<path class="st0" d="M751.9,286.3c-5.2-12.6-16.7-22.1-26.2-35.4c-1.2-1.7-2.5-3.5-3.6-5.4c-0.1-0.1-0.1-0.2-0.2-0.4
		c-0.9-1.9-1.6-3.8-2.2-5.8c-0.8-2.8-1.8-5.5-2.9-8.2c-1.7-3-3.3-6-4.8-8.9c-0.3-0.6-0.7-1.3-1-1.9c-6.4-9.2-19-25.2-19-25.2
		c1.1-1.9-3.5-11.9-3.6-11.9l-2.6-3.1c-1.4-1.6-3.1-3.6-5-5.7s-3.7-4-5.3-5.7c-0.8-0.7-1.4-1.4-2-1.9c-9.3-8.2-13.4-13.6-23-21.4
		c-8.1-6.5-12.3-8.2-21.2-13.6s-16.8-11.6-26.1-15.8c-10.9-4.7-22.2-8.3-33.8-10.7c-14.2-3-28.5-4.7-43-5.1
		c-3.1-0.1-6.3-0.2-9.5-0.2c-2.5,0-5,0-7.5,0.1c-3.9,0.1-7.9,0.3-11.9,0.6c-19.3,1.1-38.4,4.2-57.1,9c-32.2,8.9-51.5,23.5-65.1,29.4
		c-8.3,4.7-23,4.9-27.1,15.2c-0.7,2-2.9,4.3-6,6.9c-2.5,2-5.6,4.3-9.1,6.6c-1.6,1-3.1,2.1-4.8,3.2c1.3,0.1,2.9,0.3,4.8,0.6
		c6.5,0.7,16,1.8,24.6,2.6c0.8-0.6,1.7-1.2,2.5-1.8c1.7-1.2,3.4-2.4,5.2-3.6c1.2-0.8,2.4-1.6,3.6-2.5c10.5-7.2,22.1-16.3,26.1-19.5
		c2.7-2,5.9-3,9.2-3.1c0.4,0,0.9,0,1.3,0c4.1,0,7.4,1.4,8.2,3.5c0.6,1.3,1,2.7,1,4.1c0.1,2.5-1.4,3.4-6.6,6.3
		c-7,3.6-14.2,2.9-21,8.4c-0.6,0.5-1.2,1-1.7,1.5c-1.5,1.5-3.4,3.3-5.4,5.2c-1,1-2.1,2-3.2,3h0.3c5.7,0,11.3-0.4,17.2-0.8
		c7.1-0.5,15.1-1,24.9-1c1.8,0,3.7,0,5.7,0c1.2-1,2.2-1.9,3.1-2.8c2.2-2.2,3.7-4.4,5.9-6.6c3.3-3.5,7.9-7.3,18.3-12.6
		c37-17.5,41.7-17.8,43.2-17.9h0.8c3.5,0,8.7,1.3,15.5,2.2c4.7,0.7,9.5,1.1,14.3,1.1h0.5c1.8,0,3.7-0.1,5.7-0.2
		c3.1-0.2,6.9-1.3,10.8-1.6c0.5,0,1,0,1.5,0c8.5,0,17.4,2.3,25.6,4.7c9.8,2.8,20,6.8,28.5,12.4c5.4,3.6,12.1,11.5,17.4,18
		c1.7,2.1,3.3,4,4.6,5.6c2.1,2.4,3.6,4,4.3,4c0.2,0,0.3-0.1,0.3-0.4c0-0.3,0.3-0.4,0.5-0.4c0.8,0,2.2,0.8,3.9,2.1
		c7.1,5.3,19.5,19.2,13.7,24.8c-0.9,0.9,5.9,15,8.5,22.7c0.5,1.4,1.1,2.9,1.6,4.4c0.8,2.1,1.5,4.2,2,6.4c0.5,2,0.7,4,0.5,6
		c-0.1,1.5-0.5,2.9-1.2,4.3c-4.4,8.8-2.4,8.6-7.7,18.9c-0.7,1.4-1.7,3.8-2.9,6.9c-0.8,1.9-1.5,4-2.4,6.2c-0.7,1.9-1.5,4-2.4,6.2
		c-3.5,9.5-7.7,18.8-12.4,27.8c-1.7,3.1-2.8,6.5-3.1,10.1c-0.3,5.2,1.5,10,6.2,14c0.7,0.6,1.5,1.1,2.4,1.4c0.9,0.3,1.8,0.5,2.8,0.5
		c6,0,13.1-6.6,23.7-10.2c23.4-8,42.8-7.9,48-11c2-1,4.3-1.5,6.5-1.4c8,0,18.3,3.6,18.3,3.6c1.4-0.2,2.7-0.5,3.9-0.8
		c2.6-0.5,5.1-1.3,7.6-2.4c2.1-0.9,4.1-2,5.9-3.5C757.9,309.7,757.1,298.9,751.9,286.3z M431.1,143.6c-1.5,1.1-3.3,1.7-5.2,1.8
		c-2.1,0-3.5-1.4-4.6-3.5s-0.7-6.2,2-7.9c2.4-1.4,9.7-3.9,14.4-3.9c1.9,0,3.4,0.4,4,1.4C443.2,134.4,435.2,141.1,431.1,143.6z"/>
</g>
</svg>
