<svg xmlns="http://www.w3.org/2000/svg" viewBox="0 0 1000 1000"><defs><style>.cls-1{isolation:isolate;}.cls-2{fill:#ffb240;}.cls-15,.cls-3{fill:#46134b;}.cls-4{fill:#98475f;}.cls-5{fill:#7a2d53;}.cls-6{fill:#ff918b;}.cls-7{fill:#7e2a20;}.cls-8{fill:#d43e20;}.cls-9{fill:#b5b1ee;}.cls-10{fill:#fdf9f2;}.cls-11{fill:#572aac;}.cls-12{fill:#451378;}.cls-13{fill:#ffbc18;}.cls-14{fill:#ff9e18;}.cls-15{opacity:0.3;mix-blend-mode:multiply;}</style></defs><g class="cls-1"><g id="Camada_1" data-name="Camada 1"><path class="cls-2" d="M865.23,504.57,821,823.54l-30,4.2L721,837.55l-35.55,5-3.71.52h-.11l-.93.14L505,867.8l-184-25.36h-.09l-3.12-.43-43.51-6h0l-59.46-8.2-31.09-4.28-44.26-319,44.26-318.88L398,155.91h0l37.2-5.16,66.81-9.29,107.13,14.85h0L821,185.69Z"/><path class="cls-3" d="M348.79,385.51s-8.32-132.22,12.63-150.25,268-24.42,281.65-.56,20.11,125.3,13.6,150.81Z"/><path class="cls-3" d="M347.16,354.68s-4.1,163.12,5.54,176.1,17.42-6.49,17.42-6.49,6.49,28.08,18.17,34.15,17.65-10.79,17.65-10.79,38.15,61.16,62.81,5.28,0-167.42,0-167.42Z"/><path class="cls-3" d="M658.36,354.68s4.11,163.12-5.53,176.1-17.43-6.49-17.43-6.49-6.49,28.08-18.17,34.15-17.65-10.79-17.65-10.79-38.15,61.16-62.8,5.28,0-167.42,0-167.42Z"/><path class="cls-4" d="M320.4,838l184,25.35,175.77-24.6c0,.11,0,.23,0,.35a0,0,0,0,0,0,0c.29-.15.58-.32.9-.47h.06c.78-.43,1.5-.87,2.26-1.3q2.29-1.26,4.6-2.6l2.37-1.39c2.26-1.31,4.49-2.67,6.69-4s4.6-2.83,6.86-4.31c.4-.23.78-.49,1.16-.75,2.43-1.57,4.83-3.19,7.23-4.84s5-3.44,7.41-5.21,4.55-3.3,6.78-5l.52-.4c2.26-1.71,4.49-3.45,6.71-5.24a6.43,6.43,0,0,0,.84-.64q3.09-2.43,6.08-5c.32-.26.61-.49.9-.75,2.11-1.77,4.23-3.59,6.28-5.39.23-.2.46-.4.7-.63,2-1.77,4-3.56,6-5.42a5.69,5.69,0,0,0,.63-.57c2-1.8,3.91-3.65,5.82-5.5a5.07,5.07,0,0,0,.58-.55c2.11-2,4.17-4.09,6.23-6.17-.64-1.88-1.28-3.76-2-5.59-.55-1.53-1.13-3-1.71-4.51q-1-2.48-2-4.87a201.59,201.59,0,0,0-11.69-23.44q-2.7-4.56-5.56-8.92c-1.91-2.92-3.91-5.76-6-8.51-.67-.92-1.37-1.82-2.06-2.72q-3.6-4.73-7.47-9.12c-1-1.1-1.91-2.17-2.89-3.24s-2-2.14-3-3.21c-1.45-1.54-2.93-3-4.4-4.49-1.16-1.16-2.32-2.26-3.51-3.36s-2.17-2-3.27-3q-3.44-3.07-7-5.93c-1.27-1-2.54-2.09-3.82-3.07q-3-2.38-6.08-4.63-1.82-1.35-3.67-2.61c-2.2-1.53-4.4-3-6.57-4.43s-4.4-2.81-6.6-4.14-4.08-2.43-6.2-3.56c-.89-.52-1.79-1-2.69-1.47-5.56-3-11.26-5.68-17-8.14-6.86-3-13.84-5.61-20.67-8-37.57-13-71.76-18.44-71.76-26.14V484h-117V616c0,6.86-27.88,11.9-60.62,22.29-8.36,2.64-17.05,5.65-25.67,9.12-5.27,2.11-10.54,4.43-15.69,6.92-3,1.45-6,3-8.89,4.63-1.18.58-2.31,1.24-3.44,1.91-1.48.87-3,1.74-4.46,2.66s-3,1.83-4.43,2.78a227.46,227.46,0,0,0-26.34,19.57l-.78.7c-1,.84-1.91,1.67-2.84,2.54-1.68,1.51-3.36,3.07-5,4.72l-2.34,2.35a15,15,0,0,0-1.19,1.21c-.78.78-1.56,1.59-2.31,2.4a9.55,9.55,0,0,0-.93,1c-.9,1-1.8,1.91-2.66,2.89-1.8,2-3.59,4.08-5.33,6.23-.46.55-.9,1.07-1.3,1.62-.81,1-1.6,2-2.35,3-1,1.24-1.94,2.52-2.89,3.82s-1.88,2.6-2.81,4-1.82,2.69-2.72,4.05-1.8,2.78-2.66,4.2-1.74,2.83-2.61,4.31c-1.62,2.78-3.18,5.64-4.72,8.57-1.68,3.21-3.27,6.51-4.77,9.93-.67,1.44-1.31,2.92-1.94,4.42-.81,1.86-1.57,3.71-2.29,5.62-.64,1.65-1.25,3.3-1.85,5s-1.33,3.67-1.94,5.56c1.88,1.88,3.76,3.76,5.67,5.58q6.39,6.21,13.06,12c1,.9,2,1.8,3.06,2.67q1.88,1.65,3.8,3.21,6.72,5.64,13.69,10.94c1,.78,2.05,1.54,3.1,2.32,1.21.92,2.43,1.82,3.64,2.69,2.72,2,5.5,3.94,8.28,5.85,1.68,1.16,3.39,2.28,5.1,3.41.14.09.26.18.4.26,1.74,1.16,3.5,2.32,5.27,3.42q5.47,3.48,11,6.74c1.82,1.08,3.65,2.12,5.47,3.16l.14.09c1,.58,2,1.15,3,1.68Z"/><path class="cls-5" d="M560.45,507.1v74.54C547.18,592,529.3,601.27,507,602.71c-32.47,2.07-52.72-11.59-63.61-22.67V513.62l114.34-10.69Z"/><path class="cls-4" d="M365.6,261.81s-28.7,169.9,9.94,244.72c19.32,37.41,75.74,63.35,126.39,64.4s105.42-27.82,129.68-60.65c48.52-65.65,4.08-248.47,4.08-248.47S527.19,175.74,365.6,261.81Z"/><path class="cls-4" d="M361.42,376.92s-31.62-44.78-54.64-5.47c-16.36,27.94,14.25,88.36,53.14,62.34Z"/><path class="cls-4" d="M643.07,376.54s31.62-44.79,54.64-5.48c16.36,27.94-14.25,88.37-53.14,62.35Z"/><path class="cls-3" d="M454.52,370.09c0,8.52-6.85,0-15.3,0s-15.3,8.52-15.3,0a15.3,15.3,0,1,1,30.6,0Z"/><path class="cls-3" d="M579.94,370.09c0,8.52-6.85,0-15.3,0s-15.3,8.52-15.3,0a15.3,15.3,0,1,1,30.6,0Z"/><ellipse class="cls-6" cx="399.7" cy="397.72" rx="21.45" ry="24.15" transform="translate(-151.83 515.01) rotate(-56.86)"/><path class="cls-6" d="M584.1,410.92c6.47,9.92,20.77,12.05,31.94,4.76s15-21.24,8.5-31.16-20.78-12-31.95-4.76S577.62,401,584.1,410.92Z"/><path class="cls-3" d="M479.71,345.53a7.84,7.84,0,0,1-1.78-.2c-34.48-8-76.3,0-76.73.05a7.8,7.8,0,1,1-3-15.31c1.83-.36,45.46-8.76,83.28.05a7.81,7.81,0,0,1-1.77,15.41Z"/><path class="cls-3" d="M606.89,348.74a7.77,7.77,0,0,1-3.21-.69c-.46-.2-29.61-12.78-66.74-.57a7.81,7.81,0,1,1-4.88-14.83c43.27-14.23,76.66.55,78.06,1.18a7.8,7.8,0,0,1-3.23,14.91Z"/><path class="cls-5" d="M339.41,377l9.38,45.75s-13.62,5.26-18.69-4.89,1.75-17.31,1.75-17.31-18-2-17.23-16.43S336.71,363.86,339.41,377Z"/><path class="cls-5" d="M666.05,377l-9.38,45.75s13.62,5.26,18.69-4.89-1.75-17.31-1.75-17.31,18-2,17.23-16.43S668.74,363.86,666.05,377Z"/><path class="cls-5" d="M503.2,421.09a1.93,1.93,0,0,1-1.74-1.06,2,2,0,0,1,.85-2.63l27-13.8-17.51-63.72a2,2,0,0,1,3.76-1l17.94,65.26a2,2,0,0,1-1,2.25l-28.46,14.53A1.87,1.87,0,0,1,503.2,421.09Z"/><path class="cls-7" d="M534.5,477c-8.2,5.26-19.67,8.46-35.2,7-24-2.26-37.35-12.49-44.14-23.34-5.89-9.44-6.79-19.39-5.34-25.05,3.2-12.45,24.19,3.51,46.83,7.77,18.22,3.39,49.91-5.7,53-2.73C554.48,445.13,552.06,465.82,534.5,477Z"/><path class="cls-8" d="M534.5,477c-8.2,5.26-19.67,8.46-35.2,7-24-2.26-37.35-12.49-44.14-23.34C474.05,454.07,511.36,446.34,534.5,477Z"/><path class="cls-9" d="M767.9,773c-2.06,2.08-4.12,4.14-6.23,6.17a5.07,5.07,0,0,1-.58.55c-1.91,1.85-3.85,3.7-5.82,5.5a7,7,0,0,1-.63.58c-2,1.85-4,3.64-6,5.41-.24.23-.47.43-.7.63-2,1.8-4.17,3.62-6.28,5.39-.29.26-.58.49-.9.75q-3,2.52-6.08,5a6.43,6.43,0,0,1-.84.64c-2.22,1.79-4.45,3.53-6.71,5.24l-.52.4c-2.23,1.68-4.49,3.33-6.78,5s-4.92,3.5-7.41,5.21-4.8,3.27-7.23,4.84c-.38.26-.76.52-1.16.75-2.26,1.48-4.55,2.89-6.86,4.31s-4.43,2.72-6.69,4l-2.37,1.39q-2.31,1.34-4.6,2.6l-2.32,1.3h-.06c-.29.18-.55.32-.84.47a0,0,0,0,1,0,0c0-.12,0-.24,0-.35l-175.77,24.6L320.4,838c-1-.54-2-1.09-3-1.67l-.14-.09c-1.82-1-3.65-2.08-5.47-3.16q-5.56-3.25-11-6.74c-1.77-1.1-3.53-2.26-5.27-3.42-.14-.08-.26-.17-.4-.26-1.71-1.13-3.42-2.25-5.1-3.41-2.78-1.91-5.56-3.88-8.28-5.85-1.21-.87-2.43-1.77-3.64-2.69-1-.78-2.09-1.54-3.1-2.32q-7-5.29-13.69-10.94-1.92-1.56-3.8-3.21c-1-.87-2.05-1.77-3.06-2.67q-6.69-5.85-13.06-12c-1.91-1.82-3.79-3.7-5.67-5.58.61-1.89,1.27-3.74,1.94-5.56s1.21-3.36,1.85-5c.72-1.91,1.48-3.76,2.29-5.62.63-1.5,1.27-3,1.94-4.43q2.25-5.11,4.77-9.92c1.54-2.93,3.1-5.79,4.72-8.57.87-1.48,1.74-2.9,2.61-4.31s1.76-2.81,2.66-4.2,1.82-2.72,2.72-4.06,1.85-2.66,2.81-4,1.91-2.58,2.89-3.82c.75-1,1.54-2,2.35-3,.4-.55.84-1.07,1.3-1.62,1.74-2.15,3.53-4.2,5.33-6.23.86-1,1.76-1.94,2.66-2.89a9.55,9.55,0,0,1,.93-1c.75-.81,1.53-1.62,2.31-2.4a15,15,0,0,1,1.19-1.21l2.34-2.35c1.65-1.65,3.33-3.21,5-4.72.93-.87,1.88-1.7,2.84-2.54l.78-.7a227.46,227.46,0,0,1,26.34-19.57c1.48-.95,2.95-1.88,4.43-2.78s3-1.79,4.46-2.66c1.13-.67,2.26-1.33,3.44-1.91,3.82,32,24.58,127.42,136.11,142.77l32.62,43.16L539,801c104.15-16,128.3-96.42,133.62-141.26,2.12,1.13,4.14,2.35,6.2,3.56s4.4,2.7,6.6,4.14,4.37,2.9,6.57,4.43q1.86,1.26,3.67,2.61c2,1.47,4.09,3,6.08,4.63,1.31,1,2.58,2,3.85,3a197.75,197.75,0,0,1,18.1,16.79c1,1.07,2,2.14,3,3.21s1.94,2.14,2.89,3.24c2.58,2.93,5.07,6,7.47,9.12.69.9,1.39,1.8,2.06,2.72,2.05,2.75,4.05,5.59,6,8.51s3.76,5.88,5.56,8.92a201.59,201.59,0,0,1,11.69,23.44q1,2.4,2,4.87c.58,1.47,1.16,3,1.71,4.51C766.62,769.26,767.26,771.14,767.9,773Z"/><path class="cls-4" d="M317.36,836.36a4.27,4.27,0,0,1-.17,1.24l-43.51-6h0l-59.45-8.19c12.24-59.26,55.66-121.9,79.69-137.56C308.8,711.54,329.78,763.06,317.36,836.36Z"/><path class="cls-4" d="M790.42,823.33l-69.94,9.81-35.55,5a5.44,5.44,0,0,0-3.7.52h-.06c-.32.15-.61.32-.9.47a0,0,0,0,1,0,0c0-.12,0-.24,0-.35-14-78.42,10.24-132.23,25.32-156.66a0,0,0,0,0,0,0C730.35,701.35,759.1,734,790.42,823.33Z"/><path class="cls-5" d="M399.7,664.24l95.13,21.63S451.46,643.41,399.7,664.24Z"/><path class="cls-5" d="M608,664.24l-95.13,21.63S556.25,643.41,608,664.24Z"/><path class="cls-10" d="M216.45,816.43c29.58,3.65,59,8.52,88.38,12.61,59.18,8.22,118.46,15.83,177.69,23.69l22.43,3,304-44.16.43-3.64,1.84-13.81c6.77-50.78,14.9-101,22.3-151.42,3.38-23,6.62-46.36,9.72-69.76l4.53-35.12L850,520.25,851,511.5l.53-4.37.24-2,0-.56-.07-.36,0-.17-.07-.42c-12-75.72-23.21-151.89-33.32-227.81q-3-22-6.08-44l-3.13-22-1.3-9-.28-1.65-1.19-.14-3.11-.4-15.67-2.15-31.32-4.42c-20.87-3-41.7-6.23-62.46-9.76-29.6-5-60.3-8.89-90.43-13.43q-25.73-3.88-51.49-7.46l-49.8-6.82-77.8,11c-26.55,3.62-53.12,7.07-79.75,10.15-22.79,2.63-47.49,7.08-71.3,10.46l-78.16,11c-1.53,10.57-3,21-4.55,31.3-4.14,28.17-6.47,52.19-8.4,77.57.05,3.49,0,9.25-1.08,10.88-1.63,2.45,0-5.31,0-8.12h0c-2.53,1.77-2.72,10.84-3.45,16.24q-10.76,80.56-21.52,161.11-1.31,9.22-2.63,18.48,1,7.74,2,15.47,1.25,8.69,2.46,17.32c1.73,11.5,3.66,22.89,6,34.09,5.86,27.78,7.76,57.8,13.34,85.76a51.34,51.34,0,0,1,1.09,8.78c-.66,10.65,1.49,21.6,4.06,32.33,7.43,31,4.89,48.69,4.44,68.92-.14,6.52-.35,16.85-3.59-2.1-1.23-7.19-1.4-2.15-1.44.43-.12,6.34-2.18,3.34-2.78,7.27-.25-.66-.51-1.33-.78-2-3-3.67-4.11-16.49-4.56-22.05-2.36-29-8.76-35.29-13.28-52.37,3.59,18.29,5,38.68,9.93,53.78-.85,5.82-2.48-2.74-3.41-2.39l-.45,1.51-.22-3.35h0l-4.08-16.79c-1.91-.06-4-6.55-6-11.26l-.9-2.47c-.73-10.78-3.1-18.1-5.41-25.58,4.56-8.76,5.42-23.3.09-50.35l.11-3.56c-2.32-19.58-8-29-10.72-48-1.07-7.31-2.63-14.61-3.43-22.26.69-1.73,2.61,4.9,2.78-1.49-1.4-2-4-13.55-2.88,1.18-3-1.37-4.07-10-3.12-15.58,1.53-9,0-16.06-3-26.8-2.82-10.2-3.28-17.22.6-12.48-.11-.45-.23-.9-.34-1.33s-.21-.75-.36-1.47c-.29-1.25-.55-2.35-.75-3.19.1-1.39.2-2.74.29-4.06,0-.86.05-1.69.07-2.5,0-1.63.09-3.18.13-4.68.07-3,.13-5.77.18-8.52.13-7.82.45-15.38,3.43-19.86,1.87-2.82,2.78-11.35,2.55-13-1.91-13.51,2.63-30,4.9-45.27,1.45-9.76,2.51-18.62,1.8-25.48a8.12,8.12,0,0,0-.49,1.31c-.15.5-.29,1.14-.42,1.73-.89-.14-1.7-.51-1.22-6.07.73-8.63,2.43-8,3.65-12l-.06.15.05-.22a24.11,24.11,0,0,1,.59-10.67c1.18-4.39,1.45-1.24,1.83.6h0c4.06-7,7.94-15.27,10.19-35.33l-1.72.84c-.78,5,.16,10.17-1.5,14.21s-1.13-3.84-1.68-6.09l.9-8.35.63-1.86,1.49-.32c1.6-11.76.56-25.61,5.65-34.62-2.12-4.09.12-18.22,1-25.47,1.52-12.49,2.46-25,3.67-37.59.61-6.28,1.28-12.56,2.12-18.85q.92-6.24,1.83-12.5c.86-5.61,1.77-11.17,2.73-16.57,5.68-.59,11.33-1.1,16.85-1.52h.07l5.49-.87,3.82-.54,6.64-.85a71.54,71.54,0,0,0,12.52-2.47l2.43-.89c21-2.51,40.15-7.05,60.83-10.15,10.18-1.52,20.33-3.21,30.6-4.58,13.48-1.53-26.37,7,3.56,2.21h0c11.94-4.27,16.83-2.81,22-1.53a24.54,24.54,0,0,1,3-.85c2.9-.07.94.5-.39,1h0c6.09,0,11.12-1.86,16.78-2.6l.83,2.63h.06c3.49-1.43,10.74-3.39-.5-2.75-8.9.35-3.83-2.65-12.74-2.43a191.56,191.56,0,0,1,39.25-4.75c-5.85,2-12.19,2.54-18.39,3.22,4.06.72,3.43,4.14,12.2,1.82,12.24-3.22,29.23-4.24,37.73-8.18,1.76-.81-20.89,2-1.6-1.68,7.45-1.43,21.6-4.29,24-2.44,4.4,3.42,15.18-2,20.92-1.65a87.93,87.93,0,0,1,20.27-5.48c3.63-.58,7.34-1,11.06-1.39l5.58-.46,2.78-.19,4.91-.46,4.21.78,2.38.54,4.34,1c1.73.42.65.52-1.47.55-2.34,0-4.48.11-9.46-.09-1.51.39-2.81.76-3.76,1.09s-1,.56-1.12.81l-9,1.23-4.76-.19,4.54.27c.1,1.34-7.17,1.66-9.31,2.68,3.53-.12,7.06-.23,10.7-.5,1.83-.13,3.68-.31,5.58-.54l2.88-.39,4.21-.67,3.31.34c1,.09,1.58.11,2.42.16a15.06,15.06,0,0,0-1.93-.6l-3.8-.77-3.3.24a9.8,9.8,0,0,1-1.07,0,5.15,5.15,0,0,1-.66-.07c-.72-.14-.72-.47.64-1.18l4.39-.65,5.05.61,3.46.33,6.9.58c4.6.36,9.2.7,13.83,1.15a154.59,154.59,0,0,1,28.45,5c6.53,1.86,18.11,3,27.36,3.64L587,141l.37.19h-.19c12.17,2.73,14,3,14,1,0-2.25,8.09-1.42,14.21-1,11.45.69,8.78,2.3,9.79,3.7,1.25,1.75,8.08,2,12.64,2.86,5.65,1.08,15.06,1.67,12.92,3.77-4.3-.13-10.11-1.83-13.85-1.18,6.38,2.25,9.8,1.26,14.11,1.3,8.57-1.59,17.6.31,26.78,3.41,18.27-1.84,12.34,2.83,18.16,4.48,9.32-.95,21.62,2.1,31.76,2.89,15.13,1.18,30.23,3.07,45.33,5.15l22.65,3.21,28.47,3.91,7.12.92c1.06,6.93,2.18,13.77,3.35,20.7l.37,2.06.3,1.55.6,3.09,1.24,6.17c1.65,8.23,3.34,16.47,4.82,25.06,4.15,24.05,7.5,47.3,10.25,71.64,2.4,21.33,5.59,43.17,8.79,64.65,1.66,11.19,2.54,18.24-.43,16.72.1,1.38.22,2.82.27,4.11.4,11-2.7,11.25-2.75,17.89-.12,15,3.79,2.84,6.22,19.66,3.23,22.33,7.54,44.73,11.14,67.39.42,2.66.85,5.4,1.32,8.4-.32,2.75-.65,5.57-1,8.43q-.37,3.5-.76,7.1c-.46,4.79-.94,9.69-1.42,14.59-.89,9.8-1.63,19.65-2.06,28.77a50.2,50.2,0,0,1-1.94,12.18c-1.08-3.25-.51-11.32-1.06-20.31-1,16-2.7,30.56-2.19,38.76.65,10.52-1.21,15.65-3.17,19.89-2.38,5.17-2.6,7.2-1.39,10.91a27.29,27.29,0,0,1,0,5.42c-.49,10.94-1.78,23.33-4.66,31.6-3.47,10,.3-13.84-2.83-8.47-.17,11.36-.34,22.61-.51,34.16-.08,3.9-.21,9.64-.9,12.7-7.18,31.73-6.6,62.34-12,93.75-.61,3.55-1.2,7.29-1.6,11-.2,1.85-.35,3.68-.44,5.46l0,1.34,0,.75-.09,1.24c-.1,1.66-.19,3.3-.29,4.9-.35,7.67-1,15.56-2,20.13-3.12.2-5.54,0-6.89-.72s-4.32-.47-8.2.06l-12.53,1.88c-28.15,3.48-56.43,11.2-84.4,11.26h.09C684.68,855.59,644.91,861,605.09,867a69.89,69.89,0,0,1-10.64.91c-11.58-.45-18.76-.4-33.43,3-9,2.09-18,3.72-27.12,5.09-4.54.69-9.09,1.31-13.64,1.9L505,879.8l-19.58-3.09c-6-.94-11.94-1.83-17.91-2.62-28-3.69-55.78-7.57-83.33-10.16-36.22-3.42-70.65-7.93-99.43-17.44-4.9-1.62-11.58-2-17.42-3-13.25-2.23-26.25-3.51-35.16-8.27-6.61-3.53-25.92-4.16-41.9-5.88,4.85-2.11,10.35-3.44-2.46-8C175.83,817.17,196.59,814,216.45,816.43ZM155.29,651.92c1.21,10.27,2.81,20.68,4.23,31,1.47-13.29,4.16,14.56,6.16,9.19-.46-15.68-7.31-28.83-7.09-45.63-.34-.7-.79-2.11-1-2C156.38,645,154.07,641.51,155.29,651.92ZM145.94,575c-1.48,1.37.23,7.84.76,12.63,1.19,10.72,4.23,17.52,5.47,27,1.07,8.17.75,8.15,2.62,12.26a217.23,217.23,0,0,0-5.93-43.17C147.94,579.92,147,574,145.94,575Zm-10.32-48a29.53,29.53,0,0,0-.79-3.18c-.09.77-.18,1.54-.28,2.33a31.8,31.8,0,0,0,.87,3.55C136.46,531.93,135.84,528.52,135.62,527Zm6.88,32.2c-1.43-6.63-2.93-11.86-4.64-12.86,1.48,5.53,2.93,11.69,4.65,12.92Zm-6-54.4c.51,5.17,1,9.9,1.42,14.32s.91,8.29,1.45,12.09a118.19,118.19,0,0,0,4.86,21.38c-.83-8.19-1.88-15.31-3.16-22.75S138.28,514.41,136.53,504.8Zm-.92-14.1.39,3.72.23,2.37-.15-2.6Zm5.72-21,.81-7.18a18.61,18.61,0,0,0-1.13,6.74C141,469.67,141.22,469.59,141.33,469.72Zm2-12.72-1,4.57c.27-.9.55-1.78.8-2.76A15.31,15.31,0,0,0,143.34,457Zm-2.58-15.83c-.2,1-.42,2-.55,2.94a3.49,3.49,0,0,0,.09,1.25c.26-.57.53-1.35.79-2.07C141,442.62,140.88,442,140.76,441.17Zm16.47-126.44-.72,5.6C156.93,318.47,157.94,316.63,157.23,314.73Zm2.11-18.15c-.23,1.12-.46,2.19-.69,3.3a8.67,8.67,0,0,0,0,1.25l.76-3.38A6.74,6.74,0,0,0,159.34,296.58ZM237,171.1l-1.83.31,1.59-.07Zm282.83-36.47,12.38,2A39.7,39.7,0,0,0,519.85,134.63Zm-4.44,2.61a5.18,5.18,0,0,0-1,.58l2.46-.58A8.28,8.28,0,0,0,515.41,137.24Zm-6,0a29.76,29.76,0,0,0-3.47-.83l-1.88-.27-2-.21c-1.77.34-3.51.74-4.63,1.06-1.28.34-2.58.69-4,1a46.39,46.39,0,0,0,8.61-1.17l2.1.13,1.87.09C507.13,137.1,508.24,137.15,509.4,137.26Zm18.49,5c-6.57-1.35-16.56-2-13.86-4.29-1.44-.24-2.89-.44-4.35-.59-1.77.54-3.37,1.11-5.54,1.7Zm4.79-5.47c1.71,1.09-.88,1.92,4.66,3.36C539.24,139.12,535.23,137.88,532.68,136.74Zm27.16,4.49h0l-1.33.19Zm16.87,1.69-2.06-.19,1.58.37Zm35.9,4.08-2.79-.05-1.46.09,1.61,0Zm61.48,11.36,8.88,1.18C680,157.7,677,158.13,674.09,158.36Zm96,14.9c-.2,0,.19.23.32.35l1.64.09-.42-.4A14.52,14.52,0,0,0,770.1,173.26ZM719,164.05l5.09.07-4.12-.23A3.63,3.63,0,0,0,719,164.05Zm9.46,8.18,0-.58-9-1.2Zm56.21,6.51a96.49,96.49,0,0,0-15.75-1.16,7.06,7.06,0,0,0,1.72.8C776.25,179.14,782.72,180.34,784.69,178.74Zm39.54,18.82a78.32,78.32,0,0,1-2.36-12.74c-7.4-1.26-15.32-3.35-22.49-4.2,7,1.64,14.53,3.5,22.19,4.51A93.25,93.25,0,0,0,824.23,197.56Zm4.76,7.19a40.49,40.49,0,0,0,.11-5.5c-.32-1.57-.69-3.34-1-4.9a21.26,21.26,0,0,0-1-3.59c-1-2.06-.75,2.14-.13,5.7.13.74.28,1.53.43,2.18s.31,1.18.47,1.81C828.15,201.69,828.53,203.06,829,204.75Zm-.83,19.52-.15-1.8-.17.38ZM847,345.82c-.29-1-1-4.07-1.15-3.88a7.27,7.27,0,0,0-.88,4c0,2.75.67,2.65,1.15,3.41C847,350.63,847.51,351.1,847,345.82Zm6.7,31.21a10.83,10.83,0,0,0,0-1.54c-.13-.15-.33-.56-.37-.37a11.55,11.55,0,0,0,0,1.55C853.45,376.81,853.65,377.23,853.71,377Zm5.57,4.71,1,4.31c-.2-1.07-.39-2.15-.58-3.19A8,8,0,0,0,859.28,381.74ZM856,421.05c-.66-8.42-1.12-16.73-2.06-25.3-1.29-11.76-2.53-11.77-3.4-6.07l0,.14c1.12-1.79,2.17-.25,2.87,7.51S854.35,412.7,856,421.05Zm3.59,15.8a9.34,9.34,0,0,0,.33-1.57c0-.14-.25-1.2-.39-1.83a4.54,4.54,0,0,0-.19,1.18C859.35,435.23,859.5,436.1,859.59,436.85Zm5.52,15-1.28-8.7A14.39,14.39,0,0,0,865.11,451.9Zm7,83.07c.2-1.44.29-2.89.42-4.34a4.1,4.1,0,0,0-.32.91c-.22,1.47-.5,3.08-.58,4.42C871.55,537.79,871.82,537.37,872.15,535Zm-7.87,28.9.24-5.13,0-2.35v2.5ZM857.69,609a47.78,47.78,0,0,0,1.71-5.51c.52-2.38.27-4-.32-3.1a18.83,18.83,0,0,0-1.48,4.16C857.05,606.6,857,608.37,857.69,609Zm-4,34.65c.77-.87,1.41-3,1.37-6.23,0-2,.82-6.91-.18-5.52-.51.7-1.34,4.46-1.79,7.08C852.39,642.84,853,643.54,853.66,643.6Zm-5.28,20.81.46-1.85c-.08-.29-.15-.95-.25-.77a13.34,13.34,0,0,0-.45,1.75ZM845,683.3c.29-1.93.57-3.86.85-5.76C845.52,679.45,844.36,681,845,683.3ZM826.53,799.77c.32-.86.64-1.89,1-2.87a5,5,0,0,0-.19-1c-.32.88-.63,1.93-.95,2.94C826.41,799.14,826.49,799.89,826.53,799.77ZM832,815.65c.81-4.6,1.27-6.45,1.86-9.09s1.17-5,1.76-7.55c1.18-5,2.37-10,3.42-15.16a152.14,152.14,0,0,0,3.5-33c-1.37,8-1.79,22.53-5.12,17.81-.22-.32-1.59,5.58-2.42,8.59,1.41,4,.84,10.26-.15,17-.53,3.38-1.08,6.89-1.6,10.28-.26,1.69-.49,3.36-.67,5-.09.89-.17,1.75-.26,2.6C832.25,813.34,832.15,814.51,832,815.65Zm-8,18c-8.49.45-3.68-1.08-1.15-2.23l-13,1.86a17.39,17.39,0,0,1-3.6,1.65c-1.51.51-3.35,1-5.26,1.5,1.89.2,3.75.31,5.58.32,1,0,1.74,0,2.84,0l4.45-.4c5.94-.62,11.82-1.55,17.24-2.65.48-5.84.73-11.62.8-17-.6,5.38-.72,10.76-1.47,16.37C828.47,833.32,826.32,833.56,824,833.69Zm-33.41-3.62,25.23-3.65c-2.36.16-4.62.38-6.87.66s-4.13.54-6.2.88Zm-12.09,7.71a7.92,7.92,0,0,0,5.9,0,71.37,71.37,0,0,1,12-2.67l13.07-1.76h-3.37c-1.07,0-2.15.08-3.24.16-2.19.17-4.43.45-6.7.77-4.54.65-9.19,1.49-13.71,2.06C778.18,836.87,777.1,837.21,778.5,837.78Zm-1.34,4.6,3.55-.56c-.48,0-.94,0-1.47,0a18.17,18.17,0,0,0-1.8.27C777.25,842.16,777.24,842.28,777.16,842.38Zm-25.55-2.13,8.85,1.41c1-1.33,6.52-3.49-2.36-2.53C756,839.36,753.78,839.87,751.61,840.25Zm-77.9,11c-.51,1.92,4.48,1.79,13,.28C678.51,852.94,682.29,849.63,673.71,851.25Zm-23.61,5a33.74,33.74,0,0,0,4.66,0,11.16,11.16,0,0,0,3.93-1.51c.67-.67-1.21-.61-4.58.12Zm-11.83-1.82c.75,0,1.64.06,2.49.08l1-.45-2.55-.06A7.15,7.15,0,0,0,638.27,854.38Zm-15.62,5.7a2,2,0,0,0,.81.22c1-.14,2-.34,3-.52-.74,0-1.4-.11-2.25-.09A12.43,12.43,0,0,0,622.65,860.08Z"/><polygon class="cls-10" points="141.4 384.29 141.38 384.28 141.31 384.53 141.4 384.29"/><polygon class="cls-10" points="866.38 428.3 866.37 427.96 866.35 428.21 866.38 428.3"/><path class="cls-10" d="M870.76,456.87c.74,3.41,1.36,1.06,1.23-1.47-.54-10.59-3-18-5.11-25.8a9.87,9.87,0,0,0-.5-1.3C866.3,438.5,868.78,447.81,870.76,456.87Z"/><path class="cls-10" d="M728.58,161c7.52.69,17.42,2.31,18.49-.86-9.16-.22-18.52-1.9-22.31-.51C724.42,159.74,727.56,160.9,728.58,161Z"/><path class="cls-10" d="M173.09,773.78c-1-6.29-2-1.5-3.1-4l1.93,13.43C172.68,781.16,174.23,780.86,173.09,773.78Z"/><path class="cls-10" d="M171.92,783.2l0,.06A45.25,45.25,0,0,1,170,769.7l0,.07-.05-.34v.25c-1.28-12.13-3.47-13.33-5.48-16.77,1,9.46-3,10.32-.14,20.05,4.68,15.76,7.4,43.2,13.49,50.08-.14-14.59-6.74-25.38-5.93-39.75l.1.29h0Z"/><path class="cls-10" d="M151.49,329.89l0-.15s0-.11,0-.15Z"/><polygon class="cls-10" points="866.37 427.96 866.3 427.83 866.35 428.21 866.37 427.96"/><path class="cls-10" d="M866.3,427.83c-.72-5.61-1-12.27-3-14.7-.24-.29-.57.8-.51,1.7C863.3,422.83,864.85,425.1,866.3,427.83Z"/><path class="cls-10" d="M161.1,734.4c-1-.3-1.07,1.35-.54,3.92a14.87,14.87,0,0,0,1.49,4.42c.31.39.47-1.54.69-2.44C162.11,738.05,161.49,735.79,161.1,734.4Z"/><path class="cls-10" d="M177.45,775.67c.27,1.8,1.41,4.5,1.9,4.64,1.23.36.31-4.07-.24-7.45q-.37-1-.78-2C177.83,771.76,176.71,770.79,177.45,775.67Z"/><path class="cls-10" d="M185.11,810.83a25.46,25.46,0,0,0-.68-5.44c-.91-2.53-1,.07-1.24,1.87-.05.94-.1,1.89-.16,2.85C183.84,811.28,184.9,814.13,185.11,810.83Z"/><path class="cls-10" d="M183,823.64a29.26,29.26,0,0,0-.11-3.43,31.7,31.7,0,0,0-1.32-3.5c0,1.15.06,2.3.11,4.17Z"/><path class="cls-10" d="M789.6,168.92c3.56-.11,2.7-.9-.45-1.91l-2,.09-3.37,1C785.76,168.41,788.41,169,789.6,168.92Z"/><path class="cls-10" d="M603.42,138.2c-.54-.33-.79-.76-1.65-.94a30.42,30.42,0,0,0-3.72-.25c.46.3.71.74,1.42.88A38.89,38.89,0,0,0,603.42,138.2Z"/><path class="cls-10" d="M132.3,459c.32-2.85.38-5.57.81-13-2,9.62-2.56,11.78-2.62,13-.06,1.6.19,3.28.53,3.37S132.17,460.07,132.3,459Z"/><path class="cls-10" d="M149.44,695.35a5,5,0,0,0-1-1.61c.09,1.29.17,2.52.24,3.74.33.39.71,1.17.95,1A16.31,16.31,0,0,0,149.44,695.35Z"/><path class="cls-10" d="M836.61,190.41c.19,0,0-3-.08-4.79-.46-2.22-1-5.26-1.34-6.17-.23-.58-.42,1.49-.27,3C835.34,186.61,836.05,190.4,836.61,190.41Z"/><path class="cls-10" d="M147.63,632.44c0,5.68,1.44,6.1,2.37,7.08l.11-3.56C149.18,633.69,147.64,627.31,147.63,632.44Z"/><path class="cls-10" d="M787.14,167.1l2-.09c-.76-.79.28-1.59-5.17-2.35a11.5,11.5,0,0,0-3.27,0C780.12,165.49,784.38,166.29,787.14,167.1Z"/><path class="cls-10" d="M181.24,804.86c0,5.22,1.1,4.55,1.79,5.25.06-1,.11-1.91.16-2.85C182.3,803.25,181.23,801.23,181.24,804.86Z"/><path class="cls-10" d="M330.64,149.62a18.25,18.25,0,0,0,2.94-.9,9.91,9.91,0,0,0-2.55-.36,13.6,13.6,0,0,0-3.33.76C326.86,149.71,327.88,150,330.64,149.62Z"/><path class="cls-10" d="M170.42,738.65c.27,2.52.41,4.52.7,6.43a10.13,10.13,0,0,0,.89,2.26c-.15-1.94-.24-3.87-.49-5.82A15.08,15.08,0,0,0,170.42,738.65Z"/><path class="cls-10" d="M808.24,168.49l-1.92-1-3.78-.21a5.14,5.14,0,0,0,1.79,1A33.25,33.25,0,0,0,808.24,168.49Z"/><path class="cls-10" d="M585.66,140.32,587,141a.64.64,0,0,0-.24-.27A8.49,8.49,0,0,0,585.66,140.32Z"/><polygon class="cls-10" points="143.88 624.17 143.97 625.95 144.3 625.89 143.88 624.17"/><polygon class="cls-10" points="150.11 333.13 151.34 329.96 150.19 330.57 150.11 333.13"/><polygon class="cls-10" points="151.49 329.88 151.49 329.59 151.34 329.96 151.49 329.88"/><path class="cls-10" d="M189.47,251.35a13.08,13.08,0,0,0,.78-2.54,22.44,22.44,0,0,0,0-3.07c-.44,2-.72,3.22-.93,4.47A2.93,2.93,0,0,0,189.47,251.35Z"/><polygon class="cls-10" points="180.13 339.35 180.16 339.27 179.86 334.66 179.78 334.91 180.13 339.35"/><polygon class="cls-10" points="180.16 339.28 180.13 339.35 180.2 340.52 180.16 339.28"/><path class="cls-10" d="M216.92,167.36l2.43-.89C216.55,166.67,215.88,167,216.92,167.36Z"/><path class="cls-10" d="M156.22,717.92l-.9-2.47C155.52,718.32,155.83,719.06,156.22,717.92Z"/><polygon class="cls-10" points="566.51 136.83 566.34 137.06 567.65 137.15 566.51 136.83"/><path class="cls-10" d="M152.41,321.39l.62-1.86C152.71,318.54,152.49,319.1,152.41,321.39Z"/><polygon class="cls-10" points="177.81 794.03 177.49 792.57 177.51 793.95 177.81 794.03"/><polygon class="cls-10" points="179.56 793.79 179.42 792.56 179.23 793.08 179.56 793.79"/><path class="cls-10" d="M156.64,657.68c.32,2.79,1,6.35,1.58,4.69a24.45,24.45,0,0,0,0-4.19c-.48-3.94-1.08-5.64-1.45-5A14,14,0,0,0,156.64,657.68Z"/><path class="cls-11" d="M342.64,300.82s261.06,30.91,346.08-3.08-31.87-75.66-31.87-75.66S341.75,216.57,342.64,300.82Z"/><path class="cls-12" d="M656.84,222.07S574.46,280.65,404.39,297c-19.43,1.87-40,3.2-61.73,3.82,0,0-31.81-135.8,108-172.49q7.14-1.86,14.86-3.39C622.34,94.31,656.84,222.07,656.84,222.07Z"/><circle class="cls-13" cx="548.67" cy="207.07" r="43.85" transform="translate(-37.48 225.73) rotate(-22.5)"/><path class="cls-14" d="M570.69,207.07a22,22,0,1,1-22-22A22,22,0,0,1,570.69,207.07Z"/><path class="cls-15" d="M404.39,297c-19.43,1.87-40,3.2-61.73,3.82,0,0-31.81-135.8,108-172.49C419.49,160.06,378,220,404.39,297Z"/><path class="cls-10" d="M998.29,504.54a32.25,32.25,0,0,0-1.39-3.91c-.63-1.17-1.8-2.31-.44-3.86h0c.7.24.51,1,2.64.9-1-.55.52-1.9-2.33-1.2-.46-1-2.16-1.53-3.29-2.16s-1.77-1.36-.24-3.12c3.5-2.51,3.43-4,0-4.48,1.84-.76,1.48-1.13.54-1.37-.78-.22-2.51.1-2-.76,1.27-2.34-1.06-2.36-2-3.24s-1.15-2-3.32-1.32c-.26.08-.17-.64-.29-1h.06l0-.1-.1.1a4.36,4.36,0,0,1-1.21,0c-1-.4-1.34-1.25-.24-3.19-1.82.58-3.26.86-3.74-.36l.2-.64c.06-.3-1.42.62-.19-.46,2.16-1.85,2.78.13,4.94-.58-.31-1.58-1.72-1.72-3.11-1.61s-2.9.53-3.6-.35c1.27-1.45,1.68,0,2.91-1.13-.39-1.49-1.56-1.46-3-1-2,.64-3.59,1-4.71-.32a12.28,12.28,0,0,0-4.65-2.94,3.14,3.14,0,0,0,.53-.44c-.06-.28-.11-.55-.13-.68-.33-.18-.6,0-.7.5a.87.87,0,0,0,.08.53c-.78-.32-1.54-.73-2.32-1.09-3.44-1.74-7.52-1.19-11.17-.89h0c-.23-.64-.49-.64-.72,0-.52,0-1,.33-1.55-.28-.81-.86-2-1-2.52.19-1.41,3.76-3.39,2.82-5.33,3.39-1.12.28-2.36.22-3.47.61a3.6,3.6,0,0,0-2.67,2.5c.87,1,1,1.44.86,1.74l-.63.3c-.55-1.05.81-.65-.23-2a5.12,5.12,0,0,0-3-.39,1.83,1.83,0,0,0-1.44,1.78c0,1.84-.78,2.21-1.67,2.51s-2,.32-2.42,1.28c-1.09,2.87-3.89,4.09-5.61,6.43-.67-2.57,2-2.64,1.13-6-3.45,2-6.15,4.84-6.55,8.73-1.07-.25-1.3-.08-.58.86.86,1.14.8,2.11-.44,2.25-1.55.18-1.7,0-1.71.26a32.28,32.28,0,0,1,0,4.29,2,2,0,0,1-1.42-.3,1.89,1.89,0,0,0-2.47.27c-.65.54-1.25,2.1-1.89,2.26-1,.24-2.09-.63-3.13,1-.34.53-.78-.63-1.09,1.31-.2-.72,0-5.48-.63-1.7-.33-1.57-.64-2.14-.93.27-.14.48-.25,1.75-.48.57.12-1,.33-.24.47-.64.07-2.08-.26-1.46-.45-1.71s-.39.4-.44-1c0-1.09,0-2.81-.35-2-.21.42-.49.66-.48,2.61,0,1.74-.05,1.75-.48.85v0c-.31.58-.71,1-.94.13-.73-2.63-1.36.22-2,.32-.15,1.39.16,1.24.25,1.89-.34.8-.63,0-.91-.73.08-.64.33,0,.33-1.21l-.15-.78c.05.25.1.49.16.74h.31c0-1.45.58-2.35.42-2.77-.59-1.47-1.26-2.82-1.78.82-.2-1-.59,2.41-.72-1.08-.07-1.89-.57-1.12-.83-.77-.67.88.11,1.15,0,1.64-.31,2.39-.89,1.23-1.32,2.55-.31.94-.27-1.94-.4-3.05.21.16.43.43.64-.57-.44-1.23-.85-1.73-1.36-.61.31.88.12,2.86.42,3.63a4,4,0,0,1,0,2.45h0c0-.8,0-1.59,0-2.38-.2,0-.37,1-.58.23h0a1.44,1.44,0,0,0,0-.8s-.07.25-.11.38c-.17-1.72-.33-3.58-.75-1.31h0c-1,.54.35-2-.11-2.34-.36-.05-.71.19-1.06.28-.72.2-1.39,1.82-2.11,1.48h0c-.1-.17-.12,0-.09.47-.26,1.2-.59.28-.89.67h0c-1-2.77-1.95.17-2.91.59-.25.11-.74-.13-.87,2.2-.33-3.33-.8-.76-1.2-.73,0-.42,0-.84,0-1.26h0c0-.41,0-.52-.07-.32l-.28.22a6.58,6.58,0,0,0-.2,2.2c.14.94.31-.49.49-.42l0,1.39c-.69.46-1-1.9-1.24-4.58h0a4.36,4.36,0,0,0,0-1.65c-.17-.53-.28.09-.37.77v0c-.14-.58-.12-2.12-.42-1.72a4.2,4.2,0,0,0-.2,1.78,1.38,1.38,0,0,1,.06.16c0,.07,0,.26,0,.27-.23,1.44-.54,1.59-.88,1.5-.52-.13-1.1-2.08-1.55,1.2-.06.39-.35.63-.45-.65-.17-2-.43-1.41-.69-.58s-.48,1.42-.79,2.33c.18-2.79-.06-3.24-.42-2s-.62,1.74-.92-.66c-.19-1.5-.48-1.58-.54.82.5.81.1,1.67,0,2.64a14.11,14.11,0,0,1,0-2.59c-.27-.23-.52.25-.78.3-.65.13-1,3.86-1.67,3.52a3.92,3.92,0,0,0,.13-1.72c-.19-.69-.21.51-.25,1.2-.94,1.36-1.43-1.13-1.71-6.13-.26,1.1-.52,2.28-.89,1.61l-.09.49a24.45,24.45,0,0,0-.41,3.87c-.19.51-.39,1-.59,1.52h0c0-.07-.07-.14-.11-.22,0,.19,0,.38.05.57a11.6,11.6,0,0,0-.1,2.68c.54-2.47,1.23-1.24,1.87-2.15-.6,1.86-.84,6.66-1.84,5.21-.19-.27-.63-.88-.77,1.31,0-.55,0-1.41-.15-1.35a3.2,3.2,0,0,0-.17,1.09c0,1,.14.75.25.69.13,1,0,2.41.24,3.27.08.35.25,1.1,0,1.3-.65.53-.3,1.95-.08,2.86.68,2.82,1.27,7.14,2.35,4.44.38-.94.76-1.49,1.12.36.05.29.21.26.3.12,1-1.48,2,.48,3-1.25s2-1,3.09-1c1.85-.11,3.7-.54,5.56-.72.19,0,.49-1,.57,1-.1.35-.37-.17-.28.94.06.74.26.09.37-.37.87-1.38,1.7-2.25,2.67-2a15.8,15.8,0,0,0,4.45.09c.83-.07,1.68-1,2.47-.49,3,1.79,6,0,9.06.88,1,.31,2.1,0,3.13.77,2.45,1.9,4.92.47,7.37.81a11.59,11.59,0,0,0,1.86.09c0,.16.21.25.75.14a2.45,2.45,0,0,0,.58-.27,14.48,14.48,0,0,0,3.58-1c.07.93-1.75,2.47-1.09,3.59a6.76,6.76,0,0,0,1.69-2.18c.36.87.76,1.71,1.18,2.54-.16-.33-.47-.53-1.35-.46a2.17,2.17,0,0,0-.81.56c-.16.92.62,1.3,2.55,1.12a8.3,8.3,0,0,1-.37-1.19,35.59,35.59,0,0,0,7.61,10.09l-1.44-.6a8.23,8.23,0,0,1-3.15-2.44c-.79-1.32-.38-3.26-1.62-4.17-.31-.22-.55-.67-1.48,0-.65.49-2,1.45-1.58,1.77,1.13.85.73,2.81,2.51,3.16.74.12.93.63.92,1.42a3.57,3.57,0,0,0,1.67,3.21,11.45,11.45,0,0,0,3.54,1.08c1.74.24,2.68,1.63,4.64,1.22.54-.13,0,1-.36,1.75a2.69,2.69,0,0,0-3.15,1.54c-.9,1.59,0,2.81,1.34,2.19,1.65-.8,2.47-.08,3.45.45s1.94,1.12,3.38.08c.09-.07.15.69.23,1.08-.94,1.25-2.12.21-2.6,2.18s1.12,1.24,1.91,1.5a23.27,23.27,0,0,0,3.27.8,8.19,8.19,0,0,1,3.26,1.17,11,11,0,0,0,4.81,1.58,8.34,8.34,0,0,0,5.07-1.63c.88-.68,1.91-1.15,2.87.59.48.85,1,.48,1.52.63,1.21.31,2.4-.45,3.57-.76s2.34-.33,4,1.63c.09.1.34,0,.41-.19.94-2.38,3.05-2.53,3.61-5.33.42-2.32,2.24-3.48,4.26-1.72,2.37,2,3.68,1.56,4.87.73,3.39-2.6,7-5,9.66-8.42.86-.94,1.64-2,2.43-3a15.13,15.13,0,0,0,2.06-3.25,10.18,10.18,0,0,0,.69-7.85c-.17-.46.19-.69.82-.74,2.94-.23,2.84-2.06,2.59-3.72-.08-.78-.53-1.68-.11-2.26a6.9,6.9,0,0,0,.59-6.25A42.49,42.49,0,0,1,998.29,504.54ZM874,504a3.38,3.38,0,0,1-.07.63c-.57-2.2-1,2.15-1.58.66-.17-2.38.79-1.36.34-4.22.36,0,.72-.12,1.07.06S874,502.89,874,504Zm2.1-.25c-.5,1.23-1,1.26-1.49-.06.15-1.12.15-.84.43-.79s.57-1.74.94-1.48c.17.11.39-.59.43.85A2.23,2.23,0,0,1,876.1,503.74Zm1.9-5.15a1,1,0,0,1,.12-.32c0,.18.06.35.08.52s-.07.31-.11.31S877.92,499.23,878,498.59Zm-1,2.59a7.6,7.6,0,0,1,.46-2.47,5.64,5.64,0,0,1-.45,2.47Zm.22,2.32c.5-2.38,1-1.67,1.65-1C878.17,503.27,877.75,504,877.18,503.5Zm2-2.57-.09.44c0-.16,0-.32.08-.48s.08-.52.13-.78Zm.85,1.61a2.92,2.92,0,0,1,0-.33c.09-.48.16-.08.23.17Zm.38.28c0-.11-.06-.24-.1-.37.06.1.11.2.16.3S880.42,502.86,880.4,502.82Zm.52-3.66c0-.15,0-.28-.08-.44a.78.78,0,0,1,0-.23s.06.08.1.12C881,498.81,880.94,499,880.92,499.16Zm4.24-1.43.19-.05C885.29,498.53,885.22,497.87,885.16,497.73Zm.78-.19c0-.07-.08-.17-.12-.26s0-.16,0-.15a1.17,1.17,0,0,1,.12.2A2,2,0,0,1,885.94,497.54Zm5.78,1.46-.06-.13.07-.05Zm9.56.78a.69.69,0,0,1,.05-.17c0,.27-.05.54-.08.8Zm-.71,1.23c.18-.31.3-1.3.51-.49C900.92,500.71,900.78,501.58,900.57,501Zm.34,1.68c.07-.78.12-1.46.18-2.14a.1.1,0,0,1,.15,0c-.08,2.3.26,1.67.49,2Zm.51-5.7c.18-.66.31-.26.43.2Zm.62,2.63a12.92,12.92,0,0,1-.17-2.34A10.2,10.2,0,0,1,902,499.62Zm.72-1.4,0-.32h0Zm.61-.67,0-.13.07-.08Zm1.16-.68a1.55,1.55,0,0,1,0,.23l0-.25.09-.29Zm2.23,2.14c.1-.55.2-1.27.31,0Zm1.58-.72c0-.12.1-.21.14-.3-.05.18-.11.36-.17.55C908.32,498.45,908.33,498.33,908.34,498.29Zm0,5.73.31,0v.5C908.57,504.33,908.46,504.18,908.36,504Zm4.85-.56-.05.11v-.19Zm-3.07-3.23v.29s0,.08,0,.13a1.32,1.32,0,0,1,0-.27A.3.3,0,0,1,910.14,500.23Zm0,4.51a3.23,3.23,0,0,1-.06-.49c.16-.54.32-1,.54-.88C910.55,505,910.32,504.73,910.13,504.74Zm1-1.51c.4-.19.77,1.95,1.18.42C911.87,505.29,911.49,504.11,911.11,503.23Zm1.16-2c-.1.11-.21-.15-.14-.79a1.77,1.77,0,0,1,.24-.77,4.14,4.14,0,0,1,.18.76A3.73,3.73,0,0,1,912.27,501.2Zm82-12.56c-1.77.77-1.71,0-2.46-.33C993.66,487.78,994.13,488.07,994.3,488.64Zm-77,13.63a2.08,2.08,0,0,1,.14-.53c.18.2.16.63.11,1.18,0,.33,0,.9-.12.59A6.81,6.81,0,0,1,917.28,502.27Zm1.16-2.45c0-.06,0-.18,0-.28a.49.49,0,0,1,.06.16c0,.07,0,.19,0,.29A.58.58,0,0,1,918.44,499.82Zm.77,2.56,0,0c-.26-.33-.32.4-.26,1.58v0c-.19-1.44-.18-2.51.22-2.22l.12.12C919.24,502,919.22,502.2,919.21,502.38Zm23.62-31.74.19.32-1,.19Zm-5.62,68.1c-.7-.69-2-.11-2.92-.34l.47-.74a17.58,17.58,0,0,1,2.38-1.9c.41.24.81.51,1.22.73l-.22.18a3.15,3.15,0,0,0-.32.62l.95,0C938.28,538.81,937.65,539.11,937.21,538.74Zm4.6,2c-.46-1.13-1.31-1.28-2.2-2a7.29,7.29,0,0,0,1.79-.77c.62.26,1.27.47,1.91.7a1.92,1.92,0,0,0,.25.38C943,540.79,942.22,541.7,941.81,540.72Zm1.78-1.71.11-.21c.16.06.33.13.5.18A.92.92,0,0,1,943.59,539Zm23,0h0v0Zm.47,7.78a3,3,0,0,1-.11-.33,1.51,1.51,0,0,1,.37,0,1.65,1.65,0,0,1,.13.32A2.56,2.56,0,0,1,967,546.75ZM991.48,490c1.27,0,1.25.71,1.69,1.16C992.38,490.9,991.28,490.86,991.48,490Z"/><path class="cls-10" d="M983.47,359.18a31.76,31.76,0,0,0-1.39-3.91c-.62-1.16-1.79-2.31-.43-3.85h0c.7.23.5,1,2.64.9-1-.55.51-1.9-2.33-1.2-.47-1-2.16-1.53-3.29-2.17s-1.78-1.35-.25-3.12c3.5-2.51,3.44-4,0-4.47,1.84-.77,1.48-1.13.55-1.38s-2.51.11-2-.75c1.27-2.34-1.06-2.36-2-3.24s-1.15-2-3.32-1.32c-.26.08-.18-.64-.29-1h0l.06-.1-.1.1a4,4,0,0,1-1.21,0c-1-.4-1.35-1.24-.24-3.18-1.83.57-3.27.85-3.75-.36l.2-.64c.07-.3-1.42.61-.19-.46,2.16-1.85,2.79.13,4.94-.58-.31-1.58-1.71-1.72-3.11-1.61s-2.9.53-3.6-.35c1.27-1.45,1.68,0,2.91-1.14-.39-1.48-1.56-1.45-3.05-1-1.95.64-3.58,1-4.7-.32a12.36,12.36,0,0,0-4.65-2.94,3.58,3.58,0,0,0,.52-.44c-.05-.28-.1-.55-.13-.68-.32-.18-.6,0-.7.49a.83.83,0,0,0,.09.54c-.79-.32-1.55-.73-2.33-1.09-3.43-1.75-7.52-1.19-11.17-.89h0c-.23-.64-.48-.64-.72,0-.51,0-1,.33-1.55-.28-.81-.86-2-1-2.51.19-1.41,3.76-3.39,2.82-5.34,3.39-1.11.28-2.35.22-3.47.6a3.62,3.62,0,0,0-2.66,2.51c.87,1,1,1.44.85,1.74l-.62.3c-.56-1.05.8-.65-.24-2a5.1,5.1,0,0,0-3-.39,1.8,1.8,0,0,0-1.43,1.78c0,1.84-.79,2.21-1.68,2.51s-2,.32-2.42,1.28c-1.09,2.87-3.88,4.08-5.6,6.43-.68-2.57,2-2.64,1.12-6-3.44,2-6.14,4.84-6.55,8.73-1.07-.25-1.29-.08-.58.85.87,1.14.81,2.12-.43,2.26-1.55.18-1.7,0-1.72.26a30.67,30.67,0,0,1,0,4.29,2,2,0,0,1-1.41-.3,1.9,1.9,0,0,0-2.48.26c-.64.55-1.24,2.11-1.89,2.26-1,.25-2.09-.62-3.12,1-.35.53-.78-.63-1.09,1.31-.21-.73,0-5.48-.64-1.7-.32-1.57-.64-2.14-.92.26-.15.49-.26,1.75-.49.58.13-1,.33-.25.48-.64.06-2.08-.26-1.47-.46-1.71s-.39.4-.44-1c0-1.1,0-2.82-.35-2-.21.42-.48.66-.47,2.61,0,1.74-.06,1.75-.48.85v-.15a.57.57,0,0,0,0,.13c-.32.58-.72,1-.95.13-.72-2.63-1.36.21-2,.32-.16,1.39.15,1.24.25,1.88-.35.81-.63,0-.91-.73.07-.63.32,0,.32-1.2l-.15-.78c.06.25.11.49.16.74h.31c0-1.46.59-2.35.42-2.77-.58-1.47-1.25-2.82-1.78.82-.19-1-.58,2.4-.72-1.08-.07-1.9-.56-1.12-.82-.78-.67.89.11,1.16.05,1.65-.31,2.39-.89,1.22-1.32,2.55-.31.94-.27-1.94-.41-3,.22.15.43.43.64-.58-.44-1.23-.84-1.73-1.35-.6.3.87.12,2.86.42,3.63a4,4,0,0,1,0,2.45h0c0-.79,0-1.58,0-2.37-.19,0-.37,1-.58.23h0a1.44,1.44,0,0,0,0-.8c0-.05-.07.24-.1.38-.17-1.72-.33-3.58-.76-1.31h0c-1,.54.36-2-.11-2.34-.35-.05-.7.19-1.06.28-.71.19-1.38,1.82-2.1,1.47h0c-.1-.16-.13,0-.09.48-.27,1.2-.6.28-.89.67h0c-1-2.77-2,.18-2.92.6-.25.11-.74-.13-.87,2.19-.33-3.32-.79-.75-1.2-.73,0-.41,0-.83,0-1.25h0c0-.41,0-.52-.06-.32l-.29.22a6.81,6.81,0,0,0-.2,2.19c.15.95.32-.48.49-.41,0,.46,0,.93,0,1.39-.69.46-1-1.9-1.25-4.58h0a4.17,4.17,0,0,0,0-1.65c-.16-.53-.27.09-.36.76v0c-.14-.58-.13-2.13-.43-1.72a4.17,4.17,0,0,0-.2,1.78.38.38,0,0,1,.06.16,2.33,2.33,0,0,1,.05.27c-.23,1.44-.53,1.59-.87,1.5-.53-.13-1.11-2.08-1.56,1.19,0,.4-.35.64-.45-.64-.17-2-.42-1.41-.69-.58s-.48,1.41-.78,2.33c.18-2.79-.07-3.24-.42-2s-.63,1.74-.93-.66c-.18-1.49-.48-1.58-.54.83.51.81.1,1.66,0,2.64a14.14,14.14,0,0,1,0-2.59c-.26-.23-.52.25-.77.3-.65.13-1,3.86-1.68,3.51a3.62,3.62,0,0,0,.13-1.72c-.19-.68-.21.51-.25,1.21-.94,1.36-1.43-1.13-1.7-6.13-.27,1.1-.53,2.27-.89,1.61l-.09.48a24.59,24.59,0,0,0-.41,3.88l-.59,1.51h0l-.12-.21c0,.19,0,.38,0,.57a11.11,11.11,0,0,0-.09,2.67c.53-2.47,1.23-1.23,1.87-2.14-.6,1.86-.85,6.66-1.84,5.21-.19-.28-.63-.89-.77,1.3,0-.54,0-1.4-.16-1.35a3.57,3.57,0,0,0-.17,1.1c0,1,.14.75.26.68.13,1,0,2.42.23,3.28.09.35.26,1.1,0,1.3-.66.53-.31,1.95-.09,2.86.68,2.82,1.27,7.14,2.36,4.43.37-.93.75-1.48,1.11.37.06.28.21.26.3.11,1-1.47,2,.49,3-1.25s2.06-1,3.09-1c1.86-.11,3.71-.54,5.56-.73.19,0,.5-.94.57,1-.09.35-.37-.18-.27.94.06.74.25.09.37-.37.87-1.38,1.69-2.25,2.67-2.05a15.43,15.43,0,0,0,4.45.08c.82-.06,1.68-.94,2.46-.48,3,1.78,6.05,0,9.07.87,1,.32,2.1,0,3.13.77,2.45,1.91,4.91.48,7.37.82a11.41,11.41,0,0,0,1.85.09c0,.16.22.25.75.13a2.22,2.22,0,0,0,.58-.26,15.49,15.49,0,0,0,3.59-1c.07.93-1.75,2.47-1.09,3.59a6.91,6.91,0,0,0,1.69-2.18c.35.86.76,1.7,1.18,2.54-.16-.33-.48-.54-1.35-.46a2.1,2.1,0,0,0-.82.56c-.15.92.63,1.3,2.56,1.11a9,9,0,0,1-.38-1.19,35.71,35.71,0,0,0,7.62,10.1l-1.44-.6a8.23,8.23,0,0,1-3.15-2.44c-.8-1.32-.39-3.26-1.62-4.17-.31-.22-.55-.67-1.48,0-.66.49-2,1.45-1.59,1.77,1.14.84.74,2.81,2.52,3.15.74.12.93.63.92,1.42a3.55,3.55,0,0,0,1.66,3.21,11.37,11.37,0,0,0,3.54,1.09c1.75.24,2.69,1.63,4.65,1.22.53-.13,0,1-.36,1.75a2.71,2.71,0,0,0-3.16,1.53c-.9,1.6,0,2.82,1.34,2.2,1.66-.8,2.47-.08,3.45.45s2,1.11,3.38.08c.1-.07.15.68.24,1.08-.95,1.25-2.13.21-2.6,2.17s1.12,1.25,1.9,1.51a23.61,23.61,0,0,0,3.27.8,8.08,8.08,0,0,1,3.26,1.17,11,11,0,0,0,4.82,1.58,8.36,8.36,0,0,0,5.07-1.63c.87-.69,1.9-1.15,2.87.59.48.85,1,.48,1.51.63,1.22.31,2.4-.45,3.58-.76s2.33-.34,4,1.63c.08.1.34,0,.4-.19.94-2.38,3-2.53,3.61-5.33.43-2.33,2.25-3.48,4.27-1.72,2.37,2,3.68,1.56,4.86.73,3.39-2.61,7-5.06,9.66-8.42.87-.95,1.65-2,2.44-3a15.55,15.55,0,0,0,2-3.26,10.11,10.11,0,0,0,.69-7.84c-.17-.47.19-.7.82-.74,3-.23,2.85-2.06,2.6-3.72-.09-.78-.53-1.68-.11-2.26a6.9,6.9,0,0,0,.59-6.25A42.79,42.79,0,0,1,983.47,359.18Zm-124.28-.54c0,.2-.05.42-.07.63-.57-2.2-1,2.14-1.58.66-.18-2.38.78-1.36.34-4.22a2.06,2.06,0,0,1,1.07.06C859.31,356,859.18,357.54,859.19,358.64Zm2.1-.26c-.5,1.24-1,1.26-1.49-.05.15-1.12.14-.85.43-.79s.57-1.74.94-1.49c.16.12.39-.58.43.86A2.26,2.26,0,0,1,861.29,358.38Zm1.89-5.14a1,1,0,0,1,.13-.32c0,.17.05.35.08.52s-.08.3-.11.3S863.1,353.87,863.18,353.24Zm-1,2.59a7.41,7.41,0,0,1,.46-2.48,5.62,5.62,0,0,1-.46,2.48Zm.22,2.32c.49-2.38,1-1.67,1.64-1C863.35,357.92,862.93,358.68,862.37,358.15Zm2-2.57c0,.15-.05.29-.08.44,0-.16.05-.32.08-.48l.12-.78Zm.86,1.61a3.22,3.22,0,0,1,0-.33c.09-.48.16-.08.24.16Zm.38.27a2.63,2.63,0,0,1-.1-.36l.16.3S865.6,357.5,865.59,357.46Zm.51-3.66c0-.14-.05-.27-.07-.43a1.37,1.37,0,0,1,0-.23s.07.07.1.12S866.13,353.63,866.1,353.8Zm4.24-1.42.2-.05C870.48,353.17,870.41,352.52,870.34,352.38Zm.78-.2a2.17,2.17,0,0,1-.12-.26c0-.05,0-.16,0-.14a1.2,1.2,0,0,1,.11.2C871.15,352.06,871.13,352.2,871.12,352.18Zm5.78,1.47,0-.13.06-.06Zm9.57.78a.38.38,0,0,1,0-.17l-.08.8C886.45,354.85,886.45,354.63,886.47,354.43Zm-.71,1.23c.17-.31.3-1.31.5-.49C886.1,355.36,886,356.22,885.76,355.66Zm.34,1.68c.06-.78.12-1.46.17-2.14a.1.1,0,0,1,.15,0c-.08,2.3.26,1.67.49,2.05Zm.51-5.7c.18-.66.3-.26.42.2Zm.61,2.63a12.92,12.92,0,0,1-.17-2.34A10.15,10.15,0,0,1,887.22,354.27Zm.73-1.4,0-.33h0Zm.61-.67-.06-.13.07-.09Zm1.16-.68-.06.23.05-.25c0-.1.07-.2.1-.3Zm2.23,2.14c.09-.56.19-1.28.3,0Zm1.58-.72a2.22,2.22,0,0,1,.14-.31c-.06.19-.12.37-.17.55A1.19,1.19,0,0,1,893.53,352.94Zm0,5.73.31,0v.5C893.75,359,893.65,358.82,893.54,358.67Zm4.85-.56,0,.11V358Zm-3.07-3.23,0,.29-.06.12c0-.09,0-.21,0-.26A.37.37,0,0,1,895.32,354.88Zm0,4.51a3.23,3.23,0,0,1-.06-.49c.17-.54.33-1,.54-.88C895.73,359.64,895.51,359.38,895.31,359.39Zm1-1.51c.39-.19.76,1.95,1.17.42C897.05,359.94,896.68,358.76,896.3,357.88Zm1.16-2c-.1.11-.21-.15-.15-.79a1.72,1.72,0,0,1,.24-.77,3.28,3.28,0,0,1,.19.76A4.4,4.4,0,0,1,897.46,355.85Zm82-12.57c-1.76.78-1.7,0-2.46-.32C978.84,342.43,979.31,342.71,979.48,343.28Zm-77,13.64a2.56,2.56,0,0,1,.13-.53c.18.2.17.62.12,1.18,0,.33,0,.9-.12.59A7,7,0,0,1,902.47,356.92Zm1.16-2.46a1.28,1.28,0,0,1,0-.27.33.33,0,0,1,.05.15c0,.08,0,.2,0,.3A.39.39,0,0,1,903.63,354.46Zm.76,2.57v0c-.27-.33-.32.4-.27,1.57v0c-.19-1.45-.19-2.52.22-2.22a1.31,1.31,0,0,1,.11.12C904.42,356.68,904.41,356.85,904.39,357ZM928,325.29l.19.31-1,.2Zm-5.61,68.1c-.71-.69-2-.11-2.93-.34l.48-.74a17.28,17.28,0,0,1,2.38-1.91c.41.25.8.51,1.22.74l-.22.18a3.11,3.11,0,0,0-.33.62l1,0,.37-.38h0l-.37.38C923.47,393.45,922.83,393.76,922.4,393.39Zm4.6,2c-.47-1.13-1.32-1.29-2.21-2a7,7,0,0,0,1.8-.78c.62.27,1.26.48,1.9.71a2.49,2.49,0,0,0,.25.38C928.2,395.44,927.4,396.35,927,395.37Zm1.78-1.71.1-.21c.17.06.33.13.5.18A1,1,0,0,1,928.78,393.66Zm23,0h0v0Zm.47,7.77s-.07-.21-.11-.33a1.61,1.61,0,0,1,.38,0,2.13,2.13,0,0,1,.13.32A1.79,1.79,0,0,1,952.21,401.39Zm24.46-56.74c1.27,0,1.25.71,1.69,1.16C977.56,345.54,976.46,345.51,976.67,344.65Z"/><path class="cls-10" d="M955.54,799.39a41.68,41.68,0,0,1-1.23-4.15,33.5,33.5,0,0,0-1.39-3.91c-.63-1.17-1.79-2.31-.44-3.86h0c.71.24.51,1,2.64.9-1-.55.52-1.9-2.33-1.2-.46-1-2.16-1.53-3.29-2.16s-1.77-1.35-.24-3.12c3.5-2.51,3.43-4,0-4.48,1.84-.76,1.48-1.13.55-1.37s-2.52.1-2-.76c1.27-2.33-1.06-2.35-2-3.23s-1.15-2-3.32-1.32c-.26.08-.17-.64-.29-1h.06l0-.11-.1.11a4,4,0,0,1-1.21,0c-1-.4-1.34-1.25-.24-3.19-1.82.58-3.26.86-3.74-.36l.2-.64c.06-.3-1.42.62-.19-.45,2.16-1.86,2.78.13,4.94-.58-.31-1.59-1.72-1.72-3.11-1.62s-2.9.53-3.6-.34c1.27-1.45,1.68,0,2.91-1.14-.39-1.48-1.56-1.45-3-1-2,.63-3.59,1-4.7-.32a12.27,12.27,0,0,0-4.66-2.94,3.86,3.86,0,0,0,.53-.45c-.06-.27-.11-.55-.13-.67-.33-.18-.6,0-.7.49a.87.87,0,0,0,.08.53c-.78-.31-1.54-.73-2.32-1.08-3.44-1.75-7.52-1.19-11.17-.89h0c-.23-.64-.48-.65-.72,0-.52,0-1,.33-1.55-.29-.81-.85-2-1-2.52.2-1.41,3.76-3.39,2.82-5.33,3.39-1.12.27-2.36.22-3.47.6a3.62,3.62,0,0,0-2.67,2.51c.87,1,1,1.44.86,1.74-.21.09-.42.2-.63.3-.55-1,.81-.65-.23-2a5,5,0,0,0-3-.39,1.81,1.81,0,0,0-1.44,1.78c0,1.83-.78,2.21-1.67,2.5s-2,.33-2.42,1.28c-1.09,2.87-3.89,4.09-5.61,6.44-.67-2.58,2-2.64,1.13-6-3.45,2-6.15,4.85-6.55,8.73-1.07-.24-1.3-.08-.58.86.86,1.14.8,2.12-.44,2.25-1.55.19-1.7,0-1.71.26a30.81,30.81,0,0,1,0,4.3,2.1,2.1,0,0,1-1.42-.3,1.89,1.89,0,0,0-2.47.26c-.65.54-1.24,2.11-1.89,2.26-1,.25-2.09-.62-3.13,1-.34.54-.77-.62-1.09,1.31-.2-.72,0-5.48-.63-1.69-.33-1.58-.64-2.14-.93.26-.14.48-.25,1.75-.48.58.12-1,.33-.25.47-.64.07-2.08-.25-1.47-.45-1.72s-.39.41-.44-1c0-1.09,0-2.81-.35-2-.21.42-.49.67-.48,2.62,0,1.74-.05,1.75-.48.85v0c-.31.57-.71,1-.94.12-.73-2.63-1.36.22-2,.33-.15,1.39.16,1.24.25,1.88-.34.81-.62,0-.91-.73.08-.63.33,0,.33-1.2l-.15-.78c.05.24.1.49.16.73h.31c0-1.45.58-2.34.42-2.76-.59-1.47-1.26-2.82-1.78.82-.2-1-.59,2.4-.72-1.09-.07-1.89-.57-1.11-.83-.77-.67.89.11,1.16,0,1.65-.31,2.38-.89,1.22-1.32,2.54-.3,1-.27-1.93-.4-3,.21.15.43.43.64-.58-.44-1.23-.85-1.73-1.36-.61.31.88.12,2.87.42,3.64a4,4,0,0,1,0,2.44h0l0-2.38c-.19,0-.37,1-.58.24h0a1.44,1.44,0,0,0,0-.8s-.07.24-.11.37c-.17-1.71-.32-3.57-.75-1.31h0c-1,.54.35-2-.11-2.34-.36-.06-.71.18-1.06.28-.72.19-1.39,1.82-2.11,1.47h0c-.09-.16-.12,0-.09.48-.26,1.19-.59.27-.88.67h0c-1-2.77-2,.17-2.91.6-.25.11-.74-.14-.87,2.19-.33-3.33-.8-.75-1.2-.73,0-.42,0-.84,0-1.26h0c0-.4,0-.52-.07-.31l-.28.22a6.49,6.49,0,0,0-.2,2.19c.14.94.31-.48.49-.42l0,1.4c-.69.46-1-1.91-1.24-4.58h0a4.37,4.37,0,0,0,0-1.65c-.17-.54-.28.09-.36.76v0c-.14-.58-.12-2.13-.42-1.73a4.22,4.22,0,0,0-.2,1.79l.06.15c0,.08,0,.26,0,.28-.23,1.44-.54,1.58-.87,1.5-.53-.13-1.11-2.09-1.56,1.19-.06.4-.35.63-.45-.65-.17-2-.43-1.4-.69-.57s-.48,1.41-.79,2.32c.18-2.79-.06-3.24-.42-2s-.62,1.74-.92-.66c-.18-1.49-.48-1.58-.54.83.5.8.1,1.66,0,2.64a14.11,14.11,0,0,1,0-2.59c-.27-.23-.52.24-.77.29-.66.13-1,3.87-1.68,3.52a3.89,3.89,0,0,0,.13-1.72c-.19-.69-.21.51-.25,1.2-.94,1.37-1.43-1.13-1.71-6.13-.26,1.11-.52,2.28-.89,1.62l-.09.48a24.45,24.45,0,0,0-.41,3.87c-.19.51-.39,1-.59,1.52h0a2.12,2.12,0,0,0-.11-.21c0,.19,0,.38.05.57a11.54,11.54,0,0,0-.1,2.67c.54-2.47,1.23-1.23,1.87-2.14-.6,1.86-.84,6.66-1.84,5.21-.19-.28-.63-.89-.77,1.3,0-.54,0-1.4-.15-1.35a3.25,3.25,0,0,0-.17,1.09c0,1,.14.76.25.69.13,1,0,2.42.24,3.28.08.35.25,1.1,0,1.3-.65.53-.3,2-.08,2.86.68,2.81,1.27,7.14,2.35,4.43.38-.94.76-1.48,1.12.37,0,.28.21.25.3.11,1-1.47,2,.49,3-1.25s2-1,3.09-1c1.85-.12,3.71-.54,5.56-.73.19,0,.49-.94.57,1-.1.35-.37-.17-.28.94.06.75.26.1.38-.36.86-1.38,1.69-2.26,2.66-2a15.8,15.8,0,0,0,4.45.08c.83-.06,1.68-.94,2.47-.48,3,1.78,6,0,9.06.87,1.05.31,2.1,0,3.13.77,2.45,1.9,4.92.47,7.37.81a11.6,11.6,0,0,0,1.86.1c0,.16.21.25.75.13a2.1,2.1,0,0,0,.58-.27,14.48,14.48,0,0,0,3.58-1c.07.94-1.75,2.47-1.09,3.6a6.77,6.77,0,0,0,1.69-2.19c.36.87.76,1.71,1.18,2.54-.16-.32-.47-.53-1.35-.45a2.15,2.15,0,0,0-.81.55c-.16.92.62,1.31,2.55,1.12a8.3,8.3,0,0,1-.37-1.19,35.77,35.77,0,0,0,7.61,10.1l-1.44-.6a8.33,8.33,0,0,1-3.15-2.44c-.79-1.32-.38-3.26-1.62-4.18-.31-.21-.55-.67-1.48,0-.65.49-2,1.45-1.58,1.76,1.13.85.73,2.82,2.51,3.16.75.12.93.63.92,1.42a3.55,3.55,0,0,0,1.67,3.21,11.74,11.74,0,0,0,3.54,1.09c1.74.24,2.68,1.62,4.64,1.22.54-.13,0,1-.36,1.75a2.69,2.69,0,0,0-3.15,1.53c-.9,1.6,0,2.82,1.34,2.19,1.65-.79,2.47-.07,3.45.45s1.94,1.12,3.38.09c.09-.07.15.68.23,1.08-.94,1.25-2.12.21-2.6,2.17s1.12,1.25,1.91,1.51a23.27,23.27,0,0,0,3.27.8,8.32,8.32,0,0,1,3.26,1.16,10.83,10.83,0,0,0,4.81,1.58,8.33,8.33,0,0,0,5.07-1.62c.88-.69,1.91-1.16,2.88.59.47.85,1,.48,1.51.62,1.21.31,2.4-.45,3.57-.76s2.34-.33,4,1.63c.09.11.34,0,.41-.18.94-2.38,3-2.54,3.61-5.33.42-2.33,2.24-3.49,4.26-1.72,2.37,2,3.68,1.56,4.87.73,3.39-2.61,7-5.06,9.66-8.42.86-1,1.65-2,2.43-3a15.2,15.2,0,0,0,2.06-3.26,10.18,10.18,0,0,0,.69-7.85c-.17-.46.19-.69.82-.73,2.94-.23,2.84-2.06,2.6-3.72-.09-.79-.54-1.68-.12-2.26A6.92,6.92,0,0,0,955.54,799.39ZM830,794.7a4.72,4.72,0,0,1-.08.63c-.57-2.2-1,2.14-1.58.66-.17-2.38.79-1.36.34-4.23.36,0,.72-.12,1.07.07S830,793.59,830,794.7Zm2.09-.26c-.49,1.24-1,1.26-1.49-.05.15-1.12.15-.85.43-.79s.57-1.75.94-1.49c.17.11.4-.59.43.86A2.2,2.2,0,0,1,832.12,794.44Zm1.9-5.14a.89.89,0,0,1,.12-.32c0,.17.06.35.08.52s-.07.3-.11.3S833.94,789.93,834,789.3Zm-1,2.58a7.66,7.66,0,0,1,.45-2.47,5.7,5.7,0,0,1-.45,2.48Zm.21,2.32c.5-2.38.95-1.66,1.65-1C834.19,794,833.77,794.74,833.2,794.2Zm2-2.56-.09.44c0-.16.06-.32.08-.48s.08-.52.13-.79Zm.85,1.61a2.77,2.77,0,0,1,0-.33c.09-.48.16-.08.23.16Zm.38.27c0-.1-.06-.24-.1-.36.06.1.11.2.16.3S836.44,793.56,836.42,793.52Zm.52-3.66c0-.14-.05-.27-.08-.43a.78.78,0,0,1,0-.23s.06.07.1.12S837,789.69,836.94,789.86Zm4.24-1.43.19,0C841.31,789.23,841.24,788.58,841.18,788.43Zm.78-.19c0-.07-.08-.17-.12-.26s0-.16,0-.15a1.3,1.3,0,0,1,.12.21A1.57,1.57,0,0,1,842,788.24Zm5.78,1.46-.06-.13.07-.05Zm9.56.79c0-.08,0-.12.05-.18,0,.27-.05.54-.08.81Zm-.7,1.22c.17-.3.3-1.3.5-.48C856.94,791.42,856.8,792.28,856.6,791.71Zm.33,1.69c.07-.78.12-1.46.18-2.15a.12.12,0,0,1,.15,0c-.08,2.31.26,1.67.49,2Zm.51-5.7c.18-.67.31-.26.43.2Zm.62,2.63a13.1,13.1,0,0,1-.17-2.35A10.29,10.29,0,0,1,858.06,790.33Zm.72-1.4c0-.11,0-.22.05-.33h0Zm.61-.67,0-.13.07-.09Zm1.16-.68c0,.07,0,.15,0,.23,0-.09,0-.17,0-.26l.09-.29Zm2.23,2.13c.1-.55.2-1.27.31,0Zm1.58-.72c0-.12.1-.2.14-.3,0,.19-.11.37-.17.55C864.34,789.16,864.35,789,864.36,789Zm0,5.74.31,0v.5Zm4.85-.57-.05.12v-.2Zm-3.07-3.23v.29a.5.5,0,0,1,0,.13,1.28,1.28,0,0,1,0-.27A.53.53,0,0,1,866.16,790.93Zm0,4.51a3.23,3.23,0,0,1-.06-.48c.16-.54.32-1,.54-.88C866.57,795.7,866.34,795.44,866.15,795.44Zm1-1.51c.4-.19.77,2,1.18.43C867.89,796,867.51,794.82,867.13,793.93Zm1.17-2c-.11.11-.22-.16-.15-.8a1.82,1.82,0,0,1,.24-.77,4.13,4.13,0,0,1,.18.77A5,5,0,0,1,868.3,791.91Zm82-12.57c-1.77.77-1.71,0-2.46-.33C949.68,778.49,950.15,778.77,950.32,779.34ZM873.3,793a2.6,2.6,0,0,1,.14-.53c.18.2.16.62.11,1.18,0,.33,0,.9-.12.59A7,7,0,0,1,873.3,793Zm1.16-2.46a1.37,1.37,0,0,1,0-.27s0,.07,0,.15,0,.2,0,.3A1.43,1.43,0,0,1,874.46,790.52Zm.77,2.56,0,0c-.26-.33-.32.4-.26,1.58v0c-.19-1.44-.18-2.51.22-2.21a.6.6,0,0,1,.12.11C875.26,792.74,875.25,792.91,875.23,793.08Zm23.62-31.74.19.32-1,.2Zm-5.62,68.11c-.7-.69-2-.12-2.92-.35l.47-.73a17.73,17.73,0,0,1,2.38-1.91c.41.24.81.51,1.22.74l-.22.17a3.29,3.29,0,0,0-.32.63l1,0C894.3,829.51,893.67,829.82,893.23,829.45Zm4.6,2c-.46-1.13-1.31-1.29-2.2-2a6.86,6.86,0,0,0,1.79-.78c.62.26,1.27.47,1.91.7a2.08,2.08,0,0,0,.25.38C899,831.49,898.24,832.4,897.83,831.43Zm1.78-1.71.11-.21.5.18A1.07,1.07,0,0,1,899.61,829.72Zm23,0h0v0Zm.47,7.77a2,2,0,0,1-.11-.33,1.51,1.51,0,0,1,.37,0s.08.19.13.32A1.7,1.7,0,0,1,923.05,837.45ZM947.5,780.7c1.28,0,1.25.72,1.69,1.16C948.4,781.6,947.3,781.56,947.5,780.7Z"/><path class="cls-10" d="M976.85,649.89a33.5,33.5,0,0,0-1.39-3.91c-.63-1.17-1.79-2.31-.44-3.86h0c.71.24.51,1,2.64.9-1-.55.52-1.9-2.33-1.2-.46-1-2.15-1.53-3.29-2.16s-1.77-1.35-.24-3.12c3.5-2.51,3.43-4,0-4.48,1.84-.76,1.48-1.13.55-1.37s-2.52.1-2-.76c1.27-2.34-1.06-2.36-2-3.23s-1.14-2-3.32-1.33c-.26.08-.17-.64-.28-1l0,0h0l.05-.1-.09.11a4.38,4.38,0,0,1-1.22,0c-1-.4-1.34-1.25-.24-3.19-1.82.58-3.26.86-3.74-.36l.2-.64c.06-.3-1.42.62-.19-.46,2.16-1.85,2.78.13,4.94-.58-.31-1.58-1.72-1.71-3.11-1.61s-2.9.53-3.6-.35c1.27-1.45,1.68,0,2.91-1.13-.39-1.48-1.56-1.45-3.05-1-2,.63-3.59,1-4.7-.32a12.3,12.3,0,0,0-4.66-3,3.14,3.14,0,0,0,.53-.44c-.06-.27-.11-.55-.13-.67-.33-.19-.6,0-.7.49a.87.87,0,0,0,.08.53c-.78-.32-1.54-.73-2.32-1.09-3.44-1.74-7.52-1.19-11.17-.89h0c-.23-.64-.48-.64-.72,0-.52,0-1,.32-1.55-.29-.81-.86-2-1-2.52.2-1.41,3.75-3.38,2.82-5.33,3.39a34.48,34.48,0,0,0-3.47.6,3.62,3.62,0,0,0-2.67,2.51c.87,1,1,1.43.86,1.73l-.63.31c-.55-1.06.81-.66-.23-2a5,5,0,0,0-3-.38,1.81,1.81,0,0,0-1.44,1.77c0,1.84-.78,2.21-1.67,2.51s-2,.33-2.42,1.28c-1.09,2.87-3.89,4.09-5.61,6.44-.67-2.58,2-2.64,1.13-6-3.45,2-6.14,4.84-6.55,8.73-1.07-.25-1.3-.08-.58.86.86,1.14.8,2.11-.44,2.25-1.55.18-1.7,0-1.71.26a30.81,30.81,0,0,1,0,4.3,2.07,2.07,0,0,1-1.41-.31,1.91,1.91,0,0,0-2.48.27c-.65.54-1.24,2.11-1.89,2.26-1,.25-2.09-.63-3.13,1-.34.53-.77-.63-1.09,1.31-.2-.72,0-5.48-.63-1.69-.33-1.58-.64-2.14-.93.26-.14.48-.25,1.75-.48.58.12-1,.33-.25.47-.65.07-2.07-.25-1.46-.45-1.71s-.39.4-.44-1c0-1.09,0-2.81-.35-2-.21.42-.49.66-.48,2.61,0,1.75,0,1.75-.48.85v0c-.31.58-.71,1-.94.13-.73-2.63-1.36.22-2,.32-.15,1.4.16,1.24.25,1.89-.34.8-.62,0-.91-.73.08-.63.33,0,.33-1.2l-.15-.79c0,.25.1.5.16.74h.31c0-1.45.59-2.35.42-2.77-.58-1.46-1.26-2.81-1.78.83-.2-1-.59,2.4-.72-1.09-.07-1.89-.57-1.11-.83-.77-.67.89.11,1.15.05,1.65-.31,2.38-.89,1.22-1.32,2.54-.3,1-.27-1.93-.4-3,.21.16.43.43.64-.57-.44-1.23-.85-1.73-1.36-.61.31.88.12,2.86.42,3.64a4,4,0,0,1,0,2.44h0c0-.79,0-1.59,0-2.38-.19,0-.37,1-.58.24h0a1.44,1.44,0,0,0,0-.8c0-.05-.07.24-.11.37-.17-1.72-.32-3.57-.75-1.31h0c-1,.53.35-2-.11-2.35-.36,0-.71.19-1.06.29-.71.19-1.39,1.82-2.11,1.47h0c-.09-.16-.12,0-.09.47-.26,1.2-.59.28-.88.67h0c-1-2.77-2,.17-2.91.6-.25.11-.74-.14-.87,2.19-.33-3.33-.8-.76-1.2-.73,0-.42,0-.84,0-1.26h0c0-.4,0-.52-.07-.32l-.28.23a6.49,6.49,0,0,0-.2,2.19c.14.94.31-.48.49-.42l0,1.4c-.69.45-1-1.91-1.24-4.59h0a4.36,4.36,0,0,0,0-1.65c-.17-.53-.28.1-.36.77v0c-.14-.57-.12-2.12-.42-1.72a4.22,4.22,0,0,0-.2,1.79.77.77,0,0,1,.06.15c0,.08.05.26.05.27-.23,1.44-.54,1.59-.87,1.51-.53-.14-1.11-2.09-1.56,1.19-.06.39-.35.63-.45-.65-.17-2-.43-1.41-.69-.58s-.48,1.42-.79,2.33c.18-2.79-.06-3.24-.42-2s-.62,1.74-.92-.66c-.18-1.49-.48-1.58-.54.83.5.8.1,1.66,0,2.63a14.11,14.11,0,0,1,0-2.59c-.27-.23-.52.25-.77.3-.66.13-1,3.86-1.68,3.52a3.92,3.92,0,0,0,.13-1.72c-.19-.69-.21.51-.25,1.2-.94,1.37-1.43-1.13-1.71-6.13-.26,1.1-.52,2.28-.89,1.61l-.09.49a24.45,24.45,0,0,0-.41,3.87c-.19.51-.39,1-.59,1.52h0a2.12,2.12,0,0,0-.11-.21c0,.19,0,.38,0,.57a11.51,11.51,0,0,0-.1,2.67c.54-2.47,1.24-1.23,1.87-2.14-.6,1.86-.84,6.65-1.84,5.2-.19-.27-.63-.88-.76,1.31,0-.55,0-1.41-.16-1.35a3.2,3.2,0,0,0-.17,1.09c0,1,.14.76.25.69.13,1,0,2.41.24,3.28.08.34.25,1.09,0,1.3-.65.53-.3,2-.08,2.86.68,2.81,1.27,7.14,2.35,4.43.38-.94.76-1.49,1.12.37,0,.28.21.25.3.11,1-1.48,2,.49,3-1.25s2-1,3.09-1c1.85-.11,3.71-.53,5.56-.72.19,0,.5-.95.57,1h0c-.1.35-.37-.17-.28.94.06.74.26.1.38-.37.86-1.38,1.69-2.25,2.66-2a16.18,16.18,0,0,0,4.45.08c.83-.07,1.68-.95,2.47-.48,3,1.78,6.05,0,9.06.87,1,.31,2.1,0,3.13.77,2.45,1.9,4.92.47,7.37.81a11.59,11.59,0,0,0,1.86.09c0,.17.21.26.75.14a2.1,2.1,0,0,0,.58-.27,14.48,14.48,0,0,0,3.58-1c.07.94-1.75,2.47-1.09,3.59a6.76,6.76,0,0,0,1.69-2.18c.36.87.76,1.71,1.18,2.54-.16-.33-.47-.53-1.35-.45a2.24,2.24,0,0,0-.81.55c-.16.92.62,1.31,2.56,1.12a7.32,7.32,0,0,1-.38-1.19,35.77,35.77,0,0,0,7.61,10.1l-1.44-.61a8.23,8.23,0,0,1-3.15-2.44c-.79-1.32-.38-3.25-1.62-4.17-.31-.21-.55-.67-1.48,0-.65.48-2,1.45-1.58,1.76,1.13.85.73,2.81,2.51,3.16.75.12.93.63.92,1.42a3.55,3.55,0,0,0,1.67,3.21A11.45,11.45,0,0,0,909,680c1.74.24,2.68,1.63,4.64,1.22.54-.13,0,1-.36,1.76a2.67,2.67,0,0,0-3.15,1.53c-.9,1.59,0,2.82,1.34,2.19,1.65-.79,2.47-.07,3.45.45s1.94,1.12,3.38.08c.09-.07.15.69.23,1.08-.94,1.25-2.12.21-2.6,2.18s1.12,1.25,1.91,1.5a22,22,0,0,0,3.27.81,8,8,0,0,1,3.26,1.16,10.83,10.83,0,0,0,4.81,1.58,8.33,8.33,0,0,0,5.07-1.62c.88-.69,1.91-1.16,2.88.58.47.85,1,.48,1.51.63,1.21.31,2.4-.45,3.57-.76s2.34-.33,4,1.63c.09.11.34,0,.41-.18.94-2.39,3-2.54,3.61-5.34.42-2.32,2.24-3.48,4.26-1.72,2.37,2,3.68,1.56,4.87.73,3.39-2.6,7-5,9.66-8.42.87-.94,1.65-2,2.43-3a15.2,15.2,0,0,0,2.06-3.26,10.18,10.18,0,0,0,.69-7.85c-.17-.46.19-.69.82-.73,2.94-.24,2.84-2.07,2.6-3.73-.09-.78-.54-1.67-.12-2.25a6.92,6.92,0,0,0,.59-6.26A41.68,41.68,0,0,1,976.85,649.89Zm-124.28-.54a4.58,4.58,0,0,1-.08.62c-.57-2.2-1,2.15-1.58.66-.17-2.37.79-1.35.34-4.22.36,0,.72-.12,1.07.06S852.55,648.24,852.57,649.35Zm2.09-.26c-.49,1.24-1,1.26-1.49-.05.15-1.12.15-.85.43-.8s.57-1.74.94-1.48c.17.11.4-.59.44.85A2.28,2.28,0,0,1,854.66,649.09Zm1.9-5.15a.86.86,0,0,1,.13-.32c0,.18,0,.35.07.53s-.07.3-.11.3S856.48,644.58,856.56,643.94Zm-1,2.59a7.66,7.66,0,0,1,.45-2.47,5.74,5.74,0,0,1-.45,2.48Zm.21,2.32c.5-2.38,1-1.66,1.65-1C856.73,648.62,856.31,649.39,855.74,648.85Zm2-2.57-.09.45c0-.17.06-.33.08-.49s.08-.52.13-.78Zm.85,1.62a3,3,0,0,1,0-.34c.09-.47.16-.08.23.17Zm.38.27c0-.1-.06-.24-.09-.37l.15.31S859,648.21,859,648.17Zm.52-3.66c0-.14-.05-.28-.07-.43a.57.57,0,0,1,0-.24s.06.08.1.13S859.5,644.34,859.48,644.51Zm4.24-1.43.19-.05C863.85,643.88,863.78,643.23,863.72,643.08Zm.78-.19c0-.07-.08-.17-.12-.26s0-.16,0-.15a1.17,1.17,0,0,1,.12.2A2,2,0,0,1,864.5,642.89Zm5.78,1.46-.06-.13.07-.05Zm9.56.78c0-.07,0-.11,0-.17l-.08.81Zm-.7,1.23c.17-.31.3-1.3.5-.49C879.48,646.07,879.34,646.93,879.14,646.36Zm.33,1.68c.07-.77.12-1.46.18-2.14a.1.1,0,0,1,.15,0c-.08,2.3.26,1.67.49,2.05Zm.51-5.69c.18-.67.31-.27.43.2Zm.62,2.62a12.92,12.92,0,0,1-.17-2.34A10.2,10.2,0,0,1,880.6,645Zm.72-1.4c0-.11,0-.21,0-.32h0Zm.61-.66,0-.13.07-.09Zm1.16-.68a1.74,1.74,0,0,1-.05.22c0-.08,0-.16.05-.25l.09-.29Zm2.23,2.13c.1-.55.2-1.27.31,0Zm1.58-.72c.05-.12.1-.2.14-.3,0,.18-.11.37-.17.55C886.88,643.8,886.89,643.68,886.9,643.64Zm0,5.74.31,0v.5C887.13,649.68,887,649.53,886.92,649.38Zm4.85-.57,0,.11v-.19Zm-3.07-3.23v.29a.69.69,0,0,1-.05.13,1.3,1.3,0,0,1,0-.27A.53.53,0,0,1,888.7,645.58Zm0,4.51a3.23,3.23,0,0,1-.06-.48c.16-.54.32-1,.54-.89C889.11,650.35,888.88,650.08,888.69,650.09Zm1-1.51c.4-.19.77,1.95,1.18.42C890.43,650.64,890.05,649.47,889.67,648.58Zm1.17-2c-.11.11-.22-.15-.15-.79a1.77,1.77,0,0,1,.24-.77,4.14,4.14,0,0,1,.18.76A4.64,4.64,0,0,1,890.84,646.55Zm82-12.56c-1.77.77-1.71,0-2.46-.33C972.22,633.13,972.69,633.42,972.86,634Zm-77,13.64a2.3,2.3,0,0,1,.14-.53c.18.2.16.62.11,1.18,0,.32,0,.89-.12.59A7,7,0,0,1,895.84,647.63Zm1.16-2.46c0-.06,0-.18,0-.27a.64.64,0,0,1,.05.15c0,.07,0,.2,0,.3C897,645.29,897,645.25,897,645.17Zm.77,2.56,0,0c-.26-.33-.32.4-.26,1.58v0c-.19-1.44-.18-2.51.22-2.22l.12.12C897.8,647.38,897.79,647.56,897.77,647.73ZM921.39,616l.19.32-1,.2Zm-5.62,68.11c-.7-.69-2-.12-2.92-.35l.47-.73a17.16,17.16,0,0,1,2.39-1.91c.4.24.8.51,1.21.73l-.22.18a3.47,3.47,0,0,0-.32.62l1,0C916.84,684.16,916.21,684.46,915.77,684.1Zm4.6,2c-.46-1.14-1.31-1.29-2.2-2a6.92,6.92,0,0,0,1.79-.77c.62.26,1.27.47,1.91.7a2.49,2.49,0,0,0,.25.38C921.57,686.14,920.78,687.05,920.37,686.08Zm1.78-1.72.11-.21.5.19A1,1,0,0,1,922.15,684.36Zm23,0h0Zm.47,7.78a2.41,2.41,0,0,1-.11-.33,1.56,1.56,0,0,1,.38,0s.07.2.12.32A1.71,1.71,0,0,1,945.59,692.1ZM970,635.35c1.28,0,1.25.72,1.69,1.16C970.94,636.25,969.84,636.21,970,635.35Z"/><path class="cls-10" d="M960,213.83a30.19,30.19,0,0,0-1.39-3.91c-.62-1.17-1.79-2.31-.43-3.86h0c.7.24.51,1,2.64.9-1-.54.51-1.9-2.33-1.19-.46-1-2.16-1.54-3.29-2.17s-1.77-1.35-.25-3.12c3.51-2.51,3.44-4,0-4.48,1.84-.76,1.49-1.13.55-1.37-.79-.21-2.51.1-2-.76,1.27-2.33-1.06-2.35-2-3.23s-1.15-2-3.32-1.32c-.26.08-.17-.64-.29-1H948l0-.11-.1.11a4,4,0,0,1-1.21,0c-1-.4-1.35-1.25-.24-3.19-1.82.58-3.26.86-3.75-.36l.2-.64c.07-.3-1.42.62-.18-.45,2.16-1.86,2.78.13,4.94-.58-.31-1.58-1.72-1.72-3.11-1.62s-2.91.54-3.6-.34c1.27-1.45,1.67,0,2.9-1.14-.38-1.48-1.55-1.45-3-1-2,.63-3.59,1-4.71-.32a12.28,12.28,0,0,0-4.65-2.94,2.8,2.8,0,0,0,.52-.45c0-.27-.1-.54-.13-.67-.32-.18-.59,0-.69.49a.87.87,0,0,0,.08.53c-.79-.31-1.54-.73-2.33-1.08-3.43-1.75-7.51-1.19-11.16-.89h0c-.24-.64-.49-.65-.72,0-.52,0-1,.33-1.56-.29-.81-.85-2-1-2.51.2-1.41,3.76-3.39,2.82-5.33,3.39-1.12.27-2.36.22-3.47.6a3.64,3.64,0,0,0-2.67,2.51c.87,1,1,1.44.86,1.74-.22.09-.42.2-.63.3-.56-1,.81-.65-.24-2a5,5,0,0,0-3-.39,1.8,1.8,0,0,0-1.44,1.78c0,1.83-.78,2.21-1.68,2.5s-2,.33-2.42,1.28c-1.08,2.87-3.88,4.09-5.6,6.44-.68-2.58,2-2.64,1.13-6-3.45,2-6.15,4.85-6.56,8.73-1.06-.24-1.29-.08-.57.86.86,1.14.8,2.12-.44,2.25-1.55.19-1.7,0-1.71.26a32.43,32.43,0,0,1,0,4.3,2.1,2.1,0,0,1-1.42-.3,1.88,1.88,0,0,0-2.47.26c-.65.55-1.25,2.11-1.89,2.26-1,.25-2.09-.62-3.13,1-.35.54-.78-.62-1.09,1.31-.2-.72,0-5.47-.64-1.69-.32-1.58-.64-2.14-.92.26-.15.48-.26,1.75-.48.58.12-1,.33-.25.47-.64.06-2.08-.26-1.47-.45-1.72s-.4.41-.45-1c0-1.09.05-2.81-.35-2-.2.42-.48.67-.47,2.62,0,1.74-.05,1.75-.48.85v0l0-.12s0,.08,0,.13c-.32.57-.72,1-1,.12-.72-2.62-1.36.22-2,.33-.15,1.39.15,1.24.25,1.88-.34.81-.63,0-.91-.73.08-.63.32,0,.33-1.2,0-.26-.11-.52-.16-.78.06.24.11.49.16.73h.31c0-1.45.59-2.34.43-2.76-.59-1.47-1.26-2.82-1.79.82-.19-1-.58,2.4-.71-1.09-.08-1.89-.57-1.11-.83-.77-.67.89.11,1.16,0,1.65-.31,2.38-.89,1.22-1.32,2.54-.31,1-.27-1.93-.4-3,.21.15.43.43.63-.58-.43-1.23-.84-1.73-1.35-.61.3.88.12,2.87.42,3.64a4,4,0,0,1,0,2.44h0c0-.79,0-1.58,0-2.37-.2,0-.38,1-.58.23h0a1.54,1.54,0,0,0,0-.8s-.07.24-.1.37c-.17-1.71-.33-3.57-.75-1.31h0c-1,.54.35-2-.11-2.34-.36-.06-.71.18-1.06.28-.72.19-1.39,1.82-2.11,1.47h0c-.1-.16-.12,0-.09.48-.27,1.19-.6.27-.89.67h0c-1-2.77-1.95.17-2.92.6-.25.11-.74-.14-.87,2.19-.32-3.33-.79-.75-1.2-.73,0-.42,0-.84,0-1.26h0c0-.4,0-.52-.07-.31l-.29.22a7,7,0,0,0-.2,2.19c.15.94.32-.48.49-.41,0,.46,0,.92,0,1.39-.69.46-1-1.91-1.24-4.58h0a4.18,4.18,0,0,0,0-1.65c-.17-.53-.28.09-.37.76v0c-.14-.58-.13-2.13-.42-1.73a4.22,4.22,0,0,0-.2,1.79s0,.09.06.15a1.23,1.23,0,0,1,0,.28c-.22,1.44-.53,1.58-.87,1.5-.53-.13-1.11-2.09-1.56,1.19-.05.4-.34.63-.45-.65-.16-2-.42-1.4-.69-.57s-.47,1.41-.78,2.33c.18-2.8-.06-3.25-.42-2s-.63,1.74-.92-.66c-.19-1.49-.49-1.58-.55.83.51.8.1,1.66,0,2.64a14.14,14.14,0,0,1,0-2.59c-.26-.23-.51.24-.77.29-.65.13-1,3.87-1.67,3.52a3.89,3.89,0,0,0,.13-1.72c-.19-.69-.22.51-.25,1.2-1,1.37-1.43-1.13-1.71-6.13-.26,1.11-.52,2.28-.89,1.62l-.09.48a24.45,24.45,0,0,0-.41,3.88c-.2.5-.39,1-.59,1.51h0l-.11-.21.05.57a11,11,0,0,0-.1,2.67c.53-2.47,1.23-1.23,1.87-2.14-.6,1.86-.84,6.66-1.84,5.21-.19-.28-.63-.89-.77,1.3,0,.14,0,.29-.07.43.13,1,0,2.42.23,3.28.09.35.26,1.1,0,1.3-.66.53-.31,1.95-.09,2.86.69,2.81,1.27,7.14,2.36,4.43.38-.94.76-1.48,1.11.37.06.28.21.25.31.11,1-1.47,2,.49,3-1.25s2-1,3.09-1c1.85-.12,3.7-.54,5.56-.73.18,0,.49-.94.56,1h0c-.09.34-.36-.18-.27.93.06.75.25.1.37-.36.87-1.38,1.7-2.26,2.67-2.05a15.8,15.8,0,0,0,4.45.08c.82-.06,1.68-.94,2.47-.48,3,1.78,6,0,9.06.87,1,.31,2.1,0,3.13.77,2.45,1.91,4.91.47,7.37.81a11.48,11.48,0,0,0,1.85.1c0,.16.22.25.76.13a2.1,2.1,0,0,0,.58-.27,14.48,14.48,0,0,0,3.58-1c.07.94-1.75,2.47-1.09,3.6a6.92,6.92,0,0,0,1.69-2.19c.36.87.76,1.71,1.18,2.54-.16-.32-.48-.53-1.35-.45a2,2,0,0,0-.81.56c-.16.91.62,1.3,2.55,1.11a9.45,9.45,0,0,1-.38-1.19,36,36,0,0,0,7.62,10.1l-1.44-.6a8.23,8.23,0,0,1-3.15-2.44c-.8-1.32-.38-3.26-1.62-4.18-.31-.21-.55-.67-1.48,0-.65.49-2,1.45-1.59,1.76,1.14.85.74,2.82,2.52,3.16.74.12.93.63.92,1.42a3.55,3.55,0,0,0,1.66,3.21,11.92,11.92,0,0,0,3.54,1.09c1.75.24,2.69,1.62,4.65,1.22.54-.13,0,1-.36,1.75a2.7,2.7,0,0,0-3.15,1.53c-.91,1.6,0,2.82,1.34,2.19,1.65-.79,2.47-.07,3.45.45s1.94,1.12,3.38.09c.09-.07.14.68.23,1.08-.94,1.25-2.13.21-2.6,2.17s1.12,1.25,1.91,1.51a23.27,23.27,0,0,0,3.27.8,8.32,8.32,0,0,1,3.26,1.16,10.79,10.79,0,0,0,4.81,1.58,8.35,8.35,0,0,0,5.07-1.62c.88-.69,1.91-1.16,2.87.59.48.85,1,.48,1.51.62,1.22.31,2.41-.45,3.58-.76s2.34-.33,4,1.63c.09.11.34,0,.4-.18,1-2.38,3.06-2.53,3.61-5.33.43-2.33,2.25-3.49,4.27-1.72,2.37,2,3.68,1.56,4.87.73,3.39-2.61,7-5.06,9.66-8.42.86-1,1.64-2,2.43-3a15.6,15.6,0,0,0,2.06-3.26,10.13,10.13,0,0,0,.68-7.85c-.16-.46.2-.69.82-.73,2.95-.23,2.85-2.06,2.6-3.72-.08-.78-.53-1.68-.11-2.26a6.92,6.92,0,0,0,.59-6.26C960.71,216.55,960.44,215.18,960,213.83Zm-124.28-.54a4.67,4.67,0,0,1-.07.63c-.57-2.2-1.05,2.14-1.58.66-.17-2.38.78-1.36.34-4.23.36,0,.72-.12,1.07.07S835.75,212.18,835.76,213.29Zm2.1-.26c-.5,1.24-1,1.26-1.49-.05.15-1.12.15-.85.43-.79s.57-1.75.94-1.49c.17.11.39-.59.43.86A2.2,2.2,0,0,1,837.86,213Zm1.9-5.14a.89.89,0,0,1,.12-.32c0,.17,0,.35.08.52s-.07.3-.11.3S839.68,208.52,839.76,207.89Zm-1,2.59a7.61,7.61,0,0,1,.46-2.48,5.51,5.51,0,0,1-.46,2.48Zm.22,2.32c.49-2.39.95-1.67,1.64-1C839.92,212.56,839.5,213.33,838.94,212.8Zm2-2.57-.09.44c0-.16,0-.32.08-.48l.12-.78C841,209.68,841,210,840.93,210.23Zm.85,1.61a3.12,3.12,0,0,1,0-.33c.1-.48.17-.08.24.16Zm.38.27c0-.1-.07-.24-.1-.36.06.1.11.2.16.3S842.17,212.15,842.16,212.11Zm.52-3.66c0-.14-.06-.27-.08-.43a1.37,1.37,0,0,1,0-.23s.07.07.11.12C842.72,208.11,842.7,208.28,842.68,208.45Zm4.24-1.43.19,0C847.05,207.82,847,207.17,846.92,207Zm.78-.19a1.57,1.57,0,0,1-.12-.26s0-.16,0-.15a.82.82,0,0,1,.11.21C847.72,206.71,847.7,206.84,847.7,206.83Zm5.78,1.46-.06-.13.06,0Zm9.56.79a.78.78,0,0,1,.05-.18c0,.27-.05.54-.08.81C863,209.5,863,209.28,863,209.08Zm-.71,1.22c.17-.3.3-1.3.51-.48C862.67,210,862.54,210.87,862.33,210.3Zm.34,1.69c.06-.78.12-1.46.18-2.15a.12.12,0,0,1,.15,0c-.08,2.31.26,1.67.49,2Zm.51-5.7c.18-.67.31-.26.43.2Zm.62,2.63a13,13,0,0,1-.18-2.34A9.54,9.54,0,0,1,863.8,208.92Zm.72-1.4,0-.33h0Zm.61-.67-.06-.13.07-.09Zm1.16-.68c0,.08,0,.15,0,.23a2.38,2.38,0,0,1,0-.26l.09-.29Zm2.23,2.13c.1-.55.19-1.27.3,0Zm1.58-.72c0-.12.09-.2.14-.3-.06.19-.11.37-.17.55C870.08,207.75,870.09,207.62,870.1,207.58Zm0,5.74.31,0c0,.17,0,.33,0,.5Zm1.79-3.8v.29a1.12,1.12,0,0,0,0,.13c0-.09,0-.21,0-.26A.49.49,0,0,1,871.9,209.52Zm0,4.51a4.1,4.1,0,0,1-.07-.48c.17-.54.33-1,.54-.88C872.3,214.29,872.08,214,871.89,214Zm1-1.51c.39-.19.76,2,1.18.43C873.63,214.58,873.25,213.41,872.87,212.52Zm1.16-2c-.1.11-.21-.15-.14-.8a1.85,1.85,0,0,1,.23-.77c0-.05.1.38.19.77A4,4,0,0,1,874,210.5Zm.89,2.37v-.2l.06.09Zm4.37-.65c0,.33,0,.9-.12.59a7,7,0,0,1-.13-1.24,2.08,2.08,0,0,1,.14-.53C879.36,211.24,879.34,211.66,879.29,212.22Zm1-2.93a.65.65,0,0,1,0-.18c0-.06,0-.18,0-.27a.3.3,0,0,1,0,.15A1.58,1.58,0,0,1,880.25,209.29Zm.71,2.38v0c-.26-.33-.32.4-.27,1.58v0c-.19-1.44-.18-2.51.22-2.21a.6.6,0,0,1,.12.11C881,211.33,881,211.5,881,211.67Zm23.63-31.74.18.32-1,.2ZM899,248c-.71-.69-2-.12-2.93-.35l.48-.73a17.13,17.13,0,0,1,2.38-1.91c.41.24.8.51,1.22.74l-.22.18a2.49,2.49,0,0,0-.32.62l.95,0C900,248.1,899.4,248.41,899,248Zm4.6,2c-.47-1.13-1.32-1.29-2.2-2a7,7,0,0,0,1.79-.78c.62.26,1.27.47,1.9.7a1.7,1.7,0,0,0,.26.38C904.77,250.08,904,251,903.57,250Zm1.78-1.71.1-.21c.17.05.33.12.5.18A1,1,0,0,1,905.35,248.31Zm23,0h0Zm.46,7.76a1.33,1.33,0,0,1-.11-.33,1.51,1.51,0,0,1,.37,0,1.73,1.73,0,0,1,.13.32A1.7,1.7,0,0,1,928.79,256Zm27.27-58.11c-1.77.77-1.71,0-2.46-.33C955.41,197.08,955.88,197.36,956.06,197.93Zm-2.82,1.36c1.27,0,1.25.72,1.69,1.16C954.14,200.19,953,200.15,953.24,199.29Z"/><path class="cls-10" d="M1.71,509.57a33.5,33.5,0,0,0,1.39,3.91c.63,1.17,1.8,2.31.44,3.86h0c-.7-.24-.51-1-2.64-.9,1,.54-.52,1.9,2.33,1.19.46,1,2.16,1.54,3.29,2.17s1.77,1.35.24,3.12c-3.5,2.51-3.43,4,0,4.48-1.84.76-1.48,1.13-.54,1.37.78.21,2.51-.11,2,.76-1.27,2.33,1.06,2.35,2,3.23s1.15,2,3.32,1.32c.26-.08.17.64.29,1h-.06l0,.1.1-.1a4,4,0,0,1,1.21,0c1,.4,1.34,1.24.24,3.19,1.82-.58,3.26-.86,3.74.36l-.2.64c-.06.3,1.42-.62.19.45-2.16,1.85-2.78-.13-4.94.58.31,1.58,1.72,1.72,3.11,1.61s2.9-.53,3.6.35c-1.27,1.45-1.68,0-2.91,1.14.39,1.48,1.56,1.45,3.05,1,2-.63,3.59-1,4.71.32a12.28,12.28,0,0,0,4.65,2.94,2.82,2.82,0,0,0-.53.45c.06.27.11.54.13.67.33.18.6,0,.7-.49a.86.86,0,0,0-.08-.53c.78.31,1.54.73,2.32,1.08,3.44,1.75,7.52,1.19,11.17.89h0c.23.64.49.64.72,0,.52,0,1-.33,1.55.29.81.85,2,1,2.52-.2,1.41-3.76,3.39-2.82,5.33-3.39,1.12-.28,2.36-.22,3.47-.6a3.64,3.64,0,0,0,2.67-2.51c-.87-1-1-1.44-.86-1.74l.63-.3c.55,1.05-.81.65.23,2a5.12,5.12,0,0,0,3,.39,1.81,1.81,0,0,0,1.44-1.78c0-1.83.78-2.21,1.67-2.5s2-.33,2.42-1.28c1.09-2.87,3.89-4.09,5.61-6.44.67,2.57-2,2.64-1.13,6,3.45-2,6.15-4.85,6.55-8.73,1.07.24,1.3.08.58-.86-.86-1.14-.8-2.12.44-2.25,1.55-.19,1.7,0,1.71-.26a32.43,32.43,0,0,1,0-4.3,2.1,2.1,0,0,1,1.42.3,1.89,1.89,0,0,0,2.47-.26c.65-.55,1.25-2.11,1.89-2.26,1-.25,2.09.62,3.13-1,.34-.54.78.62,1.09-1.32.2.73,0,5.48.63,1.7.33,1.58.64,2.14.93-.26.14-.49.25-1.75.48-.58-.12,1-.33.25-.47.64-.07,2.08.26,1.47.45,1.72s.39-.41.44,1c0,1.1,0,2.82.35,2,.21-.41.49-.66.48-2.61,0-1.74,0-1.75.48-.85v0c.31-.58.71-1,.94-.13.73,2.63,1.36-.21,2-.32.15-1.39-.16-1.24-.25-1.88.34-.81.63,0,.91.73-.08.63-.33,0-.33,1.2l.15.78c0-.24-.1-.49-.16-.74h-.31c0,1.46-.58,2.35-.42,2.77.59,1.47,1.26,2.82,1.78-.82.2,1,.59-2.4.72,1.08.07,1.9.57,1.12.83.78.67-.89-.11-1.16,0-1.65.31-2.38.89-1.22,1.32-2.54.31-.95.27,1.93.4,3-.21-.15-.43-.43-.64.58.44,1.23.85,1.73,1.36.61-.31-.88-.12-2.87-.42-3.64a4,4,0,0,1,0-2.44h0c0,.79,0,1.58,0,2.37.2,0,.37-1,.58-.23h0a1.44,1.44,0,0,0,0,.8c0,.05.07-.24.11-.38.17,1.72.33,3.58.75,1.32h0c1-.54-.35,2,.11,2.34.36.06.71-.18,1.06-.28.72-.19,1.39-1.82,2.11-1.47h0c.1.16.12,0,.09-.48.26-1.2.59-.27.89-.67h0c1,2.77,2-.17,2.91-.6.25-.11.74.14.87-2.19.33,3.33.8.75,1.2.73,0,.42,0,.84,0,1.25h0c0,.4,0,.52.07.31l.28-.22a6.52,6.52,0,0,0,.2-2.19c-.14-1-.31.48-.49.41l0-1.39c.69-.46,1,1.91,1.24,4.58h0a4.37,4.37,0,0,0,0,1.65c.17.53.28-.09.37-.76v0c.14.58.12,2.13.42,1.73a4.22,4.22,0,0,0,.2-1.79,1.38,1.38,0,0,1-.06-.16,2.33,2.33,0,0,1,0-.27c.23-1.44.54-1.58.88-1.5.52.13,1.1,2.08,1.55-1.19.06-.4.35-.63.45.65.17,2,.43,1.4.69.57s.48-1.41.79-2.33c-.18,2.79.06,3.25.42,2s.62-1.74.92.66c.19,1.49.48,1.58.54-.83-.5-.81-.1-1.66,0-2.64a14.11,14.11,0,0,1,0,2.59c.27.23.52-.25.78-.3.65-.13,1-3.86,1.67-3.51a3.89,3.89,0,0,0-.13,1.72c.19.68.21-.51.25-1.2.94-1.37,1.43,1.13,1.71,6.13.26-1.11.52-2.28.89-1.62l.09-.48a24.45,24.45,0,0,0,.41-3.88c.19-.5.39-1,.59-1.51h0a2.12,2.12,0,0,0,.11.21c0-.19,0-.38-.05-.57a11.54,11.54,0,0,0,.1-2.67c-.54,2.47-1.23,1.23-1.87,2.14.6-1.86.84-6.66,1.84-5.21.19.28.63.89.77-1.3,0,.54,0,1.4.15,1.35a3.25,3.25,0,0,0,.17-1.09c0-1-.14-.76-.25-.69-.13-1,0-2.42-.24-3.28-.08-.35-.25-1.1,0-1.3.65-.53.3-1.95.08-2.86-.68-2.81-1.27-7.14-2.35-4.43-.38.94-.76,1.48-1.12-.37,0-.28-.21-.25-.3-.11-1,1.47-2-.49-3,1.25s-2,1-3.09,1c-1.85.12-3.7.54-5.56.73-.19,0-.49.94-.57-1,.1-.34.37.18.28-.93-.06-.75-.26-.1-.37.36-.87,1.38-1.7,2.26-2.67,2.05a15.43,15.43,0,0,0-4.45-.08c-.83.06-1.68.94-2.47.48-3-1.78-6,0-9.06-.87-1-.32-2.1,0-3.13-.77-2.45-1.91-4.92-.47-7.37-.81a11.6,11.6,0,0,0-1.86-.1c0-.16-.21-.25-.75-.13a2.1,2.1,0,0,0-.58.27,14.48,14.48,0,0,0-3.58,1c-.07-.94,1.75-2.47,1.09-3.6a6.77,6.77,0,0,0-1.69,2.19c-.36-.87-.76-1.71-1.18-2.54.16.32.47.53,1.35.45a2.06,2.06,0,0,0,.81-.56c.16-.91-.62-1.3-2.55-1.11a7.93,7.93,0,0,1,.37,1.19,35.77,35.77,0,0,0-7.61-10.1l1.44.6a8.23,8.23,0,0,1,3.15,2.44c.79,1.32.38,3.26,1.62,4.18.31.21.55.67,1.48,0,.65-.49,2-1.45,1.58-1.76-1.13-.85-.73-2.82-2.51-3.16-.74-.12-.93-.63-.92-1.42a3.55,3.55,0,0,0-1.67-3.21,11.74,11.74,0,0,0-3.54-1.09c-1.74-.24-2.68-1.63-4.64-1.22-.54.13,0-1,.36-1.75a2.7,2.7,0,0,0,3.15-1.53c.9-1.6,0-2.82-1.34-2.19-1.65.79-2.47.07-3.45-.45s-1.94-1.12-3.38-.09c-.09.07-.15-.68-.23-1.08.94-1.25,2.12-.21,2.6-2.17s-1.12-1.25-1.91-1.51a23.27,23.27,0,0,0-3.27-.8,8.19,8.19,0,0,1-3.26-1.17,10.94,10.94,0,0,0-4.81-1.57,8.26,8.26,0,0,0-5.07,1.62c-.88.69-1.91,1.16-2.87-.59-.48-.85-1-.48-1.52-.63-1.21-.3-2.4.46-3.57.77s-2.34.33-4-1.63c-.09-.11-.34,0-.41.18-.94,2.38-3.05,2.53-3.61,5.33-.42,2.33-2.24,3.48-4.26,1.72-2.37-2-3.68-1.56-4.87-.73-3.39,2.61-7,5.06-9.66,8.42-.86.95-1.64,2-2.43,3a15.2,15.2,0,0,0-2.06,3.26,10.18,10.18,0,0,0-.69,7.85c.17.46-.19.69-.82.73C.61,493.41.71,495.24,1,496.9c.08.78.53,1.68.11,2.26a6.92,6.92,0,0,0-.59,6.26A41.68,41.68,0,0,1,1.71,509.57Zm124.29.54a3.47,3.47,0,0,1,.07-.63c.57,2.2,1-2.14,1.58-.66.17,2.38-.79,1.36-.34,4.23-.36,0-.72.12-1.07-.07S126,511.22,126,510.11Zm-2.1.26c.5-1.24,1-1.26,1.49.05-.15,1.12-.15.85-.43.79s-.57,1.75-.94,1.49c-.17-.12-.39.59-.43-.86A2.2,2.2,0,0,1,123.9,510.37Zm-1.9,5.14a.89.89,0,0,1-.12.32c0-.17-.06-.35-.08-.52s.07-.3.11-.3S122.08,514.88,122,515.51Zm1-2.59a7.61,7.61,0,0,1-.46,2.48,5.66,5.66,0,0,1,.45-2.48Zm-.22-2.32c-.5,2.39-.95,1.67-1.65,1C121.83,510.84,122.25,510.07,122.82,510.6Zm-2,2.57.09-.44c0,.16,0,.32-.08.48s-.08.52-.13.78Zm-.85-1.61a2.92,2.92,0,0,1,0,.33c-.09.48-.16.08-.23-.16Zm-.38-.27c0,.1.06.24.1.36-.06-.1-.11-.2-.16-.3S119.58,511.25,119.6,511.29Zm-.52,3.66c0,.14,0,.27.08.43a.78.78,0,0,1,0,.23s-.06-.07-.1-.12C119,515.29,119.06,515.12,119.08,515Zm-4.24,1.42-.19,0C114.71,515.58,114.78,516.23,114.84,516.37Zm-.78.2a2.17,2.17,0,0,1,.12.26s0,.16,0,.14a.87.87,0,0,1-.12-.2A1.57,1.57,0,0,1,114.06,516.57Zm-5.78-1.47.06.14-.07,0Zm-9.56-.78a.58.58,0,0,1,0,.17c0-.26,0-.53.08-.8C98.74,513.9,98.73,514.12,98.72,514.32Zm.71-1.22c-.18.3-.3,1.3-.51.48C99.08,513.39,99.22,512.53,99.43,513.1Zm-.34-1.69c-.07.78-.12,1.46-.18,2.15a.12.12,0,0,1-.15,0c.08-2.31-.26-1.68-.49-2.05Zm-.51,5.7c-.18.67-.31.26-.43-.2ZM98,514.48a13,13,0,0,1,.17,2.34A10.15,10.15,0,0,1,98,514.48Zm-.72,1.4,0,.33h0Zm-.61.67.05.13-.07.09Zm-1.16.68a1.89,1.89,0,0,1,0-.23l0,.26-.09.29Zm-2.23-2.13c-.1.55-.2,1.27-.31,0Zm-1.58.72c0,.11-.1.2-.14.3,0-.19.11-.37.17-.55C91.68,515.65,91.67,515.78,91.66,515.82Zm0-5.74-.31,0v-.5Zm-4.85.56,0-.11v.19Zm3.07,3.24v-.29c0-.05,0-.09.05-.13a1.21,1.21,0,0,1,0,.26A.34.34,0,0,1,89.86,513.88Zm0-4.52a3.23,3.23,0,0,1,.06.49c-.16.54-.32,1-.54.88C89.45,509.11,89.68,509.37,89.87,509.36Zm-1,1.52c-.4.19-.77-2-1.18-.43C88.13,508.81,88.51,510,88.89,510.88Zm-1.16,2c.1-.11.21.15.14.8a1.72,1.72,0,0,1-.24.76,3.65,3.65,0,0,1-.18-.76A4,4,0,0,1,87.73,512.9Zm-82,12.57c1.77-.77,1.71,0,2.46.33C6.34,526.32,5.87,526,5.7,525.47Zm77-13.64a2.08,2.08,0,0,1-.14.53c-.18-.2-.16-.62-.11-1.18,0-.33,0-.9.12-.59A7,7,0,0,1,82.72,511.83Zm-1.16,2.46c0,.06,0,.18,0,.27a.52.52,0,0,1-.06-.15c0-.08,0-.2,0-.3A.65.65,0,0,1,81.56,514.29Zm-.77-2.56h0c.26.34.32-.39.26-1.57v0c.19,1.44.18,2.51-.22,2.21a.45.45,0,0,1-.12-.12C80.76,512.07,80.78,511.9,80.79,511.73ZM57.17,543.47l-.19-.32,1-.2Zm5.62-68.11c.7.69,2,.12,2.92.35l-.47.73a17.73,17.73,0,0,1-2.38,1.91c-.41-.25-.81-.51-1.22-.74l.22-.18a3.15,3.15,0,0,0,.32-.62l-1,0C61.72,475.3,62.35,475,62.79,475.36Zm-4.6-2c.46,1.13,1.31,1.29,2.2,2a6.86,6.86,0,0,0-1.79.78c-.62-.27-1.27-.47-1.91-.7a1.67,1.67,0,0,0-.25-.38C57,473.32,57.78,472.4,58.19,473.38Zm-1.78,1.71-.11.21-.5-.18A1,1,0,0,1,56.41,475.09Zm-23,0h0v0ZM33,467.36a2,2,0,0,1,.11.33,1.51,1.51,0,0,1-.37,0s-.08-.19-.13-.32A1.7,1.7,0,0,1,33,467.36ZM8.52,524.11c-1.27,0-1.25-.72-1.69-1.16C7.62,523.21,8.72,523.24,8.52,524.11Z"/><path class="cls-10" d="M28.44,654.92a31.76,31.76,0,0,0,1.39,3.91c.62,1.17,1.79,2.31.43,3.86h0c-.7-.24-.51-1-2.64-.9,1,.55-.51,1.9,2.33,1.2.47,1,2.16,1.53,3.29,2.16s1.78,1.35.25,3.12c-3.5,2.51-3.44,4,0,4.48-1.84.76-1.48,1.13-.55,1.37s2.51-.1,2,.76c-1.27,2.33,1.06,2.35,2,3.23s1.15,2,3.32,1.32c.26-.08.18.64.29,1h-.06l-.05.11.1-.11a4.32,4.32,0,0,1,1.21,0c1,.4,1.35,1.25.24,3.19,1.83-.58,3.26-.86,3.75.36l-.2.64c-.07.3,1.42-.62.18.46-2.15,1.85-2.78-.14-4.94.58.32,1.58,1.72,1.71,3.12,1.61s2.9-.53,3.59.35c-1.26,1.44-1.67,0-2.9,1.13.38,1.48,1.55,1.45,3,1,2-.63,3.59-1,4.71.32A12.24,12.24,0,0,0,57,693a4.56,4.56,0,0,0-.52.45c.05.27.1.55.13.67.32.18.6,0,.7-.49a.87.87,0,0,0-.09-.53c.79.31,1.54.73,2.33,1.08,3.43,1.75,7.51,1.19,11.16.9h0c.24.65.49.65.72,0,.52,0,1-.33,1.56.29.81.85,2,1,2.51-.2,1.41-3.76,3.39-2.82,5.34-3.39,1.11-.27,2.35-.22,3.46-.6A3.6,3.6,0,0,0,87,688.69c-.87-1-1-1.43-.85-1.74.21-.09.41-.2.62-.3.56,1.06-.81.65.24,2a5,5,0,0,0,3,.39,1.79,1.79,0,0,0,1.43-1.77c0-1.84.79-2.22,1.68-2.51s2-.33,2.42-1.28c1.09-2.87,3.88-4.09,5.6-6.44.68,2.58-2,2.64-1.12,6,3.44-2,6.14-4.85,6.55-8.73,1.07.24,1.29.08.58-.86-.87-1.14-.81-2.11.43-2.25,1.55-.18,1.7,0,1.71-.26a32.35,32.35,0,0,1,0-4.3,2.08,2.08,0,0,1,1.41.3,1.9,1.9,0,0,0,2.48-.26c.64-.54,1.24-2.11,1.88-2.26,1-.25,2.09.62,3.13-1,.35-.53.78.63,1.09-1.31.21.72,0,5.48.64,1.69.32,1.58.64,2.14.92-.26.15-.48.26-1.75.49-.58-.13,1-.33.25-.48.65-.06,2.07.26,1.46.46,1.71s.39-.4.44,1c0,1.09,0,2.81.35,2,.21-.42.48-.66.47-2.62,0-1.74.06-1.75.48-.84v0l0,.11s0-.08,0-.13c.32-.57.72-1,1-.12.72,2.63,1.36-.22,2-.32.15-1.4-.15-1.24-.25-1.89.35-.81.63,0,.91.73-.07.63-.32,0-.33,1.2.06.26.11.52.16.78-.06-.24-.11-.49-.16-.73H126c0,1.45-.59,2.35-.42,2.76.58,1.47,1.25,2.82,1.78-.82.19,1,.58-2.4.72,1.09.07,1.89.56,1.11.82.77.67-.89-.11-1.15,0-1.65.31-2.38.89-1.22,1.32-2.54.31-.95.27,1.93.41,3.05-.22-.16-.43-.43-.64.57.43,1.23.84,1.73,1.35.61-.3-.88-.12-2.87-.42-3.64a4,4,0,0,1,0-2.44h0c0,.79,0,1.59,0,2.38.2,0,.38-1,.58-.24h0a1.54,1.54,0,0,0,0,.8s.07-.24.1-.37c.17,1.72.33,3.57.75,1.31h0c1-.54-.36,2.05.11,2.34.35.06.7-.18,1.05-.28.72-.19,1.39-1.82,2.11-1.47h0c.1.16.12,0,.09-.47.27-1.2.6-.28.89-.67h0c1,2.77,1.95-.17,2.92-.6.25-.11.74.14.87-2.19.33,3.33.79.76,1.2.73,0,.42,0,.84,0,1.26h0c0,.4,0,.52.07.31l.29-.22a7,7,0,0,0,.2-2.19c-.15-.94-.32.48-.49.42,0-.47,0-.93,0-1.4.69-.46,1,1.91,1.25,4.58h0a4.37,4.37,0,0,0,0,1.65c.17.53.28-.1.37-.77v0c.14.57.13,2.12.42,1.72a4.22,4.22,0,0,0,.2-1.79.77.77,0,0,1-.06-.15,1.23,1.23,0,0,1,0-.28c.23-1.44.53-1.58.87-1.5.53.13,1.11,2.09,1.56-1.19.05-.4.34-.63.45.65.16,2,.42,1.41.69.58s.47-1.42.78-2.33c-.18,2.79.06,3.24.42,2s.63-1.74.92.66c.19,1.49.49,1.58.55-.83-.51-.8-.1-1.66,0-2.64a14.26,14.26,0,0,1,0,2.6c.26.22.52-.25.77-.3.65-.13,1-3.87,1.67-3.52a3.91,3.91,0,0,0-.13,1.72c.2.69.22-.51.25-1.2,1-1.37,1.44,1.13,1.71,6.13.27-1.11.53-2.28.89-1.61l.09-.49a24.45,24.45,0,0,0,.41-3.87l.59-1.52h0a2.12,2.12,0,0,1,.11.21c0-.19,0-.38,0-.57a11.08,11.08,0,0,0,.09-2.67c-.53,2.47-1.23,1.23-1.87,2.14.6-1.86.85-6.65,1.84-5.21.19.28.63.89.77-1.3,0,.54,0,1.4.16,1.35a3.55,3.55,0,0,0,.17-1.09c0-1-.14-.76-.26-.69-.13-1,0-2.42-.23-3.28-.09-.35-.26-1.09,0-1.3.66-.53.31-1.95.09-2.86-.69-2.81-1.27-7.14-2.36-4.43-.37.94-.76,1.48-1.11-.37-.06-.28-.21-.25-.31-.11-1,1.47-2-.49-3,1.25s-2.05,1-3.08,1c-1.86.11-3.71.53-5.57.72-.18,0-.49,1-.56-1,.09-.35.36.17.27-.94-.06-.75-.25-.1-.37.36-.87,1.38-1.7,2.26-2.67,2.05a15.79,15.79,0,0,0-4.45-.08c-.82.06-1.68,1-2.47.48-3-1.78-6,0-9.06-.87-1-.31-2.1,0-3.13-.77-2.45-1.9-4.91-.47-7.37-.81a11.42,11.42,0,0,0-1.85-.1c0-.16-.22-.25-.75-.13a2,2,0,0,0-.58.27,14.56,14.56,0,0,0-3.59,1c-.07-.94,1.75-2.47,1.09-3.6a6.92,6.92,0,0,0-1.69,2.19c-.35-.87-.76-1.71-1.18-2.54.16.33.48.53,1.35.45a2.19,2.19,0,0,0,.82-.55c.15-.92-.63-1.31-2.56-1.12a10,10,0,0,1,.38,1.19,36,36,0,0,0-7.62-10.1l1.44.6a8.36,8.36,0,0,1,3.15,2.45c.8,1.31.38,3.25,1.62,4.17.31.21.55.67,1.48,0,.65-.49,2-1.45,1.59-1.76-1.14-.85-.74-2.82-2.52-3.16-.74-.12-.93-.63-.92-1.42a3.55,3.55,0,0,0-1.66-3.21,11.62,11.62,0,0,0-3.54-1.08c-1.75-.24-2.69-1.63-4.65-1.23-.54.14,0-1,.36-1.75a2.69,2.69,0,0,0,3.15-1.53c.91-1.6,0-2.82-1.33-2.19-1.66.79-2.48.07-3.46-.45s-1.94-1.12-3.37-.08c-.1.06-.15-.69-.24-1.09,1-1.24,2.13-.2,2.6-2.17s-1.12-1.25-1.91-1.51a23.27,23.27,0,0,0-3.27-.8,8,8,0,0,1-3.26-1.16,10.79,10.79,0,0,0-4.81-1.58A8.35,8.35,0,0,0,71,610.86c-.87.69-1.91,1.16-2.87-.59-.48-.84-1-.48-1.51-.62-1.22-.31-2.41.45-3.58.76s-2.34.33-4-1.63c-.09-.11-.34,0-.4.18-.94,2.38-3.06,2.54-3.61,5.34-.43,2.32-2.25,3.48-4.27,1.72-2.37-2-3.68-1.56-4.87-.73-3.38,2.6-7,5.05-9.66,8.41-.86.95-1.64,2-2.43,3A15.6,15.6,0,0,0,31.78,630a10.18,10.18,0,0,0-.68,7.85c.16.46-.19.69-.82.73-3,.23-2.85,2.06-2.6,3.72.08.79.53,1.68.11,2.26a6.92,6.92,0,0,0-.59,6.26A41.82,41.82,0,0,1,28.44,654.92Zm124.28.54c0-.2.05-.42.07-.63.57,2.2,1.05-2.14,1.58-.66.17,2.38-.78,1.36-.34,4.23-.36,0-.72.12-1.07-.06S152.73,656.57,152.72,655.46Zm-2.1.26c.5-1.24,1-1.26,1.49,0-.15,1.12-.14.85-.43.79s-.57,1.75-.94,1.49c-.16-.11-.39.59-.43-.86A2.2,2.2,0,0,1,150.62,655.72Zm-1.9,5.14a1,1,0,0,1-.12.33c0-.18,0-.35-.08-.53s.08-.3.11-.3S148.8,660.23,148.72,660.86Zm1-2.58a7.6,7.6,0,0,1-.46,2.47,5.69,5.69,0,0,1,.46-2.48Zm-.22-2.32c-.49,2.38-.95,1.66-1.64.95C148.56,656.19,149,655.42,149.54,656Zm-2,2.56.09-.44c0,.16,0,.32-.08.48l-.12.79C147.48,659.07,147.52,658.8,147.55,658.52Zm-.85-1.61a3,3,0,0,1,0,.33c-.1.48-.16.09-.24-.16Zm-.38-.27a2.8,2.8,0,0,1,.1.37c0-.11-.11-.21-.16-.31S146.31,656.6,146.32,656.64Zm-.51,3.66c0,.14.05.28.07.43a1.2,1.2,0,0,1,0,.23s-.07-.07-.1-.12C145.76,660.64,145.78,660.47,145.81,660.3Zm-4.24,1.43-.2,0C141.43,660.93,141.5,661.58,141.57,661.73Zm-.78.19a1.56,1.56,0,0,1,.11.26c0,.05,0,.16,0,.15a1.8,1.8,0,0,1-.11-.2A.82.82,0,0,1,140.79,661.92ZM135,660.46l.05.13-.06,0Zm-9.57-.78a.48.48,0,0,1,0,.17l.08-.81C125.46,659.26,125.46,659.47,125.44,659.68Zm.71-1.23c-.17.31-.3,1.3-.51.48C125.81,658.74,125.94,657.88,126.15,658.45Zm-.34-1.69c-.06.78-.12,1.47-.18,2.15a.11.11,0,0,1-.15,0c.09-2.3-.26-1.67-.49-2Zm-.51,5.7c-.18.67-.3.26-.43-.2Zm-.62-2.63a13.05,13.05,0,0,1,.18,2.35A10.21,10.21,0,0,1,124.68,659.83Zm-.72,1.41,0,.32h0Zm-.61.66.06.13-.07.09Zm-1.16.68a1.74,1.74,0,0,0,0-.22l0,.25c0,.1-.07.19-.1.29ZM120,660.45c-.1.55-.19,1.27-.3,0Zm-1.58.72a2.09,2.09,0,0,1-.14.3c.06-.19.12-.37.17-.55A1.31,1.31,0,0,1,118.38,661.17Zm0-5.74-.31,0c0-.16,0-.33,0-.5Zm-4.86.57,0-.11,0,.19Zm3.08,3.23,0-.29.06-.13c0,.09,0,.21,0,.27A1.31,1.31,0,0,1,116.59,659.23Zm0-4.51a3.23,3.23,0,0,1,.06.48c-.17.54-.33,1-.54.89C116.18,654.46,116.4,654.72,116.6,654.72Zm-1,1.51c-.39.19-.76-2-1.18-.43C114.86,654.17,115.23,655.34,115.61,656.23Zm-1.16,2c.1-.1.21.16.15.8a1.77,1.77,0,0,1-.24.77s-.1-.38-.19-.76A4.6,4.6,0,0,1,114.45,658.25Zm-82,12.57c1.76-.77,1.7,0,2.45.33C33.07,671.67,32.6,671.39,32.43,670.82Zm77-13.64a2.42,2.42,0,0,1-.13.53c-.19-.2-.17-.62-.12-1.18,0-.33,0-.9.12-.59A7,7,0,0,1,109.44,657.18Zm-1.16,2.46c0,.06,0,.18,0,.27a.3.3,0,0,1,0-.15c0-.07,0-.2,0-.3A.78.78,0,0,1,108.28,659.64Zm-.76-2.56v0c.27.33.32-.4.27-1.58v0c.19,1.44.19,2.51-.22,2.22a.63.63,0,0,1-.11-.12C107.49,657.43,107.5,657.25,107.52,657.08ZM83.9,688.82l-.19-.32,1-.2Zm5.61-68.11c.71.69,2,.12,2.93.35l-.48.73a16.56,16.56,0,0,1-2.38,1.91c-.41-.24-.8-.51-1.22-.74l.22-.17a2.8,2.8,0,0,0,.32-.63l-1,0-.37.39h0l.37-.39C88.44,620.65,89.08,620.35,89.51,620.71Zm-4.6-2c.47,1.13,1.32,1.29,2.21,2a7,7,0,0,0-1.8.77c-.62-.26-1.26-.47-1.9-.7a2.08,2.08,0,0,0-.25-.38C83.71,618.67,84.5,617.76,84.91,618.73Zm-1.78,1.72-.1.21-.5-.19A1,1,0,0,1,83.13,620.45Zm-23,0h0Zm-.47-7.77s.07.22.11.33a1.61,1.61,0,0,1-.38,0,1.86,1.86,0,0,1-.13-.31A1.75,1.75,0,0,1,59.7,612.71ZM35.24,669.46c-1.27,0-1.25-.72-1.69-1.16C34.35,668.56,35.45,668.6,35.24,669.46Z"/><path class="cls-10" d="M44.46,214.71a42.49,42.49,0,0,1,1.23,4.15,32.86,32.86,0,0,0,1.39,3.91c.63,1.17,1.79,2.31.44,3.86h0c-.71-.24-.51-1-2.64-.9,1,.55-.52,1.9,2.33,1.2.46,1,2.16,1.53,3.29,2.16s1.77,1.35.24,3.12c-3.5,2.51-3.43,4,0,4.48-1.84.76-1.48,1.13-.55,1.37s2.52-.1,2,.76c-1.27,2.34,1.06,2.36,2,3.24s1.15,2,3.32,1.32c.26-.08.17.64.29,1l-.06,0h0l0,.1.1-.11a4.74,4.74,0,0,1,1.21,0c1,.4,1.34,1.25.24,3.19,1.82-.58,3.26-.86,3.74.36l-.2.64c-.06.3,1.42-.62.19.46-2.16,1.85-2.78-.13-4.94.58.31,1.58,1.72,1.72,3.11,1.61s2.9-.53,3.6.35c-1.27,1.45-1.68,0-2.91,1.13.39,1.49,1.56,1.45,3,1,2-.64,3.59-1,4.7.32A12.39,12.39,0,0,0,74.25,257a3.14,3.14,0,0,0-.53.44c.06.27.11.55.13.68.33.18.6,0,.7-.5a.87.87,0,0,0-.08-.53c.78.32,1.54.73,2.32,1.09,3.44,1.74,7.52,1.19,11.17.89h0c.23.64.48.64.72,0,.52,0,1-.33,1.55.28.81.86,2,1,2.52-.19,1.41-3.76,3.39-2.82,5.33-3.4a34.48,34.48,0,0,0,3.47-.6,3.6,3.6,0,0,0,2.67-2.5c-.87-1-1-1.44-.86-1.74l.63-.31c.55,1.06-.81.66.23,2a5.12,5.12,0,0,0,3,.39,1.83,1.83,0,0,0,1.44-1.78c0-1.84.78-2.21,1.67-2.51s2-.32,2.42-1.28c1.09-2.87,3.89-4.09,5.61-6.43.67,2.57-2,2.64-1.13,6,3.45-2,6.15-4.84,6.55-8.73,1.07.25,1.3.08.58-.86-.86-1.14-.8-2.11.44-2.25,1.55-.18,1.7,0,1.71-.26a30.67,30.67,0,0,1,0-4.29,2,2,0,0,1,1.42.3,1.89,1.89,0,0,0,2.47-.27c.65-.54,1.24-2.1,1.89-2.26,1-.25,2.09.63,3.13-1,.34-.53.77.63,1.09-1.31.2.72,0,5.48.63,1.69.33,1.58.64,2.15.93-.26.14-.48.25-1.75.48-.57-.12,1-.33.24-.47.64-.07,2.08.25,1.46.45,1.71s.39-.4.44,1c0,1.09,0,2.81.35,2,.21-.42.49-.66.48-2.61,0-1.74,0-1.75.48-.85v0c.31-.58.71-1,.94-.13.73,2.63,1.36-.22,2-.32.15-1.39-.16-1.24-.25-1.89.34-.8.62,0,.91.73-.08.64-.33,0-.33,1.21l.15.78c-.05-.25-.1-.49-.16-.74h-.31c0,1.45-.58,2.35-.42,2.77.59,1.46,1.26,2.82,1.78-.82.2,1,.59-2.41.72,1.08.07,1.89.57,1.11.83.77.67-.88-.11-1.15-.05-1.64.31-2.39.89-1.23,1.32-2.55.3-1,.27,1.93.4,3-.21-.16-.43-.43-.64.57.44,1.23.85,1.73,1.36.61-.31-.88-.12-2.86-.42-3.64a4,4,0,0,1,0-2.44h0l0,2.38c.19,0,.37-1,.58-.23h0a1.44,1.44,0,0,0,0,.8s.07-.25.11-.38c.17,1.72.32,3.58.75,1.31h0c1-.53-.35,2,.11,2.35.36.05.71-.19,1.06-.28.72-.2,1.39-1.82,2.11-1.48h0c.09.17.12,0,.09-.47.26-1.2.59-.28.88-.67h0c1,2.77,1.95-.17,2.91-.59.25-.12.74.13.87-2.2.33,3.33.8.76,1.2.73,0,.42,0,.84,0,1.26h0c0,.41,0,.52.07.32l.28-.22a6.58,6.58,0,0,0,.2-2.2c-.14-.94-.31.49-.49.42l0-1.39c.69-.46,1,1.9,1.24,4.58h0a4.36,4.36,0,0,0,0,1.65c.17.53.28-.09.36-.77v0c.14.58.12,2.12.42,1.72a4.2,4.2,0,0,0,.2-1.78,1.38,1.38,0,0,1-.06-.16c0-.07-.05-.26-.05-.27.23-1.44.54-1.59.87-1.51.53.14,1.11,2.09,1.56-1.19.06-.39.35-.63.45.65.17,2,.43,1.41.69.58s.48-1.42.79-2.33c-.18,2.79.06,3.24.42,2s.62-1.74.92.66c.18,1.5.48,1.58.54-.82-.5-.81-.1-1.67,0-2.64a14.11,14.11,0,0,1,0,2.59c.27.23.52-.25.77-.3.66-.13,1-3.86,1.68-3.52a3.92,3.92,0,0,0-.13,1.72c.19.69.21-.51.25-1.2.94-1.37,1.43,1.13,1.71,6.13.26-1.1.52-2.28.89-1.61l.09-.49a24.45,24.45,0,0,0,.41-3.87c.19-.51.39-1,.59-1.52h0c0,.07.07.14.11.22,0-.2,0-.38,0-.57a11.6,11.6,0,0,0,.1-2.68c-.54,2.47-1.23,1.24-1.87,2.15.6-1.87.84-6.66,1.84-5.21.19.27.63.88.77-1.31,0,.55,0,1.41.15,1.35a3.2,3.2,0,0,0,.17-1.09c0-1-.14-.75-.25-.69-.13-1,0-2.41-.24-3.27-.08-.35-.25-1.1,0-1.3.65-.53.3-2,.08-2.86-.68-2.82-1.27-7.15-2.35-4.44-.38.94-.76,1.49-1.12-.36-.05-.29-.21-.26-.3-.12-1,1.48-2-.48-3,1.25s-2.05,1-3.09,1c-1.85.11-3.71.54-5.56.72-.19,0-.49.95-.57-1,.1-.35.37.17.28-.94-.06-.74-.26-.1-.38.37-.86,1.38-1.69,2.25-2.66,2.05a15.8,15.8,0,0,0-4.45-.09c-.83.07-1.68.95-2.47.49-3-1.79-6,0-9.06-.88-1-.31-2.1,0-3.13-.77-2.45-1.9-4.92-.47-7.37-.81a11.59,11.59,0,0,0-1.86-.09c0-.17-.21-.25-.75-.14a2.45,2.45,0,0,0-.58.27,14.48,14.48,0,0,0-3.58,1c-.07-.93,1.75-2.47,1.09-3.59a6.76,6.76,0,0,0-1.69,2.18c-.36-.87-.76-1.71-1.18-2.54.16.33.47.53,1.35.46a2.3,2.3,0,0,0,.81-.56c.16-.92-.62-1.3-2.55-1.12a8.3,8.3,0,0,1,.37,1.19,35.59,35.59,0,0,0-7.61-10.09l1.44.6a8.23,8.23,0,0,1,3.15,2.44c.79,1.32.38,3.26,1.62,4.17.31.22.55.67,1.48,0,.65-.48,2-1.44,1.58-1.76-1.13-.85-.73-2.81-2.51-3.16-.75-.12-.93-.63-.92-1.42a3.57,3.57,0,0,0-1.67-3.21,11.45,11.45,0,0,0-3.54-1.08c-1.74-.24-2.68-1.63-4.64-1.22-.54.13,0-1,.36-1.75a2.69,2.69,0,0,0,3.15-1.54c.9-1.59,0-2.81-1.34-2.19-1.65.8-2.47.08-3.45-.45s-1.94-1.12-3.38-.08c-.09.07-.15-.69-.23-1.08.94-1.25,2.12-.21,2.6-2.18s-1.12-1.24-1.91-1.5a22,22,0,0,0-3.27-.81,8,8,0,0,1-3.26-1.16,11,11,0,0,0-4.81-1.58,8.34,8.34,0,0,0-5.07,1.63c-.88.68-1.91,1.15-2.88-.59-.47-.85-1-.48-1.51-.63-1.21-.31-2.4.45-3.57.76s-2.34.33-4-1.63c-.09-.1-.34,0-.41.19-.94,2.38-3.05,2.53-3.61,5.33-.42,2.32-2.24,3.48-4.26,1.72-2.37-2-3.68-1.56-4.87-.73-3.39,2.6-7,5.05-9.66,8.42-.86.94-1.65,2-2.43,3A14.89,14.89,0,0,0,49,193.89a10.18,10.18,0,0,0-.69,7.85c.17.46-.19.69-.82.74-2.94.23-2.84,2.06-2.6,3.72.09.78.54,1.68.12,2.26A6.89,6.89,0,0,0,44.46,214.71ZM170,219.41a4.52,4.52,0,0,1,.08-.63c.57,2.2,1-2.15,1.58-.66.17,2.37-.79,1.35-.34,4.22-.36,0-.72.12-1.07-.06S170,220.51,170,219.41Zm-2.09.25c.49-1.23,1-1.26,1.49.06-.15,1.11-.15.84-.43.79s-.57,1.74-.94,1.48c-.17-.11-.4.59-.43-.85A2.23,2.23,0,0,1,167.88,219.66Zm-1.9,5.15a1,1,0,0,1-.12.32c0-.18-.06-.35-.08-.52s.07-.31.11-.31S166.06,224.17,166,224.81Zm1-2.59a7.66,7.66,0,0,1-.45,2.47,5.64,5.64,0,0,1,.45-2.47Zm-.21-2.32c-.5,2.38-1,1.66-1.65.95C165.81,220.13,166.23,219.36,166.8,219.9Zm-2,2.57.09-.44c0,.16-.06.32-.08.48s-.08.52-.13.78Zm-.85-1.61a2.92,2.92,0,0,1,0,.33c-.09.48-.16.08-.23-.17Zm-.38-.28c0,.1.06.24.1.37-.06-.1-.11-.2-.16-.3S163.56,220.54,163.58,220.58Zm-.52,3.66c0,.14.05.28.08.44a.78.78,0,0,1,0,.23s-.06-.08-.1-.12C163,224.58,163,224.41,163.06,224.24Zm-4.24,1.43-.19.05C158.69,224.87,158.76,225.52,158.82,225.67Zm-.78.19c0,.07.08.17.12.26s0,.16,0,.15a1.17,1.17,0,0,1-.12-.2A2,2,0,0,1,158,225.86Zm-5.78-1.46.06.13-.07.05Zm-9.56-.78c0,.07,0,.11,0,.17,0-.27,0-.54.08-.8Zm.7-1.23c-.17.31-.3,1.3-.5.49C143.06,222.69,143.2,221.82,143.4,222.39Zm-.33-1.68c-.07.77-.12,1.46-.18,2.14a.1.1,0,0,1-.15,0c.08-2.3-.26-1.67-.49-2.05Zm-.51,5.7c-.18.66-.31.26-.43-.2Zm-.62-2.63a12.92,12.92,0,0,1,.17,2.34A10.2,10.2,0,0,1,141.94,223.78Zm-.72,1.4c0,.11,0,.22-.05.32h0Zm-.61.66,0,.14-.07.08Zm-1.16.68a1.74,1.74,0,0,1,.05-.22c0,.08,0,.17-.05.25l-.09.29Zm-2.23-2.13c-.1.55-.2,1.27-.31,0Zm-1.58.72c0,.12-.1.2-.14.3.05-.18.11-.37.17-.55C135.66,225,135.65,225.07,135.64,225.11Zm0-5.73-.31,0v-.5Zm-4.85.56,0-.11V220Zm3.07,3.23v-.29a1.12,1.12,0,0,1,0-.13,1.32,1.32,0,0,1,0,.27A.44.44,0,0,1,133.84,223.17Zm0-4.51a3.23,3.23,0,0,1,.06.49c-.16.54-.32,1-.54.88C133.43,218.4,133.66,218.67,133.85,218.66Zm-1,1.51c-.4.19-.77-1.95-1.18-.42C132.11,218.11,132.49,219.29,132.87,220.17Zm-1.17,2c.11-.11.22.15.15.79a1.77,1.77,0,0,1-.24.77,4.14,4.14,0,0,1-.18-.76A4.64,4.64,0,0,1,131.7,222.2Zm-82,12.56c1.77-.77,1.71,0,2.46.33C50.32,235.62,49.85,235.33,49.68,234.76Zm77-13.63a2.6,2.6,0,0,1-.14.53c-.18-.2-.16-.63-.11-1.18,0-.33,0-.9.12-.6A7,7,0,0,1,126.7,221.13Zm-1.16,2.45a1.52,1.52,0,0,1,0,.28,1,1,0,0,1,0-.16c0-.07,0-.19,0-.3C125.5,223.46,125.53,223.5,125.54,223.58Zm-.77-2.56,0,0c.26.33.32-.4.26-1.58v0c.19,1.44.18,2.51-.22,2.22l-.12-.12C124.74,221.37,124.75,221.19,124.77,221Zm-23.62,31.74-.19-.32,1-.19Zm5.62-68.1c.7.68,2,.11,2.92.34l-.47.74a17.58,17.58,0,0,1-2.38,1.9c-.41-.24-.81-.51-1.22-.73l.22-.18a3.47,3.47,0,0,0,.32-.62l-1,0C105.7,184.59,106.33,184.29,106.77,184.66Zm-4.6-2c.46,1.13,1.31,1.28,2.2,2a6.92,6.92,0,0,0-1.79.77c-.62-.26-1.27-.47-1.91-.7a2.49,2.49,0,0,0-.25-.38C101,182.61,101.76,181.7,102.17,182.68Zm-1.78,1.71-.11.21c-.16-.06-.33-.13-.5-.18A.92.92,0,0,1,100.39,184.39Zm-23,0h0v0ZM77,176.65a3,3,0,0,1,.11.33,1.51,1.51,0,0,1-.37,0,1.65,1.65,0,0,1-.13-.32A1.71,1.71,0,0,1,77,176.65ZM52.5,233.4c-1.28,0-1.25-.71-1.69-1.16C51.6,232.5,52.7,232.54,52.5,233.4Z"/><path class="cls-10" d="M23.15,364.21a33,33,0,0,0,1.39,3.92c.63,1.16,1.79,2.31.44,3.85h0c-.71-.24-.51-1-2.64-.9,1,.55-.52,1.9,2.33,1.2.46,1,2.15,1.53,3.29,2.17s1.77,1.35.24,3.11c-3.5,2.51-3.43,4,0,4.48-1.84.77-1.48,1.13-.55,1.38s2.52-.11,2,.75c-1.27,2.34,1.06,2.36,2,3.24s1.14,2,3.32,1.32c.26-.08.17.64.28,1h0l-.05.1.09-.1a4,4,0,0,1,1.22,0c1,.39,1.34,1.24.24,3.18,1.82-.57,3.26-.86,3.74.36l-.2.64c-.06.3,1.42-.61.19.46-2.16,1.85-2.78-.13-4.94.58.31,1.58,1.72,1.72,3.11,1.61s2.9-.53,3.6.35c-1.27,1.45-1.68,0-2.91,1.13.39,1.49,1.56,1.46,3.05,1,2-.64,3.59-1,4.7.32a12.39,12.39,0,0,0,4.66,2.94,3.14,3.14,0,0,0-.53.44c.06.28.11.55.13.68.33.18.6,0,.7-.49a.9.9,0,0,0-.08-.54c.78.32,1.54.73,2.32,1.09,3.44,1.75,7.52,1.19,11.17.89h0c.23.64.48.64.72,0,.52,0,1-.33,1.55.28.81.86,2,1,2.52-.19,1.41-3.76,3.38-2.82,5.33-3.39,1.12-.28,2.36-.22,3.47-.61a3.6,3.6,0,0,0,2.67-2.5c-.87-1-1-1.44-.86-1.74l.63-.3c.55,1.05-.81.65.23,2a5.12,5.12,0,0,0,3,.39,1.83,1.83,0,0,0,1.44-1.78c0-1.84.78-2.21,1.67-2.51s2-.32,2.42-1.28c1.09-2.87,3.89-4.09,5.61-6.43.67,2.57-2,2.64-1.13,6,3.45-2,6.14-4.84,6.55-8.73,1.07.25,1.3.08.58-.85-.86-1.15-.8-2.12.44-2.26,1.55-.18,1.7,0,1.71-.26a30.67,30.67,0,0,1,0-4.29,2,2,0,0,1,1.41.3,1.89,1.89,0,0,0,2.48-.27c.65-.54,1.24-2.1,1.89-2.26,1-.24,2.09.63,3.13-1,.34-.53.77.63,1.09-1.31.2.73,0,5.48.63,1.7.33,1.57.64,2.14.93-.26.14-.49.25-1.75.48-.58-.12,1-.33.24-.47.64-.07,2.08.25,1.46.45,1.71s.39-.4.44,1c0,1.1,0,2.81.35,2,.21-.42.49-.66.48-2.61,0-1.74,0-1.75.48-.85v0c.31-.58.71-1,.94-.13.73,2.63,1.36-.21,2-.32.15-1.39-.16-1.24-.25-1.88.34-.81.62,0,.91.73-.08.63-.33,0-.33,1.2l.15.78c0-.25-.1-.49-.16-.74h-.31c0,1.46-.59,2.35-.42,2.77.58,1.47,1.26,2.82,1.78-.82.2,1,.59-2.4.72,1.08.07,1.89.57,1.12.83.77.67-.88-.11-1.15,0-1.64.31-2.39.89-1.22,1.32-2.55.3-.94.27,1.94.4,3.05-.21-.16-.43-.43-.64.58.44,1.23.85,1.73,1.36.6-.31-.87-.12-2.86-.42-3.63a4,4,0,0,1,0-2.45h0c0,.8,0,1.59,0,2.38.19,0,.37-1,.58-.23h0a1.44,1.44,0,0,0,0,.8s.07-.24.11-.38c.17,1.72.32,3.58.75,1.31h0c1-.54-.35,2,.11,2.34.36.05.71-.19,1.06-.28.71-.19,1.39-1.82,2.11-1.47h0c.09.16.12,0,.09-.48.26-1.2.59-.28.88-.67h0c1,2.77,1.95-.18,2.91-.6.25-.11.74.13.87-2.19.33,3.32.8.75,1.2.72,0,.42,0,.84,0,1.26h0c0,.41,0,.52.07.32l.28-.22a6.54,6.54,0,0,0,.2-2.19c-.14-.95-.31.48-.49.41l0-1.39c.69-.46,1,1.9,1.24,4.58h0a4.37,4.37,0,0,0,0,1.65c.17.53.28-.09.36-.76h0v0c.14.58.12,2.13.42,1.72a4.17,4.17,0,0,0,.2-1.78,1.38,1.38,0,0,1-.06-.16,2.33,2.33,0,0,1-.05-.27c.23-1.44.54-1.59.87-1.5.53.13,1.11,2.08,1.56-1.2.06-.39.35-.63.45.65.17,2,.43,1.41.69.58s.48-1.42.79-2.33c-.18,2.79.06,3.24.42,2s.62-1.75.92.65c.18,1.5.48,1.59.54-.82-.5-.81-.1-1.66,0-2.64a14.11,14.11,0,0,1,0,2.59c.27.23.52-.25.77-.3.66-.13,1-3.86,1.68-3.52a3.92,3.92,0,0,0-.13,1.72c.19.69.21-.51.25-1.2.94-1.36,1.43,1.13,1.71,6.13.26-1.1.52-2.27.89-1.61l.09-.48a24.59,24.59,0,0,0,.41-3.88c.19-.5.39-1,.59-1.51h0a1.51,1.51,0,0,0,.11.22c0-.19,0-.38-.05-.57a11.54,11.54,0,0,0,.1-2.67c-.54,2.47-1.24,1.23-1.87,2.14.6-1.86.84-6.66,1.84-5.21.19.28.63.89.76-1.3,0,.54,0,1.4.16,1.35a3.28,3.28,0,0,0,.17-1.1c0-1-.14-.75-.25-.69-.13-1,0-2.41-.24-3.27-.08-.35-.25-1.1,0-1.3.65-.53.3-1.95.08-2.86-.68-2.82-1.27-7.14-2.35-4.43-.38.93-.76,1.48-1.12-.37,0-.28-.21-.26-.3-.11-1,1.47-2-.49-3,1.25s-2.05,1-3.09,1c-1.85.11-3.71.54-5.56.72-.19,0-.5.95-.57-1h0c.1-.35.37.18.28-.94-.06-.74-.26-.09-.38.37-.86,1.38-1.69,2.25-2.66,2.05a15.43,15.43,0,0,0-4.45-.08c-.83.06-1.68.94-2.47.48-3-1.79-6,0-9.06-.87-1-.32-2.1,0-3.13-.77-2.45-1.91-4.92-.48-7.37-.82a11.59,11.59,0,0,0-1.86-.09c0-.16-.21-.25-.75-.14a2.92,2.92,0,0,0-.58.27,14.93,14.93,0,0,0-3.58,1c-.07-.93,1.75-2.47,1.09-3.59a6.76,6.76,0,0,0-1.69,2.18c-.36-.86-.76-1.7-1.18-2.54.16.33.47.53,1.35.46a2.26,2.26,0,0,0,.81-.56c.16-.92-.62-1.3-2.56-1.12a7.32,7.32,0,0,1,.38,1.19,35.59,35.59,0,0,0-7.61-10.09l1.44.6a8.23,8.23,0,0,1,3.15,2.44c.79,1.32.38,3.26,1.62,4.17.31.22.55.67,1.48,0,.65-.49,2-1.45,1.58-1.77-1.13-.84-.73-2.81-2.51-3.15-.75-.13-.93-.63-.92-1.43a3.55,3.55,0,0,0-1.67-3.2A11.2,11.2,0,0,0,91,334.07c-1.74-.24-2.68-1.63-4.64-1.22-.54.13,0-1,.36-1.75a2.7,2.7,0,0,0,3.15-1.53c.9-1.6,0-2.82-1.34-2.2-1.65.8-2.47.08-3.45-.45s-1.94-1.11-3.38-.08c-.09.07-.15-.68-.23-1.08.94-1.25,2.12-.21,2.6-2.18s-1.12-1.24-1.91-1.5a23.27,23.27,0,0,0-3.27-.8,8.19,8.19,0,0,1-3.26-1.17,11,11,0,0,0-4.81-1.58,8.34,8.34,0,0,0-5.07,1.63c-.88.69-1.91,1.15-2.88-.59-.47-.85-1-.48-1.51-.63-1.21-.31-2.4.45-3.57.76s-2.34.34-4-1.63c-.09-.1-.34,0-.41.19-.94,2.38-3,2.53-3.61,5.33-.42,2.32-2.24,3.48-4.26,1.72-2.37-2-3.68-1.56-4.87-.73-3.39,2.6-7,5.05-9.66,8.42-.87.94-1.65,2-2.43,3a15.2,15.2,0,0,0-2.06,3.26,10.15,10.15,0,0,0-.69,7.84c.17.47-.19.69-.82.74-2.94.23-2.84,2.06-2.6,3.72.09.78.54,1.68.12,2.26a6.9,6.9,0,0,0-.59,6.25C22.49,361.5,22.76,362.87,23.15,364.21Zm124.28.55a4.72,4.72,0,0,1,.08-.63c.57,2.2,1-2.15,1.58-.66.17,2.38-.79,1.36-.34,4.22-.36,0-.72.13-1.07-.06S147.45,365.86,147.43,364.76Zm-2.09.26c.49-1.24,1-1.26,1.49.05-.15,1.12-.15.85-.43.79s-.57,1.74-.94,1.49c-.17-.12-.4.58-.44-.86A2.24,2.24,0,0,1,145.34,365Zm-1.9,5.14a.79.79,0,0,1-.13.32c0-.18-.05-.35-.07-.52s.07-.3.11-.3S143.52,369.53,143.44,370.16Zm1-2.59a7.74,7.74,0,0,1-.45,2.48,5.66,5.66,0,0,1,.45-2.48Zm-.21-2.32c-.5,2.38-.95,1.67-1.65,1C143.27,365.48,143.69,364.72,144.26,365.25Zm-2,2.57.09-.44c0,.16-.06.32-.08.48s-.08.52-.13.78Zm-.85-1.61a2.92,2.92,0,0,1,0,.33c-.09.48-.16.08-.23-.16A2.2,2.2,0,0,1,141.42,366.21Zm-.38-.27c0,.1.06.23.09.36L141,366S141,365.9,141,365.94Zm-.52,3.66c0,.14,0,.27.07.43a.56.56,0,0,1,0,.23s-.06-.07-.1-.12S140.5,369.77,140.52,369.6ZM136.28,371l-.19.05C136.15,370.22,136.22,370.88,136.28,371Zm-.78.2c0,.06.08.17.12.25s0,.16,0,.15a1.17,1.17,0,0,1-.12-.2C135.48,371.34,135.49,371.2,135.5,371.22Zm-5.78-1.47.06.13-.07.05Zm-9.56-.78a1.22,1.22,0,0,1,0,.17l.08-.8C120.18,368.55,120.17,368.77,120.16,369Zm.7-1.23c-.17.31-.3,1.31-.5.49C120.52,368,120.66,367.18,120.86,367.74Zm-.33-1.68c-.07.78-.12,1.46-.18,2.14a.1.1,0,0,1-.15,0c.08-2.3-.26-1.67-.49-2Zm-.51,5.7c-.18.66-.31.26-.43-.2Zm-.62-2.63a12.92,12.92,0,0,1,.17,2.34A10.2,10.2,0,0,1,119.4,369.13Zm-.72,1.4c0,.11,0,.22-.05.33h0Zm-.61.67.05.13-.07.09Zm-1.16.68a1.89,1.89,0,0,1,0-.23c0,.08,0,.17,0,.25l-.09.3Zm-2.23-2.14c-.1.56-.2,1.28-.31,0Zm-1.58.72c0,.12-.1.21-.14.31.05-.19.11-.37.17-.55C113.12,370.3,113.11,370.42,113.1,370.46Zm0-5.73-.31,0v-.5C112.87,364.42,113,364.57,113.08,364.73Zm-4.85.56,0-.11v.19Zm3.07,3.23v-.29a.61.61,0,0,1,0-.12,1.21,1.21,0,0,1,0,.26A.37.37,0,0,1,111.3,368.52Zm0-4.51a3.23,3.23,0,0,1,.06.49c-.16.54-.32,1-.54.88C110.89,363.76,111.12,364,111.31,364Zm-1,1.51c-.4.19-.77-1.95-1.18-.42C109.57,363.46,110,364.64,110.33,365.52Zm-1.17,2c.11-.11.22.15.15.79a1.77,1.77,0,0,1-.24.77,3.89,3.89,0,0,1-.18-.76A4.64,4.64,0,0,1,109.16,367.55Zm-82,12.57c1.77-.78,1.71,0,2.46.32C27.78,381,27.31,380.69,27.14,380.12Zm77-13.64a2.6,2.6,0,0,1-.14.53c-.18-.2-.16-.62-.11-1.18,0-.33,0-.9.12-.59A6.92,6.92,0,0,1,104.16,366.48ZM103,368.93c0,.06,0,.19,0,.28a1.31,1.31,0,0,1,0-.15c0-.08,0-.2,0-.3A1.22,1.22,0,0,1,103,368.93Zm-.77-2.56,0,0c.26.33.32-.4.26-1.57v0c.19,1.44.18,2.52-.22,2.22a1.36,1.36,0,0,1-.12-.12C102.2,366.72,102.21,366.55,102.23,366.37ZM78.61,398.11l-.19-.31,1-.2ZM84.23,330c.7.69,2,.11,2.92.34l-.47.74a17,17,0,0,1-2.39,1.9c-.4-.24-.8-.5-1.21-.73l.22-.18a3.15,3.15,0,0,0,.32-.62l-1,0C83.16,329.94,83.79,329.64,84.23,330Zm-4.6-2c.46,1.13,1.31,1.28,2.2,2a6.86,6.86,0,0,0-1.79.78c-.62-.27-1.27-.48-1.91-.71a2.49,2.49,0,0,0-.25-.38C78.43,328,79.22,327.05,79.63,328Zm-1.78,1.71-.11.21c-.16-.06-.33-.13-.5-.18A.92.92,0,0,1,77.85,329.74Zm-23,0h0v0ZM54.41,322a2.13,2.13,0,0,1,.11.32,1.56,1.56,0,0,1-.38,0A2.57,2.57,0,0,1,54,322,1.7,1.7,0,0,1,54.41,322ZM30,378.75c-1.28,0-1.25-.71-1.69-1.16C29.06,377.86,30.16,377.89,30,378.75Z"/><path class="cls-10" d="M53.08,800.27a31.19,31.19,0,0,0,1.39,3.91c.62,1.17,1.79,2.31.43,3.86h0c-.7-.24-.5-1-2.64-.9,1,.55-.51,1.9,2.33,1.2.47,1,2.16,1.53,3.29,2.16s1.78,1.35.25,3.12c-3.5,2.51-3.44,4,0,4.48-1.84.76-1.48,1.13-.55,1.37s2.51-.1,2,.76c-1.27,2.34,1.06,2.36,2,3.24s1.15,2,3.32,1.32c.26-.08.18.64.29,1l0,0h0l0,.1.1-.11a4.74,4.74,0,0,1,1.21,0c1,.4,1.35,1.25.24,3.19,1.83-.58,3.26-.86,3.75.36l-.2.64c-.07.3,1.42-.62.18.46-2.15,1.85-2.78-.13-4.93.58.31,1.58,1.71,1.72,3.11,1.61s2.9-.53,3.6.35c-1.27,1.45-1.68,0-2.91,1.13.39,1.49,1.55,1.45,3,1,2-.64,3.59-1,4.71.32a12.36,12.36,0,0,0,4.65,2.94,3.58,3.58,0,0,0-.52.44c0,.27.1.55.13.67.32.19.6,0,.7-.49a.87.87,0,0,0-.09-.53c.79.32,1.55.73,2.33,1.09,3.43,1.74,7.52,1.19,11.16.89h0c.23.64.48.64.72,0,.51,0,1-.32,1.55.29.81.86,2,1,2.51-.2,1.41-3.75,3.39-2.81,5.34-3.39a34.79,34.79,0,0,0,3.46-.6A3.6,3.6,0,0,0,111.6,834c-.87-1-1-1.43-.85-1.73l.62-.31c.56,1.06-.81.66.24,2a5.1,5.1,0,0,0,3,.39,1.81,1.81,0,0,0,1.43-1.78c0-1.84.79-2.21,1.68-2.51s2-.32,2.42-1.28c1.09-2.87,3.88-4.09,5.6-6.43.68,2.57-2,2.64-1.12,6,3.44-2,6.14-4.84,6.55-8.73,1.07.25,1.29.08.58-.86-.87-1.14-.81-2.11.43-2.25,1.55-.18,1.7,0,1.71-.26a32.35,32.35,0,0,1,0-4.3,2.09,2.09,0,0,1,1.41.31,1.91,1.91,0,0,0,2.48-.27c.64-.54,1.24-2.1,1.89-2.26,1-.25,2.08.63,3.12-1,.35-.53.78.63,1.09-1.31.21.72,0,5.48.64,1.69.32,1.58.64,2.15.92-.26.15-.48.26-1.75.49-.57-.13,1-.33.24-.48.64-.06,2.08.26,1.46.46,1.71s.39-.4.44,1c0,1.09,0,2.81.35,2,.21-.42.48-.66.47-2.61,0-1.74.06-1.75.48-.85v.15s0-.09,0-.13c.32-.58.72-1,1-.13.72,2.63,1.36-.22,2-.32.15-1.4-.15-1.24-.25-1.89.35-.8.63,0,.91.73-.07.64-.32,0-.32,1.21.05.26.1.51.15.78-.06-.25-.11-.49-.16-.74h-.31c0,1.45-.59,2.35-.42,2.77.58,1.46,1.25,2.82,1.78-.82.19,1,.58-2.41.72,1.08.07,1.89.56,1.11.82.77.67-.88-.11-1.15-.05-1.64.31-2.39.89-1.23,1.32-2.55.31-1,.27,1.93.41,3-.22-.16-.43-.43-.64.57.44,1.23.84,1.73,1.35.61-.3-.88-.12-2.86-.42-3.64a4,4,0,0,1,0-2.44h0c0,.79,0,1.59,0,2.38.2,0,.38-1,.59-.23h0a1.43,1.43,0,0,0,0,.8,1.93,1.93,0,0,0,.1-.38c.17,1.72.33,3.58.75,1.31h0c1-.53-.36,2.05.11,2.35.35,0,.7-.19,1-.28.72-.2,1.39-1.82,2.11-1.48h0c.1.17.12,0,.09-.47.27-1.2.6-.28.89-.67h0c1,2.77,1.95-.17,2.92-.6.25-.11.74.14.87-2.19.33,3.33.79.76,1.2.73,0,.42,0,.84,0,1.26h0c0,.4,0,.52.06.32l.29-.23a7,7,0,0,0,.2-2.19c-.15-.94-.32.49-.49.42,0-.47,0-.93,0-1.39.69-.46,1,1.9,1.25,4.58h0a4.17,4.17,0,0,0,0,1.65c.16.53.27-.09.36-.77v0c.14.58.13,2.12.43,1.72a4.24,4.24,0,0,0,.19-1.78,1.38,1.38,0,0,1-.06-.16,1.16,1.16,0,0,1,0-.27c.23-1.44.53-1.59.87-1.51.53.14,1.11,2.09,1.56-1.19,0-.39.34-.63.45.65.16,2,.42,1.41.69.58s.47-1.42.78-2.33c-.18,2.79.06,3.24.42,2s.63-1.74.93.66c.18,1.5.48,1.58.54-.83-.51-.8-.1-1.66,0-2.63a14.14,14.14,0,0,1,0,2.59c.26.23.52-.25.77-.3.65-.13,1-3.86,1.68-3.52a3.77,3.77,0,0,0-.14,1.72c.2.69.22-.51.26-1.2.94-1.37,1.43,1.13,1.7,6.13.27-1.1.53-2.28.89-1.61l.09-.49a24.45,24.45,0,0,0,.41-3.87l.59-1.52h0l.12.21-.05-.57a11.05,11.05,0,0,0,.09-2.67c-.53,2.47-1.23,1.23-1.87,2.15.6-1.87.85-6.66,1.84-5.21.19.27.63.88.77-1.31,0-.14,0-.28.07-.43-.13-1,0-2.41-.23-3.27-.09-.35-.26-1.1,0-1.3.66-.53.31-2,.09-2.86-.68-2.82-1.27-7.15-2.36-4.44-.37.94-.76,1.49-1.11-.36-.06-.29-.21-.26-.31-.12-1,1.48-2-.48-3,1.25s-2.06,1-3.09,1c-1.86.11-3.71.53-5.56.72-.19,0-.5,1-.57-1h0c.09-.35.36.17.27-.94-.06-.74-.25-.1-.37.37-.87,1.38-1.69,2.25-2.67,2.05a15.79,15.79,0,0,0-4.45-.09c-.82.07-1.68.95-2.46.49-3-1.79-6.05,0-9.07-.88-1-.31-2.1,0-3.13-.77-2.45-1.9-4.91-.47-7.37-.81a11.41,11.41,0,0,0-1.85-.09c0-.17-.22-.25-.75-.14a2.28,2.28,0,0,0-.58.27,14.56,14.56,0,0,0-3.59,1c-.07-.93,1.75-2.47,1.09-3.59a6.91,6.91,0,0,0-1.69,2.18c-.35-.87-.76-1.71-1.18-2.54.16.33.48.53,1.35.45a2.19,2.19,0,0,0,.82-.55c.15-.92-.63-1.3-2.56-1.12a10,10,0,0,1,.38,1.19,35.8,35.8,0,0,0-7.62-10.09l1.44.6a8.23,8.23,0,0,1,3.15,2.44c.8,1.32.39,3.26,1.62,4.17.31.22.55.67,1.48,0,.66-.48,2-1.45,1.59-1.76-1.14-.85-.74-2.81-2.52-3.16-.74-.12-.93-.63-.92-1.42a3.56,3.56,0,0,0-1.66-3.21,11.62,11.62,0,0,0-3.54-1.08c-1.75-.24-2.69-1.63-4.65-1.22-.54.13,0-1,.36-1.75a2.69,2.69,0,0,0,3.15-1.54c.91-1.59,0-2.81-1.33-2.19-1.66.79-2.48.08-3.46-.45s-1.94-1.12-3.37-.08c-.1.07-.15-.69-.24-1.08.95-1.25,2.13-.21,2.6-2.18s-1.12-1.24-1.9-1.5a22.12,22.12,0,0,0-3.28-.81,8,8,0,0,1-3.26-1.16,10.91,10.91,0,0,0-4.81-1.58,8.29,8.29,0,0,0-5.07,1.63c-.87.68-1.91,1.15-2.87-.59-.48-.85-1-.48-1.51-.63-1.22-.31-2.4.45-3.58.76s-2.34.33-4-1.63c-.08-.1-.34,0-.4.19-.94,2.38-3,2.53-3.61,5.33-.43,2.32-2.25,3.48-4.27,1.72-2.37-2-3.68-1.56-4.86-.73-3.39,2.6-7,5.05-9.67,8.42-.86.94-1.64,2-2.43,3a14.85,14.85,0,0,0-2,3.25,10.13,10.13,0,0,0-.69,7.85c.16.46-.19.69-.82.74-3,.23-2.85,2.06-2.6,3.72.08.78.53,1.67.11,2.25a6.92,6.92,0,0,0-.59,6.26A42.63,42.63,0,0,1,53.08,800.27Zm124.28.54c0-.2,0-.41.07-.62.57,2.2,1-2.15,1.58-.66.18,2.37-.78,1.35-.34,4.22-.36,0-.72.12-1.07-.06S177.37,801.92,177.36,800.81Zm-2.1.26c.5-1.23,1-1.26,1.49.06-.15,1.11-.14.84-.43.79s-.57,1.74-.94,1.48c-.16-.11-.39.59-.43-.85A2.3,2.3,0,0,1,175.26,801.07Zm-1.9,5.15a1,1,0,0,1-.12.32c0-.18-.05-.35-.08-.52s.08-.31.11-.31S173.45,805.58,173.36,806.22Zm1-2.59a7.6,7.6,0,0,1-.46,2.47,5.69,5.69,0,0,1,.46-2.48Zm-.22-2.32c-.49,2.38-1,1.66-1.64,1C173.2,801.54,173.62,800.77,174.18,801.31Zm-2,2.57c0-.15.05-.3.08-.44,0,.16-.05.32-.08.48l-.12.78Zm-.86-1.61a3.22,3.22,0,0,1,0,.33c-.09.48-.16.08-.24-.17ZM171,802a2.8,2.8,0,0,1,.1.37l-.16-.3S171,802,171,802Zm-.51,3.66c0,.14.05.28.07.44a1.37,1.37,0,0,1,0,.23s-.07-.08-.1-.12C170.4,806,170.42,805.82,170.45,805.65Zm-4.24,1.43-.2,0C166.07,806.28,166.14,806.93,166.21,807.08Zm-.78.19c0,.07.08.17.12.26s0,.16-.05.15a1.2,1.2,0,0,1-.11-.2A.82.82,0,0,1,165.43,807.27Zm-5.78-1.46,0,.13-.06,0Zm-9.57-.78a.48.48,0,0,1-.05.17c0-.27.06-.54.08-.8C150.1,804.61,150.1,804.82,150.08,805Zm.71-1.23c-.17.31-.3,1.3-.5.49C150.45,804.1,150.58,803.23,150.79,803.8Zm-.34-1.68c-.06.77-.12,1.46-.17,2.14a.1.1,0,0,1-.15,0c.08-2.3-.27-1.67-.49-2Zm-.51,5.7c-.18.66-.3.26-.43-.2Zm-.62-2.63a12,12,0,0,1,.18,2.34A10.71,10.71,0,0,1,149.32,805.19Zm-.72,1.4,0,.32h0Zm-.61.66.06.13-.07.09Zm-1.16.68a1.74,1.74,0,0,0,0-.22c0,.08,0,.17,0,.25s-.07.19-.1.29Zm-2.23-2.13c-.09.55-.19,1.27-.3,0Zm-1.58.72a2.09,2.09,0,0,1-.14.3c.06-.18.12-.37.17-.55A1.31,1.31,0,0,1,143,806.52Zm0-5.73-.31,0v-.5Zm-1.78,3.79,0-.29.06-.13c0,.09,0,.22,0,.27A.44.44,0,0,1,141.23,804.58Zm0-4.51a3.23,3.23,0,0,1,.06.49c-.17.54-.33,1-.54.88C140.82,799.81,141,800.08,141.24,800.07Zm-1,1.51c-.39.19-.76-2-1.17-.42C139.5,799.52,139.87,800.7,140.25,801.58Zm-1.16,2c.1-.11.21.15.15.79a1.77,1.77,0,0,1-.24.77,3.69,3.69,0,0,1-.19-.76A4.4,4.4,0,0,1,139.09,803.61Zm-.89-2.37,0,.19-.06-.08Zm-4.37.65c0-.33,0-.9.12-.6a7,7,0,0,1,.13,1.24,2.5,2.5,0,0,1-.13.54C133.77,802.87,133.78,802.44,133.83,801.89Zm-1,2.92a.78.78,0,0,1,0,.18,1.4,1.4,0,0,1,0,.28.34.34,0,0,1,0-.16C132.85,805,132.87,804.92,132.87,804.81Zm-.71-2.38v0c.27.33.32-.4.27-1.58v0c.19,1.44.19,2.51-.22,2.22a.63.63,0,0,1-.11-.12C132.13,802.78,132.14,802.6,132.16,802.43Zm-23.62,31.74-.19-.32,1-.19Zm5.61-68.1c.71.68,2,.11,2.93.34l-.48.74a16.43,16.43,0,0,1-2.38,1.9c-.41-.24-.8-.51-1.22-.73l.22-.18a2.92,2.92,0,0,0,.32-.62l-1,0C113.08,766,113.72,765.7,114.15,766.07Zm-4.6-2c.47,1.13,1.32,1.28,2.21,2a7,7,0,0,0-1.8.77c-.62-.26-1.26-.47-1.9-.7a2.49,2.49,0,0,0-.25-.38C108.35,764,109.14,763.11,109.55,764.09Zm-1.78,1.71-.1.21-.5-.19A1,1,0,0,1,107.77,765.8Zm-23,0h0Zm-.45-7.77s.07.22.11.33a1.62,1.62,0,0,1-.38,0,2.75,2.75,0,0,1-.13-.32A1.8,1.8,0,0,1,84.34,758.06ZM57.07,816.17c1.76-.77,1.7,0,2.45.33C57.71,817,57.24,816.74,57.07,816.17Zm2.81-1.36c-1.27,0-1.25-.71-1.69-1.16C59,813.91,60.09,814,59.88,814.81Z"/></g></g></svg>