<?xml version="1.0" encoding="utf-8"?>
<!-- Generator: Adobe Illustrator 25.2.1, SVG Export Plug-In . SVG Version: 6.00 Build 0)  -->
<svg version="1.1" id="Camada_1" xmlns="http://www.w3.org/2000/svg" xmlns:xlink="http://www.w3.org/1999/xlink" x="0px" y="0px"
	 viewBox="0 0 763.3 1000" style="enable-background:new 0 0 763.3 1000;" xml:space="preserve">
<style type="text/css">
	.st0{fill:#E7FF00;}
	.st1{fill:#15181C;}
	.st2{fill:#FDF9F2;}
	.st3{fill:#E8E8E8;}
</style>
<g>
	<g>
		<path class="st0" d="M379.8,865.2L60.9,821l-4.2-30L46.9,721l-5-35.5l-0.5-3.7v0c0,0,0,0,0,0c0,0,0,0,0-0.1l-0.1-0.9L16.6,505
			l25.4-184v-0.1l0.4-3.1l6-43.5v0l8.2-59.5l4.3-31.1l319-44.3l318.9,44.3L728.5,398c0,0,0,0,0,0l5.2,37.2l9.3,66.8l-14.8,107.1
			c0,0,0,0,0,0L698.7,821L379.8,865.2z"/>
	</g>
	<path class="st1" d="M758.2,497.2l-0.2-2.8l-0.5-5.6c-0.4-3.7-0.8-7.4-1.4-11.1c-1.2-7.3-2.9-14.2-5.5-20.3
		c0.3-5.7-5.1-16.5-1.7-20.9c1.9-2.4-1-16.5-2.4-24c-3.7-19.3-0.9,3.4-1.7,1.6c-3.9-8.5-5-25.5-8.2-37.7c-2.3-8.8,1.1-8.1,1.8-12.2
		c0.7,6.2,1.2,12.5,3.2,18.4c-0.4-12.8-1.4-24.7-4.8-39.2c0.2,8.9-2.8,3.8-2.4,12.7c0.6,11.2-1.3,4-2.8,0.5l0-0.1l2.6-0.8
		c-0.7-5.7-2.6-10.7-2.6-16.8v0c0.5,1.3,1,3.3,1,0.4c0-0.5-0.6-2-0.8-3c1.3-5.1,2.7-10-1.5-22l0,0c-4.8-29.9,3.7,9.9,2.2-3.6
		c-1.4-10.3-3.1-20.4-4.6-30.6c-3.1-20.7-7.6-39.9-10.2-60.8v0c-0.2-2.8-0.5-3.5-0.9-2.4c-1.2-3.8-1.9-8.1-2.5-12.5
		c-0.3-2.2-0.6-4.4-0.8-6.6c-0.2-1.3-0.4-2.6-0.5-3.8c-0.3-1.9-0.6-3.7-0.9-5.5l0-0.1c-0.4-5.5-0.9-11.2-1.5-16.9
		c-5.4-1-11-1.9-16.6-2.7c-4.2-0.6-8.3-1.2-12.5-1.8c-1.1-0.2-2.3-0.3-3.4-0.4c-0.3-0.7,0.1-1.4,0-2.1c-0.1-1.9-0.5-3.7-0.7-5.6
		c0-0.2-0.9-0.5,1-0.6c0.3,0.1-0.2,0.4,0.9,0.3c0.7-0.1,0.1-0.3-0.4-0.4c-1.4-0.9-2.3-1.7-2-2.7c0.3-1.5,0.2-3,0.1-4.5
		c-0.1-0.8-0.9-1.7-0.5-2.5c1.8-3,0-6,0.9-9.1c0.3-1,0-2.1,0.8-3.1c1.9-2.5,0.5-4.9,0.8-7.4c0.1-0.6,0.1-1.2,0.1-1.9
		c0.2,0,0.3-0.2,0.1-0.8c0-0.2-0.2-0.4-0.3-0.6c-0.2-1.2-0.5-2.4-1-3.6c0.9-0.1,2.5,1.7,3.6,1.1c-0.9-1-1.6-1.5-2.2-1.7
		c0.9-0.4,1.7-0.8,2.5-1.2c-0.3,0.2-0.5,0.5-0.5,1.3c0,0.1,0.4,0.8,0.6,0.8c0.9,0.2,1.3-0.6,1.1-2.6c-0.4,0.2-0.9,0.2-1.2,0.4
		c3.8-1.9,7.2-4.5,10.1-7.6c-0.2,0.5-0.4,1-0.6,1.4c-0.6,1.2-1.3,2.4-2.4,3.1c-1.3,0.8-3.3,0.4-4.2,1.6c-0.2,0.3-0.7,0.5,0,1.5
		c0.5,0.7,1.4,2,1.8,1.6c0.8-1.1,2.8-0.7,3.2-2.5c0.1-0.7,0.6-0.9,1.4-0.9c1.5,0,2.5-0.7,3.2-1.7c0.6-1.1,0.9-2.4,1.1-3.5
		c0.2-1.7,1.6-2.7,1.2-4.6c-0.1-0.5,1,0,1.8,0.4c-0.2,0.9-0.2,2.2,1.5,3.2c1.6,0.9,2.8,0,2.2-1.3c-0.8-1.7-0.1-2.5,0.4-3.5
		c0.6-0.9,1.1-1.9,0.1-3.4c-0.1-0.1,0.7-0.1,1.1-0.2c1.2,0.9,0.2,2.1,2.2,2.6c1.9,0.4,1.2-1.1,1.5-1.9c0.4-1.1,0.6-2.2,0.8-3.3
		c0.2-1.1,0.5-2.2,1.2-3.3c0.9-1.4,1.4-3.1,1.6-4.8c0-1.7-0.4-3.5-1.6-5.1c-0.7-0.9-1.2-1.9,0.6-2.9c0.8-0.5,0.5-1,0.6-1.5
		c0.3-1.2-0.5-2.4-0.8-3.6c-0.3-1.2-0.3-2.3,1.6-4c0.1-0.1,0-0.3-0.2-0.4c-2.4-0.9-2.5-3.1-5.3-3.6c-2.3-0.4-3.5-2.2-1.7-4.3
		c2-2.4,1.6-3.7,0.7-4.9c-2.6-3.4-5.1-7-8.4-9.7c-0.9-0.9-2-1.6-3-2.4c-1-0.8-2.1-1.5-3.3-2.1c-2.3-1.2-5-1.6-7.8-0.7
		c-0.5,0.2-0.7-0.2-0.7-0.8c-0.2-2.9-2.1-2.8-3.7-2.6c-0.8,0.1-1.7,0.5-2.3,0.1c-1.9-1.3-4.3-1.3-6.3-0.6c-1.4,0.6-2.8,0.8-4.2,1.2
		c-1.3,0.4-2.7,0.8-3.9,1.4c-1.2,0.6-2.3,1.8-3.9,0.4l0,0c0.2-0.7,1-0.5,0.9-2.6c-0.5,1-1.9-0.5-1.2,2.3c-1,0.5-1.5,2.2-2.2,3.3
		c-0.7,1.1-1.4,1.8-3.1,0.2c-2.5-3.5-4-3.4-4.5,0c-0.8-1.8-1.1-1.5-1.4-0.5c-0.2,0.8,0.1,2.5-0.8,2c-2.3-1.3-2.4,1.1-3.2,2
		c-0.8,0.9-2,1.1-1.3,3.3c0.1,0.3-0.6,0.2-1,0.3l0-0.1v0l-0.1-0.1l0.1,0.1c0,0.4,0.1,0.9,0,1.2c-0.4,1-1.2,1.3-3.2,0.2
		c0.6,1.8,0.9,3.3-0.4,3.7l-0.6-0.2c-0.3-0.1,0.6,1.4-0.5,0.2c-1.9-2.2,0.1-2.8-0.6-4.9c-1.6,0.3-1.7,1.7-1.6,3.1
		c0.1,1.4,0.5,2.9-0.3,3.6c-1.4-1.3,0-1.7-1.1-2.9c-1.5,0.4-1.5,1.6-1,3c0.6,2,1,3.6-0.3,4.7c-1.4,1.3-2.3,2.9-2.9,4.7
		c-0.1-0.1-0.3-0.3-0.4-0.5c-0.3,0.1-0.5,0.1-0.7,0.1c-0.2,0.3,0,0.6,0.5,0.7c0.2,0,0.4,0,0.5-0.1c-0.3,0.8-0.7,1.5-1.1,2.3
		c-1.7,3.4-1.2,7.5-0.9,11.2l0,0c-0.6,0.2-0.6,0.5,0,0.7c0,0.5,0.3,1-0.3,1.6c-0.9,0.8-1,2,0.2,2.5c3.8,1.4,2.8,3.4,3.4,5.3
		c0.3,1.1,0.2,2.4,0.6,3.5c0.4,1.1,0.9,2.2,2.5,2.7c1-0.9,1.4-1,1.7-0.9c0.1,0.2,0.2,0.4,0.3,0.6c-1.1,0.6-0.7-0.8-2,0.2
		c-0.4,1-0.6,2.1-0.4,3c0.2,0.8,0.8,1.4,1.8,1.4c1.8,0,2.2,0.8,2.5,1.7c0.3,0.9,0.3,2,1.3,2.4c2.9,1.1,4.1,3.9,6.4,5.6
		c-2.6,0.7-2.6-2-6-1.1c2,3.4,4.8,6.1,8.7,6.6c-0.2,1.1-0.1,1.3,0.9,0.6c1.1-0.9,2.1-0.8,2.3,0.4c0.2,1.6,0,1.7,0.3,1.7
		c1.5,0,3-0.2,4.3,0c0,0.5,0,0.9-0.3,1.4c-0.5,0.8-0.4,1.6,0.3,2.5c0.5,0.6,2.1,1.2,2.3,1.9c0.2,1-0.6,2.1,1,3.1
		c0.5,0.3-0.6,0.8,1.3,1.1c-0.7,0.2-5.5,0-1.7,0.6c-1.6,0.3-2.1,0.6,0.3,0.9c0.5,0.1,1.8,0.3,0.6,0.5c-1-0.1-0.2-0.3-0.6-0.5
		c-2.1-0.1-1.5,0.3-1.7,0.5c-0.2,0.2,0.4,0.4-1,0.4c-1.1,0-2.8,0-2,0.3c0.4,0.2,0.7,0.5,2.6,0.5c1.7,0,1.7,0.1,0.8,0.5l0,0
		c0,0-0.1,0-0.1,0c0,0,0.1,0,0.1,0c0.6,0.3,1,0.7,0.1,0.9c-2.6,0.7,0.2,1.4,0.3,2c1.4,0.2,1.2-0.2,1.9-0.3c0.8,0.3,0,0.6-0.7,0.9
		c-0.6-0.1,0-0.3-1.2-0.3c-0.3,0.1-0.5,0.1-0.8,0.2c0.2-0.1,0.5-0.1,0.7-0.2c0-0.1,0-0.2,0-0.3c-1.5,0-2.3-0.6-2.8-0.4
		c-1.5,0.6-2.8,1.3,0.8,1.8c-1,0.2,2.4,0.6-1.1,0.7c-1.9,0.1-1.1,0.6-0.8,0.8c0.9,0.7,1.2-0.1,1.6,0c2.4,0.3,1.2,0.9,2.5,1.3
		c0.9,0.3-1.9,0.3-3,0.4c0.2-0.2,0.4-0.4-0.6-0.6c-1.2,0.4-1.7,0.8-0.6,1.4c0.9-0.3,2.9-0.1,3.6-0.4c0.8-0.4,1.6-0.1,2.4,0
		c0,0,0,0,0,0c-0.8,0-1.6,0-2.4,0c0,0.2,1,0.4,0.2,0.6l0,0c-0.2,0-0.5-0.1-0.8,0c0,0,0.2,0.1,0.4,0.1c-1.7,0.2-3.6,0.3-1.3,0.8
		c0,0,0,0,0,0c0.5,1-2-0.4-2.3,0.1c-0.1,0.4,0.2,0.7,0.3,1.1c0.2,0.7,1.8,1.4,1.5,2.1h0c-0.2,0.1,0,0.1,0.5,0.1
		c1.2,0.3,0.3,0.6,0.7,0.9l0,0c-2.8,1,0.2,2,0.6,2.9c0.1,0.3-0.1,0.7,2.2,0.9c-3.3,0.3-0.8,0.8-0.7,1.2c-0.4,0-0.8,0-1.3,0
		c0,0,0,0,0,0c-0.4,0-0.5,0-0.3,0.1c0.1,0.1,0.1,0.2,0.2,0.3c0.7,0.1,1.2,0.3,2.2,0.2c0.9-0.1-0.5-0.3-0.4-0.5c0.5,0,0.9,0,1.4,0
		c0.5,0.7-1.9,1-4.6,1.2h0c-0.5-0.1-1.2-0.2-1.7,0c-0.5,0.2,0.1,0.3,0.8,0.4c0,0,0,0,0,0l0,0c-0.6,0.1-2.1,0.1-1.7,0.4
		c0.3,0.2,1,0.2,1.8,0.2c0,0,0.1,0,0.2-0.1c0.1,0,0.3,0,0.3,0c1.4,0.2,1.6,0.5,1.5,0.9c-0.1,0.5-2.1,1.1,1.2,1.6
		c0.4,0.1,0.6,0.3-0.6,0.5c-0.8,0.1-1.2,0.1-1.3,0.2c-9.7-0.9-19.5-1.7-29.2-2.9c-7.3-0.9-21.4-3.1-25.5-1c-9-5.1-22.9-4-34.6-5.6
		l-0.3-1.5l0,0c1-0.3,0.4-0.5-1.9-0.6l-8.3-0.9c-2.3,0.5-10.2,0-6.1,1.7c4,1.7,9.2,0.7,14.2,1.5l0.8,1.7c-13.8-1.5-22-3.9-28-6.5
		c-0.1-0.2-0.3-0.4-0.8-0.6c-0.9-0.4-1.5-0.8,0.4-1.1c0.3-0.1,0.3-0.2,0.1-0.3c-1.5-1,0.5-2-1.3-3c-1.8-1-1-2.1-1-3.1
		c-0.1-1.9-0.5-3.7-0.7-5.6c0-0.2-0.9-0.5,1-0.6h0c0.3,0.1-0.2,0.4,0.9,0.3c0.7-0.1,0.1-0.3-0.4-0.4c-1.4-0.9-2.3-1.7-2-2.7
		c0.3-1.5,0.2-3,0.1-4.5c-0.1-0.8-0.9-1.7-0.5-2.5c1.8-3,0-6,0.9-9.1c0.3-1,0-2.1,0.8-3.1c1.9-2.5,0.5-4.9,0.8-7.4
		c0.1-0.6,0.1-1.2,0.1-1.9c0.2,0,0.3-0.2,0.1-0.8c0-0.2-0.2-0.4-0.3-0.6c-0.2-1.2-0.5-2.4-1-3.6c0.9-0.1,2.5,1.7,3.6,1.1
		c-0.9-1-1.6-1.5-2.2-1.7c0.9-0.4,1.7-0.8,2.5-1.2c-0.3,0.2-0.5,0.5-0.5,1.3c0,0.1,0.4,0.8,0.6,0.8c0.9,0.2,1.3-0.6,1.1-2.6
		c-0.4,0.2-0.9,0.2-1.2,0.4c3.8-1.9,7.2-4.5,10.1-7.6c-0.2,0.5-0.4,1-0.6,1.4c-0.6,1.2-1.3,2.4-2.4,3.1c-1.3,0.8-3.3,0.4-4.2,1.6
		c-0.2,0.3-0.7,0.5,0,1.5c0.5,0.7,1.4,2,1.8,1.6c0.8-1.1,2.8-0.7,3.2-2.5c0.1-0.7,0.6-0.9,1.4-0.9c1.5,0,2.5-0.7,3.2-1.7
		c0.6-1.1,0.9-2.4,1.1-3.5c0.2-1.7,1.6-2.7,1.2-4.6c-0.1-0.5,1,0,1.8,0.4c-0.2,0.9-0.2,2.2,1.5,3.2c1.6,0.9,2.8,0,2.2-1.3
		c-0.8-1.7-0.1-2.5,0.4-3.5c0.6-0.9,1.1-1.9,0.1-3.4c-0.1-0.1,0.7-0.1,1.1-0.2c1.2,0.9,0.2,2.1,2.2,2.6c1.9,0.4,1.2-1.1,1.5-1.9
		c0.4-1.1,0.6-2.2,0.8-3.3c0.2-1.1,0.5-2.2,1.2-3.3c0.9-1.4,1.4-3.1,1.6-4.8c0-1.7-0.4-3.5-1.6-5.1c-0.7-0.9-1.2-1.9,0.6-2.9
		c0.8-0.5,0.5-1,0.6-1.5c0.3-1.2-0.5-2.4-0.8-3.6c-0.3-1.2-0.3-2.3,1.6-4c0.1-0.1,0-0.3-0.2-0.4c-2.4-0.9-2.5-3.1-5.3-3.6
		c-2.3-0.4-3.5-2.2-1.7-4.3c2-2.4,1.6-3.7,0.7-4.9c-2.6-3.4-5.1-7-8.4-9.7c-0.9-0.9-2-1.6-3-2.4c-1-0.8-2.1-1.5-3.3-2.1
		c-2.3-1.2-5-1.6-7.8-0.7c-0.5,0.2-0.7-0.2-0.7-0.8c-0.2-2.9-2.1-2.8-3.7-2.6c-0.8,0.1-1.7,0.5-2.3,0.1c-1.9-1.3-4.3-1.3-6.3-0.6
		c-1.4,0.6-2.8,0.8-4.2,1.2c-1.3,0.4-2.7,0.8-3.9,1.4c-1.2,0.6-2.3,1.8-3.9,0.4l0,0c0.2-0.7,1-0.5,0.9-2.6c-0.5,1-1.9-0.5-1.2,2.3
		c-1,0.5-1.5,2.2-2.2,3.3c-0.7,1.1-1.4,1.8-3.1,0.2c-2.5-3.5-4-3.4-4.5,0c-0.8-1.8-1.1-1.5-1.4-0.5c-0.2,0.8,0.1,2.5-0.8,2
		c-2.3-1.3-2.4,1.1-3.2,2c-0.8,0.9-2,1.1-1.3,3.3c0.1,0.3-0.6,0.2-1,0.3l0-0.1v0l-0.1-0.1l0.1,0.1c0,0.4,0.1,0.9,0,1.2
		c-0.4,1-1.2,1.3-3.2,0.2c0.6,1.8,0.9,3.3-0.4,3.7l-0.6-0.2c-0.3-0.1,0.6,1.4-0.5,0.2c-1.9-2.2,0.1-2.8-0.6-4.9
		c-1.6,0.3-1.7,1.7-1.6,3.1c0.1,1.4,0.5,2.9-0.3,3.6c-1.4-1.3,0-1.7-1.1-2.9c-1.5,0.4-1.5,1.6-1,3c0.6,2,1,3.6-0.3,4.7
		c-1.4,1.3-2.3,2.9-2.9,4.7c-0.1-0.1-0.3-0.3-0.4-0.5c-0.3,0.1-0.5,0.1-0.7,0.1c-0.2,0.3,0,0.6,0.5,0.7c0.2,0,0.4,0,0.5-0.1
		c-0.3,0.8-0.7,1.5-1.1,2.3c-1.7,3.4-1.2,7.5-0.9,11.2v0c-0.6,0.2-0.6,0.5,0,0.7c0,0.5,0.3,1-0.3,1.6c-0.9,0.8-1,2,0.2,2.5
		c3.8,1.4,2.8,3.4,3.4,5.3c0.3,1.1,0.2,2.4,0.6,3.5c0.4,1.1,0.9,2.2,2.5,2.7c1-0.9,1.4-1,1.7-0.9c0.1,0.2,0.2,0.4,0.3,0.6
		c-1.1,0.6-0.7-0.8-2,0.2c-0.4,1-0.6,2.1-0.4,3c0.2,0.8,0.8,1.4,1.8,1.4c1.8,0,2.2,0.8,2.5,1.7c0.3,0.9,0.3,2,1.3,2.4
		c2.9,1.1,4.1,3.9,6.4,5.6c-2.6,0.7-2.6-2-6-1.1c2,3.4,4.8,6.1,8.7,6.6c-0.2,1.1-0.1,1.3,0.9,0.6c1.1-0.9,2.1-0.8,2.3,0.4
		c0.2,1.6,0,1.7,0.3,1.7c1.5,0,3-0.2,4.3,0c0,0.5,0,0.9-0.3,1.4c-0.5,0.8-0.4,1.6,0.3,2.5c0.5,0.6,2.1,1.2,2.3,1.9
		c0.2,1-0.6,2.1,1,3.1c0.5,0.3-0.6,0.8,1.3,1.1c-0.7,0.2-5.5,0-1.7,0.6c-1.6,0.3-2.1,0.6,0.3,0.9c0.5,0.1,1.8,0.3,0.6,0.5
		c-1-0.1-0.2-0.3-0.6-0.5c-2.1-0.1-1.5,0.3-1.7,0.5c-0.2,0.2,0.4,0.4-1,0.4c-1.1,0-2.8,0-2,0.3c0.4,0.2,0.7,0.5,2.6,0.5
		c1.7,0,1.7,0.1,0.8,0.5l0,0c0,0-0.1,0-0.1,0c0,0,0.1,0,0.1,0c0.6,0.3,1,0.7,0.1,0.9c-2.6,0.7,0.2,1.4,0.3,2
		c1.4,0.2,1.2-0.2,1.9-0.3c0.8,0.3,0,0.6-0.7,0.9c-0.6-0.1,0-0.3-1.2-0.3c-0.3,0.1-0.5,0.1-0.8,0.2c0.2-0.1,0.5-0.1,0.7-0.2
		c0-0.1,0-0.2,0-0.3c-1.5,0-2.3-0.6-2.8-0.4c-1.5,0.6-2.8,1.3,0.8,1.8c-1,0.2,2.4,0.6-1.1,0.7c-1.9,0.1-1.1,0.6-0.8,0.8
		c0.9,0.7,1.2-0.1,1.6,0c2.4,0.3,1.2,0.9,2.5,1.3c0.9,0.3-1.9,0.3-3,0.4c0.2-0.2,0.4-0.4-0.6-0.6c-1.2,0.4-1.7,0.8-0.6,1.4
		c0.9-0.3,2.9-0.1,3.6-0.4c0.8-0.4,1.6-0.1,2.4,0c0,0,0,0,0,0c-0.8,0-1.6,0-2.4,0c0,0.2,1,0.4,0.2,0.6l0,0c-0.2,0-0.5-0.1-0.8,0
		c0,0,0.2,0.1,0.4,0.1c-1.7,0.2-3.6,0.3-1.3,0.8c0,0,0,0,0,0c0.5,1-2-0.4-2.3,0.1c-0.1,0.4,0.2,0.7,0.3,1.1c0.2,0.7,1.8,1.4,1.5,2.1
		h0c-0.2,0.1,0,0.1,0.5,0.1c1.2,0.3,0.3,0.6,0.7,0.9l0,0c-2.8,1,0.2,2,0.6,2.9c0.1,0.3-0.1,0.7,2.2,0.9c-3.3,0.3-0.8,0.8-0.7,1.2
		c-0.4,0-0.8,0-1.3,0c0,0,0,0,0,0c-0.4,0-0.5,0-0.3,0.1c0.1,0.1,0.1,0.2,0.2,0.3c0.7,0.1,1.2,0.3,2.2,0.2c0.9-0.1-0.5-0.3-0.4-0.5
		c0.5,0,0.9,0,1.4,0c0.5,0.7-1.9,1-4.6,1.2c0,0,0,0,0,0c-0.5-0.1-1.2-0.2-1.7,0c-0.5,0.2,0.1,0.3,0.8,0.4c0,0,0,0,0,0l0,0
		c-0.6,0.1-2.1,0.1-1.7,0.4c0.3,0.2,1,0.2,1.8,0.2c0,0,0.1,0,0.2-0.1c0.1,0,0.3,0,0.3,0c1.4,0.2,1.6,0.5,1.5,0.9
		c-0.1,0.4-1.5,0.9,0,1.3c-1-0.2-2.2-0.3-3.7-0.5c-5.6-0.5-5.9,0.3-6.1,1.2c0.6,0.1,1.2,0.3,1.7,0.4c0.5,0.2,1.4,0.5,1.3,0.5
		c-6.9,0.7-15.7-0.3-25.5-1.8c-15.3-2.3-31.8-6.8-45.3-4.9c-1.6,0.2-10.2-0.7-13-2.5c-4.5-3-12-3.3-19.9-3.4
		c-2.7-0.1-5.5-0.1-8.5-0.2c-0.7,0-1.4,0-2.2-0.1c1.3-0.4,2-0.8,0.5-1.4c-0.9-0.4-1.5-0.8,0.4-1.1c0.3-0.1,0.3-0.2,0.1-0.3
		c-1.5-1,0.5-2-1.3-3c-1.8-1-1-2.1-1-3.1c-0.1-1.9-0.5-3.7-0.7-5.6c0-0.2-0.9-0.5,1-0.6c0.3,0.1-0.2,0.4,0.9,0.3
		c0.7-0.1,0.1-0.3-0.4-0.4c-1.4-0.9-2.3-1.7-2-2.7c0.3-1.5,0.2-3,0.1-4.5c-0.1-0.8-0.9-1.7-0.5-2.5c1.8-3,0-6,0.9-9.1
		c0.3-1,0-2.1,0.8-3.1c1.9-2.5,0.5-4.9,0.8-7.4c0.1-0.6,0.1-1.2,0.1-1.9c0.2,0,0.3-0.2,0.1-0.8c0-0.2-0.2-0.4-0.3-0.6
		c-0.2-1.2-0.5-2.4-1-3.6c0.9-0.1,2.5,1.7,3.6,1.1c-0.9-1-1.6-1.5-2.2-1.7c0.9-0.4,1.7-0.8,2.5-1.2c-0.3,0.2-0.5,0.5-0.5,1.3
		c0,0.1,0.4,0.8,0.6,0.8c0.9,0.2,1.3-0.6,1.1-2.6c-0.4,0.2-0.9,0.2-1.2,0.4c3.8-1.9,7.2-4.5,10.1-7.6c-0.2,0.5-0.4,1-0.6,1.4
		c-0.6,1.2-1.3,2.4-2.4,3.1c-1.3,0.8-3.3,0.4-4.2,1.6c-0.2,0.3-0.7,0.5,0,1.5c0.5,0.7,1.4,2,1.8,1.6c0.8-1.1,2.8-0.7,3.2-2.5
		c0.1-0.7,0.6-0.9,1.4-0.9c1.5,0,2.5-0.7,3.2-1.7c0.6-1.1,0.9-2.4,1.1-3.5c0.2-1.7,1.6-2.7,1.2-4.6c-0.1-0.5,1,0,1.8,0.4
		c-0.2,0.9-0.2,2.2,1.5,3.2c1.6,0.9,2.8,0,2.2-1.3c-0.8-1.7-0.1-2.5,0.4-3.5c0.6-0.9,1.1-1.9,0.1-3.4c-0.1-0.1,0.7-0.1,1.1-0.2
		c1.2,0.9,0.2,2.1,2.2,2.6c1.9,0.4,1.2-1.1,1.5-1.9c0.4-1.1,0.6-2.2,0.8-3.3c0.2-1.1,0.5-2.2,1.2-3.3c0.9-1.4,1.4-3.1,1.6-4.8
		c0-1.7-0.4-3.5-1.6-5.1c-0.7-0.9-1.2-1.9,0.6-2.9c0.8-0.5,0.5-1,0.6-1.5c0.3-1.2-0.5-2.4-0.8-3.6c-0.3-1.2-0.3-2.3,1.6-4
		c0.1-0.1,0-0.3-0.2-0.4c-2.4-0.9-2.5-3.1-5.3-3.6c-2.3-0.4-3.5-2.2-1.7-4.3c2-2.4,1.6-3.7,0.7-4.9c-2.6-3.4-5.1-7-8.4-9.7
		c-0.9-0.9-2-1.6-3-2.4c-1-0.8-2.1-1.5-3.3-2.1c-2.3-1.2-5-1.6-7.8-0.7c-0.5,0.2-0.7-0.2-0.7-0.8c-0.2-2.9-2.1-2.8-3.7-2.6
		c-0.8,0.1-1.7,0.5-2.3,0.1c-1.9-1.3-4.3-1.3-6.3-0.6c-1.4,0.6-2.8,0.8-4.2,1.2c-1.3,0.4-2.7,0.8-3.9,1.4c-1.2,0.6-2.3,1.8-3.9,0.4
		l0,0c0.2-0.7,1-0.5,0.9-2.6c-0.5,1-1.9-0.5-1.2,2.3c-1,0.5-1.5,2.2-2.2,3.3c-0.7,1.1-1.4,1.8-3.1,0.2c-2.5-3.5-4-3.4-4.5,0
		c-0.8-1.8-1.1-1.5-1.4-0.5c-0.2,0.8,0.1,2.5-0.8,2c-2.3-1.3-2.4,1.1-3.2,2c-0.8,0.9-2,1.1-1.3,3.3c0.1,0.3-0.6,0.2-1,0.3l0-0.1v0
		l0,0l-0.1-0.1l0.1,0.1c0,0.4,0.1,0.9,0,1.2c-0.4,1-1.2,1.3-3.2,0.2c0.6,1.8,0.9,3.3-0.4,3.7l-0.6-0.2c-0.3-0.1,0.6,1.4-0.5,0.2
		c-1.9-2.2,0.1-2.8-0.6-4.9c-1.6,0.3-1.7,1.7-1.6,3.1c0.1,1.4,0.5,2.9-0.3,3.6c-1.4-1.3,0-1.7-1.1-2.9c-1.5,0.4-1.5,1.6-1,3
		c0.6,2,1,3.6-0.3,4.7c-1.4,1.3-2.3,2.9-2.9,4.7c-0.1-0.1-0.3-0.3-0.4-0.5c-0.3,0.1-0.5,0.1-0.7,0.1c-0.2,0.3,0,0.6,0.5,0.7
		c0.2,0,0.4,0,0.5-0.1c-0.3,0.8-0.7,1.5-1.1,2.3c-1.7,3.4-1.2,7.5-0.9,11.2l0,0c-0.6,0.2-0.6,0.5,0,0.7c0,0.5,0.3,1-0.3,1.6
		c-0.9,0.8-1,2,0.2,2.5c3.8,1.4,2.8,3.4,3.4,5.3c0.3,1.1,0.2,2.4,0.6,3.5c0.4,1.1,0.9,2.2,2.5,2.7c1-0.9,1.4-1,1.7-0.9
		c0.1,0.2,0.2,0.4,0.3,0.6c-1.1,0.6-0.7-0.8-2,0.2c-0.4,1-0.6,2.1-0.4,3c0.2,0.8,0.8,1.4,1.8,1.4c1.8,0,2.2,0.8,2.5,1.7
		c0.3,0.9,0.3,2,1.3,2.4c2.9,1.1,4.1,3.9,6.4,5.6c-2.6,0.7-2.6-2-6-1.1c2,3.4,4.8,6.1,8.7,6.6c-0.2,1.1-0.1,1.3,0.9,0.6
		c1.1-0.9,2.1-0.8,2.3,0.4c0.2,1.6,0,1.7,0.3,1.7c1.5,0,3-0.2,4.3,0c0,0.5,0,0.9-0.3,1.4c-0.5,0.8-0.4,1.6,0.3,2.5
		c0.5,0.6,2.1,1.2,2.3,1.9c0.2,1-0.6,2.1,1,3.1c0.5,0.3-0.6,0.8,1.3,1.1c-0.7,0.2-5.5,0-1.7,0.6c-1.6,0.3-2.1,0.6,0.3,0.9
		c0.5,0.1,1.8,0.3,0.6,0.5c-1-0.1-0.2-0.3-0.6-0.5c-2.1-0.1-1.5,0.3-1.7,0.5c-0.2,0.2,0.4,0.4-1,0.4c-1.1,0-2.8,0-2,0.3
		c0.4,0.2,0.7,0.5,2.6,0.5c1.7,0,1.7,0.1,0.8,0.5l0,0c0,0-0.1,0-0.1,0c0,0,0.1,0,0.1,0c0.6,0.3,1,0.7,0.1,0.9
		c-2.6,0.7,0.2,1.4,0.3,2c1.4,0.2,1.2-0.2,1.9-0.3c0.8,0.3,0,0.6-0.7,0.9c-0.6-0.1,0-0.3-1.2-0.3c-0.3,0.1-0.5,0.1-0.8,0.2
		c0.2-0.1,0.5-0.1,0.7-0.2c0-0.1,0-0.2,0-0.3c-1.5,0-2.3-0.6-2.8-0.4c-1.5,0.6-2.8,1.3,0.8,1.8c-1,0.2,2.4,0.6-1.1,0.7
		c-1.9,0.1-1.1,0.6-0.8,0.8c0.9,0.7,1.2-0.1,1.6,0c2.4,0.3,1.2,0.9,2.5,1.3c0.9,0.3-1.9,0.3-3,0.4c0.2-0.2,0.4-0.4-0.6-0.6
		c-1.2,0.4-1.7,0.8-0.6,1.4c0.9-0.3,2.9-0.1,3.6-0.4c0.8-0.4,1.6-0.1,2.4,0c0,0,0,0,0,0c-0.8,0-1.6,0-2.4,0c0,0.2,1,0.4,0.2,0.6
		c0,0,0,0,0,0c-0.2,0-0.5-0.1-0.8,0c0,0,0.2,0.1,0.4,0.1c-1.7,0.2-3.6,0.3-1.3,0.8c0,0,0,0,0,0c0.5,1-2-0.4-2.3,0.1
		c-0.1,0.4,0.2,0.7,0.3,1.1c0.2,0.7,1.8,1.4,1.5,2.1h0c-0.2,0.1,0,0.1,0.5,0.1c1.2,0.3,0.3,0.6,0.7,0.9l0,0c-2.8,1,0.2,2,0.6,2.9
		c0.1,0.3-0.1,0.7,2.2,0.9c-3.3,0.3-0.8,0.8-0.7,1.2c-0.4,0-0.8,0-1.3,0c0,0,0,0,0,0c-0.4,0-0.5,0-0.3,0.1c0.1,0.1,0.1,0.2,0.2,0.3
		c0.7,0.1,1.2,0.3,2.2,0.2c0.9-0.1-0.5-0.3-0.4-0.5c0.5,0,0.9,0,1.4,0c0.5,0.7-1.9,1-4.6,1.2c0,0,0,0,0,0c-0.5-0.1-1.2-0.2-1.7,0
		c-0.5,0.2,0.1,0.3,0.8,0.4c0,0,0,0,0,0l0,0c-0.6,0.1-2.1,0.1-1.7,0.4c0.3,0.2,1,0.2,1.8,0.2c0,0,0.1,0,0.2-0.1c0.1,0,0.3,0,0.3,0
		c1.4,0.2,1.6,0.5,1.5,0.9c-0.1,0.5-2.1,1.1,1.2,1.6c0.4,0.1,0.6,0.3-0.6,0.5c-2,0.2-1.4,0.4-0.6,0.7c0.7,0.2,1.4,0.5,2.3,0.8
		c-2.8-0.2-3.2,0.1-2,0.4c1.3,0.4,1.7,0.6-0.7,0.9c-1.5,0.2-1.6,0.5,0.8,0.5c0.8-0.5,1.7-0.1,2.6,0c-0.9,0.2-1.8,0-2.6,0
		c-0.2,0.3,0.2,0.5,0.3,0.8c0.1,0.7,3.9,1,3.5,1.7c-0.5-0.1-1.1-0.3-1.7-0.1c-0.7,0.2,0.5,0.2,1.2,0.3c1.4,0.9-1.1,1.4-6.1,1.7
		c1.1,0.3,2.3,0.5,1.6,0.9c0.2,0,0.3,0.1,0.5,0.1c0.5,0.1,0.9,0.1,1.4,0.2c-1.4,0.3-2.8,0.7-4.3,1.1c-10.7,3-17.8,4.5-26.8,3
		c-5.6-1-14.2,0.1-15.6,3.1c14.7-1.1,3.1,1.5,1.2,2.9c-6.4-0.2,0.2-2.1-1.5-2.8c-7.7,0.8-15,2.4-22.3,3.4
		c-18.9,2.8-28.4,8.4-47.9,10.7h0c2.3-0.9,8.6-2.5,3.5-2.5c-5.7,0-6.1,1.4-7.1,2.4c-0.5,0.1-1.1,0.2-1.6,0.3c0,0,0,0,0,0
		c-1.8-1-1-2.1-1-3.1c-0.1-1.9-0.5-3.7-0.7-5.6c0-0.2-0.9-0.5,1-0.6c0.3,0.1-0.2,0.4,0.9,0.3c0.7-0.1,0.1-0.3-0.4-0.4
		c-1.4-0.9-2.3-1.7-2-2.7c0.3-1.5,0.2-3,0.1-4.4c-0.1-0.8-0.9-1.7-0.5-2.5c1.8-3,0-6,0.9-9.1c0.3-1,0-2.1,0.8-3.1
		c1.9-2.5,0.5-4.9,0.8-7.4c0.1-0.6,0.1-1.2,0.1-1.9c0.2,0,0.3-0.2,0.1-0.8c0-0.2-0.2-0.4-0.3-0.6c-0.2-1.2-0.5-2.4-1-3.6
		c0.9-0.1,2.5,1.7,3.6,1.1c-0.9-1-1.6-1.5-2.2-1.7c0.9-0.4,1.7-0.8,2.5-1.2c-0.3,0.2-0.5,0.5-0.5,1.3c0,0.1,0.4,0.8,0.6,0.8
		c0.9,0.2,1.3-0.6,1.1-2.6c-0.4,0.2-0.9,0.2-1.2,0.4c3.8-1.9,7.2-4.5,10.1-7.6c-0.2,0.5-0.4,1-0.6,1.4c-0.6,1.2-1.3,2.4-2.4,3.1
		c-1.3,0.8-3.3,0.4-4.2,1.6c-0.2,0.3-0.7,0.5,0,1.5c0.5,0.7,1.4,2,1.8,1.6c0.8-1.1,2.8-0.7,3.2-2.5c0.1-0.7,0.6-0.9,1.4-0.9
		c1.5,0,2.5-0.7,3.2-1.7c0.6-1.1,0.9-2.4,1.1-3.5c0.2-1.7,1.6-2.7,1.2-4.6c-0.1-0.5,1,0,1.8,0.4c-0.2,0.9-0.2,2.2,1.5,3.2
		c1.6,0.9,2.8,0,2.2-1.3c-0.8-1.7-0.1-2.5,0.4-3.5c0.6-0.9,1.1-1.9,0.1-3.4c-0.1-0.1,0.7-0.1,1.1-0.2c1.2,0.9,0.2,2.1,2.2,2.6
		c1.9,0.4,1.2-1.1,1.5-1.9c0.4-1.1,0.6-2.2,0.8-3.3c0.2-1.1,0.5-2.2,1.2-3.3c0.9-1.4,1.4-3.1,1.6-4.8c0-1.7-0.4-3.5-1.6-5.1
		c-0.7-0.9-1.2-1.9,0.6-2.9c0.8-0.5,0.5-1,0.6-1.5c0.3-1.2-0.5-2.4-0.8-3.6c-0.3-1.2-0.3-2.3,1.6-4c0.1-0.1,0-0.3-0.2-0.4
		c-2.4-0.9-2.5-3.1-5.3-3.6c-2.3-0.4-3.5-2.2-1.7-4.3c2-2.4,1.6-3.7,0.7-4.9c-2.6-3.4-5.1-7-8.4-9.7c-0.9-0.9-2-1.6-3-2.4
		c-1-0.8-2.1-1.5-3.3-2.1c-2.3-1.2-5-1.6-7.8-0.7c-0.5,0.2-0.7-0.2-0.7-0.8c-0.2-2.9-2.1-2.8-3.7-2.6c-0.8,0.1-1.7,0.5-2.3,0.1
		c-1.9-1.3-4.3-1.3-6.3-0.6c-1.4,0.6-2.8,0.8-4.2,1.2c-1.3,0.4-2.7,0.8-3.9,1.4c-1.2,0.6-2.3,1.8-3.9,0.4l0,0c0.2-0.7,1-0.5,0.9-2.6
		c-0.5,1-1.9-0.5-1.2,2.3c-1,0.5-1.5,2.2-2.2,3.3c-0.7,1.1-1.4,1.8-3.1,0.2c-2.5-3.5-4-3.4-4.5,0c-0.8-1.8-1.1-1.5-1.4-0.5
		c-0.2,0.8,0.1,2.5-0.8,2c-2.3-1.3-2.4,1.1-3.2,2c-0.8,0.9-2,1.1-1.3,3.3c0.1,0.3-0.6,0.2-1,0.3l0-0.1v0l-0.1-0.1l0.1,0.1
		c0,0.4,0.1,0.9,0,1.2c-0.4,1-1.2,1.3-3.2,0.2c0.6,1.8,0.9,3.3-0.4,3.7l-0.6-0.2c-0.3-0.1,0.6,1.4-0.5,0.2c-1.9-2.2,0.1-2.8-0.6-4.9
		c-1.6,0.3-1.7,1.7-1.6,3.1c0.1,1.4,0.5,2.9-0.3,3.6c-1.4-1.3,0-1.7-1.1-2.9c-1.5,0.4-1.5,1.6-1,3c0.6,2,1,3.6-0.3,4.7
		c-1.4,1.3-2.3,2.9-2.9,4.7c-0.1-0.1-0.3-0.3-0.4-0.5c-0.3,0.1-0.5,0.1-0.7,0.1c-0.2,0.3,0,0.6,0.5,0.7c0.2,0,0.4,0,0.5-0.1
		c-0.3,0.8-0.7,1.5-1.1,2.3c-1.7,3.4-1.2,7.5-0.9,11.2l0,0c-0.6,0.2-0.6,0.5,0,0.7c0,0.5,0.3,1-0.3,1.6c-0.9,0.8-1,2,0.2,2.5
		c3.8,1.4,2.8,3.4,3.4,5.3c0.3,1.1,0.2,2.4,0.6,3.5c0.4,1.1,0.9,2.2,2.5,2.7c1-0.9,1.4-1,1.7-0.9c0.1,0.2,0.2,0.4,0.3,0.6
		c-1.1,0.6-0.7-0.8-2,0.2c-0.4,1-0.6,2.1-0.4,3c0.2,0.8,0.8,1.4,1.8,1.4c1.8,0,2.2,0.8,2.5,1.7c0.3,0.9,0.3,2,1.3,2.4
		c2.9,1.1,4.1,3.9,6.4,5.6c-2.6,0.7-2.6-2-6-1.1c2,3.4,4.8,6.1,8.7,6.6c-0.2,1.1-0.1,1.3,0.9,0.6c1.1-0.9,2.1-0.8,2.3,0.4
		c0.2,1.6,0,1.7,0.3,1.7c1.5,0,3-0.2,4.3,0c0,0.5,0,0.9-0.3,1.4c-0.5,0.8-0.4,1.6,0.3,2.5c0.5,0.6,2.1,1.2,2.3,1.9
		c0.2,1-0.6,2.1,1,3.1c0.5,0.3-0.6,0.8,1.3,1.1c-0.7,0.2-5.5,0-1.7,0.6c-1.6,0.3-2.1,0.6,0.3,0.9c0.5,0.1,1.8,0.3,0.6,0.5
		c-1-0.1-0.2-0.3-0.6-0.5c-2.1-0.1-1.5,0.3-1.7,0.5c-0.2,0.2,0.4,0.4-1,0.4c-1.1,0-2.8,0-2,0.3c0.4,0.2,0.7,0.5,2.6,0.5
		c1.7,0,1.7,0.1,0.8,0.5l0,0c0,0-0.1,0-0.1,0c0,0,0.1,0,0.1,0c0.6,0.3,1,0.7,0.1,0.9c-2.6,0.7,0.2,1.4,0.3,2
		c1.4,0.2,1.2-0.2,1.9-0.3c0.8,0.3,0,0.6-0.7,0.9c-0.6-0.1,0-0.3-1.2-0.3c-0.3,0.1-0.5,0.1-0.8,0.2c0.2-0.1,0.5-0.1,0.7-0.2
		c0-0.1,0-0.2,0-0.3c-1.5,0-2.3-0.6-2.8-0.4c-1.5,0.6-2.8,1.3,0.8,1.8c-1,0.2,2.4,0.6-1.1,0.7c-1.9,0.1-1.1,0.6-0.8,0.8
		c0.9,0.7,1.2-0.1,1.6,0c2.4,0.3,1.2,0.9,2.5,1.3c0.9,0.3-1.9,0.3-3,0.4c0.2-0.2,0.4-0.4-0.6-0.6c-1.2,0.4-1.7,0.8-0.6,1.4
		c0.9-0.3,2.9-0.1,3.6-0.4c0.8-0.4,1.6-0.1,2.4,0c0,0,0,0,0,0c-0.8,0-1.6,0-2.4,0c0,0.2,1,0.4,0.2,0.6c0,0,0,0,0,0
		c-0.2,0-0.5-0.1-0.8,0c0,0,0.2,0.1,0.4,0.1c-1.7,0.2-3.6,0.3-1.3,0.8c0,0,0,0,0,0c0.5,1-2-0.4-2.3,0.1c-0.1,0.4,0.2,0.7,0.3,1.1
		c0.2,0.7,1.8,1.4,1.5,2.1h0c-0.2,0.1,0,0.1,0.5,0.1c1.2,0.3,0.3,0.6,0.7,0.9l0,0c-2.8,1,0.2,2,0.6,2.9c0.1,0.3-0.1,0.7,2.2,0.9
		c-3.3,0.3-0.8,0.8-0.7,1.2c-0.4,0-0.8,0-1.3,0c0,0,0,0,0,0c-0.4,0-0.5,0-0.3,0.1c0.1,0.1,0.1,0.2,0.2,0.3c0.7,0.1,1.2,0.3,2.2,0.2
		c0.9-0.1-0.5-0.3-0.4-0.5c0.5,0,0.9,0,1.4,0c0.5,0.7-1.9,1-4.6,1.2c0,0,0,0,0,0c-0.5-0.1-1.2-0.2-1.7,0c-0.5,0.2,0.1,0.3,0.8,0.4
		c0,0,0,0,0,0l0,0c-0.6,0.1-2.1,0.1-1.7,0.4c0.3,0.2,1,0.2,1.8,0.2c0,0,0.1,0,0.2-0.1c0.1,0,0.3,0,0.3,0c1.4,0.2,1.6,0.5,1.5,0.9
		c-0.1,0.5-2.1,1.1,1.2,1.6c0.4,0.1,0.6,0.3-0.6,0.5c-2,0.2-1.4,0.4-0.6,0.7c0.7,0.2,1.4,0.5,2.3,0.8c-2.8-0.2-3.2,0.1-2,0.4
		c1.3,0.4,1.7,0.6-0.7,0.9c-1.5,0.2-1.6,0.5,0.8,0.5c0.8-0.5,1.7-0.1,2.6,0c-0.9,0.2-1.8,0-2.6,0c-0.2,0.3,0.2,0.5,0.3,0.8
		c0.1,0.7,3.9,1,3.5,1.7c-0.5-0.1-1.1-0.3-1.7-0.1c-0.7,0.2,0.5,0.2,1.2,0.3c0.4,0.3,0.5,0.5,0.2,0.7c-13.8,1.2-22.6-0.2-28.7-3.3
		c-7.5,2.3-14.8,4.7-25.6,5.4l-2.5,0.9c-4.7,2-11.2,4.1-11.3,6l-16.8,4.1l0,0l-3.3,0.2l1.5,0.4c0,0.1-0.1,0.3-0.3,0.4
		c-11.6,2.8-25.2,5.3-37.8,7.9c-0.1-0.1-0.3-0.3-0.5-0.4c-1.8-1-1-2.1-1-3.1c-0.1-1.9-0.5-3.7-0.7-5.6c0-0.2-0.9-0.5,1-0.6h0
		c0.3,0.1-0.2,0.4,0.9,0.3c0.7-0.1,0.1-0.3-0.4-0.4c-1.4-0.9-2.3-1.7-2-2.7c0.3-1.5,0.2-3,0.1-4.4c-0.1-0.8-0.9-1.7-0.5-2.5
		c1.8-3,0-6,0.9-9.1c0.3-1,0-2.1,0.8-3.1c1.9-2.5,0.5-4.9,0.8-7.4c0.1-0.6,0.1-1.2,0.1-1.9c0.2,0,0.3-0.2,0.1-0.8
		c0-0.2-0.2-0.4-0.3-0.6c-0.2-1.2-0.5-2.4-1-3.6c0.9-0.1,2.5,1.7,3.6,1.1c-0.9-1-1.6-1.5-2.2-1.7c0.9-0.4,1.7-0.8,2.5-1.2
		c-0.3,0.2-0.5,0.5-0.5,1.3c0,0.1,0.4,0.8,0.6,0.8c0.9,0.2,1.3-0.6,1.1-2.6c-0.4,0.2-0.9,0.2-1.2,0.4c3.8-1.9,7.2-4.5,10.1-7.6
		c-0.2,0.5-0.4,1-0.6,1.4c-0.6,1.2-1.3,2.4-2.4,3.1c-1.3,0.8-3.3,0.4-4.2,1.6c-0.2,0.3-0.7,0.5,0,1.5c0.5,0.7,1.4,2,1.8,1.6
		c0.8-1.1,2.8-0.7,3.2-2.5c0.1-0.7,0.6-0.9,1.4-0.9c1.5,0,2.5-0.7,3.2-1.7c0.6-1.1,0.9-2.4,1.1-3.5c0.2-1.7,1.6-2.7,1.2-4.6
		c-0.1-0.5,1,0,1.8,0.4c-0.2,0.9-0.2,2.2,1.5,3.2c1.6,0.9,2.8,0,2.2-1.3c-0.8-1.7-0.1-2.5,0.4-3.5c0.6-0.9,1.1-1.9,0.1-3.4
		c-0.1-0.1,0.7-0.1,1.1-0.2c1.2,0.9,0.2,2.1,2.2,2.6c1.9,0.4,1.2-1.1,1.5-1.9c0.4-1.1,0.6-2.2,0.8-3.3c0.2-1.1,0.5-2.2,1.2-3.3
		c0.9-1.4,1.4-3.1,1.6-4.8c0-1.7-0.4-3.5-1.6-5.1c-0.7-0.9-1.2-1.9,0.6-2.9c0.8-0.5,0.5-1,0.6-1.5c0.3-1.2-0.5-2.4-0.8-3.6
		c-0.3-1.2-0.3-2.3,1.6-4c0.1-0.1,0-0.3-0.2-0.4c-2.4-0.9-2.5-3.1-5.3-3.6c-2.3-0.4-3.5-2.2-1.7-4.3c2-2.4,1.6-3.7,0.7-4.9
		c-2.6-3.4-5.1-7-8.4-9.7c-0.9-0.9-2-1.6-3-2.4c-1-0.8-2.1-1.5-3.3-2.1c-2.3-1.2-5-1.6-7.8-0.7c-0.5,0.2-0.7-0.2-0.7-0.8
		c-0.2-2.9-2.1-2.8-3.7-2.6c-0.8,0.1-1.7,0.5-2.3,0.1c-1.9-1.3-4.3-1.3-6.3-0.6c-1.4,0.6-2.8,0.8-4.2,1.2c-1.3,0.4-2.7,0.8-3.9,1.4
		c-1.2,0.6-2.3,1.8-3.9,0.4l0,0c0.2-0.7,1-0.5,0.9-2.6c-0.5,1-1.9-0.5-1.2,2.3c-1,0.5-1.5,2.2-2.2,3.3c-0.7,1.1-1.4,1.8-3.1,0.2
		c-2.5-3.5-4-3.4-4.5,0c-0.8-1.8-1.1-1.5-1.4-0.5c-0.2,0.8,0.1,2.5-0.8,2c-2.3-1.3-2.4,1.1-3.2,2c-0.8,0.9-2,1.1-1.3,3.3
		c0.1,0.3-0.6,0.2-1,0.3l0-0.1v0l-0.1-0.1l0.1,0.1c0,0.4,0.1,0.9,0,1.2c-0.4,1-1.2,1.3-3.2,0.2c0.6,1.8,0.9,3.3-0.4,3.7l-0.6-0.2
		c-0.3-0.1,0.6,1.4-0.5,0.2c-1.9-2.2,0.1-2.8-0.6-4.9c-1.6,0.3-1.7,1.7-1.6,3.1c0.1,1.4,0.5,2.9-0.3,3.6c-1.4-1.3,0-1.7-1.1-2.9
		c-1.5,0.4-1.5,1.6-1,3c0.6,2,1,3.6-0.3,4.7c-1.4,1.3-2.3,2.9-2.9,4.7c-0.1-0.1-0.3-0.3-0.4-0.5c-0.3,0.1-0.5,0.1-0.7,0.1
		c-0.2,0.3,0,0.6,0.5,0.7c0.2,0,0.4,0,0.5-0.1c-0.3,0.8-0.7,1.5-1.1,2.3c-1.7,3.4-1.2,7.5-0.9,11.2l0,0c-0.6,0.2-0.6,0.5,0,0.7
		c0,0.5,0.3,1-0.3,1.6c-0.9,0.8-1,2,0.2,2.5c3.8,1.4,2.8,3.4,3.4,5.3c0.3,1.1,0.2,2.4,0.6,3.5c0.4,1.1,0.9,2.2,2.5,2.7
		c1-0.9,1.4-1,1.7-0.9c0.1,0.2,0.2,0.4,0.3,0.6c-1.1,0.6-0.7-0.8-2,0.2c-0.4,1-0.6,2.1-0.4,3c0.2,0.8,0.8,1.4,1.8,1.4
		c1.8,0,2.2,0.8,2.5,1.7c0.3,0.9,0.3,2,1.3,2.4c2.9,1.1,4.1,3.9,6.4,5.6c-2.6,0.7-2.6-2-6-1.1c2,3.4,4.8,6.1,8.7,6.6
		c-0.2,1.1-0.1,1.3,0.9,0.6c1.1-0.9,2.1-0.8,2.3,0.4c0.2,1.6,0,1.7,0.3,1.7c1.5,0,3-0.2,4.3,0c0,0.5,0,0.9-0.3,1.4
		c-0.5,0.8-0.4,1.6,0.3,2.5c0.5,0.6,2.1,1.2,2.3,1.9c0.2,1-0.6,2.1,1,3.1c0.5,0.3-0.6,0.8,1.3,1.1c-0.7,0.2-5.5,0-1.7,0.6
		c-1.6,0.3-2.1,0.6,0.3,0.9c0.5,0.1,1.8,0.3,0.6,0.5c-1-0.1-0.2-0.3-0.6-0.5c-2.1-0.1-1.5,0.3-1.7,0.5c-0.2,0.2,0.4,0.4-1,0.4
		c-1.1,0-2.8,0-2,0.3c0.4,0.2,0.7,0.5,2.6,0.5c1.7,0,1.7,0.1,0.8,0.5l0,0c0,0-0.1,0-0.1,0c0,0,0.1,0,0.1,0c0.6,0.3,1,0.7,0.1,0.9
		c-2.6,0.7,0.2,1.4,0.3,2c1.4,0.2,1.2-0.2,1.9-0.3c0.8,0.3,0,0.6-0.7,0.9c-0.6-0.1,0-0.3-1.2-0.3c-0.3,0.1-0.5,0.1-0.8,0.2
		c0.2-0.1,0.5-0.1,0.7-0.2c0-0.1,0-0.2,0-0.3c-1.5,0-2.3-0.6-2.8-0.4c-1.5,0.6-2.8,1.3,0.8,1.8c-1,0.2,2.4,0.6-1.1,0.7
		c-1.9,0.1-1.1,0.6-0.8,0.8c0.9,0.7,1.2-0.1,1.6,0c2.4,0.3,1.2,0.9,2.5,1.3c0.9,0.3-1.9,0.3-3,0.4c0.2-0.2,0.4-0.4-0.6-0.6
		c-1.2,0.4-1.7,0.8-0.6,1.4c0.9-0.3,2.9-0.1,3.6-0.4c0.8-0.4,1.6-0.1,2.4,0l0,0c-0.8,0-1.6,0-2.4,0c0,0.2,1,0.4,0.2,0.6l0,0
		c-0.2,0-0.5-0.1-0.8,0c0,0,0.2,0.1,0.4,0.1c-1.7,0.2-3.6,0.3-1.3,0.8c0,0,0,0,0,0c0.5,1-2-0.4-2.3,0.1c-0.1,0.4,0.2,0.7,0.3,1.1
		c0.2,0.7,1.8,1.4,1.5,2.1h0c-0.2,0.1,0,0.1,0.5,0.1c1.2,0.3,0.3,0.6,0.7,0.9l0,0c-2.8,1,0.2,2,0.6,2.9c0.1,0.3-0.1,0.7,2.2,0.9
		c-3.3,0.3-0.8,0.8-0.7,1.2c-0.4,0-0.8,0-1.3,0c0,0,0,0,0,0c-0.4,0-0.5,0-0.3,0.1c0.1,0.1,0.1,0.2,0.2,0.3c0.7,0.1,1.2,0.3,2.2,0.2
		c0.9-0.1-0.5-0.3-0.4-0.5c0.5,0,0.9,0,1.4,0c0.5,0.7-1.9,1-4.6,1.2c0,0,0,0,0,0c-0.5-0.1-1.2-0.2-1.7,0c-0.5,0.2,0.1,0.3,0.8,0.4
		c0,0,0,0,0,0l0,0c-0.6,0.1-2.1,0.1-1.7,0.4c0.3,0.2,1,0.2,1.8,0.2c0,0,0.1,0,0.2-0.1c0.1,0,0.3,0,0.3,0c1.4,0.2,1.6,0.5,1.5,0.9
		c-0.1,0.5-2.1,1.1,1.2,1.6c0.4,0.1,0.6,0.3-0.6,0.5c-2,0.2-1.4,0.4-0.6,0.7c0.7,0.2,1.4,0.5,2.3,0.8c-2.8-0.2-3.2,0.1-2,0.4
		c1.3,0.4,1.7,0.6-0.7,0.9c-1.5,0.2-1.6,0.5,0.8,0.5c0.8-0.5,1.7-0.1,2.6,0c-0.9,0.2-1.8,0-2.6,0c-0.2,0.3,0.2,0.5,0.3,0.8
		c0.1,0.7,3.9,1,3.5,1.7c-0.5-0.1-1.1-0.3-1.7-0.1c-0.7,0.2,0.5,0.2,1.2,0.3c1.4,0.9-1.1,1.4-6.1,1.7c1.1,0.3,2.3,0.5,1.6,0.9
		c0.2,0,0.3,0.1,0.5,0.1c1.2,0.2,2.2,0.4,3.9,0.4c0.1,0,0.1,0,0.2,0.1c-4.5,1.3-8.4,2.7-11.5,4.3c-0.7-0.6-1.4-0.3-2.3,1.2
		c-0.9,0.6-1.8,1.2-2.5,1.8c0.6,0,1.2,0,1.7-0.1c0,0.1-0.1,0.1-0.1,0.2c-4.5,12.8-5.8,7.3-8,2.5c-1.7,16-2.3,35.3-5.9,41.9
		c-4.8,8.9-6,21.9-8.3,35.2c-1,5.8-1.4,12.5-3,17.4c-9.5,28.8-14,63.2-17.4,99.4c-2.6,27.5-6.5,55.3-10.2,83.3
		c-0.8,6-1.7,11.9-2.6,17.9c-1,6.5-2.1,13-3.1,19.6l1.9,15.3c0.6,4.6,1.2,9.1,1.9,13.6c1.4,9.1,3,18.1,5.1,27.1
		c3.4,14.7,3.5,21.8,3,33.4c-0.1,2.5,0.4,7.1,0.9,10.6c6,39.8,11.4,79.6,15.6,119.3l0-0.1c0.1,28,7.8,56.3,11.3,84.4
		c0.6,4.3,1.3,8.9,1.9,12.5c0.5,3.9,0.7,6.9,0.1,8.2c-0.7,1.4-0.9,3.8-0.7,6.9c4.6,1,12.5,1.7,20.1,2c1.6,0.1,3.2,0.2,4.9,0.3
		l1.2,0.1l0.8,0l1.3,0.1c1,0,2,0.1,2.9,0.2c0.1,0.7,0.2,1.4,0.3,2.1c0,0.2,0.9,0.5-1,0.6c-0.3-0.1,0.2-0.4-0.9-0.3
		c-0.7,0.1-0.1,0.3,0.4,0.4c1.4,0.9,2.3,1.7,2,2.7c-0.3,1.5-0.2,3-0.1,4.4c0.1,0.8,0.9,1.7,0.5,2.5c-1.8,3,0,6-0.9,9.1
		c-0.3,1,0,2.1-0.8,3.1c-1.9,2.5-0.5,4.9-0.8,7.4c-0.1,0.6-0.1,1.2-0.1,1.9c-0.2,0-0.3,0.2-0.1,0.8c0,0.2,0.2,0.4,0.3,0.6
		c0.2,1.2,0.5,2.4,1,3.6c-0.9,0.1-2.5-1.7-3.6-1.1c0.9,1,1.6,1.5,2.2,1.7c-0.9,0.4-1.7,0.8-2.5,1.2c0.3-0.2,0.5-0.5,0.5-1.3
		c0-0.1-0.4-0.8-0.6-0.8c-0.9-0.2-1.3,0.6-1.1,2.6c0.4-0.2,0.9-0.2,1.2-0.4c-3.8,1.9-7.2,4.5-10.1,7.6c0.2-0.5,0.4-1,0.6-1.4
		c0.6-1.2,1.3-2.4,2.4-3.1c1.3-0.8,3.3-0.4,4.2-1.6c0.2-0.3,0.7-0.5,0-1.5c-0.5-0.7-1.4-2-1.8-1.6c-0.8,1.1-2.8,0.7-3.2,2.5
		c-0.1,0.7-0.6,0.9-1.4,0.9c-1.5,0-2.5,0.7-3.2,1.7c-0.6,1.1-0.9,2.4-1.1,3.5c-0.2,1.7-1.6,2.7-1.2,4.6c0.1,0.5-1,0-1.8-0.4
		c0.2-0.9,0.2-2.2-1.5-3.2c-1.6-0.9-2.8,0-2.2,1.3c0.8,1.7,0.1,2.5-0.4,3.5c-0.6,0.9-1.1,1.9-0.1,3.4c0.1,0.1-0.7,0.1-1.1,0.2
		c-1.2-0.9-0.2-2.1-2.2-2.6c-1.9-0.4-1.2,1.1-1.5,1.9c-0.4,1.1-0.6,2.2-0.8,3.3c-0.2,1.1-0.5,2.2-1.2,3.3c-0.9,1.4-1.4,3.1-1.6,4.8
		c0,1.7,0.4,3.5,1.6,5.1c0.7,0.9,1.2,1.9-0.6,2.9c-0.8,0.5-0.5,1-0.6,1.5c-0.3,1.2,0.5,2.4,0.8,3.6c0.3,1.2,0.3,2.3-1.6,4
		c-0.1,0.1,0,0.3,0.2,0.4c2.4,0.9,2.5,3.1,5.3,3.6c2.3,0.4,3.5,2.2,1.7,4.3c-2,2.4-1.6,3.7-0.7,4.9c2.6,3.4,5.1,7,8.4,9.7
		c0.9,0.9,2,1.6,3,2.4c1,0.8,2.1,1.5,3.3,2.1c2.3,1.2,5,1.6,7.8,0.7c0.5-0.2,0.7,0.2,0.7,0.8c0.2,2.9,2.1,2.8,3.7,2.6
		c0.8-0.1,1.7-0.5,2.3-0.1c1.9,1.3,4.3,1.3,6.3,0.6c1.4-0.6,2.8-0.8,4.2-1.2c1.3-0.4,2.7-0.8,3.9-1.4c1.2-0.6,2.3-1.8,3.9-0.4l0,0
		c-0.2,0.7-1,0.5-0.9,2.6c0.5-1,1.9,0.5,1.2-2.3c1-0.5,1.5-2.2,2.2-3.3c0.7-1.1,1.4-1.8,3.1-0.2c2.5,3.5,4,3.4,4.5,0
		c0.8,1.8,1.1,1.5,1.4,0.5c0.2-0.8-0.1-2.5,0.8-2c2.3,1.3,2.4-1.1,3.2-2c0.8-0.9,2-1.1,1.3-3.3c-0.1-0.3,0.6-0.2,1-0.3l0,0.1v0
		l0.1,0.1l-0.1-0.1c0-0.4-0.1-0.9,0-1.2c0.4-1,1.2-1.3,3.2-0.2c-0.6-1.8-0.9-3.3,0.4-3.7l0.6,0.2c0.3,0.1-0.6-1.4,0.5-0.2
		c1.9,2.2-0.1,2.8,0.6,4.9c1.6-0.3,1.7-1.7,1.6-3.1c-0.1-1.4-0.5-2.9,0.3-3.6c1.4,1.3,0,1.7,1.1,2.9c1.5-0.4,1.5-1.6,1-3
		c-0.6-2-1-3.6,0.3-4.7c1.4-1.3,2.3-2.9,2.9-4.7c0.1,0.1,0.3,0.3,0.4,0.5c0.3-0.1,0.5-0.1,0.7-0.1c0.2-0.3,0-0.6-0.5-0.7
		c-0.2,0-0.4,0-0.5,0.1c0.3-0.8,0.7-1.5,1.1-2.3c1.7-3.4,1.2-7.5,0.9-11.2l0,0c0.6-0.2,0.6-0.5,0-0.7c0-0.5-0.3-1,0.3-1.6
		c0.9-0.8,1-2-0.2-2.5c-3.8-1.4-2.8-3.4-3.4-5.3c-0.3-1.1-0.2-2.4-0.6-3.5c-0.4-1.1-0.9-2.2-2.5-2.7c-1,0.9-1.4,1-1.7,0.9
		c-0.1-0.2-0.2-0.4-0.3-0.6c1.1-0.6,0.7,0.8,2-0.2c0.4-1,0.6-2.1,0.4-3c-0.2-0.8-0.8-1.4-1.8-1.4c-1.8,0-2.2-0.8-2.5-1.7
		c-0.3-0.9-0.3-2-1.3-2.4c-2.9-1.1-4.1-3.9-6.4-5.6c2.6-0.7,2.6,2,6,1.1c-2-3.4-4.8-6.1-8.7-6.6c0.2-1.1,0.1-1.3-0.9-0.6
		c-1.1,0.9-2.1,0.8-2.3-0.4c-0.2-1.6,0-1.7-0.3-1.7c-1.5,0-3,0.2-4.3,0c0-0.5,0-0.9,0.3-1.4c0.5-0.8,0.4-1.6-0.3-2.5
		c-0.5-0.6-2.1-1.2-2.3-1.9c-0.2-1,0.6-2.1-1-3.1c-0.5-0.3,0.6-0.8-1.3-1.1c0.7-0.2,5.5,0,1.7-0.6c1.6-0.3,2.1-0.6-0.3-0.9
		c-0.5-0.1-1.8-0.3-0.6-0.5c1,0.1,0.2,0.3,0.6,0.5c2.1,0.1,1.5-0.3,1.7-0.5c0.2-0.2-0.4-0.4,1-0.4c1.1,0,2.8,0,2-0.3
		c-0.4-0.2-0.7-0.5-2.6-0.5c-1.7,0-1.7-0.1-0.8-0.5l0,0c0,0,0.1,0,0.1,0c0,0-0.1,0-0.1,0c-0.6-0.3-1-0.7-0.1-0.9
		c2.6-0.7-0.2-1.4-0.3-2c-1.4-0.2-1.2,0.2-1.9,0.3c-0.8-0.3,0-0.6,0.7-0.9c0.6,0.1,0,0.3,1.2,0.3c0.3-0.1,0.5-0.1,0.8-0.2
		c-0.2,0.1-0.5,0.1-0.7,0.2c0,0.1,0,0.2,0,0.3c1.5,0,2.3,0.6,2.8,0.4c1.5-0.6,2.8-1.3-0.8-1.8c1-0.2-2.4-0.6,1.1-0.7
		c1.9-0.1,1.1-0.6,0.8-0.8c-0.9-0.7-1.2,0.1-1.6,0c-2.4-0.3-1.2-0.9-2.5-1.3c-0.9-0.3,1.9-0.3,3-0.4c-0.2,0.2-0.4,0.4,0.6,0.6
		c1.2-0.4,1.7-0.8,0.6-1.4c-0.9,0.3-2.9,0.1-3.6,0.4c-0.8,0.4-1.6,0.1-2.4,0c0,0,0,0,0,0c0.8,0,1.6,0,2.4,0c0-0.2-1-0.4-0.2-0.6l0,0
		c0.2,0,0.5,0.1,0.8,0c0,0-0.2-0.1-0.4-0.1c1.7-0.2,3.6-0.3,1.3-0.8c0,0,0,0,0,0c-0.5-1,2,0.4,2.3-0.1c0.1-0.4-0.2-0.7-0.3-1.1
		c-0.2-0.7-1.8-1.4-1.5-2.1h0c0.2-0.1,0-0.1-0.5-0.1c-1.2-0.3-0.3-0.6-0.7-0.9l0,0c2.8-1-0.2-2-0.6-2.9c-0.1-0.3,0.1-0.7-2.2-0.9
		c0.9-0.1,1.3-0.2,1.5-0.3c28.5,4.1,56.5,4.2,85.5,10.7c3.1,0.7,8.8,0.8,12.7,0.9c7.8,0.1,15.5,0.2,23.2,0.3c0,0.3,0.2,0.6,0.8,0.9
		c0.3,0.2,0.5,0.3,0.7,0.5c-1.7,0.1-2.2,0.4,0.5,1.4c0,0.4-0.2,0.8-0.1,1.2c0.1,1.9,0.5,3.7,0.7,5.6c0,0.2,0.9,0.5-1,0.6h0
		c-0.3-0.1,0.2-0.4-0.9-0.3c-0.7,0.1-0.1,0.3,0.4,0.4c1.4,0.9,2.3,1.7,2,2.7c-0.3,1.5-0.2,3-0.1,4.4c0.1,0.8,0.9,1.7,0.5,2.5
		c-1.8,3,0,6-0.9,9.1c-0.3,1,0,2.1-0.8,3.1c-1.9,2.5-0.5,4.9-0.8,7.4c-0.1,0.6-0.1,1.2-0.1,1.9c-0.2,0-0.3,0.2-0.1,0.8
		c0,0.2,0.2,0.4,0.3,0.6c0.2,1.2,0.5,2.4,1,3.6c-0.9,0.1-2.5-1.7-3.6-1.1c0.9,1,1.6,1.5,2.2,1.7c-0.9,0.4-1.7,0.8-2.5,1.2
		c0.3-0.2,0.5-0.5,0.5-1.3c0-0.1-0.4-0.8-0.6-0.8c-0.9-0.2-1.3,0.6-1.1,2.6c0.4-0.2,0.9-0.2,1.2-0.4c-3.8,1.9-7.2,4.5-10.1,7.6
		c0.2-0.5,0.4-1,0.6-1.4c0.6-1.2,1.3-2.4,2.4-3.1c1.3-0.8,3.3-0.4,4.2-1.6c0.2-0.3,0.7-0.5,0-1.5c-0.5-0.7-1.4-2-1.8-1.6
		c-0.8,1.1-2.8,0.7-3.2,2.5c-0.1,0.7-0.6,0.9-1.4,0.9c-1.5,0-2.5,0.7-3.2,1.7c-0.6,1.1-0.9,2.4-1.1,3.5c-0.2,1.7-1.6,2.7-1.2,4.6
		c0.1,0.5-1,0-1.8-0.4c0.2-0.9,0.2-2.2-1.5-3.2c-1.6-0.9-2.8,0-2.2,1.3c0.8,1.7,0.1,2.5-0.4,3.5c-0.6,0.9-1.1,1.9-0.1,3.4
		c0.1,0.1-0.7,0.1-1.1,0.2c-1.2-0.9-0.2-2.1-2.2-2.6c-1.9-0.4-1.2,1.1-1.5,1.9c-0.4,1.1-0.6,2.2-0.8,3.3c-0.2,1.1-0.5,2.2-1.2,3.3
		c-0.9,1.4-1.4,3.1-1.6,4.8c0,1.7,0.4,3.5,1.6,5.1c0.7,0.9,1.2,1.9-0.6,2.9c-0.8,0.5-0.5,1-0.6,1.5c-0.3,1.2,0.5,2.4,0.8,3.6
		c0.3,1.2,0.3,2.3-1.6,4c-0.1,0.1,0,0.3,0.2,0.4c2.4,0.9,2.5,3.1,5.3,3.6c2.3,0.4,3.5,2.2,1.7,4.3c-2,2.4-1.6,3.7-0.7,4.9
		c2.6,3.4,5.1,7,8.4,9.7c0.9,0.9,2,1.6,3,2.4c1,0.8,2.1,1.5,3.3,2.1c2.3,1.2,5,1.6,7.8,0.7c0.5-0.2,0.7,0.2,0.7,0.8
		c0.2,2.9,2.1,2.8,3.7,2.6c0.8-0.1,1.7-0.5,2.3-0.1c1.9,1.3,4.3,1.3,6.3,0.6c1.4-0.6,2.8-0.8,4.2-1.2c1.3-0.4,2.7-0.8,3.9-1.4
		c1.2-0.6,2.3-1.8,3.9-0.4l0,0c-0.2,0.7-1,0.5-0.9,2.6c0.5-1,1.9,0.5,1.2-2.3c1-0.5,1.5-2.2,2.2-3.3c0.7-1.1,1.4-1.8,3.1-0.2
		c2.5,3.5,4,3.4,4.5,0c0.8,1.8,1.1,1.5,1.4,0.5c0.2-0.8-0.1-2.5,0.8-2c2.3,1.3,2.4-1.1,3.2-2c0.8-0.9,2-1.1,1.3-3.3
		c-0.1-0.3,0.6-0.2,1-0.3l0,0.1v0l0.1,0.1l-0.1-0.1c0-0.4-0.1-0.9,0-1.2c0.4-1,1.2-1.3,3.2-0.2c-0.6-1.8-0.9-3.3,0.4-3.7l0.6,0.2
		c0.3,0.1-0.6-1.4,0.5-0.2c1.9,2.2-0.1,2.8,0.6,4.9c1.6-0.3,1.7-1.7,1.6-3.1c-0.1-1.4-0.5-2.9,0.3-3.6c1.4,1.3,0,1.7,1.1,2.9
		c1.5-0.4,1.5-1.6,1-3c-0.6-2-1-3.6,0.3-4.7c1.4-1.3,2.3-2.9,2.9-4.7c0.1,0.1,0.3,0.3,0.4,0.5c0.3-0.1,0.5-0.1,0.7-0.1
		c0.2-0.3,0-0.6-0.5-0.7c-0.2,0-0.4,0-0.5,0.1c0.3-0.8,0.7-1.5,1.1-2.3c1.7-3.4,1.2-7.5,0.9-11.2v0c0.6-0.2,0.6-0.5,0-0.7
		c0-0.5-0.3-1,0.3-1.6c0.9-0.8,1-2-0.2-2.5c-3.8-1.4-2.8-3.4-3.4-5.3c-0.3-1.1-0.2-2.4-0.6-3.5c-0.4-1.1-0.9-2.2-2.5-2.7
		c-1,0.9-1.4,1-1.7,0.9c-0.1-0.2-0.2-0.4-0.3-0.6c1.1-0.6,0.7,0.8,2-0.2c0.4-1,0.6-2.1,0.4-3c-0.2-0.8-0.8-1.4-1.8-1.4
		c-1.8,0-2.2-0.8-2.5-1.7c-0.3-0.9-0.3-2-1.3-2.4c-2.9-1.1-4.1-3.9-6.4-5.6c2.6-0.7,2.6,2,6,1.1c-2-3.4-4.8-6.1-8.7-6.6
		c0.2-1.1,0.1-1.3-0.9-0.6c-1.1,0.9-2.1,0.8-2.3-0.4c-0.2-1.6,0-1.7-0.3-1.7c-1.5,0-3,0.2-4.3,0c0-0.5,0-0.9,0.3-1.4
		c0.5-0.8,0.4-1.6-0.3-2.5c-0.5-0.6-2.1-1.2-2.3-1.9c-0.2-1,0.6-2.1-1-3.1c-0.5-0.3,0.6-0.8-1.3-1.1c0.7-0.2,5.5,0,1.7-0.6
		c1.6-0.3,2.1-0.6-0.3-0.9c-0.5-0.1-1.8-0.3-0.6-0.5c1,0.1,0.2,0.3,0.6,0.5c2.1,0.1,1.5-0.3,1.7-0.5c0.2-0.2-0.4-0.4,1-0.4
		c1.1,0,2.8,0,2-0.3c-0.4-0.2-0.7-0.5-2.6-0.5c-1.7,0-1.7-0.1-0.8-0.5l0,0c0,0,0.1,0,0.1,0c0,0-0.1,0-0.1,0c-0.6-0.3-1-0.7-0.1-0.9
		c2.6-0.7-0.2-1.4-0.3-2c-1.4-0.2-1.2,0.2-1.9,0.3c-0.8-0.3,0-0.6,0.7-0.9c0.6,0.1,0,0.3,1.2,0.3c0.3-0.1,0.5-0.1,0.8-0.2
		c-0.2,0.1-0.5,0.1-0.7,0.2c0,0.1,0,0.2,0,0.3c1.5,0,2.3,0.6,2.8,0.4c1.5-0.6,2.8-1.3-0.8-1.8c1-0.2-2.4-0.6,1.1-0.7
		c1.9-0.1,1.1-0.6,0.8-0.8c-0.9-0.7-1.2,0.1-1.6,0c-2.4-0.3-1.2-0.9-2.5-1.3c-0.9-0.3,1.9-0.3,3-0.4c-0.2,0.2-0.4,0.4,0.6,0.6
		c1.2-0.4,1.7-0.8,0.6-1.4c-0.9,0.3-2.9,0.1-3.6,0.4c-0.8,0.4-1.6,0.1-2.4,0c0,0,0,0,0,0c0.8,0,1.6,0,2.4,0c0-0.2-1-0.4-0.2-0.6l0,0
		c0.2,0,0.5,0.1,0.8,0c0,0-0.2-0.1-0.4-0.1c1.7-0.2,3.6-0.3,1.3-0.8c0,0,0,0,0,0c-0.5-1,2,0.4,2.3-0.1c0.1-0.4-0.2-0.7-0.3-1.1
		c-0.2-0.7-1.8-1.4-1.5-2.1h0c0.2-0.1,0-0.1-0.5-0.1c-1.2-0.3-0.3-0.6-0.7-0.9l0,0c2.8-1-0.2-2-0.6-2.9c-0.1-0.3,0.1-0.7-2.2-0.9
		c3.3-0.3,0.8-0.8,0.7-1.2c0.4,0,0.8,0,1.3,0c0,0,0,0,0,0c0.4,0,0.5,0,0.3-0.1c-0.1-0.1-0.1-0.2-0.2-0.3c-0.7-0.1-1.2-0.3-2.2-0.2
		c-0.9,0.1,0.5,0.3,0.4,0.5c-0.5,0-0.9,0-1.4,0c-0.5-0.7,1.9-1,4.6-1.2c0,0,0,0,0,0c0.5,0.1,1.2,0.2,1.7,0c0.5-0.2-0.1-0.3-0.8-0.4
		c0,0,0,0,0,0l0,0c0.6-0.1,2.1-0.1,1.7-0.4c-0.3-0.2-1-0.2-1.8-0.2c0,0-0.1,0-0.2,0.1c-0.1,0-0.3,0-0.3,0c-0.8-0.1-1.2-0.3-1.4-0.4
		c3.1,0.3,6.2,0.5,9.1,0.6c2,0.1,4.6,0.2,5.4,0c3.7-1.2,5.7-1,10.9,1.4c4.2,2,9.4,3.8,19.9,3.2c8.2-0.5,22.8,1.2,38.8,2.2
		c-9,0.5-17.1,0-20.3,1.1c4.9,1.4,8.6,1.8,12.2,1.9c9.1,0.4,19,1.2,28.8,2.1c4.9,0.5,9.8,1,14.6,1.4c0.4,0,0.7,0.1,1.1,0.1
		c-0.1,0.5-0.1,0.9,0.7,1.4c1.8,1,1,2.1,1,3.1c0.1,1.9,0.5,3.7,0.7,5.6c0,0.2,0.9,0.5-1,0.6c-0.3-0.1,0.2-0.4-0.9-0.3
		c-0.7,0.1-0.1,0.3,0.4,0.4c1.4,0.9,2.3,1.7,2,2.7c-0.3,1.5-0.2,3-0.1,4.5c0.1,0.8,0.9,1.7,0.5,2.5c-1.8,3,0,6-0.9,9.1
		c-0.3,1,0,2.1-0.8,3.1c-1.9,2.5-0.5,4.9-0.8,7.4c-0.1,0.6-0.1,1.2-0.1,1.9c-0.2,0-0.3,0.2-0.1,0.8c0,0.2,0.2,0.4,0.3,0.6
		c0.2,1.2,0.5,2.4,1,3.6c-0.9,0.1-2.5-1.7-3.6-1.1c0.9,1,1.6,1.5,2.2,1.7c-0.9,0.4-1.7,0.8-2.5,1.2c0.3-0.2,0.5-0.5,0.5-1.3
		c0-0.1-0.4-0.8-0.6-0.8c-0.9-0.2-1.3,0.6-1.1,2.6c0.4-0.2,0.9-0.2,1.2-0.4c-3.8,1.9-7.2,4.5-10.1,7.6c0.2-0.5,0.4-1,0.6-1.4
		c0.6-1.2,1.3-2.4,2.4-3.1c1.3-0.8,3.3-0.4,4.2-1.6c0.2-0.3,0.7-0.5,0-1.5c-0.5-0.7-1.4-2-1.8-1.6c-0.8,1.1-2.8,0.7-3.2,2.5
		c-0.1,0.7-0.6,0.9-1.4,0.9c-1.5,0-2.5,0.7-3.2,1.7c-0.6,1.1-0.9,2.4-1.1,3.5c-0.2,1.7-1.6,2.7-1.2,4.6c0.1,0.5-1,0-1.8-0.4
		c0.2-0.9,0.2-2.2-1.5-3.2c-1.6-0.9-2.8,0-2.2,1.3c0.8,1.7,0.1,2.5-0.4,3.5c-0.6,0.9-1.1,1.9-0.1,3.4c0.1,0.1-0.7,0.1-1.1,0.2
		c-1.2-0.9-0.2-2.1-2.2-2.6c-1.9-0.4-1.2,1.1-1.5,1.9c-0.4,1.1-0.6,2.2-0.8,3.3c-0.2,1.1-0.5,2.2-1.2,3.3c-0.9,1.4-1.4,3.1-1.6,4.8
		c0,1.7,0.4,3.5,1.6,5.1c0.7,0.9,1.2,1.9-0.6,2.9c-0.8,0.5-0.5,1-0.6,1.5c-0.3,1.2,0.5,2.4,0.8,3.6c0.3,1.2,0.3,2.3-1.6,4
		c-0.1,0.1,0,0.3,0.2,0.4c2.4,0.9,2.5,3.1,5.3,3.6c2.3,0.4,3.5,2.2,1.7,4.3c-2,2.4-1.6,3.7-0.7,4.9c2.6,3.4,5.1,7,8.4,9.7
		c0.9,0.9,2,1.6,3,2.4c1,0.8,2.1,1.5,3.3,2.1c2.3,1.2,5,1.6,7.8,0.7c0.5-0.2,0.7,0.2,0.7,0.8c0.2,2.9,2.1,2.8,3.7,2.6
		c0.8-0.1,1.7-0.5,2.3-0.1c1.9,1.3,4.3,1.3,6.3,0.6c1.4-0.6,2.8-0.8,4.2-1.2c1.3-0.4,2.7-0.8,3.9-1.4c1.2-0.6,2.3-1.8,3.9-0.4l0,0
		c-0.2,0.7-1,0.5-0.9,2.6c0.5-1,1.9,0.5,1.2-2.3c1-0.5,1.5-2.2,2.2-3.3c0.7-1.1,1.4-1.8,3.1-0.2c2.5,3.5,4,3.4,4.5,0
		c0.8,1.8,1.1,1.5,1.4,0.5c0.2-0.8-0.1-2.5,0.8-2c2.3,1.3,2.4-1.1,3.2-2c0.8-0.9,2-1.1,1.3-3.3c-0.1-0.3,0.6-0.2,1-0.3l0,0.1v0l0,0
		l0.1,0.1l-0.1-0.1c0-0.4-0.1-0.9,0-1.2c0.4-1,1.2-1.3,3.2-0.2c-0.6-1.8-0.9-3.3,0.4-3.7l0.6,0.2c0.3,0.1-0.6-1.4,0.5-0.2
		c1.9,2.2-0.1,2.8,0.6,4.9c1.6-0.3,1.7-1.7,1.6-3.1c-0.1-1.4-0.5-2.9,0.3-3.6c1.4,1.3,0,1.7,1.1,2.9c1.5-0.4,1.5-1.6,1-3
		c-0.6-2-1-3.6,0.3-4.7c1.4-1.3,2.3-2.9,2.9-4.7c0.1,0.1,0.3,0.3,0.4,0.5c0.3-0.1,0.5-0.1,0.7-0.1c0.2-0.3,0-0.6-0.5-0.7
		c-0.2,0-0.4,0-0.5,0.1c0.3-0.8,0.7-1.5,1.1-2.3c1.7-3.4,1.2-7.5,0.9-11.2l0,0c0.6-0.2,0.6-0.5,0-0.7c0-0.5-0.3-1,0.3-1.6
		c0.9-0.8,1-2-0.2-2.5c-3.8-1.4-2.8-3.4-3.4-5.3c-0.3-1.1-0.2-2.4-0.6-3.5c-0.4-1.1-0.9-2.2-2.5-2.7c-1,0.9-1.4,1-1.7,0.9
		c-0.1-0.2-0.2-0.4-0.3-0.6c1.1-0.6,0.7,0.8,2-0.2c0.4-1,0.6-2.1,0.4-3c-0.2-0.8-0.8-1.4-1.8-1.4c-1.8,0-2.2-0.8-2.5-1.7
		c-0.3-0.9-0.3-2-1.3-2.4c-2.9-1.1-4.1-3.9-6.4-5.6c2.6-0.7,2.6,2,6,1.1c-2-3.4-4.8-6.1-8.7-6.6c0.2-1.1,0.1-1.3-0.9-0.6
		c-1.1,0.9-2.1,0.8-2.3-0.4c-0.2-1.6,0-1.7-0.3-1.7c-1.5,0-3,0.2-4.3,0c0-0.5,0-0.9,0.3-1.4c0.5-0.8,0.4-1.6-0.3-2.5
		c-0.5-0.6-2.1-1.2-2.3-1.9c-0.2-1,0.6-2.1-1-3.1c-0.5-0.3,0.6-0.8-1.3-1.1c0.7-0.2,5.5,0,1.7-0.6c1.6-0.3,2.1-0.6-0.3-0.9
		c-0.5-0.1-1.8-0.3-0.6-0.5c1,0.1,0.2,0.3,0.6,0.5c2.1,0.1,1.5-0.3,1.7-0.5c0.2-0.2-0.4-0.4,1-0.4c1.1,0,2.8,0,2-0.3
		c-0.4-0.2-0.7-0.5-2.6-0.5c-1.7,0-1.7-0.1-0.8-0.5l0,0c0,0,0.1,0,0.1,0c0,0-0.1,0-0.1,0c-0.6-0.3-1-0.7-0.1-0.9
		c2.6-0.7-0.2-1.4-0.3-2c-1.4-0.2-1.2,0.2-1.9,0.3c-0.8-0.3,0-0.6,0.7-0.9c0.6,0.1,0,0.3,1.2,0.3c0.3-0.1,0.5-0.1,0.8-0.2
		c-0.2,0.1-0.5,0.1-0.7,0.2c0,0.1,0,0.2,0,0.3c1.5,0,2.3,0.6,2.8,0.4c1.5-0.6,2.8-1.3-0.8-1.8c1-0.2-2.4-0.6,1.1-0.7
		c1.9-0.1,1.1-0.6,0.8-0.8c-0.9-0.7-1.2,0.1-1.6,0c-2.4-0.3-1.2-0.9-2.5-1.3c-0.9-0.3,1.9-0.3,3-0.4c-0.2,0.2-0.4,0.4,0.6,0.6
		c1.2-0.4,1.7-0.8,0.6-1.4c-0.9,0.3-2.9,0.1-3.6,0.4c-0.8,0.4-1.6,0.1-2.4,0c0,0,0,0,0,0c0.8,0,1.6,0,2.4,0c0-0.2-1-0.4-0.2-0.6
		c0,0,0,0,0,0c0.2,0,0.5,0.1,0.8,0c0,0-0.2-0.1-0.4-0.1c1.7-0.2,3.6-0.3,1.3-0.8c0,0,0,0,0,0c-0.5-1,2,0.4,2.3-0.1
		c0.1-0.4-0.2-0.7-0.3-1.1c-0.2-0.7-1.8-1.4-1.5-2.1h0c0.2-0.1,0-0.1-0.5-0.1c-1.2-0.3-0.3-0.6-0.7-0.9l0,0c2.8-1-0.2-2-0.6-2.9
		c-0.1-0.3,0.1-0.7-2.2-0.9c3.3-0.3,0.8-0.8,0.7-1.2c0.4,0,0.8,0,1.3,0c0,0,0,0,0,0c0.4,0,0.5,0,0.3-0.1c-0.1-0.1-0.1-0.2-0.2-0.3
		c-0.7-0.1-1.2-0.3-2.2-0.2c-0.9,0.1,0.5,0.3,0.4,0.5c-0.5,0-0.9,0-1.4,0c-0.5-0.7,1.9-1,4.6-1.2c0,0,0,0,0,0c0.5,0.1,1.2,0.2,1.7,0
		c0.5-0.2-0.1-0.3-0.8-0.4c0,0,0,0,0,0l0,0c0.6-0.1,2.1-0.1,1.7-0.4c-0.3-0.2-1-0.2-1.8-0.2c0,0-0.1,0-0.2,0.1c-0.1,0-0.3,0-0.3,0
		c-1.4-0.2-1.6-0.5-1.5-0.9c0.1-0.5,2.1-1.1-1.2-1.6c-0.4-0.1-0.6-0.3,0.6-0.5c2-0.2,1.4-0.4,0.6-0.7c-0.7-0.2-1.4-0.5-2.3-0.8
		c2.8,0.2,3.2-0.1,2-0.4c-1.3-0.4-1.7-0.6,0.7-0.9c1.5-0.2,1.6-0.5-0.8-0.5c-0.8,0.5-1.7,0.1-2.6,0c0.9-0.2,1.8,0,2.6,0
		c0.2-0.3-0.2-0.5-0.3-0.8c0-0.2-0.6-0.4-1.2-0.6c0,0,0,0,0.1,0c22.7-3.6,45.1-7.9,67.4-11.1c16.8-2.4,4.6-6.3,19.7-6.2
		c6.6,0.1,6.8,3.2,17.9,2.8c1.3,0,2.7-0.2,4.1-0.3c-1.4,2.7,4.3,2.2,13.8,0.9c0.1,0.1,0.2,0.2,0.4,0.3c1.8,1,1,2.1,1,3.1
		c0.1,1.9,0.5,3.7,0.7,5.6c0,0.2,0.9,0.5-1,0.6c-0.3-0.1,0.2-0.4-0.9-0.3c-0.7,0.1-0.1,0.3,0.4,0.4c1.4,0.9,2.3,1.7,2,2.7
		c-0.3,1.5-0.2,3-0.1,4.4c0.1,0.8,0.9,1.7,0.5,2.5c-1.8,3,0,6-0.9,9.1c-0.3,1,0,2.1-0.8,3.1c-1.9,2.5-0.5,4.9-0.8,7.4
		c-0.1,0.6-0.1,1.2-0.1,1.9c-0.2,0-0.3,0.2-0.1,0.8c0,0.2,0.2,0.4,0.3,0.6c0.2,1.2,0.5,2.4,1,3.6c-0.9,0.1-2.5-1.7-3.6-1.1
		c0.9,1,1.6,1.5,2.2,1.7c-0.9,0.4-1.7,0.8-2.5,1.2c0.3-0.2,0.5-0.5,0.5-1.3c0-0.1-0.4-0.8-0.6-0.8c-0.9-0.2-1.3,0.6-1.1,2.6
		c0.4-0.2,0.9-0.2,1.2-0.4c-3.8,1.9-7.2,4.5-10.1,7.6c0.2-0.5,0.4-1,0.6-1.4c0.6-1.2,1.3-2.4,2.4-3.1c1.3-0.8,3.3-0.4,4.2-1.6
		c0.2-0.3,0.7-0.5,0-1.5c-0.5-0.7-1.4-2-1.8-1.6c-0.8,1.1-2.8,0.7-3.2,2.5c-0.1,0.7-0.6,0.9-1.4,0.9c-1.5,0-2.5,0.7-3.2,1.7
		c-0.6,1.1-0.9,2.4-1.1,3.5c-0.2,1.7-1.6,2.7-1.2,4.6c0.1,0.5-1,0-1.8-0.4c0.2-0.9,0.2-2.2-1.5-3.2c-1.6-0.9-2.8,0-2.2,1.3
		c0.8,1.7,0.1,2.5-0.4,3.5c-0.6,0.9-1.1,1.9-0.1,3.4c0.1,0.1-0.7,0.1-1.1,0.2c-1.2-0.9-0.2-2.1-2.2-2.6c-1.9-0.4-1.2,1.1-1.5,1.9
		c-0.4,1.1-0.6,2.2-0.8,3.3c-0.2,1.1-0.5,2.2-1.2,3.3c-0.9,1.4-1.4,3.1-1.6,4.8c0,1.7,0.4,3.5,1.6,5.1c0.7,0.9,1.2,1.9-0.6,2.9
		c-0.8,0.5-0.5,1-0.6,1.5c-0.3,1.2,0.5,2.4,0.8,3.6c0.3,1.2,0.3,2.3-1.6,4c-0.1,0.1,0,0.3,0.2,0.4c2.4,0.9,2.5,3.1,5.3,3.6
		c2.3,0.4,3.5,2.2,1.7,4.3c-2,2.4-1.6,3.7-0.7,4.9c2.6,3.4,5.1,7,8.4,9.7c0.9,0.9,2,1.6,3,2.4c1,0.8,2.1,1.5,3.3,2.1
		c2.3,1.2,5,1.6,7.8,0.7c0.5-0.2,0.7,0.2,0.7,0.8c0.2,2.9,2.1,2.8,3.7,2.6c0.8-0.1,1.7-0.5,2.3-0.1c1.9,1.3,4.3,1.3,6.3,0.6
		c1.4-0.6,2.8-0.8,4.2-1.2c1.3-0.4,2.7-0.8,3.9-1.4c1.2-0.6,2.3-1.8,3.9-0.4l0,0c-0.2,0.7-1,0.5-0.9,2.6c0.5-1,1.9,0.5,1.2-2.3
		c1-0.5,1.5-2.2,2.2-3.3c0.7-1.1,1.4-1.8,3.1-0.2c2.5,3.5,4,3.4,4.5,0c0.8,1.8,1.1,1.5,1.4,0.5c0.2-0.8-0.1-2.5,0.8-2
		c2.3,1.3,2.4-1.1,3.2-2c0.8-0.9,2-1.1,1.3-3.3c-0.1-0.3,0.6-0.2,1-0.3l0,0.1v0l0.1,0.1l-0.1-0.1c0-0.4-0.1-0.9,0-1.2
		c0.4-1,1.2-1.3,3.2-0.2c-0.6-1.8-0.9-3.3,0.4-3.7l0.6,0.2c0.3,0.1-0.6-1.4,0.5-0.2c1.9,2.2-0.1,2.8,0.6,4.9
		c1.6-0.3,1.7-1.7,1.6-3.1c-0.1-1.4-0.5-2.9,0.3-3.6c1.4,1.3,0,1.7,1.1,2.9c1.5-0.4,1.5-1.6,1-3c-0.6-2-1-3.6,0.3-4.7
		c1.4-1.3,2.3-2.9,2.9-4.7c0.1,0.1,0.3,0.3,0.4,0.5c0.3-0.1,0.5-0.1,0.7-0.1c0.2-0.3,0-0.6-0.5-0.7c-0.2,0-0.4,0-0.5,0.1
		c0.3-0.8,0.7-1.5,1.1-2.3c1.7-3.4,1.2-7.5,0.9-11.2l0,0c0.6-0.2,0.6-0.5,0-0.7c0-0.5-0.3-1,0.3-1.6c0.9-0.8,1-2-0.2-2.5
		c-3.8-1.4-2.8-3.4-3.4-5.3c-0.3-1.1-0.2-2.4-0.6-3.5c-0.4-1.1-0.9-2.2-2.5-2.7c-1,0.9-1.4,1-1.7,0.9c-0.1-0.2-0.2-0.4-0.3-0.6
		c1.1-0.6,0.7,0.8,2-0.2c0.4-1,0.6-2.1,0.4-3c-0.2-0.8-0.8-1.4-1.8-1.4c-1.8,0-2.2-0.8-2.5-1.7c-0.3-0.9-0.3-2-1.3-2.4
		c-2.9-1.1-4.1-3.9-6.4-5.6c2.6-0.7,2.6,2,6,1.1c-2-3.4-4.8-6.1-8.7-6.6c0.2-1.1,0.1-1.3-0.9-0.6c-1.1,0.9-2.1,0.8-2.3-0.4
		c-0.2-1.6,0-1.7-0.3-1.7c-1.5,0-3,0.2-4.3,0c0-0.5,0-0.9,0.3-1.4c0.5-0.8,0.4-1.6-0.3-2.5c-0.5-0.6-2.1-1.2-2.3-1.9
		c-0.2-1,0.6-2.1-1-3.1c-0.5-0.3,0.6-0.8-1.3-1.1c0.7-0.2,5.5,0,1.7-0.6c1.6-0.3,2.1-0.6-0.3-0.9c-0.5-0.1-1.8-0.3-0.6-0.5
		c1,0.1,0.2,0.3,0.6,0.5c2.1,0.1,1.5-0.3,1.7-0.5c0.2-0.2-0.4-0.4,1-0.4c1.1,0,2.8,0,2-0.3c-0.4-0.2-0.7-0.5-2.6-0.5
		c-1.7,0-1.7-0.1-0.8-0.5l0,0c0,0,0.1,0,0.1,0c0,0-0.1,0-0.1,0c-0.6-0.3-1-0.7-0.1-0.9c2.6-0.7-0.2-1.4-0.3-2
		c-1.4-0.2-1.2,0.2-1.9,0.3c-0.8-0.3,0-0.6,0.7-0.9c0.6,0.1,0,0.3,1.2,0.3c0.3-0.1,0.5-0.1,0.8-0.2c-0.2,0.1-0.5,0.1-0.7,0.2
		c0,0.1,0,0.2,0,0.3c1.5,0,2.3,0.6,2.8,0.4c1.5-0.6,2.8-1.3-0.8-1.8c1-0.2-2.4-0.6,1.1-0.7c1.9-0.1,1.1-0.6,0.8-0.8
		c-0.9-0.7-1.2,0.1-1.6,0c-2.4-0.3-1.2-0.9-2.5-1.3c-0.9-0.3,1.9-0.3,3-0.4c-0.2,0.2-0.4,0.4,0.6,0.6c1.2-0.4,1.7-0.8,0.6-1.4
		c-0.9,0.3-2.9,0.1-3.6,0.4c-0.8,0.4-1.6,0.1-2.4,0c0,0,0,0,0,0c0.8,0,1.6,0,2.4,0c0-0.2-1-0.4-0.2-0.6c0,0,0,0,0,0
		c0.2,0,0.5,0.1,0.8,0c0,0-0.2-0.1-0.4-0.1c1.7-0.2,3.6-0.3,1.3-0.8c0,0,0,0,0,0c-0.5-1,2,0.4,2.3-0.1c0.1-0.4-0.2-0.7-0.3-1.1
		c-0.2-0.7-1.8-1.4-1.5-2.1h0c0.2-0.1,0-0.1-0.5-0.1c-1.2-0.3-0.3-0.6-0.7-0.9l0,0c2.8-1-0.2-2-0.6-2.9c-0.1-0.3,0.1-0.7-2.2-0.9
		c3.3-0.3,0.8-0.8,0.7-1.2c0.4,0,0.8,0,1.3,0c0,0,0,0,0,0c0.4,0,0.5,0,0.3-0.1c-0.1-0.1-0.1-0.2-0.2-0.3c-0.7-0.1-1.2-0.3-2.2-0.2
		c-0.9,0.1,0.5,0.3,0.4,0.5c-0.5,0-0.9,0-1.4,0c-0.5-0.7,1.9-1,4.6-1.2c0,0,0,0,0,0c0.5,0.1,1.2,0.2,1.7,0c0.5-0.2-0.1-0.3-0.8-0.4
		c0,0,0,0,0,0l0,0c0.6-0.1,2.1-0.1,1.7-0.4c-0.3-0.2-1-0.2-1.8-0.2c0,0-0.1,0-0.2,0.1c-0.1,0-0.3,0-0.3,0c-1.4-0.2-1.6-0.5-1.5-0.9
		c0.1-0.5,2.1-1.1-1.2-1.6c-0.4-0.1-0.6-0.3,0.6-0.5c2-0.2,1.4-0.4,0.6-0.7c-0.7-0.2-1.4-0.5-2.3-0.8c2.8,0.2,3.2-0.1,2-0.4
		c-1.3-0.4-1.7-0.6,0.7-0.9c1.5-0.2,1.6-0.5-0.8-0.5c-0.8,0.5-1.7,0.1-2.6,0c0.9-0.2,1.8,0,2.6,0c0.2-0.3-0.2-0.5-0.3-0.8
		c-0.1-0.7-3.9-1-3.5-1.7c0.5,0.1,1.1,0.3,1.7,0.1c0.7-0.2-0.5-0.2-1.2-0.3c-1.4-0.9,1.1-1.4,6.1-1.7c-0.2-0.1-0.5-0.1-0.7-0.2
		c13.9-2,27.8-3.9,41.5-5.4c24.3-2.7,47.6-6.1,71.6-10.2c2.6-0.4,5.1-0.9,7.6-1.4c0,0.3-0.1,0.5-0.1,0.8c0.1,1.9,0.5,3.7,0.7,5.6
		c0,0.2,0.9,0.5-1,0.6h0c-0.3-0.1,0.2-0.4-0.9-0.3c-0.7,0.1-0.1,0.3,0.4,0.4c1.4,0.9,2.3,1.7,2,2.7c-0.3,1.5-0.2,3-0.1,4.4
		c0.1,0.8,0.9,1.7,0.5,2.5c-1.8,3,0,6-0.9,9.1c-0.3,1,0,2.1-0.8,3.1c-1.9,2.5-0.5,4.9-0.8,7.4c-0.1,0.6-0.1,1.2-0.1,1.9
		c-0.2,0-0.3,0.2-0.1,0.8c0,0.2,0.2,0.4,0.3,0.6c0.2,1.2,0.5,2.4,1,3.6c-0.9,0.1-2.5-1.7-3.6-1.1c0.9,1,1.6,1.5,2.2,1.7
		c-0.9,0.4-1.7,0.8-2.5,1.2c0.3-0.2,0.5-0.5,0.5-1.3c0-0.1-0.4-0.8-0.6-0.8c-0.9-0.2-1.3,0.6-1.1,2.6c0.4-0.2,0.9-0.2,1.2-0.4
		c-3.8,1.9-7.2,4.5-10.1,7.6c0.2-0.5,0.4-1,0.6-1.4c0.6-1.2,1.3-2.4,2.4-3.1c1.3-0.8,3.3-0.4,4.2-1.6c0.2-0.3,0.7-0.5,0-1.5
		c-0.5-0.7-1.4-2-1.8-1.6c-0.8,1.1-2.8,0.7-3.2,2.5c-0.1,0.7-0.6,0.9-1.4,0.9c-1.5,0-2.5,0.7-3.2,1.7c-0.6,1.1-0.9,2.4-1.1,3.5
		c-0.2,1.7-1.6,2.7-1.2,4.6c0.1,0.5-1,0-1.8-0.4c0.2-0.9,0.2-2.2-1.5-3.2c-1.6-0.9-2.8,0-2.2,1.3c0.8,1.7,0.1,2.5-0.4,3.5
		c-0.6,0.9-1.1,1.9-0.1,3.4c0.1,0.1-0.7,0.1-1.1,0.2c-1.2-0.9-0.2-2.1-2.2-2.6c-1.9-0.4-1.2,1.1-1.5,1.9c-0.4,1.1-0.6,2.2-0.8,3.3
		c-0.2,1.1-0.5,2.2-1.2,3.3c-0.9,1.4-1.4,3.1-1.6,4.8c0,1.7,0.4,3.5,1.6,5.1c0.7,0.9,1.2,1.9-0.6,2.9c-0.8,0.5-0.5,1-0.6,1.5
		c-0.3,1.2,0.5,2.4,0.8,3.6c0.3,1.2,0.3,2.3-1.6,4c-0.1,0.1,0,0.3,0.2,0.4c2.4,0.9,2.5,3.1,5.3,3.6c2.3,0.4,3.5,2.2,1.7,4.3
		c-2,2.4-1.6,3.7-0.7,4.9c2.6,3.4,5.1,7,8.4,9.7c0.9,0.9,2,1.6,3,2.4c1,0.8,2.1,1.5,3.3,2.1c2.3,1.2,5,1.6,7.8,0.7
		c0.5-0.2,0.7,0.2,0.7,0.8c0.2,2.9,2.1,2.8,3.7,2.6c0.8-0.1,1.7-0.5,2.3-0.1c1.9,1.3,4.3,1.3,6.3,0.6c1.4-0.6,2.8-0.8,4.2-1.2
		c1.3-0.4,2.7-0.8,3.9-1.4c1.2-0.6,2.3-1.8,3.9-0.4l0,0c-0.2,0.7-1,0.5-0.9,2.6c0.5-1,1.9,0.5,1.2-2.3c1-0.5,1.5-2.2,2.2-3.3
		c0.7-1.1,1.4-1.8,3.1-0.2c2.5,3.5,4,3.4,4.5,0c0.8,1.8,1.1,1.5,1.4,0.5c0.2-0.8-0.1-2.5,0.8-2c2.3,1.3,2.4-1.1,3.2-2
		c0.8-0.9,2-1.1,1.3-3.3c-0.1-0.3,0.6-0.2,1-0.3l0,0.1v0l0.1,0.1l-0.1-0.1c0-0.4-0.1-0.9,0-1.2c0.4-1,1.2-1.3,3.2-0.2
		c-0.6-1.8-0.9-3.3,0.4-3.7l0.6,0.2c0.3,0.1-0.6-1.4,0.5-0.2c1.9,2.2-0.1,2.8,0.6,4.9c1.6-0.3,1.7-1.7,1.6-3.1
		c-0.1-1.4-0.5-2.9,0.3-3.6c1.4,1.3,0,1.7,1.1,2.9c1.5-0.4,1.5-1.6,1-3c-0.6-2-1-3.6,0.3-4.7c1.4-1.3,2.3-2.9,2.9-4.7
		c0.1,0.1,0.3,0.3,0.4,0.5c0.3-0.1,0.5-0.1,0.7-0.1c0.2-0.3,0-0.6-0.5-0.7c-0.2,0-0.4,0-0.5,0.1c0.3-0.8,0.7-1.5,1.1-2.3
		c1.7-3.4,1.2-7.5,0.9-11.2l0,0c0.6-0.2,0.6-0.5,0-0.7c0-0.5-0.3-1,0.3-1.6c0.9-0.8,1-2-0.2-2.5c-3.8-1.4-2.8-3.4-3.4-5.3
		c-0.3-1.1-0.2-2.4-0.6-3.5c-0.4-1.1-0.9-2.2-2.5-2.7c-1,0.9-1.4,1-1.7,0.9c-0.1-0.2-0.2-0.4-0.3-0.6c1.1-0.6,0.7,0.8,2-0.2
		c0.4-1,0.6-2.1,0.4-3c-0.2-0.8-0.8-1.4-1.8-1.4c-1.8,0-2.2-0.8-2.5-1.7c-0.3-0.9-0.3-2-1.3-2.4c-2.9-1.1-4.1-3.9-6.4-5.6
		c2.6-0.7,2.6,2,6,1.1c-2-3.4-4.8-6.1-8.7-6.6c0.2-1.1,0.1-1.3-0.9-0.6c-1.1,0.9-2.1,0.8-2.3-0.4c-0.2-1.6,0-1.7-0.3-1.7
		c-1.5,0-3,0.2-4.3,0c0-0.5,0-0.9,0.3-1.4c0.5-0.8,0.4-1.6-0.3-2.5c-0.5-0.6-2.1-1.2-2.3-1.9c-0.2-1,0.6-2.1-1-3.1
		c-0.5-0.3,0.6-0.8-1.3-1.1c0.7-0.2,5.5,0,1.7-0.6c1.6-0.3,2.1-0.6-0.3-0.9c-0.5-0.1-1.8-0.3-0.6-0.5c1,0.1,0.2,0.3,0.6,0.5
		c2.1,0.1,1.5-0.3,1.7-0.5c0.2-0.2-0.4-0.4,1-0.4c1.1,0,2.8,0,2-0.3c-0.4-0.2-0.7-0.5-2.6-0.5c-1.7,0-1.7-0.1-0.8-0.5l0,0
		c0,0,0.1,0,0.1,0c0,0-0.1,0-0.1,0c-0.6-0.3-1-0.7-0.1-0.9c2.6-0.7-0.2-1.4-0.3-2c-1.4-0.2-1.2,0.2-1.9,0.3c-0.8-0.3,0-0.6,0.7-0.9
		c0.6,0.1,0,0.3,1.2,0.3c0.3-0.1,0.5-0.1,0.8-0.2c-0.2,0.1-0.5,0.1-0.7,0.2c0,0.1,0,0.2,0,0.3c1.5,0,2.3,0.6,2.8,0.4
		c1.5-0.6,2.8-1.3-0.8-1.8c1-0.2-2.4-0.6,1.1-0.7c1.9-0.1,1.1-0.6,0.8-0.8c-0.9-0.7-1.2,0.1-1.6,0c-2.4-0.3-1.2-0.9-2.5-1.3
		c-0.9-0.3,1.9-0.3,3-0.4c-0.2,0.2-0.4,0.4,0.6,0.6c1.2-0.4,1.7-0.8,0.6-1.4c-0.9,0.3-2.9,0.1-3.6,0.4c-0.8,0.4-1.6,0.1-2.4,0l0,0
		c0.8,0,1.6,0,2.4,0c0-0.2-1-0.4-0.2-0.6l0,0c0.2,0,0.5,0.1,0.8,0c0,0-0.2-0.1-0.4-0.1c1.7-0.2,3.6-0.3,1.3-0.8c0,0,0,0,0,0
		c-0.5-1,2,0.4,2.3-0.1c0.1-0.4-0.2-0.7-0.3-1.1c-0.2-0.7-1.8-1.4-1.5-2.1h0c0.2-0.1,0-0.1-0.5-0.1c-1.2-0.3-0.3-0.6-0.7-0.9l0,0
		c2.8-1-0.2-2-0.6-2.9c-0.1-0.3,0.1-0.7-2.2-0.9c3.3-0.3,0.8-0.8,0.7-1.2c0.4,0,0.8,0,1.3,0c0,0,0,0,0,0c0.4,0,0.5,0,0.3-0.1
		c-0.1-0.1-0.1-0.2-0.2-0.3c-0.7-0.1-1.2-0.3-2.2-0.2c-0.9,0.1,0.5,0.3,0.4,0.5c-0.5,0-0.9,0-1.4,0c-0.5-0.7,1.9-1,4.6-1.2
		c0,0,0,0,0,0c0.5,0.1,1.2,0.2,1.7,0c0.5-0.2-0.1-0.3-0.8-0.4c0,0,0,0,0,0l0,0c0.6-0.1,2.1-0.1,1.7-0.4c-0.3-0.2-1-0.2-1.8-0.2
		c0,0-0.1,0-0.2,0.1c-0.1,0-0.3,0-0.3,0c-1.4-0.2-1.6-0.5-1.5-0.9c0.1-0.5,2.1-1.1-1.2-1.6c-0.4-0.1-0.6-0.3,0.6-0.5
		c2-0.2,1.4-0.4,0.6-0.7c-0.7-0.2-1.4-0.5-2.3-0.8c2.8,0.2,3.2-0.1,2-0.4c-1.3-0.4-1.7-0.6,0.7-0.9c1.5-0.2,1.6-0.5-0.8-0.5
		c-0.8,0.5-1.7,0.1-2.6,0c0.9-0.2,1.8,0,2.6,0c0.2-0.3-0.2-0.5-0.3-0.8c-0.1-0.4-1.8-0.7-2.8-1.1l4.2-0.8l3.1-0.6l1.5-0.3l2.1-0.4
		c6.9-1.2,13.8-2.3,20.7-3.3c0.3-2.3,0.6-4.7,0.9-7.1c1.3-9.5,2.6-19,3.9-28.5L717,773c2.1-15.1,4-30.2,5.2-45.3
		c0.8-10.1,3.8-22.4,2.9-31.8c1.6-5.8,6.3,0.1,4.5-18.2c3.1-9.2,5-18.2,3.4-26.8c0-4.3-0.9-7.7,1.3-14.1c0.7,3.7-1,9.5-1.2,13.9
		c2.1,2.1,2.7-7.3,3.8-12.9c0.9-4.6,1.1-11.4,2.9-12.6c1.4-1,3,1.7,3.7-9.8c0.4-6.1,1.2-14.2-1-14.2c-2,0-1.8-1.8,1-14l0,0.2
		l0.2-0.4c-0.1,0-0.1,0.1-0.2,0.1c0.6-9.2,1.8-20.8,3.6-27.4c2.8-9.8,4.1-19.2,5-28.5c0.4-4.6,0.8-9.2,1.1-13.8l0.6-6.9l0.3-3.5
		l0.6-5.1c-0.2-1.5-0.4-2.9-0.7-4.4c-0.7-1.4-1-1.4-1.2-0.6c0,0.2-0.1,0.4-0.1,0.7c0,0.3,0,0.5,0,1.1c0.1,1,0.2,2.1,0.2,3.3
		c-0.3,1.3-0.5,2.6-0.8,3.8c-0.2,0.8-0.4,1.4-0.6,1.9c0-0.8,0.1-1.4,0.2-2.4c0.1-1.1,0.2-2.2,0.3-3.3c-0.2-1.4-0.4-2.8-0.7-4.2
		c-0.1-1-0.3-1.9-0.4-2.9c-0.2-1.9-0.4-3.8-0.5-5.6c-0.3-3.6-0.4-7.2-0.5-10.7c1,2.1,1.3,9.4,2.7,9.3c0.1-1.5,0.2-3,0.3-4.5
		c-0.1,1.6-0.1,3.2-0.2,4.8l1.2,9c0.2,0.1,0.5,0.3,0.8,1.1c0.3,0.9,0.7,2.2,1.1,3.8c-0.2,5-0.1,7.1-0.1,9.5c0,2.1,0.1,3.2,0.5,1.5
		c0.3-1.4,0.7-2.9,1-4.3l0.5-2.4c0.3-1.4,0.5-2.8,0.8-4.2C758.5,500.4,758.4,498.8,758.2,497.2z M707.4,76.7c0,0,0.2-0.1,0.3-0.1
		c0,0.1,0,0.3,0,0.4c0,0-0.2,0.1-0.3,0.1C707.4,76.9,707.4,76.8,707.4,76.7z M700,77.4C700,77.4,700,77.4,700,77.4
		C700,77.4,700,77.4,700,77.4C700,77.4,700,77.4,700,77.4z M700,99.8c0.1,0.2,0.1,0.4,0,0.6l-0.2-0.1C699.9,100.1,700,100,700,99.8z
		 M699.7,100.7c0.1-0.1,0.3-0.2,0.4-0.3c1.8,0.5,2.7,1.3,1.7,1.7c-1.1,0.5-1.3,1.3-2,2.2c-0.3-0.9-0.5-1.4-0.8-1.8
		C699.2,102,699.5,101.3,699.7,100.7z M697.5,105.6c0.1,0.1,0.1,0.1,0.2,0.2c0.1,0.1,0.4,0.2,0.6,0.3l0-1c1.6,0.5,1.9,1.1,1.5,1.6
		c-0.7,0.7-0.1,2-0.3,2.9l-0.7-0.5c-0.8-0.8-1.5-1.6-1.9-2.4C697,106.4,697.3,106,697.5,105.6z M631.7,101.2l0.3-0.2l0.2,1
		L631.7,101.2z M649.3,52.1c-0.5-1.8-0.2-2.3,0.3-2.5C650.4,51.4,649.7,51.4,649.3,52.1z M651,52.5c0-1.3,0.7-1.3,1.2-1.7
		C651.9,51.6,651.9,52.7,651,52.5z M657.9,139.4c0.1,0,0.2,0,0.2,0.1C658,139.5,658,139.5,657.9,139.4c-0.1,0-0.2-0.1-0.3-0.1
		C657.7,139.4,657.8,139.4,657.9,139.4z M658,142.6c-0.7-0.2-0.3-0.3,0.2-0.4C658.2,142.3,658.1,142.4,658,142.6z M562.1,54.1
		c0,0,0.2-0.1,0.3-0.1c0,0.1,0,0.3,0,0.4c0,0-0.2,0.1-0.3,0.1C562.1,54.4,562.1,54.3,562.1,54.1z M554.7,54.9
		C554.6,54.9,554.6,54.9,554.7,54.9C554.6,54.9,554.6,54.9,554.7,54.9C554.6,54.9,554.6,54.9,554.7,54.9z M554.7,77.2
		c0.1,0.2,0.1,0.4,0,0.6l-0.2-0.1C554.5,77.6,554.6,77.4,554.7,77.2z M554.3,78.1c0.1-0.1,0.3-0.2,0.4-0.3c1.8,0.5,2.7,1.3,1.7,1.7
		c-1.1,0.5-1.3,1.3-2,2.2c-0.3-0.9-0.5-1.4-0.8-1.8C553.9,79.4,554.1,78.8,554.3,78.1z M552.2,83.1c0.1,0.1,0.1,0.1,0.2,0.2
		c0.1,0.1,0.4,0.2,0.6,0.3l0-1c1.6,0.5,1.9,1.1,1.5,1.6c-0.7,0.7-0.1,2-0.3,2.9l-0.7-0.5c-0.8-0.8-1.5-1.6-1.9-2.4
		C551.7,83.9,551.9,83.5,552.2,83.1z M486.3,78.6l0.3-0.2l0.2,1L486.3,78.6z M504,29.6c-0.5-1.8-0.2-2.3,0.3-2.5
		C505.1,28.9,504.3,28.8,504,29.6z M505.7,30c0-1.3,0.7-1.3,1.2-1.7C506.6,29.1,506.5,30.2,505.7,30z M512.5,116.9
		c0.1,0,0.2,0,0.2,0.1C512.7,116.9,512.6,116.9,512.5,116.9c-0.1,0-0.2-0.1-0.3-0.1C512.3,116.8,512.4,116.9,512.5,116.9z
		 M512.7,120c-0.7-0.2-0.3-0.3,0.2-0.4C512.8,119.7,512.7,119.9,512.7,120z M416.7,32.7c0,0,0.2-0.1,0.3-0.1c0,0.1,0,0.3,0,0.4
		c0,0-0.2,0.1-0.3,0.1C416.7,33,416.7,32.8,416.7,32.7z M409.3,33.4C409.3,33.4,409.3,33.4,409.3,33.4
		C409.3,33.4,409.3,33.4,409.3,33.4C409.3,33.4,409.3,33.4,409.3,33.4z M409.3,55.8c0.1,0.2,0.1,0.4,0,0.6l-0.2-0.1
		C409.2,56.1,409.2,56,409.3,55.8z M409,56.7c0.1-0.1,0.3-0.2,0.4-0.3c1.8,0.5,2.7,1.3,1.7,1.7c-1.1,0.5-1.3,1.3-2,2.2
		c-0.3-0.9-0.5-1.4-0.8-1.8C408.5,58,408.7,57.3,409,56.7z M406.8,61.6c0.1,0.1,0.1,0.1,0.2,0.2c0.1,0.1,0.4,0.2,0.6,0.3l0-1
		c1.6,0.5,1.9,1.1,1.5,1.6c-0.7,0.7-0.1,2-0.3,2.9l-0.7-0.5c-0.8-0.8-1.5-1.6-1.9-2.4C406.3,62.4,406.6,62.1,406.8,61.6z M341,57.2
		l0.3-0.2l0.2,1L341,57.2z M358.6,8.2c-0.5-1.8-0.2-2.3,0.3-2.5C359.7,7.5,359,7.4,358.6,8.2z M360.3,8.5c0-1.3,0.7-1.3,1.2-1.7
		C361.2,7.6,361.2,8.7,360.3,8.5z M367.2,95.5c0.1,0,0.2,0,0.2,0.1C367.3,95.5,367.3,95.5,367.2,95.5c-0.1,0-0.2-0.1-0.3-0.1
		C367,95.4,367.1,95.4,367.2,95.5z M367.3,98.6c-0.7-0.2-0.3-0.3,0.2-0.4C367.4,98.3,367.4,98.4,367.3,98.6z M271.4,59.4
		c0,0,0.2-0.1,0.3-0.1c0,0.1,0,0.3,0,0.4c0,0-0.2,0.1-0.3,0.1C271.4,59.7,271.3,59.6,271.4,59.4z M263.9,60.1
		C263.9,60.2,263.9,60.2,263.9,60.1C263.9,60.2,263.9,60.1,263.9,60.1C263.9,60.1,263.9,60.1,263.9,60.1z M263.9,82.5
		c0.1,0.2,0.1,0.4,0,0.6l-0.2-0.1C263.8,82.9,263.9,82.7,263.9,82.5z M263.6,83.4c0.1-0.1,0.3-0.2,0.4-0.3c1.8,0.5,2.7,1.3,1.7,1.7
		c-1.1,0.5-1.3,1.3-2,2.2c-0.3-0.9-0.5-1.4-0.8-1.8C263.2,84.7,263.4,84.1,263.6,83.4z M261.5,88.4c0.1,0.1,0.1,0.1,0.2,0.2
		c0.1,0.1,0.4,0.2,0.6,0.3l0-1c1.6,0.5,1.9,1.1,1.5,1.6c-0.7,0.7-0.1,2-0.3,2.9l-0.7-0.5c-0.8-0.8-1.5-1.6-1.9-2.4
		C261,89.2,261.2,88.8,261.5,88.4z M195.6,83.9l0.3-0.2l0.2,1L195.6,83.9z M213.3,34.9c-0.5-1.8-0.2-2.3,0.3-2.5
		C214.4,34.2,213.6,34.1,213.3,34.9z M215,35.2c0-1.3,0.7-1.3,1.2-1.7C215.9,34.3,215.8,35.4,215,35.2z M221.8,122.2
		c0.1,0,0.2,0,0.2,0.1C222,122.2,221.9,122.2,221.8,122.2c-0.1,0-0.2-0.1-0.3-0.1C221.6,122.1,221.7,122.2,221.8,122.2z M222,125.3
		c-0.7-0.2-0.3-0.3,0.2-0.4C222.1,125,222,125.1,222,125.3z M126,84.1c0,0,0.2-0.1,0.3-0.1c0,0.1,0,0.3,0,0.4c0,0-0.2,0.1-0.3,0.1
		C126,84.3,126,84.2,126,84.1z M118.6,84.8C118.6,84.8,118.6,84.8,118.6,84.8C118.6,84.8,118.6,84.8,118.6,84.8
		C118.6,84.8,118.6,84.8,118.6,84.8z M118.6,107.2c0.1,0.2,0.1,0.4,0,0.6l-0.2-0.1C118.5,107.5,118.5,107.3,118.6,107.2z
		 M118.3,108.1c0.1-0.1,0.3-0.2,0.4-0.3c1.8,0.5,2.7,1.3,1.7,1.7c-1.1,0.5-1.3,1.3-2,2.2c-0.3-0.9-0.5-1.4-0.8-1.8
		C117.8,109.3,118,108.7,118.3,108.1z M116.1,113c0.1,0.1,0.1,0.1,0.2,0.2c0.1,0.1,0.4,0.2,0.6,0.3l0-1c1.6,0.5,1.9,1.1,1.5,1.6
		c-0.7,0.7-0.1,2-0.3,2.9l-0.7-0.5c-0.8-0.8-1.5-1.6-1.9-2.4C115.6,113.8,115.9,113.4,116.1,113z M50.3,108.5l0.3-0.2l0.2,1
		L50.3,108.5z M67.9,59.5c-0.5-1.8-0.2-2.3,0.3-2.5C69,58.8,68.2,58.8,67.9,59.5z M69.6,59.9c0-1.3,0.7-1.3,1.2-1.7
		C70.5,59,70.5,60.1,69.6,59.9z M76.5,146.8c0.1,0,0.2,0,0.2,0.1C76.6,146.9,76.5,146.9,76.5,146.8c-0.1,0-0.2-0.1-0.3-0.1
		C76.3,146.8,76.4,146.8,76.5,146.8z M76.6,149.9c-0.7-0.2-0.3-0.3,0.2-0.4C76.7,149.6,76.7,149.8,76.6,149.9z M47.3,923.3
		c0,0-0.2,0.1-0.3,0.1c0-0.1,0-0.3,0-0.4c0,0,0.2-0.1,0.3-0.1C47.3,923.1,47.3,923.2,47.3,923.3z M54.7,922.6
		C54.7,922.6,54.7,922.6,54.7,922.6C54.7,922.6,54.8,922.6,54.7,922.6C54.7,922.6,54.7,922.6,54.7,922.6z M54.7,900.2
		c-0.1-0.2-0.1-0.4,0-0.6l0.2,0.1C54.9,899.9,54.8,900,54.7,900.2z M55.1,899.3c-0.1,0.1-0.3,0.2-0.4,0.3c-1.8-0.5-2.7-1.3-1.7-1.7
		c1.1-0.5,1.3-1.3,2-2.2c0.3,0.9,0.5,1.4,0.8,1.8C55.5,898,55.3,898.7,55.1,899.3z M57.2,894.4c-0.1-0.1-0.1-0.1-0.2-0.2
		c-0.1-0.1-0.4-0.2-0.6-0.3l0,1c-1.6-0.5-1.9-1.1-1.5-1.6c0.7-0.7,0.1-2,0.3-2.9l0.7,0.5c0.8,0.8,1.5,1.6,1.9,2.4
		C57.7,893.6,57.5,894,57.2,894.4z M123.1,898.8l-0.3,0.2l-0.2-1L123.1,898.8z M105.4,947.9c0.5,1.8,0.2,2.3-0.3,2.5
		C104.3,948.6,105.1,948.6,105.4,947.9z M103.7,947.5c0,1.3-0.7,1.3-1.2,1.7C102.8,948.4,102.9,947.3,103.7,947.5z M96.8,860.6
		c-0.1,0-0.2,0-0.2-0.1C96.7,860.5,96.8,860.5,96.8,860.6c0.1,0,0.2,0.1,0.3,0.1C97.1,860.6,96.9,860.6,96.8,860.6z M96.7,857.4
		c0.7,0.2,0.3,0.3-0.2,0.4C96.6,857.7,96.6,857.6,96.7,857.4z M192.7,945.9c0,0-0.2,0.1-0.3,0.1c0-0.1,0-0.3,0-0.4
		c0,0,0.2-0.1,0.3-0.1C192.7,945.6,192.7,945.7,192.7,945.9z M200.1,945.1C200.1,945.1,200.1,945.1,200.1,945.1
		C200.1,945.1,200.1,945.1,200.1,945.1C200.1,945.1,200.1,945.1,200.1,945.1z M200.1,922.8c-0.1-0.2-0.1-0.4,0-0.6l0.2,0.1
		C200.2,922.4,200.1,922.6,200.1,922.8z M200.4,921.9c-0.1,0.1-0.3,0.2-0.4,0.3c-1.8-0.5-2.7-1.3-1.7-1.7c1.1-0.5,1.3-1.3,2-2.2
		c0.3,0.9,0.5,1.4,0.8,1.8C200.8,920.6,200.6,921.2,200.4,921.9z M202.6,916.9c-0.1-0.1-0.1-0.1-0.2-0.2c-0.1-0.1-0.4-0.2-0.6-0.3
		l0,1c-1.6-0.5-1.9-1.1-1.5-1.6c0.7-0.7,0.1-2,0.3-2.9l0.7,0.5c0.8,0.8,1.5,1.6,1.9,2.4C203.1,916.1,202.8,916.5,202.6,916.9z
		 M268.4,921.4l-0.3,0.2l-0.2-1L268.4,921.4z M250.8,970.4c0.5,1.8,0.2,2.3-0.3,2.5C249.7,971.1,250.4,971.2,250.8,970.4z
		 M249.1,970c0,1.3-0.7,1.3-1.2,1.7C248.2,970.9,248.2,969.8,249.1,970z M242.2,883.1c-0.1,0-0.2,0-0.2-0.1
		C242.1,883.1,242.1,883.1,242.2,883.1c0.1,0,0.2,0.1,0.3,0.1C242.4,883.2,242.3,883.1,242.2,883.1z M242.1,880
		c0.7,0.2,0.3,0.3-0.2,0.4C241.9,880.3,242,880.1,242.1,880z M338,967.3c0,0-0.2,0.1-0.3,0.1c0-0.1,0-0.3,0-0.4c0,0,0.2-0.1,0.3-0.1
		C338,967,338,967.2,338,967.3z M345.4,966.6C345.4,966.6,345.4,966.6,345.4,966.6C345.5,966.6,345.5,966.6,345.4,966.6
		C345.5,966.6,345.4,966.6,345.4,966.6z M345.4,944.2c-0.1-0.2-0.1-0.4,0-0.6l0.2,0.1C345.6,943.9,345.5,944,345.4,944.2z
		 M345.8,943.3c-0.1,0.1-0.3,0.2-0.4,0.3c-1.8-0.5-2.7-1.3-1.7-1.7c1.1-0.5,1.3-1.3,2-2.2c0.3,0.9,0.5,1.4,0.8,1.8
		C346.2,942,346,942.7,345.8,943.3z M347.9,938.4c-0.1-0.1-0.1-0.1-0.2-0.2c-0.1-0.1-0.4-0.2-0.6-0.3l0,1c-1.6-0.5-1.9-1.1-1.5-1.6
		c0.7-0.7,0.1-2,0.3-2.9l0.7,0.5c0.8,0.8,1.5,1.6,1.9,2.4C348.4,937.6,348.2,937.9,347.9,938.4z M413.8,942.8l-0.3,0.2l-0.2-1
		L413.8,942.8z M396.1,991.8c0.5,1.8,0.2,2.3-0.3,2.5C395,992.5,395.8,992.6,396.1,991.8z M394.4,991.5c0,1.3-0.7,1.3-1.2,1.7
		C393.5,992.4,393.6,991.3,394.4,991.5z M387.5,904.5c-0.1,0-0.2,0-0.2-0.1C387.4,904.5,387.5,904.5,387.5,904.5
		c0.1,0,0.2,0.1,0.3,0.1C387.8,904.6,387.7,904.6,387.5,904.5z M387.4,901.4c0.7,0.2,0.3,0.3-0.2,0.4
		C387.3,901.7,387.4,901.6,387.4,901.4z M483.4,952.5c0,0-0.2,0.1-0.3,0.1c0-0.1,0-0.3,0-0.4c0,0,0.2-0.1,0.3-0.1
		C483.4,952.2,483.4,952.3,483.4,952.5z M490.8,951.8C490.8,951.8,490.8,951.7,490.8,951.8C490.8,951.8,490.8,951.8,490.8,951.8
		C490.8,951.8,490.8,951.8,490.8,951.8z M490.8,929.4c-0.1-0.2-0.1-0.4,0-0.6l0.2,0.1C490.9,929,490.8,929.2,490.8,929.4z
		 M491.1,928.5c-0.1,0.1-0.3,0.2-0.4,0.3c-1.8-0.5-2.7-1.3-1.7-1.7c1.1-0.5,1.3-1.3,2-2.2c0.3,0.9,0.5,1.4,0.8,1.8
		C491.6,927.2,491.3,927.9,491.1,928.5z M493.3,923.5c-0.1-0.1-0.1-0.1-0.2-0.2c-0.1-0.1-0.4-0.2-0.6-0.3l0,1
		c-1.6-0.5-1.9-1.1-1.5-1.6c0.7-0.7,0.1-2,0.3-2.9l0.7,0.5c0.8,0.8,1.5,1.6,1.9,2.4C493.8,922.7,493.5,923.1,493.3,923.5z
		 M559.1,928l-0.3,0.2l-0.2-1L559.1,928z M541.5,977c0.5,1.8,0.2,2.3-0.3,2.5C540.4,977.7,541.1,977.8,541.5,977z M539.8,976.7
		c0,1.3-0.7,1.3-1.2,1.7C538.9,977.6,538.9,976.5,539.8,976.7z M532.9,889.7c-0.1,0-0.2,0-0.2-0.1
		C532.8,889.7,532.8,889.7,532.9,889.7c0.1,0,0.2,0.1,0.3,0.1C533.1,889.8,533,889.7,532.9,889.7z M532.8,886.6
		c0.7,0.2,0.3,0.3-0.2,0.4C532.6,886.9,532.7,886.8,532.8,886.6z M628.7,929.1c0,0-0.2,0.1-0.3,0.1c0-0.1,0-0.3,0-0.4
		c0,0,0.2-0.1,0.3-0.1C628.7,928.8,628.7,928.9,628.7,929.1z M636.1,928.3C636.1,928.3,636.2,928.3,636.1,928.3
		C636.2,928.3,636.2,928.3,636.1,928.3C636.2,928.3,636.2,928.3,636.1,928.3z M636.1,906c-0.1-0.2-0.1-0.4,0-0.6l0.2,0.1
		C636.3,905.6,636.2,905.8,636.1,906z M636.5,905.1c-0.1,0.1-0.3,0.2-0.4,0.3c-1.8-0.5-2.7-1.3-1.7-1.7c1.1-0.5,1.3-1.3,2-2.2
		c0.3,0.9,0.5,1.4,0.8,1.8C636.9,903.8,636.7,904.4,636.5,905.1z M638.6,900.1c-0.1-0.1-0.1-0.1-0.2-0.2c-0.1-0.1-0.4-0.2-0.6-0.3
		l0,1c-1.6-0.5-1.9-1.1-1.5-1.6c0.7-0.7,0.1-2,0.3-2.9l0.7,0.5c0.8,0.8,1.5,1.6,1.9,2.4C639.1,899.3,638.9,899.7,638.6,900.1z
		 M704.5,904.6l-0.3,0.2l-0.2-1L704.5,904.6z M686.8,953.6c0.5,1.8,0.2,2.3-0.3,2.5C685.7,954.3,686.5,954.3,686.8,953.6z
		 M685.1,953.2c0,1.3-0.7,1.3-1.2,1.7C684.2,954.1,684.3,953,685.1,953.2z M678.3,866.3c-0.1,0-0.2,0-0.2-0.1
		C678.1,866.3,678.2,866.3,678.3,866.3c0.1,0,0.2,0.1,0.3,0.1C678.5,866.4,678.4,866.3,678.3,866.3z M678.1,863.2
		c0.7,0.2,0.3,0.3-0.2,0.4C678,863.5,678.1,863.3,678.1,863.2z M713.3,237l-0.2-0.2l-0.1-1.6L713.3,237z M664.5,126.6
		c-0.2,0.1-0.8,0.1-1.2,0.1c-0.1,0-0.4-0.1-0.5-0.1c0.2-0.2,0.6-0.2,1.2-0.1C664.3,126.5,664.8,126.5,664.5,126.6z M664.6,130.8
		l-0.2,0l0.1-0.1L664.6,130.8z M663.8,163.6c-0.1,0-0.2,0.1-0.4,0.1C663.6,163.6,663.7,163.6,663.8,163.6
		C663.8,163.5,663.9,163.6,663.8,163.6z M663.6,164c-0.1,0-0.3,0-0.3,0c-0.5-0.1-0.1-0.2,0.2-0.2C663.5,163.8,663.5,163.9,663.6,164
		z M665,135.3c0.2,0,0.3,0,0.5,0c-0.2,0.1-0.3,0.2-0.5,0.3C665,135.5,665,135.4,665,135.3z M665.8,133.9c0,0-0.3,0-0.5,0.1
		c-0.5-0.2-1-0.3-0.9-0.5C666,133.4,665.8,133.7,665.8,133.9z M664.3,132.9c-0.2-0.4,2-0.8,0.4-1.2
		C666.3,132.1,665.1,132.5,664.3,132.9z M662.8,124.8c0,0,0.1-0.1,0.1-0.1c0.2,0,0.3,0,0.5,0.1c0,0,0,0,0,0
		c-0.3,0.3,0.4,0.3,1.6,0.3c0,0,0,0,0,0C663.5,125.2,662.5,125.2,662.8,124.8z M663.6,142.3c0,0.3,0.1,0.5,0.1,0.8
		c-0.8-0.1-1.5-0.1-2.1-0.2c0-0.1,0-0.1,0-0.2C663.9,142.8,663.2,142.5,663.6,142.3z M661.4,142.7c-0.2,0-0.4,0-0.6,0
		c-0.1,0-0.1,0-0.2,0C660.9,142.7,661.2,142.7,661.4,142.7z M661.3,133.8c0.1,0,0.2,0,0.3,0c0,0,0.1,0,0.1,0.1c-0.1,0-0.2,0-0.3,0
		C661.3,133.9,661.3,133.9,661.3,133.8z M661.5,142.9c0.2,0.2,1.1,0.3,0.5,0.5C661.7,143.2,660.7,143.1,661.5,142.9z M662.2,131.7
		c0.1,0.1-0.2,0.2-0.8,0.1c-0.4,0-0.6-0.1-0.8-0.2c-0.1,0,0.4-0.1,0.8-0.2C661.8,131.5,662.1,131.6,662.2,131.7z M660.7,125.5
		c0.1,0,0.2,0,0.3,0c-0.1,0-0.1,0-0.2,0.1c-0.1,0-0.2,0-0.3,0C660.6,125.5,660.6,125.5,660.7,125.5z M660,137.2
		c-0.6-0.1-1.3-0.2,0-0.3C660,137,660,137.1,660,137.2z M659.6,135.7c-0.1,0-0.2,0-0.2,0c-0.1,0-0.2-0.1-0.3-0.1
		C659.2,135.6,659.4,135.6,659.6,135.7z M658.9,141.2c0.1,0,0.2,0,0.3,0C659.1,141.2,659,141.2,658.9,141.2L658.9,141.2z
		 M658.6,140.6l-0.1,0.1l-0.1-0.1L658.6,140.6z M660.6,141.9c-0.6,0.2-1.6,0.1-2.3,0.2C659,142,659.6,141.9,660.6,141.9z
		 M660.2,163.1c-0.1,0-0.3,0.1-0.4,0.1c0,0-0.2,0-0.2,0c0,0,0.1-0.1,0.1-0.1C659.8,163,660,163,660.2,163.1z M659.8,152.3l0.2,0
		L659.8,152.3L659.8,152.3z M658.3,158.2c-0.1,0-0.2,0-0.1,0c0,0,0.1-0.1,0.2-0.1c0.1,0,0.2,0,0.2,0
		C658.5,158.1,658.4,158.1,658.3,158.2z M658.8,158.8c0-0.1,0-0.1,0-0.2C659.5,158.7,658.9,158.8,658.8,158.8z M584.5,158.6
		c1.1,0.2,2.2,0.5,3.3,0.7c-0.4,0-1,0.1-1.2,0.1c-1.2-0.3-2.3-0.5-3.4-0.8C583.7,158.6,584.2,158.6,584.5,158.6z M569.7,157.2
		c-1.9,0.7-3.7-0.3-5.6-0.7L569.7,157.2z M514.8,140.5c-0.1,0-0.3,0.1-0.4,0.1c0,0-0.2,0-0.2,0c0,0,0.1-0.1,0.1-0.1
		C514.5,140.5,514.7,140.5,514.8,140.5z M514.5,129.7l0.2,0L514.5,129.7L514.5,129.7z M516.1,120.2c-0.2,0-0.4,0-0.6,0
		c-0.1,0-0.1,0-0.2,0C515.5,120.1,515.8,120.2,516.1,120.2z M515.9,111.3c0.1,0,0.2,0,0.3,0c0,0,0.1,0,0.1,0.1c-0.1,0-0.2,0-0.3,0
		C516,111.3,515.9,111.3,515.9,111.3z M516.7,120.9c-0.3-0.2-1.3-0.3-0.5-0.5C516.4,120.5,517.2,120.7,516.7,120.9z M517,142.4
		c-0.2,0-0.3-0.1-0.5-0.1c-0.3,0-0.5-0.1-0.8-0.1c0.3,0,0.5,0.1,0.8,0.1C516.7,142.3,516.9,142.3,517,142.4z M518.2,142.6
		c0.4,0.4,0.9,0.7,1.1,1c-0.4,0-0.7,0.1-1,0.1l-0.2-0.1l0.2,0.1c-0.2-0.1-0.4-0.1-0.6-0.2C517.4,143.3,517.8,143,518.2,142.6z
		 M519.2,104c-0.2,0.1-0.8,0.1-1.2,0.1c-0.1,0-0.4-0.1-0.5-0.1c0.2-0.2,0.6-0.2,1.2-0.1C518.9,103.9,519.5,103.9,519.2,104z
		 M519.2,108.3l-0.2,0l0.1-0.1L519.2,108.3z M518.5,141c-0.1,0-0.2,0.1-0.4,0.1C518.2,141.1,518.3,141,518.5,141
		C518.4,141,518.5,141,518.5,141z M518.2,141.4c-0.1,0-0.3,0-0.3,0c-0.5-0.1-0.1-0.2,0.2-0.2C518.1,141.3,518.2,141.3,518.2,141.4z
		 M519.7,112.8c0.2,0,0.3,0,0.5,0c-0.2,0.1-0.3,0.2-0.5,0.3C519.7,113,519.7,112.9,519.7,112.8z M520.4,111.3c0,0-0.3,0-0.5,0.1
		c-0.5-0.2-1-0.3-0.9-0.5C520.7,110.9,520.4,111.1,520.4,111.3z M518.9,110.3c-0.2-0.4,2-0.8,0.4-1.2
		C521,109.6,519.8,109.9,518.9,110.3z M517.4,102.3c0,0,0.1-0.1,0.1-0.1c0.2,0,0.3,0,0.5,0.1c0,0,0,0,0,0c-0.3,0.3,0.4,0.3,1.6,0.3
		c0,0,0,0,0,0C518.2,102.7,517.1,102.7,517.4,102.3z M518.3,119.7c0,0.3,0.1,0.5,0.1,0.8c-0.8-0.1-1.5-0.1-2.1-0.2
		c0-0.1,0-0.1,0-0.2C518.5,120.3,517.9,119.9,518.3,119.7z M516.9,109.2c0.1,0.1-0.2,0.2-0.8,0.1c-0.4,0-0.6-0.1-0.8-0.2
		c-0.1,0,0.4-0.1,0.8-0.2C516.4,109,516.8,109.1,516.9,109.2z M515.4,102.9c0.1,0,0.2,0,0.3,0c-0.1,0-0.1,0-0.2,0.1
		c-0.1,0-0.2,0-0.3,0C515.3,103,515.3,102.9,515.4,102.9z M514.7,114.7c-0.6-0.1-1.3-0.2,0-0.3C514.7,114.5,514.7,114.6,514.7,114.7
		z M514.2,113.1c-0.1,0-0.2,0-0.2,0c-0.1,0-0.2-0.1-0.3-0.1C513.8,113,514,113.1,514.2,113.1z M513.6,118.6c0.1,0,0.2,0,0.3,0
		C513.8,118.7,513.7,118.6,513.6,118.6L513.6,118.6z M513.2,118.1l-0.1,0.1l-0.1-0.1L513.2,118.1z M515.3,119.4
		c-0.6,0.2-1.6,0.1-2.3,0.2C513.6,119.5,514.2,119.3,515.3,119.4z M512.9,135.6c-0.1,0-0.2,0-0.1,0c0,0,0.1-0.1,0.2-0.1
		c0.1,0,0.2,0,0.2,0C513.1,135.5,513,135.6,512.9,135.6z M513.4,136.3c0-0.1,0-0.1,0-0.2C514.2,136.1,513.5,136.2,513.4,136.3z
		 M511.1,140.8c0.1,0,0.1,0,0.2,0.1c-0.1,0-0.3-0.1-0.4-0.1C511,140.8,511,140.8,511.1,140.8z M440.3,140.2c1,0.1,1.9,0.4,2.9,0.5
		c-0.8,0.1-1.5,0.2-2.1,0.3c-0.7-0.3-1.5-0.5-2.1-0.8C439,140.3,439.9,140.1,440.3,140.2z M427.4,143.3c-0.6-0.1-1.4-0.1-1.8-0.2
		c-1-0.3-1.9-0.5-2.8-0.8L427.4,143.3z M415.1,141c2.7-0.2,4.7,0.6,6.7,1.1l-7.2-0.8C414.8,141.2,414.8,141,415.1,141z M393.7,135.6
		l-3.5,0.5l-2.6,0.1l2.4-0.2L393.7,135.6z M375.8,129.6c-0.1,0.1-0.3,0.2-0.3,0.4c-0.1,0-0.2,0.1-0.3,0.1c-0.4,0.1-0.9,0.2-1.3,0.3
		c0.8-0.7,1.3-1.2,1.4-1.6C376,129,376.3,129.2,375.8,129.6z M375.6,127.6c-2.4,0.2-1.4-0.8-4.2-0.3c0-0.4-0.1-0.7,0.1-1.1
		c0.2-0.4,1.8-0.2,2.9-0.2c0.2,0,0.4,0,0.6,0.1C372.7,126.6,377.1,127.1,375.6,127.6z M369.5,119.1c-0.1,0-0.3,0.1-0.4,0.1
		c0,0-0.2,0-0.2,0c0,0,0.1-0.1,0.1-0.1C369.1,119,369.3,119.1,369.5,119.1z M369.1,108.3l0.2,0L369.1,108.3L369.1,108.3z
		 M370.7,98.7c-0.2,0-0.4,0-0.6,0c-0.1,0-0.1,0-0.2,0C370.2,98.7,370.5,98.7,370.7,98.7z M370.5,89.9c0.1,0,0.2,0,0.3,0
		c0,0,0.1,0,0.1,0.1c-0.1,0-0.2,0-0.3,0C370.6,89.9,370.6,89.9,370.5,89.9z M373.8,82.6c-0.2,0.1-0.8,0.1-1.2,0.1
		c-0.1,0-0.4-0.1-0.5-0.1c0.2-0.2,0.6-0.2,1.2-0.1C373.6,82.5,374.1,82.5,373.8,82.6z M373.9,86.8l-0.2,0l0.1-0.1L373.9,86.8z
		 M373.1,119.6c-0.1,0-0.2,0.1-0.4,0.1C372.9,119.6,373,119.6,373.1,119.6C373.1,119.6,373.2,119.6,373.1,119.6z M372.9,120
		c-0.1,0-0.3,0-0.3,0c-0.5-0.1-0.1-0.2,0.2-0.2C372.7,119.8,372.8,119.9,372.9,120z M372.9,121.2c0.7,0.7,1.5,1.1,1,1.6
		C371.4,122.3,372.2,121.9,372.9,121.2z M372.6,123.6c1.1,0,1.1,0.2,1.5,0.3c1.2,0.5,1.3,1-0.1,1.5c-1.1-0.1-0.8-0.1-0.8-0.4
		c0.1-0.3-1.7-0.6-1.5-0.9C371.8,123.9,371.1,123.6,372.6,123.6z M374.3,91.3c0.2,0,0.3,0,0.5,0c-0.2,0.1-0.3,0.2-0.5,0.3
		C374.3,91.5,374.3,91.4,374.3,91.3z M371.2,120.8c-0.3,0-0.5-0.1-0.8-0.1C370.7,120.8,371,120.8,371.2,120.8c0.2,0,0.3,0.1,0.5,0.1
		C371.5,120.9,371.4,120.9,371.2,120.8z M371.3,99.4c-0.3-0.2-1.3-0.3-0.5-0.5C371,99.1,371.9,99.2,371.3,99.4z M371.5,123
		L371.5,123c-1.3,0-1.9-0.3-2.5-0.5C370.4,122.6,371.1,122.8,371.5,123z M375.1,89.9c0,0-0.3,0-0.5,0.1c-0.5-0.2-1-0.3-0.9-0.5
		C375.3,89.5,375,89.7,375.1,89.9z M373.5,88.9c-0.2-0.4,2-0.8,0.4-1.2C375.6,88.1,374.4,88.5,373.5,88.9z M372.1,80.9
		c0,0,0.1-0.1,0.1-0.1c0.2,0,0.3,0,0.5,0.1c0,0,0,0,0,0c-0.3,0.3,0.4,0.3,1.6,0.3c0,0,0,0,0,0C372.8,81.3,371.8,81.3,372.1,80.9z
		 M372.9,98.3c0,0.3,0.1,0.5,0.1,0.8c-0.8-0.1-1.5-0.1-2.1-0.2c0-0.1,0-0.1,0-0.2C373.2,98.8,372.5,98.5,372.9,98.3z M371.5,87.7
		c0.1,0.1-0.2,0.2-0.8,0.1c-0.4,0-0.6-0.1-0.8-0.2c-0.1,0,0.4-0.1,0.8-0.2C371.1,87.6,371.4,87.6,371.5,87.7z M370,81.5
		c0.1,0,0.2,0,0.3,0c-0.1,0-0.1,0-0.2,0.1c-0.1,0-0.2,0-0.3,0C369.9,81.5,369.9,81.5,370,81.5z M369.3,93.2c-0.6-0.1-1.3-0.2,0-0.3
		C369.3,93,369.3,93.1,369.3,93.2z M368.9,91.7c-0.1,0-0.2,0-0.2,0c-0.1,0-0.2-0.1-0.3-0.1C368.5,91.6,368.7,91.6,368.9,91.7z
		 M368.2,97.2c0.1,0,0.2,0,0.3,0C368.4,97.2,368.3,97.2,368.2,97.2L368.2,97.2z M367.9,96.6l-0.1,0.1l-0.1-0.1L367.9,96.6z
		 M369.9,98c-0.6,0.2-1.6,0.1-2.3,0.2C368.3,98,368.9,97.9,369.9,98z M367.6,114.2c-0.1,0-0.2,0-0.1,0c0,0,0.1-0.1,0.2-0.1
		c0.1,0,0.2,0,0.2,0C367.8,114.1,367.7,114.1,367.6,114.2z M368,114.8c0-0.1,0-0.1,0-0.2C368.8,114.7,368.2,114.8,368,114.8z
		 M368.6,121.9c0.2,0,0.4-0.1,0.5-0.1c0.1,0,0.3,0.1,0.3,0.1c0,0.1,0.1,0.2-0.5,0.1C368.7,122,368.7,121.9,368.6,121.9z
		 M370.6,127.8C370.6,127.8,370.6,127.8,370.6,127.8C370.6,127.8,370.6,127.8,370.6,127.8C370.6,127.8,370.6,127.8,370.6,127.8z
		 M354.7,135.4c0.6-0.3,2.3-0.6,3.5-0.9c0.8,0.1,1.6,0.2,2.3,0.3c-1.1,0.3-2.1,0.6-3.2,0.8C355.9,135.8,352.5,136.5,354.7,135.4z
		 M353.2,139.4c3.8-0.5,7.8-1,12.1-1.5c4.4-0.4,9.2-0.9,14.3-1.4c-9.6,1.8-17.5,3.2-25,4.6c-7.4,1.3-14.6,2.3-22.7,3.2
		C338.8,141.9,345.6,140.5,353.2,139.4z M338.1,137.9c-1,1.7-6.2,3.2-12.9,4.6l-0.1,0C326.4,140.8,332.6,139.3,338.1,137.9z
		 M269.7,152.2c9.5-1.2,16.3-4.3,27-5.5c4.8-0.5,11.3-2.2,12.6-0.8c1,1.1-4.9,2-8.8,2.9c-14.3,3.4-28.6,5.4-43.2,5.9
		C261.6,152.9,261.6,153.2,269.7,152.2z M226.4,150.7c0.1-0.2-0.6-0.4,0.9-0.4c1.1,0,1.1,0.2,1.5,0.3c1.2,0.5,1.3,1-0.1,1.5
		c-1.1-0.1-0.8-0.1-0.8-0.4C227.9,151.4,226.1,151.1,226.4,150.7z M224.1,145.8c-0.1,0-0.3,0.1-0.4,0.1c0,0-0.2,0-0.2,0
		c0,0,0.1-0.1,0.1-0.1C223.8,145.8,224,145.8,224.1,145.8z M223.8,135l0.2,0L223.8,135L223.8,135z M225.4,125.5c-0.2,0-0.4,0-0.6,0
		c-0.1,0-0.1,0-0.2,0C224.8,125.4,225.1,125.4,225.4,125.5z M225.2,116.6c0.1,0,0.2,0,0.3,0c0,0,0.1,0,0.1,0.1c-0.1,0-0.2,0-0.3,0
		C225.3,116.6,225.2,116.6,225.2,116.6z M225.5,125.6c0.2,0.2,1.1,0.3,0.5,0.5C225.7,126,224.7,125.8,225.5,125.6z M226.1,149.8
		L226.1,149.8c-1.3,0-1.9-0.3-2.5-0.5C225,149.3,225.7,149.5,226.1,149.8z M225.9,147.6c-0.3,0-0.5-0.1-0.8-0.1
		C225.3,147.5,225.6,147.5,225.9,147.6c0.2,0,0.3,0.1,0.5,0.1C226.2,147.6,226,147.6,225.9,147.6z M228.5,109.3
		c-0.2,0.1-0.8,0.1-1.2,0.1c-0.1,0-0.4-0.1-0.5-0.1c0.2-0.2,0.6-0.2,1.2-0.1C228.2,109.2,228.8,109.2,228.5,109.3z M228.5,113.6
		l-0.2,0l0.1-0.1L228.5,113.6z M227.8,146.3c-0.1,0-0.2,0.1-0.4,0.1C227.5,146.4,227.6,146.3,227.8,146.3
		C227.7,146.3,227.8,146.3,227.8,146.3z M227.5,146.7c-0.1,0-0.3,0-0.3,0c-0.5-0.1-0.1-0.2,0.2-0.2
		C227.4,146.5,227.5,146.6,227.5,146.7z M227.5,147.9c0.7,0.7,1.5,1.1,1,1.6C226.1,149,226.8,148.6,227.5,147.9z M229,118.1
		c0.2,0,0.3,0,0.5,0c-0.2,0.1-0.3,0.2-0.5,0.3C229,118.3,229,118.2,229,118.1z M229.7,116.6c0,0-0.3,0-0.5,0.1
		c-0.5-0.2-1-0.3-0.9-0.5C230,116.2,229.7,116.4,229.7,116.6z M228.2,115.6c-0.2-0.4,2-0.8,0.4-1.2
		C230.3,114.9,229.1,115.2,228.2,115.6z M226.7,107.6c0,0,0.1-0.1,0.1-0.1c0.2,0,0.3,0,0.5,0.1c0,0,0,0,0,0
		c-0.3,0.3,0.4,0.3,1.6,0.3c0,0,0,0,0,0C227.5,108,226.4,108,226.7,107.6z M227.6,125c0,0.3,0.1,0.5,0.1,0.8
		c-0.8-0.1-1.5-0.1-2.1-0.2c0-0.1,0-0.1,0-0.2C227.8,125.6,227.2,125.2,227.6,125z M226.2,114.4c0.1,0.1-0.2,0.2-0.8,0.1
		c-0.4,0-0.6-0.1-0.8-0.2c-0.1,0,0.4-0.1,0.8-0.2C225.7,114.3,226.1,114.4,226.2,114.4z M224.7,108.2c0.1,0,0.2,0,0.3,0
		c-0.1,0-0.1,0-0.2,0.1c-0.1,0-0.2,0-0.3,0C224.6,108.3,224.6,108.2,224.7,108.2z M224,120c-0.6-0.1-1.3-0.2,0-0.3
		C223.9,119.8,224,119.9,224,120z M223.5,118.4c-0.1,0-0.2,0-0.2,0c-0.1,0-0.2-0.1-0.3-0.1C223.1,118.3,223.3,118.4,223.5,118.4z
		 M222.9,123.9c0.1,0,0.2,0,0.3,0C223.1,123.9,223,123.9,222.9,123.9L222.9,123.9z M222.5,123.4l-0.1,0.1l-0.1-0.1L222.5,123.4z
		 M224.6,124.7c-0.6,0.2-1.6,0.1-2.3,0.2C222.9,124.8,223.5,124.6,224.6,124.7z M222.2,140.9c-0.1,0-0.2,0-0.1,0
		c0,0,0.1-0.1,0.2-0.1c0.1,0,0.2,0,0.2,0C222.4,140.8,222.3,140.9,222.2,140.9z M222.7,141.6c0-0.1,0-0.1,0-0.2
		C223.5,141.4,222.8,141.5,222.7,141.6z M223.2,148.6c0.2,0,0.4-0.1,0.5-0.1c0.1,0,0.3,0.1,0.3,0.1c0,0.1,0.1,0.2-0.5,0.1
		C223.4,148.7,223.3,148.6,223.2,148.6z M228.2,152.7c-0.7,0.1-1.4,0.2-2.1,0.2C226.2,152.7,227.3,152.7,228.2,152.7z M201.5,159.5
		c7.8-1.1,15.5-2.2,23.3-3.3c0.8,0,1.2,0.3,2.6,0.1c-0.4-0.1-0.8-0.2-1-0.3c1.3-0.2,2.6-0.3,3.9-0.5c0.5,0.2,0.7,0.4,0.2,0.8
		c-0.3,0.2-0.9,0.6,1.3,0.8c-0.5,0-1.4,0-1.3,0.2c0,0.1,0.7,0.2,1.1,0.2c1,0,0.8-0.1,0.7-0.3c1-0.1,2.4,0,3.3-0.2
		c0.3-0.1,1.1-0.3,1.3,0c0.5,0.7,2,0.3,2.9,0.1c0.1,0,0.2,0,0.3-0.1c0,0.2-0.1,0.4,0,0.6c0.1,0.2-1.3,0.7-2,1
		c-16.8-0.2-29.9,6.6-45.6,7.1C186.9,163.7,214.8,161,201.5,159.5z M188,160.5c-5.8,1.5-10.4,3.3-15,5c-3.6-0.1-6.4-0.6-9-1.2
		C172,163.2,180.2,162,188,160.5z M83.1,178.8c-0.5-0.2-0.8-0.4-2.5-0.1c0-0.4-0.1-0.7,0.1-1.1c0.2-0.4,1.8-0.2,2.9-0.2
		c0.2,0,0.4,0,0.6,0.1c-1.3,0.3-0.2,0.7,0.5,1C84.2,178.5,83.6,178.7,83.1,178.8z M78.8,170.4c-0.1,0-0.3,0.1-0.4,0.1
		c0,0-0.2,0-0.2,0c0,0,0.1-0.1,0.1-0.1C78.4,170.4,78.6,170.4,78.8,170.4z M78.4,159.6l0.2,0L78.4,159.6L78.4,159.6z M80,150.1
		c-0.2,0-0.4,0-0.6,0c-0.1,0-0.1,0-0.2,0C79.5,150.1,79.8,150.1,80,150.1z M79.8,141.2c0.1,0,0.2,0,0.3,0c0,0,0.1,0,0.1,0.1
		c-0.1,0-0.2,0-0.3,0C79.9,141.3,79.9,141.2,79.8,141.2z M83.1,134c-0.2,0.1-0.8,0.1-1.2,0.1c-0.1,0-0.4-0.1-0.5-0.1
		c0.2-0.2,0.6-0.2,1.2-0.1C82.9,133.9,83.4,133.9,83.1,134z M83.2,138.2l-0.2,0l0.1-0.1L83.2,138.2z M82.4,171
		c-0.1,0-0.2,0.1-0.4,0.1C82.2,171,82.3,171,82.4,171C82.4,170.9,82.5,170.9,82.4,171z M82.2,171.3c-0.1,0-0.3,0-0.3,0
		c-0.5-0.1-0.1-0.2,0.2-0.2C82,171.2,82.1,171.3,82.2,171.3z M82.2,172.5c0.7,0.7,1.5,1.1,1,1.6C80.7,173.7,81.4,173.2,82.2,172.5z
		 M81.9,175c1.1,0,1.1,0.2,1.5,0.3c1.2,0.5,1.3,1-0.1,1.5c-1.1-0.1-0.8-0.1-0.8-0.4c0.1-0.3-1.7-0.6-1.5-0.9
		C81.1,175.2,80.4,175,81.9,175z M83.6,142.7c0.2,0,0.3,0,0.5,0c-0.2,0.1-0.3,0.2-0.5,0.3C83.6,142.9,83.6,142.8,83.6,142.7z
		 M80.5,172.2c-0.3,0-0.5-0.1-0.8-0.1C80,172.1,80.3,172.2,80.5,172.2c0.2,0,0.3,0.1,0.5,0.1C80.8,172.3,80.7,172.2,80.5,172.2z
		 M80.6,150.8c-0.3-0.2-1.3-0.3-0.5-0.5C80.3,150.4,81.2,150.6,80.6,150.8z M80.8,174.4L80.8,174.4c-1.3,0-1.9-0.3-2.5-0.5
		C79.7,174,80.4,174.2,80.8,174.4z M84.4,141.2c0,0-0.3,0-0.5,0.1c-0.5-0.2-1-0.3-0.9-0.5C84.6,140.8,84.3,141,84.4,141.2z
		 M82.8,140.3c-0.2-0.4,2-0.8,0.4-1.2C84.9,139.5,83.7,139.9,82.8,140.3z M81.4,132.2c0,0,0.1-0.1,0.1-0.1c0.2,0,0.3,0,0.5,0.1
		c0,0,0,0,0,0c-0.3,0.3,0.4,0.3,1.6,0.3c0,0,0,0,0,0C82.1,132.6,81.1,132.6,81.4,132.2z M82.2,149.6c0,0.3,0.1,0.5,0.1,0.8
		c-0.8-0.1-1.5-0.1-2.1-0.2c0-0.1,0-0.1,0-0.2C82.5,150.2,81.8,149.9,82.2,149.6z M80.8,139.1c0.1,0.1-0.2,0.2-0.8,0.1
		c-0.4,0-0.6-0.1-0.8-0.2c-0.1,0,0.4-0.1,0.8-0.2C80.4,138.9,80.7,139,80.8,139.1z M79.3,132.9c0.1,0,0.2,0,0.3,0
		c-0.1,0-0.1,0-0.2,0.1c-0.1,0-0.2,0-0.3,0C79.2,132.9,79.2,132.9,79.3,132.9z M78.6,144.6c-0.6-0.1-1.3-0.2,0-0.3
		C78.6,144.4,78.6,144.5,78.6,144.6z M78.1,143.1c-0.1,0-0.2,0-0.2,0c-0.1,0-0.2-0.1-0.3-0.1C77.8,142.9,78,143,78.1,143.1z
		 M77.5,148.6c0.1,0,0.2,0,0.3,0C77.7,148.6,77.6,148.6,77.5,148.6L77.5,148.6z M77.2,148L77,148l-0.1-0.1L77.2,148z M79.2,149.3
		c-0.6,0.2-1.6,0.1-2.3,0.2C77.6,149.4,78.2,149.3,79.2,149.3z M76.9,165.5c-0.1,0-0.2,0-0.1,0c0,0,0.1-0.1,0.2-0.1
		c0.1,0,0.2,0,0.2,0C77.1,165.5,77,165.5,76.9,165.5z M77.3,166.2c0-0.1,0-0.1,0-0.2C78.1,166.1,77.5,166.1,77.3,166.2z M77.9,173.2
		c0.2,0,0.4-0.1,0.5-0.1c0.1,0,0.3,0.1,0.3,0.1c0,0.1,0.1,0.2-0.5,0.1C78,173.3,78,173.3,77.9,173.2z M79.9,179.1
		c0.3,0.1,0.6,0.2,1,0.3c-0.2,0.1-0.5,0.1-0.7,0.2C80.2,179.4,80.1,179.3,79.9,179.1z M24.6,626.5c-0.2-1-0.4-2-0.5-3
		c0-0.3,0.1-0.5,0.2-0.8c0.1,0.5,0.4,1.3,0.4,1.6C24.8,625.1,24.7,625.8,24.6,626.5z M29.8,658.7c-0.4-0.5-1.1-2.2-1.5-3.9
		c-0.2-1,0-3.1,0-4.7c0.5,1.5,1,3,1.4,4C30.4,657.5,30.4,659.4,29.8,658.7z M30.4,641.8l-0.5-1c0-0.8,0-1.7,0.1-2.5
		c0-0.1,0.3,0.6,0.4,0.9L30.4,641.8z M32.9,686.7c-1.5-8.5-1.6-13.5,0.3-13C34.8,682.3,31.5,678.5,32.9,686.7z M42.6,780.7l-0.6-3.6
		c0.1,0.1,0.2,0.1,0.3,0.3c0.1,0.6,0.2,1.2,0.3,1.8C42.6,779.8,42.6,780.2,42.6,780.7z M42.8,760.5l1.4-8.8c0.4,2.2,0.9,4.4,1.1,6.5
		C46.3,767,44.1,761.4,42.8,760.5z M46.7,784.4c-1-3.1-0.4-4.9,0-5.9c0.6-1.4,0.9-0.3,1.5,4c0.6,4.5,1.4,9.2,2.1,13.7
		c0.3,2.3,0.6,4.5,0.8,6.7c0.1,1.1,0.1,2.2,0.2,3.2c0,1.1,0,2.3,0,3.4c-0.6-4.3-1.2-8.8-1.8-13.1C48.7,792.2,47.9,788.1,46.7,784.4z
		 M50.7,831.1c-1.1-5.4-2-11.3-2.6-17.2c-0.1-1.5-0.3-3-0.4-4.5c-0.1-1.1-0.1-1.9,0-2.8c0-1.8,0.1-3.7,0.3-5.6
		c0.5,1.9,1,3.8,1.5,5.3c0.5,1.5,1,2.5,1.6,3.6l1.9,13c-1.1-2.5-2.7-7.3-2.2,1.1c0.1,2.3,0.4,4.5,0.7,6.5c5.6,0.7,11,0.9,16.4,1.5
		C62.4,831.9,56.6,831.6,50.7,831.1z M54.4,790.6l2.1,12.2c0.3,2.1,0.6,4,0.9,6.2c0.3,2.2,0.5,4.5,0.7,6.9
		C56.8,807.4,55.6,799,54.4,790.6z M68.8,832c1.1,0.1,2.3,0.2,3.5,0.3c0.8,0.1,1.7,0.2,2.6,0.3c0.3,0,0.6,0.1,0.9,0.1
		c0.4,0.3,0.6,0.6,0.7,0.9C74.5,833.1,72.5,832.7,68.8,832z M89.7,864.7c-0.2,0-0.3,0-0.5,0c0.2-0.1,0.3-0.2,0.5-0.3
		C89.7,864.5,89.7,864.6,89.7,864.7z M91.3,836.3c-0.1,0.1-0.2,0.1-0.3,0.2c0,0-0.1,0-0.1-0.1C91,836.4,91.1,836.4,91.3,836.3z
		 M91.2,836c0.1,0,0.3,0,0.3,0c0.5,0.1,0.1,0.2-0.2,0.2C91.3,836.2,91.2,836.1,91.2,836z M95.1,837c-0.2,0-0.4,0-0.5-0.1
		c0.1,0,0.3-0.1,0.4-0.1c0,0,0.2,0,0.2,0C95.2,836.9,95.2,837,95.1,837z M89,866.1c0,0,0.3,0,0.5-0.1c0.5,0.2,1,0.3,0.9,0.5
		C88.7,866.6,89,866.3,89,866.1z M90.5,867.1c0.2,0.4-2,0.8-0.4,1.2C88.4,867.9,89.6,867.5,90.5,867.1z M90.2,873.4
		c0.2-0.1,0.8-0.1,1.2-0.1c0.1,0,0.4,0.1,0.5,0.1c-0.2,0.2-0.6,0.2-1.2,0.1C90.5,873.5,89.9,873.5,90.2,873.4z M90.1,869.2l0.2,0
		l-0.1,0.1L90.1,869.2z M92,875.2c0,0-0.1,0.1-0.1,0.1c-0.2,0-0.3,0-0.5-0.1c0,0,0,0,0,0c0.3-0.3-0.4-0.3-1.6-0.3c0,0,0,0,0,0
		C91.2,874.8,92.3,874.8,92,875.2z M91.1,857.7c0-0.3-0.1-0.5-0.1-0.8c0.8,0.1,1.5,0.1,2.1,0.2c0,0.1,0,0.1,0,0.2
		C90.9,857.2,91.5,857.5,91.1,857.7z M93.3,857.3c0.2,0,0.4,0,0.6,0c0.1,0,0.1,0,0.2,0C93.8,857.3,93.6,857.3,93.3,857.3z
		 M93.5,866.2c-0.1,0-0.2,0-0.3,0c0,0-0.1,0-0.1-0.1c0.1,0,0.2,0,0.3,0C93.4,866.1,93.4,866.1,93.5,866.2z M93.2,857.1
		c-0.2-0.2-1.1-0.3-0.5-0.5C93,856.8,94,856.9,93.2,857.1z M92.5,868.3c-0.1-0.1,0.2-0.2,0.8-0.1c0.4,0,0.6,0.1,0.8,0.2
		c0.1,0-0.4,0.1-0.8,0.2C93,868.5,92.6,868.4,92.5,868.3z M94,874.5c-0.1,0-0.2,0-0.3,0c0.1,0,0.1,0,0.2-0.1c0.1,0,0.2,0,0.3,0
		C94.1,874.5,94.1,874.5,94,874.5z M94.7,862.8c0.6,0.1,1.3,0.2,0,0.3C94.7,863,94.7,862.9,94.7,862.8z M95.2,864.3
		c0.1,0,0.2,0,0.2,0c0.1,0,0.2,0.1,0.3,0.1C95.5,864.4,95.4,864.4,95.2,864.3z M95.8,858.8c-0.1,0-0.2,0-0.3,0
		C95.6,858.8,95.7,858.8,95.8,858.8L95.8,858.8z M96.2,859.4l0.1-0.1l0.1,0.1L96.2,859.4z M94.1,858.1c0.6-0.2,1.6-0.1,2.3-0.2
		C95.8,858,95.2,858.1,94.1,858.1z M94.7,847.7l0.1-0.1l0.1,0.1L94.7,847.7z M96.4,842c-0.1,0-0.2,0-0.2,0c0.1,0,0.2-0.1,0.3-0.1
		c0.1,0,0.2,0,0.1,0C96.5,841.9,96.5,842,96.4,842z M102.4,839.4c0.5-0.1,1-0.1,0.8-0.3c-0.3-0.2-1-0.2-1.8-0.2c0,0-0.1,0-0.2,0.1
		c-0.1,0-0.3,0-0.3,0c-1.4-0.2-1.6-0.5-1.5-0.9c0.1-0.5,2.1-1.1-1.2-1.6c-0.4-0.1-0.6-0.3,0.6-0.5c1-0.1,1.4-0.2,1.4-0.3
		c2.7,0,5-0.2,6.9-0.8c3,0.8,8.9,2.2,8.6,2.4c-4.7,3.3,9.8,3.7,17.8,5.1C122.2,842.7,112.1,841.3,102.4,839.4z M201.1,845
		c2.3-0.6,3.8,0.5,5.8,0.9C205,845.5,203.1,845.3,201.1,845z M220,848.4l0.9-0.2c0.6,0.1,1.5,0.3,1.8,0.4c0.1,0,0,0.1-0.1,0.1
		c-0.2,0.1-0.5,0.1-0.7,0.2L220,848.4z M234.3,888.7c0,0,0.3,0,0.5-0.1c0.5,0.2,1,0.3,0.9,0.5C234.1,889.1,234.3,888.9,234.3,888.7z
		 M234.6,887.2c0.2-0.1,0.3-0.2,0.5-0.3c0,0.1,0,0.2,0,0.3C234.9,887.2,234.8,887.2,234.6,887.2z M235.8,889.7
		c0.2,0.4-2,0.8-0.4,1.2C233.8,890.4,235,890.1,235.8,889.7z M235.6,896c0.2-0.1,0.8-0.1,1.2-0.1c0.1,0,0.4,0.1,0.5,0.1
		c-0.2,0.2-0.6,0.2-1.2,0.1C235.8,896.1,235.2,896.1,235.6,896z M235.5,891.7l0.2,0l-0.1,0.1L235.5,891.7z M237.3,897.7
		c0,0-0.1,0.1-0.1,0.1c-0.2,0-0.3,0-0.5-0.1c0,0,0,0,0,0c0.3-0.3-0.4-0.3-1.6-0.3c0,0,0,0,0,0C236.6,897.3,237.6,897.3,237.3,897.7z
		 M236.5,880.3c0-0.3-0.1-0.5-0.1-0.8c0.8,0.1,1.5,0.1,2.1,0.2c0,0.1,0,0.1,0,0.2C236.2,879.7,236.9,880.1,236.5,880.3z
		 M238.7,879.8c0.2,0,0.4,0,0.6,0c0.1,0,0.1,0,0.2,0C239.2,879.9,238.9,879.8,238.7,879.8z M238.8,888.7c-0.1,0-0.2,0-0.3,0
		c0,0-0.1,0-0.1-0.1c0.1,0,0.2,0,0.3,0C238.8,888.7,238.8,888.7,238.8,888.7z M238.5,879.6c-0.2-0.2-1.1-0.3-0.5-0.5
		C238.4,879.3,239.4,879.4,238.5,879.6z M237.9,890.8c-0.1-0.1,0.2-0.2,0.8-0.1c0.4,0,0.6,0.1,0.8,0.2c0.1,0-0.4,0.1-0.8,0.2
		C238.3,891,238,890.9,237.9,890.8z M239.4,897.1c-0.1,0-0.2,0-0.3,0c0.1,0,0.1,0,0.2-0.1c0.1,0,0.2,0,0.3,0
		C239.5,897,239.4,897.1,239.4,897.1z M240.1,885.3c0.6,0.1,1.3,0.2,0,0.3C240.1,885.5,240.1,885.4,240.1,885.3z M240.5,886.9
		c0.1,0,0.2,0,0.2,0c0.1,0,0.2,0.1,0.3,0.1C240.9,887,240.7,886.9,240.5,886.9z M241.2,881.4c-0.1,0-0.2,0-0.3,0
		C241,881.3,241.1,881.4,241.2,881.4L241.2,881.4z M241.5,881.9l0.1-0.1l0.1,0.1L241.5,881.9z M239.4,880.6c0.6-0.2,1.6-0.1,2.3-0.2
		C241.1,880.5,240.5,880.7,239.4,880.6z M240.1,870.3l0.1-0.1l0.1,0.1L240.1,870.3z M241.8,864.4c0.1,0,0.2,0,0.1,0
		c0,0-0.1,0.1-0.2,0.1c-0.1,0-0.2,0-0.2,0C241.6,864.5,241.7,864.4,241.8,864.4z M241.3,863.7c0,0.1,0,0.1,0,0.2
		C240.5,863.9,241.2,863.8,241.3,863.7z M247,855c-1.1,0-2-0.1-2.8-0.2c-0.1-0.1-0.2-0.2-0.2-0.3c-0.1-0.5-2.2-0.8-3.1-1.2
		c0.1-0.1,0.2-0.2,0.3-0.3c0.3,0.1,0.7,0.1,1,0c0.4-0.1,0.1-0.2-0.4-0.2c0.7-0.1,1.8-0.1,3.6,0.2c2.6,0.5,6.4,1.3,7.1,1.8
		C254,855.8,249,855,247,855z M281,859.4c-2.3-0.5-4-1.2-5.5-1.7c0.6-0.7,2.3-0.6,4.4-0.1c1.7,0.4,3.4,1,4.2,1.5
		C285,859.7,283.4,859.9,281,859.4z M325.7,864.5l-5.1-0.2l5,0.2l2.5,0L325.7,864.5z M349.5,872.2c-2.4-0.3-2.8-0.6-1-0.5
		c1.3,0.1,2.9,0.4,4.4,0.6c0.3,0,0.6,0.2,0.9,0.3C352.3,872.4,350.9,872.3,349.5,872.2z M380.9,917.4c0.2-0.1,0.8-0.1,1.2-0.1
		c0.1,0,0.4,0.1,0.5,0.1c-0.2,0.2-0.6,0.2-1.2,0.1C381.2,917.5,380.6,917.5,380.9,917.4z M380.9,913.2l0.2,0l-0.1,0.1L380.9,913.2z
		 M381.6,880.4c0.1,0,0.2-0.1,0.4-0.1C381.9,880.4,381.8,880.4,381.6,880.4C381.6,880.4,381.6,880.4,381.6,880.4z M381.9,880
		c0.1,0,0.3,0,0.3,0c0.5,0.1,0.1,0.2-0.2,0.2C382,880.2,381.9,880.1,381.9,880z M381.9,878.8c-0.7-0.7-1.5-1.1-1-1.6
		C383.3,877.7,382.6,878.1,381.9,878.8z M380.4,908.7c-0.2,0-0.3,0-0.5,0c0.2-0.1,0.3-0.2,0.5-0.3
		C380.4,908.5,380.4,908.6,380.4,908.7z M379.7,910.1c0,0,0.3,0,0.5-0.1c0.5,0.2,1,0.3,0.9,0.5C379.4,910.5,379.7,910.3,379.7,910.1
		z M381.2,911.1c0.2,0.4-2,0.8-0.4,1.2C379.1,911.9,380.3,911.5,381.2,911.1z M382.7,919.1c0,0-0.1,0.1-0.1,0.1
		c-0.2,0-0.3,0-0.5-0.1c0,0,0,0,0,0c0.3-0.3-0.4-0.3-1.6-0.3c0,0,0,0,0,0C381.9,918.7,383,918.7,382.7,919.1z M381.8,901.7
		c0-0.3-0.1-0.5-0.1-0.8c0.8,0.1,1.5,0.1,2.1,0.2c0,0.1,0,0.1,0,0.2C381.6,901.2,382.2,901.5,381.8,901.7z M385.3,880.9
		c0.1,0,0.3-0.1,0.4-0.1c0,0,0.2,0,0.2,0c0,0-0.1,0.1-0.1,0.1C385.6,881,385.4,880.9,385.3,880.9z M385.6,891.7l-0.2,0L385.6,891.7
		L385.6,891.7z M385.6,878.2c-0.1,0-0.3-0.1-0.3-0.1c0-0.1-0.1-0.2,0.5-0.1c0.2,0,0.2,0.1,0.3,0.1
		C386,878.2,385.8,878.2,385.6,878.2z M383.2,877L383.2,877c1.3,0,1.9,0.3,2.5,0.5C384.4,877.4,383.7,877.2,383.2,877z M384,901.3
		c0.2,0,0.4,0,0.6,0c0.1,0,0.1,0,0.2,0C384.5,901.3,384.3,901.3,384,901.3z M384.2,910.1c-0.1,0-0.2,0-0.3,0c0,0-0.1,0-0.1-0.1
		c0.1,0,0.2,0,0.3,0C384.1,910.1,384.1,910.1,384.2,910.1z M383.9,901.1c-0.2-0.2-1.1-0.3-0.5-0.5
		C383.7,900.7,384.7,900.9,383.9,901.1z M383.5,879.2c0.3,0,0.5,0.1,0.8,0.1C384,879.2,383.8,879.2,383.5,879.2
		c-0.2,0-0.3-0.1-0.5-0.1C383.2,879.1,383.4,879.1,383.5,879.2z M383.2,912.3c-0.1-0.1,0.2-0.2,0.8-0.1c0.4,0,0.6,0.1,0.8,0.2
		c0.1,0-0.4,0.1-0.8,0.2C383.7,912.4,383.3,912.4,383.2,912.3z M384.7,918.5c-0.1,0-0.2,0-0.3,0c0.1,0,0.1,0,0.2-0.1
		c0.1,0,0.2,0,0.3,0C384.8,918.5,384.8,918.5,384.7,918.5z M385.4,906.8c0.6,0.1,1.3,0.2,0,0.3C385.4,907,385.4,906.9,385.4,906.8z
		 M385.9,908.3c0.1,0,0.2,0,0.2,0c0.1,0,0.2,0.1,0.3,0.1C386.2,908.4,386.1,908.4,385.9,908.3z M386.5,902.8c-0.1,0-0.2,0-0.3,0
		C386.3,902.8,386.4,902.8,386.5,902.8L386.5,902.8z M386.9,903.4l0.1-0.1l0.1,0.1L386.9,903.4z M384.8,902c0.6-0.2,1.6-0.1,2.3-0.2
		C386.5,902,385.9,902.1,384.8,902z M387.1,885.8c0.1,0,0.2,0,0.1,0c0,0-0.1,0.1-0.2,0.1c-0.1,0-0.2,0-0.2,0
		C387,885.9,387.1,885.9,387.1,885.8z M386.7,885.2c0,0.1,0,0.1,0,0.2C385.9,885.3,386.5,885.2,386.7,885.2z M382.2,876.4
		c-0.2,0-0.4,0-0.6,0c0.5-0.1,1-0.2,1.5-0.2C383.1,876.3,383.1,876.4,382.2,876.4z M432.5,865.1c2.6-1.5,5.6-1.6,8.7-1.3
		L432.5,865.1z M449.1,859.9c-0.7-0.1-1.1-0.2-1.6-0.3c0.8-0.1,1.6-0.2,2.2-0.3c0.5,0,0.8,0.1,1.2,0.2
		C450.3,859.7,449.3,859.9,449.1,859.9z M488.7,853.9c-8.6,0.9-16.9,1.4-25.3,2.1c8.4-1.6,15.9-1.9,23.7-2.6
		c7.8-0.7,9.3-1.7,7.5-2.9l0.1,0C500.4,851.4,500.4,852.7,488.7,853.9z M501.6,859.7c-1,0.2-2.1,0.4-3.2,0.6l4.3-1
		C502.3,859.4,502,859.6,501.6,859.7z M508.9,853.7c-0.5,0-1.3,0.1-1.5,0c-0.2-0.1,0.2-0.3,0.4-0.4c0.5,0,1.3-0.1,1.5,0
		C509.5,853.3,509.1,853.5,508.9,853.7z M528.4,861.2c-0.1,0.2,0.6,0.4-0.9,0.4c-1.1,0-1.1-0.2-1.5-0.3c-1.2-0.5-1.3-1,0.1-1.5
		c1.1,0.1,0.8,0.1,0.8,0.4C526.8,860.6,528.6,860.8,528.4,861.2z M530.6,866.1c0.1,0,0.3-0.1,0.4-0.1c0,0,0.2,0,0.2,0
		c0,0-0.1,0.1-0.1,0.1C531,866.1,530.8,866.1,530.6,866.1z M531,876.9l-0.2,0L531,876.9L531,876.9z M529.4,886.4c0.2,0,0.4,0,0.6,0
		c0.1,0,0.1,0,0.2,0C529.9,886.5,529.6,886.5,529.4,886.4z M529.5,895.3c-0.1,0-0.2,0-0.3,0c0,0-0.1,0-0.1-0.1c0.1,0,0.2,0,0.3,0
		C529.5,895.3,529.5,895.3,529.5,895.3z M529.3,886.3c-0.2-0.2-1.1-0.3-0.5-0.5C529.1,885.9,530.1,886.1,529.3,886.3z M528.6,862.2
		L528.6,862.2c1.3,0,1.9,0.3,2.5,0.5C529.7,862.6,529,862.4,528.6,862.2z M528.9,864.3c0.3,0,0.5,0.1,0.8,0.1
		C529.4,864.4,529.1,864.4,528.9,864.3c-0.2,0-0.3-0.1-0.5-0.1C528.6,864.3,528.7,864.3,528.9,864.3z M526.3,902.6
		c0.2-0.1,0.8-0.1,1.2-0.1c0.1,0,0.4,0.1,0.5,0.1c-0.2,0.2-0.6,0.2-1.2,0.1C526.5,902.7,526,902.7,526.3,902.6z M526.2,898.3l0.2,0
		l-0.1,0.1L526.2,898.3z M527,865.6c0.1,0,0.2-0.1,0.4-0.1C527.2,865.5,527.1,865.6,527,865.6C527,865.6,526.9,865.6,527,865.6z
		 M527.2,865.2c0.1,0,0.3,0,0.3,0c0.5,0.1,0.1,0.2-0.2,0.2C527.3,865.4,527.3,865.3,527.2,865.2z M527.2,864c-0.7-0.7-1.5-1.1-1-1.6
		C528.7,862.9,527.9,863.3,527.2,864z M525.8,893.9c-0.2,0-0.3,0-0.5,0c0.2-0.1,0.3-0.2,0.5-0.3
		C525.8,893.6,525.8,893.7,525.8,893.9z M525,895.3c0,0,0.3,0,0.5-0.1c0.5,0.2,1,0.3,0.9,0.5C524.8,895.7,525,895.5,525,895.3z
		 M526.5,896.3c0.2,0.4-2,0.8-0.4,1.2C524.5,897.1,525.7,896.7,526.5,896.3z M528,904.3c0,0-0.1,0.1-0.1,0.1c-0.2,0-0.3,0-0.5-0.1
		c0,0,0,0,0,0c0.3-0.3-0.4-0.3-1.6-0.3c0,0,0,0,0,0C527.3,903.9,528.3,903.9,528,904.3z M527.2,886.9c0-0.3-0.1-0.5-0.1-0.8
		c0.8,0.1,1.5,0.1,2.1,0.2c0,0.1,0,0.1,0,0.2C526.9,886.3,527.6,886.7,527.2,886.9z M528.6,897.5c-0.1-0.1,0.2-0.2,0.8-0.1
		c0.4,0,0.6,0.1,0.8,0.2c0.1,0-0.4,0.1-0.8,0.2C529,897.6,528.7,897.5,528.6,897.5z M530.1,903.7c-0.1,0-0.2,0-0.3,0
		c0.1,0,0.1,0,0.2-0.1c0.1,0,0.2,0,0.3,0C530.2,903.7,530.2,903.7,530.1,903.7z M530.8,891.9c0.6,0.1,1.3,0.2,0,0.3
		C530.8,892.1,530.8,892,530.8,891.9z M531.2,893.5c0.1,0,0.2,0,0.2,0c0.1,0,0.2,0.1,0.3,0.1C531.6,893.6,531.4,893.6,531.2,893.5z
		 M531.9,888c-0.1,0-0.2,0-0.3,0C531.7,888,531.8,888,531.9,888L531.9,888z M532.2,888.6l0.1-0.1l0.1,0.1L532.2,888.6z M530.2,887.2
		c0.6-0.2,1.6-0.1,2.3-0.2C531.8,887.1,531.2,887.3,530.2,887.2z M532.5,871c0.1,0,0.2,0,0.1,0c0,0-0.1,0.1-0.2,0.1
		c-0.1,0-0.2,0-0.2,0C532.3,871.1,532.4,871,532.5,871z M532,870.3c0,0.1,0,0.1,0,0.2C531.2,870.5,531.9,870.4,532,870.3z
		 M531.5,863.3c-0.2,0-0.4,0.1-0.5,0.1c-0.1,0-0.3-0.1-0.3-0.1c0-0.1-0.1-0.2,0.5-0.1C531.4,863.2,531.4,863.3,531.5,863.3z
		 M528.7,858.9c-0.2,0.4-1.8,0.2-2.9,0.2c0,0-0.1,0-0.1,0c1-0.1,2-0.3,3-0.4C528.7,858.8,528.7,858.9,528.7,858.9z M538.6,847
		c-5.3,0.5-4.8-0.1-3.5-0.9c0.8-0.5,0.7-1.1,3.4-1.2c2,0,3.3,0.5,4,0.9C542.7,846,539.6,846.7,538.6,847z M676,842.7
		c0.1,0,0.3-0.1,0.4-0.1c0,0,0.2,0,0.2,0c0,0-0.1,0.1-0.1,0.1C676.3,842.7,676.1,842.7,676,842.7z M676.3,853.5l-0.2,0L676.3,853.5
		L676.3,853.5z M676.3,840c-0.1,0-0.3-0.1-0.3-0.1c0-0.1-0.1-0.2,0.5-0.1c0.2,0,0.2,0.1,0.3,0.1C676.7,839.9,676.5,839.9,676.3,840z
		 M673.9,838.7L673.9,838.7c1.3,0,1.9,0.3,2.5,0.5C675.1,839.1,674.4,839,673.9,838.7z M674.7,863c0.2,0,0.4,0,0.6,0
		c0.1,0,0.1,0,0.2,0C675.2,863.1,675,863,674.7,863z M674.9,871.9c-0.1,0-0.2,0-0.3,0c0,0-0.1,0-0.1-0.1c0.1,0,0.2,0,0.3,0
		C674.8,871.9,674.8,871.9,674.9,871.9z M674.1,862.3c0.3,0.2,1.3,0.3,0.5,0.5C674.4,862.7,673.6,862.5,674.1,862.3z M673.8,840.8
		c0.2,0,0.3,0.1,0.5,0.1c0.3,0,0.5,0.1,0.8,0.1c-0.3,0-0.5-0.1-0.8-0.1C674,840.9,673.9,840.9,673.8,840.8z M660.1,828.2l1.4-0.3
		l0.4,0.2L660.1,828.2z M673.5,837.4c0.2,0.1,0.3,0.2,0.3,0.3c-0.1,0.2,0.6,0.4-0.9,0.4c-1.1,0-1.1-0.2-1.5-0.3c0,0,0,0,0,0
		C672.1,837.7,672.8,837.6,673.5,837.4z M671.6,879.2c0.2-0.1,0.8-0.1,1.2-0.1c0.1,0,0.4,0.1,0.5,0.1c-0.2,0.2-0.6,0.2-1.2,0.1
		C671.9,879.3,671.3,879.3,671.6,879.2z M671.6,874.9l0.2,0l-0.1,0.1L671.6,874.9z M672.3,842.2c0.1,0,0.2-0.1,0.4-0.1
		C672.6,842.1,672.5,842.2,672.3,842.2C672.3,842.2,672.3,842.2,672.3,842.2z M672.6,841.8c0.1,0,0.3,0,0.3,0
		c0.5,0.1,0.1,0.2-0.2,0.2C672.7,841.9,672.6,841.9,672.6,841.8z M672.6,840.6c-0.7-0.7-1.5-1.1-1-1.6
		C674,839.4,673.3,839.9,672.6,840.6z M671.1,870.4c-0.2,0-0.3,0-0.5,0c0.2-0.1,0.3-0.2,0.5-0.3
		C671.1,870.2,671.1,870.3,671.1,870.4z M670.4,871.9c0,0,0.3,0,0.5-0.1c0.5,0.2,1,0.3,0.9,0.5C670.1,872.3,670.4,872.1,670.4,871.9
		z M671.9,872.9c0.2,0.4-2,0.8-0.4,1.2C669.8,873.6,671,873.3,671.9,872.9z M673.4,880.9c0,0-0.1,0.1-0.1,0.1c-0.2,0-0.3,0-0.5-0.1
		c0,0,0,0,0,0c0.3-0.3-0.4-0.3-1.6-0.3c0,0,0,0,0,0C672.6,880.5,673.7,880.5,673.4,880.9z M672.5,863.5c0-0.3-0.1-0.5-0.1-0.8
		c0.8,0.1,1.5,0.1,2.1,0.2c0,0.1,0,0.1,0,0.2C672.3,862.9,672.9,863.3,672.5,863.5z M673.9,874c-0.1-0.1,0.2-0.2,0.8-0.1
		c0.4,0,0.6,0.1,0.8,0.2c0.1,0-0.4,0.1-0.8,0.2C674.4,874.2,674,874.1,673.9,874z M675.4,880.3c-0.1,0-0.2,0-0.3,0
		c0.1,0,0.1,0,0.2-0.1c0.1,0,0.2,0,0.3,0C675.5,880.2,675.5,880.3,675.4,880.3z M676.1,868.5c0.6,0.1,1.3,0.2,0,0.3
		C676.1,868.7,676.1,868.6,676.1,868.5z M676.6,870.1c0.1,0,0.2,0,0.2,0c0.1,0,0.2,0.1,0.3,0.1C677,870.2,676.8,870.1,676.6,870.1z
		 M677.2,864.6c-0.1,0-0.2,0-0.3,0C677,864.5,677.1,864.5,677.2,864.6L677.2,864.6z M677.6,865.1l0.1-0.1l0.1,0.1L677.6,865.1z
		 M675.5,863.8c0.6-0.2,1.6-0.1,2.3-0.2C677.2,863.7,676.6,863.9,675.5,863.8z M677.9,847.6c0.1,0,0.2,0,0.1,0c0,0-0.1,0.1-0.2,0.1
		c-0.1,0-0.2,0-0.2,0C677.7,847.7,677.8,847.6,677.9,847.6z M677.4,846.9c0,0.1,0,0.1,0,0.2C676.6,847,677.3,847,677.4,846.9z
		 M693.7,827c-0.6,0.3-2,0.7-3.6,1c-1.6,0.3-3.3,0.7-4.9,1c-1,0.2-2.8,0-5.5-0.1c1.7-0.5,3.1-0.8,4.3-1.2c0.6-0.2,1.2-0.3,1.8-0.5
		c0.7-0.1,1.4-0.3,2.2-0.4C691.5,826.3,695.7,826,693.7,827z M699.6,821.9c-4.3,0.5-8.3,1.1-12.7,2.4c4.4-1.3,8.4-2.1,12.4-2.7
		c1-7.7,2.9-15.2,4.5-22.2C703,806.6,700.9,814.5,699.6,821.9z M705.7,784.7c-1.6-2-0.4-8.4,0.4-14c0.1-0.6,0.5-1.1,0.8-1.7
		C706.8,773.9,706.7,778.6,705.7,784.7z M711.1,771.6l-0.4,0.4l0.1-1.6c0.1-0.1,0.3-0.5,0.3-0.3
		C711.2,770.4,711.1,771.1,711.1,771.6z M712.8,728.5l-0.6,0l1.8-9L712.8,728.5z M720.3,724.1c0-1.7,0-3.4,0.1-5.1
		c0.1,0.3,0.2,0.5,0.2,1C720.5,721.3,720.4,722.7,720.3,724.1z M724.9,683l1.2-8.9C726.3,677,726.7,680,724.9,683z M723,551.9
		c-2.4,17.2-4.9,34.3-7.5,51.5c-4.5,30.1-8.4,60.8-13.4,90.4c-3.5,20.8-6.7,41.6-9.8,62.5l-4.4,31.3l-2.1,15.7l-0.4,3.1l-0.1,1.2
		l-1.7,0.3l-9,1.3l-22,3.1c-14.7,2-29.4,4.1-44,6.1c-75.9,10.1-152.1,21.3-227.8,33.3l-0.4,0.1l-0.2,0l-0.4,0.1l-0.6,0l-2-0.2
		l-4.4-0.5l-8.8-1.1c-5.8-0.7-11.7-1.5-17.5-2.2c-11.7-1.5-23.4-3-35.1-4.5c-23.4-3.1-46.7-6.3-69.8-9.7
		c-50.4-7.4-100.6-15.5-151.4-22.3l-13.8-1.8l-3.6-0.4l-44.2-304l3-22.4c7.9-59.2,15.5-118.5,23.7-177.7c4.1-29.4,9-58.8,12.6-88.4
		c1.4-11.7,0.9-23.6-0.6-29.1c16.6-1.3,30.6-7.1,46.3-9.1c0,0-0.1,0-0.1,0.1c-0.7,0.3-1.4,0.5-2,0.8c3.9,0.6,0.9,2.7,7.3,2.8
		c2.6,0,7.6,0.2,0.4,1.4c-18.9,3.2-8.6,3.5-2.1,3.6c20.2,0.4,37.9,3,68.9-4.4c10.7-2.6,21.7-4.7,32.3-4.1c1.6,0.1,6.1-0.6,8.8-1.1
		c28-5.6,58-7.5,85.8-13.3c11.2-2.4,22.6-4.3,34.1-6c5.8-0.8,11.5-1.6,17.3-2.5c5.2-0.7,10.3-1.4,15.5-2.1
		c6.2,0.9,12.3,1.8,18.5,2.6c53.7,7.2,107.4,14.3,161.1,21.5c5.4,0.7,14.5,0.9,16.2,3.4c-2.8,0-10.6-1.7-8.1,0
		c1.6,1.1,7.4,1.1,10.9,1.1c25.4,1.9,49.4,4.3,77.6,8.4c10.3,1.5,20.7,3,31.3,4.6c3.6,25.9,7.3,52.1,11,78.2
		c3.4,23.8,7.8,48.5,10.5,71.3c3.1,26.6,6.5,53.2,10.2,79.7c3.7,25.9,7.3,51.9,11,77.8C727.6,518.7,725.3,535.3,723,551.9z
		 M737.4,612.6l0-2.6l0-1.6l0.1,1.5L737.4,612.6z M747.4,497.4c0.3,1.1,0.7,2.9,1.1,4.6c-0.1,0.6-0.1,1.3-0.2,2
		c-0.1,0.6-0.2,1.2-0.3,1.9c-0.2,1.1-0.5,2.2-0.8,3.5c0.1-1.2,0.2-2.3,0.2-3.4l0.1-1.9c0-0.7,0.1-1.4,0.1-2.1
		c-0.7-3.2-1.1-5.4-1.2-8.6C746.7,494.9,747.1,496.1,747.4,497.4z M747.2,516.8l-0.6-2.5c0.2,0.3,0.4,0.6,0.6,1
		C747.3,515.6,747.2,516.3,747.2,516.8z M741.5,576.7l-0.2-0.5l0.4-1.6L741.5,576.7z M743.2,559.8l-0.2-1.4L743.2,559.8L743.2,559.8
		z M742.2,527.9c1-7.8,2.1-15.6,3.2-23.7c0.6,2.2,1.2,3.8,1.7,5.5c-0.1,1.5-0.3,2.9-0.6,4.4C744.2,511.3,743.6,521.3,742.2,527.9z
		 M744.3,537.3c1.4-5.5,2.3-3,3.4-4.7C746.5,535.2,745.3,539.2,744.3,537.3z M747.8,532.2c0.6-3.9,1.2-7.8,1.9-12.4
		C749.8,525.2,748.9,528.8,747.8,532.2z"/>
	<g>
		<path class="st1" d="M647.2,811.6l38-5.4c-1.8-9.3-7.3-19.6-11.3-24.2c-13.7-15.9-54.6-42.9-66-51.9c-32.2-20.8-66.5-38.5-98-60.4
			c-26.5-18.3-30.3-34.2-15.5-63c5.5-10.7,12.8-19.4,23.8-25.6c16.6-9.5,23.5-26.4,28.1-43.9c5.2-19.3,7.8-38.8-2.5-57.7
			c-1.5-2.8-0.2-5.8,0.2-8.7c6.8-45.5,7.8-90.7-10-134.2c-20.4-49.9-57.1-79.6-111.1-86.8c-6.9-0.9-14.2-1.4-21-0.3
			c-28.2,4.8-57.2,4.5-84.8,12.7c-51.2,15.1-84.6,48.5-100.5,99.2c-11.4,36.5-11.6,73.5-3.5,110.6c1.2,5.2,0.6,9.7-1.5,14.7
			c-6.7,16.4-3.8,33.1,0.5,49.4c5.4,20.3,14,38.2,34.4,48.6c15,7.7,28.5,42.1,25,58.8c-1,4.7-3.5,8.5-6.7,11.9
			c-4.9,5.4-10.5,10.2-16.6,14.3c-31.8,21.7-65.8,39.5-98.1,60.4c-11.9,9.3-38.2,31.5-49,42.1c-22.1,21.6-28.9,31.9-30.4,37.1
			l2.1-1.8l40.7,5.9c0.2-1,1.1-2.2,2.9-3.6c13.8-10.9,52-50.7,67.4-59.2c20.5-14.1,42.5-25.6,63.7-38.7
			c10.6-6.5,20.7-13.7,30.6-21.3c25.1-19.2,33.4-44.1,25.8-74.6c-5.7-22.6-16.7-42.1-34.2-57.6c-1.6-1.4-3.2-3.4-5.1-3.9
			c-8.8-2.5-12.8-9.3-15.7-17.1c-4.3-11.5-7.3-23.2-6-35.6c0.1-1,0.6-2.1,1.4-2.9c8.5-9,6.3-18.8,3.7-29.5
			c-8.7-36.2-8.7-72.3,5.1-107.6c16-40.9,47.4-62.6,89.4-70c22-3.9,44.4-7.4,66.7-7.9c41-1,76.4,24.8,91.8,62.8
			c15.6,38.6,15,78.1,8.9,118.2c-0.8,5.6-1.9,11.2-2.6,16.8c-0.5,3.9-0.3,8.2,2.5,10.8c8.1,7.4,6.5,16.8,5.3,25.7
			c-1.3,9.7-4.4,18.9-9.3,27.5c-1.4,2.3-2.7,4.6-5.4,5.8c-31.1,14.4-53.7,61.5-47.9,99.1c2.7,17.3,14.7,29.1,27.5,39.9
			c18.7,15.7,40.5,26.9,61.2,39.6c11,6.8,22.7,12.6,33,20.5c15.5,8.5,58.5,42.9,72.3,53.7C650.6,807.6,649.9,809.3,647.2,811.6z"/>
		<path class="st2" d="M183.9,750.6c20.5-14.1,42.5-25.7,63.7-38.7c10.6-6.5,20.7-13.7,30.6-21.3c25.1-19.2,33.4-44.1,25.8-74.6
			c-5.7-22.6-16.7-42.1-34.2-57.6c-1.6-1.4-3.2-3.4-5.1-3.9c-8.8-2.5-12.8-9.3-15.7-17.1c-4.3-11.5-7.3-23.2-6-35.6
			c0.1-1,0.6-2.2,1.3-2.9c8.5-9,6.3-18.8,3.7-29.5c-8.7-36.2-8.7-72.3,5.1-107.6c16.1-40.9,47.4-62.6,89.4-70
			c22-3.9,44.4-7.3,66.7-7.9c41-1,76.4,24.8,91.8,62.8c15.6,38.6,15,78.1,9,118.2c-0.8,5.6-1.9,11.2-2.6,16.8
			c-0.5,3.9-0.3,8.2,2.5,10.7c8.1,7.4,6.5,16.8,5.3,25.7c-1.3,9.6-4.4,18.9-9.3,27.5c-1.4,2.4-2.7,4.6-5.4,5.8
			c-31,14.4-53.7,61.5-47.8,99.1c2.7,17.3,14.7,29.1,27.5,39.9c18.7,15.7,40.5,26.9,61.2,39.6c11,6.8,22.7,12.6,33,20.5
			c-4.8,4.4-10.7,7.2-16.5,10.1c-41.4,20.8-85.1,33.7-131.1,39.4c-29.4,3.6-58.7,4-87.9,1.1c-35.1-3.5-69.2-11.8-102.1-24.3
			C218.2,769.9,199.9,762.5,183.9,750.6z"/>
		<path class="st3" d="M647.2,811.6l-50.3,7.1l-46.4,6.3l-93.2,13.4l-77.5,12.1l-86.3-10.9l-98-14.3l-81.9-11.9
			c0.2-1,1.1-2.2,2.9-3.6c13.8-10.9,52-50.7,67.4-59.2c16,11.9,34.3,19.3,52.7,26.3c32.9,12.6,67,20.8,102.1,24.3
			c29.3,2.9,58.6,2.5,87.9-1.1c46.1-5.6,89.8-18.6,131.2-39.4c5.7-2.9,11.6-5.7,16.4-10.1c15.5,8.5,58.5,42.9,72.3,53.7
			C650.6,807.6,649.9,809.3,647.2,811.6z"/>
	</g>
</g>
</svg>
