<svg id="Camada_1" data-name="Camada 1" xmlns="http://www.w3.org/2000/svg" viewBox="0 0 1000 1000"><defs><style>.cls-1{fill:#fdf9f2;}.cls-2{fill:#6a9dc4;}.cls-3{fill:#d43e20;}.cls-4{fill:#ffd7b5;}.cls-5{fill:#ffc6a6;}.cls-6{fill:#46134b;}.cls-7{fill:#ff918b;}.cls-8{fill:#ffb38d;}.cls-9{fill:#ad3320;}.cls-10{fill:#ffac7e;}.cls-11{fill:#ffb240;}.cls-12{fill:#fff;}</style></defs><path class="cls-1" d="M998.29,506.39a33.5,33.5,0,0,0-1.39-3.91c-.63-1.17-1.8-2.31-.44-3.86h0c.7.24.51,1,2.64.9-1-.55.52-1.9-2.33-1.2-.46-1-2.16-1.53-3.29-2.16s-1.77-1.35-.24-3.12c3.5-2.51,3.43-4,0-4.48,1.84-.76,1.48-1.13.54-1.37-.78-.21-2.51.1-2-.76,1.27-2.34-1.06-2.36-2-3.24s-1.15-2-3.32-1.32c-.26.08-.17-.64-.29-1l.06,0h0l0-.1-.1.11a4.74,4.74,0,0,1-1.21,0c-1-.4-1.34-1.25-.24-3.19-1.82.58-3.26.86-3.74-.36l.2-.64c.06-.3-1.42.62-.19-.46,2.16-1.85,2.78.13,4.94-.58-.31-1.58-1.72-1.71-3.11-1.61s-2.9.53-3.6-.35c1.27-1.45,1.68,0,2.91-1.13-.39-1.49-1.56-1.45-3-1-2,.64-3.59,1-4.71-.31a12.18,12.18,0,0,0-4.65-3,3.14,3.14,0,0,0,.53-.44c-.06-.27-.11-.55-.13-.67-.33-.19-.6,0-.7.49a.87.87,0,0,0,.08.53c-.78-.32-1.54-.73-2.32-1.09-3.44-1.74-7.52-1.19-11.17-.89h0c-.23-.64-.49-.64-.72,0-.52,0-1,.32-1.55-.29-.81-.86-2-1-2.52.2-1.41,3.75-3.39,2.82-5.33,3.39a34.48,34.48,0,0,0-3.47.6,3.62,3.62,0,0,0-2.67,2.51c.87,1,1,1.43.86,1.73l-.63.31c-.55-1.06.81-.66-.23-2a5,5,0,0,0-3-.38,1.81,1.81,0,0,0-1.44,1.77c0,1.84-.78,2.21-1.67,2.51s-2,.33-2.42,1.28c-1.09,2.87-3.89,4.09-5.61,6.44-.67-2.58,2-2.65,1.13-6-3.45,2-6.15,4.84-6.55,8.73-1.07-.25-1.3-.08-.58.86.86,1.14.8,2.11-.44,2.25-1.55.18-1.7,0-1.71.26a32.43,32.43,0,0,1,0,4.3,2.11,2.11,0,0,1-1.42-.31,1.9,1.9,0,0,0-2.47.27c-.65.54-1.25,2.11-1.89,2.26-1,.25-2.09-.63-3.13,1-.34.53-.78-.63-1.09,1.31-.2-.72,0-5.48-.63-1.69-.33-1.58-.64-2.15-.93.26-.14.48-.25,1.75-.48.57.12-1,.33-.24.47-.64.07-2.08-.26-1.46-.45-1.71s-.39.4-.44-1c0-1.09,0-2.81-.35-2-.21.42-.49.66-.48,2.61,0,1.75-.05,1.75-.48.85v0c-.31.58-.71,1-.94.13-.73-2.63-1.36.22-2,.32-.15,1.4.16,1.24.25,1.89-.34.8-.63,0-.91-.73.08-.64.33,0,.33-1.21l-.15-.78c.05.25.1.5.16.74h.31c0-1.45.58-2.35.42-2.77-.59-1.46-1.26-2.82-1.78.82-.2-1-.59,2.41-.72-1.08-.07-1.89-.57-1.11-.83-.77-.67.89.11,1.15,0,1.64-.31,2.39-.89,1.23-1.32,2.55-.31.95-.27-1.93-.4-3.05.21.16.43.43.64-.57-.44-1.23-.85-1.73-1.36-.61.31.88.12,2.86.42,3.64a4,4,0,0,1,0,2.44h0c0-.79,0-1.59,0-2.38-.2,0-.37,1-.58.23h0a1.4,1.4,0,0,0,0-.79c0-.05-.07.24-.11.37-.17-1.72-.33-3.58-.75-1.31h0c-1,.53.35-2.05-.11-2.35-.36,0-.71.19-1.06.29-.72.19-1.39,1.82-2.11,1.47h0c-.1-.16-.12,0-.09.47-.26,1.2-.59.28-.89.67h0c-1-2.77-1.95.17-2.91.6-.25.11-.74-.14-.87,2.19-.33-3.33-.8-.76-1.2-.73,0-.42,0-.84,0-1.26h0c0-.4,0-.52-.07-.32l-.28.23a6.49,6.49,0,0,0-.2,2.19c.14.94.31-.49.49-.42l0,1.4c-.69.45-1-1.91-1.24-4.59h0a4.36,4.36,0,0,0,0-1.65c-.17-.53-.28.1-.37.77v0c-.14-.58-.12-2.12-.42-1.72a4.2,4.2,0,0,0-.2,1.78,1.38,1.38,0,0,1,.06.16c0,.08,0,.26,0,.27-.23,1.44-.54,1.59-.88,1.51-.52-.14-1.1-2.09-1.55,1.19-.06.39-.35.63-.45-.65-.17-2-.43-1.41-.69-.58s-.48,1.42-.79,2.33c.18-2.79-.06-3.24-.42-2s-.62,1.74-.92-.66c-.19-1.49-.48-1.58-.54.83.5.8.1,1.66,0,2.63a14.11,14.11,0,0,1,0-2.59c-.27-.23-.52.25-.78.3-.65.13-1,3.86-1.67,3.52a3.92,3.92,0,0,0,.13-1.72c-.19-.69-.21.51-.25,1.2-.94,1.37-1.43-1.13-1.71-6.13-.26,1.1-.52,2.28-.89,1.61l-.09.49a24.45,24.45,0,0,0-.41,3.87c-.19.51-.39,1-.59,1.52h0a2.12,2.12,0,0,0-.11-.21c0,.19,0,.38.05.57a11.51,11.51,0,0,0-.1,2.67c.54-2.47,1.23-1.23,1.87-2.15-.6,1.87-.84,6.66-1.84,5.21-.19-.27-.63-.88-.77,1.31,0-.55,0-1.41-.15-1.35a3.2,3.2,0,0,0-.17,1.09c0,1,.14.75.25.69.13,1,0,2.41.24,3.28.08.34.25,1.09,0,1.29-.65.54-.3,2-.08,2.86.68,2.82,1.27,7.15,2.35,4.44.38-.94.76-1.49,1.12.37.05.28.21.25.3.11,1-1.48,2,.49,3-1.25s2-1,3.09-1c1.85-.11,3.7-.53,5.56-.72.19,0,.49-.95.57,1-.1.35-.37-.17-.28.94.06.74.26.1.37-.37.87-1.38,1.7-2.25,2.67-2a15.8,15.8,0,0,0,4.45.09c.83-.07,1.68-.95,2.47-.48,3,1.78,6,0,9.06.87,1,.31,2.1,0,3.13.77,2.45,1.9,4.92.47,7.37.81a11.59,11.59,0,0,0,1.86.09c0,.17.21.26.75.14a2.1,2.1,0,0,0,.58-.27,14.48,14.48,0,0,0,3.58-1c.07.93-1.75,2.47-1.09,3.59a6.76,6.76,0,0,0,1.69-2.18c.36.87.76,1.71,1.18,2.54-.16-.33-.47-.53-1.35-.45a2.15,2.15,0,0,0-.81.55c-.16.92.62,1.3,2.55,1.12a8.3,8.3,0,0,1-.37-1.19,35.59,35.59,0,0,0,7.61,10.09l-1.44-.6A8.23,8.23,0,0,1,926.5,530c-.79-1.32-.38-3.25-1.62-4.17-.31-.22-.55-.67-1.48,0-.65.48-2,1.45-1.58,1.76,1.13.85.73,2.81,2.51,3.16.74.12.93.63.92,1.42a3.57,3.57,0,0,0,1.67,3.21,11.45,11.45,0,0,0,3.54,1.08c1.74.24,2.68,1.63,4.64,1.22.54-.13,0,1-.36,1.75a2.69,2.69,0,0,0-3.15,1.54c-.9,1.59,0,2.82,1.34,2.19,1.65-.79,2.47-.08,3.45.45s1.94,1.12,3.38.08c.09-.07.15.69.23,1.08-.94,1.25-2.12.21-2.6,2.18s1.12,1.24,1.91,1.5a22,22,0,0,0,3.27.81,8,8,0,0,1,3.26,1.16,11,11,0,0,0,4.81,1.58,8.27,8.27,0,0,0,5.07-1.63c.88-.68,1.91-1.15,2.87.59.48.85,1,.48,1.52.63,1.21.31,2.4-.45,3.57-.76s2.34-.33,4,1.63c.09.11.34,0,.41-.18.94-2.39,3.05-2.54,3.61-5.34.42-2.32,2.24-3.48,4.26-1.72,2.37,2,3.68,1.56,4.87.73,3.39-2.6,7-5,9.66-8.42.86-.94,1.64-2,2.43-3a14.89,14.89,0,0,0,2.06-3.25,10.18,10.18,0,0,0,.69-7.85c-.17-.46.19-.69.82-.74,2.94-.23,2.84-2.06,2.59-3.72-.08-.78-.53-1.67-.11-2.25a6.92,6.92,0,0,0,.59-6.26A42.49,42.49,0,0,1,998.29,506.39ZM874,505.85a3.37,3.37,0,0,1-.07.62c-.57-2.2-1,2.15-1.58.66-.17-2.37.79-1.35.34-4.22.36,0,.72-.12,1.07.06S874,504.74,874,505.85Zm2.1-.26c-.5,1.24-1,1.26-1.49,0,.15-1.12.15-.85.43-.8s.57-1.74.94-1.48c.17.11.39-.59.43.85A2.23,2.23,0,0,1,876.1,505.59Zm1.9-5.15a1,1,0,0,1,.12-.32c0,.18.06.35.08.52s-.07.31-.11.31S877.92,501.08,878,500.44ZM877,503a7.6,7.6,0,0,1,.46-2.47A5.74,5.74,0,0,1,877,503Zm.22,2.32c.5-2.38,1-1.66,1.65-1C878.17,505.12,877.75,505.89,877.18,505.35Zm2-2.57-.09.45c0-.17,0-.33.08-.49s.08-.52.13-.78Zm.85,1.61a2.92,2.92,0,0,1,0-.33c.09-.47.16-.08.23.17Zm.38.28c0-.1-.06-.24-.1-.37.06.1.11.2.16.3S880.42,504.71,880.4,504.67Zm.52-3.66c0-.14,0-.28-.08-.43a.78.78,0,0,1,0-.24s.06.08.1.13S880.94,500.84,880.92,501Zm4.24-1.43.19-.05C885.29,500.38,885.22,499.73,885.16,499.58Zm.78-.19c0-.07-.08-.17-.12-.26s0-.16,0-.15a1.17,1.17,0,0,1,.12.2A2,2,0,0,1,885.94,499.39Zm5.78,1.46-.06-.13.07-.05Zm9.56.78a.84.84,0,0,1,.05-.17c0,.27-.05.54-.08.81Zm-.71,1.23c.18-.31.3-1.3.51-.49C900.92,502.56,900.78,503.43,900.57,502.86Zm.34,1.68c.07-.77.12-1.46.18-2.14a.1.1,0,0,1,.15,0c-.08,2.3.26,1.67.49,2.05Zm.51-5.7c.18-.66.31-.26.43.2Zm.62,2.63a12.92,12.92,0,0,1-.17-2.34A10.2,10.2,0,0,1,902,501.47Zm.72-1.4,0-.32h0Zm.61-.66,0-.13.07-.09Zm1.16-.68a1.74,1.74,0,0,1,0,.22l0-.25.09-.29Zm2.23,2.13c.1-.55.2-1.27.31,0Zm1.58-.72c0-.12.1-.2.14-.3-.05.18-.11.37-.17.55C908.32,500.3,908.33,500.18,908.34,500.14Zm0,5.74.31,0v.5C908.57,506.18,908.46,506,908.36,505.88Zm4.85-.57-.05.11v-.19Zm-3.07-3.23v.29s0,.08,0,.13a1.3,1.3,0,0,1,0-.27A.33.33,0,0,1,910.14,502.08Zm0,4.51a3.23,3.23,0,0,1-.06-.49c.16-.53.32-1,.54-.88C910.55,506.85,910.32,506.58,910.13,506.59Zm1-1.51c.4-.19.77,1.95,1.18.42C911.87,507.14,911.49,506,911.11,505.08Zm1.16-2c-.1.11-.21-.15-.14-.79a1.77,1.77,0,0,1,.24-.77,4.14,4.14,0,0,1,.18.76A3.73,3.73,0,0,1,912.27,503.05Zm82-12.56c-1.77.77-1.71,0-2.46-.33C993.66,489.63,994.13,489.92,994.3,490.49Zm-77,13.64a2,2,0,0,1,.14-.54c.18.21.16.63.11,1.19,0,.32,0,.89-.12.59A7,7,0,0,1,917.28,504.13Zm1.16-2.46c0-.06,0-.18,0-.28a.49.49,0,0,1,.06.16c0,.07,0,.2,0,.3A.78.78,0,0,1,918.44,501.67Zm.77,2.56,0,0c-.26-.33-.32.4-.26,1.58v0c-.19-1.44-.18-2.51.22-2.22l.12.12C919.24,503.88,919.22,504.06,919.21,504.23Zm23.62-31.74.19.32-1,.2Zm-5.62,68.11c-.7-.69-2-.12-2.92-.35l.47-.74a17.58,17.58,0,0,1,2.38-1.9c.41.24.81.51,1.22.73l-.22.18a3.47,3.47,0,0,0-.32.62l.95,0C938.28,540.66,937.65,541,937.21,540.6Zm4.6,2c-.46-1.14-1.31-1.29-2.2-2a6.92,6.92,0,0,0,1.79-.77c.62.26,1.27.47,1.91.7a1.92,1.92,0,0,0,.25.38C943,542.64,942.22,543.55,941.81,542.58Zm1.78-1.72.11-.21.5.19A1,1,0,0,1,943.59,540.86Zm23,0h0v0Zm.47,7.78a2.41,2.41,0,0,1-.11-.33,1.51,1.51,0,0,1,.37,0,1.65,1.65,0,0,1,.13.32A1.71,1.71,0,0,1,967,548.6Zm24.45-56.75c1.27,0,1.25.72,1.69,1.16C992.38,492.75,991.28,492.71,991.48,491.85Z"/><path class="cls-1" d="M983.47,361a30.63,30.63,0,0,0-1.39-3.91c-.62-1.17-1.79-2.32-.43-3.86h0c.7.24.5,1,2.64.9-1-.55.51-1.9-2.33-1.2-.47-1-2.16-1.53-3.29-2.17s-1.78-1.35-.25-3.11c3.5-2.51,3.44-4,0-4.48,1.84-.77,1.48-1.13.55-1.37s-2.51.1-2-.76c1.27-2.34-1.06-2.36-2-3.24s-1.15-2-3.32-1.32c-.26.08-.18-.64-.29-1h0l.06-.1-.1.1a4.35,4.35,0,0,1-1.21,0c-1-.4-1.35-1.25-.24-3.19-1.83.57-3.27.86-3.75-.36l.2-.64c.07-.3-1.42.61-.19-.46,2.16-1.85,2.79.13,4.94-.58-.31-1.58-1.71-1.72-3.11-1.61s-2.9.53-3.6-.35c1.27-1.45,1.68,0,2.91-1.13-.39-1.49-1.56-1.46-3.05-1-1.95.64-3.58,1-4.7-.32a12.36,12.36,0,0,0-4.65-2.94,3.58,3.58,0,0,0,.52-.44c-.05-.28-.1-.55-.13-.68-.32-.18-.6,0-.7.5a.81.81,0,0,0,.09.53c-.79-.32-1.55-.73-2.33-1.09-3.43-1.74-7.52-1.19-11.17-.89h0c-.23-.64-.48-.64-.72,0-.51,0-1,.33-1.55-.28-.81-.86-2-1-2.51.19-1.41,3.76-3.39,2.82-5.34,3.39-1.11.28-2.35.22-3.47.61a3.59,3.59,0,0,0-2.66,2.5c.87,1,1,1.44.85,1.74l-.62.3c-.56-1.05.8-.65-.24-2a5.1,5.1,0,0,0-3-.39,1.81,1.81,0,0,0-1.43,1.78c0,1.84-.79,2.21-1.68,2.51s-2,.32-2.42,1.28c-1.09,2.87-3.88,4.09-5.6,6.43-.68-2.57,2-2.64,1.12-6-3.44,2-6.14,4.84-6.55,8.73-1.07-.25-1.29-.08-.58.86.87,1.14.81,2.11-.43,2.25-1.55.18-1.7,0-1.72.26a30.67,30.67,0,0,1,0,4.29,2,2,0,0,1-1.41-.3,1.9,1.9,0,0,0-2.48.27c-.64.54-1.24,2.1-1.89,2.26-1,.24-2.09-.63-3.12,1-.35.53-.78-.63-1.09,1.31-.21-.72,0-5.48-.64-1.7-.32-1.57-.64-2.14-.92.26-.15.49-.26,1.76-.49.58.13-1,.33-.24.48-.64.06-2.08-.26-1.46-.46-1.71s-.39.4-.44-1c0-1.09,0-2.81-.35-2-.21.42-.48.66-.47,2.61,0,1.74-.06,1.75-.48.85v-.15a.53.53,0,0,0,0,.13c-.32.58-.72,1-.95.13-.72-2.63-1.36.21-2,.32-.16,1.39.15,1.24.25,1.89-.35.8-.63,0-.91-.74.07-.63.32,0,.32-1.2l-.15-.78c.06.25.11.49.16.74h.31c0-1.46.59-2.35.42-2.77-.58-1.47-1.25-2.82-1.78.82-.19-1-.58,2.4-.72-1.08-.07-1.89-.56-1.12-.82-.77-.67.88.11,1.15.05,1.64-.31,2.39-.89,1.23-1.32,2.55-.31.94-.27-1.94-.41-3.05.22.16.43.43.64-.57-.44-1.23-.84-1.74-1.35-.61.3.88.12,2.86.42,3.63a4,4,0,0,1,0,2.45h0c0-.8,0-1.59,0-2.38-.19,0-.37,1-.58.23h0a1.44,1.44,0,0,0,0-.8,1.93,1.93,0,0,0-.1.38c-.17-1.72-.33-3.58-.76-1.31h0c-1,.54.36-2-.11-2.34-.35-.05-.7.19-1.06.28-.71.2-1.38,1.82-2.1,1.47h0c-.1-.17-.13,0-.09.47-.27,1.2-.6.28-.89.67h0c-1-2.76-2,.18-2.92.6-.25.11-.74-.13-.87,2.19-.33-3.32-.79-.75-1.2-.72,0-.42,0-.84,0-1.26h0c0-.41,0-.52-.06-.32L870,351a6.81,6.81,0,0,0-.2,2.19c.15.95.32-.48.49-.41,0,.46,0,.93,0,1.39-.69.46-1-1.9-1.25-4.58h0a4.17,4.17,0,0,0,0-1.65c-.16-.53-.27.09-.36.76h0v0c-.14-.58-.13-2.13-.43-1.72a4.2,4.2,0,0,0-.2,1.78.38.38,0,0,1,.06.16c0,.07.05.26.05.27-.23,1.44-.53,1.59-.87,1.5-.53-.13-1.11-2.08-1.56,1.2,0,.39-.35.63-.45-.65-.17-2-.42-1.41-.69-.58s-.48,1.42-.78,2.33c.18-2.79-.07-3.24-.42-2s-.63,1.74-.93-.66c-.18-1.5-.48-1.59-.54.82.51.81.1,1.67,0,2.64a14.14,14.14,0,0,1,0-2.59c-.26-.23-.52.25-.77.3-.65.13-1,3.86-1.68,3.52a3.64,3.64,0,0,0,.13-1.72c-.19-.69-.21.51-.25,1.2-.94,1.36-1.43-1.13-1.7-6.13-.27,1.1-.53,2.28-.89,1.61l-.09.48a24.72,24.72,0,0,0-.41,3.88l-.59,1.52h0l-.12-.22c0,.19,0,.38,0,.57a11.17,11.17,0,0,0-.09,2.68c.53-2.47,1.23-1.24,1.87-2.15-.6,1.86-.85,6.66-1.84,5.21-.19-.27-.63-.88-.77,1.31,0-.55,0-1.41-.16-1.35a3.48,3.48,0,0,0-.17,1.09c0,1,.14.75.26.69.13,1,0,2.41.23,3.27.09.35.26,1.1,0,1.3-.66.53-.31,1.95-.09,2.86.68,2.82,1.27,7.14,2.36,4.44.37-.94.75-1.49,1.11.36.06.29.21.26.3.12,1-1.48,2,.48,3-1.25s2.06-1,3.09-1c1.86-.11,3.71-.54,5.56-.72.19,0,.5-.95.57,1-.09.35-.37-.17-.27.94.06.74.25.09.37-.37.87-1.38,1.69-2.25,2.67-2.05a15.79,15.79,0,0,0,4.45.09c.82-.07,1.68-.95,2.46-.49,3,1.79,6.05,0,9.07.87,1,.32,2.1,0,3.13.78,2.45,1.9,4.91.47,7.37.81a11.41,11.41,0,0,0,1.85.09c0,.16.22.25.75.14a2.68,2.68,0,0,0,.58-.27,14.56,14.56,0,0,0,3.59-1c.07.93-1.75,2.47-1.09,3.59a6.91,6.91,0,0,0,1.69-2.18c.35.87.76,1.71,1.18,2.54-.16-.33-.48-.53-1.35-.46a2.21,2.21,0,0,0-.82.56c-.15.92.63,1.3,2.56,1.12a10,10,0,0,1-.38-1.19,35.8,35.8,0,0,0,7.62,10.09l-1.44-.6a8.23,8.23,0,0,1-3.15-2.44c-.8-1.32-.39-3.26-1.62-4.17-.31-.22-.55-.67-1.48,0-.66.49-2,1.45-1.59,1.77,1.14.85.74,2.81,2.52,3.16.74.12.93.62.92,1.42a3.53,3.53,0,0,0,1.66,3.2,11.37,11.37,0,0,0,3.54,1.09c1.75.24,2.69,1.63,4.65,1.22.53-.13,0,1-.36,1.75a2.71,2.71,0,0,0-3.16,1.54c-.9,1.59,0,2.81,1.34,2.19,1.66-.8,2.47-.08,3.45.45s2,1.11,3.38.08c.1-.07.15.69.24,1.08-.95,1.25-2.13.21-2.6,2.18s1.12,1.24,1.9,1.5a23.61,23.61,0,0,0,3.27.8,8.08,8.08,0,0,1,3.26,1.17,11,11,0,0,0,4.82,1.58,8.36,8.36,0,0,0,5.07-1.63c.87-.68,1.9-1.15,2.87.59.48.85,1,.48,1.51.63,1.22.31,2.4-.45,3.58-.76s2.33-.33,4,1.63c.08.1.34,0,.4-.19.94-2.38,3-2.53,3.61-5.33.43-2.32,2.25-3.48,4.27-1.72,2.37,2,3.68,1.56,4.86.73,3.39-2.6,7-5.05,9.66-8.42.87-.94,1.65-2,2.44-3a15.3,15.3,0,0,0,2-3.26,10.11,10.11,0,0,0,.69-7.84c-.17-.47.19-.69.82-.74,3-.23,2.85-2.06,2.6-3.72-.09-.78-.53-1.68-.11-2.26a6.9,6.9,0,0,0,.59-6.25A42.63,42.63,0,0,1,983.47,361Zm-124.28-.55c0,.2-.05.42-.07.63-.57-2.2-1,2.15-1.58.66-.18-2.38.78-1.36.34-4.22a2.29,2.29,0,0,1,1.07.06C859.31,357.81,859.18,359.39,859.19,360.49Zm2.1-.25c-.5,1.23-1,1.25-1.49-.06.15-1.12.14-.85.43-.79s.57-1.74.94-1.49c.16.12.39-.58.43.86A2.32,2.32,0,0,1,861.29,360.24Zm1.89-5.15a1,1,0,0,1,.13-.32c0,.18.05.35.08.52s-.08.3-.11.31S863.1,355.73,863.18,355.09Zm-1,2.59a7.34,7.34,0,0,1,.46-2.47,5.6,5.6,0,0,1-.46,2.47Zm.22,2.32c.49-2.38,1-1.67,1.64-1C863.35,359.77,862.93,360.54,862.37,360Zm2-2.57c0,.15-.05.3-.08.44,0-.16.05-.32.08-.48l.12-.78Zm.86,1.61a3.22,3.22,0,0,1,0-.33c.09-.48.16-.08.24.16Zm.38.28a3.29,3.29,0,0,1-.1-.37l.16.3S865.6,359.36,865.59,359.32Zm.51-3.67c0-.14-.05-.27-.07-.43a1.37,1.37,0,0,1,0-.23s.07.08.1.12C866.15,355.31,866.13,355.48,866.1,355.65Zm4.24-1.42.2-.05C870.48,355,870.41,354.37,870.34,354.23Zm.78-.2a2,2,0,0,1-.12-.25c0-.06,0-.16,0-.15a1.2,1.2,0,0,1,.11.2C871.15,353.91,871.13,354.05,871.12,354Zm5.78,1.47,0-.13.06-.05Zm9.57.78a.38.38,0,0,1,0-.17l-.08.8C886.45,356.7,886.45,356.49,886.47,356.28Zm-.71,1.23c.17-.31.3-1.3.5-.49C886.1,357.21,886,358.07,885.76,357.51Zm.34,1.68c.06-.78.12-1.46.17-2.14a.1.1,0,0,1,.15,0c-.08,2.3.26,1.67.49,2Zm.51-5.7c.18-.66.3-.26.42.2Zm.61,2.63a12.92,12.92,0,0,1-.17-2.34A10.2,10.2,0,0,1,887.22,356.12Zm.73-1.4,0-.33h0Zm.61-.67-.06-.13.07-.08Zm1.16-.68-.06.23.05-.25c0-.1.07-.2.1-.29Zm2.23,2.14c.09-.55.19-1.28.3,0Zm1.58-.72a1.68,1.68,0,0,1,.14-.3c-.06.18-.12.36-.17.54A1.29,1.29,0,0,1,893.53,354.79Zm0,5.73.31,0v.5Zm4.85-.56,0,.11v-.19Zm-3.07-3.23,0,.29-.06.12c0-.09,0-.21,0-.26A.44.44,0,0,1,895.32,356.73Zm0,4.51a3.23,3.23,0,0,1-.06-.49c.17-.54.33-1,.54-.88C895.73,361.49,895.51,361.23,895.31,361.24Zm1-1.51c.39-.19.76,1.95,1.17.42C897.05,361.79,896.68,360.61,896.3,359.73Zm1.16-2c-.1.11-.21-.15-.15-.79a1.77,1.77,0,0,1,.24-.77,3.48,3.48,0,0,1,.19.76A4.4,4.4,0,0,1,897.46,357.7Zm82-12.56c-1.76.77-1.7,0-2.46-.33C978.84,344.28,979.31,344.57,979.48,345.14Zm-77,13.63a2.56,2.56,0,0,1,.13-.53c.18.2.17.63.12,1.18,0,.33,0,.9-.12.59A6.81,6.81,0,0,1,902.47,358.77Zm1.16-2.45a1.4,1.4,0,0,1,0-.28.34.34,0,0,1,.05.16c0,.07,0,.19,0,.29A.38.38,0,0,1,903.63,356.32Zm.76,2.56v0c-.27-.33-.32.4-.27,1.57v0c-.19-1.44-.19-2.51.22-2.22a1.31,1.31,0,0,1,.11.12C904.42,358.53,904.41,358.7,904.39,358.88ZM928,327.14l.19.32-1,.19Zm-5.61,68.1c-.71-.69-2-.11-2.93-.34l.48-.74a16.43,16.43,0,0,1,2.38-1.9c.41.24.8.51,1.22.73l-.22.18a3.11,3.11,0,0,0-.33.62l1,0,.37-.38h0l-.37.38C923.47,395.31,922.83,395.61,922.4,395.24Zm4.6,2c-.47-1.13-1.32-1.28-2.21-2a7.41,7.41,0,0,0,1.8-.77c.62.26,1.26.47,1.9.7a2.49,2.49,0,0,0,.25.38C928.2,397.29,927.4,398.2,927,397.22Zm1.78-1.71.1-.21c.17.06.33.13.5.18A.89.89,0,0,1,928.78,395.51Zm23,0h0v0Zm.47,7.78s-.07-.22-.11-.33a1.62,1.62,0,0,1,.38,0,2.13,2.13,0,0,1,.13.32A2.69,2.69,0,0,1,952.21,403.25Zm24.46-56.75c1.27,0,1.25.71,1.69,1.16C977.56,347.39,976.46,347.36,976.67,346.5Z"/><path class="cls-1" d="M955.54,801.25a42.65,42.65,0,0,1-1.23-4.16,33.5,33.5,0,0,0-1.39-3.91c-.63-1.16-1.79-2.31-.44-3.85h0c.71.24.51,1,2.64.9-1-.54.52-1.9-2.33-1.19-.46-1-2.16-1.53-3.29-2.17s-1.77-1.35-.24-3.12c3.5-2.51,3.43-4,0-4.48,1.84-.76,1.48-1.12.55-1.37s-2.52.11-2-.76c1.27-2.33-1.06-2.35-2-3.23s-1.15-2-3.32-1.32c-.26.08-.17-.64-.29-1h.06l0-.1-.1.1a4,4,0,0,1-1.21,0c-1-.4-1.34-1.24-.24-3.18-1.82.57-3.26.85-3.74-.37l.2-.64c.06-.29-1.42.62-.19-.45,2.16-1.85,2.78.13,4.94-.58-.31-1.58-1.72-1.72-3.11-1.61s-2.9.53-3.6-.35c1.27-1.45,1.68,0,2.91-1.14-.39-1.48-1.56-1.45-3-1-2,.63-3.59,1-4.7-.32a12.39,12.39,0,0,0-4.66-2.94,3.14,3.14,0,0,0,.53-.44c-.06-.28-.11-.55-.13-.68-.33-.18-.6,0-.7.49a.9.9,0,0,0,.08.54c-.78-.32-1.54-.74-2.32-1.09-3.44-1.75-7.52-1.19-11.17-.89h0c-.23-.64-.48-.64-.72,0-.52,0-1,.33-1.55-.29-.81-.85-2-1-2.52.2-1.41,3.76-3.39,2.82-5.33,3.39-1.12.28-2.36.22-3.47.6a3.64,3.64,0,0,0-2.67,2.51c.87,1,1,1.44.86,1.74l-.63.3c-.55-1.05.81-.65-.23-2a5.12,5.12,0,0,0-3-.39,1.82,1.82,0,0,0-1.44,1.78c0,1.84-.78,2.21-1.67,2.5s-2,.33-2.42,1.29c-1.09,2.87-3.89,4.08-5.61,6.43-.67-2.57,2-2.64,1.13-6-3.45,2-6.15,4.84-6.55,8.73-1.07-.25-1.3-.09-.58.85.86,1.14.8,2.12-.44,2.25-1.55.19-1.7,0-1.71.27a30.67,30.67,0,0,1,0,4.29,2.1,2.1,0,0,1-1.42-.3,1.89,1.89,0,0,0-2.47.26c-.65.55-1.24,2.11-1.89,2.26-1,.25-2.09-.62-3.13,1-.34.53-.77-.63-1.09,1.31-.2-.73,0-5.48-.63-1.7-.33-1.58-.64-2.14-.93.26-.14.49-.25,1.75-.48.58.12-1,.33-.25.47-.64.07-2.08-.25-1.47-.45-1.72s-.39.41-.44-.95c0-1.1,0-2.82-.35-2-.21.41-.49.66-.48,2.61,0,1.74-.05,1.75-.48.85v0c-.31.58-.71,1-.94.13-.73-2.63-1.36.21-2,.32-.15,1.39.16,1.24.25,1.88-.34.81-.62,0-.91-.73.08-.63.33,0,.33-1.2l-.15-.78c.05.24.1.49.16.74h.31c0-1.46.58-2.35.42-2.77-.59-1.47-1.26-2.82-1.78.82-.2-1-.59,2.4-.72-1.08-.07-1.9-.57-1.12-.83-.78-.67.89.11,1.16,0,1.65-.31,2.39-.89,1.22-1.32,2.54-.3.95-.27-1.93-.4-3,.21.15.43.43.64-.58-.44-1.23-.85-1.73-1.36-.61.31.88.12,2.87.42,3.64a4,4,0,0,1,0,2.44h0l0-2.37c-.19,0-.37,1-.58.23h0a1.44,1.44,0,0,0,0-.8s-.07.24-.11.38c-.17-1.72-.32-3.58-.75-1.32h0c-1,.54.35-2-.11-2.34-.36-.06-.71.19-1.06.28-.72.19-1.39,1.82-2.11,1.47h0c-.09-.16-.12,0-.09.48-.26,1.2-.59.27-.88.67h0c-1-2.77-2,.17-2.91.6-.25.11-.74-.14-.87,2.19-.33-3.32-.8-.75-1.2-.73,0-.42,0-.83,0-1.25h0c0-.4,0-.52-.07-.31l-.28.22a6.52,6.52,0,0,0-.2,2.19c.14,1,.31-.48.49-.41l0,1.39c-.69.46-1-1.91-1.24-4.58h0a4.37,4.37,0,0,0,0-1.65c-.17-.53-.28.09-.36.76v0c-.14-.58-.12-2.13-.42-1.72a4.14,4.14,0,0,0-.2,1.78,1.38,1.38,0,0,1,.06.16,2.33,2.33,0,0,1,0,.27c-.23,1.44-.54,1.59-.87,1.5-.53-.13-1.11-2.08-1.56,1.19-.06.4-.35.63-.45-.64-.17-2-.43-1.41-.69-.58s-.48,1.41-.79,2.33c.18-2.79-.06-3.25-.42-2s-.62,1.74-.92-.66c-.18-1.49-.48-1.58-.54.83.5.81.1,1.66,0,2.64a14.11,14.11,0,0,1,0-2.59c-.27-.23-.52.25-.77.3-.66.13-1,3.86-1.68,3.51a3.89,3.89,0,0,0,.13-1.72c-.19-.68-.21.51-.25,1.2-.94,1.37-1.43-1.13-1.71-6.12-.26,1.1-.52,2.27-.89,1.61l-.09.48a24.45,24.45,0,0,0-.41,3.88c-.19.5-.39,1-.59,1.51h0a2.12,2.12,0,0,0-.11-.21c0,.19,0,.38.05.57a11.54,11.54,0,0,0-.1,2.67c.54-2.47,1.23-1.23,1.87-2.14-.6,1.86-.84,6.66-1.84,5.21-.19-.28-.63-.89-.77,1.3,0-.54,0-1.4-.15-1.35a3.28,3.28,0,0,0-.17,1.1c0,1,.14.75.25.68.13,1,0,2.42.24,3.28.08.35.25,1.1,0,1.3-.65.53-.3,1.95-.08,2.86.68,2.81,1.27,7.14,2.35,4.43.38-.93.76-1.48,1.12.37,0,.28.21.25.3.11,1-1.47,2,.49,3-1.25s2-1,3.09-1c1.85-.11,3.71-.54,5.56-.73.19,0,.49-.94.57,1-.1.34-.37-.18-.28.94.06.74.26.09.38-.37.86-1.38,1.69-2.26,2.66-2.05a15.43,15.43,0,0,0,4.45.08c.83-.06,1.68-.94,2.47-.48,3,1.78,6,0,9.06.87,1.05.32,2.1,0,3.13.77,2.45,1.91,4.92.47,7.37.81a11.6,11.6,0,0,0,1.86.1c0,.16.21.25.75.13a2.1,2.1,0,0,0,.58-.27,14.48,14.48,0,0,0,3.58-1c.07.94-1.75,2.48-1.09,3.6a6.86,6.86,0,0,0,1.69-2.18c.36.86.76,1.7,1.18,2.54-.16-.33-.47-.54-1.35-.46a2.06,2.06,0,0,0-.81.56c-.16.92.62,1.3,2.55,1.11a7.93,7.93,0,0,1-.37-1.19,35.77,35.77,0,0,0,7.61,10.1l-1.44-.6a8.23,8.23,0,0,1-3.15-2.44c-.79-1.32-.38-3.26-1.62-4.18-.31-.21-.55-.66-1.48,0-.65.49-2,1.45-1.58,1.77,1.13.84.73,2.81,2.51,3.15.75.12.93.63.92,1.42a3.55,3.55,0,0,0,1.67,3.21,11.2,11.2,0,0,0,3.54,1.09c1.74.24,2.68,1.63,4.64,1.22.54-.13,0,1-.36,1.75a2.7,2.7,0,0,0-3.15,1.53c-.9,1.6,0,2.82,1.34,2.2,1.65-.8,2.47-.08,3.45.44s1.94,1.12,3.38.09c.09-.07.15.68.23,1.08-.94,1.25-2.12.21-2.6,2.17s1.12,1.25,1.91,1.51a23.27,23.27,0,0,0,3.27.8,8.19,8.19,0,0,1,3.26,1.17,11,11,0,0,0,4.81,1.58,8.34,8.34,0,0,0,5.07-1.63c.88-.69,1.91-1.16,2.88.59.47.85,1,.48,1.51.63,1.21.31,2.4-.45,3.57-.77s2.34-.33,4,1.63c.09.11.34,0,.41-.18.94-2.38,3-2.53,3.61-5.33.42-2.33,2.24-3.48,4.26-1.72,2.37,2,3.68,1.56,4.87.73,3.39-2.61,7-5.06,9.66-8.42.86-.95,1.65-2,2.43-3a15.2,15.2,0,0,0,2.06-3.26,10.16,10.16,0,0,0,.69-7.84c-.17-.47.19-.7.82-.74,2.94-.23,2.84-2.06,2.6-3.72-.09-.78-.54-1.68-.12-2.26A6.9,6.9,0,0,0,955.54,801.25ZM830,796.55a4.72,4.72,0,0,1-.08.63c-.57-2.2-1,2.14-1.58.66-.17-2.38.79-1.36.34-4.22.36,0,.72-.13,1.07.06S830,795.45,830,796.55Zm2.09-.26c-.49,1.24-1,1.26-1.49,0,.15-1.12.15-.85.43-.79s.57-1.75.94-1.49c.17.12.4-.58.43.86A2.2,2.2,0,0,1,832.12,796.29Zm1.9-5.14a.89.89,0,0,1,.12-.32c0,.17.06.35.08.52s-.07.3-.11.3S833.94,791.78,834,791.15Zm-1,2.59a7.74,7.74,0,0,1,.45-2.48,5.66,5.66,0,0,1-.45,2.48Zm.21,2.32c.5-2.38.95-1.67,1.65-1C834.19,795.83,833.77,796.59,833.2,796.06Zm2-2.57-.09.44c0-.16.06-.32.08-.48s.08-.52.13-.78Zm.85,1.61a2.92,2.92,0,0,1,0-.33c.09-.48.16-.08.23.16Zm.38.27c0-.1-.06-.23-.1-.36.06.1.11.2.16.3S836.44,795.41,836.42,795.37Zm.52-3.66c0-.14-.05-.27-.08-.43a.78.78,0,0,1,0-.23s.06.07.1.12C837,791.37,837,791.54,836.94,791.71Zm4.24-1.42.19,0C841.31,791.08,841.24,790.43,841.18,790.29Zm.78-.2a2.17,2.17,0,0,1-.12-.26c0-.05,0-.16,0-.14a.87.87,0,0,1,.12.2A1.57,1.57,0,0,1,842,790.09Zm5.78,1.47-.06-.14.07,0Zm9.56.78a1.22,1.22,0,0,1,.05-.17c0,.26-.05.53-.08.8C857.28,792.76,857.29,792.54,857.3,792.34Zm-.7,1.23c.17-.31.3-1.31.5-.49C856.94,793.27,856.8,794.13,856.6,793.57Zm.33,1.68c.07-.78.12-1.46.18-2.15a.12.12,0,0,1,.15,0c-.08,2.31.26,1.68.49,2Zm.51-5.7c.18-.67.31-.26.43.2Zm.62,2.63a13,13,0,0,1-.17-2.34A10.15,10.15,0,0,1,858.06,792.18Zm.72-1.4c0-.11,0-.22.05-.33h0Zm.61-.67,0-.13.07-.09Zm1.16-.68a1.89,1.89,0,0,1,0,.23c0-.09,0-.17,0-.25l.09-.3Zm2.23,2.14c.1-.56.2-1.28.31-.05Zm1.58-.73c0-.11.1-.2.14-.3,0,.19-.11.37-.17.55C864.34,791,864.35,790.88,864.36,790.84Zm0,5.74.31,0v.5Zm4.85-.56-.05.11v-.19Zm-3.07-3.23v.28a.5.5,0,0,1,0,.13,1.21,1.21,0,0,1,0-.26A.37.37,0,0,1,866.16,792.79Zm0,4.51a3.23,3.23,0,0,1-.06-.49c.16-.54.32-1,.54-.88C866.57,797.55,866.34,797.29,866.15,797.3Zm1-1.52c.4-.18.77,2,1.18.43C867.89,797.85,867.51,796.67,867.13,795.78Zm1.17-2c-.11.11-.22-.15-.15-.8a1.72,1.72,0,0,1,.24-.76,3.65,3.65,0,0,1,.18.76A4.64,4.64,0,0,1,868.3,793.76Zm82-12.57c-1.77.77-1.71,0-2.46-.33C949.68,780.34,950.15,780.62,950.32,781.19Zm-77,13.64a2.6,2.6,0,0,1,.14-.53c.18.2.16.62.11,1.18,0,.33,0,.9-.12.59A7,7,0,0,1,873.3,794.83Zm1.16-2.46a1.37,1.37,0,0,1,0-.27,1.31,1.31,0,0,1,0,.15c0,.08,0,.2,0,.3A1.43,1.43,0,0,1,874.46,792.37Zm.77,2.56h0c-.26-.34-.32.39-.26,1.57v0c-.19-1.45-.18-2.52.22-2.22l.12.12C875.26,794.59,875.25,794.76,875.23,794.93Zm23.62-31.74.19.32-1,.2Zm-5.62,68.11c-.7-.69-2-.12-2.92-.34l.47-.74a18.56,18.56,0,0,1,2.38-1.91c.41.25.81.51,1.22.74l-.22.18a3.15,3.15,0,0,0-.32.62l1,0C894.3,831.36,893.67,831.67,893.23,831.3Zm4.6,2c-.46-1.13-1.31-1.29-2.2-2a6.86,6.86,0,0,0,1.79-.78c.62.27,1.27.48,1.91.7a2.08,2.08,0,0,0,.25.38C899,833.35,898.24,834.26,897.83,833.28Zm1.78-1.71.11-.21c.16.06.33.13.5.18A1.07,1.07,0,0,1,899.61,831.57Zm23,0h0v0Zm.47,7.77a2,2,0,0,1-.11-.33,1.51,1.51,0,0,1,.37,0s.08.2.13.32A1.7,1.7,0,0,1,923.05,839.3Zm24.45-56.74c1.28,0,1.25.71,1.69,1.15C948.4,783.45,947.3,783.42,947.5,782.56Z"/><path class="cls-1" d="M976.85,651.74a33.5,33.5,0,0,0-1.39-3.91c-.63-1.17-1.79-2.31-.44-3.86h0c.71.24.51,1,2.64.9-1-.55.52-1.9-2.33-1.2-.46-1-2.15-1.53-3.29-2.16s-1.77-1.35-.24-3.12c3.5-2.51,3.43-4,0-4.48,1.84-.76,1.48-1.13.55-1.37s-2.52.1-2-.76c1.27-2.33-1.06-2.35-2-3.23s-1.14-2-3.32-1.32c-.26.08-.17-.64-.28-1h0l.05-.11-.09.11a4.38,4.38,0,0,1-1.22,0c-1-.4-1.34-1.25-.24-3.19-1.82.58-3.26.86-3.74-.36l.2-.64c.06-.3-1.42.62-.19-.46,2.16-1.85,2.78.14,4.94-.57-.31-1.59-1.72-1.72-3.11-1.62s-2.9.53-3.6-.35c1.27-1.44,1.68,0,2.91-1.13-.39-1.48-1.56-1.45-3.05-1-2,.63-3.59,1-4.7-.32a12.27,12.27,0,0,0-4.66-2.94,3.86,3.86,0,0,0,.53-.45c-.06-.27-.11-.55-.13-.67-.33-.18-.6,0-.7.49a.87.87,0,0,0,.08.53c-.78-.31-1.54-.73-2.32-1.08-3.44-1.75-7.52-1.19-11.17-.89h0c-.23-.65-.48-.65-.72,0-.52,0-1,.33-1.55-.29-.81-.85-2-1-2.52.2-1.41,3.76-3.38,2.82-5.33,3.39-1.12.27-2.36.22-3.47.6a3.62,3.62,0,0,0-2.67,2.51c.87,1,1,1.43.86,1.74l-.63.3c-.55-1.06.81-.65-.23-2a5,5,0,0,0-3-.39,1.81,1.81,0,0,0-1.44,1.78c0,1.83-.78,2.21-1.67,2.5s-2,.33-2.42,1.28c-1.09,2.87-3.89,4.09-5.61,6.44-.67-2.58,2-2.64,1.13-6-3.45,2-6.14,4.85-6.55,8.73-1.07-.24-1.3-.08-.58.86.86,1.14.8,2.11-.44,2.25-1.55.18-1.7,0-1.71.26a30.81,30.81,0,0,1,0,4.3,2.06,2.06,0,0,1-1.41-.3,1.9,1.9,0,0,0-2.48.26c-.65.54-1.24,2.11-1.89,2.26-1,.25-2.09-.62-3.13,1-.34.54-.77-.62-1.09,1.31-.2-.72,0-5.48-.63-1.69-.33-1.58-.64-2.14-.93.26-.14.48-.25,1.75-.48.58.12-1,.33-.25.47-.65.07-2.07-.25-1.46-.45-1.71s-.39.4-.44-1c0-1.09,0-2.81-.35-2-.21.42-.49.66-.48,2.62,0,1.74,0,1.75-.48.85v0c-.31.57-.71,1-.94.12-.73-2.63-1.36.22-2,.33-.15,1.39.16,1.23.25,1.88-.34.81-.62,0-.91-.73.08-.63.33,0,.33-1.2l-.15-.78c0,.24.1.49.16.73h.31c0-1.45.59-2.34.42-2.76-.58-1.47-1.26-2.82-1.78.82-.2-1-.59,2.4-.72-1.09-.07-1.89-.57-1.11-.83-.77-.67.89.11,1.16.05,1.65-.31,2.38-.89,1.22-1.32,2.54-.3,1-.27-1.93-.4-3,.21.15.43.42.64-.58-.44-1.23-.85-1.73-1.36-.61.31.88.12,2.87.42,3.64a4,4,0,0,1,0,2.44h0c0-.79,0-1.58,0-2.38-.19,0-.37,1-.58.24h0a1.44,1.44,0,0,0,0-.8s-.07.24-.11.37c-.17-1.71-.32-3.57-.75-1.31h0c-1,.54.35-2.05-.11-2.34-.36-.06-.71.18-1.06.28-.71.19-1.39,1.82-2.11,1.47h0c-.09-.16-.12,0-.09.48-.26,1.19-.59.27-.88.67h0c-1-2.77-2,.17-2.91.6-.25.11-.74-.14-.87,2.19-.33-3.33-.8-.75-1.2-.73,0-.42,0-.84,0-1.26h0c0-.4,0-.52-.07-.31l-.28.22a6.49,6.49,0,0,0-.2,2.19c.14.94.31-.48.49-.42l0,1.4c-.69.46-1-1.91-1.24-4.58h0a4.42,4.42,0,0,0,0-1.66c-.17-.53-.28.1-.36.77v0c-.14-.57-.12-2.12-.42-1.72a4.22,4.22,0,0,0-.2,1.79,1.16,1.16,0,0,1,.06.15c0,.08.05.26.05.28-.23,1.44-.54,1.58-.87,1.5-.53-.13-1.11-2.09-1.56,1.19-.06.4-.35.63-.45-.65-.17-2-.43-1.41-.69-.57s-.48,1.41-.79,2.32c.18-2.79-.06-3.24-.42-2s-.62,1.74-.92-.66c-.18-1.49-.48-1.58-.54.83.5.8.1,1.66,0,2.64a14.11,14.11,0,0,1,0-2.59c-.27-.23-.52.24-.77.29-.66.13-1,3.87-1.68,3.52A3.91,3.91,0,0,0,853,644c-.19-.69-.21.51-.25,1.2-.94,1.37-1.43-1.13-1.71-6.13-.26,1.11-.52,2.28-.89,1.61l-.09.49a24.45,24.45,0,0,0-.41,3.87c-.19.51-.39,1-.59,1.52h0a2.12,2.12,0,0,0-.11-.21c0,.19,0,.38,0,.57a11.54,11.54,0,0,0-.1,2.67c.54-2.47,1.24-1.23,1.87-2.14-.6,1.86-.84,6.66-1.84,5.21-.19-.28-.63-.89-.76,1.3,0-.54,0-1.4-.16-1.35a3.25,3.25,0,0,0-.17,1.09c0,1,.14.76.25.69.13,1,0,2.42.24,3.28.08.35.25,1.1,0,1.3-.65.53-.3,2-.08,2.86.68,2.81,1.27,7.14,2.35,4.43.38-.94.76-1.48,1.12.37,0,.28.21.25.3.11,1-1.47,2,.49,3-1.25s2-1,3.09-1c1.85-.12,3.71-.54,5.56-.73.19,0,.5-.94.57,1h0c-.1.35-.37-.17-.28.94.06.75.26.1.38-.36.86-1.38,1.69-2.26,2.66-2a15.8,15.8,0,0,0,4.45.08c.83-.06,1.68-.94,2.47-.48,3,1.78,6.05,0,9.06.87,1,.31,2.1,0,3.13.77,2.45,1.9,4.92.47,7.37.81a11.6,11.6,0,0,0,1.86.1c0,.16.21.25.75.13a2.1,2.1,0,0,0,.58-.27,14.48,14.48,0,0,0,3.58-1c.07.94-1.75,2.47-1.09,3.6a6.77,6.77,0,0,0,1.69-2.19c.36.87.76,1.71,1.18,2.54-.16-.32-.47-.53-1.35-.45a2.24,2.24,0,0,0-.81.55c-.16.92.62,1.31,2.56,1.12a7.32,7.32,0,0,1-.38-1.19,35.77,35.77,0,0,0,7.61,10.1l-1.44-.6a8.33,8.33,0,0,1-3.15-2.44c-.79-1.32-.38-3.26-1.62-4.18-.31-.21-.55-.67-1.48,0-.65.49-2,1.45-1.58,1.76,1.13.85.73,2.82,2.51,3.16.75.12.93.63.92,1.42a3.55,3.55,0,0,0,1.67,3.21,11.45,11.45,0,0,0,3.54,1.08c1.74.24,2.68,1.63,4.64,1.23.54-.13,0,1-.36,1.75a2.69,2.69,0,0,0-3.15,1.53c-.9,1.6,0,2.82,1.34,2.19,1.65-.79,2.47-.07,3.45.45s1.94,1.12,3.38.09c.09-.07.15.68.23,1.08-.94,1.25-2.12.2-2.6,2.17s1.12,1.25,1.91,1.51a23.27,23.27,0,0,0,3.27.8,8.17,8.17,0,0,1,3.26,1.16,10.83,10.83,0,0,0,4.81,1.58,8.33,8.33,0,0,0,5.07-1.62c.88-.69,1.91-1.16,2.88.59.47.84,1,.48,1.51.62,1.21.31,2.4-.45,3.57-.76s2.34-.33,4,1.63c.09.11.34,0,.41-.18.94-2.38,3-2.54,3.61-5.34.42-2.32,2.24-3.48,4.26-1.72,2.37,2,3.68,1.56,4.87.73,3.39-2.6,7-5,9.66-8.41.87-1,1.65-2,2.43-3a15.2,15.2,0,0,0,2.06-3.26,10.18,10.18,0,0,0,.69-7.85c-.17-.46.19-.69.82-.73,2.94-.23,2.84-2.06,2.6-3.72-.09-.79-.54-1.68-.12-2.26a6.92,6.92,0,0,0,.59-6.26A41.68,41.68,0,0,1,976.85,651.74Zm-124.28-.54a4.72,4.72,0,0,1-.08.63c-.57-2.2-1,2.14-1.58.66-.17-2.38.79-1.36.34-4.23.36,0,.72-.12,1.07.07S852.55,650.09,852.57,651.2Zm2.09-.26c-.49,1.24-1,1.26-1.49-.05.15-1.12.15-.85.43-.79s.57-1.75.94-1.49c.17.11.4-.59.44.86A2.24,2.24,0,0,1,854.66,650.94Zm1.9-5.14a.84.84,0,0,1,.13-.33c0,.18,0,.35.07.53s-.07.3-.11.3S856.48,646.43,856.56,645.8Zm-1,2.58a7.66,7.66,0,0,1,.45-2.47,5.7,5.7,0,0,1-.45,2.48Zm.21,2.32c.5-2.38,1-1.66,1.65-1C856.73,650.47,856.31,651.24,855.74,650.7Zm2-2.56-.09.44c0-.16.06-.32.08-.48s.08-.53.13-.79Zm.85,1.61a2.63,2.63,0,0,1,0-.33c.09-.48.16-.08.23.16Zm.38.27c0-.1-.06-.24-.09-.36l.15.3S859,650.06,859,650Zm.52-3.66c0-.14-.05-.27-.07-.43a.56.56,0,0,1,0-.23s.06.07.1.12S859.5,646.19,859.48,646.36Zm4.24-1.43.19,0C863.85,645.73,863.78,645.08,863.72,644.93Zm.78-.19c0-.07-.08-.17-.12-.26s0-.16,0-.15a1.76,1.76,0,0,1,.12.2A1.5,1.5,0,0,1,864.5,644.74Zm5.78,1.46-.06-.13.07-.05Zm9.56.79c0-.08,0-.12,0-.18l-.08.81Zm-.7,1.22c.17-.31.3-1.3.5-.48C879.48,647.92,879.34,648.78,879.14,648.21Zm.33,1.69c.07-.78.12-1.47.18-2.15a.11.11,0,0,1,.15,0c-.08,2.31.26,1.67.49,2Zm.51-5.7c.18-.67.31-.26.43.2Zm.62,2.63a13.1,13.1,0,0,1-.17-2.35A10.29,10.29,0,0,1,880.6,646.83Zm.72-1.41c0-.1,0-.21,0-.32h0Zm.61-.66,0-.13.07-.09Zm1.16-.68c0,.07,0,.15-.05.23,0-.09,0-.17.05-.26l.09-.29Zm2.23,2.13c.1-.55.2-1.27.31,0Zm1.58-.72c.05-.12.1-.2.14-.3,0,.19-.11.37-.17.55C886.88,645.65,886.89,645.53,886.9,645.49Zm0,5.74.31,0v.5Zm4.85-.57,0,.12v-.2Zm-3.07-3.23v.29a.69.69,0,0,1-.05.13,1.28,1.28,0,0,1,0-.27A.53.53,0,0,1,888.7,647.43Zm0,4.51a3.23,3.23,0,0,1-.06-.48c.16-.54.32-1,.54-.89C889.11,652.2,888.88,651.94,888.69,651.94Zm1-1.51c.4-.19.77,2,1.18.43C890.43,652.49,890.05,651.32,889.67,650.43Zm1.17-2c-.11.11-.22-.16-.15-.8a1.77,1.77,0,0,1,.24-.77,4.14,4.14,0,0,1,.18.76A4.85,4.85,0,0,1,890.84,648.41Zm82-12.57c-1.77.77-1.71,0-2.46-.33C972.22,635,972.69,635.27,972.86,635.84Zm-77,13.64A2.44,2.44,0,0,1,896,649c.18.2.16.62.11,1.18,0,.33,0,.9-.12.59A7,7,0,0,1,895.84,649.48ZM897,647c0-.06,0-.18,0-.27s0,.07.05.15,0,.2,0,.3C897,647.14,897,647.1,897,647Zm.77,2.56,0,0c-.26-.33-.32.4-.26,1.58v0c-.19-1.44-.18-2.51.22-2.22l.12.12C897.8,649.24,897.79,649.41,897.77,649.58Zm23.62-31.74.19.32-1,.2ZM915.77,686c-.7-.69-2-.12-2.92-.35l.47-.73a17.16,17.16,0,0,1,2.39-1.91c.4.24.8.51,1.21.74l-.22.17a3.29,3.29,0,0,0-.32.63l1,0C916.84,686,916.21,686.31,915.77,686Zm4.6,2c-.46-1.13-1.31-1.29-2.2-2a6.59,6.59,0,0,0,1.79-.77c.62.26,1.27.47,1.91.7a2.08,2.08,0,0,0,.25.38C921.57,688,920.78,688.9,920.37,687.93Zm1.78-1.71.11-.22.5.19A1.07,1.07,0,0,1,922.15,686.22Zm23,0h0v0Zm.47,7.77a2,2,0,0,1-.11-.33,1.58,1.58,0,0,1,.38,0,2.22,2.22,0,0,1,.12.31A1.29,1.29,0,0,1,945.59,694ZM970,637.2c1.28,0,1.25.72,1.69,1.16C970.94,638.1,969.84,638.06,970,637.2Z"/><path class="cls-1" d="M960,215.68a30.19,30.19,0,0,0-1.39-3.91c-.62-1.16-1.79-2.31-.43-3.85h0c.7.24.51,1,2.64.91-1-.55.51-1.9-2.33-1.2-.46-1-2.16-1.53-3.29-2.17s-1.77-1.35-.25-3.12c3.51-2.51,3.44-4,0-4.48,1.84-.76,1.49-1.12.55-1.37-.79-.21-2.51.11-2-.75,1.27-2.34-1.06-2.36-2-3.24s-1.15-2-3.32-1.32c-.26.08-.17-.64-.29-1H948l0-.1-.1.1a4,4,0,0,1-1.21,0c-1-.4-1.35-1.24-.24-3.18-1.82.57-3.26.85-3.75-.37l.2-.63c.07-.3-1.42.61-.18-.46,2.16-1.85,2.78.13,4.94-.58-.31-1.58-1.72-1.72-3.11-1.61s-2.91.53-3.6-.35c1.27-1.45,1.67,0,2.9-1.14-.38-1.48-1.55-1.45-3-1-2,.63-3.59,1-4.71-.32a12.28,12.28,0,0,0-4.65-2.94,3.12,3.12,0,0,0,.52-.44c0-.28-.1-.55-.13-.68-.32-.18-.59,0-.69.49a.9.9,0,0,0,.08.54c-.79-.32-1.54-.74-2.33-1.09-3.43-1.75-7.51-1.19-11.16-.89h0c-.24-.64-.49-.64-.72,0-.52,0-1,.33-1.56-.28-.81-.86-2-1-2.51.19-1.41,3.76-3.39,2.82-5.33,3.39-1.12.28-2.36.22-3.47.6a3.64,3.64,0,0,0-2.67,2.51c.87,1,1,1.44.86,1.74l-.63.3c-.56-1,.81-.65-.24-2a5.08,5.08,0,0,0-3-.39,1.8,1.8,0,0,0-1.44,1.78c0,1.84-.78,2.21-1.68,2.5s-2,.33-2.42,1.29c-1.08,2.87-3.88,4.08-5.6,6.43-.68-2.57,2-2.64,1.13-6-3.45,2-6.15,4.84-6.56,8.73-1.06-.25-1.29-.09-.57.85.86,1.14.8,2.12-.44,2.25-1.55.19-1.7,0-1.71.27a32.28,32.28,0,0,1,0,4.29,2.1,2.1,0,0,1-1.42-.3,1.88,1.88,0,0,0-2.47.26c-.65.55-1.25,2.11-1.89,2.26-1,.25-2.09-.62-3.13,1-.35.53-.78-.63-1.09,1.31-.2-.73,0-5.48-.64-1.7-.32-1.58-.64-2.14-.92.26-.15.49-.26,1.75-.48.58.12-1,.33-.25.47-.64.06-2.08-.26-1.47-.45-1.72s-.4.41-.45-1c0-1.1.05-2.82-.35-2-.2.41-.48.66-.47,2.61,0,1.74-.05,1.75-.48.85v0l0-.12s0,.09,0,.13c-.32.58-.72,1-1,.13-.72-2.63-1.36.21-2,.32-.15,1.39.15,1.24.25,1.88-.34.81-.63,0-.91-.73.08-.63.32,0,.33-1.2,0-.26-.11-.52-.16-.78.06.24.11.49.16.74h.31c0-1.46.59-2.35.43-2.77-.59-1.47-1.26-2.82-1.79.82-.19-1-.58,2.4-.71-1.08-.08-1.9-.57-1.12-.83-.78-.67.89.11,1.16,0,1.65-.31,2.39-.89,1.22-1.32,2.54-.31,1-.27-1.93-.4-3,.21.15.43.43.63-.58-.43-1.23-.84-1.73-1.35-.6.3.87.12,2.86.42,3.63a4,4,0,0,1,0,2.44h0c0-.79,0-1.58,0-2.37-.2,0-.38,1-.58.23h0a1.54,1.54,0,0,0,0-.8c0-.05-.07.24-.1.38-.17-1.72-.33-3.58-.75-1.31h0c-1,.54.35-2-.11-2.34-.36-.05-.71.19-1.06.28-.72.19-1.39,1.82-2.11,1.47h0c-.1-.16-.12,0-.09.48-.27,1.2-.6.28-.89.67h0c-1-2.77-1.95.17-2.92.6-.25.11-.74-.13-.87,2.19-.32-3.32-.79-.75-1.2-.73,0-.41,0-.83,0-1.25h0c0-.4,0-.52-.07-.31l-.29.22a7.08,7.08,0,0,0-.2,2.19c.15.95.32-.48.49-.41,0,.46,0,.93,0,1.39-.69.46-1-1.91-1.24-4.58h0a4.18,4.18,0,0,0,0-1.65c-.17-.53-.28.09-.37.76v0c-.14-.58-.13-2.13-.42-1.72a4.17,4.17,0,0,0-.2,1.78,1.38,1.38,0,0,1,.06.16,1.09,1.09,0,0,1,0,.27c-.22,1.44-.53,1.59-.87,1.5-.53-.13-1.11-2.08-1.56,1.19-.05.4-.34.63-.45-.64-.16-2-.42-1.41-.69-.58s-.47,1.41-.78,2.33c.18-2.79-.06-3.25-.42-2s-.63,1.74-.92-.66c-.19-1.49-.49-1.58-.55.83.51.81.1,1.66,0,2.64a14.14,14.14,0,0,1,0-2.59c-.26-.23-.51.25-.77.3-.65.13-1,3.86-1.67,3.51a3.89,3.89,0,0,0,.13-1.72c-.19-.68-.22.51-.25,1.21-1,1.36-1.43-1.13-1.71-6.13-.26,1.1-.52,2.27-.89,1.61l-.09.48a24.45,24.45,0,0,0-.41,3.88c-.2.5-.39,1-.59,1.51h0l-.11-.21.05.57a11,11,0,0,0-.1,2.67c.53-2.47,1.23-1.23,1.87-2.14-.6,1.86-.84,6.66-1.84,5.21-.19-.28-.63-.89-.77,1.3,0,.15,0,.29-.07.43.13,1,0,2.42.23,3.28.09.35.26,1.1,0,1.3-.66.53-.31,1.95-.09,2.86.69,2.82,1.27,7.14,2.36,4.43.38-.93.76-1.48,1.11.37.06.28.21.25.31.11,1-1.47,2,.49,3-1.25s2-1,3.09-1c1.85-.11,3.7-.54,5.56-.73.18,0,.49-.94.56,1h0c-.09.35-.36-.18-.27.94.06.74.25.09.37-.37.87-1.38,1.7-2.25,2.67-2a15.43,15.43,0,0,0,4.45.08c.82-.06,1.68-.94,2.47-.48,3,1.78,6,0,9.06.87,1,.32,2.1,0,3.13.77,2.45,1.91,4.91.48,7.37.81a11.48,11.48,0,0,0,1.85.1c0,.16.22.25.76.13a2.1,2.1,0,0,0,.58-.27,14.9,14.9,0,0,0,3.58-1c.07.93-1.75,2.47-1.09,3.59a6.91,6.91,0,0,0,1.69-2.18c.36.86.76,1.7,1.18,2.53-.16-.32-.48-.53-1.35-.45a2,2,0,0,0-.81.56c-.16.92.62,1.3,2.55,1.11a9.45,9.45,0,0,1-.38-1.19,35.85,35.85,0,0,0,7.62,10.1l-1.44-.6a8.23,8.23,0,0,1-3.15-2.44c-.8-1.32-.38-3.26-1.62-4.18-.31-.21-.55-.66-1.48,0-.65.49-2,1.45-1.59,1.77,1.14.84.74,2.81,2.52,3.15.74.12.93.63.92,1.42a3.55,3.55,0,0,0,1.66,3.21,11.37,11.37,0,0,0,3.54,1.09c1.75.24,2.69,1.63,4.65,1.22.54-.13,0,1-.36,1.75a2.7,2.7,0,0,0-3.15,1.53c-.91,1.6,0,2.82,1.34,2.2,1.65-.8,2.47-.08,3.45.44s1.94,1.12,3.38.09c.09-.07.14.68.23,1.08-.94,1.25-2.13.21-2.6,2.17s1.12,1.25,1.91,1.51a23.27,23.27,0,0,0,3.27.8,8.19,8.19,0,0,1,3.26,1.17,10.91,10.91,0,0,0,4.81,1.58,8.36,8.36,0,0,0,5.07-1.63c.88-.69,1.91-1.15,2.87.59.48.85,1,.48,1.51.63,1.22.31,2.41-.45,3.58-.77s2.34-.33,4,1.64c.09.1.34,0,.4-.19,1-2.38,3.06-2.53,3.61-5.33.43-2.33,2.25-3.48,4.27-1.72,2.37,2,3.68,1.56,4.87.73,3.39-2.61,7-5.06,9.66-8.42.86-1,1.64-2,2.43-3a15.6,15.6,0,0,0,2.06-3.26,10.11,10.11,0,0,0,.68-7.84c-.16-.47.2-.7.82-.74,2.95-.23,2.85-2.06,2.6-3.72-.08-.78-.53-1.68-.11-2.26a6.9,6.9,0,0,0,.59-6.25C960.71,218.4,960.44,217,960,215.68Zm-124.28-.54a4.67,4.67,0,0,1-.07.63c-.57-2.2-1.05,2.14-1.58.66-.17-2.38.78-1.36.34-4.22.36,0,.72-.13,1.07.06S835.75,214,835.76,215.14Zm2.1-.26c-.5,1.24-1,1.26-1.49,0,.15-1.12.15-.85.43-.79s.57-1.74.94-1.49c.17.12.39-.58.43.86A2.2,2.2,0,0,1,837.86,214.88Zm1.9-5.14a.89.89,0,0,1,.12-.32c0,.17,0,.35.08.52s-.07.3-.11.3S839.68,210.37,839.76,209.74Zm-1,2.59a7.68,7.68,0,0,1,.46-2.48,5.47,5.47,0,0,1-.46,2.48Zm.22,2.32c.49-2.38.95-1.67,1.64-1C839.92,214.42,839.5,215.18,838.94,214.65Zm2-2.57-.09.44c0-.16,0-.32.08-.48l.12-.78C841,211.53,841,211.8,840.93,212.08Zm.85,1.61a3.22,3.22,0,0,1,0-.33c.1-.48.17-.08.24.16Zm.38.27c0-.1-.07-.23-.1-.36.06.1.11.2.16.3S842.17,214,842.16,214Zm.52-3.66c0-.14-.06-.27-.08-.43a1.37,1.37,0,0,1,0-.23s.07.07.11.12C842.72,210,842.7,210.13,842.68,210.3Zm4.24-1.42.19,0C847.05,209.67,847,209,846.92,208.88Zm.78-.2a1.26,1.26,0,0,1-.12-.26s0-.16,0-.14a.75.75,0,0,1,.11.2C847.72,208.56,847.7,208.69,847.7,208.68Zm5.78,1.47-.06-.13.06-.06Zm9.56.78a.58.58,0,0,1,.05-.17c0,.26-.05.53-.08.8C863,211.35,863,211.13,863,210.93Zm-.71,1.23c.17-.31.3-1.31.51-.49C862.67,211.86,862.54,212.72,862.33,212.16Zm.34,1.68c.06-.78.12-1.46.18-2.15a.12.12,0,0,1,.15,0c-.08,2.31.26,1.68.49,2Zm.51-5.7c.18-.67.31-.26.43.2Zm.62,2.63a12.94,12.94,0,0,1-.18-2.34A9.54,9.54,0,0,1,863.8,210.77Zm.72-1.4,0-.33h0Zm.61-.67-.06-.13.07-.09Zm1.16-.68c0,.08,0,.15,0,.23a1.84,1.84,0,0,1,0-.25l.09-.3Zm2.23,2.14c.1-.56.19-1.28.3,0Zm1.58-.73.14-.3c-.06.19-.11.37-.17.55C870.08,209.6,870.09,209.47,870.1,209.43Zm0,5.74.31,0c0,.17,0,.34,0,.5Zm1.79-3.79v.29a.61.61,0,0,0,0,.12c0-.09,0-.21,0-.26A.36.36,0,0,1,871.9,211.38Zm0,4.51a4.42,4.42,0,0,1-.07-.49c.17-.54.33-1,.54-.88C872.3,216.14,872.08,215.88,871.89,215.89Zm1-1.51c.39-.19.76,2,1.18.42C873.63,216.44,873.25,215.26,872.87,214.38Zm1.16-2c-.1.11-.21-.15-.14-.79a1.75,1.75,0,0,1,.23-.77c0-.06.1.37.19.76A3.73,3.73,0,0,1,874,212.35Zm.89,2.37v-.19l.06.08Zm4.37-.65c0,.33,0,.9-.12.59a7,7,0,0,1-.13-1.24,2.08,2.08,0,0,1,.14-.53C879.36,213.09,879.34,213.51,879.29,214.07Zm1-2.93a.65.65,0,0,1,0-.18c0-.06,0-.18,0-.27a.33.33,0,0,1,0,.15A1.55,1.55,0,0,1,880.25,211.14Zm.71,2.38h0c-.26-.34-.32.39-.27,1.57v0c-.19-1.45-.18-2.52.22-2.22a1.36,1.36,0,0,1,.12.12C881,213.18,881,213.35,881,213.52Zm23.63-31.74.18.32-1,.2ZM899,249.89c-.71-.69-2-.11-2.93-.34l.48-.74a17.9,17.9,0,0,1,2.38-1.91c.41.25.8.51,1.22.74l-.22.18a2.69,2.69,0,0,0-.32.62l.95,0C900,250,899.4,250.26,899,249.89Zm4.6,2c-.47-1.13-1.32-1.29-2.2-2a7,7,0,0,0,1.79-.78c.62.27,1.27.48,1.9.7a1.5,1.5,0,0,0,.26.38C904.77,251.94,904,252.85,903.57,251.87Zm1.78-1.71.1-.21c.17.06.33.13.5.18A1,1,0,0,1,905.35,250.16Zm23,0h0Zm.46,7.76a1.33,1.33,0,0,1-.11-.33,1.51,1.51,0,0,1,.37,0,2.13,2.13,0,0,1,.13.32A1.7,1.7,0,0,1,928.79,257.89Zm27.27-58.11c-1.77.77-1.71,0-2.46-.33C955.41,198.93,955.88,199.21,956.06,199.78Zm-2.82,1.37c1.27,0,1.25.71,1.69,1.15C954.14,202,953,202,953.24,201.15Z"/><path class="cls-1" d="M1.71,511.42a33.5,33.5,0,0,0,1.39,3.91c.63,1.17,1.8,2.31.44,3.86h0c-.7-.24-.51-1-2.64-.9,1,.55-.52,1.9,2.33,1.2.46,1,2.16,1.53,3.29,2.16s1.77,1.35.24,3.12c-3.5,2.51-3.43,4,0,4.48-1.84.76-1.48,1.13-.54,1.37.78.21,2.51-.1,2,.76-1.27,2.33,1.06,2.35,2,3.23s1.15,2,3.32,1.32c.26-.08.17.64.29,1h-.06l0,.11.1-.11a4.32,4.32,0,0,1,1.21,0c1,.4,1.34,1.25.24,3.19,1.82-.58,3.26-.86,3.74.36l-.2.64c-.06.3,1.42-.62.19.46-2.16,1.85-2.78-.14-4.94.57.31,1.59,1.72,1.72,3.11,1.62s2.9-.53,3.6.35c-1.27,1.44-1.68,0-2.91,1.13.39,1.48,1.56,1.45,3.05,1,2-.63,3.59-1,4.71.32a12.16,12.16,0,0,0,4.65,2.94,3.86,3.86,0,0,0-.53.45c.06.27.11.55.13.67.33.18.6,0,.7-.49a.87.87,0,0,0-.08-.53c.78.31,1.54.73,2.32,1.08,3.44,1.75,7.52,1.19,11.17.89h0c.23.65.49.65.72,0,.52,0,1-.33,1.55.29.81.85,2,1,2.52-.2,1.41-3.76,3.39-2.82,5.33-3.39,1.12-.27,2.36-.22,3.47-.6a3.62,3.62,0,0,0,2.67-2.51c-.87-1-1-1.43-.86-1.74l.63-.3c.55,1.06-.81.65.23,2a5,5,0,0,0,3,.39,1.81,1.81,0,0,0,1.44-1.78c0-1.83.78-2.21,1.67-2.5s2-.33,2.42-1.28c1.09-2.87,3.89-4.09,5.61-6.44.67,2.58-2,2.64-1.13,6,3.45-2,6.15-4.85,6.55-8.73,1.07.24,1.3.08.58-.86-.86-1.14-.8-2.11.44-2.25,1.55-.18,1.7,0,1.71-.26a32.43,32.43,0,0,1,0-4.3,2.1,2.1,0,0,1,1.42.3,1.89,1.89,0,0,0,2.47-.26c.65-.54,1.25-2.11,1.89-2.26,1-.25,2.09.62,3.13-1,.34-.54.78.63,1.09-1.31.2.72,0,5.48.63,1.69.33,1.58.64,2.14.93-.26.14-.48.25-1.75.48-.58-.12,1-.33.25-.47.64-.07,2.08.26,1.47.45,1.72s.39-.4.44,1c0,1.09,0,2.81.35,2,.21-.42.49-.66.48-2.62,0-1.74,0-1.75.48-.84v0c.31-.57.71-1,.94-.12.73,2.63,1.36-.22,2-.33.15-1.39-.16-1.23-.25-1.88.34-.81.63,0,.91.73-.08.63-.33,0-.33,1.2l.15.78c0-.24-.1-.49-.16-.73h-.31c0,1.45-.58,2.34-.42,2.76.59,1.47,1.26,2.82,1.78-.82.2,1,.59-2.4.72,1.09.07,1.89.57,1.11.83.77.67-.89-.11-1.16,0-1.65.31-2.38.89-1.22,1.32-2.54.31-.95.27,1.93.4,3-.21-.15-.43-.43-.64.58.44,1.23.85,1.73,1.36.61-.31-.88-.12-2.87-.42-3.64a4,4,0,0,1,0-2.44h0c0,.79,0,1.58,0,2.38.2,0,.37-1,.58-.24h0a1.44,1.44,0,0,0,0,.8s.07-.24.11-.37c.17,1.71.33,3.57.75,1.31h0c1-.54-.35,2.05.11,2.34.36.06.71-.18,1.06-.28.72-.19,1.39-1.82,2.11-1.47h0c.1.16.12,0,.09-.48.26-1.19.59-.27.89-.66h0c1,2.77,2-.17,2.91-.6.25-.11.74.14.87-2.19.33,3.33.8.76,1.2.73,0,.42,0,.84,0,1.26h0c0,.4,0,.52.07.31l.28-.22a6.49,6.49,0,0,0,.2-2.19c-.14-.94-.31.48-.49.42l0-1.4c.69-.46,1,1.91,1.24,4.58h0a4.42,4.42,0,0,0,0,1.66c.17.53.28-.1.37-.77v0c.14.57.12,2.12.42,1.72a4.22,4.22,0,0,0,.2-1.79,1.16,1.16,0,0,1-.06-.15c0-.08,0-.26,0-.28.23-1.44.54-1.58.88-1.5.52.13,1.1,2.09,1.55-1.19.06-.4.35-.63.45.65.17,2,.43,1.4.69.58s.48-1.42.79-2.33c-.18,2.79.06,3.24.42,2s.62-1.74.92.66c.19,1.49.48,1.58.54-.83-.5-.8-.1-1.66,0-2.64a14.11,14.11,0,0,1,0,2.59c.27.23.52-.24.78-.29.65-.13,1-3.87,1.67-3.52a3.91,3.91,0,0,0-.13,1.72c.19.69.21-.51.25-1.2.94-1.37,1.43,1.13,1.71,6.13.26-1.11.52-2.28.89-1.61l.09-.49a24.45,24.45,0,0,0,.41-3.87c.19-.51.39-1,.59-1.52h0a2.12,2.12,0,0,0,.11.21c0-.19,0-.38-.05-.57a11.51,11.51,0,0,0,.1-2.67c-.54,2.47-1.23,1.23-1.87,2.14.6-1.86.84-6.66,1.84-5.21.19.28.63.89.77-1.3,0,.54,0,1.4.15,1.35a3.25,3.25,0,0,0,.17-1.09c0-1-.14-.76-.25-.69-.13-1,0-2.42-.24-3.28-.08-.35-.25-1.1,0-1.3.65-.53.3-2,.08-2.86-.68-2.81-1.27-7.14-2.35-4.43-.38.94-.76,1.48-1.12-.37,0-.28-.21-.25-.3-.11-1,1.47-2-.49-3,1.25s-2,1-3.09,1c-1.85.11-3.7.53-5.56.72-.19,0-.49.95-.57-1,.1-.35.37.17.28-.94-.06-.75-.26-.1-.37.36-.87,1.38-1.7,2.26-2.67,2.05a15.8,15.8,0,0,0-4.45-.08c-.83.06-1.68.95-2.47.48-3-1.78-6,0-9.06-.87-1-.31-2.1,0-3.13-.77-2.45-1.9-4.92-.47-7.37-.81a11.6,11.6,0,0,0-1.86-.1c0-.16-.21-.25-.75-.13a2.1,2.1,0,0,0-.58.27,14.48,14.48,0,0,0-3.58,1c-.07-.94,1.75-2.47,1.09-3.6a6.77,6.77,0,0,0-1.69,2.19c-.36-.87-.76-1.71-1.18-2.54.16.32.47.53,1.35.45a2.15,2.15,0,0,0,.81-.55c.16-.92-.62-1.31-2.55-1.12a8.3,8.3,0,0,1,.37,1.19,35.77,35.77,0,0,0-7.61-10.1l1.44.6a8.33,8.33,0,0,1,3.15,2.44c.79,1.32.38,3.26,1.62,4.18.31.21.55.67,1.48,0,.65-.49,2-1.45,1.58-1.76-1.13-.85-.73-2.82-2.51-3.16-.74-.12-.93-.63-.92-1.42a3.55,3.55,0,0,0-1.67-3.21,11.74,11.74,0,0,0-3.54-1.09c-1.74-.23-2.68-1.62-4.64-1.22-.54.14,0-1,.36-1.75a2.69,2.69,0,0,0,3.15-1.53c.9-1.6,0-2.82-1.34-2.19-1.65.79-2.47.07-3.45-.45s-1.94-1.12-3.38-.08c-.09.06-.15-.69-.23-1.09.94-1.25,2.12-.2,2.6-2.17s-1.12-1.25-1.91-1.51a23.27,23.27,0,0,0-3.27-.8,8.17,8.17,0,0,1-3.26-1.16,10.83,10.83,0,0,0-4.81-1.58,8.33,8.33,0,0,0-5.07,1.62c-.88.69-1.91,1.16-2.87-.59-.48-.85-1-.48-1.52-.62-1.21-.31-2.4.45-3.57.76s-2.34.33-4-1.63c-.09-.11-.34,0-.41.18-.94,2.38-3.05,2.54-3.61,5.34-.42,2.32-2.24,3.48-4.26,1.72-2.37-2-3.68-1.56-4.87-.73-3.39,2.6-7,5-9.66,8.41-.86.95-1.64,2-2.43,3a15.2,15.2,0,0,0-2.06,3.26,10.18,10.18,0,0,0-.69,7.85c.17.46-.19.69-.82.73-2.94.23-2.84,2.06-2.59,3.72.08.79.53,1.68.11,2.26a6.92,6.92,0,0,0-.59,6.26A41.68,41.68,0,0,1,1.71,511.42ZM126,512a3.47,3.47,0,0,1,.07-.63c.57,2.2,1-2.14,1.58-.66.17,2.38-.79,1.36-.34,4.23-.36,0-.72.12-1.07-.07S126,513.07,126,512Zm-2.1.26c.5-1.24,1-1.26,1.49,0-.15,1.12-.15.85-.43.79s-.57,1.75-.94,1.49c-.17-.11-.39.59-.43-.86A2.2,2.2,0,0,1,123.9,512.22Zm-1.9,5.14a1,1,0,0,1-.12.33c0-.18-.06-.35-.08-.53s.07-.3.11-.3S122.08,516.73,122,517.36Zm1-2.58a7.6,7.6,0,0,1-.46,2.47,5.7,5.7,0,0,1,.45-2.48Zm-.22-2.32c-.5,2.38-.95,1.66-1.65.95C121.83,512.69,122.25,511.92,122.82,512.46Zm-2,2.56.09-.44c0,.16,0,.32-.08.48s-.08.53-.13.79Zm-.85-1.61a2.63,2.63,0,0,1,0,.33c-.09.48-.16.08-.23-.16Zm-.38-.27c0,.1.06.24.1.36-.06-.1-.11-.2-.16-.3S119.58,513.1,119.6,513.14Zm-.52,3.66c0,.14,0,.27.08.43a.78.78,0,0,1,0,.23s-.06-.07-.1-.12C119,517.14,119.06,517,119.08,516.8Zm-4.24,1.43-.19,0C114.71,517.43,114.78,518.08,114.84,518.23Zm-.78.19c0,.07.08.17.12.26s0,.16,0,.15a1.76,1.76,0,0,1-.12-.2A1.5,1.5,0,0,1,114.06,518.42ZM108.28,517l.06.13-.07,0Zm-9.56-.79a.78.78,0,0,1,0,.18c0-.27,0-.54.08-.81C98.74,515.75,98.73,516,98.72,516.17Zm.71-1.22c-.18.31-.3,1.3-.51.48C99.08,515.24,99.22,514.38,99.43,515Zm-.34-1.69c-.07.78-.12,1.47-.18,2.15a.11.11,0,0,1-.15,0c.08-2.31-.26-1.67-.49-2Zm-.51,5.7c-.18.67-.31.26-.43-.2ZM98,516.33a13.1,13.1,0,0,1,.17,2.35A10.29,10.29,0,0,1,98,516.33Zm-.72,1.41,0,.32h0Zm-.61.66.05.13-.07.09Zm-1.16.68c0-.07,0-.15,0-.23l0,.26-.09.29ZM93.24,517c-.1.55-.2,1.27-.31,0Zm-1.58.72c0,.12-.1.2-.14.3,0-.19.11-.37.17-.55C91.68,517.51,91.67,517.63,91.66,517.67Zm0-5.74-.31,0v-.5C91.43,511.63,91.54,511.78,91.64,511.93Zm-4.85.57,0-.12v.2Zm3.07,3.23v-.29s0-.09.05-.13a1.28,1.28,0,0,1,0,.27A.33.33,0,0,1,89.86,515.73Zm0-4.51a3.23,3.23,0,0,1,.06.48c-.16.54-.32,1-.54.89C89.45,511,89.68,511.22,89.87,511.22Zm-1,1.51c-.4.19-.77-2-1.18-.43C88.13,510.67,88.51,511.84,88.89,512.73Zm-1.16,2c.1-.11.21.16.14.8a1.77,1.77,0,0,1-.24.77,4.14,4.14,0,0,1-.18-.76A3.88,3.88,0,0,1,87.73,514.75Zm-82,12.57c1.77-.77,1.71,0,2.46.33C6.34,528.17,5.87,527.89,5.7,527.32Zm77-13.64a2,2,0,0,1-.14.53c-.18-.2-.16-.62-.11-1.18,0-.33,0-.9.12-.59A7,7,0,0,1,82.72,513.68Zm-1.16,2.46c0,.06,0,.18,0,.27a.42.42,0,0,1-.06-.15c0-.07,0-.2,0-.3A.78.78,0,0,1,81.56,516.14Zm-.77-2.56,0,0c.26.33.32-.4.26-1.58v0c.19,1.44.18,2.51-.22,2.21a.6.6,0,0,1-.12-.11C80.76,513.92,80.78,513.75,80.79,513.58ZM57.17,545.32,57,545l1-.2Zm5.62-68.11c.7.69,2,.12,2.92.35l-.47.73a17.73,17.73,0,0,1-2.38,1.91c-.41-.24-.81-.51-1.22-.74l.22-.17a3.29,3.29,0,0,0,.32-.63l-1,0C61.72,477.15,62.35,476.85,62.79,477.21Zm-4.6-2c.46,1.13,1.31,1.29,2.2,2a6.59,6.59,0,0,0-1.79.77c-.62-.26-1.27-.47-1.91-.7a1.67,1.67,0,0,0-.25-.38C57,475.17,57.78,474.26,58.19,475.23Zm-1.78,1.71-.11.21-.5-.18A1.07,1.07,0,0,1,56.41,476.94Zm-23,0h0ZM33,469.21a2,2,0,0,1,.11.33,1.51,1.51,0,0,1-.37,0s-.08-.19-.13-.31A1.71,1.71,0,0,1,33,469.21ZM8.52,526c-1.27,0-1.25-.72-1.69-1.16C7.62,525.06,8.72,525.1,8.52,526Z"/><path class="cls-1" d="M28.44,656.77a31.76,31.76,0,0,0,1.39,3.91c.62,1.17,1.79,2.31.43,3.86h0c-.7-.24-.51-1-2.64-.9,1,.55-.51,1.9,2.33,1.2.47,1,2.16,1.53,3.29,2.16s1.78,1.35.25,3.12c-3.5,2.51-3.44,4,0,4.48-1.84.76-1.48,1.13-.55,1.37s2.51-.1,2,.76c-1.27,2.34,1.06,2.36,2,3.24s1.15,2,3.32,1.32c.26-.08.18.64.29,1l-.06,0h0l-.05.1.1-.11a4.32,4.32,0,0,1,1.21,0c1,.4,1.35,1.25.24,3.19,1.83-.58,3.26-.86,3.75.36l-.2.64c-.07.3,1.42-.62.18.46-2.15,1.85-2.78-.13-4.94.58.32,1.58,1.72,1.71,3.12,1.61s2.9-.53,3.59.35c-1.26,1.45-1.67,0-2.9,1.13.38,1.49,1.55,1.45,3,1,2-.64,3.59-1,4.71.31a12.26,12.26,0,0,0,4.65,3,3.58,3.58,0,0,0-.52.44c.05.27.1.55.13.67.32.19.6,0,.7-.49a.87.87,0,0,0-.09-.53c.79.32,1.54.73,2.33,1.09,3.43,1.74,7.51,1.19,11.16.89h0c.24.64.49.64.72,0,.52,0,1-.32,1.56.29.81.86,2,1,2.51-.2,1.41-3.75,3.39-2.82,5.34-3.39a34.79,34.79,0,0,0,3.46-.6A3.6,3.6,0,0,0,87,690.54c-.87-1-1-1.43-.85-1.73l.62-.31c.56,1.06-.81.66.24,2a5,5,0,0,0,3,.38,1.79,1.79,0,0,0,1.43-1.77c0-1.84.79-2.21,1.68-2.51s2-.32,2.42-1.28c1.09-2.87,3.88-4.09,5.6-6.44.68,2.58-2,2.64-1.12,6,3.44-2,6.14-4.84,6.55-8.73,1.07.25,1.29.08.58-.86-.87-1.14-.81-2.11.43-2.25,1.55-.18,1.7,0,1.71-.26a32.35,32.35,0,0,1,0-4.3,2.09,2.09,0,0,1,1.41.31,1.91,1.91,0,0,0,2.48-.27c.64-.54,1.24-2.11,1.88-2.26,1-.25,2.09.63,3.13-1,.35-.53.78.63,1.09-1.31.21.72,0,5.48.64,1.69.32,1.58.64,2.15.92-.26.15-.48.26-1.75.49-.57-.13,1-.33.24-.48.64-.06,2.08.26,1.46.46,1.71s.39-.4.44,1c0,1.09,0,2.81.35,2,.21-.42.48-.66.47-2.61,0-1.75.06-1.75.48-.85v0l0,.12s0-.09,0-.13c.32-.58.72-1,1-.13.72,2.63,1.36-.22,2-.32.15-1.4-.15-1.24-.25-1.89.35-.8.63,0,.91.73-.07.64-.32,0-.33,1.21.06.26.11.51.16.78-.06-.25-.11-.5-.16-.74H126c0,1.45-.59,2.35-.42,2.77.58,1.46,1.25,2.82,1.78-.82.19,1,.58-2.41.72,1.08.07,1.89.56,1.11.82.77.67-.89-.11-1.15,0-1.64.31-2.39.89-1.23,1.32-2.55.31-1,.27,1.93.41,3-.22-.16-.43-.43-.64.57.43,1.23.84,1.73,1.35.61-.3-.88-.12-2.86-.42-3.64a4,4,0,0,1,0-2.44h0c0,.79,0,1.59,0,2.38.2,0,.38-1,.58-.24h0a1.5,1.5,0,0,0,0,.79s.07-.24.1-.37c.17,1.72.33,3.58.75,1.31h0c1-.53-.36,2.05.11,2.35.35,0,.7-.19,1.05-.29.72-.19,1.39-1.82,2.11-1.47h0c.1.16.12,0,.09-.47.27-1.2.6-.28.89-.67h0c1,2.77,1.95-.17,2.92-.6.25-.11.74.14.87-2.19.33,3.33.79.76,1.2.73,0,.42,0,.84,0,1.26h0c0,.4,0,.52.07.32l.29-.23a7,7,0,0,0,.2-2.19c-.15-.94-.32.49-.49.42,0-.47,0-.93,0-1.4.69-.45,1,1.91,1.25,4.59h0a4.37,4.37,0,0,0,0,1.65c.17.53.28-.1.37-.77v0c.14.58.13,2.12.42,1.72a4.2,4.2,0,0,0,.2-1.78,1.38,1.38,0,0,1-.06-.16,1.23,1.23,0,0,1,0-.27c.23-1.44.53-1.59.87-1.51.53.14,1.11,2.09,1.56-1.19.05-.39.34-.63.45.65.16,2,.42,1.41.69.58s.47-1.42.78-2.33c-.18,2.79.06,3.24.42,2s.63-1.74.92.66c.19,1.49.49,1.58.55-.83-.51-.8-.1-1.66,0-2.63a14.14,14.14,0,0,1,0,2.59c.26.23.52-.25.77-.3.65-.13,1-3.86,1.67-3.52a3.92,3.92,0,0,0-.13,1.72c.2.69.22-.51.25-1.2,1-1.37,1.44,1.13,1.71,6.13.27-1.1.53-2.28.89-1.61l.09-.49a24.45,24.45,0,0,0,.41-3.87l.59-1.52h0a2.12,2.12,0,0,1,.11.21c0-.19,0-.38,0-.57a11.05,11.05,0,0,0,.09-2.67c-.53,2.47-1.23,1.23-1.87,2.15.6-1.87.85-6.66,1.84-5.21.19.27.63.88.77-1.31,0,.55,0,1.41.16,1.35a3.48,3.48,0,0,0,.17-1.09c0-1-.14-.76-.26-.69-.13-1,0-2.41-.23-3.28-.09-.34-.26-1.09,0-1.29.66-.53.31-2,.09-2.86-.69-2.82-1.27-7.15-2.36-4.44-.37.94-.76,1.49-1.11-.36-.06-.29-.21-.26-.31-.12-1,1.48-2-.48-3,1.25s-2.05,1-3.08,1c-1.86.11-3.71.53-5.57.72-.18,0-.49,1-.56-1,.09-.35.36.17.27-.94-.06-.74-.25-.1-.37.37-.87,1.38-1.7,2.25-2.67,2.05a15.79,15.79,0,0,0-4.45-.09c-.82.07-1.68.95-2.47.48-3-1.78-6,0-9.06-.87-1-.31-2.1,0-3.13-.77-2.45-1.9-4.91-.47-7.37-.81A11.41,11.41,0,0,0,110,643c0-.17-.22-.26-.75-.14a2,2,0,0,0-.58.27,14.56,14.56,0,0,0-3.59,1c-.07-.93,1.75-2.47,1.09-3.59a6.91,6.91,0,0,0-1.69,2.18c-.35-.87-.76-1.71-1.18-2.54.16.33.48.53,1.35.45a2.19,2.19,0,0,0,.82-.55c.15-.92-.63-1.3-2.56-1.12a10,10,0,0,1,.38,1.19,35.8,35.8,0,0,0-7.62-10.09l1.44.6a8.23,8.23,0,0,1,3.15,2.44c.8,1.32.38,3.25,1.62,4.17.31.22.55.67,1.48,0,.65-.48,2-1.45,1.59-1.76-1.14-.85-.74-2.81-2.52-3.16-.74-.12-.93-.63-.92-1.42a3.55,3.55,0,0,0-1.66-3.21,11.62,11.62,0,0,0-3.54-1.08c-1.75-.24-2.69-1.63-4.65-1.22-.54.13,0-1,.36-1.76a2.67,2.67,0,0,0,3.15-1.53c.91-1.59,0-2.82-1.33-2.19-1.66.79-2.48.07-3.46-.45s-1.94-1.12-3.37-.08c-.1.07-.15-.69-.24-1.08,1-1.25,2.13-.21,2.6-2.18s-1.12-1.25-1.91-1.5a22,22,0,0,0-3.27-.81,8,8,0,0,1-3.26-1.16,10.91,10.91,0,0,0-4.81-1.58A8.29,8.29,0,0,0,71,612.72c-.87.68-1.91,1.15-2.87-.59-.48-.85-1-.48-1.51-.63-1.22-.31-2.41.45-3.58.76s-2.34.33-4-1.63c-.09-.11-.34,0-.4.18-.94,2.39-3.06,2.54-3.61,5.34-.43,2.32-2.25,3.48-4.27,1.72-2.37-2-3.68-1.56-4.87-.73-3.38,2.6-7,5.05-9.66,8.42-.86.94-1.64,2-2.43,3a15.27,15.27,0,0,0-2.06,3.25,10.18,10.18,0,0,0-.68,7.85c.16.46-.19.69-.82.73-3,.24-2.85,2.07-2.6,3.73.08.78.53,1.67.11,2.25a6.92,6.92,0,0,0-.59,6.26A42.63,42.63,0,0,1,28.44,656.77Zm124.28.54c0-.2.05-.41.07-.62.57,2.2,1.05-2.15,1.58-.66.17,2.37-.78,1.35-.34,4.22-.36,0-.72.12-1.07-.06S152.73,658.42,152.72,657.31Zm-2.1.26c.5-1.24,1-1.26,1.49.06-.15,1.11-.14.84-.43.79s-.57,1.74-.94,1.48c-.16-.11-.39.59-.43-.85A2.23,2.23,0,0,1,150.62,657.57Zm-1.9,5.15a1,1,0,0,1-.12.32c0-.18,0-.35-.08-.53s.08-.3.11-.3S148.8,662.08,148.72,662.72Zm1-2.59a7.6,7.6,0,0,1-.46,2.47,5.69,5.69,0,0,1,.46-2.48Zm-.22-2.32c-.49,2.38-.95,1.66-1.64,1C148.56,658,149,657.27,149.54,657.81Zm-2,2.57.09-.45c0,.17,0,.33-.08.49l-.12.78C147.48,660.92,147.52,660.65,147.55,660.38Zm-.85-1.61a3.22,3.22,0,0,1,0,.33c-.1.47-.16.08-.24-.17Zm-.38-.28a2.8,2.8,0,0,1,.1.37l-.16-.3S146.31,658.45,146.32,658.49Zm-.51,3.66c0,.14.05.28.07.43a1.33,1.33,0,0,1,0,.24s-.07-.08-.1-.13C145.76,662.49,145.78,662.32,145.81,662.15Zm-4.24,1.43-.2,0C141.43,662.78,141.5,663.43,141.57,663.58Zm-.78.19a1.56,1.56,0,0,1,.11.26c0,.05,0,.16,0,.15a1.2,1.2,0,0,1-.11-.2A.82.82,0,0,1,140.79,663.77ZM135,662.31l.05.13-.06,0Zm-9.57-.78a.48.48,0,0,1,0,.17l.08-.81C125.46,661.11,125.46,661.32,125.44,661.53Zm.71-1.23c-.17.31-.3,1.3-.51.49C125.81,660.6,125.94,659.73,126.15,660.3Zm-.34-1.68c-.06.77-.12,1.46-.18,2.14a.1.1,0,0,1-.15,0c.09-2.3-.26-1.67-.49-2Zm-.51,5.7c-.18.66-.3.26-.43-.2Zm-.62-2.63a12.86,12.86,0,0,1,.18,2.34A10.12,10.12,0,0,1,124.68,661.69Zm-.72,1.4,0,.32h0Zm-.61.66.06.13-.07.09Zm-1.16.68a1.74,1.74,0,0,0,0-.22l0,.25c0,.1-.07.19-.1.29ZM120,662.3c-.1.55-.19,1.27-.3,0Zm-1.58.72a2.09,2.09,0,0,1-.14.3c.06-.18.12-.37.17-.55A1.31,1.31,0,0,1,118.38,663Zm0-5.74-.31,0c0-.16,0-.33,0-.5Zm-4.86.57,0-.11,0,.19Zm3.08,3.23,0-.29.06-.13c0,.09,0,.22,0,.27A1.31,1.31,0,0,1,116.59,661.08Zm0-4.51a3.23,3.23,0,0,1,.06.49c-.17.53-.33,1-.54.88C116.18,656.31,116.4,656.58,116.6,656.57Zm-1,1.51c-.39.19-.76-2-1.18-.42C114.86,656,115.23,657.19,115.61,658.08Zm-1.16,2c.1-.11.21.15.15.79a1.77,1.77,0,0,1-.24.77c0,.05-.1-.38-.19-.76A4.4,4.4,0,0,1,114.45,660.11Zm-82,12.56c1.76-.77,1.7,0,2.45.33C33.07,673.53,32.6,673.24,32.43,672.67Zm77-13.64a2.5,2.5,0,0,1-.13.54c-.19-.21-.17-.63-.12-1.19,0-.32,0-.89.12-.59A7,7,0,0,1,109.44,659Zm-1.16,2.46c0,.06,0,.18,0,.28a.34.34,0,0,1,0-.16c0-.07,0-.19,0-.3A.78.78,0,0,1,108.28,661.49Zm-.76-2.56v0c.27.33.32-.4.27-1.58v0c.19,1.44.19,2.51-.22,2.22a.63.63,0,0,1-.11-.12C107.49,659.28,107.5,659.1,107.52,658.93ZM83.9,690.67l-.19-.32,1-.2Zm5.61-68.11c.71.69,2,.12,2.93.35l-.48.74a16.43,16.43,0,0,1-2.38,1.9c-.41-.24-.8-.51-1.22-.73l.22-.18a2.92,2.92,0,0,0,.32-.62l-1,0-.37.39h0l.37-.39C88.44,622.5,89.08,622.2,89.51,622.56Zm-4.6-2c.47,1.13,1.32,1.28,2.21,2a7,7,0,0,0-1.8.77c-.62-.26-1.26-.47-1.9-.7a2.49,2.49,0,0,0-.25-.38C83.71,620.52,84.5,619.61,84.91,620.59Zm-1.78,1.71-.1.21-.5-.19A1,1,0,0,1,83.13,622.3Zm-23,0h0v0Zm-.47-7.78s.07.22.11.33a1.62,1.62,0,0,1-.38,0,2.75,2.75,0,0,1-.13-.32A1.75,1.75,0,0,1,59.7,614.56ZM35.24,671.31c-1.27,0-1.25-.72-1.69-1.16C34.35,670.41,35.45,670.45,35.24,671.31Z"/><path class="cls-1" d="M44.46,216.56a42.49,42.49,0,0,1,1.23,4.15,33,33,0,0,0,1.39,3.92c.63,1.16,1.79,2.31.44,3.85h0c-.71-.24-.51-1-2.64-.9,1,.55-.52,1.9,2.33,1.2.46,1,2.16,1.53,3.29,2.17s1.77,1.35.24,3.11c-3.5,2.51-3.43,4,0,4.48-1.84.77-1.48,1.13-.55,1.37s2.52-.1,2,.76c-1.27,2.34,1.06,2.36,2,3.24s1.15,2,3.32,1.32c.26-.08.17.64.29,1h-.06l0,.1.1-.1a4,4,0,0,1,1.21,0c1,.39,1.34,1.24.24,3.18,1.82-.57,3.26-.86,3.74.36l-.2.64c-.06.3,1.42-.61.19.46-2.16,1.85-2.78-.13-4.94.58.31,1.58,1.72,1.72,3.11,1.61s2.9-.53,3.6.35c-1.27,1.45-1.68,0-2.91,1.13.39,1.49,1.56,1.46,3,1,2-.64,3.59-1,4.7.32a12.39,12.39,0,0,0,4.66,2.94,3.14,3.14,0,0,0-.53.44c.06.28.11.55.13.68.33.18.6,0,.7-.49a.9.9,0,0,0-.08-.54c.78.32,1.54.73,2.32,1.09,3.44,1.75,7.52,1.19,11.17.89h0c.23.64.48.64.72,0,.52,0,1-.33,1.55.28.81.86,2,1,2.52-.19,1.41-3.76,3.39-2.82,5.33-3.39,1.12-.28,2.36-.22,3.47-.61a3.6,3.6,0,0,0,2.67-2.5c-.87-1-1-1.44-.86-1.74l.63-.3c.55,1.05-.81.65.23,2a5.12,5.12,0,0,0,3,.39,1.83,1.83,0,0,0,1.44-1.78c0-1.84.78-2.21,1.67-2.51s2-.32,2.42-1.28c1.09-2.87,3.89-4.09,5.61-6.43.67,2.57-2,2.64-1.13,6,3.45-2,6.15-4.84,6.55-8.73,1.07.25,1.3.08.58-.86-.86-1.14-.8-2.11.44-2.25,1.55-.18,1.7,0,1.71-.26a30.67,30.67,0,0,1,0-4.29,2,2,0,0,1,1.42.3,1.88,1.88,0,0,0,2.47-.27c.65-.54,1.24-2.1,1.89-2.26,1-.24,2.09.63,3.13-1,.34-.53.77.63,1.09-1.31.2.73,0,5.48.63,1.7.33,1.57.64,2.14.93-.26.14-.49.25-1.76.48-.58-.12,1-.33.24-.47.64-.07,2.08.25,1.46.45,1.71s.39-.4.44,1c0,1.09,0,2.81.35,2,.21-.42.49-.66.48-2.61,0-1.74,0-1.75.48-.85v0c.31-.58.71-1,.94-.13.73,2.63,1.36-.21,2-.32.15-1.39-.16-1.24-.25-1.89.34-.8.62,0,.91.74-.08.63-.33,0-.33,1.2l.15.78c-.05-.25-.1-.49-.16-.74h-.31c0,1.46-.58,2.35-.42,2.77.59,1.47,1.26,2.82,1.78-.82.2,1,.59-2.41.72,1.08.07,1.89.57,1.12.83.77.67-.88-.11-1.15-.05-1.64.31-2.39.89-1.23,1.32-2.55.3-.94.27,1.94.4,3.05-.21-.16-.43-.43-.64.57.44,1.23.85,1.74,1.36.61-.31-.88-.12-2.86-.42-3.63a4,4,0,0,1,0-2.45h0l0,2.38c.19,0,.37-1,.58-.23h0a1.44,1.44,0,0,0,0,.8s.07-.24.11-.38c.17,1.72.32,3.58.75,1.31h0c1-.54-.35,2,.11,2.34.36.05.71-.19,1.06-.28.72-.19,1.39-1.82,2.11-1.47h0c.09.16.12,0,.09-.48.26-1.2.59-.28.88-.67h0c1,2.77,1.95-.17,2.91-.59.25-.11.74.13.87-2.19.33,3.32.8.75,1.2.72,0,.42,0,.84,0,1.26h0c0,.41,0,.52.07.32l.28-.22a6.54,6.54,0,0,0,.2-2.19c-.14-.95-.31.48-.49.41l0-1.39c.69-.46,1,1.9,1.24,4.58h0a4.36,4.36,0,0,0,0,1.65c.17.53.28-.09.36-.76h0v0c.14.58.12,2.13.42,1.72a4.17,4.17,0,0,0,.2-1.78,1.38,1.38,0,0,1-.06-.16,2.33,2.33,0,0,1-.05-.27c.23-1.44.54-1.59.87-1.5.53.13,1.11,2.08,1.56-1.2.06-.39.35-.63.45.65.17,2,.43,1.41.69.58s.48-1.42.79-2.33c-.18,2.79.06,3.24.42,2s.62-1.74.92.66c.18,1.5.48,1.59.54-.82-.5-.81-.1-1.67,0-2.64a14.11,14.11,0,0,1,0,2.59c.27.23.52-.25.77-.3.66-.13,1-3.86,1.68-3.52a3.92,3.92,0,0,0-.13,1.72c.19.69.21-.51.25-1.2.94-1.36,1.43,1.13,1.71,6.13.26-1.1.52-2.27.89-1.61l.09-.48a24.72,24.72,0,0,0,.41-3.88c.19-.5.39-1,.59-1.52h0l.11.22c0-.19,0-.38,0-.57a11.54,11.54,0,0,0,.1-2.67c-.54,2.46-1.23,1.23-1.87,2.14.6-1.86.84-6.66,1.84-5.21.19.28.63.88.77-1.3,0,.54,0,1.4.15,1.34a3.2,3.2,0,0,0,.17-1.09c0-1-.14-.75-.25-.69-.13-1,0-2.41-.24-3.27-.08-.35-.25-1.1,0-1.3.65-.53.3-2,.08-2.86-.68-2.82-1.27-7.14-2.35-4.43-.38.93-.76,1.48-1.12-.37-.05-.29-.21-.26-.3-.12-1,1.48-2-.48-3,1.26s-2.05,1-3.09,1c-1.85.11-3.71.54-5.56.72-.19,0-.49.95-.57-1,.1-.35.37.18.28-.94-.06-.74-.26-.09-.38.37-.86,1.38-1.69,2.25-2.66,2a15.43,15.43,0,0,0-4.45-.08c-.83.06-1.68.94-2.47.48-3-1.79-6,0-9.06-.87-1-.32-2.1,0-3.13-.78-2.45-1.9-4.92-.47-7.37-.81a11.59,11.59,0,0,0-1.86-.09c0-.16-.21-.25-.75-.14a2.92,2.92,0,0,0-.58.27,14.93,14.93,0,0,0-3.58,1c-.07-.93,1.75-2.47,1.09-3.59a6.76,6.76,0,0,0-1.69,2.18c-.36-.87-.76-1.71-1.18-2.54.16.33.47.53,1.35.46a2.17,2.17,0,0,0,.81-.56c.16-.92-.62-1.3-2.55-1.12a8.3,8.3,0,0,1,.37,1.19A35.59,35.59,0,0,0,112.89,194l1.44.6a8.23,8.23,0,0,1,3.15,2.44c.79,1.32.38,3.26,1.62,4.17.31.22.55.67,1.48,0,.65-.49,2-1.45,1.58-1.77-1.13-.85-.73-2.81-2.51-3.15-.75-.13-.93-.63-.92-1.43a3.55,3.55,0,0,0-1.67-3.2,11.2,11.2,0,0,0-3.54-1.09c-1.74-.24-2.68-1.63-4.64-1.22-.54.13,0-1,.36-1.75a2.7,2.7,0,0,0,3.15-1.53c.9-1.6,0-2.82-1.34-2.2-1.65.8-2.47.08-3.45-.45s-1.94-1.11-3.38-.08c-.09.07-.15-.68-.23-1.08.94-1.25,2.12-.21,2.6-2.18s-1.12-1.24-1.91-1.5a23.27,23.27,0,0,0-3.27-.8,8.19,8.19,0,0,1-3.26-1.17A11,11,0,0,0,93.34,175a8.34,8.34,0,0,0-5.07,1.63c-.88.68-1.91,1.15-2.88-.59-.47-.85-1-.48-1.51-.63-1.21-.31-2.4.45-3.57.76s-2.34.34-4-1.63c-.09-.1-.34,0-.41.19-.94,2.38-3.05,2.53-3.61,5.33-.42,2.32-2.24,3.48-4.26,1.72-2.37-2-3.68-1.56-4.87-.73-3.39,2.6-7,5-9.66,8.42-.86.94-1.65,2-2.43,3A15.2,15.2,0,0,0,49,195.75a10.15,10.15,0,0,0-.69,7.84c.17.47-.19.69-.82.74-2.94.23-2.84,2.06-2.6,3.72.09.78.54,1.68.12,2.26A6.9,6.9,0,0,0,44.46,216.56ZM170,221.26a4.72,4.72,0,0,1,.08-.63c.57,2.2,1-2.15,1.58-.66.17,2.38-.79,1.36-.34,4.22-.36,0-.72.13-1.07-.06S170,222.36,170,221.26Zm-2.09.25c.49-1.23,1-1.25,1.49.06-.15,1.12-.15.85-.43.79s-.57,1.74-.94,1.49c-.17-.12-.4.58-.43-.86A2.25,2.25,0,0,1,167.88,221.51Zm-1.9,5.15a1,1,0,0,1-.12.32c0-.18-.06-.35-.08-.52s.07-.3.11-.31S166.06,226,166,226.66Zm1-2.59a7.6,7.6,0,0,1-.45,2.47,5.64,5.64,0,0,1,.45-2.47Zm-.21-2.32c-.5,2.38-1,1.67-1.65,1C165.81,222,166.23,221.22,166.8,221.75Zm-2,2.57.09-.44c0,.16-.06.32-.08.48s-.08.52-.13.78Zm-.85-1.61a2.92,2.92,0,0,1,0,.33c-.09.48-.16.08-.23-.16A2.2,2.2,0,0,1,164,222.71Zm-.38-.28c0,.11.06.24.1.37-.06-.1-.11-.2-.16-.3S163.56,222.39,163.58,222.43Zm-.52,3.67c0,.14.05.27.08.43a.78.78,0,0,1,0,.23s-.06-.08-.1-.12C163,226.44,163,226.27,163.06,226.1Zm-4.24,1.42-.19,0C158.69,226.72,158.76,227.38,158.82,227.52Zm-.78.2a2,2,0,0,1,.12.25c0,.06,0,.16,0,.15a1.17,1.17,0,0,1-.12-.2C158,227.84,158,227.7,158,227.72Zm-5.78-1.47.06.13-.07.05Zm-9.56-.78a1.22,1.22,0,0,1,0,.17c0-.27,0-.53.08-.8C142.72,225.05,142.71,225.27,142.7,225.47Zm.7-1.23c-.17.31-.3,1.3-.5.49C143.06,224.54,143.2,223.68,143.4,224.24Zm-.33-1.68c-.07.78-.12,1.46-.18,2.14a.1.1,0,0,1-.15,0c.08-2.3-.26-1.67-.49-2.05Zm-.51,5.7c-.18.66-.31.26-.43-.2Zm-.62-2.63a12.92,12.92,0,0,1,.17,2.34A10.2,10.2,0,0,1,141.94,225.63Zm-.72,1.4c0,.11,0,.22-.05.33h0Zm-.61.67,0,.13-.07.09Zm-1.16.68a1.89,1.89,0,0,1,.05-.23c0,.08,0,.17-.05.25l-.09.29Zm-2.23-2.14c-.1.55-.2,1.28-.31,0Zm-1.58.72c0,.12-.1.21-.14.3.05-.18.11-.36.17-.54C135.66,226.8,135.65,226.92,135.64,227Zm0-5.73-.31,0v-.5C135.41,220.92,135.52,221.07,135.62,221.23Zm-4.85.56,0-.11v.19Zm3.07,3.23v-.29a.61.61,0,0,1,0-.12,1.21,1.21,0,0,1,0,.26A.44.44,0,0,1,133.84,225Zm0-4.51a3.23,3.23,0,0,1,.06.49c-.16.54-.32,1-.54.88C133.43,220.26,133.66,220.52,133.85,220.51Zm-1,1.51c-.4.19-.77-2-1.18-.42C132.11,220,132.49,221.14,132.87,222Zm-1.17,2c.11-.11.22.15.15.79a1.77,1.77,0,0,1-.24.77,3.89,3.89,0,0,1-.18-.76A4.64,4.64,0,0,1,131.7,224.05Zm-82,12.56c1.77-.77,1.71,0,2.46.33C50.32,237.47,49.85,237.18,49.68,236.61Zm77-13.63a2.6,2.6,0,0,1-.14.53c-.18-.2-.16-.63-.11-1.18,0-.33,0-.9.12-.59A6.81,6.81,0,0,1,126.7,223Zm-1.16,2.45a1.52,1.52,0,0,1,0,.28,1.31,1.31,0,0,1,0-.15c0-.08,0-.2,0-.3A1.22,1.22,0,0,1,125.54,225.43Zm-.77-2.56,0,0c.26.33.32-.4.26-1.57v0c.19,1.44.18,2.51-.22,2.22a1.36,1.36,0,0,1-.12-.12C124.74,223.22,124.75,223.05,124.77,222.87Zm-23.62,31.74-.19-.32,1-.19Zm5.62-68.1c.7.69,2,.11,2.92.34l-.47.74a17.58,17.58,0,0,1-2.38,1.9c-.41-.24-.81-.5-1.22-.73l.22-.18a3.15,3.15,0,0,0,.32-.62l-1,0C105.7,186.44,106.33,186.14,106.77,186.51Zm-4.6-2c.46,1.13,1.31,1.28,2.2,2a7.29,7.29,0,0,0-1.79.77c-.62-.26-1.27-.47-1.91-.7a2.49,2.49,0,0,0-.25-.38C101,184.46,101.76,183.55,102.17,184.53Zm-1.78,1.71-.11.21c-.16-.06-.33-.13-.5-.18A.92.92,0,0,1,100.39,186.24Zm-23,0h0v0ZM77,178.51a2.13,2.13,0,0,1,.11.32,1.51,1.51,0,0,1-.37,0s-.08-.2-.13-.32A1.7,1.7,0,0,1,77,178.51ZM52.5,235.25c-1.28,0-1.25-.71-1.69-1.16C51.6,234.36,52.7,234.39,52.5,235.25Z"/><path class="cls-1" d="M23.15,366.07A33.5,33.5,0,0,0,24.54,370c.63,1.16,1.79,2.31.44,3.86h0c-.71-.24-.51-1-2.64-.9,1,.54-.52,1.9,2.33,1.19.46,1,2.15,1.53,3.29,2.17s1.77,1.35.24,3.12c-3.5,2.51-3.43,4,0,4.48-1.84.76-1.48,1.12-.55,1.37s2.52-.11,2,.75c-1.27,2.34,1.06,2.36,2,3.24s1.14,2,3.32,1.32c.26-.08.17.64.28,1h0l-.05.1.09-.1a4,4,0,0,1,1.22,0c1,.4,1.34,1.24.24,3.18,1.82-.57,3.26-.85,3.74.37l-.2.64c-.06.29,1.42-.62.19.45-2.16,1.85-2.78-.13-4.94.58.31,1.58,1.72,1.72,3.11,1.61s2.9-.53,3.6.35c-1.27,1.45-1.68,0-2.91,1.14.39,1.48,1.56,1.45,3.05,1,2-.63,3.59-1,4.7.32a12.39,12.39,0,0,0,4.66,2.94,3.14,3.14,0,0,0-.53.44c.06.28.11.55.13.68.33.18.6,0,.7-.49a.86.86,0,0,0-.08-.53c.78.31,1.54.73,2.32,1.08,3.44,1.75,7.52,1.19,11.17.89h0c.23.64.48.64.72,0,.52,0,1-.33,1.55.29.81.85,2,1,2.52-.2,1.41-3.76,3.38-2.82,5.33-3.39,1.12-.28,2.36-.22,3.47-.6a3.64,3.64,0,0,0,2.67-2.51c-.87-1-1-1.44-.86-1.74l.63-.3c.55,1.05-.81.65.23,2a5.12,5.12,0,0,0,3,.39,1.82,1.82,0,0,0,1.44-1.78c0-1.83.78-2.21,1.67-2.5s2-.33,2.42-1.29c1.09-2.87,3.89-4.08,5.61-6.43.67,2.57-2,2.64-1.13,6,3.45-2,6.14-4.84,6.55-8.73,1.07.25,1.3.09.58-.85-.86-1.14-.8-2.12.44-2.25,1.55-.19,1.7,0,1.71-.27a30.67,30.67,0,0,1,0-4.29,2.06,2.06,0,0,1,1.41.3,1.9,1.9,0,0,0,2.48-.26c.65-.55,1.24-2.11,1.89-2.26,1-.25,2.09.62,3.13-1,.34-.53.77.63,1.09-1.31.2.73,0,5.48.63,1.7.33,1.58.64,2.14.93-.26.14-.49.25-1.75.48-.58-.12,1-.33.25-.47.64-.07,2.08.25,1.47.45,1.72s.39-.41.44.95c0,1.1,0,2.82.35,2,.21-.41.49-.66.48-2.61,0-1.74,0-1.75.48-.85v0c.31-.58.71-1,.94-.13.73,2.63,1.36-.21,2-.32.15-1.39-.16-1.24-.25-1.88.34-.81.62,0,.91.73-.08.63-.33,0-.33,1.2l.15.78c0-.24-.1-.49-.16-.74h-.31c0,1.46-.59,2.35-.42,2.77.58,1.47,1.26,2.82,1.78-.82.2,1,.59-2.4.72,1.08.07,1.9.57,1.12.83.78.67-.89-.11-1.16,0-1.65.31-2.39.89-1.22,1.32-2.54.3-.95.27,1.93.4,3-.21-.15-.43-.43-.64.58.44,1.23.85,1.73,1.36.61-.31-.88-.12-2.87-.42-3.64a4,4,0,0,1,0-2.44h0c0,.79,0,1.58,0,2.37.19,0,.37-1,.58-.23h0a1.44,1.44,0,0,0,0,.8c0,.05.07-.24.11-.38.17,1.72.32,3.58.75,1.32h0c1-.54-.35,2,.11,2.34.36.06.71-.19,1.06-.28.71-.19,1.39-1.82,2.11-1.47h0c.09.16.12,0,.09-.48.26-1.2.59-.27.88-.67h0c1,2.77,1.95-.17,2.91-.6.25-.11.74.14.87-2.19.33,3.32.8.75,1.2.73,0,.42,0,.83,0,1.25h0c0,.4,0,.52.07.31l.28-.22a6.52,6.52,0,0,0,.2-2.19c-.14-.95-.31.48-.49.41l0-1.39c.69-.46,1,1.91,1.24,4.58h0a4.37,4.37,0,0,0,0,1.65c.17.53.28-.09.36-.76v0c.14.58.12,2.13.42,1.73a4.22,4.22,0,0,0,.2-1.79,1.38,1.38,0,0,1-.06-.16,2.33,2.33,0,0,1-.05-.27c.23-1.44.54-1.59.87-1.5.53.13,1.11,2.08,1.56-1.19.06-.4.35-.63.45.65.17,2,.43,1.4.69.57s.48-1.41.79-2.33c-.18,2.79.06,3.25.42,2s.62-1.74.92.66c.18,1.49.48,1.58.54-.83-.5-.81-.1-1.66,0-2.64a14.11,14.11,0,0,1,0,2.59c.27.23.52-.25.77-.3.66-.13,1-3.86,1.68-3.51a3.89,3.89,0,0,0-.13,1.72c.19.68.21-.51.25-1.21.94-1.36,1.43,1.14,1.71,6.13.26-1.1.52-2.27.89-1.61l.09-.48a24.45,24.45,0,0,0,.41-3.88c.19-.5.39-1,.59-1.51h0a2.12,2.12,0,0,0,.11.21c0-.19,0-.38-.05-.57a11.54,11.54,0,0,0,.1-2.67c-.54,2.47-1.24,1.23-1.87,2.14.6-1.86.84-6.66,1.84-5.21.19.28.63.89.76-1.3,0,.54,0,1.4.16,1.35a3.28,3.28,0,0,0,.17-1.1c0-1-.14-.75-.25-.68-.13-1,0-2.42-.24-3.28-.08-.35-.25-1.1,0-1.3.65-.53.3-1.95.08-2.86-.68-2.82-1.27-7.14-2.35-4.43-.38.94-.76,1.48-1.12-.37,0-.28-.21-.25-.3-.11-1,1.47-2-.49-3,1.25s-2.05,1-3.09,1c-1.85.11-3.71.54-5.56.73-.19,0-.5.94-.57-1h0c.1-.34.37.18.28-.94-.06-.74-.26-.09-.38.37-.86,1.38-1.69,2.26-2.66,2.05a15.43,15.43,0,0,0-4.45-.08c-.83.06-1.68.94-2.47.48-3-1.78-6,0-9.06-.87-1-.32-2.1,0-3.13-.77-2.45-1.91-4.92-.47-7.37-.81a11.6,11.6,0,0,0-1.86-.1c0-.16-.21-.25-.75-.13a2.1,2.1,0,0,0-.58.27,14.9,14.9,0,0,0-3.58,1c-.07-.93,1.75-2.46,1.09-3.59A6.86,6.86,0,0,0,99.16,352c-.36-.86-.76-1.7-1.18-2.53.16.32.47.53,1.35.45a2.14,2.14,0,0,0,.81-.56c.16-.92-.62-1.3-2.56-1.11a7,7,0,0,1,.38,1.19,35.63,35.63,0,0,0-7.61-10.1l1.44.6a8.23,8.23,0,0,1,3.15,2.44c.79,1.32.38,3.26,1.62,4.18.31.21.55.66,1.48,0,.65-.49,2-1.45,1.58-1.77-1.13-.84-.73-2.81-2.51-3.15-.75-.12-.93-.63-.92-1.42A3.55,3.55,0,0,0,94.52,337,11.2,11.2,0,0,0,91,335.92c-1.74-.24-2.68-1.63-4.64-1.22-.54.13,0-1,.36-1.75a2.7,2.7,0,0,0,3.15-1.53c.9-1.6,0-2.82-1.34-2.19-1.65.79-2.47.07-3.45-.45s-1.94-1.12-3.38-.09c-.09.07-.15-.68-.23-1.08.94-1.25,2.12-.21,2.6-2.17s-1.12-1.25-1.91-1.51a23.27,23.27,0,0,0-3.27-.8A8.19,8.19,0,0,1,75.61,322a11,11,0,0,0-4.81-1.58A8.34,8.34,0,0,0,65.73,322c-.88.69-1.91,1.16-2.88-.59-.47-.85-1-.48-1.51-.63-1.21-.3-2.4.45-3.57.77s-2.34.33-4-1.63c-.09-.11-.34,0-.41.18-.94,2.38-3,2.53-3.61,5.33-.42,2.33-2.24,3.48-4.26,1.72-2.37-2-3.68-1.56-4.87-.73-3.39,2.61-7,5.06-9.66,8.42-.87.95-1.65,2-2.43,3a15.2,15.2,0,0,0-2.06,3.26,10.18,10.18,0,0,0-.69,7.85c.17.46-.19.69-.82.73-2.94.23-2.84,2.06-2.6,3.72.09.78.54,1.68.12,2.26a6.9,6.9,0,0,0-.59,6.25A42.65,42.65,0,0,1,23.15,366.07Zm124.28.54a4.72,4.72,0,0,1,.08-.63c.57,2.2,1-2.14,1.58-.66.17,2.38-.79,1.36-.34,4.22-.36,0-.72.13-1.07-.06S147.45,367.72,147.43,366.61Zm-2.09.26c.49-1.24,1-1.26,1.49.05-.15,1.12-.15.85-.43.79s-.57,1.75-.94,1.49c-.17-.12-.4.59-.44-.86A2.24,2.24,0,0,1,145.34,366.87Zm-1.9,5.14a.74.74,0,0,1-.13.32c0-.17-.05-.35-.07-.52s.07-.3.11-.3S143.52,371.38,143.44,372Zm1-2.59a7.74,7.74,0,0,1-.45,2.48,5.66,5.66,0,0,1,.45-2.48Zm-.21-2.32c-.5,2.38-.95,1.67-1.65,1C143.27,367.34,143.69,366.57,144.26,367.1Zm-2,2.57.09-.44c0,.16-.06.32-.08.48s-.08.52-.13.78Zm-.85-1.61a2.92,2.92,0,0,1,0,.33c-.09.48-.16.08-.23-.16Zm-.38-.27c0,.1.06.23.09.36l-.15-.3S141,367.75,141,367.79Zm-.52,3.66c0,.14,0,.27.07.43a.56.56,0,0,1,0,.23s-.06-.07-.1-.12S140.5,371.62,140.52,371.45Zm-4.24,1.42-.19.05C136.15,372.08,136.22,372.73,136.28,372.87Zm-.78.2a2.17,2.17,0,0,1,.12.26c0,.05,0,.16,0,.14a.87.87,0,0,1-.12-.2A1.57,1.57,0,0,1,135.5,373.07Zm-5.78-1.47.06.14-.07.05Zm-9.56-.78a1.22,1.22,0,0,1,0,.17l.08-.8C120.18,370.4,120.17,370.62,120.16,370.82Zm.7-1.23c-.17.31-.3,1.31-.5.49C120.52,369.89,120.66,369,120.86,369.59Zm-.33-1.68c-.07.78-.12,1.46-.18,2.15a.12.12,0,0,1-.15,0c.08-2.31-.26-1.68-.49-2.05Zm-.51,5.7c-.18.67-.31.26-.43-.2ZM119.4,371a13,13,0,0,1,.17,2.34A10.15,10.15,0,0,1,119.4,371Zm-.72,1.4c0,.11,0,.22-.05.33h0Zm-.61.67.05.13-.07.09Zm-1.16.68a1.89,1.89,0,0,1,0-.23c0,.09,0,.17,0,.25l-.09.3Zm-2.23-2.13c-.1.55-.2,1.27-.31,0Zm-1.58.72c0,.11-.1.2-.14.3.05-.19.11-.37.17-.55C113.12,372.15,113.11,372.28,113.1,372.32Zm0-5.74-.31,0v-.5Zm-4.85.56,0-.11v.19Zm3.07,3.24v-.29a.5.5,0,0,1,0-.13,1.21,1.21,0,0,1,0,.26A.5.5,0,0,1,111.3,370.38Zm0-4.52a3.23,3.23,0,0,1,.06.49c-.16.54-.32,1-.54.88C110.89,365.61,111.12,365.87,111.31,365.86Zm-1,1.52c-.4.18-.77-2-1.18-.43C109.57,365.31,110,366.49,110.33,367.38Zm-1.17,2c.11-.11.22.15.15.8a1.72,1.72,0,0,1-.24.76,3.65,3.65,0,0,1-.18-.76A4.64,4.64,0,0,1,109.16,369.4ZM27.14,382c1.77-.77,1.71,0,2.46.33C27.78,382.82,27.31,382.54,27.14,382Zm77-13.64a2.6,2.6,0,0,1-.14.53c-.18-.2-.16-.62-.11-1.18,0-.33,0-.9.12-.59A7,7,0,0,1,104.16,368.33ZM103,370.79c0,.06,0,.18,0,.27a1.31,1.31,0,0,1,0-.15c0-.08,0-.2,0-.3A1.43,1.43,0,0,1,103,370.79Zm-.77-2.56h0c.26.33.32-.39.26-1.57v0c.19,1.45.18,2.52-.22,2.22,0,0-.08-.08-.12-.12S102.21,368.4,102.23,368.23ZM78.61,400l-.19-.32,1-.2Zm5.62-68.11c.7.69,2,.12,2.92.34l-.47.74a17.93,17.93,0,0,1-2.39,1.91c-.4-.25-.8-.51-1.21-.74l.22-.18a3.15,3.15,0,0,0,.32-.62l-1,0C83.16,331.8,83.79,331.49,84.23,331.86Zm-4.6-2c.46,1.13,1.31,1.29,2.2,2a6.86,6.86,0,0,0-1.79.78c-.62-.27-1.27-.48-1.91-.7a2.08,2.08,0,0,0-.25-.38C78.43,329.82,79.22,328.9,79.63,329.88Zm-1.78,1.71-.11.21-.5-.18A1,1,0,0,1,77.85,331.59Zm-23,0h0v0Zm-.47-7.77a2,2,0,0,1,.11.33,1.58,1.58,0,0,1-.38,0,2.57,2.57,0,0,1-.12-.32A1.7,1.7,0,0,1,54.41,323.86ZM30,380.61c-1.28,0-1.25-.72-1.69-1.16C29.06,379.71,30.16,379.74,30,380.61Z"/><path class="cls-1" d="M53.08,802.12A30.63,30.63,0,0,0,54.47,806c.62,1.17,1.79,2.32.43,3.86h0c-.7-.24-.5-1-2.64-.9,1,.55-.51,1.9,2.33,1.2.47,1,2.16,1.53,3.29,2.17s1.78,1.35.25,3.11c-3.5,2.51-3.44,4,0,4.48-1.84.77-1.48,1.13-.55,1.37s2.51-.1,2,.76c-1.27,2.34,1.06,2.36,2,3.24s1.15,2,3.32,1.32c.26-.08.18.64.29,1h-.06l0,.1.1-.1a4.36,4.36,0,0,1,1.21,0c1,.4,1.35,1.25.24,3.19,1.83-.57,3.26-.86,3.75.36l-.2.64c-.07.3,1.42-.61.18.46-2.15,1.85-2.78-.13-4.93.58.31,1.58,1.71,1.72,3.11,1.61s2.9-.53,3.6.35c-1.27,1.45-1.68,0-2.91,1.13.39,1.49,1.55,1.46,3,1,2-.64,3.59-1,4.71.32a12.36,12.36,0,0,0,4.65,2.94,3.58,3.58,0,0,0-.52.44c0,.28.1.55.13.68.32.18.6,0,.7-.5a.88.88,0,0,0-.09-.53c.79.32,1.55.73,2.33,1.09,3.43,1.74,7.52,1.19,11.16.89h0c.23.64.48.64.72,0,.51,0,1-.33,1.55.28.81.86,2,1,2.51-.19,1.41-3.76,3.39-2.82,5.34-3.39,1.11-.28,2.35-.22,3.46-.61a3.59,3.59,0,0,0,2.67-2.5c-.87-1-1-1.44-.85-1.74l.62-.3c.56,1-.81.65.24,2a5.1,5.1,0,0,0,3,.39,1.81,1.81,0,0,0,1.43-1.78c0-1.84.79-2.21,1.68-2.51s2-.32,2.42-1.28c1.09-2.87,3.88-4.09,5.6-6.43.68,2.57-2,2.64-1.12,6,3.44-2,6.14-4.84,6.55-8.73,1.07.25,1.29.08.58-.86-.87-1.14-.81-2.11.43-2.25,1.55-.18,1.7,0,1.71-.26a32.2,32.2,0,0,1,0-4.29,2,2,0,0,1,1.41.3,1.9,1.9,0,0,0,2.48-.27c.64-.54,1.24-2.1,1.89-2.26,1-.24,2.08.63,3.12-1,.35-.53.78.63,1.09-1.31.21.73,0,5.48.64,1.7.32,1.57.64,2.14.92-.27.15-.48.26-1.75.49-.57-.13,1-.33.24-.48.64-.06,2.08.26,1.46.46,1.71s.39-.4.44,1c0,1.09,0,2.81.35,2,.21-.42.48-.66.47-2.61,0-1.74.06-1.75.48-.85v.15s0-.09,0-.13c.32-.58.72-1,1-.13.72,2.63,1.36-.21,2-.32.15-1.39-.15-1.24-.25-1.89.35-.8.63,0,.91.74-.07.63-.32,0-.32,1.2l.15.78c-.06-.25-.11-.49-.16-.74h-.31c0,1.46-.59,2.35-.42,2.77.58,1.47,1.25,2.82,1.78-.82.19,1,.58-2.41.72,1.08.07,1.89.56,1.12.82.77.67-.88-.11-1.15-.05-1.64.31-2.39.89-1.23,1.32-2.55.31-.94.27,1.94.41,3-.22-.16-.43-.43-.64.57.44,1.23.84,1.73,1.35.61-.3-.88-.12-2.86-.42-3.63a4,4,0,0,1,0-2.45h0c0,.8,0,1.59,0,2.38.2,0,.38-1,.59-.23h0a1.44,1.44,0,0,0,0,.8,1.72,1.72,0,0,0,.1-.38c.17,1.72.33,3.58.75,1.31h0c1-.54-.36,2,.11,2.34.35,0,.7-.19,1-.28.72-.2,1.39-1.82,2.11-1.47h0c.1.17.12,0,.09-.47.27-1.2.6-.28.89-.67h0c1,2.77,1.95-.17,2.92-.59.25-.11.74.13.87-2.19.33,3.32.79.75,1.2.72,0,.42,0,.84,0,1.26h0c0,.41,0,.52.06.32l.29-.22a7.11,7.11,0,0,0,.2-2.19c-.15-1-.32.48-.49.41,0-.46,0-.93,0-1.39.69-.46,1,1.9,1.25,4.58h0a4.17,4.17,0,0,0,0,1.65c.16.53.27-.09.36-.76h0v0c.14.58.13,2.12.43,1.72a4.21,4.21,0,0,0,.19-1.78,1.38,1.38,0,0,1-.06-.16,1.16,1.16,0,0,1,0-.27c.23-1.44.53-1.59.87-1.5.53.13,1.11,2.08,1.56-1.2,0-.39.34-.63.45.65.16,2,.42,1.41.69.58s.47-1.42.78-2.33c-.18,2.79.06,3.24.42,2s.63-1.74.93.66c.18,1.5.48,1.59.54-.82-.51-.81-.1-1.67,0-2.64a14.14,14.14,0,0,1,0,2.59c.26.23.52-.25.77-.3.65-.13,1-3.86,1.68-3.52a3.77,3.77,0,0,0-.14,1.72c.2.69.22-.51.26-1.2.94-1.36,1.43,1.13,1.7,6.13.27-1.1.53-2.28.89-1.61l.09-.48a24.72,24.72,0,0,0,.41-3.88l.59-1.52h0l.12.22-.05-.57a11.17,11.17,0,0,0,.09-2.68c-.53,2.47-1.23,1.24-1.87,2.15.6-1.86.85-6.66,1.84-5.21.19.27.63.88.77-1.31,0-.14,0-.28.07-.43-.13-1,0-2.41-.23-3.27-.09-.35-.26-1.1,0-1.3.66-.53.31-2,.09-2.86-.68-2.82-1.27-7.14-2.36-4.43-.37.93-.76,1.48-1.11-.37-.06-.29-.21-.26-.31-.12-1,1.48-2-.48-3,1.25s-2.06,1-3.09,1c-1.86.11-3.71.54-5.56.72-.19,0-.5.95-.57-1h0c.09-.35.36.18.27-.94-.06-.74-.25-.09-.37.37-.87,1.38-1.69,2.25-2.67,2a15.43,15.43,0,0,0-4.45-.08c-.82.06-1.68.94-2.46.48-3-1.79-6.05,0-9.07-.87-1-.32-2.1,0-3.13-.78-2.45-1.9-4.91-.47-7.37-.81a11.41,11.41,0,0,0-1.85-.09c0-.16-.22-.25-.75-.14a2.68,2.68,0,0,0-.58.27,14.56,14.56,0,0,0-3.59,1c-.07-.93,1.75-2.47,1.09-3.59a6.91,6.91,0,0,0-1.69,2.18c-.35-.87-.76-1.71-1.18-2.54.16.33.48.53,1.35.46a2.21,2.21,0,0,0,.82-.56c.15-.92-.63-1.3-2.56-1.12a10,10,0,0,1,.38,1.19,35.8,35.8,0,0,0-7.62-10.09l1.44.6a8.23,8.23,0,0,1,3.15,2.44c.8,1.32.39,3.26,1.62,4.17.31.22.55.67,1.48,0,.66-.49,2-1.45,1.59-1.77-1.14-.85-.74-2.81-2.52-3.16-.74-.12-.93-.62-.92-1.42a3.54,3.54,0,0,0-1.66-3.2,11.37,11.37,0,0,0-3.54-1.09c-1.75-.24-2.69-1.63-4.65-1.22-.54.13,0-1,.36-1.75a2.69,2.69,0,0,0,3.15-1.53c.91-1.6,0-2.82-1.33-2.2-1.66.8-2.48.08-3.46-.45s-1.94-1.12-3.37-.08c-.1.07-.15-.68-.24-1.08.95-1.25,2.13-.21,2.6-2.18s-1.12-1.24-1.9-1.5a23.4,23.4,0,0,0-3.28-.8,8.19,8.19,0,0,1-3.26-1.17,10.91,10.91,0,0,0-4.81-1.58,8.36,8.36,0,0,0-5.07,1.63c-.87.68-1.91,1.15-2.87-.59-.48-.85-1-.48-1.51-.63-1.22-.31-2.4.45-3.58.76s-2.34.34-4-1.63c-.08-.1-.34,0-.4.19-.94,2.38-3,2.53-3.61,5.33-.43,2.32-2.25,3.48-4.27,1.72-2.37-2-3.68-1.56-4.86-.73-3.39,2.6-7,5-9.67,8.42-.86.94-1.64,2-2.43,3a14.91,14.91,0,0,0-2,3.26,10.11,10.11,0,0,0-.69,7.84c.16.46-.19.69-.82.74-3,.23-2.85,2.06-2.6,3.72.08.78.53,1.68.11,2.26a6.9,6.9,0,0,0-.59,6.25A42.63,42.63,0,0,1,53.08,802.12Zm124.28.55c0-.2,0-.42.07-.63.57,2.2,1-2.15,1.58-.66.18,2.38-.78,1.36-.34,4.22-.36,0-.72.12-1.07-.06S177.37,803.77,177.36,802.67Zm-2.1.25c.5-1.23,1-1.26,1.49.06-.15,1.12-.14.85-.43.79s-.57,1.74-.94,1.49c-.16-.12-.39.58-.43-.86A2.32,2.32,0,0,1,175.26,802.92Zm-1.9,5.15a1,1,0,0,1-.12.32c0-.18-.05-.35-.08-.52s.08-.3.11-.31S173.45,807.43,173.36,808.07Zm1-2.59a7.6,7.6,0,0,1-.46,2.47,5.6,5.6,0,0,1,.46-2.47Zm-.22-2.32c-.49,2.38-1,1.67-1.64,1C173.2,803.39,173.62,802.62,174.18,803.16Zm-2,2.57c0-.15.05-.3.08-.44,0,.16-.05.32-.08.48l-.12.78Zm-.86-1.61a3.22,3.22,0,0,1,0,.33c-.09.48-.16.08-.24-.16Zm-.38-.28a3.29,3.29,0,0,1,.1.37l-.16-.3S171,803.8,171,803.84Zm-.51,3.67c0,.14.05.27.07.43a1.37,1.37,0,0,1,0,.23s-.07-.08-.1-.12C170.4,807.85,170.42,807.68,170.45,807.51Zm-4.24,1.42-.2.05C166.07,808.13,166.14,808.79,166.21,808.93Zm-.78.2a2,2,0,0,1,.12.25c0,.06,0,.16-.05.15a1.2,1.2,0,0,1-.11-.2C165.4,809.25,165.42,809.11,165.43,809.13Zm-5.78-1.47,0,.13-.06.05Zm-9.57-.78a.42.42,0,0,1-.05.17c0-.27.06-.54.08-.8C150.1,806.46,150.1,806.67,150.08,806.88Zm.71-1.23c-.17.31-.3,1.3-.5.49C150.45,806,150.58,805.08,150.79,805.65Zm-.34-1.68c-.06.78-.12,1.46-.17,2.14a.1.1,0,0,1-.15,0c.08-2.3-.27-1.67-.49-2Zm-.51,5.7c-.18.66-.3.26-.43-.2Zm-.62-2.63a12,12,0,0,1,.18,2.34A10.71,10.71,0,0,1,149.32,807Zm-.72,1.4,0,.33h0Zm-.61.67.06.13-.07.09Zm-1.16.68a1.89,1.89,0,0,0,0-.23c0,.08,0,.17,0,.25s-.07.2-.1.29Zm-2.23-2.14c-.09.55-.19,1.28-.3,0Zm-1.58.72a1.68,1.68,0,0,1-.14.3c.06-.18.12-.36.17-.55A1.31,1.31,0,0,1,143,808.37Zm0-5.73-.31,0v-.5Zm-1.78,3.79,0-.29.06-.12c0,.09,0,.21,0,.26A.44.44,0,0,1,141.23,806.43Zm0-4.51a3.23,3.23,0,0,1,.06.49c-.17.54-.33,1-.54.88C140.82,801.67,141,801.93,141.24,801.92Zm-1,1.51c-.39.19-.76-1.95-1.17-.42C139.5,801.37,139.87,802.55,140.25,803.43Zm-1.16,2c.1-.11.21.15.15.79a1.77,1.77,0,0,1-.24.77,3.48,3.48,0,0,1-.19-.76A4.4,4.4,0,0,1,139.09,805.46Zm-.89-2.37,0,.19-.06-.08Zm-4.37.65c0-.33,0-.9.12-.59a6.81,6.81,0,0,1,.13,1.24,2.56,2.56,0,0,1-.13.53C133.77,804.72,133.78,804.29,133.83,803.74Zm-1,2.93a.58.58,0,0,1,0,.17,1.4,1.4,0,0,1,0,.28.34.34,0,0,1,0-.16C132.85,806.89,132.87,806.77,132.87,806.67Zm-.71-2.39v0c.27.33.32-.4.27-1.57v0c.19,1.44.19,2.51-.22,2.22a.63.63,0,0,1-.11-.12C132.13,804.63,132.14,804.46,132.16,804.28ZM108.54,836l-.19-.32,1-.19Zm5.61-68.1c.71.69,2,.11,2.93.34l-.48.74a16.43,16.43,0,0,1-2.38,1.9c-.41-.24-.8-.5-1.22-.73l.22-.18a2.69,2.69,0,0,0,.32-.62l-1,0C113.08,767.85,113.72,767.55,114.15,767.92Zm-4.6-2c.47,1.13,1.32,1.28,2.21,2a7.41,7.41,0,0,0-1.8.77c-.62-.26-1.26-.47-1.9-.7a2.49,2.49,0,0,0-.25-.38C108.35,765.87,109.14,765,109.55,765.94Zm-1.78,1.71-.1.21c-.17-.06-.33-.13-.5-.18A.89.89,0,0,1,107.77,767.65Zm-23,0h0Zm-.45-7.76s.07.21.11.32a1.62,1.62,0,0,1-.38,0,2.75,2.75,0,0,1-.13-.32A1.79,1.79,0,0,1,84.34,759.92ZM57.07,818c1.76-.77,1.7,0,2.45.33C57.71,818.88,57.24,818.59,57.07,818Zm2.81-1.36c-1.27,0-1.25-.71-1.69-1.16C59,815.77,60.09,815.8,59.88,816.66Z"/><path class="cls-2" d="M865.23,506.43,821,825.39l-30,4.2L721,839.4l-35.55,5-3.71.52h-.11l-.93.15L505,869.65l-184-25.36h-.09l-3.12-.43-43.51-6h0l-59.46-8.19-31.09-4.29-44.26-319,44.26-318.88L398,157.76h0l37.2-5.15,66.81-9.3,107.13,14.85h0L821,187.55Z"/><path class="cls-1" d="M875.36,498c-3.6-22.66-7.91-45.06-11.14-67.39C861.79,413.84,857.88,426,858,411c0-6.64,3.15-6.85,2.75-17.88,0-1.3-.17-2.74-.27-4.12,3,1.53,2.09-5.53.43-16.72-3.2-21.48-6.39-43.32-8.79-64.65C849.37,283.28,846,260,841.87,236c-1.48-8.58-3.17-16.83-4.82-25.06l-1.24-6.17-.6-3.09-.3-1.55-.37-2.06c-1.17-6.93-2.29-13.77-3.35-20.7l-7.12-.92-28.47-3.91L773,169.32c-15.1-2.09-30.2-4-45.33-5.16-10.14-.79-22.44-3.84-31.76-2.89-5.82-1.65.11-6.31-18.16-4.48-9.18-3.09-18.21-5-26.78-3.41-4.31,0-7.73,1-14.11-1.29,3.74-.66,9.55,1,13.85,1.18,2.14-2.11-7.27-2.7-12.92-3.77-4.56-.87-11.39-1.12-12.64-2.86-1-1.41,1.66-3-9.79-3.71-6.12-.36-14.19-1.2-14.21,1,0,2-1.79,1.77-14-1h.19l-.37-.19.16.18c-9.25-.62-20.83-1.78-27.36-3.65a154.59,154.59,0,0,0-28.45-5c-4.63-.45-9.23-.78-13.83-1.15l-6.9-.58-3.46-.33-5.05-.6-4.39.65c-1.36.7-1.36,1-.64,1.17a3.82,3.82,0,0,0,.66.07,6.37,6.37,0,0,0,1.07,0l3.3-.24,3.8.77a16.85,16.85,0,0,1,1.93.6c-.84-.05-1.4-.07-2.42-.16l-3.31-.33-4.21.66-2.88.39c-1.9.23-3.75.41-5.58.54-3.64.27-7.17.38-10.7.51,2.14-1,9.41-1.35,9.31-2.69l-4.54-.27,4.76.19,9-1.23c.14-.25.26-.48,1.12-.8s2.25-.71,3.76-1.1c5,.2,7.12.09,9.46.09,2.12,0,3.2-.13,1.47-.55l-4.34-1-2.38-.54-4.21-.78-4.91.46-2.78.19-5.58.47c-3.72.35-7.43.8-11.06,1.39a87.93,87.93,0,0,0-20.27,5.47c-5.74-.32-16.52,5.07-20.92,1.65-2.38-1.85-16.53,1-24,2.45-19.28,3.7,3.36.86,1.6,1.67-8.5,3.94-25.49,5-37.73,8.19-8.77,2.31-8.14-1.11-12.2-1.83,6.2-.68,12.54-1.24,18.39-3.22a192.34,192.34,0,0,0-39.25,4.75c8.91-.22,3.84,2.78,12.74,2.43,11.24-.64,4,1.32.5,2.76h-.06l-.83-2.63c-5.66.74-10.69,2.63-16.78,2.61h0c1.33-.48,3.29-1.05.39-1a24.54,24.54,0,0,0-3,.85c-5.13-1.27-10-2.74-22,1.53h0c-29.93,4.78,9.92-3.74-3.56-2.21-10.27,1.36-20.42,3.05-30.6,4.57-20.68,3.1-39.85,7.64-60.83,10.15h0c-2.8.21-3.47.51-2.43.89a72.46,72.46,0,0,1-12.52,2.48l-6.64.84-3.82.54-5.49.87h-.07c-5.52.41-11.17.93-16.85,1.51-1,5.41-1.87,11-2.73,16.57q-.92,6.27-1.83,12.5c-.84,6.29-1.51,12.57-2.12,18.85-1.21,12.56-2.15,25.1-3.67,37.59-.88,7.25-3.12,21.38-1,25.47-5.09,9-4.05,22.86-5.65,34.62l-1.49.32h0c-.32-1-.54-.44-.62,1.85l-.9,8.35c.55,2.25,0,10.2,1.68,6.1s.72-9.18,1.5-14.22l1.72-.84c-2.25,20.06-6.13,28.34-10.19,35.33h0c-.38-1.84-.65-5-1.83-.6A24.11,24.11,0,0,0,143.8,368l-.05.23.06-.16c-1.22,3.95-2.92,3.33-3.65,12-.48,5.56.33,5.93,1.21,6.06.14-.59.28-1.22.43-1.73a8.12,8.12,0,0,1,.49-1.31c.71,6.86-.35,15.72-1.8,25.48-2.27,15.25-6.81,31.76-4.9,45.28.23,1.62-.68,10.15-2.55,13-3,4.48-3.3,12-3.43,19.86-.05,2.75-.11,5.53-.18,8.52,0,1.5-.08,3.05-.13,4.68,0,.81-.05,1.64-.07,2.5-.09,1.32-.19,2.67-.29,4.06.2.84.46,1.94.75,3.19.15.72.24,1,.36,1.47s.23.88.34,1.33c-3.88-4.74-3.42,2.29-.6,12.48,3,10.74,4.48,17.85,3,26.8-1,5.57.15,14.21,3.12,15.58-1.11-14.73,1.48-3.14,2.88-1.18-.17,6.39-2.09-.24-2.78,1.49.8,7.66,2.36,14.95,3.43,22.26,2.78,18.91,8.4,28.37,10.72,47.95h0c-.93-2.27-2.47-8.65-2.48-3.51,0,5.67,1.44,6.09,2.37,7.07,5.33,27,4.47,41.59-.09,50.35,2.31,7.48,4.68,14.81,5.41,25.58l.9,2.47c2,4.71,4.13,11.2,6,11.26l4.08,16.79h0l.22,3.34.45-1.51c.93-.35,2.56,8.21,3.41,2.39-4.94-15.1-6.34-35.49-9.93-53.78,4.52,17.08,10.92,23.34,13.28,52.37.45,5.56,1.53,18.38,4.56,22.06q.4,1,.78,2c.6-3.92,2.66-.92,2.78-7.27,0-2.57.21-7.62,1.44-.43,3.24,19,3.45,8.62,3.59,2.1.45-20.22,3-37.91-4.44-68.92-2.57-10.73-4.72-21.68-4.06-32.32a51.32,51.32,0,0,0-1.09-8.79c-5.58-28-7.48-58-13.34-85.76-2.36-11.19-4.29-22.59-6-34.09q-1.22-8.64-2.46-17.31-1-7.74-2-15.48,1.32-9.24,2.63-18.48,10.77-80.56,21.52-161.1c.73-5.41.92-14.48,3.45-16.25h0c0,2.81-1.67,10.57,0,8.12,1.08-1.63,1.14-7.39,1.08-10.88,1.93-25.37,4.26-49.4,8.4-77.57,1.51-10.33,3-20.73,4.55-31.3l78.16-11c23.81-3.39,48.51-7.84,71.3-10.47,26.63-3.07,53.2-6.52,79.75-10.15l77.8-11,49.8,6.82q25.77,3.62,51.49,7.46c30.13,4.54,60.83,8.41,90.43,13.43,20.76,3.53,41.59,6.73,62.46,9.76l31.32,4.42,15.67,2.15,3.11.4,1.19.14.28,1.65,1.3,9,3.13,22q3,22,6.08,44c10.11,75.92,21.34,152.09,33.32,227.82l.07.41,0,.17.07.36,0,.57-.24,2-.53,4.37L850,522.1l-2.19,17.53-4.53,35.12c-3.1,23.4-6.34,46.74-9.72,69.76-7.4,50.38-15.53,100.64-22.3,151.42l-1.84,13.81-.43,3.64L505,857.54l-22.43-3c-59.23-7.86-118.51-15.47-177.69-23.69-29.42-4.08-58.8-9-88.38-12.6-19.86-2.45-40.62.73-28.66,5,12.81,4.53,7.31,5.85,2.46,8,16,1.72,35.29,2.35,41.91,5.89,8.9,4.75,21.9,6,35.15,8.26,5.84,1,12.52,1.37,17.42,3,28.78,9.52,63.21,14,99.43,17.44,27.55,2.6,55.32,6.47,83.33,10.17,6,.78,11.94,1.68,17.91,2.61l19.58,3.1,15.28-1.9c4.55-.59,9.1-1.21,13.64-1.9,9.09-1.37,18.14-3,27.12-5.09,14.67-3.41,21.85-3.46,33.43-3a71.34,71.34,0,0,0,10.64-.92c39.82-6,79.59-11.41,119.28-15.65h-.09c28-.07,56.25-7.79,84.4-11.26l12.53-1.89c3.88-.53,6.91-.74,8.2-.06s3.77.92,6.89.72c1-4.57,1.69-12.46,2-20.13.1-1.6.19-3.23.29-4.9l.09-1.23,0-.76,0-1.33c.09-1.79.24-3.62.44-5.47.4-3.68,1-7.42,1.6-11,5.4-31.41,4.82-62,12-93.75.69-3.06.82-8.8.9-12.7.17-11.55.34-22.8.51-34.16,3.13-5.36-.64,18.44,2.83,8.47,2.88-8.27,4.17-20.66,4.66-31.6a27.17,27.17,0,0,0,0-5.41c-1.21-3.72-1-5.75,1.39-10.92,2-4.24,3.82-9.37,3.17-19.89-.51-8.2,1.21-22.77,2.19-38.76.55,9,0,17.07,1.06,20.32a50.34,50.34,0,0,0,1.94-12.19c.43-9.12,1.17-19,2.06-28.77L874.94,522q.38-3.6.75-7.1c.34-2.86.67-5.68,1-8.43C876.21,503.44,875.78,500.7,875.36,498ZM859.68,384.71c.19,1,.38,2.12.58,3.19l-1-4.31A8,8,0,0,1,859.68,384.71ZM143.34,458.86a15.34,15.34,0,0,1-.18,1.8c-.25,1-.53,1.86-.8,2.76ZM140.21,446c.13-1,.35-1.91.55-2.94.12.79.22,1.46.33,2.12-.26.72-.53,1.5-.79,2.07A3.46,3.46,0,0,1,140.21,446Zm1.93,18.44-.81,7.17c-.11-.13-.29-.05-.32-.44A18.52,18.52,0,0,1,142.14,464.4Zm-6.72,67.15a31.8,31.8,0,0,1-.87-3.55c.1-.79.19-1.56.28-2.33a29.7,29.7,0,0,1,.79,3.19C135.84,530.37,136.46,533.79,135.42,531.55Zm.58-35.28-.39-3.72.47,3.49.15,2.6Zm1.86,51.93c1.71,1,3.21,6.22,4.64,12.85v.06C140.79,559.88,139.34,553.72,137.86,548.2Zm1.54-15.14c-.54-3.79-1-7.79-1.45-12.09s-.91-9.15-1.42-14.32c1.75,9.62,3.19,17.51,4.57,25s2.33,14.56,3.16,22.75A118,118,0,0,1,139.4,533.06Zm18.18,113.29c.22-.1.66,1.3,1,2-.22,16.79,6.63,29.94,7.09,45.62-2,5.37-4.69-22.48-6.16-9.19-1.42-10.34-3-20.75-4.23-31S156.38,646.9,157.58,646.35Zm-2.79-17.56c-1.87-4.11-1.55-4.09-2.62-12.26-1.24-9.51-4.28-16.32-5.47-27-.53-4.79-2.24-11.25-.76-12.62,1.08-1,2,4.9,2.92,8.75A217.23,217.23,0,0,1,154.79,628.79Zm1.72-306.61.72-5.6C157.94,318.48,156.93,320.32,156.51,322.18Zm2.14-19.2a7.44,7.44,0,0,1,0-1.25c.23-1.11.46-2.18.69-3.3a6.78,6.78,0,0,1,.07,1.17ZM236.78,173.2l-1.59.07L237,173Zm278.63-34.11a8.28,8.28,0,0,1,1.43,0l-2.46.59A4.73,4.73,0,0,1,515.41,139.09Zm-13.35-.41a46.39,46.39,0,0,1-8.61,1.17c1.4-.3,2.7-.65,4-1,1.12-.32,2.86-.72,4.63-1.06l2,.21,1.88.27a29.76,29.76,0,0,1,3.47.83c-1.16-.11-2.27-.16-3.37-.2l-1.87-.09Zm2.08,2.21c2.17-.6,3.77-1.17,5.54-1.71,1.46.15,2.91.35,4.35.59-2.7,2.29,7.29,2.94,13.86,4.29Zm15.71-4.41a39.7,39.7,0,0,1,12.38,2ZM537.34,142c-5.54-1.43-3-2.26-4.66-3.35C535.23,139.74,539.24,141,537.34,142Zm21.14,1.31,1.33-.19h0ZM576.23,145l-1.58-.37,2.06.19Zm33.74,3.9-1.61,0,1.46-.09,2.79,0Zm64.12,11.36c2.95-.23,5.88-.65,8.88,1.19Zm45.9,5.54,4.12.22L719,165.9A3.29,3.29,0,0,1,720,165.75Zm-.48,6.55,9,1.2,0,.58Zm50.59,2.82a12.25,12.25,0,0,1,1.54,0l.42.39-1.64-.09C770.29,175.34,769.9,175.15,770.1,175.12Zm.56,5.11a7.06,7.06,0,0,1-1.72-.8,97.61,97.61,0,0,1,15.75,1.16C782.72,182.2,776.25,181,770.66,180.23Zm50.9,6.75c-7.65-1-15.16-2.87-22.18-4.51,7.17.85,15.09,2.94,22.49,4.2a78.12,78.12,0,0,0,2.36,12.74A95,95,0,0,1,821.56,187Zm6.28,37.72.17-.38.15,1.81ZM829,206.6c-.46-1.69-.84-3.06-1.18-4.3-.16-.63-.31-1.22-.47-1.8s-.3-1.45-.43-2.19c-.62-3.55-.9-7.76.13-5.7a21.44,21.44,0,0,1,1,3.6c.33,1.55.7,3.32,1,4.9A40.35,40.35,0,0,1,829,206.6ZM623.46,862.15a2,2,0,0,1-.81-.22,12.43,12.43,0,0,1,1.6-.39c.85,0,1.52.05,2.25.09C625.49,861.81,624.48,862,623.46,862.15Zm17.3-5.84c-.85,0-1.74,0-2.49-.08a7.15,7.15,0,0,1,1-.43l2.55.06Zm17.93.21a11,11,0,0,1-3.93,1.51,32.23,32.23,0,0,1-4.66,0l4-1.41C657.48,855.92,659.36,855.86,658.69,856.52Zm15-3.42c8.58-1.62,4.8,1.7,13,.29C678.19,854.89,673.2,855,673.71,853.1Zm153.58-55.39a5,5,0,0,1,.19,1c-.31,1-.63,2-1,2.87,0,.12-.12-.63-.19-1C826.66,799.65,827,798.59,827.29,797.71Zm-24.54,32.1c2.07-.33,4-.61,6.2-.88s4.51-.5,6.87-.66l-25.23,3.65Zm-42.29,13.7-8.85-1.41c2.17-.38,4.41-.89,6.49-1.11C767,840,761.42,842.18,760.46,843.51Zm16.7.72c.08-.09.09-.22.28-.26a18.17,18.17,0,0,1,1.8-.27,14.66,14.66,0,0,1,1.47,0Zm7.24-4.61a7.87,7.87,0,0,1-5.9,0c-1.4-.57-.32-.91,4-1.46,4.52-.57,9.17-1.41,13.71-2.06,2.27-.32,4.51-.6,6.7-.76,1.09-.09,2.17-.14,3.24-.17h3.37L796.44,837A72.36,72.36,0,0,0,784.4,839.62Zm46.74-4.08c-5.42,1.1-11.3,2-17.24,2.65l-4.45.41c-1.1.06-1.88,0-2.84,0q-2.75,0-5.58-.33c1.91-.49,3.75-1,5.26-1.5a17.39,17.39,0,0,0,3.6-1.65l13-1.85c-2.53,1.14-7.34,2.68,1.15,2.22,2.32-.13,4.47-.36,6.47-.66.75-5.61.87-11,1.47-16.36C831.87,823.92,831.62,829.7,831.14,835.54Zm7.94-49.84c-1.05,5.13-2.24,10.15-3.42,15.17-.59,2.51-1.17,5-1.76,7.54s-1,4.49-1.86,9.1c.11-1.14.21-2.32.32-3.52.09-.85.17-1.71.26-2.59.18-1.62.41-3.29.67-5,.52-3.39,1.07-6.9,1.6-10.27,1-6.77,1.56-13,.15-17,.83-3,2.2-8.92,2.42-8.6,3.33,4.73,3.75-9.8,5.12-17.81A152.14,152.14,0,0,1,839.08,785.7ZM845,685.15c-.61-2.26.55-3.85.85-5.76C845.54,681.29,845.26,683.22,845,685.15Zm3.41-18.89-.24-.86a13.14,13.14,0,0,1,.45-1.76c.1-.18.17.49.25.78ZM853.3,377c0-.2.24.22.37.36a10.94,10.94,0,0,1,0,1.55c-.06.19-.26-.22-.4-.37A11.4,11.4,0,0,1,853.3,377Zm-7.17-25.8c-.48-.76-1.12-.66-1.15-3.41a7.2,7.2,0,0,1,.88-4c.13-.2.86,2.88,1.15,3.87C847.51,353,847,352.48,846.13,351.18Zm8.9,288c0,3.22-.6,5.36-1.37,6.23-.71-.06-1.27-.76-.6-4.66.45-2.63,1.28-6.39,1.79-7.09C855.85,632.31,855,637.24,855,639.22Zm-1.58-240c-.7-7.76-1.75-9.3-2.87-7.51l0-.14c.87-5.7,2.11-5.69,3.4,6.08.94,8.56,1.4,16.87,2.06,25.29C854.35,414.55,854.15,407,853.45,399.18ZM859.4,605.3a48.16,48.16,0,0,1-1.71,5.5c-.72-.57-.64-2.35-.09-4.45a19,19,0,0,1,1.48-4.16C859.67,601.28,859.92,602.91,859.4,605.3Zm.19-166.6c-.09-.75-.24-1.62-.25-2.22a4.54,4.54,0,0,1,.19-1.18c.14.63.41,1.69.39,1.83A9.34,9.34,0,0,1,859.59,438.7Zm4.69,127,.18-5v-2.49l0,2.35Zm-.45-120.68,1.28,8.71A14.42,14.42,0,0,1,863.83,445.05Zm8.32,91.77c-.33,2.4-.6,2.82-.48,1,.08-1.33.36-2.95.58-4.42a4.1,4.1,0,0,1,.32-.91C872.44,533.93,872.35,535.38,872.15,536.82Z"/><polygon class="cls-1" points="141.4 386.14 141.38 386.13 141.31 386.38 141.4 386.14"/><polygon class="cls-1" points="866.38 430.15 866.37 429.81 866.35 430.06 866.38 430.15"/><path class="cls-1" d="M872,457.25c-.54-10.59-3-18-5.11-25.8a9.87,9.87,0,0,0-.5-1.3c-.08,10.2,2.4,19.51,4.38,28.57C871.5,462.13,872.12,459.79,872,457.25Z"/><path class="cls-1" d="M728.58,162.85c7.52.68,17.42,2.3,18.49-.87-9.16-.22-18.52-1.89-22.31-.51C724.42,161.59,727.56,162.75,728.58,162.85Z"/><path class="cls-1" d="M173.09,775.63c-1-6.29-2-1.5-3.1-4l1.93,13.43C172.68,783,174.23,782.71,173.09,775.63Z"/><path class="cls-1" d="M171.88,785.14l.1.29h0l-.06-.38,0,.06A45.25,45.25,0,0,1,170,771.55l0,.07-.05-.33v.25c-1.28-12.14-3.47-13.33-5.48-16.78,1,9.46-3,10.32-.14,20.06,4.68,15.75,7.4,43.19,13.49,50.07C177.67,810.3,171.07,799.51,171.88,785.14Z"/><polygon class="cls-1" points="866.37 429.81 866.3 429.68 866.35 430.06 866.37 429.81"/><path class="cls-1" d="M863.25,415c-.24-.29-.57.81-.51,1.7.56,8,2.11,10.27,3.56,13C865.58,424.07,865.3,417.41,863.25,415Z"/><path class="cls-1" d="M160.56,740.17a14.87,14.87,0,0,0,1.49,4.42c.31.39.47-1.54.69-2.44-.63-2.25-1.25-4.5-1.64-5.9C160.14,736,160,737.6,160.56,740.17Z"/><path class="cls-1" d="M177.44,777.52c.28,1.8,1.42,4.5,1.91,4.64,1.23.36.31-4.07-.24-7.45q-.37-1-.78-2C177.83,773.61,176.71,772.64,177.44,777.52Z"/><path class="cls-1" d="M185.11,812.68a26.11,26.11,0,0,0-.68-5.44c-.91-2.53-1,.07-1.24,1.87h0c-.89-4-2-6-1.95-2.4,0,5.22,1.1,4.55,1.79,5.25C183.84,813.13,184.9,816,185.11,812.68Z"/><path class="cls-1" d="M181.6,818.56l.11,4.17,1.32,2.76a29.35,29.35,0,0,0-.11-3.43A31.7,31.7,0,0,0,181.6,818.56Z"/><path class="cls-1" d="M789.6,170.77c3.56-.11,2.7-.9-.45-1.91l-2,.09-3.38,1A56.72,56.72,0,0,0,789.6,170.77Z"/><path class="cls-1" d="M603.42,140.06c-.54-.34-.79-.77-1.65-.95a30.42,30.42,0,0,0-3.72-.25c.46.3.71.75,1.42.88C600.62,140,602.08,140,603.42,140.06Z"/><path class="cls-1" d="M132.3,460.84c.32-2.84.38-5.57.81-13-2,9.61-2.56,11.77-2.62,13-.06,1.59.19,3.27.53,3.36S132.17,461.92,132.3,460.84Z"/><path class="cls-1" d="M148.45,695.6c.09,1.29.17,2.51.24,3.73.33.4.71,1.18.95,1a16.35,16.35,0,0,0-.2-3.13A4.8,4.8,0,0,0,148.45,695.6Z"/><path class="cls-1" d="M836.61,192.26c.19,0,0-3-.08-4.79-.46-2.22-1-5.26-1.34-6.16-.23-.59-.42,1.49-.27,3C835.34,188.46,836.05,192.25,836.61,192.26Z"/><path class="cls-1" d="M789.15,168.86c-.77-.78.27-1.59-5.18-2.35a11.38,11.38,0,0,0-3.27,0c-.58.88,3.68,1.67,6.45,2.48Z"/><path class="cls-1" d="M330.64,151.47a18.25,18.25,0,0,0,2.94-.9,9.91,9.91,0,0,0-2.55-.36,13.6,13.6,0,0,0-3.33.76C326.86,151.56,327.88,151.85,330.64,151.47Z"/><path class="cls-1" d="M171.52,743.37a15.08,15.08,0,0,0-1.1-2.87c.27,2.53.41,4.53.7,6.43a10.13,10.13,0,0,0,.89,2.26C171.86,747.25,171.77,745.32,171.52,743.37Z"/><path class="cls-1" d="M808.24,170.35l-1.92-1-3.78-.22a5,5,0,0,0,1.79,1A35.44,35.44,0,0,0,808.24,170.35Z"/><path class="cls-1" d="M586.71,142.56a7,7,0,0,0-1.05-.39l1.29.65A.62.62,0,0,0,586.71,142.56Z"/><polygon class="cls-1" points="143.96 627.81 144.3 627.74 143.88 626.02 143.96 627.81"/><polygon class="cls-1" points="150.11 334.99 151.34 331.82 150.19 332.42 150.11 334.99"/><path class="cls-1" d="M151.34,331.82l.15-.08h0l0-.15s0-.11,0-.15Z"/><path class="cls-1" d="M190.24,247.59c-.44,2-.72,3.23-.94,4.47a3.08,3.08,0,0,0,.17,1.14,13.08,13.08,0,0,0,.78-2.54A24.18,24.18,0,0,0,190.24,247.59Z"/><polygon class="cls-1" points="179.86 336.51 179.78 336.76 180.13 341.2 180.16 341.13 179.86 336.51"/><polygon class="cls-1" points="180.15 341.13 180.13 341.2 180.2 342.38 180.15 341.13"/><path class="cls-1" d="M156.22,719.77l-.9-2.46C155.52,720.17,155.83,720.91,156.22,719.77Z"/><polygon class="cls-1" points="566.51 138.69 566.34 138.91 567.65 139 566.51 138.69"/><polygon class="cls-1" points="177.51 795.8 177.81 795.88 177.49 794.43 177.51 795.8"/><polygon class="cls-1" points="179.23 794.93 179.56 795.64 179.42 794.41 179.23 794.93"/><path class="cls-1" d="M158.22,664.22a24.45,24.45,0,0,0,0-4.19c-.48-3.94-1.08-5.64-1.45-5a14.09,14.09,0,0,0-.12,4.5C157,662.33,157.59,665.88,158.22,664.22Z"/><path class="cls-3" d="M669.23,373.76c25.88-97.6,14.77-146.32-30.67-168.9-19.84-51.2-53.93-35.28-53.93-35.28-24.25-64.67-67.61-53.17-86.51-44.3-18.9-8.87-62.25-20.37-86.51,44.3,0,0-34.09-15.92-53.93,35.28-45.44,22.58-56.55,71.3-30.67,168.9S211.79,453.28,228.89,537.6H304.3l11.95-38.31L322,537.6h12.47l8.65-38.31,6.12,38.31h39L386,522.54l8.31,15.06H611.5l18.36-58.73V537.6H676.7l2.92-33.79,16.46,33.79h71.27C784.45,453.28,643.35,471.35,669.23,373.76Z"/><path class="cls-4" d="M768.93,751.39a374.57,374.57,0,0,1-254.49,111.9h-12.7c-4.82,0-9.64,0-14.46,0a374.68,374.68,0,0,1-253-110.88c19.21-58.32,57.11-92.42,93.95-113.82,4-2.35,8.15-4.54,12.39-6.58,5.17-2.51,10.46-4.82,15.75-6.94,4.67-1.88,9.33-3.61,14-5.25,4-1.37,7.92-2.71,11.8-3.92C415,605.43,443,600.38,443,593.48V460.92H560.54V593.48c0,7.72,34.33,13.13,72.07,26.26,3.18,1.1,6.39,2.23,9.61,3.49,3.72,1.41,7.44,2.9,11.17,4.5,5.76,2.47,11.48,5.18,17.05,8.16q4.51,2.4,8.93,5.05C714.73,662.38,750.35,695.81,768.93,751.39Z"/><path class="cls-5" d="M560.53,484.12V559c-13.32,10.38-31.28,19.71-53.66,21.16-32.61,2.08-52.95-11.64-63.88-22.77V490.67l114.84-10.74Z"/><path class="cls-4" d="M370.29,237.76s-25.79,141,11.48,216.12c18.64,37.57,71.17,93.29,120,94.35s94-52.54,117.43-85.51c46.8-65.94,11.6-225,11.6-225S526.15,151.32,370.29,237.76Z"/><path class="cls-4" d="M360.63,353.38s-31.76-45-54.87-5.5c-16.43,28.06,14.31,88.75,53.37,62.61Z"/><path class="cls-4" d="M643.52,353s31.76-45,54.88-5.5c16.42,28.06-14.32,88.75-53.38,62.62Z"/><path class="cls-6" d="M454.15,346.52A15.37,15.37,0,1,1,438.78,331,15.42,15.42,0,0,1,454.15,346.52Z"/><path class="cls-6" d="M580.11,346.52A15.37,15.37,0,1,1,564.75,331,15.42,15.42,0,0,1,580.11,346.52Z"/><path class="cls-7" d="M442.91,411c-6.5,10-20.86,12.1-32.08,4.78s-15-21.34-8.53-31.3,20.86-12.09,32.08-4.77S449.42,401.08,442.91,411Z"/><path class="cls-7" d="M560.77,411c6.5,10,20.86,12.1,32.08,4.78s15-21.34,8.54-31.3-20.87-12.09-32.09-4.77S554.26,401.08,560.77,411Z"/><path class="cls-8" d="M497.14,394.84c-5.87,0-11.6-2-14.73-8.3-1.61-3.23,1.2-6.73,4.75-11.17,3.31-4.12,7.06-8.8,7.6-13.6,2.37-20.81-3.87-47-3.93-47.31a2,2,0,0,1,1.44-2.36,2,2,0,0,1,2.37,1.45c.26,1.09,6.46,27.16,4,48.67-.67,5.92-5,11.29-8.43,15.6-1.91,2.38-4.79,6-4.3,7,5.9,11.79,24.33,2.95,24.51,2.85a2,2,0,0,1,1.73,3.52A36.13,36.13,0,0,1,497.14,394.84Z"/><path class="cls-9" d="M405.35,325.36a3.91,3.91,0,0,1-3-6.44c.81-.95,20-23.16,58.72-14.14a3.92,3.92,0,1,1-1.78,7.63c-34-7.91-50.78,11.36-50.94,11.56A3.92,3.92,0,0,1,405.35,325.36Z"/><path class="cls-9" d="M596.86,325.36a3.93,3.93,0,0,1-3-1.38c-.7-.82-17.17-19.43-51-11.57a3.92,3.92,0,1,1-1.78-7.63c38.66-9,57.91,13.18,58.72,14.14a3.92,3.92,0,0,1-3,6.44Z"/><path class="cls-10" d="M338.53,353.45,348,399.4s-13.68,5.28-18.77-4.91,1.75-17.38,1.75-17.38-18.06-2-17.3-16.51S335.82,340.25,338.53,353.45Z"/><path class="cls-10" d="M666.6,353.45l-9.43,45.95s13.68,5.28,18.78-4.91-1.76-17.38-1.76-17.38,18.07-2,17.3-16.51S669.3,340.25,666.6,353.45Z"/><path class="cls-11" d="M768.93,751.39A374.59,374.59,0,0,1,523,862.9c-2.12.12-4.28.24-6.43.31-.71,0-1.41,0-2.12.08h-15.6c-2,0-4,0-6,0-1.84,0-3.69,0-5.53,0a374.68,374.68,0,0,1-253-110.88c10-30.45,25.16-54.32,42.57-73.17.9-1,1.8-1.92,2.7-2.87a206.65,206.65,0,0,1,26.22-23c1.1-.79,2.16-1.61,3.25-2.35,6.35-4.55,12.82-8.67,19.21-12.39,4-2.35,8.15-4.54,12.39-6.58.43-.2.86-.43,1.33-.63,1.29-.63,2.62-1.25,4-1.8,3.45-1.61,7-3.1,10.46-4.51,4.67-1.88,9.33-3.61,14-5.25l141,98.61,130.91-95.16c3.72,1.41,7.44,2.9,11.17,4.5,5.76,2.47,11.48,5.18,17.05,8.16a3.44,3.44,0,0,1,.55.31c1.21.63,2.46,1.33,3.68,2,1.57.9,3.14,1.8,4.7,2.74A226.72,226.72,0,0,1,704,658.15c1.05.78,2.07,1.64,3.09,2.51a196.74,196.74,0,0,1,23.25,22.61c.86,1,1.72,2,2.54,3A198.94,198.94,0,0,1,768.93,751.39Z"/><polygon class="cls-11" points="760.24 729.49 604.76 818.63 587.25 858.13 780.71 822.03 768.93 751.39 760.24 729.49"/><polygon class="cls-11" points="234.24 752.37 223.3 824.89 391.84 852.64 369.32 769.81 234.24 752.37"/><path class="cls-9" d="M473.78,411.67l45.85,5.64S490.79,435.19,473.78,411.67Z"/><path class="cls-3" d="M348,291.41S338.75,398,379.4,492.05c-12-127.31,0-246.26,0-246.26s134,52.7,243.91,49.69c10.54,54.2,10.54,184.45,10.54,184.45S659,373.69,653.22,275.86s-48.63-82.76-48.63-82.76L443,182.56,361.6,217.72,348,244.29"/><path class="cls-12" d="M674.67,638.2,511.27,775.69,341.91,631.34c1.29-.63,2.62-1.25,4-1.8l165.44,141L671,636.2C672.2,636.83,673.45,637.53,674.67,638.2Z"/><path class="cls-12" d="M707.12,660.66,509.46,827,305.73,653.29c1.1-.79,2.16-1.61,3.25-2.35L509.46,821.83,704,658.15C705.08,658.93,706.1,659.79,707.12,660.66Z"/><path class="cls-12" d="M279.51,676.33l219.33,187c-2,0-4,0-6,0l-216-184C277.71,678.22,278.61,677.28,279.51,676.33Z"/><path class="cls-12" d="M732.91,686.25,523,862.9c-2.12.12-4.28.24-6.43.31L730.37,683.27C731.23,684.25,732.09,685.27,732.91,686.25Z"/><path class="cls-9" d="M418,199.34s48.2,88,228.69,82.67C549.38,274.63,418,199.34,418,199.34Z"/><path class="cls-9" d="M469.61,184.29s47,66.66,185.15,85.94C593.71,251,469.61,184.29,469.61,184.29Z"/><path class="cls-1" d="M820.54,837.35c-2.2.31-4.42.6-6.67.84l-4.45.4c-1.09.06-1.87,0-2.83,0q-2.75,0-5.58-.33c1.91-.49,3.75-1,5.26-1.5a16.88,16.88,0,0,0,3.6-1.65l8.37-1.19c-1.26-1.85-2.54-3.68-3.81-5.51l-23.86,3.45,12.16-2.11c2.07-.33,4-.61,6.2-.88,1.78-.22,3.61-.38,5.45-.52q-5.05-7.26-10.34-14.31L504.93,857.54l-22.43-3c-59.23-7.86-118.51-15.46-177.69-23.68-29.42-4.09-58.8-9-88.39-12.61-19.85-2.45-40.61.73-28.65,5,12.8,4.52,7.31,5.84,2.45,8,16,1.71,35.3,2.34,41.91,5.88,8.91,4.76,21.91,6,35.16,8.26,5.84,1,12.51,1.37,17.42,3,28.78,9.52,63.21,14,99.43,17.44,27.55,2.6,55.32,6.47,83.33,10.17,6,.79,11.93,1.68,17.91,2.61l19.57,3.1,15.29-1.9c4.55-.59,9.1-1.21,13.64-1.9,9.08-1.37,18.14-3,27.12-5.08,14.67-3.41,21.85-3.47,33.43-3a70,70,0,0,0,10.64-.92c39.82-6,79.58-11.4,119.27-15.65h-.08c28-.06,56.25-7.78,84.4-11.26L821.19,840l1.09-.13C821.71,839.05,821.12,838.2,820.54,837.35Zm-197.1,24.79a2.14,2.14,0,0,1-.82-.22,12.61,12.61,0,0,1,1.61-.38c.85,0,1.51.05,2.25.08C625.47,861.8,624.45,862,623.44,862.14Zm17.3-5.84c-.85,0-1.74,0-2.49-.08a8,8,0,0,1,1-.43l2.55.06Zm17.93.21a11,11,0,0,1-3.93,1.51,32.35,32.35,0,0,1-4.67,0l4-1.4C657.46,855.91,659.34,855.85,658.67,856.51Zm15-3.42c8.58-1.61,4.8,1.7,13,.29C678.17,854.88,673.17,855,673.69,853.09Zm86.75-9.59-8.85-1.41c2.17-.38,4.41-.89,6.49-1.11C767,840,761.4,842.18,760.44,843.5Zm16.7.72c.08-.09.09-.22.28-.26a17.74,17.74,0,0,1,1.8-.27c.52-.05,1,0,1.47,0Zm7.23-4.61a7.92,7.92,0,0,1-5.89,0c-1.41-.58-.32-.92,4-1.46,4.52-.58,9.17-1.42,13.71-2.07,2.27-.32,4.51-.6,6.7-.76,1.09-.09,2.17-.14,3.23-.16h3.37L796.42,837A72.7,72.7,0,0,0,784.37,839.61Z"/></svg>